<svg width="786" height="177" viewBox="0 0 786 177" fill="none" xmlns="http://www.w3.org/2000/svg">
<g clip-path="url(#clip0_6697_16593)">
<g opacity="0.2">
<g clip-path="url(#clip1_6697_16593)">
<path fill-rule="evenodd" clip-rule="evenodd" d="M14.4294 49.1568L4.93244 44.7252L3.83785 47.0709L13.3347 51.5025L14.4294 49.1568ZM0.0576511 55.1718L2.95153 48.9703L12.4484 53.4019L9.55459 59.6034L0.0576511 55.1718ZM14.791 53.3385L16.151 50.424L16.2305 50.5007L17.2879 51.5211C17.412 52.5519 17.4058 53.2697 17.4008 53.8508C17.3948 54.5426 17.3905 55.0409 17.6097 55.6435C18.0299 56.7992 18.8184 57.4342 19.8033 57.076C20.7882 56.7178 21.1016 56.0463 20.5643 54.569C20.3452 53.9664 20.0218 53.5872 19.5729 53.0609C19.2804 52.7181 18.9347 52.3127 18.5298 51.7425L17.9758 49.4957C17.5868 47.9187 16.9591 46.3927 15.5605 45.6195C14.8755 45.2408 14.42 45.1618 13.7886 45.0523C13.578 45.0158 13.3477 44.9758 13.0829 44.9203C11.8995 44.6719 9.65758 44.0899 4.77873 42.3455C4.26933 42.1634 3.70498 42.3989 3.47623 42.8892L1.49531 47.1342L-2.28489 55.2352C-2.52965 55.7596 -2.30285 56.3833 -1.77836 56.628L9.61792 61.946C10.1424 62.1907 10.7661 61.9639 11.0108 61.4394L14.791 53.3385Z" fill="black"/>
</g>
<rect x="-7.71228" y="44.2379" width="25.1206" height="25.1206" transform="rotate(-19.9845 -7.71228 44.2379)" stroke="#493169" stroke-width="0.03144"/>
</g>
<g opacity="0.2" clip-path="url(#clip2_6697_16593)">
<path d="M3.38605 97.0645L-0.674109 100.357C-0.843008 100.494 -1.08097 100.502 -1.26029 100.378C-1.43911 100.255 -1.5157 100.029 -1.44711 99.8226L0.153246 95.007L-2.24815 93.4786L-5.11029 97.9758C-5.25541 98.2038 -5.55949 98.27 -5.78751 98.1249C-6.01553 97.9798 -6.08431 97.6763 -5.93916 97.4482L-3.07702 92.9511L-4.4861 92.0543L-7.34824 96.5514C-7.49336 96.7795 -7.79743 96.8457 -8.02546 96.7006C-8.25348 96.5555 -8.32225 96.252 -8.17711 96.0239L-5.31497 91.5268L-7.3457 90.2344L-11.645 96.9897L0.870911 104.955L5.17023 98.2L3.38605 97.0645Z" fill="black"/>
<path d="M-13.5553 99.9909C-13.9158 100.557 -13.7719 101.287 -13.2053 101.648L-9.50991 103.999L-6.38375 105.989L-2.68836 108.341C-2.12182 108.702 -1.39994 108.523 -1.03935 107.957L0.342104 105.786L-12.1738 97.8203L-13.5553 99.9909Z" fill="black"/>
</g>
<g opacity="0.2" clip-path="url(#clip3_6697_16593)">
<path d="M43.7888 75.5798L36.6242 78.8123L37.2707 80.2452L35.8378 80.8917L34.868 78.7423L43.4655 74.8634L41.526 70.5647L40.8096 70.8879L41.7793 73.0373C41.9577 73.4328 41.7816 73.8985 41.3861 74.077L28.4899 79.8954C28.0937 80.0742 27.6286 79.8977 27.4502 79.5022L26.1572 76.6364C25.9785 76.2402 26.1542 75.7754 26.5504 75.5967L39.4466 69.7782C39.8421 69.5998 40.3076 69.7753 40.4863 70.1715L41.9192 69.525L44.5052 75.2566L43.7888 75.5798ZM39.0534 70.8179L27.5901 75.9899L27.9134 76.7063L39.3767 71.5344L39.0534 70.8179ZM41.5429 87.803C41.8997 88.5939 41.5474 89.5255 40.7564 89.8824C39.9655 90.2392 39.0339 89.8869 38.677 89.096L35.4446 81.9314L38.3104 80.6384L41.5429 87.803ZM39.6519 87.4343C39.2557 87.613 39.0803 88.0785 39.2587 88.474C39.4375 88.8702 39.9022 89.0459 40.2984 88.8672C40.6939 88.6887 40.8704 88.2237 40.6916 87.8275C40.5132 87.432 40.0474 87.2558 39.6519 87.4343Z" fill="black"/>
</g>
<g opacity="0.2">
<g clip-path="url(#clip4_6697_16593)">
<path fill-rule="evenodd" clip-rule="evenodd" d="M102.457 80.5943L92.9598 76.1627L91.8652 78.5084L101.362 82.94L102.457 80.5943ZM88.085 86.6093L90.9789 80.4078L100.476 84.8394L97.5819 91.0409L88.085 86.6093ZM102.818 84.776L104.178 81.8615L104.258 81.9382L105.315 82.9586C105.439 83.9894 105.433 84.7072 105.428 85.2883C105.422 85.9801 105.418 86.4784 105.637 87.081C106.057 88.2367 106.846 88.8717 107.831 88.5135C108.816 88.1553 109.129 87.4838 108.592 86.0065C108.373 85.4039 108.049 85.0247 107.6 84.4984C107.308 84.1556 106.962 83.7502 106.557 83.18L106.003 80.9332C105.614 79.3562 104.986 77.8302 103.588 77.057C102.903 76.6783 102.447 76.5993 101.816 76.4898C101.605 76.4533 101.375 76.4133 101.11 76.3578C99.9268 76.1094 97.6849 75.5274 92.8061 73.783C92.2967 73.6009 91.7323 73.8364 91.5036 74.3267L89.5227 78.5717L85.7425 86.6727C85.4977 87.1971 85.7245 87.8208 86.249 88.0655L97.6453 93.3835C98.1698 93.6282 98.7934 93.4014 99.0381 92.8769L102.818 84.776Z" fill="black"/>
</g>
<rect x="80.319" y="75.6754" width="25.1206" height="25.1206" transform="rotate(-19.9845 80.319 75.6754)" stroke="#493169" stroke-width="0.03144"/>
</g>
<g opacity="0.2" clip-path="url(#clip5_6697_16593)">
<path d="M78.3688 136.502L77.026 138.267L79.705 139.972L80.736 138.008L78.3688 136.502Z" fill="black"/>
<path d="M76.6172 145.867L79.2477 140.845L76.4293 139.051L72.9933 143.561C72.9922 143.562 72.9935 143.56 72.9925 143.561C72.6142 144.047 72.4649 144.646 72.5698 145.253C72.6745 145.859 73.0189 146.374 73.5382 146.705C74.0574 147.035 74.6708 147.128 75.2646 146.966C75.8584 146.804 76.3372 146.416 76.617 145.868C76.6179 145.867 76.6163 145.869 76.6172 145.867ZM75.1095 145.151C74.9643 145.379 74.6603 145.445 74.4322 145.3C74.2042 145.155 74.1355 144.851 74.2806 144.623L74.5697 144.169C74.7148 143.941 75.0189 143.875 75.2469 144.02C75.4749 144.165 75.5436 144.469 75.3985 144.697L75.1095 145.151Z" fill="black"/>
<path d="M91.4134 128.498L87.3532 131.79C87.1843 131.927 86.9464 131.936 86.7671 131.812C86.5882 131.688 86.5116 131.463 86.5802 131.256L88.1806 126.441L85.7792 124.912L82.9171 129.409C82.7719 129.637 82.4679 129.704 82.2398 129.558C82.0118 129.413 81.943 129.11 82.0882 128.882L84.9503 124.385L83.5412 123.488L80.6791 127.985C80.534 128.213 80.2299 128.279 80.0019 128.134C79.7739 127.989 79.7051 127.686 79.8502 127.458L82.7124 122.96L80.6816 121.668L76.3823 128.423L88.8983 136.389L93.1976 129.634L91.4134 128.498Z" fill="black"/>
<path d="M74.4721 131.425C74.1115 131.991 74.2555 132.721 74.822 133.081L78.5174 135.433L81.6436 137.423L85.339 139.775C85.9055 140.135 86.6274 139.957 86.988 139.39L88.3694 137.22L75.8535 129.254L74.4721 131.425Z" fill="black"/>
</g>
<g opacity="0.2" clip-path="url(#clip6_6697_16593)">
<path d="M131.82 107.017L124.655 110.25L125.302 111.683L123.869 112.329L122.899 110.18L131.497 106.301L129.557 102.002L128.841 102.325L129.811 104.475C129.989 104.87 129.813 105.336 129.417 105.514L116.521 111.333C116.125 111.512 115.66 111.335 115.481 110.94L114.188 108.074C114.01 107.678 114.185 107.213 114.582 107.034L127.478 101.216C127.873 101.037 128.339 101.213 128.518 101.609L129.95 100.962L132.536 106.694L131.82 107.017ZM127.085 102.255L115.621 107.427L115.945 108.144L127.408 102.972L127.085 102.255ZM129.574 119.24C129.931 120.031 129.579 120.963 128.788 121.32C127.997 121.677 127.065 121.324 126.708 120.533L123.476 113.369L126.342 112.076L129.574 119.24ZM127.683 118.872C127.287 119.051 127.112 119.516 127.29 119.911C127.469 120.308 127.933 120.483 128.33 120.305C128.725 120.126 128.902 119.661 128.723 119.265C128.544 118.869 128.079 118.693 127.683 118.872Z" fill="black"/>
</g>
<g opacity="0.2">
<g clip-path="url(#clip7_6697_16593)">
<path fill-rule="evenodd" clip-rule="evenodd" d="M73.1169 -9.53461L63.6199 -13.9662L62.5254 -11.6205L72.0222 -7.18891L73.1169 -9.53461ZM58.7452 -3.51962L61.639 -9.72116L71.1359 -5.28954L68.2421 0.912023L58.7452 -3.51962ZM73.4785 -5.35295L74.8385 -8.2674L74.918 -8.19071L75.9754 -7.17026C76.0995 -6.13952 76.0933 -5.42175 76.0883 -4.84062C76.0823 -4.14886 76.078 -3.65049 76.2972 -3.04793C76.7174 -1.89225 77.5059 -1.25722 78.4908 -1.61539C79.4757 -1.97356 79.7891 -2.64509 79.2518 -4.12244C79.0327 -4.725 78.7093 -5.10417 78.2604 -5.63052C77.9679 -5.97333 77.6222 -6.37866 77.2173 -6.94891L76.6633 -9.19574C76.2743 -10.7727 75.6466 -12.2987 74.248 -13.0719C73.563 -13.4506 73.1075 -13.5296 72.4761 -13.6391C72.2655 -13.6757 72.0352 -13.7156 71.7704 -13.7711C70.587 -14.0195 68.3451 -14.6015 63.4662 -16.3459C62.9568 -16.528 62.3925 -16.2925 62.1637 -15.8022L60.1828 -11.5572L56.4026 -3.45624C56.1579 -2.93177 56.3846 -2.30813 56.9091 -2.0634L68.3054 3.25455C68.8299 3.49928 69.4536 3.27249 69.6983 2.74802L73.4785 -5.35295Z" fill="black"/>
</g>
<rect x="50.9752" y="-14.4535" width="25.1206" height="25.1206" transform="rotate(-19.9845 50.9752 -14.4535)" stroke="#493169" stroke-width="0.03144"/>
</g>
<g opacity="0.2" clip-path="url(#clip8_6697_16593)">
<path d="M49.0251 46.3727L47.6822 48.1384L50.3613 49.8435L51.3923 47.8792L49.0251 46.3727Z" fill="black"/>
<path d="M47.2734 55.7382L49.9039 50.7159L47.0855 48.9222L43.6495 53.4318C43.6484 53.4333 43.6498 53.4307 43.6487 53.4322C43.2705 53.9178 43.1212 54.5173 43.226 55.1237C43.3308 55.7303 43.6752 56.2453 44.1944 56.5758C44.7137 56.9063 45.327 56.9987 45.9208 56.8368C46.5147 56.6749 46.9935 56.2875 47.2732 55.7392C47.2741 55.7377 47.2726 55.7398 47.2734 55.7382ZM45.7657 55.0219C45.6206 55.2499 45.3165 55.3162 45.0885 55.171C44.8605 55.0259 44.7917 54.7224 44.9368 54.4944L45.2259 54.0402C45.371 53.8122 45.6751 53.7459 45.9031 53.8911C46.1311 54.0362 46.1999 54.3397 46.0548 54.5677L45.7657 55.0219Z" fill="black"/>
<path d="M62.0696 38.3691L58.0095 41.6614C57.8406 41.7984 57.6026 41.8069 57.4233 41.6829C57.2445 41.5592 57.1679 41.3336 57.2365 41.1273L58.8368 36.3117L56.4354 34.7833L53.5733 39.2804C53.4282 39.5085 53.1241 39.5747 52.8961 39.4296C52.6681 39.2845 52.5993 38.981 52.7444 38.7529L55.6066 34.2558L54.1975 33.359L51.3354 37.8561C51.1902 38.0842 50.8862 38.1504 50.6581 38.0053C50.4301 37.8602 50.3613 37.5567 50.5065 37.3286L53.3686 32.8315L51.3379 31.5391L47.0386 38.2944L59.5545 46.26L63.8538 39.5047L62.0696 38.3691Z" fill="black"/>
<path d="M45.1283 41.2956C44.7678 41.8621 44.9117 42.5917 45.4783 42.9523L49.1737 45.3041L52.2998 47.2938L55.9952 49.6456C56.5618 50.0062 57.2837 49.8278 57.6442 49.2612L59.0257 47.0906L46.5098 39.125L45.1283 41.2956Z" fill="black"/>
</g>
<g opacity="0.2" clip-path="url(#clip9_6697_16593)">
<path d="M102.476 16.8884L95.3117 20.1209L95.9582 21.5538L94.5253 22.2003L93.5555 20.0509L102.153 16.172L100.214 11.8733L99.4971 12.1965L100.467 14.3459C100.645 14.7414 100.469 15.2071 100.074 15.3856L87.1774 21.204C86.7812 21.3828 86.3161 21.2063 86.1377 20.8108L84.8447 17.945C84.666 17.5488 84.8417 17.084 85.2379 16.9053L98.1341 11.0868C98.5296 10.9084 98.9951 11.0838 99.1738 11.48L100.607 10.8336L103.193 16.5652L102.476 16.8884ZM97.7409 12.1265L86.2776 17.2985L86.6009 18.0149L98.0642 12.843L97.7409 12.1265ZM100.23 29.1116C100.587 29.9025 100.235 30.8341 99.4439 31.191C98.653 31.5478 97.7214 31.1955 97.3645 30.4046L94.1321 23.24L96.9979 21.947L100.23 29.1116ZM98.3394 28.7428C97.9432 28.9216 97.7678 29.3871 97.9462 29.7826C98.125 30.1788 98.5897 30.3545 98.9859 30.1758C99.3814 29.9973 99.5579 29.5323 99.3791 29.1361C99.2007 28.7406 98.7349 28.5644 98.3394 28.7428Z" fill="black"/>
</g>
<g opacity="0.2">
<g clip-path="url(#clip10_6697_16593)">
<path fill-rule="evenodd" clip-rule="evenodd" d="M154.859 -13.726L145.362 -18.1576L144.268 -15.8119L153.764 -11.3803L154.859 -13.726ZM140.487 -7.71102L143.381 -13.9126L152.878 -9.48095L149.984 -3.27938L140.487 -7.71102ZM155.221 -9.54435L156.581 -12.4588L156.66 -12.3821L157.718 -11.3617C157.842 -10.3309 157.835 -9.61316 157.83 -9.03202C157.825 -8.34026 157.82 -7.84189 158.039 -7.23933C158.46 -6.08366 159.248 -5.44863 160.233 -5.8068C161.218 -6.16497 161.531 -6.8365 160.994 -8.31384C160.775 -8.9164 160.451 -9.29557 160.003 -9.82193C159.71 -10.1647 159.364 -10.5701 158.959 -11.1403L158.405 -13.3871C158.017 -14.9641 157.389 -16.4901 155.99 -17.2633C155.305 -17.642 154.85 -17.721 154.218 -17.8305C154.008 -17.8671 153.777 -17.907 153.513 -17.9625C152.329 -18.2109 150.087 -18.7929 145.208 -20.5373C144.699 -20.7194 144.135 -20.4839 143.906 -19.9936L141.925 -15.7486L138.145 -7.64765C137.9 -7.12317 138.127 -6.49954 138.651 -6.25481L150.048 -0.936853C150.572 -0.692128 151.196 -0.918921 151.44 -1.44339L155.221 -9.54435Z" fill="black"/>
</g>
<rect x="132.717" y="-18.6449" width="25.1206" height="25.1206" transform="rotate(-19.9845 132.717 -18.6449)" stroke="#493169" stroke-width="0.03144"/>
</g>
<g opacity="0.2" clip-path="url(#clip11_6697_16593)">
<path d="M130.771 42.1852L129.428 43.9509L132.107 45.656L133.138 43.6917L130.771 42.1852Z" fill="black"/>
<path d="M129.019 51.5507L131.65 46.5284L128.832 44.7347L125.396 49.2443C125.395 49.2458 125.396 49.2432 125.395 49.2447C125.017 49.7303 124.867 50.3298 124.972 50.9362C125.077 51.5428 125.421 52.0578 125.94 52.3883C126.46 52.7188 127.073 52.8112 127.667 52.6493C128.261 52.4874 128.74 52.1 129.019 51.5517C129.02 51.5502 129.019 51.5523 129.019 51.5507ZM127.512 50.8344C127.367 51.0624 127.063 51.1287 126.835 50.9835C126.607 50.8384 126.538 50.5349 126.683 50.3069L126.972 49.8527C127.117 49.6247 127.421 49.5584 127.649 49.7036C127.877 49.8487 127.946 50.1522 127.801 50.3802L127.512 50.8344Z" fill="black"/>
<path d="M143.816 34.1816L139.756 37.4739C139.587 37.6109 139.349 37.6194 139.169 37.4954C138.991 37.3717 138.914 37.1461 138.983 36.9398L140.583 32.1242L138.182 30.5958L135.319 35.0929C135.174 35.321 134.87 35.3872 134.642 35.2421C134.414 35.097 134.345 34.7935 134.491 34.5654L137.353 30.0683L135.944 29.1715L133.081 33.6686C132.936 33.8967 132.632 33.9629 132.404 33.8178C132.176 33.6727 132.107 33.3692 132.253 33.1411L135.115 28.644L133.084 27.3516L128.785 34.1069L141.301 42.0725L145.6 35.3172L143.816 34.1816Z" fill="black"/>
<path d="M126.874 37.1081C126.514 37.6746 126.658 38.4042 127.224 38.7648L130.92 41.1166L134.046 43.1063L137.741 45.4581C138.308 45.8187 139.03 45.6403 139.39 45.0737L140.772 42.9031L128.256 34.9375L126.874 37.1081Z" fill="black"/>
</g>
<g opacity="0.2" clip-path="url(#clip12_6697_16593)">
<path d="M184.222 12.697L177.058 15.9295L177.704 17.3624L176.271 18.0089L175.302 15.8595L183.899 11.9806L181.96 7.68185L181.243 8.0051L182.213 10.1545C182.391 10.5499 182.215 11.0157 181.82 11.1942L168.924 17.0126C168.527 17.1913 168.062 17.0149 167.884 16.6194L166.591 13.7536C166.412 13.3574 166.588 12.8926 166.984 12.7139L179.88 6.89543C180.276 6.717 180.741 6.89244 180.92 7.28864L182.353 6.64215L184.939 12.3738L184.222 12.697ZM179.487 7.93513L168.024 13.1071L168.347 13.8235L179.81 8.65159L179.487 7.93513ZM181.976 24.9202C182.333 25.7111 181.981 26.6427 181.19 26.9996C180.399 27.3564 179.467 27.0041 179.111 26.2132L175.878 19.0486L178.744 17.7556L181.976 24.9202ZM180.086 24.5514C179.689 24.7302 179.514 25.1957 179.692 25.5911C179.871 25.9873 180.336 26.1631 180.732 25.9844C181.127 25.8059 181.304 25.3409 181.125 24.9447C180.947 24.5492 180.481 24.373 180.086 24.5514Z" fill="black"/>
</g>
<g opacity="0.2">
<g clip-path="url(#clip13_6697_16593)">
<path fill-rule="evenodd" clip-rule="evenodd" d="M209.355 34.4849L199.858 30.0533L198.764 32.399L208.26 36.8306L209.355 34.4849ZM194.983 40.4999L197.877 34.2984L207.374 38.73L204.48 44.9316L194.983 40.4999ZM209.717 38.6666L211.077 35.7521L211.156 35.8288L212.214 36.8493C212.338 37.88 212.332 38.5978 212.327 39.1789C212.321 39.8707 212.316 40.369 212.535 40.9716C212.956 42.1273 213.744 42.7623 214.729 42.4041C215.714 42.046 216.027 41.3744 215.49 39.8971C215.271 39.2945 214.948 38.9154 214.499 38.389C214.206 38.0462 213.86 37.6409 213.456 37.0706L212.902 34.8238C212.513 33.2468 211.885 31.7208 210.486 30.9476C209.801 30.5689 209.346 30.4899 208.714 30.3804C208.504 30.3439 208.274 30.304 208.009 30.2484C206.825 30.0001 204.583 29.418 199.705 27.6736C199.195 27.4915 198.631 27.7271 198.402 28.2173L196.421 32.4624L192.641 40.5633C192.396 41.0878 192.623 41.7114 193.147 41.9561L204.544 47.2741C205.068 47.5188 205.692 47.292 205.937 46.7675L209.717 38.6666Z" fill="black"/>
</g>
<rect x="187.214" y="29.566" width="25.1206" height="25.1206" transform="rotate(-19.9845 187.214 29.566)" stroke="#493169" stroke-width="0.03144"/>
</g>
<g opacity="0.2" clip-path="url(#clip14_6697_16593)">
<path d="M185.267 90.3961L183.924 92.1618L186.603 93.8669L187.634 91.9027L185.267 90.3961Z" fill="black"/>
<path d="M183.516 99.7617L186.146 94.7393L183.328 92.9456L179.892 97.4553C179.891 97.4567 179.892 97.4542 179.891 97.4556C179.513 97.9412 179.363 98.5407 179.468 99.1472C179.573 99.7537 179.917 100.269 180.437 100.599C180.956 100.93 181.569 101.022 182.163 100.86C182.757 100.698 183.236 100.311 183.515 99.7627C183.516 99.7611 183.515 99.7632 183.516 99.7617ZM182.008 99.0453C181.863 99.2734 181.559 99.3396 181.331 99.1945C181.103 99.0494 181.034 98.7458 181.179 98.5178L181.468 98.0636C181.613 97.8356 181.917 97.7694 182.145 97.9145C182.373 98.0596 182.442 98.3631 182.297 98.5912L182.008 99.0453Z" fill="black"/>
<path d="M198.312 82.3926L194.252 85.6848C194.083 85.8218 193.845 85.8304 193.665 85.7064C193.487 85.5827 193.41 85.3571 193.479 85.1507L195.079 80.3351L192.678 78.8068L189.815 83.3039C189.67 83.5319 189.366 83.5981 189.138 83.453C188.91 83.3079 188.841 83.0044 188.987 82.7764L191.849 78.2792L190.44 77.3825L187.578 81.8796C187.432 82.1076 187.128 82.1738 186.9 82.0287C186.672 81.8836 186.604 81.5801 186.749 81.352L189.611 76.8549L187.58 75.5625L183.281 82.3178L195.797 90.2834L200.096 83.5281L198.312 82.3926Z" fill="black"/>
<path d="M181.371 85.319C181.01 85.8856 181.154 86.6151 181.72 86.9757L185.416 89.3276L188.542 91.3172L192.237 93.6691C192.804 94.0296 193.526 93.8512 193.886 93.2846L195.268 91.114L182.752 83.1484L181.371 85.319Z" fill="black"/>
</g>
<g opacity="0.2" clip-path="url(#clip15_6697_16593)">
<path d="M238.718 60.908L231.554 64.1404L232.2 65.5733L230.767 66.2198L229.798 64.0705L238.395 60.1915L236.456 55.8928L235.739 56.216L236.709 58.3654C236.887 58.7609 236.711 59.2267 236.316 59.4051L223.42 65.2235C223.023 65.4023 222.558 65.2258 222.38 64.8303L221.087 61.9645C220.908 61.5683 221.084 61.1036 221.48 60.9248L234.376 55.1064C234.772 54.9279 235.237 55.1034 235.416 55.4996L236.849 54.8531L239.435 60.5847L238.718 60.908ZM233.983 56.1461L222.52 61.318L222.843 62.0345L234.306 56.8625L233.983 56.1461ZM236.473 73.1311C236.829 73.9221 236.477 74.8536 235.686 75.2105C234.895 75.5674 233.964 75.2151 233.607 74.4241L230.374 67.2595L233.24 65.9666L236.473 73.1311ZM234.582 72.7624C234.185 72.9411 234.01 73.4066 234.188 73.8021C234.367 74.1983 234.832 74.374 235.228 74.1953C235.624 74.0169 235.8 73.5518 235.621 73.1556C235.443 72.7601 234.977 72.5839 234.582 72.7624Z" fill="black"/>
</g>
<g opacity="0.2" clip-path="url(#clip16_6697_16593)">
<path d="M23.8747 130.871L22.5318 132.636L25.2109 134.342L26.2419 132.377L23.8747 130.871Z" fill="black"/>
<path d="M22.123 140.236L24.7535 135.214L21.9351 133.42L18.4991 137.93C18.498 137.931 18.4994 137.929 18.4983 137.93C18.1201 138.416 17.9708 139.015 18.0756 139.622C18.1804 140.228 18.5248 140.743 19.044 141.074C19.5633 141.404 20.1766 141.497 20.7704 141.335C21.3643 141.173 21.8431 140.786 22.1228 140.237C22.1237 140.236 22.1222 140.238 22.123 140.236ZM20.6153 139.52C20.4702 139.748 20.1661 139.814 19.9381 139.669C19.7101 139.524 19.6413 139.22 19.7865 138.992L20.0755 138.538C20.2206 138.31 20.5247 138.244 20.7527 138.389C20.9808 138.534 21.0495 138.838 20.9044 139.066L20.6153 139.52Z" fill="black"/>
<path d="M36.9192 122.867L32.8591 126.159C32.6902 126.296 32.4522 126.305 32.2729 126.181C32.0941 126.057 32.0175 125.832 32.0861 125.625L33.6864 120.81L31.285 119.281L28.4229 123.778C28.2778 124.007 27.9737 124.073 27.7457 123.928C27.5177 123.783 27.4489 123.479 27.594 123.251L30.4562 118.754L29.0471 117.857L26.185 122.354C26.0398 122.582 25.7358 122.648 25.5077 122.503C25.2797 122.358 25.2109 122.055 25.3561 121.827L28.2182 117.33L26.1875 116.037L21.8882 122.792L34.4041 130.758L38.7034 124.003L36.9192 122.867Z" fill="black"/>
<path d="M19.9779 125.794C19.6174 126.36 19.7613 127.09 20.3279 127.45L24.0233 129.802L27.1495 131.792L30.8448 134.144C31.4114 134.504 32.1333 134.326 32.4939 133.759L33.8753 131.589L21.3594 123.623L19.9779 125.794Z" fill="black"/>
</g>
<g opacity="0.2">
<g clip-path="url(#clip17_6697_16593)">
<path fill-rule="evenodd" clip-rule="evenodd" d="M213.547 130.903L204.05 126.471L202.955 128.817L212.452 133.249L213.547 130.903ZM199.175 136.918L202.069 130.716L211.566 135.148L208.672 141.35L199.175 136.918ZM213.908 135.085L215.268 132.17L215.348 132.247L216.405 133.267C216.529 134.298 216.523 135.016 216.518 135.597C216.512 136.289 216.508 136.787 216.727 137.39C217.147 138.545 217.936 139.18 218.921 138.822C219.905 138.464 220.219 137.792 219.682 136.315C219.462 135.713 219.139 135.333 218.69 134.807C218.398 134.464 218.052 134.059 217.647 133.489L217.093 131.242C216.704 129.665 216.076 128.139 214.678 127.366C213.993 126.987 213.537 126.908 212.906 126.798C212.695 126.762 212.465 126.722 212.2 126.666C211.017 126.418 208.775 125.836 203.896 124.092C203.387 123.909 202.822 124.145 202.593 124.635L200.612 128.88L196.832 136.981C196.588 137.506 196.814 138.129 197.339 138.374L208.735 143.692C209.26 143.937 209.883 143.71 210.128 143.186L213.908 135.085Z" fill="black"/>
</g>
<rect x="191.405" y="125.984" width="25.1206" height="25.1206" transform="rotate(-19.9845 191.405 125.984)" stroke="#493169" stroke-width="0.03144"/>
</g>
<g opacity="0.2" clip-path="url(#clip18_6697_16593)">
<path d="M202.499 178.811L198.439 182.103C198.27 182.24 198.032 182.248 197.853 182.124C197.674 182.001 197.598 181.775 197.666 181.569L199.267 176.753L196.865 175.225L194.003 179.722C193.858 179.95 193.554 180.016 193.326 179.871C193.098 179.726 193.029 179.422 193.174 179.194L196.036 174.697L194.627 173.8L191.765 178.298C191.62 178.526 191.316 178.592 191.088 178.447C190.86 178.302 190.791 177.998 190.936 177.77L193.798 173.273L191.768 171.98L187.468 178.736L199.984 186.701L204.284 179.946L202.499 178.811Z" fill="black"/>
</g>
<g opacity="0.2" clip-path="url(#clip19_6697_16593)">
<path d="M242.91 157.322L235.745 160.554L236.392 161.987L234.959 162.634L233.989 160.485L242.587 156.606L240.647 152.307L239.931 152.63L240.9 154.779C241.079 155.175 240.903 155.641 240.507 155.819L227.611 161.638C227.215 161.816 226.75 161.64 226.571 161.244L225.278 158.379C225.1 157.982 225.275 157.518 225.672 157.339L238.568 151.52C238.963 151.342 239.429 151.517 239.607 151.914L241.04 151.267L243.626 156.999L242.91 157.322ZM238.175 152.56L226.711 157.732L227.034 158.449L238.498 153.277L238.175 152.56ZM240.664 169.545C241.021 170.336 240.669 171.268 239.878 171.625C239.087 171.981 238.155 171.629 237.798 170.838L234.566 163.674L237.431 162.381L240.664 169.545ZM238.773 169.176C238.377 169.355 238.201 169.821 238.38 170.216C238.559 170.612 239.023 170.788 239.419 170.609C239.815 170.431 239.991 169.966 239.813 169.57C239.634 169.174 239.168 168.998 238.773 169.176Z" fill="black"/>
</g>
<g opacity="0.2">
<g clip-path="url(#clip20_6697_16593)">
<path fill-rule="evenodd" clip-rule="evenodd" d="M362.363 95.2662L352.866 90.8346L351.771 93.1802L361.268 97.6119L362.363 95.2662ZM347.991 101.281L350.885 95.0796L360.382 99.5112L357.488 105.713L347.991 101.281ZM362.725 99.4478L364.085 96.5334L364.164 96.6101L365.221 97.6305C365.346 98.6613 365.339 99.379 365.334 99.9602C365.328 100.652 365.324 101.15 365.543 101.753C365.964 102.909 366.752 103.544 367.737 103.185C368.722 102.827 369.035 102.156 368.498 100.678C368.279 100.076 367.955 99.6966 367.506 99.1703C367.214 98.8274 366.868 98.4221 366.463 97.8519L365.909 95.605C365.52 94.028 364.893 92.5021 363.494 91.7289C362.809 91.3501 362.354 91.2711 361.722 91.1617C361.512 91.1251 361.281 91.0852 361.016 91.0297C359.833 90.7813 357.591 90.1993 352.712 88.4549C352.203 88.2727 351.639 88.5083 351.41 88.9985L349.429 93.2436L345.649 101.345C345.404 101.869 345.631 102.493 346.155 102.737L357.552 108.055C358.076 108.3 358.7 108.073 358.944 107.549L362.725 99.4478Z" fill="black"/>
</g>
<rect x="340.221" y="90.3473" width="25.1206" height="25.1206" transform="rotate(-19.9845 340.221 90.3473)" stroke="#493169" stroke-width="0.03144"/>
</g>
<g opacity="0.2" clip-path="url(#clip21_6697_16593)">
<path d="M338.275 151.177L336.932 152.943L339.611 154.648L340.642 152.684L338.275 151.177Z" fill="black"/>
<path d="M336.523 160.543L339.154 155.521L336.336 153.727L332.9 158.237C332.898 158.238 332.9 158.235 332.899 158.237C332.52 158.722 332.371 159.322 332.476 159.928C332.581 160.535 332.925 161.05 333.444 161.38C333.964 161.711 334.577 161.803 335.171 161.641C335.765 161.48 336.243 161.092 336.523 160.544C336.524 160.542 336.523 160.544 336.523 160.543ZM335.016 159.827C334.871 160.055 334.567 160.121 334.338 159.976C334.11 159.831 334.042 159.527 334.187 159.299L334.476 158.845C334.621 158.617 334.925 158.551 335.153 158.696C335.381 158.841 335.45 159.144 335.305 159.372L335.016 159.827Z" fill="black"/>
<path d="M351.32 143.174L347.259 146.466C347.091 146.603 346.853 146.612 346.673 146.488C346.494 146.364 346.418 146.138 346.486 145.932L348.087 141.116L345.685 139.588L342.823 144.085C342.678 144.313 342.374 144.379 342.146 144.234C341.918 144.089 341.849 143.786 341.994 143.558L344.857 139.06L343.447 138.164L340.585 142.661C340.44 142.889 340.136 142.955 339.908 142.81C339.68 142.665 339.611 142.361 339.756 142.133L342.619 137.636L340.588 136.344L336.289 143.099L348.805 151.065L353.104 144.309L351.32 143.174Z" fill="black"/>
<path d="M334.378 146.1C334.018 146.667 334.162 147.396 334.728 147.757L338.424 150.109L341.55 152.098L345.245 154.45C345.812 154.811 346.534 154.632 346.894 154.066L348.276 151.895L335.76 143.93L334.378 146.1Z" fill="black"/>
</g>
<g opacity="0.2" clip-path="url(#clip22_6697_16593)">
<path d="M391.73 121.689L384.566 124.922L385.212 126.355L383.779 127.001L382.809 124.852L391.407 120.973L389.467 116.674L388.751 116.997L389.721 119.147C389.899 119.542 389.723 120.008 389.328 120.186L376.431 126.005C376.035 126.184 375.57 126.007 375.392 125.612L374.099 122.746C373.92 122.35 374.096 121.885 374.492 121.706L387.388 115.888C387.784 115.709 388.249 115.885 388.428 116.281L389.861 115.634L392.447 121.366L391.73 121.689ZM386.995 116.927L375.532 122.099L375.855 122.816L387.318 117.644L386.995 116.927ZM389.484 133.912C389.841 134.703 389.489 135.635 388.698 135.992C387.907 136.349 386.975 135.996 386.618 135.205L383.386 128.041L386.252 126.748L389.484 133.912ZM387.593 133.544C387.197 133.722 387.022 134.188 387.2 134.583C387.379 134.98 387.844 135.155 388.24 134.977C388.635 134.798 388.812 134.333 388.633 133.937C388.455 133.541 387.989 133.365 387.593 133.544Z" fill="black"/>
</g>
<g opacity="0.2">
<g clip-path="url(#clip23_6697_16593)">
<path fill-rule="evenodd" clip-rule="evenodd" d="M452.484 141.379L442.987 136.948L441.893 139.294L451.389 143.725L452.484 141.379ZM438.112 147.394L441.006 141.193L450.503 145.625L447.609 151.826L438.112 147.394ZM452.846 145.561L454.206 142.647L454.285 142.723L455.343 143.744C455.467 144.775 455.46 145.492 455.455 146.073C455.45 146.765 455.445 147.264 455.664 147.866C456.085 149.022 456.873 149.657 457.858 149.299C458.843 148.941 459.156 148.269 458.619 146.792C458.4 146.189 458.076 145.81 457.628 145.284C457.335 144.941 456.989 144.535 456.584 143.965L456.03 141.718C455.642 140.141 455.014 138.615 453.615 137.842C452.93 137.463 452.475 137.384 451.843 137.275C451.633 137.238 451.402 137.198 451.138 137.143C449.954 136.895 447.712 136.313 442.833 134.568C442.324 134.386 441.76 134.622 441.531 135.112L439.55 139.357L435.77 147.458C435.525 147.982 435.752 148.606 436.276 148.851L447.673 154.169C448.197 154.413 448.821 154.187 449.065 153.662L452.846 145.561Z" fill="black"/>
</g>
<rect x="430.346" y="136.461" width="25.1206" height="25.1206" transform="rotate(-19.9845 430.346 136.461)" stroke="#493169" stroke-width="0.03144"/>
</g>
<g opacity="0.2" clip-path="url(#clip24_6697_16593)">
<path d="M481.851 167.799L474.687 171.031L475.333 172.464L473.9 173.11L472.931 170.961L481.528 167.082L479.589 162.783L478.872 163.107L479.842 165.256C480.02 165.652 479.844 166.117 479.449 166.296L466.552 172.114C466.156 172.293 465.691 172.116 465.513 171.721L464.22 168.855C464.041 168.459 464.217 167.994 464.613 167.815L477.509 161.997C477.905 161.819 478.37 161.994 478.549 162.39L479.982 161.744L482.568 167.475L481.851 167.799ZM477.116 163.037L465.653 168.209L465.976 168.925L477.439 163.753L477.116 163.037ZM479.605 180.022C479.962 180.813 479.61 181.744 478.819 182.101C478.028 182.458 477.096 182.106 476.74 181.315L473.507 174.15L476.373 172.857L479.605 180.022ZM477.714 179.653C477.318 179.832 477.143 180.297 477.321 180.693C477.5 181.089 477.965 181.265 478.361 181.086C478.756 180.907 478.933 180.442 478.754 180.046C478.576 179.651 478.11 179.475 477.714 179.653Z" fill="black"/>
</g>
<g opacity="0.2">
<g clip-path="url(#clip25_6697_16593)">
<path fill-rule="evenodd" clip-rule="evenodd" d="M488.121 40.7701L478.624 36.3385L477.529 38.6841L487.026 43.1158L488.121 40.7701ZM473.749 46.7851L476.643 40.5835L486.14 45.0151L483.246 51.2167L473.749 46.7851ZM488.482 44.9517L489.842 42.0373L489.922 42.114L490.979 43.1344C491.103 44.1652 491.097 44.8829 491.092 45.4641C491.086 46.1558 491.082 46.6542 491.301 47.2568C491.721 48.4124 492.51 49.0475 493.495 48.6893C494.48 48.3311 494.793 47.6596 494.256 46.1823C494.037 45.5797 493.713 45.2005 493.264 44.6742C492.972 44.3314 492.626 43.926 492.221 43.3558L491.667 41.1089C491.278 39.5319 490.65 38.006 489.252 37.2328C488.567 36.8541 488.111 36.775 487.48 36.6656C487.269 36.629 487.039 36.5891 486.774 36.5336C485.591 36.2852 483.349 35.7032 478.47 33.9588C477.961 33.7767 477.396 34.0122 477.168 34.5025L475.187 38.7475L471.407 46.8484C471.162 47.3729 471.389 47.9966 471.913 48.2413L483.309 53.5592C483.834 53.804 484.457 53.5772 484.702 53.0527L488.482 44.9517Z" fill="black"/>
</g>
<rect x="465.983" y="35.8512" width="25.1206" height="25.1206" transform="rotate(-19.9845 465.983 35.8512)" stroke="#493169" stroke-width="0.03144"/>
</g>
<g opacity="0.2" clip-path="url(#clip26_6697_16593)">
<path d="M464.033 96.6774L462.69 98.4431L465.369 100.148L466.4 98.1839L464.033 96.6774Z" fill="black"/>
<path d="M462.281 106.043L464.912 101.021L462.093 99.2269L458.657 103.737C458.656 103.738 458.658 103.735 458.657 103.737C458.278 104.222 458.129 104.822 458.234 105.428C458.339 106.035 458.683 106.55 459.202 106.88C459.721 107.211 460.335 107.303 460.929 107.141C461.522 106.98 462.001 106.592 462.281 106.044C462.282 106.042 462.28 106.044 462.281 106.043ZM460.774 105.327C460.628 105.555 460.324 105.621 460.096 105.476C459.868 105.331 459.8 105.027 459.945 104.799L460.234 104.345C460.379 104.117 460.683 104.051 460.911 104.196C461.139 104.341 461.208 104.644 461.063 104.872L460.774 105.327Z" fill="black"/>
<path d="M477.077 88.6738L473.017 91.9661C472.848 92.1031 472.61 92.1116 472.431 91.9876C472.252 91.8639 472.176 91.6383 472.244 91.432L473.845 86.6164L471.443 85.088L468.581 89.5851C468.436 89.8132 468.132 89.8794 467.904 89.7343C467.676 89.5892 467.607 89.2857 467.752 89.0576L470.614 84.5605L469.205 83.6637L466.343 88.1608C466.198 88.3888 465.894 88.4551 465.666 88.31C465.438 88.1648 465.369 87.8614 465.514 87.6333L468.376 83.1362L466.346 81.8438L462.046 88.599L474.562 96.5646L478.862 89.8094L477.077 88.6738Z" fill="black"/>
<path d="M460.136 91.6003C459.776 92.1668 459.92 92.8964 460.486 93.257L464.181 95.6088L467.308 97.5984L471.003 99.9503C471.57 100.311 472.291 100.132 472.652 99.5659L474.034 97.3953L461.518 89.4297L460.136 91.6003Z" fill="black"/>
</g>
<g opacity="0.2" clip-path="url(#clip27_6697_16593)">
<path d="M517.484 67.1931L510.32 70.4256L510.966 71.8585L509.533 72.505L508.563 70.3556L517.161 66.4767L515.221 62.1779L514.505 62.5012L515.475 64.6506C515.653 65.046 515.477 65.5118 515.081 65.6903L502.185 71.5087C501.789 71.6874 501.324 71.511 501.146 71.1155L499.853 68.2497C499.674 67.8535 499.85 67.3887 500.246 67.21L513.142 61.3915C513.537 61.2131 514.003 61.3885 514.182 61.7847L515.615 61.1382L518.201 66.8699L517.484 67.1931ZM512.749 62.4312L501.285 67.6032L501.609 68.3196L513.072 63.1477L512.749 62.4312ZM515.238 79.4163C515.595 80.2072 515.243 81.1388 514.452 81.4957C513.661 81.8525 512.729 81.5002 512.372 80.7092L509.14 73.5447L512.006 72.2517L515.238 79.4163ZM513.347 79.0475C512.951 79.2263 512.776 79.6918 512.954 80.0872C513.133 80.4834 513.598 80.6592 513.994 80.4804C514.389 80.302 514.566 79.8369 514.387 79.4407C514.208 79.0453 513.743 78.8691 513.347 79.0475Z" fill="black"/>
</g>
<g opacity="0.2">
<g clip-path="url(#clip28_6697_16593)">
<path fill-rule="evenodd" clip-rule="evenodd" d="M563.578 97.3599L554.081 92.9283L552.986 95.274L562.483 99.7056L563.578 97.3599ZM549.206 103.375L552.1 97.1734L561.597 101.605L558.703 107.807L549.206 103.375ZM563.939 101.542L565.299 98.6271L565.379 98.7038L566.436 99.7243C566.56 100.755 566.554 101.473 566.549 102.054C566.543 102.746 566.539 103.244 566.758 103.847C567.178 105.002 567.967 105.637 568.952 105.279C569.937 104.921 570.25 104.249 569.713 102.772C569.494 102.17 569.17 101.79 568.721 101.264C568.429 100.921 568.083 100.516 567.678 99.9456L567.124 97.6988C566.735 96.1218 566.108 94.5958 564.709 93.8226C564.024 93.4439 563.568 93.3649 562.937 93.2554C562.726 93.2189 562.496 93.179 562.231 93.1234C561.048 92.8751 558.806 92.293 553.927 90.5486C553.418 90.3665 552.853 90.6021 552.625 91.0923L550.644 95.3374L546.864 103.438C546.619 103.963 546.846 104.586 547.37 104.831L558.766 110.149C559.291 110.394 559.914 110.167 560.159 109.643L563.939 101.542Z" fill="black"/>
</g>
<rect x="541.436" y="92.4449" width="25.1206" height="25.1206" transform="rotate(-19.9845 541.436 92.4449)" stroke="#493169" stroke-width="0.03144"/>
</g>
<g opacity="0.2" clip-path="url(#clip29_6697_16593)">
<path d="M539.486 153.271L538.143 155.037L540.822 156.742L541.853 154.778L539.486 153.271Z" fill="black"/>
<path d="M537.734 162.637L540.365 157.614L537.546 155.821L534.11 160.33C534.109 160.332 534.111 160.329 534.11 160.331C533.731 160.816 533.582 161.416 533.687 162.022C533.792 162.629 534.136 163.144 534.655 163.474C535.175 163.805 535.788 163.897 536.382 163.735C536.976 163.573 537.454 163.186 537.734 162.638C537.735 162.636 537.734 162.638 537.734 162.637ZM536.227 161.92C536.082 162.148 535.777 162.215 535.549 162.069C535.321 161.924 535.253 161.621 535.398 161.393L535.687 160.939C535.832 160.711 536.136 160.644 536.364 160.79C536.592 160.935 536.661 161.238 536.516 161.466L536.227 161.92Z" fill="black"/>
<path d="M552.531 145.268L548.47 148.56C548.302 148.697 548.064 148.705 547.884 148.581C547.705 148.458 547.629 148.232 547.697 148.026L549.298 143.21L546.896 141.682L544.034 146.179C543.889 146.407 543.585 146.473 543.357 146.328C543.129 146.183 543.06 145.879 543.205 145.651L546.068 141.154L544.658 140.257L541.796 144.755C541.651 144.983 541.347 145.049 541.119 144.904C540.891 144.759 540.822 144.455 540.967 144.227L543.83 139.73L541.799 138.438L537.5 145.193L550.015 153.158L554.315 146.403L552.531 145.268Z" fill="black"/>
<path d="M535.589 148.194C535.229 148.761 535.373 149.49 535.939 149.851L539.635 152.203L542.761 154.192L546.456 156.544C547.023 156.905 547.745 156.726 548.105 156.16L549.487 153.989L536.971 146.023L535.589 148.194Z" fill="black"/>
</g>
<g opacity="0.2" clip-path="url(#clip30_6697_16593)">
<path d="M592.937 123.783L585.773 127.015L586.419 128.448L584.986 129.095L584.016 126.945L592.614 123.067L590.674 118.768L589.958 119.091L590.928 121.24C591.106 121.636 590.93 122.102 590.535 122.28L577.638 128.099C577.242 128.277 576.777 128.101 576.599 127.705L575.306 124.84C575.127 124.443 575.303 123.979 575.699 123.8L588.595 117.981C588.991 117.803 589.456 117.978 589.635 118.375L591.068 117.728L593.654 123.46L592.937 123.783ZM588.202 119.021L576.739 124.193L577.062 124.909L588.525 119.738L588.202 119.021ZM590.691 136.006C591.048 136.797 590.696 137.729 589.905 138.086C589.114 138.442 588.182 138.09 587.825 137.299L584.593 130.135L587.459 128.842L590.691 136.006ZM588.8 135.637C588.404 135.816 588.229 136.282 588.407 136.677C588.586 137.073 589.051 137.249 589.447 137.07C589.842 136.892 590.019 136.427 589.84 136.031C589.662 135.635 589.196 135.459 588.8 135.637Z" fill="black"/>
</g>
<g opacity="0.2">
<g clip-path="url(#clip31_6697_16593)">
<path fill-rule="evenodd" clip-rule="evenodd" d="M731.261 91.0787L721.764 86.6471L720.67 88.9927L730.167 93.4244L731.261 91.0787ZM716.89 97.0937L719.784 90.8921L729.28 95.3237L726.387 101.525L716.89 97.0937ZM731.623 95.2603L732.983 92.3459L733.063 92.4226L734.12 93.443C734.244 94.4738 734.238 95.1915 734.233 95.7727C734.227 96.4644 734.223 96.9628 734.442 97.5654C734.862 98.721 735.65 99.3561 736.635 98.9979C737.62 98.6397 737.934 97.9682 737.396 96.4908C737.177 95.8883 736.854 95.5091 736.405 94.9828C736.112 94.6399 735.767 94.2346 735.362 93.6644L734.808 91.4175C734.419 89.8405 733.791 88.3146 732.393 87.5414C731.708 87.1626 731.252 87.0836 730.621 86.9742C730.41 86.9376 730.18 86.8977 729.915 86.8422C728.732 86.5938 726.49 86.0118 721.611 84.2674C721.101 84.0852 720.537 84.3208 720.308 84.811L718.327 89.0561L714.547 97.157C714.302 97.6815 714.529 98.3051 715.054 98.5499L726.45 103.868C726.974 104.113 727.598 103.886 727.843 103.361L731.623 95.2603Z" fill="black"/>
</g>
<rect x="709.12" y="86.1598" width="25.1206" height="25.1206" transform="rotate(-19.9845 709.12 86.1598)" stroke="#493169" stroke-width="0.03144"/>
</g>
<g opacity="0.2" clip-path="url(#clip32_6697_16593)">
<path d="M707.174 146.99L705.831 148.756L708.51 150.461L709.541 148.496L707.174 146.99Z" fill="black"/>
<path d="M705.422 156.355L708.052 151.333L705.234 149.539L701.798 154.049C701.797 154.05 701.798 154.048 701.797 154.049C701.419 154.535 701.27 155.134 701.374 155.741C701.479 156.347 701.824 156.863 702.343 157.193C702.862 157.523 703.475 157.616 704.069 157.454C704.663 157.292 705.142 156.905 705.422 156.356C705.423 156.355 705.421 156.357 705.422 156.355ZM703.914 155.639C703.769 155.867 703.465 155.933 703.237 155.788C703.009 155.643 702.94 155.34 703.085 155.112L703.374 154.657C703.519 154.429 703.824 154.363 704.052 154.508C704.28 154.653 704.348 154.957 704.203 155.185L703.914 155.639Z" fill="black"/>
<path d="M720.218 138.986L716.158 142.279C715.989 142.416 715.751 142.424 715.572 142.3C715.393 142.176 715.316 141.951 715.385 141.744L716.985 136.929L714.584 135.401L711.722 139.898C711.577 140.126 711.273 140.192 711.045 140.047C710.817 139.902 710.748 139.598 710.893 139.37L713.755 134.873L712.346 133.976L709.484 138.473C709.339 138.701 709.035 138.768 708.807 138.622C708.579 138.477 708.51 138.174 708.655 137.946L711.517 133.449L709.486 132.156L705.187 138.912L717.703 146.877L722.002 140.122L720.218 138.986Z" fill="black"/>
<path d="M703.277 141.913C702.916 142.479 703.06 143.209 703.627 143.569L707.322 145.921L710.448 147.911L714.144 150.263C714.71 150.623 715.432 150.445 715.793 149.878L717.174 147.708L704.658 139.742L703.277 141.913Z" fill="black"/>
</g>
<g opacity="0.2" clip-path="url(#clip33_6697_16593)">
<path d="M760.625 117.502L753.46 120.734L754.107 122.167L752.674 122.814L751.704 120.664L760.301 116.785L758.362 112.487L757.646 112.81L758.615 114.959C758.794 115.355 758.618 115.82 758.222 115.999L745.326 121.817C744.93 121.996 744.465 121.82 744.286 121.424L742.993 118.558C742.814 118.162 742.99 117.697 743.386 117.519L756.283 111.7C756.678 111.522 757.144 111.697 757.322 112.093L758.755 111.447L761.341 117.178L760.625 117.502ZM755.889 112.74L744.426 117.912L744.749 118.628L756.213 113.456L755.889 112.74ZM758.379 129.725C758.736 130.516 758.383 131.447 757.592 131.804C756.801 132.161 755.87 131.809 755.513 131.018L752.281 123.853L755.146 122.56L758.379 129.725ZM756.488 129.356C756.092 129.535 755.916 130 756.095 130.396C756.273 130.792 756.738 130.968 757.134 130.789C757.53 130.611 757.706 130.146 757.528 129.749C757.349 129.354 756.883 129.178 756.488 129.356Z" fill="black"/>
</g>
<g opacity="0.2">
<g clip-path="url(#clip34_6697_16593)">
<path fill-rule="evenodd" clip-rule="evenodd" d="M647.418 114.129L637.921 109.698L636.826 112.044L646.323 116.475L647.418 114.129ZM633.046 120.144L635.94 113.943L645.437 118.375L642.543 124.576L633.046 120.144ZM647.779 118.311L649.139 115.397L649.219 115.473L650.276 116.494C650.4 117.525 650.394 118.242 650.389 118.823C650.383 119.515 650.379 120.014 650.598 120.616C651.018 121.772 651.807 122.407 652.792 122.049C653.777 121.691 654.09 121.019 653.553 119.542C653.333 118.939 653.01 118.56 652.561 118.034C652.269 117.691 651.923 117.285 651.518 116.715L650.964 114.468C650.575 112.891 649.947 111.365 648.549 110.592C647.864 110.213 647.408 110.134 646.777 110.025C646.566 109.988 646.336 109.948 646.071 109.893C644.888 109.645 642.646 109.063 637.767 107.318C637.258 107.136 636.693 107.372 636.465 107.862L634.484 112.107L630.703 120.208C630.459 120.732 630.685 121.356 631.21 121.601L642.606 126.919C643.131 127.163 643.754 126.937 643.999 126.412L647.779 118.311Z" fill="black"/>
</g>
<rect x="625.276" y="109.211" width="25.1206" height="25.1206" transform="rotate(-19.9845 625.276 109.211)" stroke="#493169" stroke-width="0.03144"/>
</g>
<g opacity="0.2" clip-path="url(#clip35_6697_16593)">
<path d="M623.326 170.037L621.983 171.802L624.662 173.508L625.693 171.543L623.326 170.037Z" fill="black"/>
<path d="M621.574 179.402L624.205 174.38L621.386 172.586L617.95 177.096C617.949 177.097 617.951 177.095 617.95 177.096C617.571 177.582 617.422 178.181 617.527 178.788C617.632 179.394 617.976 179.909 618.495 180.24C619.014 180.57 619.628 180.663 620.222 180.501C620.815 180.339 621.294 179.952 621.574 179.403C621.575 179.402 621.573 179.404 621.574 179.402ZM620.066 178.686C619.921 178.914 619.617 178.98 619.389 178.835C619.161 178.69 619.093 178.386 619.238 178.158L619.527 177.704C619.672 177.476 619.976 177.41 620.204 177.555C620.432 177.7 620.501 178.004 620.356 178.232L620.066 178.686Z" fill="black"/>
<path d="M636.37 162.033L632.31 165.325C632.141 165.462 631.903 165.471 631.724 165.347C631.545 165.223 631.469 164.998 631.537 164.791L633.138 159.976L630.736 158.447L627.874 162.945C627.729 163.173 627.425 163.239 627.197 163.094C626.969 162.949 626.9 162.645 627.045 162.417L629.907 157.92L628.498 157.023L625.636 161.52C625.491 161.748 625.187 161.814 624.959 161.669C624.731 161.524 624.662 161.221 624.807 160.993L627.669 156.496L625.639 155.203L621.339 161.958L633.855 169.924L638.155 163.169L636.37 162.033Z" fill="black"/>
<path d="M619.429 164.96C619.069 165.526 619.212 166.256 619.779 166.616L623.474 168.968L626.601 170.958L630.296 173.31C630.863 173.67 631.584 173.492 631.945 172.925L633.326 170.755L620.811 162.789L619.429 164.96Z" fill="black"/>
</g>
<g opacity="0.2" clip-path="url(#clip36_6697_16593)">
<path d="M676.781 140.553L669.616 143.785L670.263 145.218L668.83 145.864L667.86 143.715L676.458 139.836L674.518 135.537L673.802 135.861L674.772 138.01C674.95 138.405 674.774 138.871 674.378 139.05L661.482 144.868C661.086 145.047 660.621 144.87 660.442 144.475L659.149 141.609C658.971 141.213 659.146 140.748 659.543 140.569L672.439 134.751C672.834 134.572 673.3 134.748 673.479 135.144L674.911 134.498L677.497 140.229L676.781 140.553ZM672.046 135.791L660.582 140.963L660.906 141.679L672.369 136.507L672.046 135.791ZM674.535 152.776C674.892 153.567 674.54 154.498 673.749 154.855C672.958 155.212 672.026 154.86 671.669 154.069L668.437 146.904L671.303 145.611L674.535 152.776ZM672.644 152.407C672.248 152.586 672.072 153.051 672.251 153.447C672.43 153.843 672.894 154.019 673.291 153.84C673.686 153.661 673.863 153.196 673.684 152.8C673.505 152.405 673.04 152.228 672.644 152.407Z" fill="black"/>
</g>
<g opacity="0.2">
<g clip-path="url(#clip37_6697_16593)">
<path fill-rule="evenodd" clip-rule="evenodd" d="M343.492 -13.726L333.995 -18.1576L332.9 -15.8119L342.397 -11.3803L343.492 -13.726ZM329.12 -7.71102L332.014 -13.9126L341.511 -9.48095L338.617 -3.27938L329.12 -7.71102ZM343.854 -9.54435L345.214 -12.4588L345.293 -12.3821L346.35 -11.3617C346.475 -10.3309 346.468 -9.61316 346.463 -9.03202C346.457 -8.34026 346.453 -7.84189 346.672 -7.23933C347.092 -6.08366 347.881 -5.44863 348.866 -5.8068C349.851 -6.16497 350.164 -6.8365 349.627 -8.31384C349.408 -8.9164 349.084 -9.29557 348.635 -9.82193C348.343 -10.1647 347.997 -10.5701 347.592 -11.1403L347.038 -13.3871C346.649 -14.9641 346.022 -16.4901 344.623 -17.2633C343.938 -17.642 343.482 -17.721 342.851 -17.8305C342.641 -17.8671 342.41 -17.907 342.145 -17.9625C340.962 -18.2109 338.72 -18.7929 333.841 -20.5373C333.332 -20.7194 332.767 -20.4839 332.539 -19.9936L330.558 -15.7486L326.778 -7.64765C326.533 -7.12317 326.76 -6.49954 327.284 -6.25481L338.68 -0.936853C339.205 -0.692128 339.829 -0.918921 340.073 -1.44339L343.854 -9.54435Z" fill="black"/>
</g>
<rect x="321.354" y="-18.6449" width="25.1206" height="25.1206" transform="rotate(-19.9845 321.354 -18.6449)" stroke="#493169" stroke-width="0.03144"/>
</g>
<g opacity="0.2" clip-path="url(#clip38_6697_16593)">
<path d="M319.408 42.1813L318.065 43.947L320.744 45.6521L321.775 43.6878L319.408 42.1813Z" fill="black"/>
<path d="M317.656 51.5468L320.287 46.5245L317.468 44.7308L314.032 49.2404C314.031 49.2419 314.033 49.2393 314.032 49.2408C313.653 49.7263 313.504 50.3259 313.609 50.9323C313.714 51.5389 314.058 52.0539 314.577 52.3844C315.096 52.7149 315.71 52.8072 316.304 52.6454C316.897 52.4835 317.376 52.0961 317.656 51.5478C317.657 51.5463 317.655 51.5484 317.656 51.5468ZM316.149 50.8305C316.003 51.0585 315.699 51.1248 315.471 50.9796C315.243 50.8345 315.175 50.531 315.32 50.303L315.609 49.8488C315.754 49.6208 316.058 49.5545 316.286 49.6997C316.514 49.8448 316.583 50.1483 316.438 50.3763L316.149 50.8305Z" fill="black"/>
<path d="M332.452 34.1777L328.392 37.47C328.223 37.607 327.985 37.6155 327.806 37.4915C327.627 37.3678 327.551 37.1422 327.619 36.9359L329.22 32.1203L326.818 30.5919L323.956 35.089C323.811 35.3171 323.507 35.3833 323.279 35.2382C323.051 35.0931 322.982 34.7896 323.127 34.5615L325.989 30.0644L324.58 29.1676L321.718 33.6647C321.573 33.8928 321.269 33.959 321.041 33.8139C320.813 33.6687 320.744 33.3653 320.889 33.1372L323.751 28.6401L321.721 27.3477L317.421 34.1029L329.937 42.0686L334.237 35.3133L332.452 34.1777Z" fill="black"/>
<path d="M315.511 37.1042C315.151 37.6707 315.295 38.4003 315.861 38.7609L319.556 41.1127L322.683 43.1024L326.378 45.4542C326.945 45.8148 327.666 45.6364 328.027 45.0698L329.409 42.8992L316.893 34.9336L315.511 37.1042Z" fill="black"/>
</g>
<g opacity="0.2" clip-path="url(#clip39_6697_16593)">
<path d="M372.859 12.697L365.695 15.9295L366.341 17.3624L364.908 18.0089L363.938 15.8595L372.536 11.9806L370.596 7.68185L369.88 8.0051L370.85 10.1545C371.028 10.5499 370.852 11.0157 370.456 11.1942L357.56 17.0126C357.164 17.1913 356.699 17.0149 356.521 16.6194L355.228 13.7536C355.049 13.3574 355.225 12.8926 355.621 12.7139L368.517 6.89543C368.912 6.717 369.378 6.89244 369.557 7.28864L370.99 6.64215L373.576 12.3738L372.859 12.697ZM368.124 7.93513L356.66 13.1071L356.984 13.8235L368.447 8.65159L368.124 7.93513ZM370.613 24.9202C370.97 25.7111 370.618 26.6427 369.827 26.9996C369.036 27.3564 368.104 27.0041 367.747 26.2132L364.515 19.0486L367.381 17.7556L370.613 24.9202ZM368.722 24.5514C368.326 24.7302 368.151 25.1957 368.329 25.5911C368.508 25.9873 368.973 26.1631 369.369 25.9844C369.764 25.8059 369.941 25.3409 369.762 24.9447C369.583 24.5492 369.118 24.373 368.722 24.5514Z" fill="black"/>
</g>
<g opacity="0.2">
<g clip-path="url(#clip40_6697_16593)">
<path fill-rule="evenodd" clip-rule="evenodd" d="M561.476 13.5201L551.979 9.08847L550.885 11.4341L560.382 15.8658L561.476 13.5201ZM547.105 19.5351L549.998 13.3335L559.495 17.7651L556.601 23.9667L547.105 19.5351ZM561.838 17.7017L563.198 14.7873L563.277 14.864L564.335 15.8844C564.459 16.9152 564.453 17.6329 564.448 18.2141C564.442 18.9058 564.437 19.4042 564.657 20.0068C565.077 21.1624 565.865 21.7975 566.85 21.4393C567.835 21.0811 568.148 20.4096 567.611 18.9323C567.392 18.3297 567.069 17.9505 566.62 17.4242C566.327 17.0814 565.982 16.676 565.577 16.1058L565.023 13.8589C564.634 12.2819 564.006 10.756 562.607 9.98279C561.922 9.60405 561.467 9.52505 560.835 9.41557C560.625 9.37903 560.395 9.33911 560.13 9.28358C558.946 9.03522 556.704 8.45319 551.826 6.7088C551.316 6.52666 550.752 6.76221 550.523 7.25245L548.542 11.4975L544.762 19.5984C544.517 20.1229 544.744 20.7466 545.269 20.9913L556.665 26.3092C557.189 26.554 557.813 26.3272 558.058 25.8027L561.838 17.7017Z" fill="black"/>
</g>
<rect x="539.339" y="8.6051" width="25.1206" height="25.1206" transform="rotate(-19.9845 539.339 8.6051)" stroke="#493169" stroke-width="0.03144"/>
</g>
<g opacity="0.2" clip-path="url(#clip41_6697_16593)">
<path d="M537.392 69.4313L536.049 71.197L538.728 72.9021L539.759 70.9378L537.392 69.4313Z" fill="black"/>
<path d="M535.641 78.7968L538.271 73.7745L535.453 71.9808L532.017 76.4904C532.016 76.4919 532.017 76.4893 532.016 76.4908C531.638 76.9763 531.488 77.5759 531.593 78.1823C531.698 78.7889 532.042 79.3039 532.562 79.6344C533.081 79.9649 533.694 80.0572 534.288 79.8954C534.882 79.7335 535.361 79.3461 535.64 78.7978C535.641 78.7963 535.64 78.7984 535.641 78.7968ZM534.133 78.0805C533.988 78.3085 533.684 78.3748 533.456 78.2296C533.228 78.0845 533.159 77.781 533.304 77.553L533.593 77.0988C533.738 76.8708 534.042 76.8045 534.27 76.9497C534.498 77.0948 534.567 77.3983 534.422 77.6263L534.133 78.0805Z" fill="black"/>
<path d="M550.437 61.4277L546.377 64.72C546.208 64.857 545.97 64.8655 545.79 64.7415C545.612 64.6178 545.535 64.3922 545.604 64.1859L547.204 59.3703L544.803 57.8419L541.94 62.339C541.795 62.5671 541.491 62.6333 541.263 62.4882C541.035 62.3431 540.966 62.0396 541.112 61.8115L543.974 57.3144L542.565 56.4176L539.703 60.9147C539.557 61.1428 539.253 61.209 539.025 61.0639C538.797 60.9187 538.729 60.6153 538.874 60.3872L541.736 55.8901L539.705 54.5977L535.406 61.3529L547.922 69.3186L552.221 62.5633L550.437 61.4277Z" fill="black"/>
<path d="M533.496 64.3542C533.135 64.9207 533.279 65.6503 533.845 66.0109L537.541 68.3627L540.667 70.3524L544.362 72.7042C544.929 73.0648 545.651 72.8864 546.011 72.3198L547.393 70.1492L534.877 62.1836L533.496 64.3542Z" fill="black"/>
</g>
<g opacity="0.2" clip-path="url(#clip42_6697_16593)">
<path d="M590.84 39.9431L583.675 43.1756L584.321 44.6085L582.889 45.255L581.919 43.1056L590.516 39.2267L588.577 34.9279L587.86 35.2512L588.83 37.4006C589.009 37.796 588.832 38.2618 588.437 38.4403L575.541 44.2587C575.144 44.4374 574.679 44.261 574.501 43.8655L573.208 40.9997C573.029 40.6035 573.205 40.1387 573.601 39.96L586.497 34.1415C586.893 33.9631 587.358 34.1385 587.537 34.5347L588.97 33.8882L591.556 39.6199L590.84 39.9431ZM586.104 35.1812L574.641 40.3532L574.964 41.0696L586.427 35.8977L586.104 35.1812ZM588.594 52.1663C588.951 52.9572 588.598 53.8888 587.807 54.2457C587.016 54.6025 586.085 54.2502 585.728 53.4592L582.495 46.2947L585.361 45.0017L588.594 52.1663ZM586.703 51.7975C586.306 51.9763 586.131 52.4418 586.309 52.8372C586.488 53.2334 586.953 53.4092 587.349 53.2304C587.745 53.052 587.921 52.5869 587.742 52.1907C587.564 51.7953 587.098 51.6191 586.703 51.7975Z" fill="black"/>
</g>
<g opacity="0.2">
<g clip-path="url(#clip43_6697_16593)">
<path fill-rule="evenodd" clip-rule="evenodd" d="M729.156 -13.726L719.659 -18.1576L718.564 -15.8119L728.061 -11.3803L729.156 -13.726ZM714.784 -7.71102L717.678 -13.9126L727.175 -9.48095L724.281 -3.27938L714.784 -7.71102ZM729.518 -9.54435L730.878 -12.4588L730.957 -12.3821L732.014 -11.3617C732.139 -10.3309 732.132 -9.61316 732.127 -9.03202C732.121 -8.34026 732.117 -7.84189 732.336 -7.23933C732.756 -6.08366 733.545 -5.44863 734.53 -5.8068C735.515 -6.16497 735.828 -6.8365 735.291 -8.31384C735.072 -8.9164 734.748 -9.29557 734.299 -9.82193C734.007 -10.1647 733.661 -10.5701 733.256 -11.1403L732.702 -13.3871C732.313 -14.9641 731.686 -16.4901 730.287 -17.2633C729.602 -17.642 729.147 -17.721 728.515 -17.8305C728.305 -17.8671 728.074 -17.907 727.809 -17.9625C726.626 -18.2109 724.384 -18.7929 719.505 -20.5373C718.996 -20.7194 718.432 -20.4839 718.203 -19.9936L716.222 -15.7486L712.442 -7.64765C712.197 -7.12317 712.424 -6.49954 712.948 -6.25481L724.344 -0.936853C724.869 -0.692128 725.493 -0.918921 725.737 -1.44339L729.518 -9.54435Z" fill="black"/>
</g>
<rect x="707.018" y="-18.6449" width="25.1206" height="25.1206" transform="rotate(-19.9845 707.018 -18.6449)" stroke="#493169" stroke-width="0.03144"/>
</g>
<g opacity="0.2" clip-path="url(#clip44_6697_16593)">
<path d="M705.072 42.1813L703.729 43.947L706.408 45.6521L707.439 43.6878L705.072 42.1813Z" fill="black"/>
<path d="M703.32 51.5468L705.951 46.5245L703.132 44.7308L699.696 49.2404C699.695 49.2419 699.697 49.2393 699.696 49.2408C699.317 49.7263 699.168 50.3259 699.273 50.9323C699.378 51.5389 699.722 52.0539 700.241 52.3844C700.761 52.7149 701.374 52.8072 701.968 52.6454C702.562 52.4835 703.04 52.0961 703.32 51.5478C703.321 51.5463 703.319 51.5484 703.32 51.5468ZM701.813 50.8305C701.667 51.0585 701.363 51.1248 701.135 50.9796C700.907 50.8345 700.839 50.531 700.984 50.303L701.273 49.8488C701.418 49.6208 701.722 49.5545 701.95 49.6997C702.178 49.8448 702.247 50.1483 702.102 50.3763L701.813 50.8305Z" fill="black"/>
<path d="M718.117 34.1777L714.056 37.47C713.887 37.607 713.649 37.6155 713.47 37.4915C713.291 37.3678 713.215 37.1422 713.283 36.9359L714.884 32.1203L712.482 30.5919L709.62 35.089C709.475 35.3171 709.171 35.3833 708.943 35.2382C708.715 35.0931 708.646 34.7896 708.791 34.5615L711.653 30.0644L710.244 29.1676L707.382 33.6647C707.237 33.8928 706.933 33.959 706.705 33.8139C706.477 33.6687 706.408 33.3653 706.553 33.1372L709.415 28.6401L707.385 27.3477L703.085 34.1029L715.601 42.0686L719.901 35.3133L718.117 34.1777Z" fill="black"/>
<path d="M701.175 37.1042C700.815 37.6707 700.959 38.4003 701.525 38.7609L705.221 41.1127L708.347 43.1024L712.042 45.4542C712.609 45.8148 713.331 45.6364 713.691 45.0698L715.073 42.8992L702.557 34.9336L701.175 37.1042Z" fill="black"/>
</g>
<g opacity="0.2" clip-path="url(#clip45_6697_16593)">
<path d="M758.523 12.697L751.359 15.9295L752.005 17.3624L750.572 18.0089L749.602 15.8595L758.2 11.9806L756.26 7.68185L755.544 8.0051L756.514 10.1545C756.692 10.5499 756.516 11.0157 756.12 11.1942L743.224 17.0126C742.828 17.1913 742.363 17.0149 742.185 16.6194L740.892 13.7536C740.713 13.3574 740.889 12.8926 741.285 12.7139L754.181 6.89543C754.576 6.717 755.042 6.89244 755.221 7.28864L756.654 6.64215L759.24 12.3738L758.523 12.697ZM753.788 7.93513L742.325 13.1071L742.648 13.8235L754.111 8.65159L753.788 7.93513ZM756.277 24.9202C756.634 25.7111 756.282 26.6427 755.491 26.9996C754.7 27.3564 753.768 27.0041 753.411 26.2132L750.179 19.0486L753.045 17.7556L756.277 24.9202ZM754.386 24.5514C753.99 24.7302 753.815 25.1957 753.993 25.5911C754.172 25.9873 754.637 26.1631 755.033 25.9844C755.428 25.8059 755.605 25.3409 755.426 24.9447C755.248 24.5492 754.782 24.373 754.386 24.5514Z" fill="black"/>
</g>
<g opacity="0.2">
<g clip-path="url(#clip46_6697_16593)">
<path fill-rule="evenodd" clip-rule="evenodd" d="M293.195 57.5357L283.698 53.1041L282.603 55.4498L292.1 59.8814L293.195 57.5357ZM278.823 63.5507L281.717 57.3492L291.214 61.7808L288.32 67.9823L278.823 63.5507ZM293.557 61.7174L294.917 58.8029L294.996 58.8796L296.054 59.9001C296.178 60.9308 296.171 61.6486 296.166 62.2297C296.16 62.9215 296.156 63.4198 296.375 64.0224C296.796 65.1781 297.584 65.8131 298.569 65.4549C299.554 65.0968 299.867 64.4252 299.33 62.9479C299.111 62.3453 298.787 61.9661 298.338 61.4398C298.046 61.097 297.7 60.6917 297.295 60.1214L296.741 57.8746C296.352 56.2976 295.725 54.7716 294.326 53.9984C293.641 53.6197 293.186 53.5407 292.554 53.4312C292.344 53.3947 292.113 53.3547 291.848 53.2992C290.665 53.0508 288.423 52.4688 283.544 50.7244C283.035 50.5423 282.471 50.7778 282.242 51.2681L280.261 55.5131L276.481 63.6141C276.236 64.1385 276.463 64.7622 276.987 65.0069L288.384 70.3249C288.908 70.5696 289.532 70.3428 289.776 69.8183L293.557 61.7174Z" fill="black"/>
</g>
<rect x="271.053" y="52.6207" width="25.1206" height="25.1206" transform="rotate(-19.9845 271.053 52.6207)" stroke="#493169" stroke-width="0.03144"/>
</g>
<g opacity="0.2" clip-path="url(#clip47_6697_16593)">
<path d="M269.107 113.451L267.764 115.217L270.443 116.922L271.474 114.957L269.107 113.451Z" fill="black"/>
<path d="M267.355 122.816L269.986 117.794L267.168 116L263.732 120.51C263.73 120.511 263.732 120.509 263.731 120.51C263.353 120.996 263.203 121.595 263.308 122.202C263.413 122.808 263.757 123.323 264.276 123.654C264.796 123.984 265.409 124.077 266.003 123.915C266.597 123.753 267.076 123.366 267.355 122.817C267.356 122.816 267.355 122.818 267.355 122.816ZM265.848 122.1C265.703 122.328 265.399 122.394 265.171 122.249C264.943 122.104 264.874 121.801 265.019 121.573L265.308 121.118C265.453 120.89 265.757 120.824 265.985 120.969C266.213 121.114 266.282 121.418 266.137 121.646L265.848 122.1Z" fill="black"/>
<path d="M282.152 105.447L278.092 108.739C277.923 108.877 277.685 108.885 277.505 108.761C277.327 108.637 277.25 108.412 277.319 108.205L278.919 103.39L276.517 101.861L273.655 106.359C273.51 106.587 273.206 106.653 272.978 106.508C272.75 106.363 272.681 106.059 272.826 105.831L275.689 101.334L274.28 100.437L271.417 104.934C271.272 105.162 270.968 105.229 270.74 105.083C270.512 104.938 270.443 104.635 270.589 104.407L273.451 99.9096L271.42 98.6172L267.121 105.372L279.637 113.338L283.936 106.583L282.152 105.447Z" fill="black"/>
<path d="M265.21 108.374C264.85 108.94 264.994 109.67 265.56 110.03L269.256 112.382L272.382 114.372L276.077 116.724C276.644 117.084 277.366 116.906 277.726 116.339L279.108 114.169L266.592 106.203L265.21 108.374Z" fill="black"/>
</g>
<g opacity="0.2" clip-path="url(#clip48_6697_16593)">
<path d="M322.558 83.9588L315.394 87.1912L316.04 88.6241L314.607 89.2706L313.638 87.1213L322.235 83.2423L320.296 78.9436L319.579 79.2668L320.549 81.4162C320.727 81.8117 320.551 82.2774 320.156 82.4559L307.259 88.2743C306.863 88.4531 306.398 88.2766 306.22 87.8811L304.927 85.0153C304.748 84.6191 304.924 84.1543 305.32 83.9756L318.216 78.1572C318.612 77.9787 319.077 78.1542 319.256 78.5504L320.689 77.9039L323.275 83.6355L322.558 83.9588ZM317.823 79.1969L306.36 84.3688L306.683 85.0852L318.146 79.9133L317.823 79.1969ZM320.312 96.1819C320.669 96.9729 320.317 97.9044 319.526 98.2613C318.735 98.6182 317.803 98.2658 317.447 97.4749L314.214 90.3103L317.08 89.0173L320.312 96.1819ZM318.421 95.8132C318.025 95.9919 317.85 96.4574 318.028 96.8529C318.207 97.2491 318.672 97.4248 319.068 97.2461C319.463 97.0676 319.64 96.6026 319.461 96.2064C319.283 95.8109 318.817 95.6347 318.421 95.8132Z" fill="black"/>
</g>
<g opacity="0.2">
<g clip-path="url(#clip49_6697_16593)">
<path fill-rule="evenodd" clip-rule="evenodd" d="M427.332 9.32868L417.835 4.89706L416.74 7.24274L426.237 11.6744L427.332 9.32868ZM412.96 15.3437L415.854 9.14213L425.351 13.5737L422.457 19.7753L412.96 15.3437ZM427.693 13.5103L429.053 10.5959L429.133 10.6726L430.19 11.693C430.314 12.7238 430.308 13.4415 430.303 14.0227C430.297 14.7144 430.293 15.2128 430.512 15.8154C430.932 16.971 431.721 17.6061 432.706 17.2479C433.691 16.8897 434.004 16.2182 433.467 14.7408C433.248 14.1383 432.924 13.7591 432.475 13.2328C432.183 12.8899 431.837 12.4846 431.432 11.9144L430.878 9.66754C430.489 8.09054 429.861 6.56456 428.463 5.79138C427.778 5.41265 427.322 5.33364 426.691 5.22416C426.48 5.18763 426.25 5.14771 425.985 5.09218C424.802 4.84382 422.56 4.26179 417.681 2.5174C417.172 2.33525 416.607 2.57081 416.379 3.06104L414.398 7.30611L410.617 15.407C410.373 15.9315 410.599 16.5551 411.124 16.7999L422.52 22.1178C423.045 22.3626 423.668 22.1358 423.913 21.6113L427.693 13.5103Z" fill="black"/>
</g>
<rect x="405.194" y="4.4137" width="25.1206" height="25.1206" transform="rotate(-19.9845 405.194 4.4137)" stroke="#493169" stroke-width="0.03144"/>
</g>
<g opacity="0.2" clip-path="url(#clip50_6697_16593)">
<path d="M403.248 65.2438L401.905 67.0095L404.584 68.7146L405.615 66.7503L403.248 65.2438Z" fill="black"/>
<path d="M401.496 74.6093L404.127 69.587L401.308 67.7933L397.872 72.3029C397.871 72.3044 397.872 72.3018 397.871 72.3033C397.493 72.7888 397.344 73.3884 397.449 73.9948C397.553 74.6014 397.898 75.1164 398.417 75.4469C398.936 75.7774 399.55 75.8697 400.143 75.7079C400.737 75.546 401.216 75.1586 401.496 74.6103C401.497 74.6088 401.495 74.6109 401.496 74.6093ZM399.988 73.893C399.843 74.121 399.539 74.1873 399.311 74.0421C399.083 73.897 399.014 73.5935 399.16 73.3655L399.449 72.9113C399.594 72.6833 399.898 72.617 400.126 72.7622C400.354 72.9073 400.423 73.2108 400.277 73.4388L399.988 73.893Z" fill="black"/>
<path d="M416.292 57.2402L412.232 60.5325C412.063 60.6695 411.825 60.678 411.646 60.554C411.467 60.4303 411.391 60.2047 411.459 59.9984L413.059 55.1828L410.658 53.6544L407.796 58.1515C407.651 58.3796 407.347 58.4458 407.119 58.3007C406.891 58.1556 406.822 57.8521 406.967 57.624L409.829 53.1269L408.42 52.2301L405.558 56.7272C405.413 56.9553 405.109 57.0215 404.881 56.8764C404.653 56.7312 404.584 56.4278 404.729 56.1997L407.591 51.7026L405.561 50.4102L401.261 57.1654L413.777 65.1311L418.076 58.3758L416.292 57.2402Z" fill="black"/>
<path d="M399.351 60.1667C398.99 60.7332 399.134 61.4628 399.701 61.8234L403.396 64.1752L406.523 66.1649L410.218 68.5167C410.784 68.8773 411.506 68.6989 411.867 68.1323L413.248 65.9617L400.732 57.9961L399.351 60.1667Z" fill="black"/>
</g>
<g opacity="0.2" clip-path="url(#clip51_6697_16593)">
<path d="M456.699 35.7556L449.534 38.9881L450.181 40.421L448.748 41.0675L447.778 38.9181L456.376 35.0392L454.436 30.7404L453.72 31.0637L454.689 33.2131C454.868 33.6085 454.692 34.0743 454.296 34.2528L441.4 40.0712C441.004 40.2499 440.539 40.0735 440.36 39.678L439.067 36.8122C438.889 36.416 439.064 35.9512 439.461 35.7725L452.357 29.954C452.752 29.7756 453.218 29.951 453.396 30.3472L454.829 29.7007L457.415 35.4324L456.699 35.7556ZM451.964 30.9937L440.5 36.1657L440.824 36.8821L452.287 31.7102L451.964 30.9937ZM454.453 47.9788C454.81 48.7697 454.458 49.7013 453.667 50.0582C452.876 50.415 451.944 50.0627 451.587 49.2717L448.355 42.1072L451.221 40.8142L454.453 47.9788ZM452.562 47.61C452.166 47.7888 451.99 48.2543 452.169 48.6497C452.348 49.0459 452.812 49.2217 453.209 49.0429C453.604 48.8645 453.781 48.3994 453.602 48.0032C453.423 47.6078 452.958 47.4316 452.562 47.61Z" fill="black"/>
</g>
<g opacity="0.2">
<g clip-path="url(#clip52_6697_16593)">
<path fill-rule="evenodd" clip-rule="evenodd" d="M645.316 36.5826L635.819 32.151L634.725 34.4966L644.221 38.9283L645.316 36.5826ZM630.944 42.5976L633.838 36.396L643.335 40.8276L640.441 47.0292L630.944 42.5976ZM645.678 40.7642L647.038 37.8498L647.117 37.9265L648.175 38.9469C648.299 39.9777 648.292 40.6954 648.287 41.2766C648.282 41.9683 648.277 42.4667 648.496 43.0693C648.917 44.2249 649.705 44.86 650.69 44.5018C651.675 44.1436 651.988 43.4721 651.451 41.9948C651.232 41.3922 650.908 41.013 650.46 40.4867C650.167 40.1439 649.821 39.7385 649.417 39.1683L648.863 36.9214C648.474 35.3444 647.846 33.8185 646.447 33.0453C645.762 32.6666 645.307 32.5875 644.675 32.4781C644.465 32.4415 644.234 32.4016 643.97 32.3461C642.786 32.0977 640.544 31.5157 635.665 29.7713C635.156 29.5892 634.592 29.8247 634.363 30.315L632.382 34.56L628.602 42.6609C628.357 43.1854 628.584 43.8091 629.108 44.0538L640.505 49.3717C641.029 49.6165 641.653 49.3897 641.898 48.8652L645.678 40.7642Z" fill="black"/>
</g>
<rect x="623.178" y="31.6637" width="25.1206" height="25.1206" transform="rotate(-19.9845 623.178 31.6637)" stroke="#493169" stroke-width="0.03144"/>
</g>
<g opacity="0.2" clip-path="url(#clip53_6697_16593)">
<path d="M621.232 92.4938L619.889 94.2595L622.568 95.9646L623.599 94.0003L621.232 92.4938Z" fill="black"/>
<path d="M619.48 101.859L622.111 96.837L619.293 95.0433L615.857 99.5529C615.855 99.5544 615.857 99.5518 615.856 99.5533C615.478 100.039 615.328 100.638 615.433 101.245C615.538 101.851 615.882 102.366 616.401 102.697C616.921 103.027 617.534 103.12 618.128 102.958C618.722 102.796 619.201 102.409 619.48 101.86C619.481 101.859 619.48 101.861 619.48 101.859ZM617.973 101.143C617.828 101.371 617.524 101.437 617.296 101.292C617.068 101.147 616.999 100.844 617.144 100.615L617.433 100.161C617.578 99.9333 617.882 99.867 618.11 100.012C618.338 100.157 618.407 100.461 618.262 100.689L617.973 101.143Z" fill="black"/>
<path d="M634.277 84.4902L630.217 87.7825C630.048 87.9195 629.81 87.928 629.63 87.804C629.452 87.6803 629.375 87.4547 629.444 87.2484L631.044 82.4328L628.642 80.9044L625.78 85.4015C625.635 85.6296 625.331 85.6958 625.103 85.5507C624.875 85.4056 624.806 85.1021 624.951 84.874L627.814 80.3769L626.405 79.4801L623.542 83.9772C623.397 84.2053 623.093 84.2715 622.865 84.1264C622.637 83.9812 622.568 83.6778 622.714 83.4497L625.576 78.9526L623.545 77.6602L619.246 84.4154L631.762 92.3811L636.061 85.6258L634.277 84.4902Z" fill="black"/>
<path d="M617.335 87.4167C616.975 87.9832 617.119 88.7128 617.685 89.0734L621.381 91.4252L624.507 93.4149L628.202 95.7667C628.769 96.1273 629.491 95.9489 629.851 95.3823L631.233 93.2117L618.717 85.2461L617.335 87.4167Z" fill="black"/>
</g>
<g opacity="0.2" clip-path="url(#clip54_6697_16593)">
<path d="M674.679 63.0056L667.515 66.2381L668.161 67.671L666.728 68.3175L665.759 66.1681L674.356 62.2892L672.417 57.9904L671.7 58.3137L672.67 60.4631C672.848 60.8585 672.672 61.3243 672.277 61.5028L659.381 67.3212C658.984 67.4999 658.519 67.3235 658.341 66.928L657.048 64.0622C656.869 63.666 657.045 63.2012 657.441 63.0225L670.337 57.204C670.733 57.0256 671.198 57.201 671.377 57.5972L672.81 56.9507L675.396 62.6824L674.679 63.0056ZM669.944 58.2437L658.481 63.4157L658.804 64.1321L670.267 58.9602L669.944 58.2437ZM672.433 75.2288C672.79 76.0197 672.438 76.9513 671.647 77.3082C670.856 77.665 669.925 77.3127 669.568 76.5217L666.335 69.3572L669.201 68.0642L672.433 75.2288ZM670.543 74.86C670.146 75.0388 669.971 75.5043 670.149 75.8997C670.328 76.2959 670.793 76.4717 671.189 76.2929C671.585 76.1145 671.761 75.6494 671.582 75.2532C671.404 74.8578 670.938 74.6816 670.543 74.86Z" fill="black"/>
</g>
<g opacity="0.2" clip-path="url(#clip55_6697_16593)">
<path d="M787.16 74.6093L789.791 69.587L786.972 67.7933L783.536 72.3029C783.535 72.3044 783.537 72.3018 783.535 72.3033C783.157 72.7888 783.008 73.3884 783.113 73.9948C783.218 74.6014 783.562 75.1164 784.081 75.4469C784.6 75.7774 785.214 75.8697 785.808 75.7079C786.401 75.546 786.88 75.1586 787.16 74.6103C787.161 74.6088 787.159 74.6109 787.16 74.6093ZM785.652 73.893C785.507 74.121 785.203 74.1873 784.975 74.0421C784.747 73.897 784.678 73.5935 784.824 73.3655L785.113 72.9113C785.258 72.6833 785.562 72.617 785.79 72.7622C786.018 72.9073 786.087 73.2108 785.941 73.4388L785.652 73.893Z" fill="black"/>
<path d="M785.015 60.1667C784.654 60.7332 784.798 61.4628 785.365 61.8234L789.06 64.1752L792.187 66.1649L795.882 68.5167C796.448 68.8773 797.17 68.6989 797.531 68.1323L798.912 65.9617L786.396 57.9961L785.015 60.1667Z" fill="black"/>
</g>
<g opacity="0.2" clip-path="url(#clip56_6697_16593)">
<path d="M162.551 0.5937L165.181 -4.42862L162.363 -6.22236L158.927 -1.71269C158.926 -1.71127 158.927 -1.71378 158.926 -1.71237C158.548 -1.22678 158.399 -0.627255 158.503 -0.0207906C158.608 0.585757 158.953 1.10079 159.472 1.43126C159.991 1.76173 160.604 1.85412 161.198 1.69226C161.792 1.53041 162.271 1.14296 162.551 0.594699C162.551 0.593154 162.55 0.595271 162.551 0.5937ZM161.043 -0.122622C160.898 0.1054 160.594 0.17164 160.366 0.0265178C160.138 -0.118604 160.069 -0.422124 160.214 -0.650146L160.503 -1.10433C160.648 -1.33235 160.952 -1.39859 161.18 -1.25346C161.408 -1.10834 161.477 -0.804824 161.332 -0.576802L161.043 -0.122622Z" fill="black"/>
</g>
</g>
<defs>
<clipPath id="clip0_6697_16593">
<rect width="786" height="176.064" fill="white"/>
</clipPath>
<clipPath id="clip1_6697_16593">
<rect x="-7.73242" y="44.2285" width="25.152" height="25.152" transform="rotate(-19.9845 -7.73242 44.2285)" fill="white"/>
</clipPath>
<clipPath id="clip2_6697_16593">
<rect width="25.152" height="25.152" fill="white" transform="translate(-11.6465 87.3809) rotate(32.4742)"/>
</clipPath>
<clipPath id="clip3_6697_16593">
<rect width="25.152" height="25.152" fill="white" transform="translate(20.959 74.6699) rotate(-24.2837)"/>
</clipPath>
<clipPath id="clip4_6697_16593">
<rect x="80.2988" y="75.666" width="25.152" height="25.152" transform="rotate(-19.9845 80.2988 75.666)" fill="white"/>
</clipPath>
<clipPath id="clip5_6697_16593">
<rect width="25.152" height="25.152" fill="white" transform="translate(76.3848 118.818) rotate(32.4742)"/>
</clipPath>
<clipPath id="clip6_6697_16593">
<rect width="25.152" height="25.152" fill="white" transform="translate(108.99 106.107) rotate(-24.2837)"/>
</clipPath>
<clipPath id="clip7_6697_16593">
<rect x="50.9551" y="-14.4629" width="25.152" height="25.152" transform="rotate(-19.9845 50.9551 -14.4629)" fill="white"/>
</clipPath>
<clipPath id="clip8_6697_16593">
<rect width="25.152" height="25.152" fill="white" transform="translate(47.041 28.6895) rotate(32.4742)"/>
</clipPath>
<clipPath id="clip9_6697_16593">
<rect width="25.152" height="25.152" fill="white" transform="translate(79.6465 15.9785) rotate(-24.2837)"/>
</clipPath>
<clipPath id="clip10_6697_16593">
<rect x="132.697" y="-18.6543" width="25.152" height="25.152" transform="rotate(-19.9845 132.697 -18.6543)" fill="white"/>
</clipPath>
<clipPath id="clip11_6697_16593">
<rect width="25.152" height="25.152" fill="white" transform="translate(128.783 24.498) rotate(32.4742)"/>
</clipPath>
<clipPath id="clip12_6697_16593">
<rect width="25.152" height="25.152" fill="white" transform="translate(161.389 11.7871) rotate(-24.2837)"/>
</clipPath>
<clipPath id="clip13_6697_16593">
<rect x="187.193" y="29.5566" width="25.152" height="25.152" transform="rotate(-19.9845 187.193 29.5566)" fill="white"/>
</clipPath>
<clipPath id="clip14_6697_16593">
<rect width="25.152" height="25.152" fill="white" transform="translate(183.279 72.709) rotate(32.4742)"/>
</clipPath>
<clipPath id="clip15_6697_16593">
<rect width="25.152" height="25.152" fill="white" transform="translate(215.889 59.998) rotate(-24.2837)"/>
</clipPath>
<clipPath id="clip16_6697_16593">
<rect width="25.152" height="25.152" fill="white" transform="translate(21.8906 113.184) rotate(32.4742)"/>
</clipPath>
<clipPath id="clip17_6697_16593">
<rect x="191.385" y="125.975" width="25.152" height="25.152" transform="rotate(-19.9845 191.385 125.975)" fill="white"/>
</clipPath>
<clipPath id="clip18_6697_16593">
<rect width="25.152" height="25.152" fill="white" transform="translate(187.471 169.127) rotate(32.4742)"/>
</clipPath>
<clipPath id="clip19_6697_16593">
<rect width="25.152" height="25.152" fill="white" transform="translate(220.076 156.416) rotate(-24.2837)"/>
</clipPath>
<clipPath id="clip20_6697_16593">
<rect x="340.201" y="90.3379" width="25.152" height="25.152" transform="rotate(-19.9845 340.201 90.3379)" fill="white"/>
</clipPath>
<clipPath id="clip21_6697_16593">
<rect width="25.152" height="25.152" fill="white" transform="translate(336.287 133.49) rotate(32.4742)"/>
</clipPath>
<clipPath id="clip22_6697_16593">
<rect width="25.152" height="25.152" fill="white" transform="translate(368.896 120.779) rotate(-24.2837)"/>
</clipPath>
<clipPath id="clip23_6697_16593">
<rect x="430.326" y="136.451" width="25.152" height="25.152" transform="rotate(-19.9845 430.326 136.451)" fill="white"/>
</clipPath>
<clipPath id="clip24_6697_16593">
<rect width="25.152" height="25.152" fill="white" transform="translate(459.021 166.893) rotate(-24.2837)"/>
</clipPath>
<clipPath id="clip25_6697_16593">
<rect x="465.963" y="35.8418" width="25.152" height="25.152" transform="rotate(-19.9845 465.963 35.8418)" fill="white"/>
</clipPath>
<clipPath id="clip26_6697_16593">
<rect width="25.152" height="25.152" fill="white" transform="translate(462.049 78.9941) rotate(32.4742)"/>
</clipPath>
<clipPath id="clip27_6697_16593">
<rect width="25.152" height="25.152" fill="white" transform="translate(494.654 66.2832) rotate(-24.2837)"/>
</clipPath>
<clipPath id="clip28_6697_16593">
<rect x="541.416" y="92.4355" width="25.152" height="25.152" transform="rotate(-19.9845 541.416 92.4355)" fill="white"/>
</clipPath>
<clipPath id="clip29_6697_16593">
<rect width="25.152" height="25.152" fill="white" transform="translate(537.502 135.588) rotate(32.4742)"/>
</clipPath>
<clipPath id="clip30_6697_16593">
<rect width="25.152" height="25.152" fill="white" transform="translate(570.107 122.877) rotate(-24.2837)"/>
</clipPath>
<clipPath id="clip31_6697_16593">
<rect x="709.1" y="86.1504" width="25.152" height="25.152" transform="rotate(-19.9845 709.1 86.1504)" fill="white"/>
</clipPath>
<clipPath id="clip32_6697_16593">
<rect width="25.152" height="25.152" fill="white" transform="translate(705.186 129.303) rotate(32.4742)"/>
</clipPath>
<clipPath id="clip33_6697_16593">
<rect width="25.152" height="25.152" fill="white" transform="translate(737.795 116.592) rotate(-24.2837)"/>
</clipPath>
<clipPath id="clip34_6697_16593">
<rect x="625.256" y="109.201" width="25.152" height="25.152" transform="rotate(-19.9845 625.256 109.201)" fill="white"/>
</clipPath>
<clipPath id="clip35_6697_16593">
<rect width="25.152" height="25.152" fill="white" transform="translate(621.342 152.354) rotate(32.4742)"/>
</clipPath>
<clipPath id="clip36_6697_16593">
<rect width="25.152" height="25.152" fill="white" transform="translate(653.951 139.643) rotate(-24.2837)"/>
</clipPath>
<clipPath id="clip37_6697_16593">
<rect x="321.334" y="-18.6543" width="25.152" height="25.152" transform="rotate(-19.9845 321.334 -18.6543)" fill="white"/>
</clipPath>
<clipPath id="clip38_6697_16593">
<rect width="25.152" height="25.152" fill="white" transform="translate(317.42 24.498) rotate(32.4742)"/>
</clipPath>
<clipPath id="clip39_6697_16593">
<rect width="25.152" height="25.152" fill="white" transform="translate(350.029 11.7871) rotate(-24.2837)"/>
</clipPath>
<clipPath id="clip40_6697_16593">
<rect x="539.318" y="8.5957" width="25.152" height="25.152" transform="rotate(-19.9845 539.318 8.5957)" fill="white"/>
</clipPath>
<clipPath id="clip41_6697_16593">
<rect width="25.152" height="25.152" fill="white" transform="translate(535.404 51.748) rotate(32.4742)"/>
</clipPath>
<clipPath id="clip42_6697_16593">
<rect width="25.152" height="25.152" fill="white" transform="translate(568.01 39.0371) rotate(-24.2837)"/>
</clipPath>
<clipPath id="clip43_6697_16593">
<rect x="706.998" y="-18.6543" width="25.152" height="25.152" transform="rotate(-19.9845 706.998 -18.6543)" fill="white"/>
</clipPath>
<clipPath id="clip44_6697_16593">
<rect width="25.152" height="25.152" fill="white" transform="translate(703.084 24.498) rotate(32.4742)"/>
</clipPath>
<clipPath id="clip45_6697_16593">
<rect width="25.152" height="25.152" fill="white" transform="translate(735.693 11.7871) rotate(-24.2837)"/>
</clipPath>
<clipPath id="clip46_6697_16593">
<rect x="271.033" y="52.6113" width="25.152" height="25.152" transform="rotate(-19.9845 271.033 52.6113)" fill="white"/>
</clipPath>
<clipPath id="clip47_6697_16593">
<rect width="25.152" height="25.152" fill="white" transform="translate(267.119 95.7637) rotate(32.4742)"/>
</clipPath>
<clipPath id="clip48_6697_16593">
<rect width="25.152" height="25.152" fill="white" transform="translate(299.725 83.0527) rotate(-24.2837)"/>
</clipPath>
<clipPath id="clip49_6697_16593">
<rect x="405.174" y="4.4043" width="25.152" height="25.152" transform="rotate(-19.9845 405.174 4.4043)" fill="white"/>
</clipPath>
<clipPath id="clip50_6697_16593">
<rect width="25.152" height="25.152" fill="white" transform="translate(401.26 47.5566) rotate(32.4742)"/>
</clipPath>
<clipPath id="clip51_6697_16593">
<rect width="25.152" height="25.152" fill="white" transform="translate(433.869 34.8457) rotate(-24.2837)"/>
</clipPath>
<clipPath id="clip52_6697_16593">
<rect x="623.158" y="31.6543" width="25.152" height="25.152" transform="rotate(-19.9845 623.158 31.6543)" fill="white"/>
</clipPath>
<clipPath id="clip53_6697_16593">
<rect width="25.152" height="25.152" fill="white" transform="translate(619.244 74.8066) rotate(32.4742)"/>
</clipPath>
<clipPath id="clip54_6697_16593">
<rect width="25.152" height="25.152" fill="white" transform="translate(651.85 62.0957) rotate(-24.2837)"/>
</clipPath>
<clipPath id="clip55_6697_16593">
<rect width="25.152" height="25.152" fill="white" transform="translate(786.924 47.5566) rotate(32.4742)"/>
</clipPath>
<clipPath id="clip56_6697_16593">
<rect width="25.152" height="25.152" fill="white" transform="translate(162.318 -26.4551) rotate(32.4742)"/>
</clipPath>
</defs>
</svg>
