<svg width="375" height="528" viewBox="0 0 375 528" fill="none" xmlns="http://www.w3.org/2000/svg">
<g clip-path="url(#clip0_4310_3416)">
<rect width="375" height="528" fill="#EEEEEE"/>
<g filter="url(#filter0_d_4310_3416)">
<path d="M434.811 25.6329C256.4 -39.2081 25.4435 186.15 -37.7996 150.802C-101.043 115.454 -20.5254 9.80639 14.8228 -53.4367C50.171 -116.68 94.6285 -146.356 157.872 -111.008C221.115 -75.6598 470.159 -37.6101 434.811 25.6329Z" fill="#BDB2CD"/>
<path d="M424.476 19.6715C246.065 -45.1695 15.1082 180.189 -48.1349 144.841C-111.378 109.492 -30.8607 3.84498 4.48751 -59.3981C39.8357 -122.641 84.2932 -152.318 147.536 -116.969C210.779 -81.6212 459.824 -43.5716 424.476 19.6715Z" fill="#493169"/>
</g>
<g filter="url(#filter1_d_4310_3416)">
<path d="M-100 323C101.667 421.409 454.572 231.486 524.522 280.904C594.471 330.322 446.19 379.61 388.957 460.621C339.54 530.571 283.587 559.928 213.638 510.51C143.688 461.093 -149.418 392.95 -100 323Z" fill="#FCE193"/>
<path d="M-138.526 346.678C63.1417 445.087 406.551 250.582 476.5 300C546.45 349.418 402.59 410.843 345.358 491.854C295.94 561.804 239.988 591.161 170.038 541.744C100.088 492.326 -187.943 416.628 -138.526 346.678Z" fill="#FFBD00"/>
</g>
<path d="M344.424 236.213C342.338 236.213 340.268 236.213 338.056 236.213C338.056 234.856 338.056 233.543 338.056 231.977C332.558 236.198 326.633 238.062 319.807 236.392C315.272 235.273 311.544 232.992 308.715 229.442C302.933 222.224 303.296 212.128 309.569 205.223C311.322 203.299 313.424 201.808 315.825 200.674C318.196 199.556 320.708 198.945 323.346 198.751C326.032 198.557 328.687 198.78 331.12 199.839C333.474 200.868 335.702 202.136 338.009 203.314C338.009 202.181 338.009 200.913 338.009 199.511C340.221 199.511 342.307 199.511 344.408 199.511C344.424 211.74 344.424 223.969 344.424 236.213ZM338.056 217.899C338.088 211.099 332.258 205.462 325.132 205.417C317.895 205.372 311.986 210.905 311.954 217.75C311.923 224.625 317.737 230.247 324.926 230.277C332.1 230.322 338.025 224.744 338.056 217.899Z" fill="#5E3F86"/>
<path d="M30 199.511C31.6432 199.511 33.2706 199.511 35.0087 199.511C35.0087 194.754 35.0087 190.086 35.0087 185.358C37.4735 185.358 39.8435 185.358 42.3083 185.358C42.3083 190.071 42.3083 194.739 42.3083 199.481C46.3374 199.481 50.2558 199.481 54.2375 199.481C54.2375 201.688 54.2375 203.821 54.2375 206.058C50.2716 206.058 46.369 206.058 42.3873 206.058C42.3557 206.386 42.3241 206.625 42.3241 206.878C42.3241 212.456 42.3083 218.033 42.3241 223.611C42.3241 225.714 43.1774 227.488 45.0576 228.622C45.974 229.173 47.1432 229.487 48.2334 229.576C50.0978 229.725 51.9939 229.636 53.8741 229.606C54.4429 229.591 54.6957 229.755 54.8379 230.292C55.3435 232.216 55.9281 234.14 56.4969 236.138C56.1809 236.168 55.9597 236.212 55.7543 236.212C52.5311 236.168 49.292 236.377 46.1004 236.019C39.6697 235.303 35.0561 230.173 35.0403 224.058C35.0245 218.451 35.0403 212.843 35.0403 207.236C35.0403 206.893 35.0403 206.535 35.0403 205.983C33.3338 205.983 31.659 205.983 30 205.983C30 203.821 30 201.673 30 199.511Z" fill="#5D3F86"/>
<path d="M101.306 167C102.049 167.254 102.823 167.447 103.518 167.775C107.61 169.684 108.59 174.785 105.398 177.872C103.787 179.438 102.033 180.84 100.216 182.42C98.5412 180.765 96.4397 179.05 94.8123 177.007C92.1579 173.681 94.0539 168.805 98.2884 167.418C98.6202 167.313 98.9362 167.149 99.268 167.015C99.9632 167 100.627 167 101.306 167Z" fill="#FBB946"/>
<path d="M157.018 226.489C158.803 217.646 160.557 208.981 162.263 200.302C162.39 199.675 162.579 199.467 163.275 199.481C165.408 199.526 167.556 199.496 169.832 199.496C167.383 211.785 164.965 223.954 162.532 236.198C160.067 236.198 157.666 236.228 155.248 236.168C154.932 236.153 154.521 235.706 154.316 235.363C150.508 229.069 146.732 222.761 142.956 216.453C142.75 216.125 142.545 215.797 142.26 215.334C142.008 215.722 141.802 216.035 141.613 216.333C137.789 222.687 133.949 229.04 130.157 235.422C129.794 236.034 129.399 236.243 128.672 236.228C126.46 236.183 124.248 236.213 121.957 236.213C119.524 223.984 117.091 211.815 114.657 199.571C117.122 199.571 119.508 199.571 122.036 199.571C123.822 208.444 125.607 217.348 127.456 226.489C127.74 226.072 127.914 225.833 128.072 225.595C131.295 220.226 134.534 214.857 137.726 209.473C138.105 208.832 138.516 208.608 139.29 208.623C141.233 208.683 143.177 208.683 145.136 208.623C146.005 208.593 146.432 208.907 146.842 209.593C150.081 215.066 153.368 220.509 156.654 225.953C156.718 226.087 156.812 226.206 157.018 226.489Z" fill="#5E3F86"/>
<path d="M209.506 203.687C209.506 202.196 209.506 200.928 209.506 199.586C211.955 199.586 214.341 199.586 216.806 199.586C216.806 211.77 216.806 223.939 216.806 236.168C214.388 236.168 212.018 236.168 209.569 236.168C209.569 234.841 209.569 233.528 209.569 231.992C203.802 236.347 197.593 238.166 190.483 236.228C186.043 235.02 182.44 232.663 179.754 229.099C174.05 221.553 174.698 211.516 181.382 204.701C185.063 200.958 189.708 199.019 195.096 198.736C200.516 198.452 205.145 200.391 209.506 203.687ZM183.214 217.81C183.199 224.67 189.045 230.337 196.25 230.262C203.628 230.188 209.474 224.938 209.522 217.929C209.569 210.845 203.707 205.536 196.329 205.432C189.092 205.342 183.23 210.965 183.214 217.81Z" fill="#5E4087"/>
<path d="M266.055 236.168C263.574 236.168 261.236 236.168 258.834 236.168C258.834 223.954 258.834 211.785 258.834 199.556C261.22 199.556 263.574 199.556 266.023 199.556C266.023 200.644 266.023 201.703 266.023 203.001C266.592 202.628 267.003 202.345 267.43 202.076C270.7 200.003 274.208 198.646 278.237 198.78C287.527 199.064 295.064 205.626 296.107 214.365C296.217 215.245 296.265 216.124 296.265 217.019C296.281 223.044 296.265 229.054 296.265 235.079C296.265 235.422 296.265 235.765 296.265 236.168C293.832 236.168 291.462 236.168 288.981 236.168C288.981 235.81 288.981 235.482 288.981 235.139C288.981 228.965 288.997 222.791 288.981 216.617C288.965 212.068 286.153 208.056 281.855 206.356C274.508 203.463 266.15 208.638 266.071 216.169C266.008 222.478 266.055 228.771 266.055 235.079C266.055 235.407 266.055 235.75 266.055 236.168Z" fill="#5D3F86"/>
<path d="M236.477 236.183C233.996 236.183 231.658 236.183 229.256 236.183C229.256 223.984 229.256 211.815 229.256 199.571C231.611 199.571 233.981 199.571 236.445 199.571C236.445 200.704 236.445 201.852 236.445 203.12C240.711 200.123 245.467 199.004 250.666 198.676C250.049 201.077 249.465 203.299 248.88 205.566C246.447 205.626 244.188 206.162 242.149 207.37C238.468 209.563 236.493 212.694 236.477 216.825C236.445 222.91 236.477 228.98 236.477 235.064C236.477 235.407 236.477 235.75 236.477 236.183Z" fill="#5D3E86"/>
<path d="M65.282 199.526C67.6994 199.526 70.0378 199.526 72.4869 199.526C72.4869 200.704 72.4869 201.852 72.4869 203.09C76.7529 200.093 81.493 198.989 86.6912 198.661C86.0908 200.928 85.5694 203.045 84.969 205.148C84.9058 205.357 84.3844 205.551 84.0684 205.581C79.7234 205.983 76.2789 207.788 74.0037 211.367C72.9767 213.008 72.5027 214.797 72.5027 216.721C72.5185 222.835 72.5027 228.95 72.5027 235.049C72.5027 235.392 72.5027 235.735 72.5027 236.138C70.0694 236.138 67.7152 236.138 65.282 236.138C65.282 223.969 65.282 211.8 65.282 199.526Z" fill="#5D3E86"/>
<path d="M103.976 236.168C101.543 236.168 99.1732 236.168 96.7558 236.168C96.7558 223.969 96.7558 211.815 96.7558 199.586C99.1416 199.586 101.527 199.586 103.976 199.586C103.976 211.785 103.976 223.954 103.976 236.168Z" fill="#5E3F86"/>
<path d="M102.807 185.746C104.672 183.837 106.268 181.884 108.195 180.303C110.312 178.573 113.836 178.722 116.079 180.288C118.592 182.033 119.587 184.792 118.655 187.506C117.754 190.146 115.163 191.905 112.193 191.95C110.202 191.98 108.527 191.324 107.152 189.982C105.651 188.49 104.135 187.029 102.807 185.746Z" fill="#FBB946"/>
<path d="M98.2407 185.597C96.2815 187.357 94.5435 189.072 92.6317 190.608C90.3722 192.412 87.0858 192.412 84.6684 190.817C82.1877 189.161 81.1449 186.343 82.0297 183.614C82.8671 181.004 85.5216 179.184 88.4604 179.14C90.3564 179.11 91.9365 179.736 93.2637 180.974C94.8911 182.465 96.5185 183.972 98.2407 185.597Z" fill="#FBB946"/>
</g>
<defs>
<filter id="filter0_d_4310_3416" x="-99.6432" y="-156.085" width="565.872" height="342.675" filterUnits="userSpaceOnUse" color-interpolation-filters="sRGB">
<feFlood flood-opacity="0" result="BackgroundImageFix"/>
<feColorMatrix in="SourceAlpha" type="matrix" values="0 0 0 0 0 0 0 0 0 0 0 0 0 0 0 0 0 0 127 0" result="hardAlpha"/>
<feOffset dy="4"/>
<feGaussianBlur stdDeviation="14"/>
<feComposite in2="hardAlpha" operator="out"/>
<feColorMatrix type="matrix" values="0 0 0 0 0 0 0 0 0 0 0 0 0 0 0 0 0 0 0.25 0"/>
<feBlend mode="normal" in2="BackgroundImageFix" result="effect1_dropShadow_4310_3416"/>
<feBlend mode="normal" in="SourceGraphic" in2="effect1_dropShadow_4310_3416" result="shape"/>
</filter>
<filter id="filter1_d_4310_3416" x="-205.194" y="248.54" width="748.089" height="349.792" filterUnits="userSpaceOnUse" color-interpolation-filters="sRGB">
<feFlood flood-opacity="0" result="BackgroundImageFix"/>
<feColorMatrix in="SourceAlpha" type="matrix" values="0 0 0 0 0 0 0 0 0 0 0 0 0 0 0 0 0 0 127 0" result="hardAlpha"/>
<feOffset dx="-33" dy="4"/>
<feGaussianBlur stdDeviation="14"/>
<feComposite in2="hardAlpha" operator="out"/>
<feColorMatrix type="matrix" values="0 0 0 0 0 0 0 0 0 0 0 0 0 0 0 0 0 0 0.25 0"/>
<feBlend mode="normal" in2="BackgroundImageFix" result="effect1_dropShadow_4310_3416"/>
<feBlend mode="normal" in="SourceGraphic" in2="effect1_dropShadow_4310_3416" result="shape"/>
</filter>
<clipPath id="clip0_4310_3416">
<rect width="375" height="528" fill="white"/>
</clipPath>
</defs>
</svg>
