<svg width="375" height="423" viewBox="0 0 375 423" fill="none" xmlns="http://www.w3.org/2000/svg">
<g clip-path="url(#clip0_4475_3487)">
<rect width="375" height="423" fill="#F3F3F3"/>
<g filter="url(#filter0_d_4475_3487)">
<path d="M426.022 100.023C279.518 -20.6895 -13.4501 114.576 -61.2529 60.1325C-109.056 5.68915 2.12691 -66.994 56.5703 -114.797C111.014 -162.599 162.831 -175.721 210.633 -121.277C258.436 -66.834 480.465 52.2203 426.022 100.023Z" fill="#BDB2CD"/>
<path d="M418.272 90.9518C271.768 -29.7608 -21.2004 105.505 -69.0031 51.0612C-116.806 -3.38214 -5.62333 -76.0653 48.82 -123.868C103.263 -171.671 155.08 -184.792 202.883 -130.349C250.686 -75.9053 472.715 43.149 418.272 90.9518Z" fill="#493169"/>
</g>
<g filter="url(#filter1_d_4475_3487)">
<path d="M-80.0003 165.668C121.667 264.077 474.572 74.1541 544.521 123.572C614.471 172.99 466.19 222.278 408.957 303.289C359.539 373.239 303.587 402.596 233.638 353.179C163.688 303.761 -129.418 235.618 -80.0003 165.668Z" fill="#FCE193"/>
<path d="M-118.526 189.346C83.1414 287.755 426.55 93.2503 496.5 142.668C566.449 192.086 422.59 253.511 365.357 334.522C315.939 404.472 259.987 433.83 190.038 384.412C120.088 334.994 -167.944 259.296 -118.526 189.346Z" fill="#FFBD00"/>
</g>
</g>
<path d="M348 116.019C347.005 116.019 346.018 116.019 344.962 116.019C344.962 115.372 344.962 114.746 344.962 113.999C342.339 116.012 339.513 116.901 336.256 116.104C334.093 115.571 332.314 114.482 330.965 112.789C328.206 109.346 328.379 104.529 331.372 101.235C332.209 100.317 333.211 99.6057 334.357 99.065C335.487 98.5314 336.686 98.2397 337.945 98.1473C339.226 98.0548 340.492 98.1615 341.653 98.6666C342.776 99.1575 343.839 99.7623 344.94 100.324C344.94 99.7836 344.94 99.1789 344.94 98.5101C345.995 98.5101 346.99 98.5101 347.992 98.5101C348 104.344 348 110.178 348 116.019ZM344.962 107.282C344.977 104.038 342.196 101.349 338.796 101.327C335.344 101.306 332.525 103.946 332.51 107.211C332.495 110.491 335.269 113.173 338.698 113.187C342.121 113.209 344.947 110.548 344.962 107.282Z" fill="#5E3F86"/>
<path d="M198 98.5098C198.784 98.5098 199.56 98.5098 200.389 98.5098C200.389 96.2402 200.389 94.0134 200.389 91.7581C201.565 91.7581 202.696 91.7581 203.872 91.7581C203.872 94.0063 203.872 96.2331 203.872 98.4956C205.794 98.4956 207.663 98.4956 209.563 98.4956C209.563 99.5485 209.563 100.566 209.563 101.633C207.671 101.633 205.809 101.633 203.91 101.633C203.894 101.79 203.879 101.903 203.879 102.024C203.879 104.685 203.872 107.346 203.879 110.007C203.879 111.01 204.286 111.857 205.183 112.397C205.621 112.661 206.178 112.81 206.698 112.853C207.588 112.924 208.492 112.881 209.389 112.867C209.661 112.86 209.781 112.938 209.849 113.194C210.09 114.112 210.369 115.03 210.641 115.983C210.49 115.997 210.384 116.019 210.286 116.019C208.749 115.997 207.204 116.097 205.681 115.926C202.613 115.585 200.412 113.137 200.405 110.22C200.397 107.545 200.405 104.87 200.405 102.195C200.405 102.031 200.405 101.861 200.405 101.598C199.59 101.598 198.791 101.598 198 101.598C198 100.566 198 99.5414 198 98.5098Z" fill="#5D3F86"/>
<path d="M232.018 83C232.372 83.1209 232.741 83.2134 233.073 83.37C235.025 84.2806 235.493 86.7138 233.97 88.1865C233.201 88.9336 232.364 89.6023 231.498 90.3565C230.699 89.5668 229.696 88.7486 228.92 87.7739C227.653 86.1873 228.558 83.8609 230.578 83.1992C230.736 83.1494 230.887 83.0711 231.045 83.0071C231.377 83 231.694 83 232.018 83Z" fill="#FBB946"/>
<path d="M258.595 111.38C259.447 107.161 260.284 103.027 261.098 98.8868C261.158 98.588 261.249 98.4884 261.58 98.4955C262.598 98.5168 263.623 98.5026 264.709 98.5026C263.54 104.365 262.387 110.17 261.226 116.012C260.05 116.012 258.905 116.026 257.751 115.997C257.601 115.99 257.405 115.777 257.307 115.613C255.49 112.611 253.688 109.601 251.887 106.592C251.789 106.435 251.691 106.279 251.555 106.058C251.435 106.243 251.337 106.393 251.246 106.535C249.422 109.566 247.59 112.597 245.781 115.642C245.608 115.933 245.42 116.033 245.073 116.026C244.018 116.004 242.962 116.019 241.869 116.019C240.709 110.185 239.548 104.379 238.387 98.5382C239.563 98.5382 240.701 98.5382 241.907 98.5382C242.759 102.771 243.611 107.019 244.492 111.38C244.628 111.181 244.711 111.067 244.786 110.953C246.324 108.392 247.869 105.831 249.392 103.262C249.573 102.956 249.769 102.85 250.138 102.857C251.065 102.885 251.992 102.885 252.927 102.857C253.342 102.842 253.545 102.992 253.741 103.319C255.286 105.93 256.854 108.527 258.422 111.124C258.452 111.188 258.498 111.245 258.595 111.38Z" fill="#5E3F86"/>
<path d="M283.636 100.502C283.636 99.7906 283.636 99.1858 283.636 98.5455C284.804 98.5455 285.942 98.5455 287.118 98.5455C287.118 104.358 287.118 110.164 287.118 115.998C285.965 115.998 284.834 115.998 283.666 115.998C283.666 115.364 283.666 114.738 283.666 114.005C280.915 116.083 277.952 116.951 274.56 116.026C272.442 115.45 270.724 114.326 269.442 112.625C266.721 109.025 267.03 104.237 270.219 100.986C271.975 99.2001 274.191 98.2752 276.761 98.14C279.347 98.0048 281.555 98.9297 283.636 100.502ZM271.093 107.24C271.085 110.512 273.874 113.216 277.312 113.18C280.832 113.145 283.621 110.64 283.643 107.296C283.666 103.917 280.869 101.384 277.349 101.334C273.897 101.292 271.101 103.974 271.093 107.24Z" fill="#5E4087"/>
<path d="M310.613 115.998C309.43 115.998 308.314 115.998 307.168 115.998C307.168 110.171 307.168 104.365 307.168 98.5313C308.307 98.5313 309.43 98.5313 310.598 98.5313C310.598 99.0507 310.598 99.5558 310.598 100.175C310.869 99.9969 311.065 99.8617 311.269 99.7337C312.829 98.7447 314.503 98.0973 316.425 98.1613C320.857 98.2965 324.452 101.427 324.95 105.596C325.003 106.016 325.025 106.436 325.025 106.862C325.033 109.737 325.025 112.604 325.025 115.478C325.025 115.642 325.025 115.805 325.025 115.998C323.864 115.998 322.734 115.998 321.55 115.998C321.55 115.827 321.55 115.67 321.55 115.507C321.55 112.561 321.558 109.616 321.55 106.67C321.543 104.5 320.201 102.587 318.151 101.776C314.646 100.395 310.658 102.864 310.621 106.457C310.591 109.466 310.613 112.469 310.613 115.478C310.613 115.635 310.613 115.798 310.613 115.998Z" fill="#5D3F86"/>
<path d="M296.502 116.005C295.319 116.005 294.203 116.005 293.058 116.005C293.058 110.185 293.058 104.38 293.058 98.5384C294.181 98.5384 295.311 98.5384 296.487 98.5384C296.487 99.0792 296.487 99.627 296.487 100.232C298.522 98.8017 300.791 98.2681 303.271 98.1116C302.977 99.257 302.698 100.317 302.419 101.399C301.259 101.427 300.181 101.683 299.208 102.259C297.452 103.305 296.51 104.799 296.502 106.77C296.487 109.673 296.502 112.568 296.502 115.471C296.502 115.635 296.502 115.798 296.502 116.005Z" fill="#5D3E86"/>
<path d="M214.832 98.5169C215.985 98.5169 217.101 98.5169 218.269 98.5169C218.269 99.0789 218.269 99.6268 218.269 100.217C220.304 98.7872 222.565 98.2608 225.045 98.1042C224.759 99.1857 224.51 100.196 224.224 101.199C224.194 101.299 223.945 101.391 223.794 101.405C221.721 101.598 220.078 102.458 218.993 104.166C218.503 104.948 218.277 105.802 218.277 106.72C218.284 109.637 218.277 112.554 218.277 115.464C218.277 115.627 218.277 115.791 218.277 115.983C217.116 115.983 215.993 115.983 214.832 115.983C214.832 110.178 214.832 104.372 214.832 98.5169Z" fill="#5D3E86"/>
<path d="M233.291 115.998C232.131 115.998 231 115.998 229.847 115.998C229.847 110.178 229.847 104.38 229.847 98.5457C230.985 98.5457 232.123 98.5457 233.291 98.5457C233.291 104.365 233.291 110.171 233.291 115.998Z" fill="#5E3F86"/>
<path d="M232.734 91.9429C233.623 91.0323 234.384 90.1003 235.304 89.3461C236.314 88.5208 237.995 88.592 239.065 89.339C240.264 90.1714 240.739 91.4876 240.294 92.7824C239.864 94.0417 238.628 94.8812 237.211 94.9026C236.261 94.9168 235.462 94.6038 234.807 93.9635C234.09 93.252 233.367 92.5548 232.734 91.9429Z" fill="#FBB946"/>
<path d="M230.555 91.8719C229.62 92.7114 228.791 93.5296 227.879 94.2624C226.801 95.1232 225.233 95.1232 224.08 94.362C222.897 93.5722 222.399 92.2276 222.821 90.9256C223.221 89.6806 224.487 88.8126 225.889 88.7913C226.794 88.777 227.547 89.0758 228.181 89.6663C228.957 90.3778 229.733 91.0964 230.555 91.8719Z" fill="#FBB946"/>
<defs>
<filter id="filter0_d_4475_3487" x="-108.658" y="-189.799" width="571.213" height="321.822" filterUnits="userSpaceOnUse" color-interpolation-filters="sRGB">
<feFlood flood-opacity="0" result="BackgroundImageFix"/>
<feColorMatrix in="SourceAlpha" type="matrix" values="0 0 0 0 0 0 0 0 0 0 0 0 0 0 0 0 0 0 127 0" result="hardAlpha"/>
<feOffset dy="4"/>
<feGaussianBlur stdDeviation="14"/>
<feComposite in2="hardAlpha" operator="out"/>
<feColorMatrix type="matrix" values="0 0 0 0 0 0 0 0 0 0 0 0 0 0 0 0 0 0 0.25 0"/>
<feBlend mode="normal" in2="BackgroundImageFix" result="effect1_dropShadow_4475_3487"/>
<feBlend mode="normal" in="SourceGraphic" in2="effect1_dropShadow_4475_3487" result="shape"/>
</filter>
<filter id="filter1_d_4475_3487" x="-185.194" y="91.2085" width="748.089" height="349.792" filterUnits="userSpaceOnUse" color-interpolation-filters="sRGB">
<feFlood flood-opacity="0" result="BackgroundImageFix"/>
<feColorMatrix in="SourceAlpha" type="matrix" values="0 0 0 0 0 0 0 0 0 0 0 0 0 0 0 0 0 0 127 0" result="hardAlpha"/>
<feOffset dx="-33" dy="4"/>
<feGaussianBlur stdDeviation="14"/>
<feComposite in2="hardAlpha" operator="out"/>
<feColorMatrix type="matrix" values="0 0 0 0 0 0 0 0 0 0 0 0 0 0 0 0 0 0 0.25 0"/>
<feBlend mode="normal" in2="BackgroundImageFix" result="effect1_dropShadow_4475_3487"/>
<feBlend mode="normal" in="SourceGraphic" in2="effect1_dropShadow_4475_3487" result="shape"/>
</filter>
<clipPath id="clip0_4475_3487">
<rect width="375" height="423" fill="white"/>
</clipPath>
</defs>
</svg>
