<svg width="95" height="96" viewBox="0 0 95 96" fill="none" xmlns="http://www.w3.org/2000/svg">
<rect x="7.5" y="8" width="80" height="80" rx="40" fill="#FFF1DA"/>
<rect x="7.5" y="8" width="80" height="80" rx="40" stroke="#FFFAF1" stroke-width="14.2857"/>
<path d="M60.0568 58.6937C60.2922 58.4477 60.5755 58.3267 60.9106 58.3267C61.2458 58.3267 61.529 58.4477 61.7643 58.6937C61.9998 58.9397 62.1155 59.2316 62.1155 59.5736C62.1155 59.9157 61.9998 60.2076 61.7643 60.4536C61.529 60.6956 61.2458 60.8206 60.9106 60.8206C60.5755 60.8206 60.2922 60.6956 60.0568 60.4536L59.231 59.5569L60.0568 58.6937ZM58.0301 58.1182C57.7948 57.8721 57.679 57.5801 57.679 57.2382C57.679 56.8962 57.7948 56.6042 58.0301 56.3582C58.2655 56.1163 58.5448 55.9912 58.8719 55.9912C59.199 55.9912 59.4784 56.1163 59.7137 56.3582C59.9452 56.6042 60.0648 56.8962 60.0648 57.2382C60.0648 57.5801 59.9452 57.8721 59.7137 58.1182L58.8839 59.0106L58.0301 58.1182ZM57.6192 60.4536C57.3838 60.6956 57.1046 60.8206 56.7774 60.8206C56.4543 60.8206 56.171 60.6956 55.9356 60.4536C55.7043 60.2076 55.5845 59.9157 55.5845 59.5736C55.5845 59.2316 55.7043 58.9397 55.9356 58.6937C56.171 58.4477 56.4543 58.3267 56.7774 58.3267C57.1046 58.3267 57.3838 58.4477 57.6192 58.6937L58.473 59.5862L57.6192 60.4536Z" fill="#FCB945"/>
<path d="M64.147 41.306L64.162 34.1475L33.1566 34.0879L33.1416 41.2465L32.6071 41.2455L32.5671 60.2974C32.5643 61.6319 33.7007 62.7232 35.0958 62.7259L62.1025 62.7777C63.4978 62.7804 64.6385 61.6934 64.6413 60.359L64.6815 41.307L64.147 41.306ZM62.8105 41.3034L60.0488 37.7648L62.7753 35.1675L63.0906 35.1681L63.0778 41.304L62.8105 41.3034ZM38.4874 41.2567L38.4949 37.6775C38.4949 37.6673 38.4895 37.6519 38.4895 37.6417C38.4896 37.611 38.479 37.5804 38.4684 37.5446C38.463 37.5242 38.4631 37.4987 38.4525 37.4781C38.4471 37.4679 38.4365 37.4577 38.4313 37.4473C38.4152 37.4165 38.3992 37.3961 38.378 37.3705C38.3619 37.3501 38.3567 37.3295 38.3353 37.314L36.0467 35.1162L61.2625 35.1646L58.9647 37.3536C58.9486 37.369 58.9379 37.3945 58.9218 37.4099C58.9004 37.4354 58.8789 37.4609 58.8682 37.4865C58.8627 37.4967 58.8521 37.5068 58.8468 37.5172C58.8361 37.5376 58.8361 37.5581 58.8306 37.5837C58.8199 37.6144 58.8144 37.645 58.8091 37.6807C58.8143 37.6909 58.8088 37.7063 58.8088 37.7165L58.8013 41.2957L38.4874 41.2567ZM35.8145 41.2516L37.4225 39.2094L37.4182 41.2547L35.8145 41.2516ZM59.8746 39.2525L61.4741 41.3009L59.8704 41.2978L59.8746 39.2525ZM34.2236 35.1126L34.539 35.1132L37.2544 37.721L34.478 41.2491L34.2107 41.2485L34.2236 35.1126ZM63.5724 60.3569C63.5708 61.1291 62.9119 61.7566 62.1048 61.7551L35.0981 61.7032C34.291 61.7017 33.6348 61.0714 33.6364 60.2995L33.6743 42.2702L63.6105 42.3276L63.5724 60.3569Z" fill="url(#paint0_linear_6529_28508)"/>
<mask id="path-4-inside-1_6529_28508" fill="white">
<path d="M55.0504 45.3792C54.7564 45.3786 54.5153 45.6082 54.5148 45.8895L54.5083 48.9574C54.5018 52.0611 51.861 54.5769 48.6162 54.5707C45.3714 54.5645 42.7412 52.0385 42.7477 48.9348L42.7541 45.8669C42.7547 45.5857 42.5146 45.3551 42.2206 45.3545C41.9266 45.354 41.6856 45.5836 41.685 45.8648L41.6785 48.9328C41.6708 52.5989 44.7812 55.586 48.614 55.5934C52.4469 55.6007 55.5698 52.6256 55.5775 48.9595L55.5839 45.8915C55.5845 45.6103 55.3444 45.3797 55.0504 45.3792Z"/>
</mask>
<path d="M55.0504 45.3792C54.7564 45.3786 54.5153 45.6082 54.5148 45.8895L54.5083 48.9574C54.5018 52.0611 51.861 54.5769 48.6162 54.5707C45.3714 54.5645 42.7412 52.0385 42.7477 48.9348L42.7541 45.8669C42.7547 45.5857 42.5146 45.3551 42.2206 45.3545C41.9266 45.354 41.6856 45.5836 41.685 45.8648L41.6785 48.9328C41.6708 52.5989 44.7812 55.586 48.614 55.5934C52.4469 55.6007 55.5698 52.6256 55.5775 48.9595L55.5839 45.8915C55.5845 45.6103 55.3444 45.3797 55.0504 45.3792Z" fill="url(#paint1_linear_6529_28508)"/>
<path d="M55.0564 42.522C53.3055 42.5187 51.6618 43.9064 51.6576 45.884L57.3719 45.895C57.3689 47.3101 56.2073 48.2385 55.0444 48.2363L55.0564 42.522ZM51.6576 45.884L51.6512 48.9519L57.3655 48.9629L57.3719 45.895L51.6576 45.884ZM51.6512 48.9519C51.6482 50.3593 50.4101 51.717 48.6222 51.7136L48.6102 57.4278C53.3119 57.4369 57.3554 53.7629 57.3655 48.9629L51.6512 48.9519ZM48.6222 51.7136C46.8343 51.7101 45.6019 50.3477 45.6048 48.9403L39.8905 48.9294C39.8805 53.7294 43.9085 57.4188 48.6102 57.4278L48.6222 51.7136ZM45.6048 48.9403L45.6112 45.8724L39.897 45.8614L39.8905 48.9294L45.6048 48.9403ZM45.6112 45.8724C45.6154 43.8948 43.9775 42.5008 42.2266 42.4974L42.2146 48.2117C41.0517 48.2094 39.894 47.2765 39.897 45.8614L45.6112 45.8724ZM42.2266 42.4974C40.4757 42.494 38.832 43.8818 38.8278 45.8594L44.5421 45.8703C44.5391 47.2855 43.3775 48.2139 42.2146 48.2117L42.2266 42.4974ZM38.8278 45.8594L38.8214 48.9273L44.5357 48.9383L44.5421 45.8703L38.8278 45.8594ZM38.8214 48.9273C38.8101 54.2898 43.3183 58.4403 48.6081 58.4505L48.62 52.7362C46.2441 52.7317 44.5315 50.9081 44.5357 48.9383L38.8214 48.9273ZM48.6081 58.4505C53.8978 58.4606 58.4234 54.3275 58.4346 48.965L52.7203 48.954C52.7162 50.9238 50.996 52.7408 48.62 52.7362L48.6081 58.4505ZM58.4346 48.965L58.441 45.897L52.7268 45.886L52.7203 48.954L58.4346 48.965ZM58.441 45.897C58.4452 43.9194 56.8073 42.5254 55.0564 42.522L55.0444 48.2363C53.8815 48.2341 52.7238 47.3012 52.7268 45.886L58.441 45.897Z" fill="url(#paint2_linear_6529_28508)" mask="url(#path-4-inside-1_6529_28508)"/>
<path d="M43.2891 45.8679C43.2885 46.1491 43.5286 46.3796 43.8226 46.3802C44.1166 46.3808 44.3577 46.1511 44.3582 45.8699C44.3606 44.7398 43.4058 43.8228 42.2242 43.8205C41.0427 43.8182 40.084 44.7316 40.0816 45.8617C40.0811 46.1429 40.3211 46.3735 40.6151 46.3741C40.9092 46.3746 41.1502 46.145 41.1508 45.8638C41.152 45.3013 41.6341 44.842 42.2221 44.8432C42.8101 44.8443 43.2903 45.3054 43.2891 45.8679Z" fill="url(#paint3_linear_6529_28508)"/>
<path d="M55.0538 43.8449C53.8723 43.8427 52.9136 44.756 52.9112 45.8861C52.9106 46.1673 53.1507 46.3979 53.4447 46.3985C53.7388 46.399 53.9798 46.1694 53.9804 45.8882C53.9816 45.3257 54.4636 44.8664 55.0517 44.8676C55.6397 44.8687 56.1199 45.3298 56.1187 45.8923C56.1181 46.1735 56.3582 46.4041 56.6522 46.4046C56.9462 46.4052 57.1872 46.1756 57.1878 45.8943C57.1902 44.7642 56.2353 43.8472 55.0538 43.8449Z" fill="url(#paint4_linear_6529_28508)"/>
<defs>
<linearGradient id="paint0_linear_6529_28508" x1="18.0195" y1="27.5031" x2="39.6076" y2="45.2912" gradientUnits="userSpaceOnUse">
<stop offset="0.137842" stop-color="#7858A1"/>
<stop offset="1" stop-color="#FFBD00"/>
</linearGradient>
<linearGradient id="paint1_linear_6529_28508" x1="35.3572" y1="43" x2="43.2158" y2="50.8557" gradientUnits="userSpaceOnUse">
<stop offset="0.137842" stop-color="#7858A1"/>
<stop offset="1" stop-color="#FFBD00"/>
</linearGradient>
<linearGradient id="paint2_linear_6529_28508" x1="48.6355" y1="45.3669" x2="48.6159" y2="55.5934" gradientUnits="userSpaceOnUse">
<stop stop-color="#7858A1"/>
<stop offset="1" stop-color="#131313" stop-opacity="0.5"/>
</linearGradient>
<linearGradient id="paint3_linear_6529_28508" x1="42.2242" y1="43.8205" x2="42.2193" y2="46.3771" gradientUnits="userSpaceOnUse">
<stop stop-color="#7858A1"/>
<stop offset="1" stop-color="#131313" stop-opacity="0.5"/>
</linearGradient>
<linearGradient id="paint4_linear_6529_28508" x1="55.0538" y1="43.8449" x2="55.0489" y2="46.4015" gradientUnits="userSpaceOnUse">
<stop stop-color="#7858A1"/>
<stop offset="1" stop-color="#131313" stop-opacity="0.5"/>
</linearGradient>
</defs>
</svg>
