<svg width="113" height="112" viewBox="0 0 113 112" fill="none" xmlns="http://www.w3.org/2000/svg">
<rect x="9" y="8.5" width="95" height="95" rx="47.5" fill="#F2F4F7"/>
<rect x="9" y="8.5" width="95" height="95" rx="47.5" stroke="#F9FAFB" stroke-width="16.9643"/>
<g clip-path="url(#clip0_7038_17007)">
<path d="M41.0024 65.0926L39.5536 68.5258C38.7515 70.4267 36.5601 71.3175 34.6593 70.5153L32.7227 69.698L34.1714 66.2648C34.9736 64.3639 37.165 63.4732 39.0658 64.2753L41.0024 65.0926Z" fill="#F9DE8F"/>
<path d="M42.451 61.6609L41.0022 65.094L39.0656 64.2768C37.1647 63.4746 36.274 61.2832 37.0761 59.3824L38.5249 55.9492L40.4615 56.7665C42.3625 57.5685 43.2532 59.7599 42.451 61.6609Z" fill="#F9DE8F"/>
<path d="M43.9745 69.0654L39.822 78.906L37.3612 77.8677C36.5421 77.5221 36.1584 76.5778 36.504 75.7586L45.5021 54.4355C45.8477 53.6163 46.792 53.2326 47.6112 53.5782L50.072 54.6166L45.9037 64.4943L43.9745 69.0654Z" fill="#FCE193"/>
<path d="M47.6122 53.5781C47.0525 53.3419 46.4347 53.4467 45.9889 53.7978C47.0485 54.3551 47.5234 55.6396 47.0493 56.7627L43.7868 64.4942L41.8579 69.0653L38.0254 78.1473L39.455 78.7507L39.823 78.9059L43.9756 69.0653L44.533 67.7443L45.9045 64.4943L50.0727 54.6166L47.6122 53.5781Z" fill="#FFBD00"/>
<path d="M58.833 30.1994L60.6687 30.8722C60.7088 30.8869 60.7535 30.8808 60.7884 30.8561L62.3833 29.7254C62.4712 29.663 62.5922 29.7287 62.5882 29.8362L62.5156 31.7899C62.514 31.8326 62.5336 31.8734 62.5679 31.899L64.1361 33.0663C64.2225 33.1306 64.1977 33.2659 64.0941 33.2954L62.2136 33.8301C62.1725 33.8418 62.1398 33.873 62.1262 33.9135L61.5005 35.7657C61.4661 35.8677 61.3297 35.8859 61.2697 35.7966L60.1801 34.1734C60.1562 34.1379 60.1165 34.1165 60.0737 34.1159L58.1188 34.0932C58.0112 34.092 57.9517 33.9679 58.0181 33.8831L59.2253 32.3452C59.2517 32.3115 59.2599 32.267 59.2471 32.2263L58.6645 30.3601C58.6322 30.2573 58.7319 30.1624 58.833 30.1994Z" fill="#F9DE8F"/>
<path d="M53.0312 40.6913C54.2069 40.6913 55.1601 39.7382 55.1601 38.5624C55.1601 37.3867 54.2069 36.4336 53.0312 36.4336C51.8555 36.4336 50.9023 37.3867 50.9023 38.5624C50.9023 39.7382 51.8555 40.6913 53.0312 40.6913Z" fill="#FFBD00"/>
<path d="M66.1757 43.1737C67.3515 43.1737 68.3046 42.2206 68.3046 41.0449C68.3046 39.8691 67.3515 38.916 66.1757 38.916C65 38.916 64.0469 39.8691 64.0469 41.0449C64.0469 42.2206 65 43.1737 66.1757 43.1737Z" fill="#FFBD00"/>
<path d="M63.5672 58.2363H73.4399V77.2095C73.4399 78.1458 72.6809 78.9049 71.7445 78.9049H50.4689C49.5326 78.9049 48.7734 78.1459 48.7734 77.2095V58.2363H58.6058" fill="#DAD5E1"/>
<path d="M70.4884 58.2363V77.2095C70.4884 78.1458 69.7294 78.9049 68.793 78.9049H71.7428C72.6791 78.9049 73.4382 78.1459 73.4382 77.2095V58.2363H70.4884Z" fill="#493169"/>
<path d="M63.5636 58.2363H58.6426V78.9044H63.5636V58.2363Z" fill="#F9DE8F"/>
<path d="M73.466 57.4084H49.8306L50.8686 54.9484C50.9548 54.7442 50.9563 54.514 50.8729 54.3087C50.7894 54.1032 50.6277 53.9394 50.4235 53.8532L46.4796 52.189C46.0544 52.0097 45.5639 52.2087 45.3844 52.6342L43.0826 58.0889C42.5923 57.153 41.8001 56.4222 40.8141 56.0061L38.8775 55.1889C38.4522 55.0096 37.9618 55.2086 37.7823 55.6341L36.3335 59.0673C35.8587 60.1924 35.8505 61.435 36.3104 62.5664C36.4102 62.8116 36.5303 63.0444 36.6671 63.2648C35.2653 63.5726 34.0279 64.5314 33.4287 65.9511L31.9798 69.3843C31.8936 69.5886 31.8921 69.8187 31.9755 70.0241C32.059 70.2295 32.2207 70.3933 32.4249 70.4795L34.3615 71.2968C34.9336 71.5382 35.5359 71.6589 36.1386 71.6589C36.5748 71.6589 37.0112 71.5956 37.4363 71.469L35.1345 76.9236C34.9551 77.349 35.1544 77.8394 35.5797 78.0188L39.5236 79.6832C39.9435 79.8602 40.4416 79.6578 40.6188 79.238L47.9635 61.833V77.2174C47.9635 78.6131 49.099 79.7488 50.495 79.7488H71.7705C73.1662 79.7488 74.3019 78.6133 74.3019 77.2174V58.2443C74.302 57.7825 73.9277 57.4084 73.466 57.4084ZM37.8739 59.7173L38.9977 57.0542L40.1641 57.5464C40.8778 57.8475 41.4315 58.4085 41.7231 59.1262C42.0147 59.8438 42.0095 60.632 41.7083 61.3456L40.5846 64.0087L39.4181 63.5164C38.7044 63.2153 38.1508 62.6544 37.8591 61.9367C37.5675 61.2191 37.5727 60.4309 37.8739 59.7173ZM37.231 69.7711C36.5135 70.0628 35.7252 70.0577 35.0116 69.7563L33.8452 69.2641L34.9689 66.601C35.5905 65.1277 37.2947 64.4349 38.768 65.0567L39.9344 65.549L39.1654 67.3715L38.8106 68.2122C38.5096 68.9259 37.9486 69.4795 37.231 69.7711ZM39.4035 77.8176L37.0001 76.8033L40.3511 68.8624V68.8624L40.8182 67.7552L46.5997 54.0543L49.0031 55.0685L39.4035 77.8176ZM59.5081 78.0768V62.9945C59.5081 62.5327 59.134 62.1585 58.6722 62.1585C58.2104 62.1585 57.8362 62.5327 57.8362 62.9945V78.0769H50.495C50.0211 78.0769 49.6354 77.6913 49.6354 77.2174V59.0803H58.6318C58.6386 59.0803 58.6452 59.0794 58.652 59.0793C58.6588 59.0794 58.6654 59.0803 58.6722 59.0803H62.7572V78.0769L59.5081 78.0768ZM72.6301 77.2174C72.6301 77.6913 72.2445 78.0769 71.7705 78.0769H64.4292V59.0803H72.6301V77.2174Z" fill="black"/>
<path d="M58.1003 34.9217L59.6839 34.9401L60.5667 36.2551C61.0048 36.9076 62.0317 36.7711 62.2837 36.0257L62.7906 34.5253L64.3145 34.0919C64.6708 33.9903 64.9335 33.7009 64.9999 33.3366C65.0666 32.9723 64.9232 32.6089 64.6265 32.3884L63.3561 31.4427L63.4149 29.8595C63.4284 29.4895 63.2345 29.1503 62.9087 28.9745C62.5831 28.7987 62.1933 28.8222 61.891 29.0363L60.5991 29.9524L59.1119 29.4074C58.7643 29.2799 58.3819 29.3593 58.1136 29.6146C57.8452 29.8701 57.7471 30.2486 57.8576 30.602L58.3294 32.1138L57.3518 33.3596C57.1231 33.6508 57.0802 34.0392 57.2403 34.3731C57.4001 34.7069 57.7296 34.9172 58.1003 34.9217ZM59.8735 32.8546C60.0702 32.6045 60.131 32.2738 60.0362 31.9699L59.8801 31.4693L60.3708 31.6492C60.6699 31.7595 61.0036 31.7152 61.2632 31.5308L61.691 31.2274L61.6716 31.7504C61.6595 32.0688 61.8048 32.3724 62.06 32.5618L62.4806 32.8751L61.9771 33.0182C61.6703 33.1051 61.4265 33.3374 61.3252 33.6384L61.1573 34.1353L60.8649 33.6996C60.6874 33.4353 60.3915 33.2755 60.0743 33.2725L59.5499 33.2663L59.8735 32.8546Z" fill="black"/>
<path d="M60.5562 55.599C60.5826 55.6014 60.609 55.6027 60.6351 55.6027C61.0615 55.6027 61.4259 55.2777 61.4665 54.8445C61.7203 52.1336 61.7365 49.384 61.5142 46.672C61.3134 44.222 60.9149 41.7676 60.3298 39.3777C60.22 38.9293 59.7676 38.6547 59.3191 38.7644C58.8707 38.8742 58.5961 39.3268 58.7058 39.7751C59.2701 42.0798 59.6544 44.4462 59.848 46.8085C60.0622 49.4233 60.0467 52.0746 59.8018 54.6887C59.7588 55.1484 60.0966 55.5558 60.5562 55.599Z" fill="black"/>
<path d="M48.8083 44.8691C50.2863 45.2595 53.0757 46.3321 55.1517 49.129C56.7174 51.2379 57.2105 53.4304 57.3485 54.8984C57.3891 55.3314 57.7534 55.6563 58.1798 55.6563C58.2059 55.6563 58.2324 55.655 58.259 55.6525C58.7186 55.6093 59.0562 55.2016 59.013 54.742C58.8551 53.0619 58.29 50.5513 56.4942 48.1324C54.1142 44.9263 50.9246 43.699 49.2351 43.2527C48.7887 43.1343 48.3314 43.401 48.2135 43.8474C48.0955 44.2937 48.3619 44.7513 48.8083 44.8691Z" fill="black"/>
<path d="M62.3146 54.6203C62.2598 55.0786 62.587 55.4947 63.0456 55.5496C63.0793 55.5536 63.1127 55.5557 63.1458 55.5557C63.563 55.5557 63.9239 55.2435 63.9748 54.8188C64.1264 53.549 64.6933 51.1085 66.7855 49.0321C69.201 46.6346 72.1287 46.2614 73.2753 46.2123C73.7367 46.1925 74.0946 45.8026 74.0747 45.3414C74.0548 44.88 73.6663 44.5195 73.2038 44.542C71.8628 44.5996 68.438 45.0365 65.6079 47.8456C63.1561 50.2785 62.4921 53.1345 62.3146 54.6203Z" fill="black"/>
<path d="M52.9534 41.5206C52.9783 41.5213 53.0028 41.5215 53.0276 41.5215C53.7918 41.5215 54.5149 41.2327 55.0703 40.7036C55.6437 40.1574 55.97 39.4207 55.9893 38.6291C56.0086 37.8375 55.7183 37.0856 55.1723 36.5124C54.045 35.3288 52.1649 35.2826 50.981 36.4103C49.7974 37.5376 49.7516 39.4178 50.8789 40.6016C51.4249 41.1749 52.1617 41.5013 52.9534 41.5206ZM52.134 37.6208C52.3838 37.3829 52.7047 37.265 53.0252 37.265C53.3668 37.265 53.7078 37.3992 53.9615 37.6655C54.4531 38.1816 54.4331 39.0014 53.9171 39.493C53.401 39.9847 52.5811 39.9644 52.0896 39.4486C51.5979 38.9322 51.6179 38.1124 52.134 37.6208Z" fill="black"/>
<path d="M63.2021 40.9634C63.1828 41.7551 63.4729 42.5069 64.019 43.0802C64.6008 43.691 65.3829 43.9987 66.1665 43.9987C66.9015 43.9987 67.6375 43.7278 68.2105 43.1822C69.3942 42.0549 69.4399 40.1747 68.3125 38.9909C67.1852 37.8072 65.3051 37.7613 64.1212 38.8888C63.5479 39.4349 63.2214 40.1718 63.2021 40.9634ZM65.2744 40.0995C65.5242 39.8616 65.845 39.7437 66.1655 39.7437C66.5071 39.7437 66.8482 39.8779 67.1018 40.1443C67.5934 40.6603 67.5733 41.4801 67.0572 41.9717C66.5412 42.4633 65.7215 42.4433 65.2297 41.9273C64.7381 41.411 64.7581 40.5912 65.2744 40.0995Z" fill="black"/>
</g>
<defs>
<clipPath id="clip0_7038_17007">
<rect width="50.8929" height="50.8929" fill="white" transform="translate(27.6602 28.8574)"/>
</clipPath>
</defs>
</svg>
