<svg width="95" height="96" viewBox="0 0 95 96" fill="none" xmlns="http://www.w3.org/2000/svg">
<rect x="7.5" y="8" width="80" height="80" rx="40" fill="#FFF5D7"/>
<rect x="7.5" y="8" width="80" height="80" rx="40" stroke="#FFFBEE" stroke-width="14.2857"/>
<path d="M35.3736 38.7621L35.7144 39.1041L36.0554 38.7622L37.7597 37.0527H68.0071C68.2478 37.0527 68.4474 37.2498 68.4474 37.4968V59.7148C68.4474 59.9612 68.2483 60.1582 68.0071 60.1582H37.7596L36.0553 58.4499L35.7144 58.1083L35.3737 58.45L33.6699 60.1582H25.5661C25.323 60.1582 25.1244 59.9609 25.1244 59.7148V37.4968C25.1244 37.2503 25.3235 37.0527 25.5661 37.0527H33.6698L35.3736 38.7621ZM34.3107 54.1603C34.3107 54.9362 34.938 55.5665 35.7145 55.5665C36.4914 55.5665 37.1189 54.9364 37.1189 54.1603C37.1189 53.3841 36.4914 52.7541 35.7145 52.7541C34.938 52.7541 34.3107 53.3843 34.3107 54.1603ZM34.3107 50.4582C34.3107 51.2324 34.9375 51.8644 35.7145 51.8644C36.4918 51.8644 37.1189 51.2326 37.1189 50.4582C37.1189 49.6824 36.4925 49.05 35.7145 49.05C34.9368 49.05 34.3107 49.6828 34.3107 50.4582ZM34.3107 46.7541C34.3107 47.5292 34.9371 48.1616 35.7145 48.1616C36.4923 48.1616 37.1189 47.5295 37.1189 46.7541C37.1189 45.9783 36.4918 45.3472 35.7145 45.3472C34.9375 45.3472 34.3107 45.9786 34.3107 46.7541ZM34.3107 43.0512C34.3107 43.8268 34.9375 44.4581 35.7145 44.4581C36.4918 44.4581 37.1189 43.827 37.1189 43.0512C37.1189 42.2754 36.4918 41.6443 35.7145 41.6443C34.9375 41.6443 34.3107 42.2756 34.3107 43.0512Z" fill="#FCE193" stroke="#FFBD00" stroke-width="0.962733"/>
<path d="M25.3952 37.4968C25.3952 37.3992 25.4737 37.3234 25.5661 37.3234H33.5574L34.9623 38.7331V41.5518C34.4145 41.8282 34.0399 42.3969 34.0399 43.0513C34.0399 43.7057 34.4145 44.2745 34.9623 44.5508V45.2546C34.4145 45.531 34.0399 46.0998 34.0399 46.7541C34.0399 47.4081 34.4143 47.9774 34.9623 48.2541V48.9575C34.4141 49.2343 34.0399 49.804 34.0399 50.4582C34.0399 51.1116 34.4145 51.6804 34.9623 51.9569V52.6614C34.4147 52.9374 34.0399 53.5056 34.0399 54.1603C34.0399 54.815 34.4147 55.3831 34.9623 55.6592V58.4789L33.5575 59.8875H25.5661C25.473 59.8875 25.3952 59.8117 25.3952 59.7148V37.4968Z" fill="#FCE193" stroke="#FFBD00" stroke-width="1.50432"/>
<path d="M65.8093 50.3742C65.6355 50.3742 65.4631 50.3742 65.2788 50.3742C65.2788 50.2526 65.2788 50.1349 65.2788 49.9946C64.8207 50.3729 64.327 50.54 63.7583 50.3902C63.3805 50.29 63.0699 50.0855 62.8343 49.7673C62.3525 49.1204 62.3827 48.2154 62.9053 47.5965C63.0515 47.4241 63.2265 47.2904 63.4266 47.1888C63.6241 47.0886 63.8334 47.0338 64.0532 47.0164C64.277 46.999 64.4981 47.0191 64.7009 47.114C64.897 47.2062 65.0826 47.3198 65.2748 47.4254C65.2748 47.3238 65.2748 47.2102 65.2748 47.0846C65.4591 47.0846 65.6329 47.0846 65.8079 47.0846C65.8093 48.1807 65.8093 49.2768 65.8093 50.3742ZM65.2788 48.7327C65.2814 48.1232 64.7956 47.6179 64.202 47.6139C63.5991 47.6099 63.1067 48.1058 63.1041 48.7194C63.1015 49.3356 63.5859 49.8395 64.1849 49.8422C64.7825 49.8462 65.2761 49.3463 65.2788 48.7327Z" fill="#8D8D8D"/>
<path d="M39.6128 47.084C39.7497 47.084 39.8853 47.084 40.0301 47.084C40.0301 46.6576 40.0301 46.2392 40.0301 45.8154C40.2354 45.8154 40.4329 45.8154 40.6382 45.8154C40.6382 46.2378 40.6382 46.6562 40.6382 47.0813C40.9739 47.0813 41.3004 47.0813 41.6321 47.0813C41.6321 47.2791 41.6321 47.4703 41.6321 47.6708C41.3017 47.6708 40.9766 47.6708 40.6448 47.6708C40.6422 47.7002 40.6396 47.7216 40.6396 47.7443C40.6396 48.2442 40.6382 48.7442 40.6396 49.2441C40.6396 49.4326 40.7106 49.5916 40.8673 49.6932C40.9436 49.7427 41.0411 49.7707 41.1319 49.7788C41.2872 49.7921 41.4452 49.7841 41.6018 49.7814C41.6492 49.7801 41.6703 49.7948 41.6821 49.8429C41.7243 50.0154 41.773 50.1878 41.8204 50.3669C41.794 50.3696 41.7756 50.3736 41.7585 50.3736C41.4899 50.3696 41.2201 50.3883 40.9542 50.3562C40.4184 50.2921 40.034 49.8322 40.0327 49.2842C40.0314 48.7816 40.0327 48.279 40.0327 47.7764C40.0327 47.7456 40.0327 47.7136 40.0327 47.6641C39.8905 47.6641 39.751 47.6641 39.6128 47.6641C39.6128 47.4703 39.6128 47.2778 39.6128 47.084Z" fill="#8D8D8D"/>
<path d="M45.5541 44.1709C45.6159 44.1936 45.6804 44.211 45.7384 44.2404C46.0793 44.4115 46.1609 44.8687 45.895 45.1454C45.7607 45.2857 45.6146 45.4114 45.4632 45.5531C45.3237 45.4047 45.1486 45.251 45.013 45.0678C44.7919 44.7697 44.9498 44.3326 45.3026 44.2083C45.3303 44.199 45.3566 44.1843 45.3842 44.1722C45.4422 44.1709 45.4975 44.1709 45.5541 44.1709Z" fill="#8D8D8D"/>
<path d="M50.5386 52.7259C50.482 52.6938 50.4241 52.663 50.3596 52.6269C50.3793 52.5975 50.3925 52.5788 50.4096 52.5521C50.4978 52.6336 50.5952 52.6751 50.7097 52.6376C50.8072 52.6069 50.8493 52.5093 50.8243 52.3636C50.7361 52.4305 50.64 52.4665 50.536 52.4264C50.4846 52.4064 50.4307 52.369 50.3964 52.3249C50.3188 52.2246 50.3346 52.0562 50.4201 51.9639C50.5202 51.8543 50.6558 51.849 50.8072 51.9426C50.8387 51.9212 50.869 51.9011 50.9111 51.873C50.9111 52.0923 50.9138 52.2848 50.9098 52.4772C50.9072 52.6122 50.8164 52.6791 50.7058 52.7272C50.6505 52.7259 50.5952 52.7259 50.5386 52.7259ZM50.8427 52.1618C50.8427 52.0388 50.7519 51.9426 50.6334 51.9439C50.5176 51.9439 50.4333 52.0348 50.4333 52.1604C50.4333 52.2874 50.5149 52.3703 50.6373 52.3703C50.7611 52.369 50.8427 52.2874 50.8427 52.1618Z" fill="#8D8D8D"/>
<path d="M59.4998 52.7255C59.4471 52.6934 59.3945 52.66 59.3339 52.6239C59.3524 52.5971 59.3655 52.5784 59.3774 52.5624C59.6156 52.7001 59.792 52.7148 59.8105 52.3793C59.7288 52.4006 59.6525 52.43 59.5748 52.4367C59.4893 52.4447 59.4195 52.398 59.3695 52.3271C59.2931 52.2188 59.3076 52.0531 59.3997 51.9582C59.5051 51.8499 59.6446 51.8486 59.7828 51.9475C59.8118 51.9234 59.8381 51.9007 59.8842 51.8633C59.8842 52.0945 59.8908 52.2964 59.8815 52.4955C59.8763 52.6265 59.7775 52.6854 59.6683 52.7255C59.6117 52.7255 59.5551 52.7255 59.4998 52.7255ZM59.6077 52.3699C59.7302 52.3699 59.8144 52.287 59.8157 52.1654C59.8184 52.0451 59.7262 51.9462 59.6104 51.9435C59.4932 51.9408 59.4011 52.0371 59.4037 52.1614C59.405 52.2843 59.4893 52.3699 59.6077 52.3699Z" fill="#8D8D8D"/>
<path d="M44.4639 52.7256C44.4639 52.4502 44.4639 52.1762 44.4639 51.8701C44.5099 51.8995 44.5376 51.9182 44.5586 51.9303C44.6376 51.9142 44.7245 51.8795 44.8088 51.8862C44.8667 51.8902 44.9338 51.9383 44.9746 51.9864C45.0668 52.092 45.051 52.2765 44.9536 52.3767C44.8496 52.4823 44.7034 52.4823 44.5468 52.3674C44.5468 52.493 44.5468 52.6107 44.5468 52.7269C44.5205 52.7256 44.4915 52.7256 44.4639 52.7256ZM44.9496 52.1709C44.9522 52.0426 44.8667 51.9463 44.7495 51.9436C44.6337 51.941 44.5402 52.0359 44.5363 52.1602C44.5323 52.2845 44.6218 52.3821 44.739 52.3847C44.8614 52.3888 44.9483 52.2992 44.9496 52.1709Z" fill="#8D8D8D"/>
<path d="M45.7725 52.7256C45.7725 52.4502 45.7725 52.1749 45.7725 51.8701C45.8159 51.9009 45.8435 51.9209 45.8765 51.9436C46.0252 51.8447 46.174 51.8527 46.2727 51.973C46.3609 52.0813 46.3556 52.2631 46.2635 52.366C46.1634 52.4783 46.0147 52.481 45.8567 52.37C45.8567 52.4917 45.8567 52.608 45.8567 52.7243C45.8277 52.7256 45.8001 52.7256 45.7725 52.7256ZM46.0476 52.3861C46.1674 52.3861 46.2516 52.2965 46.2529 52.1682C46.2543 52.0412 46.1674 51.9463 46.0502 51.945C45.9304 51.9436 45.8396 52.0412 45.8396 52.1695C45.8396 52.2925 45.9291 52.3847 46.0476 52.3861Z" fill="#8D8D8D"/>
<path d="M39.6136 52.2308C39.6623 52.3164 39.7176 52.3912 39.8308 52.3846C39.9348 52.3792 40.0085 52.3124 40.027 52.2001C40.0441 52.0958 39.9901 51.9929 39.8993 51.9581C39.8019 51.9194 39.7031 51.9555 39.6465 52.0477C39.6373 52.0637 39.6242 52.0784 39.6136 52.0945C39.6136 52.0437 39.6136 51.9929 39.6136 51.9408C39.6702 51.9194 39.7242 51.8886 39.7821 51.8779C39.9059 51.8539 40.0296 51.9207 40.0823 52.0303C40.1362 52.1413 40.1165 52.283 40.0335 52.3698C39.9493 52.4594 39.8019 52.4821 39.6847 52.4233C39.6597 52.4113 39.636 52.3979 39.6123 52.3846C39.6136 52.3338 39.6136 52.283 39.6136 52.2308Z" fill="#8D8D8D"/>
<path d="M50.1957 49.5039C50.3445 48.7112 50.4906 47.9346 50.6327 47.1566C50.6433 47.1005 50.6591 47.0817 50.717 47.0831C50.8947 47.0871 51.0737 47.0844 51.2633 47.0844C51.0592 48.1859 50.8578 49.2766 50.6551 50.374C50.4498 50.374 50.2497 50.3767 50.0483 50.3714C50.0219 50.37 49.9877 50.3299 49.9706 50.2992C49.6534 49.7351 49.3387 49.1697 49.0241 48.6042C49.007 48.5748 48.9899 48.5454 48.9662 48.504C48.9451 48.5387 48.928 48.5668 48.9122 48.5936C48.5937 49.163 48.2738 49.7324 47.9579 50.3045C47.9276 50.3593 47.8947 50.3781 47.8341 50.3767C47.6498 50.3727 47.4655 50.3754 47.2747 50.3754C47.0719 49.2793 46.8692 48.1885 46.6665 47.0911C46.8719 47.0911 47.0706 47.0911 47.2813 47.0911C47.43 47.8864 47.5788 48.6844 47.7328 49.5039C47.7565 49.4664 47.7709 49.445 47.7841 49.4236C48.0526 48.9424 48.3225 48.4612 48.5884 47.9787C48.62 47.9212 48.6542 47.9011 48.7187 47.9025C48.8806 47.9078 49.0426 47.9078 49.2058 47.9025C49.2782 47.8998 49.3137 47.9279 49.348 47.9894C49.6178 48.4799 49.8916 48.9678 50.1654 49.4557C50.1707 49.4678 50.1786 49.4785 50.1957 49.5039Z" fill="#8D8D8D"/>
<path d="M54.5688 47.4589C54.5688 47.3253 54.5688 47.2116 54.5688 47.0913C54.7728 47.0913 54.9716 47.0913 55.177 47.0913C55.177 48.1834 55.177 49.2742 55.177 50.3703C54.9756 50.3703 54.7781 50.3703 54.5741 50.3703C54.5741 50.2513 54.5741 50.1337 54.5741 49.996C54.0936 50.3863 53.5762 50.5494 52.9839 50.3756C52.614 50.2674 52.3138 50.0562 52.0901 49.7367C51.6148 49.0603 51.6688 48.1607 52.2256 47.5498C52.5324 47.2143 52.9194 47.0405 53.3683 47.0151C53.8198 46.9897 54.2055 47.1635 54.5688 47.4589ZM52.3783 48.7248C52.377 49.3397 52.8641 49.8476 53.4644 49.8409C54.0791 49.8343 54.5662 49.3637 54.5701 48.7355C54.5741 48.1006 54.0857 47.6247 53.4709 47.6153C52.868 47.6073 52.3797 48.1112 52.3783 48.7248Z" fill="#8D8D8D"/>
<path d="M59.2808 50.3705C59.0741 50.3705 58.8793 50.3705 58.6792 50.3705C58.6792 49.2757 58.6792 48.185 58.6792 47.0889C58.878 47.0889 59.0741 47.0889 59.2782 47.0889C59.2782 47.1865 59.2782 47.2814 59.2782 47.3977C59.3255 47.3642 59.3598 47.3388 59.3953 47.3148C59.6678 47.129 59.96 47.0073 60.2957 47.0194C61.0697 47.0448 61.6976 47.6329 61.7845 48.4162C61.7937 48.4951 61.7977 48.574 61.7977 48.6542C61.799 49.1942 61.7977 49.7329 61.7977 50.2729C61.7977 50.3037 61.7977 50.3344 61.7977 50.3705C61.595 50.3705 61.3975 50.3705 61.1908 50.3705C61.1908 50.3384 61.1908 50.309 61.1908 50.2783C61.1908 49.7249 61.1922 49.1715 61.1908 48.6181C61.1895 48.2104 60.9552 47.8508 60.5972 47.6984C59.985 47.4391 59.2887 47.9029 59.2821 48.578C59.2768 49.1434 59.2808 49.7075 59.2808 50.2729C59.2808 50.3023 59.2808 50.3331 59.2808 50.3705Z" fill="#8D8D8D"/>
<path d="M56.8154 50.3716C56.6088 50.3716 56.414 50.3716 56.2139 50.3716C56.2139 49.2782 56.2139 48.1874 56.2139 47.09C56.41 47.09 56.6075 47.09 56.8128 47.09C56.8128 47.1916 56.8128 47.2945 56.8128 47.4081C57.1682 47.1394 57.5645 47.0392 57.9976 47.0098C57.9462 47.225 57.8975 47.4241 57.8488 47.6273C57.6461 47.6327 57.4578 47.6808 57.288 47.7891C56.9813 47.9856 56.8168 48.2663 56.8154 48.6365C56.8128 49.1819 56.8154 49.726 56.8154 50.2713C56.8154 50.3021 56.8154 50.3328 56.8154 50.3716Z" fill="#8D8D8D"/>
<path d="M42.5532 47.0863C42.7546 47.0863 42.9495 47.0863 43.1535 47.0863C43.1535 47.1919 43.1535 47.2948 43.1535 47.4058C43.5089 47.1371 43.9038 47.0382 44.3369 47.0088C44.2869 47.212 44.2434 47.4018 44.1934 47.5903C44.1882 47.609 44.1447 47.6263 44.1184 47.629C43.7564 47.6651 43.4694 47.8269 43.2799 48.1477C43.1943 48.2947 43.1548 48.4551 43.1548 48.6275C43.1561 49.1756 43.1548 49.7236 43.1548 50.2704C43.1548 50.3011 43.1548 50.3318 43.1548 50.3679C42.9521 50.3679 42.7559 50.3679 42.5532 50.3679C42.5532 49.2772 42.5532 48.1864 42.5532 47.0863Z" fill="#8D8D8D"/>
<path d="M45.7769 50.3707C45.5742 50.3707 45.3767 50.3707 45.1753 50.3707C45.1753 49.2773 45.1753 48.1879 45.1753 47.0918C45.3741 47.0918 45.5728 47.0918 45.7769 47.0918C45.7769 48.1852 45.7769 49.276 45.7769 50.3707Z" fill="#8D8D8D"/>
<path d="M45.6792 45.8513C45.8345 45.6802 45.9675 45.5051 46.1281 45.3634C46.3045 45.2084 46.598 45.2218 46.785 45.3621C46.9943 45.5185 47.0772 45.7658 46.9995 46.0091C46.9245 46.2457 46.7086 46.4034 46.4611 46.4074C46.2953 46.4101 46.1557 46.3513 46.0412 46.231C45.9161 46.0973 45.7898 45.9663 45.6792 45.8513Z" fill="#8D8D8D"/>
<path d="M45.2984 45.8377C45.1351 45.9954 44.9903 46.1491 44.8311 46.2868C44.6428 46.4485 44.369 46.4485 44.1676 46.3055C43.9609 46.1571 43.8741 45.9045 43.9478 45.6599C44.0175 45.426 44.2387 45.2629 44.4835 45.2589C44.6415 45.2562 44.7731 45.3123 44.8837 45.4233C45.0193 45.557 45.1549 45.692 45.2984 45.8377Z" fill="#8D8D8D"/>
<path d="M51.945 52.0016C52.0161 52.0604 52.0793 52.1139 52.1464 52.1701C52.2122 52.134 52.1846 51.9722 52.3386 51.9949C52.2899 52.0832 52.2438 52.1647 52.1872 52.265C52.2491 52.3131 52.3136 52.3625 52.386 52.4187C52.2544 52.4788 52.2162 52.3813 52.1464 52.3251C52.0609 52.4307 51.9503 52.4842 51.8173 52.4441C51.762 52.428 51.7028 52.3893 51.6699 52.3425C51.587 52.2249 51.6436 52.0872 51.8173 51.9736C51.7568 51.8987 51.6989 51.8172 51.7384 51.7169C51.7541 51.6755 51.791 51.6354 51.8292 51.6113C51.9226 51.5552 52.053 51.5899 52.103 51.6755C52.1688 51.7837 52.128 51.8746 51.945 52.0016ZM52.0872 52.261C52.0372 52.2061 51.9911 52.1567 51.945 52.1072C51.9332 52.0952 51.924 52.0792 51.9095 52.0711C51.8897 52.0591 51.8647 52.0417 51.8476 52.0457C51.7726 52.0645 51.7173 52.162 51.7265 52.2476C51.7357 52.3238 51.7989 52.3786 51.8845 52.3826C51.9766 52.3879 52.0372 52.3412 52.0872 52.261ZM51.9003 51.9375C52.0148 51.88 52.0674 51.8185 52.0438 51.7517C52.0293 51.7142 51.9845 51.6661 51.9503 51.6634C51.9108 51.6594 51.8542 51.6888 51.8279 51.7236C51.7831 51.7784 51.8134 51.8546 51.9003 51.9375Z" fill="#8D8D8D"/>
<path d="M53.5145 51.9596C53.5145 51.8379 53.5171 51.7283 53.5132 51.6174C53.5118 51.5612 53.529 51.5385 53.5895 51.5572C53.5895 51.8486 53.5895 52.1387 53.5895 52.4568C53.55 52.4301 53.5211 52.4114 53.4868 52.3886C53.3486 52.4836 53.1986 52.4795 53.0985 52.3659C53.0064 52.2617 53.0024 52.0825 53.0906 51.9743C53.1907 51.8526 53.3355 51.8446 53.5145 51.9596ZM53.3131 51.9435C53.1946 51.9449 53.1117 52.0398 53.113 52.1694C53.1143 52.3018 53.1986 52.3873 53.321 52.3846C53.4394 52.382 53.5263 52.2857 53.5237 52.1601C53.5224 52.0358 53.4302 51.9422 53.3131 51.9435Z" fill="#8D8D8D"/>
<path d="M54.444 52.1887C54.2966 52.1887 54.1478 52.1887 53.9964 52.1887C53.9885 52.2916 54.0491 52.3344 54.1202 52.3665C54.2215 52.4119 54.3031 52.3732 54.3769 52.2956C54.3953 52.3103 54.4124 52.3237 54.4295 52.3371C54.3242 52.4654 54.1544 52.4921 54.0214 52.4039C53.9135 52.3331 53.8714 52.1687 53.9267 52.039C53.9819 51.9093 54.136 51.8425 54.2781 51.8866C54.4032 51.9254 54.4664 52.0377 54.444 52.1887ZM54.3624 52.1192C54.3637 52.0096 54.3031 51.9454 54.2031 51.9427C54.0952 51.9401 54.0056 52.0176 54.0004 52.1245C54.1004 52.1245 54.1991 52.1245 54.2992 52.1245C54.3203 52.1245 54.3413 52.1205 54.3624 52.1192Z" fill="#8D8D8D"/>
<path d="M41.6975 52.343C41.6067 52.462 41.4514 52.4927 41.325 52.4165C41.2065 52.3457 41.1591 52.1786 41.2184 52.0409C41.2737 51.9126 41.4079 51.8484 41.5435 51.8872C41.6725 51.9233 41.741 52.0369 41.7173 52.1906C41.5751 52.1906 41.4316 52.1906 41.2842 52.1906C41.2816 52.2815 41.3237 52.3337 41.3908 52.3657C41.4685 52.4032 41.5448 52.3925 41.608 52.3323C41.6462 52.2976 41.6712 52.2949 41.6975 52.343ZM41.6383 52.1225C41.6264 52.0035 41.5698 51.9447 41.4698 51.9447C41.3671 51.9433 41.296 52.0115 41.2842 52.1225C41.4013 52.1225 41.5172 52.1225 41.6383 52.1225Z" fill="#8D8D8D"/>
<path d="M56.8682 51.9484C56.959 51.8749 57.0604 51.8548 57.1709 51.8963C57.246 51.9243 57.2841 51.9858 57.2855 52.0674C57.2855 52.189 57.2855 52.3106 57.2855 52.435C57.2328 52.455 57.2065 52.4376 57.2131 52.3989C57.138 52.4162 57.0604 52.447 56.9814 52.4497C56.8971 52.4523 56.8366 52.3842 56.83 52.308C56.8208 52.2171 56.8576 52.1542 56.9498 52.1302C57.0301 52.1088 57.1143 52.1035 57.1959 52.0914C57.2104 51.9818 57.138 51.923 57.0182 51.9497C56.9919 51.9564 56.9669 51.9738 56.9406 51.9778C56.9169 51.9818 56.8919 51.9765 56.8668 51.9738C56.8668 51.9671 56.8682 51.9578 56.8682 51.9484ZM57.1999 52.1583C57.1209 52.173 57.0446 52.177 56.9761 52.2024C56.9471 52.2131 56.9156 52.2705 56.9182 52.304C56.9208 52.332 56.9656 52.3735 56.9985 52.3815C57.1262 52.4149 57.217 52.3187 57.1999 52.1583Z" fill="#8D8D8D"/>
<path d="M46.9975 52.0883C46.9724 52.0429 46.9606 51.9921 46.929 51.9694C46.8671 51.9253 46.7961 51.94 46.7302 51.972C46.6763 51.9988 46.6763 51.9988 46.646 51.952C46.7302 51.8731 46.8553 51.8491 46.954 51.8959C47.0277 51.9306 47.0606 51.9934 47.0606 52.0736C47.062 52.1926 47.0606 52.3116 47.0606 52.4546C47.0238 52.4292 46.9988 52.4105 46.983 52.3998C46.9093 52.4172 46.8342 52.4466 46.7592 52.4493C46.671 52.4519 46.6104 52.3838 46.6025 52.3022C46.5946 52.2153 46.6341 52.1525 46.7289 52.1284C46.8092 52.1097 46.8935 52.1044 46.9975 52.0883ZM46.9738 52.1578C46.8948 52.1726 46.8184 52.1779 46.75 52.202C46.721 52.2127 46.6842 52.2675 46.6894 52.2955C46.696 52.3289 46.7381 52.3731 46.7724 52.3824C46.9027 52.4158 46.9922 52.3196 46.9738 52.1578Z" fill="#8D8D8D"/>
<path d="M55.7235 52.4562C55.5589 52.4535 55.4391 52.3305 55.4404 52.1647C55.4418 51.9963 55.5681 51.8733 55.7366 51.876C55.9012 51.8787 56.021 52.003 56.021 52.1688C56.0196 52.3358 55.8933 52.4575 55.7235 52.4562ZM55.9314 52.1634C55.9301 52.0324 55.8459 51.9429 55.7261 51.9442C55.6089 51.9455 55.5234 52.0418 55.5247 52.1688C55.526 52.2971 55.6116 52.3866 55.7314 52.3853C55.8525 52.384 55.9328 52.2944 55.9314 52.1634Z" fill="#8D8D8D"/>
<path d="M44.1592 52.1714C44.1579 52.3372 44.0355 52.4561 43.8683 52.4561C43.6998 52.4561 43.5748 52.3278 43.5787 52.1607C43.5827 51.9976 43.7077 51.8747 43.8709 51.876C44.0394 51.876 44.1619 52.0016 44.1592 52.1714ZM43.8696 51.9442C43.7538 51.9442 43.6643 52.0404 43.6643 52.1661C43.6643 52.293 43.7511 52.3866 43.8696 52.3853C43.9894 52.3853 44.075 52.293 44.075 52.1647C44.075 52.0391 43.9868 51.9442 43.8696 51.9442Z" fill="#8D8D8D"/>
<path d="M61.8496 52.1718C61.8483 52.3375 61.7272 52.4551 61.56 52.4551C61.3902 52.4551 61.2691 52.3308 61.273 52.1597C61.2757 51.9926 61.3981 51.8737 61.564 51.875C61.7311 51.8763 61.8522 52.0007 61.8496 52.1718ZM61.7641 52.1704C61.7654 52.0421 61.6811 51.9485 61.564 51.9459C61.4468 51.9432 61.3599 52.0354 61.3586 52.1637C61.3573 52.2961 61.4376 52.3856 61.5574 52.387C61.6785 52.387 61.7627 52.2987 61.7641 52.1704Z" fill="#8D8D8D"/>
<path d="M65.6526 52.4362C65.6223 52.4362 65.6 52.4362 65.5697 52.4362C65.5697 52.3306 65.5723 52.229 65.5697 52.1274C65.5671 52.0057 65.5249 51.9509 65.4367 51.9456C65.3459 51.9402 65.2788 52.0044 65.2656 52.118C65.259 52.1715 65.2617 52.225 65.2617 52.2798C65.2617 52.3306 65.2617 52.3814 65.2419 52.4509C65.2222 52.4335 65.184 52.4161 65.184 52.3987C65.18 52.2316 65.1814 52.0646 65.1814 51.8721C65.2209 51.9001 65.2472 51.9189 65.2827 51.9443C65.2893 51.9402 65.3104 51.9215 65.3327 51.9082C65.471 51.8253 65.6223 51.8988 65.6474 52.0592C65.6513 52.0846 65.6526 52.11 65.6526 52.1354C65.6526 52.233 65.6526 52.3319 65.6526 52.4362Z" fill="#8D8D8D"/>
<path d="M64.8732 52.1714C64.8718 52.3385 64.752 52.4561 64.5849 52.4561C64.4137 52.4561 64.2953 52.3345 64.2979 52.1607C64.3005 51.9936 64.4203 51.8747 64.5862 51.876C64.756 51.876 64.8745 51.999 64.8732 52.1714ZM64.7889 52.1687C64.7902 52.0391 64.706 51.9455 64.5888 51.9442C64.4717 51.9428 64.3835 52.0364 64.3821 52.1634C64.3808 52.293 64.4638 52.3853 64.5835 52.3853C64.7047 52.3866 64.7876 52.2997 64.7889 52.1687Z" fill="#8D8D8D"/>
<path d="M47.832 51.873C47.8689 51.8998 47.8952 51.9198 47.9308 51.9439C47.9334 51.9426 47.9492 51.9279 47.9676 51.9158C48.1111 51.8196 48.2796 51.8944 48.298 52.0669C48.3086 52.1765 48.3046 52.2888 48.3007 52.3984C48.2993 52.4171 48.2651 52.4331 48.2467 52.4518C48.2388 52.4465 48.2309 52.4425 48.223 52.4371C48.223 52.3449 48.2243 52.2513 48.223 52.1591C48.2217 52.0107 48.1756 51.9439 48.0769 51.9452C47.9768 51.9452 47.9163 52.0254 47.9123 52.1618C47.9097 52.25 47.911 52.3382 47.9097 52.4251C47.9097 52.4278 47.9071 52.4305 47.9018 52.4371C47.8847 52.4385 47.8636 52.4385 47.8347 52.4398C47.832 52.2594 47.832 52.0816 47.832 51.873Z" fill="#8D8D8D"/>
<path d="M58.6273 52.44C58.5957 52.4387 58.5747 52.4374 58.5483 52.436C58.5483 52.2542 58.5483 52.0764 58.5483 51.8733C58.5878 51.9 58.6168 51.9187 58.6497 51.9414C58.6681 51.9294 58.6997 51.904 58.7353 51.8906C58.8735 51.8358 58.9985 51.9134 59.0143 52.0631C59.017 52.0858 59.017 52.1085 59.017 52.1313C59.017 52.2302 59.017 52.3291 59.017 52.4307C58.9564 52.4534 58.934 52.4387 58.9354 52.3732C58.938 52.277 58.934 52.1807 58.9314 52.0845C58.9288 52.0069 58.8919 51.9561 58.8116 51.9455C58.7379 51.9361 58.6655 51.9789 58.6458 52.0577C58.6313 52.1139 58.63 52.1754 58.6273 52.2342C58.626 52.2983 58.6273 52.3638 58.6273 52.44Z" fill="#8D8D8D"/>
<path d="M62.5815 51.8937C62.6105 51.8937 62.6342 51.8937 62.6645 51.8937C62.6645 51.9993 62.6632 52.1008 62.6645 52.2024C62.6671 52.3321 62.7079 52.3842 62.8027 52.3842C62.8962 52.3856 62.9646 52.3134 62.9699 52.1998C62.9738 52.1008 62.9712 52.0019 62.9712 51.8963C62.9988 51.8937 63.0212 51.8923 63.0502 51.8896C63.0502 52.0741 63.0502 52.2519 63.0502 52.4551C63.012 52.431 62.9844 52.4123 62.9488 52.3882C62.9462 52.3896 62.9277 52.407 62.9067 52.4203C62.7645 52.5112 62.6026 52.4324 62.5842 52.2639C62.5815 52.2412 62.5815 52.2185 62.5815 52.1958C62.5815 52.0968 62.5815 51.9979 62.5815 51.8937Z" fill="#8D8D8D"/>
<path d="M49.9655 52.4295C49.9655 52.3306 49.9668 52.2316 49.9655 52.1314C49.9628 52.0071 49.9168 51.9469 49.8273 51.9443C49.7364 51.9416 49.6693 52.0031 49.6588 52.1194C49.6495 52.2236 49.6574 52.3279 49.6574 52.4362C49.6259 52.4362 49.6048 52.4362 49.5771 52.4362C49.5771 52.2557 49.5771 52.0779 49.5771 51.8721C49.6153 51.9015 49.6417 51.9202 49.6693 51.9429C49.7062 51.9269 49.7601 51.8894 49.8194 51.8788C49.9365 51.8574 50.0273 51.9322 50.0392 52.0565C50.0497 52.1688 50.0471 52.2838 50.0431 52.3961C50.0431 52.4148 50.0089 52.4308 49.9905 52.4495C49.9813 52.4442 49.9734 52.4362 49.9655 52.4295Z" fill="#8D8D8D"/>
<path d="M40.5032 52.4368C40.4702 52.4368 40.4492 52.4368 40.4229 52.4368C40.4229 52.2577 40.4229 52.0799 40.4229 51.8794C40.4584 51.9022 40.486 51.9182 40.5242 51.9409C40.5255 51.9382 40.544 51.9235 40.565 51.9102C40.7059 51.8206 40.8744 51.9008 40.8875 52.0679C40.8954 52.1668 40.8902 52.2671 40.8902 52.366C40.8902 52.3887 40.8902 52.4101 40.8902 52.4355C40.8599 52.4355 40.8375 52.4355 40.8085 52.4355C40.8085 52.3272 40.8099 52.2256 40.8085 52.124C40.8059 52.0024 40.7625 51.9476 40.673 51.9449C40.5821 51.9423 40.511 52.0104 40.5045 52.12C40.4979 52.2216 40.5032 52.3246 40.5032 52.4368Z" fill="#8D8D8D"/>
<path d="M60.9936 51.9962C60.9673 51.9922 60.941 51.9908 60.916 51.9842C60.8686 51.9735 60.8212 51.9521 60.7751 51.9547C60.7501 51.9561 60.7093 51.9962 60.7067 52.0229C60.704 52.0483 60.7356 52.0871 60.762 52.1018C60.8028 52.1245 60.8528 52.1285 60.8976 52.1446C60.97 52.1686 61.02 52.2141 61.0147 52.2983C61.0094 52.3852 60.9568 52.432 60.8791 52.448C60.7738 52.4707 60.6804 52.4493 60.604 52.3584C60.6277 52.3143 60.6435 52.301 60.6961 52.3357C60.7422 52.3665 60.808 52.3745 60.866 52.3745C60.8883 52.3745 60.9278 52.329 60.9305 52.3023C60.9331 52.2756 60.9028 52.2355 60.8765 52.2208C60.837 52.198 60.787 52.1913 60.7422 52.1766C60.6738 52.1539 60.6211 52.1152 60.6224 52.0336C60.6237 51.9507 60.6711 51.9053 60.7475 51.8852C60.8515 51.8585 60.9397 51.8879 60.9936 51.9962Z" fill="#8D8D8D"/>
<path d="M42.7965 51.9969C42.7702 51.9916 42.7439 51.9902 42.7176 51.9809C42.6886 51.9715 42.6623 51.9501 42.6333 51.9461C42.578 51.9394 42.5201 51.9474 42.5056 52.0129C42.4911 52.0798 42.5451 52.0972 42.5951 52.1119C42.6425 52.1266 42.6939 52.1359 42.7373 52.1586C42.84 52.2108 42.8452 52.3498 42.7505 52.4166C42.6478 52.4888 42.4846 52.4567 42.4082 52.3485C42.4345 52.3084 42.4582 52.299 42.499 52.3391C42.5491 52.3886 42.6149 52.3992 42.6781 52.3712C42.7031 52.3605 42.7307 52.3244 42.7333 52.2977C42.7347 52.2723 42.7097 52.2335 42.686 52.2215C42.6399 52.1974 42.5859 52.1894 42.5359 52.172C42.4701 52.1493 42.4253 52.1078 42.4279 52.029C42.4306 51.9541 42.4714 51.91 42.5398 51.8873C42.6425 51.8539 42.7307 51.8793 42.8018 51.9635C42.7992 51.9755 42.7979 51.9862 42.7965 51.9969Z" fill="#8D8D8D"/>
<path d="M55.202 51.9923C55.1743 51.9883 55.1427 51.9937 55.1217 51.9803C55.0322 51.9255 54.9295 51.9349 54.8637 52.0097C54.7926 52.0913 54.7913 52.233 54.861 52.3158C54.9255 52.3934 55.0361 52.4041 55.1269 52.3492C55.148 52.3359 55.1796 52.3399 55.2085 52.3466C55.1164 52.4789 54.9216 52.4869 54.8097 52.3773C54.6952 52.2664 54.6965 52.0578 54.8123 51.9482C54.9229 51.8413 55.1111 51.8507 55.202 51.9923Z" fill="#8D8D8D"/>
<path d="M43.1251 51.9735C43.0817 51.9441 43.0014 51.9936 43.0185 51.8947C43.0514 51.892 43.0817 51.8907 43.1211 51.888C43.1211 51.8425 43.1211 51.7958 43.1211 51.7423C43.1527 51.741 43.1751 51.7396 43.2054 51.7383C43.2054 51.7891 43.2054 51.8332 43.2054 51.8853C43.2567 51.888 43.3028 51.8907 43.3805 51.8947C43.3502 51.9254 43.3357 51.9508 43.316 51.9562C43.2844 51.9642 43.2502 51.9588 43.2093 51.9588C43.2093 52.0778 43.2054 52.1901 43.2107 52.3024C43.2159 52.3946 43.2883 52.3786 43.3515 52.3719C43.3555 52.3786 43.3607 52.3852 43.3647 52.3919C43.3476 52.4106 43.3331 52.4387 43.312 52.4441C43.2067 52.4735 43.1304 52.4147 43.1264 52.301C43.1211 52.1901 43.1251 52.0805 43.1251 51.9735Z" fill="#8D8D8D"/>
<path d="M57.706 51.7388C57.706 51.7909 57.706 51.835 57.706 51.8872C57.7573 51.8898 57.8034 51.8925 57.8495 51.8939C57.8521 51.9513 57.8521 51.9513 57.7073 51.966C57.7073 52.077 57.702 52.1906 57.7086 52.3029C57.7139 52.3951 57.7863 52.3791 57.8626 52.3911C57.8455 52.4098 57.831 52.4392 57.81 52.4446C57.7047 52.474 57.6283 52.4152 57.6244 52.3016C57.6204 52.1919 57.623 52.081 57.623 51.9727C57.5177 51.9513 57.5177 51.9513 57.5217 51.8952C57.5506 51.8939 57.5809 51.8925 57.6073 51.8898C57.6599 51.8497 57.5625 51.7294 57.706 51.7388Z" fill="#8D8D8D"/>
<path d="M63.4127 51.9743C63.3718 51.9395 63.2889 51.9943 63.3047 51.8927C63.3389 51.8914 63.3718 51.8887 63.41 51.8874C63.41 51.8393 63.41 51.7938 63.41 51.743C63.439 51.7403 63.4614 51.739 63.4903 51.7363C63.4903 51.7871 63.4903 51.8326 63.4903 51.886C63.5417 51.886 63.5877 51.886 63.6312 51.886C63.6417 51.9475 63.6417 51.9475 63.4943 51.9689C63.4943 52.0799 63.4916 52.1921 63.4956 52.3044C63.4982 52.3686 63.5272 52.3806 63.6628 52.3753C63.6364 52.4074 63.6246 52.4354 63.6062 52.4421C63.5048 52.4782 63.4166 52.418 63.414 52.3098C63.41 52.1962 63.4127 52.0825 63.4127 51.9743Z" fill="#8D8D8D"/>
<path d="M48.7343 51.9689C48.7343 52.0772 48.7304 52.1868 48.7356 52.2977C48.7383 52.3726 48.7712 52.3873 48.8989 52.3673C48.8726 52.4033 48.862 52.4341 48.8436 52.4408C48.7396 52.4755 48.658 52.4167 48.6553 52.3058C48.6527 52.1935 48.6553 52.0799 48.6553 51.9769C48.6211 51.9355 48.529 51.997 48.5448 51.8941C48.5816 51.8914 48.6132 51.8887 48.6514 51.886C48.6514 51.8379 48.6514 51.7938 48.6514 51.7417C48.679 51.7403 48.7027 51.7377 48.7291 51.7363C48.7317 51.7885 48.733 51.8326 48.7356 51.886C48.783 51.886 48.8291 51.886 48.8739 51.886C48.8804 51.9408 48.8804 51.9408 48.7343 51.9689Z" fill="#8D8D8D"/>
<path d="M56.632 51.9511C56.4543 51.9591 56.4109 52.0046 56.4095 52.1716C56.4082 52.2572 56.4095 52.3414 56.4095 52.4336C56.3832 52.435 56.3595 52.4377 56.3306 52.439C56.3306 52.2545 56.3306 52.0767 56.3306 51.8789C56.3661 51.899 56.3951 51.9137 56.4135 51.9244C56.4793 51.9083 56.5478 51.8923 56.6149 51.8802C56.6149 51.8802 56.6241 51.9217 56.632 51.9511Z" fill="#8D8D8D"/>
<path d="M62.2079 52.4476C62.1921 52.4262 62.1631 52.4061 62.1631 52.3847C62.1605 52.1241 62.1605 51.8634 62.1631 51.6028C62.1631 51.5827 62.1947 51.5627 62.2105 51.5439C62.2184 51.5493 62.225 51.556 62.2329 51.5613C62.2329 51.8501 62.2329 52.1374 62.2329 52.4262C62.2263 52.4329 62.2171 52.4409 62.2079 52.4476Z" fill="#8D8D8D"/>
<path d="M58.123 51.8945C58.152 51.8945 58.1731 51.8945 58.1981 51.8945C58.1981 52.0763 58.1981 52.2541 58.1981 52.4372C58.1744 52.4386 58.1507 52.4399 58.123 52.4412C58.123 52.2568 58.123 52.079 58.123 51.8945Z" fill="#8D8D8D"/>
<path d="M49.1489 51.8896C49.1766 51.891 49.1989 51.8923 49.224 51.8937C49.224 52.0755 49.224 52.2519 49.224 52.435C49.1989 52.435 49.1766 52.435 49.1489 52.435C49.1489 52.2546 49.1489 52.0781 49.1489 51.8896Z" fill="#8D8D8D"/>
<path d="M47.4033 51.8945C47.431 51.8945 47.452 51.8945 47.477 51.8945C47.477 52.075 47.477 52.2528 47.477 52.4359C47.4533 52.4359 47.4296 52.4359 47.4033 52.4359C47.4033 52.2554 47.4033 52.079 47.4033 51.8945Z" fill="#8D8D8D"/>
<path d="M63.9819 52.4304C63.9266 52.4492 63.9082 52.4345 63.9082 52.3797C63.9108 52.2219 63.9095 52.0629 63.9095 51.8984C63.9345 51.8984 63.9569 51.8984 63.9819 51.8984C63.9819 52.0749 63.9819 52.25 63.9819 52.4304Z" fill="#8D8D8D"/>
<path d="M58.0874 51.6758C58.119 51.6517 58.1427 51.6223 58.1585 51.6263C58.1809 51.6317 58.198 51.6624 58.2164 51.6825C58.1953 51.6999 58.1769 51.7293 58.1532 51.7333C58.1374 51.7333 58.1164 51.7012 58.0874 51.6758Z" fill="#8D8D8D"/>
<path d="M49.1824 51.7544C49.16 51.7223 49.1297 51.6969 49.1337 51.6809C49.1402 51.6582 49.1705 51.6421 49.1903 51.6221C49.2074 51.6435 49.235 51.6648 49.2376 51.6876C49.2403 51.7049 49.2087 51.7263 49.1824 51.7544Z" fill="#8D8D8D"/>
<path d="M47.5183 51.6775C47.4841 51.7029 47.463 51.731 47.4406 51.7323C47.4235 51.7323 47.3867 51.6962 47.3893 51.6842C47.3946 51.6601 47.4196 51.632 47.4419 51.6254C47.4577 51.6213 47.4814 51.6521 47.5183 51.6775Z" fill="#8D8D8D"/>
<path d="M64.0235 51.6791C63.988 51.7059 63.9643 51.7366 63.9498 51.7326C63.9274 51.7272 63.9024 51.6992 63.8971 51.6764C63.8945 51.6631 63.9274 51.6257 63.9445 51.627C63.9669 51.627 63.988 51.6537 64.0235 51.6791Z" fill="#8D8D8D"/>
</svg>
