<svg width="95" height="96" viewBox="0 0 95 96" fill="none" xmlns="http://www.w3.org/2000/svg">
<rect x="7.5" y="8" width="80" height="80" rx="40" fill="#F2F4F7"/>
<rect x="7.5" y="8" width="80" height="80" rx="40" stroke="#F9FAFB" stroke-width="14.2857"/>
<path d="M48.2139 38.4756V47.9994L54.1662 53.9518" stroke="#493169" stroke-width="1.60714" stroke-linecap="round" stroke-linejoin="round"/>
<path d="M29.9711 35.7876L28.1854 35.7966C28.1903 36.7758 28.9829 37.5683 29.9621 37.5733L29.9711 35.7876ZM36.0229 37.6037C37.0091 37.6087 37.8126 36.8132 37.8176 35.827C37.8225 34.8408 37.0271 34.0373 36.0409 34.0323L36.0229 37.6037ZM31.7263 29.7178C31.7213 28.7316 30.9179 27.9361 29.9316 27.941C28.9454 27.946 28.15 28.7495 28.1549 29.7357L31.7263 29.7178ZM28.5714 48.0004C28.5714 47.0142 27.7719 46.2147 26.7857 46.2147C25.7995 46.2147 25 47.0142 25 48.0004H28.5714ZM59.8226 68.108C60.6764 67.6142 60.9681 66.5218 60.4743 65.668C59.9805 64.8145 58.8881 64.5226 58.0345 65.0166L59.8226 68.108ZM65.2305 57.8207C64.7364 58.6742 65.0283 59.7666 65.8819 60.2604C66.7357 60.7542 67.8281 60.4626 68.3219 59.6088L65.2305 57.8207ZM31.8817 31.5034C31.1809 32.1973 31.1753 33.3279 31.8692 34.0288C32.563 34.7296 33.6937 34.7352 34.3945 34.0413L31.8817 31.5034ZM64.5531 31.662C55.4574 22.5663 40.7591 22.4742 31.7236 31.5097L34.249 34.0351C41.8659 26.4182 54.3029 26.4624 62.0279 34.1874L64.5531 31.662ZM31.7236 31.5097L28.7084 34.5249L31.2338 37.0503L34.249 34.0351L31.7236 31.5097ZM29.9621 37.5733L36.0229 37.6037L36.0409 34.0323L29.98 34.0019L29.9621 37.5733ZM31.7568 35.7786L31.7263 29.7178L28.1549 29.7357L28.1854 35.7966L31.7568 35.7786ZM48.2143 28.3576C59.0626 28.3576 67.8571 37.152 67.8571 48.0004H71.4286C71.4286 35.1795 61.0352 24.7861 48.2143 24.7861V28.3576ZM48.2143 67.6433C37.3658 67.6433 28.5714 58.8488 28.5714 48.0004H25C25 60.8214 35.3934 71.2147 48.2143 71.2147V67.6433ZM58.0345 65.0166C55.1471 66.6868 51.795 67.6433 48.2143 67.6433V71.2147C52.4398 71.2147 56.4064 70.0842 59.8226 68.108L58.0345 65.0166ZM67.8571 48.0004C67.8571 51.5811 66.9007 54.9333 65.2305 57.8207L68.3219 59.6088C70.2981 56.1926 71.4286 52.2259 71.4286 48.0004H67.8571ZM34.3945 34.0413C37.9454 30.5256 42.8249 28.3576 48.2143 28.3576V24.7861C41.8462 24.7861 36.0741 27.3526 31.8817 31.5034L34.3945 34.0413Z" fill="#493169"/>
</svg>
