<svg width="73" height="74" viewBox="0 0 73 74" fill="none" xmlns="http://www.w3.org/2000/svg">
<path d="M33.3894 0.353516C33.8349 0.832005 33.2299 0.895804 32.7526 1.151C32.5297 1.43809 32.2431 1.56569 31.9565 1.78898C28.5494 4.88322 26.3845 8.51974 25.9387 13.2408C25.1745 22.0131 31.3518 29.4776 39.376 30.8812C41.8915 31.3277 44.5025 31.4872 47.1135 31.3277C48.3872 31.2639 49.6609 31.3915 50.9346 31.2958C54.3098 31.0406 57.494 31.2639 59.8185 34.1987C58.895 36.2083 59.0861 38.3456 59.0861 40.4509C59.0861 41.2803 59.0543 42.1097 58.1308 42.4287C57.1119 42.7796 56.5706 42.1097 56.093 41.376C55.1059 39.8768 54.0232 38.4413 53.068 36.9101C51.3485 34.1987 48.9285 33.0822 45.808 33.5288C45.6807 33.465 45.5214 33.4331 45.3941 33.3693C41.6049 33.0184 37.7839 33.2736 33.9628 33.2417C31.1289 33.3693 28.7726 31.9976 26.4163 30.7217C21.7355 27.1808 19.029 22.6192 19.0608 16.6541C19.0608 12.2201 20.6848 8.39214 23.7416 5.17031C24.0918 4.78752 24.4421 4.37283 24.7924 3.99004C27.3079 2.13988 30.1415 0.640609 33.3894 0.353516Z" fill="#E0A02F"/>
<path d="M45.4239 33.3703C45.5513 33.4341 45.7105 33.466 45.8378 33.5298C49.627 36.305 52.047 39.9097 52.9704 44.5989C54.7536 53.8816 47.4299 63.4514 38.0047 63.866C33.9926 64.0255 29.9487 63.9617 25.9366 63.9298C23.3893 63.8979 21.2559 64.6954 19.6638 66.737C18.6448 65.142 17.9443 63.3238 16.0338 62.4944C13.8367 61.5693 12.1491 59.9743 10.4933 58.3156C6.00361 53.6583 5.04836 44.6627 8.48728 39.2079C11.4167 34.5825 15.4925 31.6796 20.9375 30.8184C22.7843 30.7865 24.5993 30.7546 26.4461 30.7227C28.8343 31.9986 31.1587 33.3703 33.9926 33.2427C37.8137 33.6893 41.6347 33.4341 45.4239 33.3703ZM37.7818 44.6627C36.1261 44.6946 34.7568 46.0662 34.7887 47.6931C34.8205 49.32 36.1897 50.7235 37.8137 50.7235C39.5013 50.7235 40.9342 49.2881 40.8705 47.5655C40.8705 45.9386 39.4695 44.6308 37.7818 44.6627ZM29.6303 47.5974C29.5985 45.9067 28.2929 44.6308 26.6053 44.6627C24.9495 44.6946 23.5803 46.0343 23.5803 47.6931C23.5803 49.3838 25.0769 50.8192 26.7645 50.7554C28.4203 50.6916 29.6621 49.32 29.6303 47.5974ZM15.3651 50.7554C17.0209 50.7873 18.3901 49.4476 18.4538 47.7888C18.5175 46.0981 17.2438 44.7265 15.5562 44.6627C13.8049 44.5989 12.4038 45.9386 12.372 47.6612C12.372 49.32 13.7412 50.7235 15.3651 50.7554Z" fill="#F7F8F8"/>
<path d="M20.9398 30.8173C15.4948 31.7104 11.419 34.5814 8.48959 39.2068C5.05066 44.6616 6.00592 53.6572 10.4956 58.2826C12.1196 59.9732 13.8072 61.5682 16.0361 62.4614C17.9785 63.2589 18.679 65.109 19.6661 66.704C18.4243 68.5541 17.1824 70.4043 15.9724 72.2545C15.5585 72.8924 15.0172 73.2752 14.253 73.0519C13.4251 72.8286 13.2659 72.1907 13.2659 71.4251C13.2659 70.5638 13.2659 69.7344 13.2659 68.8731C13.2977 65.8108 11.9922 63.6416 9.25379 62.2062C4.03172 59.4628 0.943055 55.1564 0.178849 49.2232C-0.80825 41.5354 4.0954 33.8477 11.5146 31.5828C14.6032 30.6259 17.7556 30.594 20.9398 30.8173Z" fill="#D1D2D2"/>
<path d="M30.8477 17.703C30.8477 15.3333 32.719 13.4107 35.0925 13.3659C37.5115 13.3212 39.6111 15.378 39.5198 17.7925C39.4742 20.1175 37.4659 22.0401 35.1381 22.0401C32.7647 21.9954 30.8933 20.0728 30.8477 17.703Z" fill="#F7F8F8"/>
<path d="M50.3664 17.7023C50.3664 20.0721 48.5498 21.9947 46.1428 22.0394C43.7812 22.0841 41.6467 19.9826 41.6921 17.6129C41.7375 15.3326 43.7812 13.3652 46.0974 13.3652C48.459 13.4099 50.321 15.3326 50.3664 17.7023Z" fill="#F7F8F8"/>
<path d="M56.826 22.0351C54.5225 21.9453 52.5352 19.8799 52.5352 17.6798C52.5352 15.345 54.7483 13.2347 57.097 13.3694C59.4004 13.5041 61.2974 15.5246 61.2071 17.8594C61.1619 20.1942 59.1294 22.1249 56.826 22.0351Z" fill="#F7F8F8"/>
<path d="M37.7837 44.6549C39.4714 44.623 40.8406 45.9308 40.9043 47.5896C40.9361 49.2803 39.535 50.7476 37.8474 50.7476C36.2235 50.7476 34.8543 49.3441 34.8224 47.7172C34.7588 46.0584 36.128 44.6868 37.7837 44.6549Z" fill="#321B50"/>
<path d="M29.63 47.5936C29.6619 49.2843 28.42 50.6559 26.7643 50.7197C25.1085 50.7835 23.5801 49.3481 23.5801 47.6574C23.5801 46.0305 24.9493 44.6589 26.6051 44.627C28.2927 44.627 29.5982 45.9029 29.63 47.5936Z" fill="#321B50"/>
<path d="M15.3642 50.7506C13.7403 50.7187 12.3711 49.3151 12.3711 47.6882C12.3711 45.9657 13.804 44.6259 15.5553 44.6897C17.2111 44.7535 18.4847 46.1252 18.4529 47.8158C18.3892 49.4427 17.02 50.7825 15.3642 50.7506Z" fill="#321B50"/>
<path d="M70.9687 23.1279C69.0582 27.211 66.1606 30.3052 62.0848 32.2192C61.034 32.6977 60.429 33.6547 59.6967 34.484C57.3722 31.5493 54.188 31.2941 50.8128 31.5812C49.5391 31.6769 48.2654 31.5493 46.9917 31.6131C44.3807 31.7726 41.7697 31.6131 39.2542 31.1665C31.23 29.7629 25.0208 22.2985 25.8169 13.5262C26.2308 8.77319 28.3005 5.10476 31.7395 2.01053C32.026 1.75534 32.5304 1.2467 32.7533 0.991502C32.9443 0.768207 32.7533 0.991502 33.1405 0.638861C33.8729 0.22417 34.7008 0.383666 35.465 0.383666C42.0244 0.383666 48.5838 0.383666 55.1751 0.383666C66.8929 0.383666 74.6942 11.038 71.2234 22.2347C71.0961 22.5218 71.0324 22.8089 70.9687 23.1279ZM31.2618 17.2584C31.2618 18.9491 32.5992 20.3207 34.255 20.3207C35.8789 20.3526 37.28 18.9491 37.3118 17.2903C37.3436 15.5677 35.9108 14.1004 34.2231 14.1323C32.5674 14.1961 31.2618 15.5677 31.2618 17.2584ZM48.5201 17.2265C48.5201 15.5358 47.1828 14.1642 45.527 14.1642C43.9349 14.1323 42.4702 15.5677 42.4383 17.1946C42.4065 18.8853 43.8712 20.3845 45.5589 20.3526C47.2146 20.2888 48.5201 18.9491 48.5201 17.2265ZM56.6398 20.3207C58.2638 20.3845 59.6967 18.981 59.7603 17.3222C59.824 15.6634 58.4867 14.228 56.8627 14.1323C55.2069 14.0366 53.6467 15.5358 53.6467 17.1946C53.6149 18.8215 55.0477 20.2888 56.6398 20.3207Z" fill="#FBB946"/>
</svg>
