<svg width="73" height="45" viewBox="0 0 73 45" fill="none" xmlns="http://www.w3.org/2000/svg">
<path d="M70.9493 17.841C69.6638 15.5603 68.4405 13.2173 67.0928 10.9573C66.6367 10.1695 65.9732 9.4645 65.289 8.86322C63.3607 7.1423 61.0178 6.56175 58.4676 6.56175C56.9333 6.56175 55.3782 6.56175 53.8647 6.56175C53.8647 6.56175 53.8647 6.56175 53.8647 6.54102L53.5951 7.63991L53.45 8.22046L46.2969 38.1188C46.3591 37.9322 46.4005 37.7663 46.4627 37.6004C47.6031 33.8476 50.0289 31.3803 53.761 30.1984C57.2857 29.0788 60.9556 30.2814 62.8424 33.1219C63.7339 34.4696 64.1071 35.9832 64.1486 37.6419C65.6414 37.6626 66.8647 37.1443 67.8807 36.1491C69.2491 34.8014 70.0577 33.1219 70.4517 31.2766C70.7005 30.0948 70.9078 28.8922 71.1359 27.7104C71.281 26.8395 71.4469 25.9687 71.592 25.0979C71.6749 24.6003 71.7786 24.1027 71.8615 23.605C72.214 21.5731 71.9652 19.6656 70.9493 17.841ZM60.5409 20.101H59.3384C58.903 20.101 58.4676 20.101 58.0529 20.101C57.5968 20.101 57.1613 20.101 56.7052 20.101C56.2491 20.101 55.8137 20.101 55.3575 20.101C55.1087 20.101 54.8392 20.101 54.5904 20.101H54.072C53.8647 20.101 53.6573 20.101 53.45 20.101C53.2841 20.101 53.0975 20.1217 52.9317 20.101L55.088 9.77551L55.2124 9.19496H55.2331C55.4819 9.19496 55.7515 9.21569 56.0003 9.19496C56.3113 9.19496 56.6223 9.19496 56.9125 9.19496C57.9907 9.17422 59.0688 9.15349 60.1263 9.25716C60.7897 9.3401 61.474 9.4645 62.1374 9.69257C63.1534 10.045 64.0242 10.6671 64.6669 11.5379C64.7706 11.683 64.8743 11.8282 64.978 11.994C66.0561 13.8186 67.1343 15.6432 68.1295 17.5093C68.5442 18.2557 68.399 19.0436 67.9429 19.5412C67.6319 19.8729 67.1757 20.0803 66.6366 20.0803C66.4708 20.0803 66.3049 20.0803 66.1598 20.0803C64.2937 20.101 62.4277 20.101 60.5409 20.101Z" fill="#F69F07"/>
<path d="M24.9608 13.3597C24.8986 12.5511 24.3803 12.1779 23.3021 12.1364C22.6801 12.1157 22.058 12.1157 21.436 12.1571C21.2494 12.1779 20.9591 12.3438 20.9384 12.4889C20.7725 13.4634 20.6689 14.4587 20.5237 15.5161C21.5604 15.5161 22.5142 15.5783 23.4472 15.4954C24.3803 15.3917 25.0438 14.3757 24.9608 13.3597ZM24.9608 13.3597C24.8986 12.5511 24.3803 12.1779 23.3021 12.1364C22.6801 12.1157 22.058 12.1157 21.436 12.1571C21.2494 12.1779 20.9591 12.3438 20.9384 12.4889C20.7725 13.4634 20.6689 14.4587 20.5237 15.5161C21.5604 15.5161 22.5142 15.5783 23.4472 15.4954C24.3803 15.3917 25.0438 14.3757 24.9608 13.3597ZM53.7193 5.95753C53.1387 2.86809 51.1897 1.00199 48.0588 0.753173C45.7573 0.566563 43.4558 0.483625 41.1543 0.483625C32.9435 0.462891 21.4568 0.462891 11.8153 0.462891C11.1311 0.462891 10.4676 0.608032 9.86629 0.836111C8.70517 1.313 7.75139 2.18385 7.19157 3.30352C6.92202 3.82188 6.75615 4.38171 6.67321 4.98301L0.0382424 34.2186C-0.189835 35.9811 1.19936 37.5569 2.98251 37.5569C5.90604 37.5569 11.0067 37.5776 11.919 37.5776C12.7069 37.5984 13.0386 37.3288 13.3082 36.6238C14.8633 32.6221 17.8283 30.3413 22.058 29.8644C25.728 29.4497 29.2528 31.5439 30.2481 35.359C30.4762 36.2506 30.5176 37.1837 30.6628 38.1167H46.2964L49.448 24.9296L53.8437 6.51736C53.7815 6.26855 53.7608 6.12341 53.7193 5.95753ZM16.6671 12.2608C15.6512 12.2816 14.6559 12.2608 13.6399 12.2608C13.4948 12.2608 13.3289 12.2815 13.1216 12.3023C13.0179 13.0695 12.8935 13.8159 12.7691 14.6868C13.6192 14.6868 14.3864 14.7075 15.1535 14.6868C15.7341 14.666 16.1902 14.7904 16.3147 15.4332C16.4183 15.9723 15.9414 16.5943 15.2779 16.6773C14.5937 16.7602 13.8887 16.7187 13.1838 16.7187C12.9764 16.7187 12.7691 16.7187 12.4788 16.7187C12.3129 17.7969 12.1885 18.8336 12.0019 19.8704C11.9605 20.1607 11.8775 20.5546 11.6702 20.6998C11.3384 20.9278 10.8615 21.1144 10.5091 21.0315C9.96996 20.9278 9.92849 20.3887 9.9907 19.8911C10.2602 17.9006 10.5505 15.9101 10.8408 13.9196C10.9445 13.1317 11.0481 12.3438 11.1933 11.5558C11.3592 10.6228 11.7531 10.2703 12.7069 10.2703C14.0131 10.2496 15.3401 10.2703 16.6464 10.2703C17.2477 10.2703 17.7453 10.4154 17.8075 11.1204C17.8905 11.7217 17.3721 12.2401 16.6671 12.2608ZM27.0343 13.5671C26.8477 15.0807 26.2256 16.3248 24.7328 17.1127C25.023 17.9421 25.2926 18.73 25.5414 19.4972C25.7695 20.2229 25.4585 20.8449 24.8157 21.0522C24.1937 21.2596 23.7583 20.99 23.4887 20.2229C23.2192 19.4764 22.9496 18.7092 22.7215 17.9628C22.5971 17.5688 22.4105 17.403 21.9544 17.3822C20.2127 17.3615 20.2127 17.3408 19.9639 19.0825C19.9017 19.4972 19.8809 19.9118 19.7565 20.3058C19.5699 20.8864 18.9272 21.2596 18.4088 21.073C17.849 20.8656 17.7453 20.4509 17.8283 19.8911C18.2222 17.1127 18.5954 14.3135 18.9894 11.5351C19.093 10.7472 19.5492 10.2703 20.3164 10.2703C21.7263 10.2496 23.157 10.2288 24.5669 10.374C26.3708 10.5399 27.2624 11.8047 27.0343 13.5671ZM33.296 21.1144C31.741 21.1144 30.1859 21.1144 28.6516 21.1144C27.8014 21.1144 27.449 20.762 27.5526 19.9118C27.8844 17.3615 28.2576 14.8112 28.6308 12.2608C28.6723 11.9705 28.7138 11.6802 28.7552 11.39C28.8796 10.5813 29.4187 10.2496 30.1652 10.2496C31.7202 10.2288 33.2753 10.2288 34.8096 10.2496C35.3487 10.2496 35.8049 10.4362 35.8049 11.0789C35.8049 11.7217 35.4317 12.0949 34.7889 12.1157C33.6278 12.1364 32.4667 12.1364 31.3055 12.1364H30.6628C30.6006 12.5718 30.5384 12.9865 30.4762 13.4012C30.414 13.7744 30.3725 14.1269 30.3103 14.5209C31.0153 14.5209 31.6788 14.5209 32.3215 14.5209C32.5911 14.5209 32.8606 14.5209 33.1509 14.5209C33.7315 14.5209 34.2705 14.5831 34.3327 15.3088C34.3327 15.4539 34.312 15.5783 34.2705 15.7027C34.1047 16.0967 33.69 16.387 33.1509 16.4077C32.1556 16.4492 31.1397 16.4077 30.0615 16.4077C29.9163 17.3408 29.7919 18.2116 29.6468 19.2069C30.9323 19.2069 32.1349 19.2069 33.3375 19.2069C33.9388 19.2069 34.5194 19.2276 34.5401 20.0362C34.5816 20.6998 34.1047 21.1144 33.296 21.1144ZM41.963 21.0937C40.2835 21.1144 38.604 21.1144 36.9245 21.0937C36.2403 21.0937 35.9293 20.6583 36.0122 20.0155C36.1366 19.0203 36.2818 18.0043 36.4269 17.009C36.6757 15.1429 36.9453 13.2975 37.2148 11.4314C37.3185 10.6435 37.8368 10.2496 38.6869 10.2496C40.2213 10.2288 41.7349 10.2496 43.2692 10.2496C43.8083 10.2496 44.2645 10.3947 44.3267 11.0375C44.3889 11.5973 43.912 12.1157 43.2692 12.1157C42.1288 12.1571 40.9884 12.1571 39.8481 12.1157C39.2882 12.0949 39.0394 12.2608 39.0394 12.8414C39.0394 13.3597 38.915 13.8988 38.8528 14.5209C39.8688 14.5209 40.8018 14.5209 41.7349 14.5209C42.2947 14.5209 42.8131 14.5831 42.8131 15.3088C42.8131 15.993 42.3569 16.3455 41.7349 16.387C40.9262 16.4492 40.1383 16.4077 39.3297 16.4077C39.1016 16.4077 38.8735 16.4077 38.5625 16.4077C38.4796 16.9883 38.3967 17.5481 38.3137 18.1494C38.2723 18.5019 38.2101 18.8544 38.1478 19.2276C38.8113 19.2276 39.4334 19.2276 40.0554 19.2276C40.6982 19.2276 41.3202 19.2276 41.963 19.2276C42.5435 19.2276 42.9997 19.3727 43.0619 20.0362C43.0826 20.3473 42.9375 20.6376 42.6887 20.8449C42.5021 20.99 42.2532 21.0937 41.963 21.0937ZM23.2814 12.1364C22.6593 12.1157 22.0373 12.1157 21.4153 12.1571C21.2287 12.1779 20.9384 12.3438 20.9177 12.4889C20.7518 13.4634 20.6481 14.4587 20.503 15.5161C21.5397 15.5161 22.4935 15.5783 23.4265 15.4954C24.3596 15.4125 25.023 14.3965 24.9401 13.3805C24.8986 12.5511 24.3803 12.1571 23.2814 12.1364ZM24.9608 13.3597C24.8986 12.5511 24.3803 12.1779 23.3021 12.1364C22.6801 12.1157 22.058 12.1157 21.436 12.1571C21.2494 12.1779 20.9591 12.3438 20.9384 12.4889C20.7725 13.4634 20.6689 14.4587 20.5237 15.5161C21.5604 15.5161 22.5142 15.5783 23.4472 15.4954C24.3803 15.3917 25.0438 14.3757 24.9608 13.3597ZM24.9608 13.3597C24.8986 12.5511 24.3803 12.1779 23.3021 12.1364C22.6801 12.1157 22.058 12.1157 21.436 12.1571C21.2494 12.1779 20.9591 12.3438 20.9384 12.4889C20.7725 13.4634 20.6689 14.4587 20.5237 15.5161C21.5604 15.5161 22.5142 15.5783 23.4472 15.4954C24.3803 15.3917 25.0438 14.3757 24.9608 13.3597Z" fill="#321B50"/>
<g opacity="0.3">
<path d="M53.8653 6.5381L49.4697 24.9503L48.2133 30.605L47.4283 33.7449L46.6434 35.3149L45.8584 34.5299L42.7185 31.39L39.5786 28.2501L32.5138 21.9702L27.8039 18.0453L23.0941 13.3354L16.0293 7.05552L9.86719 0.836111C10.4685 0.587297 11.132 0.462891 11.8162 0.462891C21.4577 0.462891 32.9444 0.462891 41.176 0.483625C43.4775 0.483625 45.779 0.566563 48.0805 0.753173C51.2113 1.00199 53.1604 2.88883 53.7409 5.95753C53.7617 6.12341 53.7824 6.26855 53.8653 6.5381Z" fill="#FDFEFE"/>
</g>
<path d="M20.7764 44.5661C17.3343 44.5661 15.0535 41.6839 15.8 38.2833C16.5464 34.9034 19.6567 32.6018 23.0987 32.9129C25.9186 33.1617 27.8677 35.8365 27.4323 38.8224C26.9554 41.9742 23.9488 44.5661 20.7764 44.5661Z" fill="#FBB946"/>
<path d="M21.3134 40.5697C20.235 40.5697 19.5092 39.6572 19.758 38.5996C19.9861 37.5419 20.9816 36.8161 22.06 36.899C22.9517 36.982 23.5531 37.8115 23.4287 38.7655C23.2628 39.7402 22.3296 40.5697 21.3134 40.5697Z" fill="#FCFCFC"/>
<path d="M54.3232 44.5661C50.8812 44.5661 48.6004 41.6839 49.3468 38.2833C50.0933 34.9034 53.2035 32.6018 56.6456 32.9129C59.4655 33.1617 61.4146 35.8365 60.9792 38.8224C60.5023 41.9742 57.5164 44.5661 54.3232 44.5661Z" fill="#FBB946"/>
<path d="M54.8817 40.5697C53.8034 40.5697 53.0775 39.6572 53.3264 38.5996C53.5545 37.5419 54.5499 36.8161 55.6283 36.899C56.5201 36.982 57.1215 37.8115 56.997 38.7655C56.8104 39.7402 55.8772 40.5697 54.8817 40.5697Z" fill="#FCFCFC"/>
<path d="M24.7342 17.1147C25.0245 17.944 25.2941 18.7319 25.5429 19.4991C25.7709 20.2248 25.4599 20.8468 24.8172 21.0541C24.1952 21.2615 23.7598 20.9919 23.4902 20.2248C23.2207 19.4783 22.9511 18.7112 22.7231 17.9648C22.5987 17.5708 22.4121 17.4049 21.9559 17.3842C20.2143 17.3635 20.2143 17.3427 19.9655 19.0844C19.9033 19.4991 19.8826 19.9137 19.7582 20.3077C19.5923 20.8882 18.9288 21.2615 18.4105 21.0748C17.8507 20.8675 17.747 20.4528 17.8299 19.893C18.2239 17.1147 18.5971 14.3156 18.991 11.5372C19.0947 10.7494 19.5508 10.2725 20.318 10.2725C21.7279 10.2517 23.1585 10.231 24.5684 10.3761C26.3307 10.542 27.2223 11.8068 26.9942 13.5899C26.8491 15.1035 26.2271 16.3475 24.7342 17.1147ZM20.5253 15.4974C21.562 15.4974 22.5157 15.5596 23.4488 15.4767C24.3818 15.3938 25.0453 14.3778 24.9623 13.3618C24.9001 12.5532 24.3818 12.18 23.3036 12.1385C22.6816 12.1178 22.0596 12.1178 21.4376 12.1593C21.251 12.18 20.9607 12.3459 20.94 12.491C20.7741 13.4655 20.6497 14.44 20.5253 15.4974Z" fill="white"/>
<path d="M30.6875 12.1399C30.5631 12.9485 30.4594 13.6949 30.335 14.5243C31.3302 14.5243 32.2632 14.5243 33.1755 14.5243C33.7561 14.5243 34.2951 14.5865 34.3573 15.3122C34.3988 15.872 33.8805 16.3696 33.1755 16.4111C32.1803 16.4525 31.1643 16.4111 30.0862 16.4111C29.9618 17.3441 29.8166 18.2149 29.6715 19.2101C30.957 19.2101 32.1596 19.2101 33.3621 19.2101C33.9634 19.2101 34.5439 19.2309 34.5647 20.0395C34.5854 20.6822 34.1085 21.0762 33.2999 21.0969C31.7449 21.0969 30.1899 21.0969 28.6556 21.0969C27.8055 21.0969 27.453 20.7444 27.5567 19.8944C27.9299 17.0538 28.3653 14.234 28.7592 11.3934C28.8836 10.5848 29.4227 10.2531 30.1691 10.2323C31.7241 10.2116 33.2792 10.2116 34.8135 10.2323C35.3525 10.2323 35.8087 10.419 35.8087 11.0617C35.8087 11.7045 35.4355 12.0777 34.7927 12.0984C33.6316 12.1191 32.4706 12.1191 31.3095 12.1191C31.1436 12.1399 30.957 12.1399 30.6875 12.1399Z" fill="white"/>
<path d="M38.1487 19.2299C39.4964 19.2299 40.7404 19.2299 41.9637 19.2299C42.5442 19.2299 43.0004 19.3751 43.0626 20.0386C43.104 20.5776 42.5857 21.096 41.9637 21.1167C40.2843 21.1375 38.6048 21.1375 36.9254 21.1167C36.2412 21.1167 35.9302 20.6813 36.0131 20.0386C36.3863 17.1773 36.7803 14.316 37.1949 11.4547C37.3193 10.6668 37.817 10.2729 38.667 10.2729C40.2013 10.2522 41.7149 10.2729 43.2492 10.2729C43.7883 10.2729 44.2444 10.418 44.3066 11.0608C44.3688 11.6206 43.8919 12.1182 43.2492 12.1389C42.1088 12.1597 40.9685 12.1804 39.8281 12.1389C39.2683 12.1182 39.0195 12.2841 39.0195 12.8646C39.0195 13.4037 38.8951 13.9221 38.8329 14.5441C39.8489 14.5441 40.7819 14.5441 41.7149 14.5441C42.2747 14.5441 42.793 14.6063 42.793 15.332C42.793 16.0369 42.3369 16.3687 41.7149 16.4101C40.927 16.4723 40.1184 16.4309 39.3098 16.4309C39.0817 16.4309 38.8536 16.4309 38.5426 16.4309C38.4182 17.3639 38.2938 18.2347 38.1487 19.2299Z" fill="white"/>
<path d="M13.1253 12.3041C13.0216 13.0712 12.8972 13.8176 12.7728 14.6885C13.6229 14.6885 14.39 14.7092 15.1572 14.6885C15.7377 14.6677 16.1939 14.7921 16.3183 15.4349C16.4219 15.974 15.9451 16.596 15.2816 16.6582C14.5974 16.7411 13.8924 16.6997 13.1875 16.6997C12.9801 16.6997 12.7728 16.6997 12.4825 16.6997C12.3167 17.7778 12.1923 18.8145 12.0057 19.8512C11.9642 20.1415 11.8813 20.5354 11.6739 20.6806C11.3422 20.8879 10.8653 21.0952 10.5128 21.0123C9.97375 20.9086 9.93228 20.3696 9.99449 19.8719C10.264 17.8815 10.5543 15.891 10.8446 13.9006C10.9482 13.1127 11.0519 12.3248 11.197 11.5369C11.3629 10.6039 11.7569 10.2514 12.7106 10.2514C14.0376 10.2307 15.3438 10.2514 16.6707 10.2514C17.272 10.2514 17.7696 10.3965 17.8318 11.1015C17.894 11.7235 17.3757 12.2419 16.65 12.2626C15.6341 12.2833 14.6388 12.2626 13.6229 12.2626C13.4985 12.2833 13.3533 12.3041 13.1253 12.3041Z" fill="white"/>
<path d="M67.9696 19.5406C67.6586 19.8724 67.2024 20.0797 66.6633 20.0797C66.4974 20.0797 66.3315 20.0797 66.1864 20.0797C64.3202 20.0797 62.4332 20.1005 60.567 20.0797H59.3643C58.9289 20.0797 58.4934 20.0797 58.0787 20.0797C57.6226 20.0797 57.1871 20.0797 56.7309 20.0797C56.2747 20.0797 55.8393 20.0797 55.3831 20.0797C55.1343 20.0797 54.8647 20.0797 54.6159 20.0797H54.0975C53.8901 20.0797 53.6828 20.0797 53.4754 20.0797C53.3095 20.0797 53.1229 20.1005 52.957 20.0797L54.4293 13.0503L55.1135 9.7533L55.238 9.17269H55.2587C55.5075 9.17269 55.7771 9.19343 56.0259 9.17269C56.3369 9.17269 56.648 9.17269 56.9383 9.17269C58.7008 9.13122 60.4426 9.06902 62.1637 9.69109C63.1797 10.0436 64.0506 10.6657 64.6934 11.5366C64.7971 11.6817 64.9008 11.8269 65.0044 11.9928C66.0827 13.8175 67.1609 15.6423 68.1563 17.5085C68.571 18.255 68.4466 19.043 67.9696 19.5406Z" fill="#24292F"/>
<path opacity="0.2" d="M70.952 17.842C69.6664 15.5611 68.443 13.218 67.0952 10.9577C66.639 10.1698 65.9755 9.46477 65.2912 8.86343C63.3628 7.14236 61.0197 6.56175 58.4692 6.56175C56.9348 6.56175 55.3796 6.56175 53.8659 6.56175C53.8659 6.56175 53.8659 6.56175 53.8659 6.54102L53.5963 7.64002L53.4512 8.22062L55.11 9.75507L55.2344 9.17447H55.2552C55.504 9.17447 55.7736 9.1952 56.0224 9.17447C56.3334 9.17447 56.6445 9.17447 56.9348 9.17447C58.6973 9.133 60.4391 9.07079 62.1601 9.69286C63.1762 10.0454 64.0471 10.6674 64.6899 11.5384C64.7936 11.6835 64.8972 11.8287 65.0009 11.9945C66.0792 13.8193 67.1574 15.644 68.1527 17.5103C68.8163 18.7337 68.0491 20.0815 66.6598 20.0815C66.4939 20.0815 66.328 20.0815 66.1828 20.0815L71.5534 25.0789C71.6363 24.5812 71.74 24.0835 71.8229 23.5859C72.2169 21.5745 71.9681 19.6668 70.952 17.842Z" fill="#FDFEFE"/>
<path opacity="0.3" d="M66.2648 20.1624L55.1094 9.75328L55.2338 9.17269H55.2545C55.5033 9.17269 55.7729 9.19343 56.0217 9.17269C56.3327 9.17269 56.6438 9.17269 56.9341 9.17269C58.6965 9.13122 60.4383 9.06902 62.1593 9.69107C63.1753 10.0436 64.0462 10.6656 64.6889 11.5365C64.7926 11.6817 64.8963 11.8268 65 11.9927C66.0782 13.8174 67.1564 15.6421 68.1517 17.5082C68.6493 18.5036 68.6493 20.0587 66.2648 20.1624Z" fill="white"/>
</svg>
