<svg width="72" height="68" viewBox="0 0 72 68" fill="none" xmlns="http://www.w3.org/2000/svg">
<g filter="url(#filter0_d_2365_8788)">
<path d="M65.5 30C65.5 45.3731 52.3855 58 36 58C19.6145 58 6.5 45.3731 6.5 30C6.5 14.6269 19.6145 2 36 2C52.3855 2 65.5 14.6269 65.5 30Z" stroke="#FCB945" stroke-width="4" shape-rendering="crispEdges"/>
</g>
<path d="M15.5002 40.3502V41.1253C15.5018 42.1526 16.004 43.1376 16.8965 43.864C17.7894 44.5906 18.9995 44.9992 20.262 45.0002H27.8812C29.1437 44.9992 30.3538 44.5905 31.2467 43.864C32.1393 43.1376 32.6415 42.1526 32.643 41.1253V40.3502C32.6414 39.1342 32.2011 37.9453 31.3764 36.9312C30.5518 35.9171 29.3796 35.1223 28.0049 34.6454C29.5288 33.7395 30.5091 32.3502 30.703 30.8226C30.8968 29.295 30.2859 27.772 29.0218 26.6316C27.7578 25.4911 25.9587 24.8403 24.0715 24.8403C22.1843 24.8403 20.3853 25.4911 19.1212 26.6316C17.8572 27.772 17.2462 29.295 17.4401 30.8226C17.634 32.3502 18.6142 33.7395 20.1381 34.6454C18.7634 35.1223 17.5913 35.9171 16.7666 36.9312C15.942 37.9452 15.5016 39.1342 15.5 40.3502H15.5002ZM19.3098 30.2756C19.3098 29.2478 19.8114 28.2622 20.7046 27.5354C21.5975 26.8088 22.8085 26.4004 24.0716 26.4004C25.3347 26.4004 26.5458 26.8088 27.4386 27.5354C28.3318 28.2622 28.8334 29.2478 28.8334 30.2756C28.8334 31.3032 28.3318 32.289 27.4386 33.0155C26.5457 33.7423 25.3347 34.1505 24.0716 34.1505C22.8091 34.1492 21.5987 33.7405 20.7061 33.0143C19.8132 32.2877 19.311 31.3029 19.3098 30.2756ZM23.1194 35.7007H25.0241V35.7005C26.5391 35.7018 27.9916 36.1922 29.063 37.0638C30.1341 37.9357 30.7368 39.1176 30.7384 40.3505V41.1256C30.7384 41.7421 30.4374 42.3335 29.9013 42.7697C29.3656 43.2056 28.6389 43.4506 27.8812 43.4506H20.262C19.5043 43.4506 18.7776 43.2056 18.2419 42.7697C17.7058 42.3335 17.4048 41.7421 17.4048 41.1256V40.3505C17.4064 39.1176 18.0091 37.9357 19.0802 37.0638C20.1516 36.1922 21.6041 35.7017 23.1191 35.7005L23.1194 35.7007Z" fill="#7858A1"/>
<path d="M34.9366 25.4367L35.3489 26.7782C35.4672 27.162 35.8176 27.4706 36.2784 27.5966C36.7392 27.723 37.2472 27.6501 37.627 27.4028L41.2881 25.0197C41.4567 24.9104 41.6659 24.8507 41.8815 24.85H49.7861C50.5438 24.85 51.2706 24.605 51.8066 24.1691C52.3423 23.7329 52.6433 23.1415 52.6433 22.5249V16.325C52.6433 15.7082 52.3423 15.1168 51.8066 14.6809C51.2705 14.245 50.5438 14 49.7861 14H32.6433C31.8856 14 31.1589 14.245 30.6229 14.6809C30.0872 15.1168 29.7861 15.7082 29.7861 16.325V22.5249C29.7861 23.1415 30.0872 23.7329 30.6229 24.1691C31.1589 24.605 31.8856 24.85 32.6433 24.85H34.0128C34.4497 24.85 34.8304 25.0918 34.9366 25.4367ZM32.6432 23.3001C32.1173 23.3001 31.6907 22.9529 31.6907 22.525V16.3251C31.6907 15.8969 32.1173 15.55 32.6432 15.55H49.786C50.0386 15.55 50.2809 15.6317 50.4595 15.777C50.6381 15.9223 50.7385 16.1195 50.7385 16.3251V22.525C50.7385 22.7305 50.6381 22.9277 50.4595 23.073C50.2809 23.2183 50.0386 23.3001 49.786 23.3001H41.8814C41.2325 23.3001 40.603 23.4799 40.0966 23.81L37.0157 25.8155L36.7842 25.0607C36.6295 24.5578 36.273 24.1115 35.7708 23.7923C35.2685 23.4734 34.65 23.3001 34.0128 23.3001L32.6432 23.3001Z" fill="#7858A1"/>
<path d="M52.6434 31.0498H37.405C36.6473 31.0498 35.9206 31.2948 35.3849 31.731C34.8489 32.1669 34.5479 32.7583 34.5479 33.3748V39.575C34.5479 40.1916 34.8489 40.783 35.3849 41.2189C35.9206 41.6551 36.6474 41.9 37.405 41.9H43.405C43.6209 41.9006 43.8304 41.9602 43.9994 42.0697L47.6605 44.4529C48.0402 44.7004 48.5492 44.7736 49.0102 44.6467C49.4713 44.5201 49.8218 44.211 49.9395 43.8267L50.3499 42.4875C50.4557 42.1424 50.8365 41.9 51.2736 41.9H52.6432C53.4008 41.9 54.1276 41.6551 54.6636 41.2189C55.1993 40.7829 55.5003 40.1915 55.5003 39.575V33.3748C55.5003 32.7583 55.1993 32.1669 54.6636 31.731C54.1276 31.2948 53.4008 31.0498 52.6432 31.0498L52.6434 31.0498ZM53.5959 39.5746V39.5749C53.5959 39.7804 53.4954 39.9774 53.3168 40.1229C53.1383 40.2682 52.8959 40.3497 52.6434 40.3497H51.2738C50.6364 40.3495 50.0171 40.5228 49.5146 40.842C49.012 41.1611 48.6549 41.608 48.5005 42.1114L48.27 42.8655L45.189 40.8599C44.6829 40.5301 44.0538 40.3503 43.4051 40.3498H37.4051C36.8793 40.3498 36.453 40.0028 36.453 39.5749V33.3747C36.453 32.9468 36.8793 32.5999 37.4051 32.5999H52.6435C52.8961 32.5999 53.1384 32.6814 53.317 32.8267C53.4956 32.9723 53.596 33.1692 53.596 33.3747L53.5959 39.5746Z" fill="#7858A1"/>
<path d="M37.4043 20.2003H45.0236C45.5494 20.2003 45.9757 19.8534 45.9757 19.4252C45.9757 18.9973 45.5494 18.6504 45.0236 18.6504H37.4043C36.8785 18.6504 36.4521 18.9973 36.4521 19.4252C36.4521 19.8534 36.8785 20.2003 37.4043 20.2003Z" fill="#7858A1"/>
<path d="M48.8341 35.6997H41.2152C40.6894 35.6997 40.2627 36.0469 40.2627 36.4748C40.2627 36.9027 40.6894 37.2499 41.2152 37.2499H48.8341C49.3603 37.2499 49.7866 36.9027 49.7866 36.4748C49.7866 36.0469 49.3603 35.6997 48.8341 35.6997Z" fill="#7858A1"/>
<defs>
<filter id="filter0_d_2365_8788" x="0.5" y="0" width="71" height="68" filterUnits="userSpaceOnUse" color-interpolation-filters="sRGB">
<feFlood flood-opacity="0" result="BackgroundImageFix"/>
<feColorMatrix in="SourceAlpha" type="matrix" values="0 0 0 0 0 0 0 0 0 0 0 0 0 0 0 0 0 0 127 0" result="hardAlpha"/>
<feOffset dy="4"/>
<feGaussianBlur stdDeviation="2"/>
<feComposite in2="hardAlpha" operator="out"/>
<feColorMatrix type="matrix" values="0 0 0 0 0 0 0 0 0 0 0 0 0 0 0 0 0 0 0.25 0"/>
<feBlend mode="normal" in2="BackgroundImageFix" result="effect1_dropShadow_2365_8788"/>
<feBlend mode="normal" in="SourceGraphic" in2="effect1_dropShadow_2365_8788" result="shape"/>
</filter>
</defs>
</svg>
