<svg width="72" height="68" viewBox="0 0 72 68" fill="none" xmlns="http://www.w3.org/2000/svg">
<g filter="url(#filter0_d_2365_8777)">
<path d="M65.5 30C65.5 45.3731 52.3855 58 36 58C19.6145 58 6.5 45.3731 6.5 30C6.5 14.6269 19.6145 2 36 2C52.3855 2 65.5 14.6269 65.5 30Z" stroke="#FCB945" stroke-width="4" shape-rendering="crispEdges"/>
</g>
<path d="M23.2842 41.7577C24.0312 41.7577 24.6384 42.383 24.6384 43.1517C24.6384 43.9199 24.0303 44.5461 23.2842 44.5461C22.5382 44.5461 21.93 43.9199 21.93 43.1517C21.9295 42.3835 22.5372 41.7577 23.2842 41.7577ZM23.2842 39.062C21.0903 39.062 19.3115 40.8932 19.3115 43.1517C19.3115 45.4116 21.0909 47.2423 23.2842 47.2423C25.4777 47.2423 27.2569 45.4111 27.2569 43.1517C27.2565 40.8931 25.478 39.062 23.2842 39.062Z" fill="#7858A1"/>
<path d="M58.2886 42.2909H50.2189V40.943H58.2876C58.3826 40.943 58.4625 40.8608 58.4625 40.7625V38.4743C58.4625 38.3761 58.3826 38.2938 58.2876 38.2938H57.2736C56.4549 38.2938 55.7878 37.6078 55.7878 36.7644V28.0391C55.7878 27.7161 55.6098 27.1661 55.4198 26.9089L49.6067 18.9903C49.456 18.7854 49.0478 18.5766 48.7985 18.5766H41.2288C41.1338 18.5766 41.0539 18.6594 41.0539 18.7581V36.7657C41.0539 37.6087 40.3869 38.2951 39.5682 38.2951H14.7885C14.6936 38.2951 14.6137 38.3773 14.6137 38.4756V40.7638C14.6137 40.8621 14.6936 40.9443 14.7885 40.9443H20.5456V42.2922H14.7885C13.9703 42.2922 13.3047 41.6063 13.3047 40.7638V38.4756C13.3047 37.6331 13.9704 36.9472 14.7885 36.9472H39.567C39.6625 36.9472 39.7437 36.8645 39.7437 36.7657L39.7442 18.7569C39.7442 17.9139 40.4099 17.2275 41.228 17.2275H48.7987C49.458 17.2275 50.2543 17.6351 50.6519 18.1772L56.4651 26.0958C56.8258 26.5871 57.0975 27.4221 57.0975 28.0384V36.7647C57.0975 36.863 57.1778 36.9462 57.2741 36.9462H58.2882C59.1064 36.9462 59.7721 37.6321 59.7721 38.4746V40.7628C59.7707 41.6053 59.1059 42.2907 58.2878 42.2907L58.2886 42.2909Z" fill="#7858A1"/>
<path d="M26.2188 40.9429H45.4732V42.2907H26.2188V40.9429Z" fill="#7858A1"/>
<path d="M37.3175 36.1769H15.7744C14.9562 36.1769 14.29 35.4909 14.29 34.6485V14.2867C14.29 13.4437 14.9562 12.7573 15.7744 12.7573H37.3175C38.1361 12.7573 38.8032 13.4433 38.8032 14.2867V34.6497C38.8032 35.4917 38.1361 36.1776 37.3175 36.1776V36.1769ZM15.7744 14.1048C15.6789 14.1048 15.599 14.1876 15.599 14.2863V34.6493C15.599 34.7475 15.6789 34.8298 15.7744 34.8298L37.3175 34.8293C37.4129 34.8293 37.4942 34.7471 37.4942 34.6488V14.2858C37.4942 14.1876 37.4138 14.1044 37.3175 14.1044L15.7744 14.1048Z" fill="#7858A1"/>
<path d="M51.9048 27.8577H44.1616C43.3434 27.8577 42.6777 27.1718 42.6777 26.3284V22.4864C42.6777 21.6434 43.3434 20.957 44.1616 20.957H47.8499C48.5106 20.957 49.3069 21.366 49.7031 21.9095L52.7586 26.0951C53.0444 26.4854 53.107 26.9188 52.9307 27.2832C52.7531 27.649 52.3796 27.8577 51.9048 27.8577ZM44.1616 22.3063C44.0666 22.3063 43.9867 22.3891 43.9867 22.4878V26.3298C43.9867 26.4281 44.0666 26.5113 44.1616 26.5113H51.4207L48.6566 22.7215C48.5069 22.5161 48.0996 22.3078 47.8503 22.3078L44.1615 22.3069L44.1616 22.3063Z" fill="#7858A1"/>
<path d="M47.8535 41.7577C48.6005 41.7577 49.2078 42.383 49.2078 43.1517C49.2078 43.9199 48.5996 44.5461 47.8535 44.5461C47.1075 44.5461 46.4993 43.9199 46.4993 43.1517C46.4993 42.3835 47.1075 41.7577 47.8535 41.7577ZM47.8535 39.062C45.6596 39.062 43.8809 40.8932 43.8809 43.1517C43.8809 45.4116 45.6602 47.2423 47.8535 47.2423C50.0469 47.2423 51.8262 45.4111 51.8262 43.1517C51.8262 40.8931 50.0478 39.062 47.8535 39.062Z" fill="#7858A1"/>
<defs>
<filter id="filter0_d_2365_8777" x="0.5" y="0" width="71" height="68" filterUnits="userSpaceOnUse" color-interpolation-filters="sRGB">
<feFlood flood-opacity="0" result="BackgroundImageFix"/>
<feColorMatrix in="SourceAlpha" type="matrix" values="0 0 0 0 0 0 0 0 0 0 0 0 0 0 0 0 0 0 127 0" result="hardAlpha"/>
<feOffset dy="4"/>
<feGaussianBlur stdDeviation="2"/>
<feComposite in2="hardAlpha" operator="out"/>
<feColorMatrix type="matrix" values="0 0 0 0 0 0 0 0 0 0 0 0 0 0 0 0 0 0 0.25 0"/>
<feBlend mode="normal" in2="BackgroundImageFix" result="effect1_dropShadow_2365_8777"/>
<feBlend mode="normal" in="SourceGraphic" in2="effect1_dropShadow_2365_8777" result="shape"/>
</filter>
</defs>
</svg>
