<svg width="119" height="169" viewBox="0 0 119 169" fill="none" xmlns="http://www.w3.org/2000/svg">
<g clip-path="url(#clip0_5105_5983)">
<path fill-rule="evenodd" clip-rule="evenodd" d="M12.5942 57.2087C13.2462 57.9416 14.2309 63.2574 15.0245 65.6525C15.8599 68.1741 16.9991 70.8522 18.2718 73.0098C19.7409 75.4985 23.0669 80.3924 25.0834 82.1636C27.8253 84.5765 27.0737 84.2884 30.7479 87.1762C33.3615 89.2303 37.7638 91.7266 41.0085 93.0075C55.8101 98.8514 71.3921 97.6312 84.7822 89.4729C94.8568 83.3384 102.203 73.2221 105.007 61.8072L105.858 57.9693C106.141 57.3123 105.927 57.6333 106.314 57.1987C106.916 31.7941 85.3321 11.1876 59.4528 11.1851C33.694 11.1825 11.84 31.9407 12.5942 57.2087Z" fill="#FFBA57"/>
<path fill-rule="evenodd" clip-rule="evenodd" d="M5.53881 33.0674C7.77792 28.7823 8.10003 28.1028 10.9284 24.0805C12.8008 21.4149 15.3253 18.6609 17.6587 16.3896L25.7613 10.0202C30.3915 7.06158 30.2133 7.25106 35.1551 4.89884C49.2863 -1.82685 70.2134 -1.43776 83.7448 4.9039C90.2866 7.9686 95.9799 11.2658 101.246 16.3896C111.672 26.5337 118.905 40.9477 118.905 55.7229C118.201 57.3223 118.245 59.96 117.879 61.8979C109.894 104.099 56.2969 125.643 18.4968 93.1363C16.3493 91.2893 13.6939 88.2347 11.8083 85.7082C-0.104754 69.7454 1.34869 59.0126 0 55.9706C0 47.7466 2.63978 38.6183 5.53881 33.0674ZM16.8391 75.9304C26.8325 97.9771 54.4375 108.69 78.7062 98.4168C81.3355 97.3025 83.9412 95.8827 86.073 94.4172C93.0992 89.5889 98.5647 83.5707 102.061 75.9228C105.272 68.9015 105.507 65.3239 106.314 57.1985C106.916 31.7941 85.3318 11.1874 59.4526 11.1849C33.6938 11.1824 11.8397 31.9406 12.5939 57.2087C13.3586 65.3138 13.6912 68.9874 16.8391 75.9304Z" fill="#FFE179"/>
<g filter="url(#filter0_d_5105_5983)">
<path fill-rule="evenodd" clip-rule="evenodd" d="M56.8966 121.683C49.2653 121.234 43.0089 120.097 36.4383 117.767C32.3031 116.302 23.0902 112.075 20.8615 109.75C20.0759 110.622 16.3021 121.623 15.7836 123.129C14.8172 125.928 7.4505 144.367 8.15497 145.951C8.81491 147.434 11.8554 146.635 13.1595 146.502C15.2913 146.279 16.8862 146.249 18.9969 145.966C21.0841 145.686 22.6947 145.632 24.7452 145.343C29.6895 144.642 29.8441 146.408 36.2 152.54C39.1487 155.386 40.7541 157.859 43.4698 157.859C46.052 154.14 48.4927 144.553 50.4098 139.883L55.3436 126.14C55.7495 125.092 56.7447 122.927 56.8966 121.683Z" fill="#493169"/>
</g>
<g filter="url(#filter1_d_5105_5983)">
<path fill-rule="evenodd" clip-rule="evenodd" d="M62.0083 121.683L74.2644 155.904C74.7986 157.391 74.7096 156.815 75.435 157.859C78.1429 157.859 79.5649 155.57 82.5477 152.694C84.7555 150.565 86.7509 148.667 88.9298 146.517C90.255 145.211 90.8363 144.949 93.6045 145.259C95.4402 145.464 97.2682 145.691 99.3789 145.858C115.168 147.121 112.78 151.189 103.202 123.358L98.0434 109.75C95.8592 112.08 86.4209 116.37 82.2493 117.858C76.0007 120.092 69.2205 121.259 62.0083 121.683Z" fill="#493169"/>
</g>
<path fill-rule="evenodd" clip-rule="evenodd" d="M-3.05176e-05 55.9708C-3.05176e-05 72.4236 4.75051 82.9367 13.8771 94.2051C15.5715 96.2971 20.8772 101.06 23.0142 102.725C24.5069 103.301 29.4356 107.669 38.6905 110.974C56.3283 117.275 76.509 115.261 92.0726 105.15C93.1175 104.471 94.9246 103.104 95.8909 102.732C96.4304 102.305 96.6137 102.085 97.1296 101.689L100.644 98.6089C104.434 95.7084 110.101 87.9266 112.196 83.8514C116.475 75.5238 118.905 68.1993 118.905 55.7231C118.201 57.3225 118.245 59.9602 117.879 61.8981C109.894 104.099 56.2969 125.643 18.4968 93.1364C16.3493 91.2895 13.6938 88.2349 11.8083 85.7084C-0.104784 69.7455 1.34866 59.0128 -3.05176e-05 55.9708Z" fill="#F9CE58"/>
<path d="M36.5278 117.457C34.4729 116.729 31.1462 115.311 28.0547 113.784C26.5094 113.02 25.0269 112.232 23.7942 111.492C22.6228 110.788 21.6977 110.139 21.1545 109.606C21.1673 108.655 21.5955 107.593 22.098 106.431C22.1321 106.352 22.1666 106.273 22.2012 106.193C22.6227 105.222 23.0695 104.194 23.2474 103.192C23.5821 103.375 24.0396 103.673 24.6404 104.072C24.7272 104.129 24.8166 104.189 24.9086 104.25C25.6819 104.764 26.6433 105.404 27.799 106.112C30.3871 107.696 33.9505 109.624 38.6 111.284C56.3121 117.615 76.5804 115.593 92.2213 105.432C92.5129 105.242 92.8708 104.994 93.25 104.731C93.5487 104.524 93.8605 104.308 94.1638 104.104C94.7135 103.735 95.2389 103.401 95.6565 103.19C95.8339 104.189 96.2802 105.217 96.7016 106.187C96.7372 106.269 96.7727 106.351 96.8076 106.432C97.3101 107.594 97.738 108.658 97.7503 109.608C97.2173 110.141 96.2877 110.793 95.1008 111.504C93.8528 112.252 92.3454 113.049 90.7724 113.822C87.6256 115.368 84.233 116.809 82.1591 117.548C75.9949 119.752 69.304 120.915 62.1799 121.347C61.8688 120.686 61.3947 119.541 60.9713 118.385C60.7392 117.752 60.5242 117.121 60.3608 116.57C60.1952 116.011 60.0896 115.558 60.0649 115.271L60.0393 114.976H59.7719H59.1328H58.8654L58.8399 115.271C58.8151 115.558 58.7096 116.011 58.5439 116.57C58.3804 117.121 58.1655 117.752 57.9334 118.385C57.5101 119.541 57.036 120.686 56.7249 121.347C49.1986 120.891 43.0163 119.757 36.5278 117.457Z" fill="#351B5C" stroke="#FFBA57" stroke-width="0.457327"/>
<path fill-rule="evenodd" clip-rule="evenodd" d="M106.314 57.1982C105.926 57.6328 106.141 57.3119 105.858 57.9688L105.007 61.8067C102.202 73.2216 94.8562 83.3379 84.7816 89.4724C71.3915 97.6306 55.8095 98.851 41.0079 93.007C37.7632 91.7262 33.3636 89.2299 30.7473 87.1758C27.0732 84.288 27.8247 84.5759 25.0829 82.1631C23.0663 80.392 19.7405 75.4981 18.2712 73.0094C16.9985 70.8517 15.8593 68.1735 15.0239 65.6521C14.2305 63.2569 13.2458 57.941 12.5937 57.2083C13.3583 65.3135 13.6909 68.9871 16.8387 75.93C26.8322 97.9769 54.4372 108.689 78.7059 98.4164C81.3353 97.3022 83.9409 95.8823 86.0726 94.4169C93.099 89.5887 98.5645 83.5704 102.061 75.9225C105.271 68.9012 105.507 65.3236 106.314 57.1982Z" fill="#FFAC3E"/>
<path d="M71.4522 53.5931C73.7909 51.3342 76.6087 50.2252 79.9398 50.2252C83.2736 50.2252 86.0888 51.3342 88.4301 53.5931C90.7713 55.8518 91.921 58.5299 91.921 61.6679C91.921 64.8059 90.7713 67.4865 88.4301 69.7427C86.0888 71.9636 83.2736 73.1106 79.9398 73.1106C76.6087 73.1106 73.7909 71.9636 71.4522 69.7427L63.2396 61.5138L71.4522 53.5931ZM51.3004 48.3125C48.9618 46.0538 47.8095 43.3757 47.8095 40.2376C47.8095 37.0996 48.9618 34.419 51.3004 32.1628C53.6416 29.9419 56.4175 28.7949 59.6701 28.7949C62.9227 28.7949 65.7013 29.9419 68.0426 32.1628C70.3419 34.419 71.5334 37.0996 71.5334 40.2376C71.5334 43.3757 70.3419 46.0538 68.0426 48.3125L59.7906 56.5011L51.3004 48.3125ZM47.215 69.7454C44.8737 71.9661 42.0978 73.1132 38.8426 73.1132C35.632 73.1132 32.814 71.9661 30.4729 69.7454C28.1735 67.4891 26.9819 64.8084 26.9819 61.6704C26.9819 58.5325 28.1735 55.8542 30.4729 53.5956C32.814 51.3369 35.632 50.2277 38.8426 50.2277C42.0978 50.2277 44.8737 51.3369 47.215 53.5956L55.7026 61.7842L47.215 69.7454Z" fill="#FFF0B5"/>
<path d="M63.428 76.7817L64.2372 79.1971L66.8691 79.192L64.7374 80.6802L65.5545 83.0931L63.428 81.5974L61.3015 83.0931L62.1212 80.6802L59.9895 79.192L62.6215 79.1971L63.428 76.7817Z" fill="#FFF0B5"/>
<path d="M54.4527 76.7817L55.2619 79.1971L57.8913 79.192L55.7594 80.6802L56.5792 83.0931L54.4527 81.5974L52.3263 83.0931L53.1433 80.6802L51.0116 79.192L53.6435 79.1971L54.4527 76.7817Z" fill="#FFF0B5"/>
</g>
<defs>
<filter id="filter0_d_5105_5983" x="4.44895" y="109.75" width="56.1062" height="55.4261" filterUnits="userSpaceOnUse" color-interpolation-filters="sRGB">
<feFlood flood-opacity="0" result="BackgroundImageFix"/>
<feColorMatrix in="SourceAlpha" type="matrix" values="0 0 0 0 0 0 0 0 0 0 0 0 0 0 0 0 0 0 127 0" result="hardAlpha"/>
<feOffset dy="3.65862"/>
<feGaussianBlur stdDeviation="1.82931"/>
<feComposite in2="hardAlpha" operator="out"/>
<feColorMatrix type="matrix" values="0 0 0 0 0 0 0 0 0 0 0 0 0 0 0 0 0 0 0.25 0"/>
<feBlend mode="normal" in2="BackgroundImageFix" result="effect1_dropShadow_5105_5983"/>
<feBlend mode="normal" in="SourceGraphic" in2="effect1_dropShadow_5105_5983" result="shape"/>
</filter>
<filter id="filter1_d_5105_5983" x="58.3497" y="109.75" width="56.1195" height="55.4261" filterUnits="userSpaceOnUse" color-interpolation-filters="sRGB">
<feFlood flood-opacity="0" result="BackgroundImageFix"/>
<feColorMatrix in="SourceAlpha" type="matrix" values="0 0 0 0 0 0 0 0 0 0 0 0 0 0 0 0 0 0 127 0" result="hardAlpha"/>
<feOffset dy="3.65862"/>
<feGaussianBlur stdDeviation="1.82931"/>
<feComposite in2="hardAlpha" operator="out"/>
<feColorMatrix type="matrix" values="0 0 0 0 0 0 0 0 0 0 0 0 0 0 0 0 0 0 0.25 0"/>
<feBlend mode="normal" in2="BackgroundImageFix" result="effect1_dropShadow_5105_5983"/>
<feBlend mode="normal" in="SourceGraphic" in2="effect1_dropShadow_5105_5983" result="shape"/>
</filter>
<clipPath id="clip0_5105_5983">
<rect width="118.905" height="168.296" fill="white"/>
</clipPath>
</defs>
</svg>
