<svg width="71" height="38" viewBox="0 0 71 38" fill="none" xmlns="http://www.w3.org/2000/svg">
<path d="M17.3986 3.2781L17.7499 3.62528L18.1014 3.27816L20.914 0.5H69.5224C70.0665 0.5 70.5 0.935768 70.5 1.46129V36.5398C70.5 37.0647 70.0669 37.5 69.5224 37.5H20.9139L18.1012 34.7238L17.7499 34.377L17.3987 34.7238L14.5871 37.5H1.47981C0.932446 37.5 0.5 37.0644 0.5 36.5398V1.46129C0.5 0.936224 0.932938 0.5 1.47981 0.5H14.587L17.3986 3.2781ZM15.7712 27.7702C15.7712 28.8595 16.663 29.7304 17.75 29.7304C18.8377 29.7304 19.7298 28.8597 19.7298 27.7702C19.7298 26.6806 18.8377 25.81 17.75 25.81C16.663 25.81 15.7712 26.6809 15.7712 27.7702ZM15.7712 21.9252C15.7712 23.012 16.6626 23.8854 17.75 23.8854C18.8382 23.8854 19.7298 23.0122 19.7298 21.9252C19.7298 20.8357 18.8389 19.9618 17.75 19.9618C16.6618 19.9618 15.7712 20.8361 15.7712 21.9252ZM15.7712 16.077C15.7712 17.1654 16.6621 18.0393 17.75 18.0393C18.8386 18.0393 19.7298 17.1658 19.7298 16.077C19.7298 14.9878 18.8382 14.1157 17.75 14.1157C16.6625 14.1157 15.7712 14.9882 15.7712 16.077ZM15.7712 10.2308C15.7712 11.3198 16.6626 12.1921 17.75 12.1921C18.8382 12.1921 19.7298 11.32 19.7298 10.2308C19.7298 9.14157 18.8382 8.26949 17.75 8.26949C16.6626 8.26949 15.7712 9.14178 15.7712 10.2308Z" fill="#FCE193" stroke="#FFBD00"/>
<path d="M0.781274 1.46129C0.781274 1.09496 1.08486 0.781274 1.47981 0.781274H14.4714L16.9687 3.24879V8.1262C16.1091 8.44061 15.4899 9.25918 15.4899 10.2309C15.4899 11.2027 16.1091 12.0212 16.9687 12.3356V13.9723C16.1091 14.2868 15.4899 15.1054 15.4899 16.077C15.4899 17.0482 16.1088 17.8678 16.9687 18.1826V19.8185C16.1086 20.1334 15.4899 20.9535 15.4899 21.9252C15.4899 22.8952 16.1091 23.7141 16.9687 24.0287V25.6665C16.1094 25.9805 15.4899 26.7981 15.4899 27.7702C15.4899 28.7423 16.1094 29.5598 16.9687 29.8739V34.7531L14.4716 37.2187H1.47981C1.08409 37.2187 0.781274 36.9054 0.781274 36.5398V1.46129Z" fill="#FCE193" stroke="#FFBD00" stroke-width="1.56255"/>
<path d="M66 21.7946C65.7214 21.7946 65.445 21.7946 65.1495 21.7946C65.1495 21.6025 65.1495 21.4168 65.1495 21.1952C64.4151 21.7925 63.6237 22.0563 62.7119 21.8199C62.1062 21.6616 61.6082 21.3387 61.2304 20.8364C60.458 19.815 60.5065 18.3862 61.3444 17.4091C61.5786 17.1368 61.8593 16.9258 62.1801 16.7654C62.4967 16.6071 62.8322 16.5206 63.1847 16.4931C63.5435 16.4657 63.898 16.4974 64.223 16.6472C64.5375 16.7928 64.8351 16.9722 65.1432 17.1389C65.1432 16.9785 65.1432 16.7992 65.1432 16.6008C65.4386 16.6008 65.7172 16.6008 65.9979 16.6008C66 18.3313 66 20.0619 66 21.7946ZM65.1495 19.203C65.1537 18.2406 64.375 17.4428 63.4232 17.4365C62.4566 17.4302 61.6673 18.2132 61.6631 19.1818C61.6588 20.1548 62.4355 20.9504 63.3957 20.9546C64.3539 20.961 65.1453 20.1716 65.1495 19.203Z" fill="#8D8D8D"/>
<path d="M24.0021 16.6008C24.2216 16.6008 24.4389 16.6008 24.6711 16.6008C24.6711 15.9275 24.6711 15.267 24.6711 14.598C25.0003 14.598 25.3169 14.598 25.6461 14.598C25.6461 15.2649 25.6461 15.9254 25.6461 16.5966C26.1843 16.5966 26.7077 16.5966 27.2395 16.5966C27.2395 16.9089 27.2395 17.2107 27.2395 17.5273C26.7098 17.5273 26.1885 17.5273 25.6567 17.5273C25.6524 17.5737 25.6482 17.6075 25.6482 17.6433C25.6482 18.4326 25.6461 19.2219 25.6482 20.0113C25.6482 20.3088 25.7622 20.56 26.0133 20.7204C26.1357 20.7984 26.2919 20.8428 26.4375 20.8554C26.6866 20.8765 26.9398 20.8639 27.191 20.8597C27.2669 20.8575 27.3007 20.8808 27.3197 20.9567C27.3872 21.229 27.4653 21.5012 27.5413 21.784C27.4991 21.7882 27.4695 21.7946 27.4421 21.7946C27.0116 21.7882 26.5789 21.8178 26.1526 21.7671C25.2937 21.6658 24.6774 20.9398 24.6753 20.0746C24.6732 19.281 24.6753 18.4875 24.6753 17.694C24.6753 17.6454 24.6753 17.5948 24.6753 17.5167C24.4474 17.5167 24.2237 17.5167 24.0021 17.5167C24.0021 17.2107 24.0021 16.9068 24.0021 16.6008Z" fill="#8D8D8D"/>
<path d="M33.5266 12C33.6258 12.0359 33.7292 12.0633 33.8221 12.1097C34.3687 12.3799 34.4995 13.1017 34.0732 13.5385C33.8579 13.7601 33.6237 13.9585 33.381 14.1822C33.1573 13.9479 32.8766 13.7052 32.6592 13.4161C32.3047 12.9455 32.5579 12.2554 33.1235 12.0591C33.1678 12.0443 33.21 12.0211 33.2544 12.0021C33.3472 12 33.4359 12 33.5266 12Z" fill="#8D8D8D"/>
<path d="M41.5167 25.5068C41.426 25.4562 41.3331 25.4076 41.2297 25.3507C41.2614 25.3042 41.2825 25.2747 41.3099 25.2325C41.4513 25.3612 41.6075 25.4266 41.7911 25.3675C41.9473 25.319 42.0148 25.1649 41.9747 24.9349C41.8333 25.0404 41.6793 25.0974 41.5125 25.0341C41.4302 25.0024 41.3437 24.9433 41.2888 24.8737C41.1643 24.7154 41.1896 24.4495 41.3268 24.3039C41.4872 24.1308 41.7046 24.1224 41.9473 24.2701C41.9979 24.2363 42.0465 24.2047 42.114 24.1604C42.114 24.5065 42.1182 24.8104 42.1119 25.1143C42.1077 25.3274 41.9621 25.433 41.7848 25.5089C41.6961 25.5068 41.6075 25.5068 41.5167 25.5068ZM42.0043 24.6162C42.0043 24.4221 41.8586 24.2701 41.6687 24.2722C41.483 24.2722 41.3479 24.4157 41.3479 24.6141C41.3479 24.8146 41.4788 24.9455 41.675 24.9455C41.8734 24.9433 42.0043 24.8146 42.0043 24.6162Z" fill="#8D8D8D"/>
<path d="M55.8847 25.5069C55.8003 25.4562 55.7158 25.4035 55.6188 25.3465C55.6483 25.3043 55.6694 25.2747 55.6884 25.2494C56.0704 25.4668 56.3532 25.49 56.3827 24.9603C56.2519 24.994 56.1295 25.0405 56.005 25.051C55.8678 25.0637 55.7559 24.9898 55.6757 24.878C55.5533 24.707 55.5765 24.4453 55.7243 24.2955C55.8931 24.1245 56.1168 24.1224 56.3384 24.2786C56.3848 24.2406 56.4271 24.2047 56.5009 24.1456C56.5009 24.5107 56.5115 24.8294 56.4967 25.1439C56.4883 25.3507 56.33 25.4436 56.1548 25.5069C56.0641 25.5069 55.9733 25.5069 55.8847 25.5069ZM56.0577 24.9455C56.254 24.9455 56.3891 24.8146 56.3912 24.6226C56.3954 24.4327 56.2477 24.2765 56.0619 24.2723C55.8741 24.268 55.7264 24.42 55.7306 24.6163C55.7327 24.8104 55.8678 24.9455 56.0577 24.9455Z" fill="#8D8D8D"/>
<path d="M31.7771 25.5069C31.7771 25.0721 31.7771 24.6395 31.7771 24.1562C31.851 24.2026 31.8953 24.2322 31.9291 24.2512C32.0557 24.2258 32.195 24.171 32.33 24.1815C32.4229 24.1878 32.5305 24.2638 32.596 24.3398C32.7437 24.5065 32.7184 24.7978 32.5622 24.956C32.3955 25.1228 32.1612 25.1228 31.9101 24.9413C31.9101 25.1397 31.9101 25.3254 31.9101 25.509C31.8678 25.5069 31.8214 25.5069 31.7771 25.5069ZM32.5559 24.631C32.5601 24.4284 32.4229 24.2765 32.2351 24.2723C32.0493 24.268 31.8995 24.4179 31.8932 24.6142C31.8868 24.8104 32.0304 24.9645 32.2182 24.9687C32.4145 24.975 32.5537 24.8336 32.5559 24.631Z" fill="#8D8D8D"/>
<path d="M33.8767 25.5069C33.8767 25.0721 33.8767 24.6374 33.8767 24.1562C33.9464 24.2047 33.9907 24.2364 34.0434 24.2723C34.2819 24.1161 34.5204 24.1288 34.6787 24.3187C34.8201 24.4896 34.8116 24.7767 34.6639 24.9392C34.5035 25.1164 34.265 25.1207 34.0118 24.9455C34.0118 25.1375 34.0118 25.3212 34.0118 25.5048C33.9653 25.5069 33.921 25.5069 33.8767 25.5069ZM34.3178 24.9708C34.5098 24.9708 34.6449 24.8294 34.647 24.6268C34.6491 24.4263 34.5098 24.2765 34.322 24.2744C34.13 24.2723 33.9843 24.4263 33.9843 24.6289C33.9843 24.8231 34.1279 24.9687 34.3178 24.9708Z" fill="#8D8D8D"/>
<path d="M24.0021 24.726C24.0802 24.8611 24.1688 24.9793 24.3503 24.9687C24.5171 24.9603 24.6352 24.8548 24.6648 24.6775C24.6922 24.5129 24.6057 24.3504 24.4601 24.2955C24.3039 24.2343 24.1456 24.2913 24.0549 24.4369C24.0401 24.4622 24.019 24.4854 24.0021 24.5108C24.0021 24.4306 24.0021 24.3504 24.0021 24.2681C24.0929 24.2343 24.1794 24.1857 24.2722 24.1689C24.4706 24.1309 24.669 24.2364 24.7534 24.4095C24.84 24.5846 24.8083 24.8083 24.6753 24.9455C24.5403 25.0869 24.3039 25.1228 24.1161 25.0299C24.076 25.0109 24.038 24.9898 24 24.9687C24.0021 24.8885 24.0021 24.8083 24.0021 24.726Z" fill="#8D8D8D"/>
<path d="M40.968 20.4186C41.2065 19.1671 41.4408 17.9409 41.6687 16.7126C41.6856 16.624 41.7109 16.5945 41.8038 16.5966C42.0887 16.6029 42.3757 16.5987 42.6796 16.5987C42.3525 18.3377 42.0296 20.0598 41.7046 21.7925C41.3754 21.7925 41.0546 21.7967 40.7317 21.7883C40.6895 21.7862 40.6346 21.7228 40.6072 21.6743C40.0985 20.7837 39.5941 19.891 39.0897 18.9983C39.0623 18.9518 39.0349 18.9054 38.9969 18.84C38.9631 18.8948 38.9357 18.9392 38.9104 18.9814C38.3996 19.8804 37.8868 20.7795 37.3803 21.6827C37.3317 21.7693 37.279 21.7988 37.1819 21.7967C36.8864 21.7904 36.591 21.7946 36.285 21.7946C35.96 20.064 35.6349 18.3419 35.3099 16.6092C35.6392 16.6092 35.9578 16.6092 36.2955 16.6092C36.534 17.8649 36.7725 19.1249 37.0194 20.4186C37.0574 20.3595 37.0806 20.3257 37.1017 20.292C37.5322 19.5322 37.9649 18.7724 38.3912 18.0106C38.4418 17.9198 38.4967 17.8882 38.6001 17.8903C38.8597 17.8987 39.1193 17.8987 39.381 17.8903C39.4971 17.8861 39.554 17.9304 39.6089 18.0275C40.0416 18.802 40.4805 19.5723 40.9195 20.3426C40.9279 20.3616 40.9406 20.3785 40.968 20.4186Z" fill="#8D8D8D"/>
<path d="M47.9789 17.1917C47.9789 16.9806 47.9789 16.8013 47.9789 16.6113C48.306 16.6113 48.6247 16.6113 48.9539 16.6113C48.9539 18.3355 48.9539 20.0577 48.9539 21.7882C48.631 21.7882 48.3145 21.7882 47.9873 21.7882C47.9873 21.6004 47.9873 21.4147 47.9873 21.1973C47.217 21.8136 46.3876 22.071 45.4379 21.7967C44.8449 21.6257 44.3637 21.2923 44.0049 20.7879C43.2431 19.72 43.3296 18.2997 44.2223 17.3352C44.714 16.8055 45.3345 16.5311 46.0542 16.491C46.7781 16.4509 47.3964 16.7253 47.9789 17.1917ZM44.4671 19.1903C44.465 20.1611 45.2459 20.9631 46.2082 20.9525C47.1938 20.9419 47.9747 20.1991 47.981 19.2072C47.9873 18.2047 47.2044 17.4534 46.2188 17.4386C45.2522 17.4259 44.4692 18.2216 44.4671 19.1903Z" fill="#8D8D8D"/>
<path d="M55.5321 21.7882C55.2008 21.7882 54.8884 21.7882 54.5676 21.7882C54.5676 20.0598 54.5676 18.3377 54.5676 16.6071C54.8863 16.6071 55.2008 16.6071 55.5279 16.6071C55.5279 16.7612 55.5279 16.911 55.5279 17.0946C55.6039 17.0419 55.6587 17.0018 55.7157 16.9638C56.1526 16.6704 56.6211 16.4784 57.1593 16.4974C58.4002 16.5375 59.4069 17.4661 59.5462 18.7028C59.5609 18.8273 59.5673 18.9518 59.5673 19.0784C59.5694 19.9311 59.5673 20.7816 59.5673 21.6342C59.5673 21.6827 59.5673 21.7313 59.5673 21.7882C59.2423 21.7882 58.9257 21.7882 58.5944 21.7882C58.5944 21.7376 58.5944 21.6912 58.5944 21.6426C58.5944 20.7689 58.5965 19.8952 58.5944 19.0214C58.5922 18.3778 58.2166 17.8101 57.6425 17.5695C56.6612 17.16 55.5448 17.8924 55.5342 18.9581C55.5258 19.8509 55.5321 20.7415 55.5321 21.6342C55.5321 21.6806 55.5321 21.7291 55.5321 21.7882Z" fill="#8D8D8D"/>
<path d="M51.5813 21.7904C51.25 21.7904 50.9376 21.7904 50.6168 21.7904C50.6168 20.064 50.6168 18.3419 50.6168 16.6092C50.9313 16.6092 51.2478 16.6092 51.5771 16.6092C51.5771 16.7696 51.5771 16.9321 51.5771 17.1115C52.1469 16.6873 52.7821 16.529 53.4765 16.4826C53.3942 16.8224 53.3161 17.1368 53.238 17.4576C52.913 17.4661 52.6112 17.542 52.3389 17.713C51.8472 18.0232 51.5834 18.4664 51.5813 19.051C51.5771 19.9121 51.5813 20.771 51.5813 21.6321C51.5813 21.6806 51.5813 21.7292 51.5813 21.7904Z" fill="#8D8D8D"/>
<path d="M28.7146 16.6029C29.0375 16.6029 29.3498 16.6029 29.677 16.6029C29.677 16.7696 29.677 16.9321 29.677 17.1073C30.2468 16.6831 30.8799 16.5269 31.5743 16.4805C31.4941 16.8013 31.4244 17.101 31.3442 17.3985C31.3358 17.4281 31.2661 17.4555 31.2239 17.4597C30.6435 17.5167 30.1835 17.7721 29.8796 18.2786C29.7424 18.5107 29.6791 18.764 29.6791 19.0362C29.6812 19.9015 29.6791 20.7668 29.6791 21.63C29.6791 21.6785 29.6791 21.7271 29.6791 21.784C29.3541 21.784 29.0396 21.784 28.7146 21.784C28.7146 20.0619 28.7146 18.3398 28.7146 16.6029Z" fill="#8D8D8D"/>
<path d="M33.8832 21.7883C33.5582 21.7883 33.2416 21.7883 32.9187 21.7883C32.9187 20.0619 32.9187 18.3419 32.9187 16.6114C33.2374 16.6114 33.5561 16.6114 33.8832 16.6114C33.8832 18.3377 33.8832 20.0598 33.8832 21.7883Z" fill="#8D8D8D"/>
<path d="M33.7271 14.6528C33.9761 14.3827 34.1892 14.1062 34.4467 13.8825C34.7295 13.6377 35.2001 13.6588 35.4998 13.8804C35.8354 14.1273 35.9683 14.5177 35.8438 14.9018C35.7235 15.2754 35.3774 15.5244 34.9807 15.5307C34.7147 15.535 34.491 15.4421 34.3074 15.2522C34.1069 15.0411 33.9043 14.8343 33.7271 14.6528Z" fill="#8D8D8D"/>
<path d="M33.1171 14.6317C32.8554 14.8808 32.6233 15.1235 32.3679 15.3408C32.0661 15.5962 31.6271 15.5962 31.3042 15.3704C30.9729 15.1361 30.8336 14.7373 30.9518 14.351C31.0636 13.9817 31.4182 13.7242 31.8107 13.7179C32.064 13.7137 32.275 13.8023 32.4523 13.9775C32.6697 14.1885 32.8871 14.4017 33.1171 14.6317Z" fill="#8D8D8D"/>
<path d="M43.7727 24.3651C43.8867 24.4579 43.988 24.5424 44.0956 24.631C44.2011 24.574 44.1568 24.3187 44.4037 24.3545C44.3256 24.4938 44.2518 24.6226 44.161 24.7808C44.2602 24.8568 44.3636 24.9349 44.4797 25.0235C44.2686 25.1185 44.2074 24.9645 44.0956 24.8758C43.9584 25.0425 43.7811 25.127 43.568 25.0636C43.4793 25.0383 43.3844 24.9771 43.3316 24.9032C43.1986 24.7175 43.2894 24.5002 43.568 24.3208C43.4709 24.2026 43.378 24.0738 43.4413 23.9156C43.4667 23.8501 43.5258 23.7868 43.587 23.7488C43.7368 23.6602 43.9457 23.7151 44.0259 23.8501C44.1315 24.0211 44.066 24.1646 43.7727 24.3651ZM44.0006 24.7745C43.9204 24.688 43.8466 24.6099 43.7727 24.5318C43.7537 24.5128 43.7389 24.4875 43.7157 24.4748C43.6841 24.4558 43.644 24.4284 43.6165 24.4347C43.4962 24.4643 43.4076 24.6183 43.4224 24.7534C43.4371 24.8737 43.5384 24.9602 43.6756 24.9666C43.8233 24.975 43.9204 24.9011 44.0006 24.7745ZM43.7009 24.2638C43.8845 24.173 43.969 24.076 43.931 23.9704C43.9078 23.9113 43.836 23.8354 43.7811 23.8311C43.7178 23.8248 43.6271 23.8712 43.5849 23.9261C43.5131 24.0126 43.5616 24.1329 43.7009 24.2638Z" fill="#8D8D8D"/>
<path d="M46.2884 24.2976C46.2884 24.1055 46.2926 23.9325 46.2863 23.7573C46.2841 23.6687 46.3116 23.6328 46.4087 23.6623C46.4087 24.1224 46.4087 24.5804 46.4087 25.0827C46.3453 25.0405 46.2989 25.0109 46.244 24.975C46.0224 25.1249 45.7819 25.1186 45.6215 24.9392C45.4737 24.7746 45.4674 24.4918 45.6088 24.3208C45.7692 24.1288 46.0013 24.1161 46.2884 24.2976ZM45.9655 24.2723C45.7755 24.2744 45.6426 24.4242 45.6447 24.6289C45.6468 24.8379 45.7819 24.9729 45.9781 24.9687C46.1681 24.9645 46.3074 24.8125 46.3031 24.6142C46.301 24.4179 46.1533 24.2702 45.9655 24.2723Z" fill="#8D8D8D"/>
<path d="M47.7784 24.6606C47.542 24.6606 47.3036 24.6606 47.0609 24.6606C47.0482 24.8231 47.1453 24.8906 47.2592 24.9413C47.4218 25.013 47.5526 24.9518 47.6708 24.8294C47.7003 24.8526 47.7278 24.8737 47.7552 24.8948C47.5864 25.0974 47.3141 25.1396 47.101 25.0003C46.9279 24.8885 46.8604 24.6289 46.949 24.4242C47.0377 24.2195 47.2846 24.114 47.5125 24.1836C47.713 24.2448 47.8143 24.4221 47.7784 24.6606ZM47.6476 24.5508C47.6497 24.3778 47.5526 24.2765 47.3922 24.2722C47.2191 24.268 47.0756 24.3904 47.0672 24.5593C47.2276 24.5593 47.3859 24.5593 47.5463 24.5593C47.58 24.5593 47.6138 24.5529 47.6476 24.5508Z" fill="#8D8D8D"/>
<path d="M27.3429 24.9011C27.1973 25.089 26.9482 25.1375 26.7456 25.0172C26.5557 24.9054 26.4797 24.6416 26.5747 24.4242C26.6633 24.2216 26.8786 24.1203 27.096 24.1815C27.3028 24.2385 27.4125 24.4178 27.3746 24.6605C27.1466 24.6605 26.9166 24.6605 26.6802 24.6605C26.676 24.8041 26.7435 24.8864 26.8512 24.937C26.9757 24.9961 27.0981 24.9792 27.1994 24.8843C27.2606 24.8294 27.3007 24.8252 27.3429 24.9011ZM27.2479 24.5529C27.2289 24.3651 27.1382 24.2722 26.9778 24.2722C26.8132 24.2701 26.6992 24.3777 26.6802 24.5529C26.8681 24.5529 27.0538 24.5529 27.2479 24.5529Z" fill="#8D8D8D"/>
<path d="M51.6657 24.2786C51.8113 24.1625 51.9738 24.1308 52.1511 24.1963C52.2714 24.2406 52.3326 24.3377 52.3347 24.4664C52.3347 24.6584 52.3347 24.8505 52.3347 25.0468C52.2503 25.0784 52.2081 25.051 52.2186 24.9898C52.0983 25.0172 51.9738 25.0658 51.8472 25.07C51.7121 25.0742 51.615 24.9666 51.6045 24.8463C51.5897 24.7028 51.6488 24.6036 51.7965 24.5656C51.9253 24.5318 52.0604 24.5234 52.1912 24.5044C52.2144 24.3313 52.0983 24.2385 51.9063 24.2807C51.8641 24.2912 51.824 24.3187 51.7818 24.325C51.7438 24.3313 51.7037 24.3229 51.6636 24.3187C51.6636 24.3081 51.6657 24.2933 51.6657 24.2786ZM52.1975 24.6099C52.0709 24.6331 51.9485 24.6395 51.8388 24.6796C51.7923 24.6964 51.7417 24.7872 51.7459 24.8399C51.7501 24.8843 51.8219 24.9497 51.8746 24.9623C52.0793 25.0151 52.225 24.8632 52.1975 24.6099Z" fill="#8D8D8D"/>
<path d="M35.8395 24.5002C35.7994 24.4284 35.7805 24.3482 35.7298 24.3123C35.6306 24.2427 35.5166 24.2659 35.4111 24.3166C35.3246 24.3588 35.3246 24.3588 35.2761 24.2849C35.4111 24.1604 35.6116 24.1224 35.7699 24.1963C35.8881 24.2511 35.9408 24.3503 35.9408 24.477C35.943 24.6648 35.9408 24.8526 35.9408 25.0784C35.8818 25.0383 35.8417 25.0088 35.8163 24.9919C35.6981 25.0193 35.5778 25.0658 35.4576 25.07C35.3162 25.0742 35.2191 24.9666 35.2064 24.8378C35.1937 24.7007 35.2571 24.6015 35.409 24.5635C35.5377 24.5339 35.6728 24.5255 35.8395 24.5002ZM35.8016 24.6099C35.6749 24.6331 35.5525 24.6416 35.4428 24.6796C35.3963 24.6964 35.3373 24.783 35.3457 24.8273C35.3563 24.8801 35.4238 24.9497 35.4787 24.9645C35.6876 25.0172 35.8311 24.8653 35.8016 24.6099Z" fill="#8D8D8D"/>
<path d="M49.8297 25.0806C49.5659 25.0763 49.3739 24.8822 49.376 24.6205C49.3781 24.3546 49.5807 24.1604 49.8508 24.1646C50.1146 24.1688 50.3067 24.3651 50.3067 24.6268C50.3046 24.8906 50.102 25.0827 49.8297 25.0806ZM50.1632 24.6184C50.1611 24.4115 50.026 24.2701 49.834 24.2723C49.6461 24.2744 49.509 24.4263 49.5111 24.6268C49.5132 24.8294 49.6504 24.9708 49.8424 24.9687C50.0366 24.9666 50.1653 24.8252 50.1632 24.6184Z" fill="#8D8D8D"/>
<path d="M31.2896 24.631C31.2875 24.8927 31.0912 25.0805 30.8232 25.0805C30.5531 25.0805 30.3526 24.8779 30.3589 24.6141C30.3652 24.3566 30.5657 24.1625 30.8274 24.1646C31.0976 24.1646 31.2938 24.363 31.2896 24.631ZM30.8253 24.2722C30.6396 24.2722 30.4961 24.4242 30.4961 24.6226C30.4961 24.8231 30.6354 24.9708 30.8253 24.9687C31.0174 24.9687 31.1545 24.8231 31.1545 24.6205C31.1545 24.4221 31.0131 24.2722 30.8253 24.2722Z" fill="#8D8D8D"/>
<path d="M59.6517 24.631C59.6496 24.8927 59.4554 25.0784 59.1874 25.0784C58.9152 25.0784 58.721 24.8822 58.7273 24.612C58.7315 24.3482 58.9278 24.1604 59.1937 24.1625C59.4618 24.1646 59.6559 24.3609 59.6517 24.631ZM59.5145 24.6289C59.5166 24.4263 59.3816 24.2786 59.1937 24.2743C59.0059 24.2701 58.8666 24.4157 58.8645 24.6183C58.8624 24.8273 58.9911 24.9687 59.1832 24.9708C59.3773 24.9708 59.5124 24.8315 59.5145 24.6289Z" fill="#8D8D8D"/>
<path d="M65.7488 25.0489C65.7003 25.0489 65.6644 25.0489 65.6158 25.0489C65.6158 24.8822 65.6201 24.7218 65.6158 24.5614C65.6116 24.3693 65.5441 24.2828 65.4027 24.2744C65.2571 24.2659 65.1494 24.3672 65.1283 24.5466C65.1178 24.631 65.122 24.7155 65.122 24.802C65.122 24.8822 65.122 24.9624 65.0903 25.0721C65.0587 25.0447 64.9975 25.0172 64.9975 24.9898C64.9911 24.726 64.9933 24.4622 64.9933 24.1583C65.0566 24.2026 65.0988 24.2322 65.1558 24.2723C65.1663 24.2659 65.2001 24.2364 65.236 24.2153C65.4576 24.0844 65.7003 24.2005 65.7404 24.4538C65.7467 24.4939 65.7488 24.534 65.7488 24.5741C65.7488 24.7281 65.7488 24.8843 65.7488 25.0489Z" fill="#8D8D8D"/>
<path d="M64.4973 24.631C64.4952 24.8948 64.3031 25.0805 64.0351 25.0805C63.7607 25.0805 63.5708 24.8885 63.575 24.6141C63.5792 24.3503 63.7713 24.1625 64.0372 24.1646C64.3095 24.1646 64.4994 24.3588 64.4973 24.631ZM64.3622 24.6268C64.3643 24.4221 64.2293 24.2743 64.0414 24.2722C63.8536 24.2701 63.7122 24.4179 63.7101 24.6183C63.708 24.8231 63.8409 24.9687 64.033 24.9687C64.2271 24.9708 64.3601 24.8336 64.3622 24.6268Z" fill="#8D8D8D"/>
<path d="M37.1777 24.1604C37.2368 24.2026 37.279 24.2342 37.336 24.2722C37.3402 24.2701 37.3656 24.2469 37.3951 24.2279C37.6251 24.076 37.8953 24.1941 37.9248 24.4664C37.9417 24.6394 37.9354 24.8167 37.9291 24.9898C37.9269 25.0193 37.8721 25.0446 37.8425 25.0742C37.8299 25.0658 37.8172 25.0594 37.8045 25.051C37.8045 24.9054 37.8066 24.7576 37.8045 24.612C37.8024 24.3777 37.7286 24.2722 37.5703 24.2743C37.4099 24.2743 37.3128 24.401 37.3065 24.6162C37.3023 24.7555 37.3044 24.8948 37.3023 25.032C37.3023 25.0362 37.298 25.0404 37.2896 25.051C37.2622 25.0531 37.2284 25.0531 37.182 25.0552C37.1777 24.7703 37.1777 24.4896 37.1777 24.1604Z" fill="#8D8D8D"/>
<path d="M54.4854 25.0573C54.4347 25.0552 54.401 25.0531 54.3588 25.051C54.3588 24.764 54.3588 24.4833 54.3588 24.1625C54.4221 24.2047 54.4685 24.2343 54.5213 24.2702C54.5508 24.2512 54.6015 24.2111 54.6584 24.19C54.88 24.1034 55.0805 24.2258 55.1059 24.4622C55.1101 24.4981 55.1101 24.534 55.1101 24.5698C55.1101 24.726 55.1101 24.8822 55.1101 25.0426C55.013 25.0785 54.9771 25.0552 54.9792 24.9518C54.9835 24.7999 54.9771 24.6479 54.9729 24.496C54.9687 24.3736 54.9096 24.2934 54.7809 24.2765C54.6627 24.2617 54.5466 24.3292 54.5149 24.4538C54.4917 24.5424 54.4896 24.6395 54.4854 24.7323C54.4833 24.8336 54.4854 24.9371 54.4854 25.0573Z" fill="#8D8D8D"/>
<path d="M60.8252 24.1942C60.8716 24.1942 60.9096 24.1942 60.9582 24.1942C60.9582 24.3609 60.956 24.5213 60.9582 24.6817C60.9624 24.8864 61.0278 24.9687 61.1798 24.9687C61.3296 24.9708 61.4393 24.8568 61.4478 24.6775C61.4541 24.5213 61.4499 24.3651 61.4499 24.1984C61.4942 24.1942 61.5301 24.1921 61.5765 24.1878C61.5765 24.4791 61.5765 24.7598 61.5765 25.0806C61.5153 25.0426 61.471 25.013 61.414 24.975C61.4098 24.9771 61.3802 25.0046 61.3465 25.0257C61.1185 25.1692 60.859 25.0447 60.8294 24.7788C60.8252 24.7429 60.8252 24.707 60.8252 24.6711C60.8252 24.515 60.8252 24.3588 60.8252 24.1942Z" fill="#8D8D8D"/>
<path d="M40.5987 25.0383C40.5987 24.8822 40.6008 24.726 40.5987 24.5677C40.5944 24.3714 40.5206 24.2765 40.3771 24.2723C40.2314 24.268 40.1238 24.3651 40.1069 24.5487C40.0921 24.7133 40.1048 24.878 40.1048 25.0489C40.0542 25.0489 40.0204 25.0489 39.9761 25.0489C39.9761 24.764 39.9761 24.4833 39.9761 24.1583C40.0373 24.2047 40.0795 24.2343 40.1238 24.2701C40.1829 24.2448 40.2694 24.1857 40.3644 24.1688C40.5522 24.1351 40.6978 24.2533 40.7168 24.4495C40.7337 24.6268 40.7295 24.8083 40.7232 24.9856C40.7232 25.0151 40.6683 25.0405 40.6388 25.07C40.624 25.0616 40.6113 25.0489 40.5987 25.0383Z" fill="#8D8D8D"/>
<path d="M25.4288 25.051C25.376 25.051 25.3423 25.051 25.3 25.051C25.3 24.7682 25.3 24.4875 25.3 24.1709C25.357 24.2068 25.4014 24.2321 25.4626 24.268C25.4647 24.2638 25.4942 24.2406 25.528 24.2195C25.7538 24.0781 26.0239 24.2047 26.045 24.4685C26.0577 24.6247 26.0493 24.783 26.0493 24.9391C26.0493 24.975 26.0493 25.0088 26.0493 25.0489C26.0007 25.0489 25.9648 25.0489 25.9184 25.0489C25.9184 24.8779 25.9205 24.7175 25.9184 24.5571C25.9142 24.3651 25.8445 24.2786 25.701 24.2743C25.5554 24.2701 25.4414 24.3778 25.4309 24.5508C25.4203 24.7112 25.4288 24.8737 25.4288 25.051Z" fill="#8D8D8D"/>
<path d="M58.2798 24.3545C58.2376 24.3482 58.1954 24.3461 58.1553 24.3355C58.0793 24.3186 58.0034 24.2849 57.9295 24.2891C57.8894 24.2912 57.824 24.3545 57.8198 24.3967C57.8155 24.4368 57.8662 24.498 57.9084 24.5212C57.9738 24.5571 58.054 24.5635 58.1258 24.5888C58.2419 24.6268 58.3221 24.6985 58.3136 24.8315C58.3052 24.9687 58.2208 25.0425 58.0962 25.0679C57.9274 25.1037 57.7776 25.07 57.6552 24.9265C57.6931 24.8568 57.7185 24.8357 57.8029 24.8906C57.8767 24.9391 57.9823 24.9518 58.0751 24.9518C58.111 24.9518 58.1743 24.88 58.1785 24.8378C58.1828 24.7956 58.1342 24.7323 58.092 24.7091C58.0287 24.6732 57.9485 24.6626 57.8767 24.6394C57.767 24.6036 57.6826 24.5424 57.6847 24.4136C57.6868 24.2828 57.7628 24.211 57.8852 24.1794C58.0519 24.1371 58.1933 24.1836 58.2798 24.3545Z" fill="#8D8D8D"/>
<path d="M29.1051 24.3567C29.0629 24.3482 29.0207 24.3461 28.9785 24.3313C28.9321 24.3166 28.8899 24.2828 28.8434 24.2765C28.7548 24.2659 28.6619 24.2786 28.6387 24.382C28.6155 24.4875 28.702 24.515 28.7822 24.5382C28.8582 24.5614 28.9405 24.5762 29.0102 24.612C29.1748 24.6943 29.1832 24.9138 29.0313 25.0194C28.8666 25.1333 28.6049 25.0827 28.4825 24.9117C28.5248 24.8484 28.5627 24.8336 28.6282 24.8969C28.7084 24.975 28.8139 24.9919 28.9152 24.9476C28.9553 24.9307 28.9996 24.8737 29.0038 24.8315C29.0059 24.7914 28.9658 24.7302 28.9278 24.7112C28.854 24.6732 28.7675 24.6606 28.6873 24.6331C28.5817 24.5973 28.51 24.5318 28.5142 24.4073C28.5184 24.2891 28.5838 24.2195 28.6936 24.1836C28.8582 24.1309 28.9996 24.171 29.1136 24.3039C29.1093 24.3229 29.1072 24.3398 29.1051 24.3567Z" fill="#8D8D8D"/>
<path d="M48.9941 24.3503C48.9498 24.344 48.8991 24.3524 48.8653 24.3313C48.7218 24.2448 48.5572 24.2596 48.4517 24.3778C48.3377 24.5065 48.3356 24.7302 48.4475 24.8611C48.5509 24.9835 48.7282 25.0003 48.8738 24.9138C48.9075 24.8927 48.9582 24.899 49.0046 24.9096C48.8569 25.1185 48.5445 25.1312 48.3652 24.9581C48.1815 24.783 48.1837 24.4537 48.3694 24.2807C48.5467 24.1118 48.8484 24.1266 48.9941 24.3503Z" fill="#8D8D8D"/>
<path d="M29.6327 24.3187C29.5631 24.2722 29.4343 24.3503 29.4618 24.1942C29.5145 24.1899 29.5631 24.1878 29.6264 24.1836C29.6264 24.1118 29.6264 24.038 29.6264 23.9536C29.677 23.9515 29.7129 23.9493 29.7615 23.9472C29.7615 24.0274 29.7615 24.0971 29.7615 24.1794C29.8438 24.1836 29.9176 24.1878 30.0422 24.1942C29.9936 24.2427 29.9704 24.2828 29.9387 24.2912C29.8881 24.3039 29.8332 24.2955 29.7678 24.2955C29.7678 24.4833 29.7615 24.6606 29.7699 24.8378C29.7784 24.9835 29.8944 24.9581 29.9957 24.9476C30.0021 24.9581 30.0105 24.9687 30.0168 24.9792C29.9894 25.0088 29.9662 25.0531 29.9324 25.0616C29.7636 25.108 29.6412 25.0151 29.6348 24.8357C29.6264 24.6606 29.6327 24.4875 29.6327 24.3187Z" fill="#8D8D8D"/>
<path d="M53.008 23.9472C53.008 24.0295 53.008 24.0992 53.008 24.1815C53.0904 24.1857 53.1642 24.1899 53.2381 24.192C53.2423 24.2828 53.2423 24.2828 53.0102 24.306C53.0102 24.4812 53.0017 24.6606 53.0123 24.8378C53.0207 24.9835 53.1368 24.9581 53.2592 24.9771C53.2318 25.0067 53.2085 25.0531 53.1748 25.0615C53.0059 25.108 52.8835 25.0151 52.8772 24.8357C52.8709 24.6627 52.8751 24.4875 52.8751 24.3166C52.7063 24.2828 52.7062 24.2828 52.7126 24.1941C52.759 24.192 52.8076 24.1899 52.8498 24.1857C52.9342 24.1224 52.778 23.9325 53.008 23.9472Z" fill="#8D8D8D"/>
<path d="M62.1568 24.3208C62.0914 24.2659 61.9584 24.3525 61.9838 24.1921C62.0386 24.19 62.0914 24.1858 62.1526 24.1836C62.1526 24.1077 62.1526 24.0359 62.1526 23.9557C62.199 23.9515 62.2349 23.9494 62.2813 23.9452C62.2813 24.0254 62.2813 24.0971 62.2813 24.1815C62.3636 24.1815 62.4375 24.1815 62.5071 24.1815C62.524 24.2786 62.524 24.2786 62.2877 24.3124C62.2877 24.4875 62.2834 24.6648 62.2898 24.8421C62.294 24.9434 62.3404 24.9624 62.5578 24.954C62.5156 25.0046 62.4966 25.0489 62.467 25.0595C62.3045 25.1165 62.1631 25.0215 62.1589 24.8505C62.1526 24.6712 62.1568 24.4918 62.1568 24.3208Z" fill="#8D8D8D"/>
<path d="M38.6253 24.3124C38.6253 24.4833 38.6189 24.6564 38.6274 24.8315C38.6316 24.9497 38.6844 24.9729 38.8891 24.9413C38.8469 24.9983 38.83 25.0468 38.8004 25.0574C38.6337 25.1122 38.5029 25.0194 38.4987 24.8442C38.4944 24.6669 38.4987 24.4875 38.4987 24.325C38.4438 24.2596 38.296 24.3567 38.3214 24.1942C38.3805 24.19 38.4311 24.1858 38.4923 24.1815C38.4923 24.1056 38.4923 24.0359 38.4923 23.9536C38.5366 23.9515 38.5746 23.9473 38.6168 23.9452C38.6211 24.0275 38.6232 24.0971 38.6274 24.1815C38.7034 24.1815 38.7772 24.1815 38.849 24.1815C38.8595 24.2681 38.8595 24.2681 38.6253 24.3124Z" fill="#8D8D8D"/>
<path d="M51.286 24.2849C51.0011 24.2976 50.9315 24.3693 50.9294 24.6331C50.9273 24.7682 50.9294 24.9011 50.9294 25.0468C50.8872 25.0489 50.8492 25.0531 50.8027 25.0552C50.8027 24.764 50.8027 24.4833 50.8027 24.1709C50.8597 24.2026 50.9061 24.2258 50.9357 24.2427C51.0412 24.2174 51.151 24.192 51.2586 24.173C51.2586 24.173 51.2734 24.2385 51.286 24.2849Z" fill="#8D8D8D"/>
<path d="M60.2257 25.0679C60.2004 25.0341 60.1539 25.0024 60.1539 24.9687C60.1497 24.5571 60.1497 24.1456 60.1539 23.7341C60.1539 23.7024 60.2046 23.6708 60.2299 23.6412C60.2426 23.6496 60.2531 23.6602 60.2658 23.6686C60.2658 24.1245 60.2658 24.5782 60.2658 25.0341C60.2552 25.0447 60.2405 25.0573 60.2257 25.0679Z" fill="#8D8D8D"/>
<path d="M53.677 24.1942C53.7234 24.1942 53.7572 24.1942 53.7973 24.1942C53.7973 24.4812 53.7973 24.7619 53.7973 25.051C53.7593 25.0531 53.7213 25.0552 53.677 25.0573C53.677 24.7661 53.677 24.4854 53.677 24.1942Z" fill="#8D8D8D"/>
<path d="M39.2902 24.1878C39.3345 24.1899 39.3704 24.1921 39.4105 24.1942C39.4105 24.4812 39.4105 24.7598 39.4105 25.0489C39.3704 25.0489 39.3345 25.0489 39.2902 25.0489C39.2902 24.764 39.2902 24.4854 39.2902 24.1878Z" fill="#8D8D8D"/>
<path d="M36.4917 24.1942C36.536 24.1942 36.5698 24.1942 36.6099 24.1942C36.6099 24.4791 36.6099 24.7598 36.6099 25.0489C36.5719 25.0489 36.5339 25.0489 36.4917 25.0489C36.4917 24.764 36.4917 24.4854 36.4917 24.1942Z" fill="#8D8D8D"/>
<path d="M63.0707 25.0405C62.9821 25.07 62.9525 25.0468 62.9525 24.9603C62.9567 24.7112 62.9546 24.4601 62.9546 24.2005C62.9947 24.2005 63.0306 24.2005 63.0707 24.2005C63.0707 24.4791 63.0707 24.7555 63.0707 25.0405Z" fill="#8D8D8D"/>
<path d="M53.6201 23.8502C53.6708 23.8122 53.7088 23.7657 53.7341 23.7721C53.77 23.7805 53.7974 23.8291 53.8269 23.8607C53.7932 23.8881 53.7636 23.9346 53.7256 23.9409C53.7003 23.9409 53.6665 23.8903 53.6201 23.8502Z" fill="#8D8D8D"/>
<path d="M39.3431 23.9725C39.3072 23.9219 39.2586 23.8818 39.265 23.8565C39.2755 23.8206 39.3241 23.7953 39.3557 23.7636C39.3832 23.7974 39.4275 23.8311 39.4317 23.867C39.4359 23.8945 39.3853 23.9282 39.3431 23.9725Z" fill="#8D8D8D"/>
<path d="M36.6753 23.8522C36.6204 23.8923 36.5867 23.9367 36.5508 23.9388C36.5233 23.9388 36.4643 23.8818 36.4685 23.8628C36.4769 23.8248 36.517 23.7805 36.5529 23.7699C36.5782 23.7636 36.6162 23.8121 36.6753 23.8522Z" fill="#8D8D8D"/>
<path d="M63.1361 23.8544C63.0791 23.8966 63.0411 23.9451 63.0179 23.9388C62.982 23.9304 62.9419 23.8861 62.9335 23.8502C62.9292 23.8291 62.982 23.77 63.0094 23.7721C63.0453 23.7721 63.0791 23.8143 63.1361 23.8544Z" fill="#8D8D8D"/>
</svg>
