<svg width="920" height="651" viewBox="0 0 920 651" fill="none" xmlns="http://www.w3.org/2000/svg">
<path d="M337.626 56C349.176 42.9819 362.64 31.7972 377.556 22.83C394.886 12.21 413.746 6.06 433.566 2.48C437.686 1.73 441.776 0.83 445.886 0H448.886L450.886 0.88H452.886H454.886H457.886H469.886H471.886H473.886H475.886L477.886 0H479.886C486.216 1.36 492.536 2.8 498.886 4.05C523.326 8.88 545.036 19.95 564.636 34.71C577.16 44.1902 588.257 55.4217 597.586 68.06C608.762 83.315 617.569 100.172 623.706 118.06C626.046 131.06 628.379 144.06 630.706 157.06C630.706 164.32 630.706 171.577 630.706 178.83C629.372 188.163 628.039 197.497 626.706 206.83C624.546 213.54 622.336 220.23 620.256 226.96C619.636 228.96 619.346 231.02 618.916 233.05C618.556 234.05 618.206 235.13 617.856 236.17C617.156 236.72 616.226 237.11 615.786 237.82C609.072 248.593 602.406 259.393 595.786 270.22C595.007 271.78 594.372 273.406 593.886 275.08L591.676 277.84C588.386 280.67 584.886 283.29 581.846 286.37C563.179 305.263 544.596 324.217 526.096 343.23C520.486 349 515.156 355.03 509.696 360.94L469.696 401.79L464.886 406.34C463.137 405.156 461.467 403.86 459.886 402.46C439.966 382.627 420.076 362.77 400.216 342.89C389.356 332.04 378.516 321.17 367.556 310.42C362.816 305.76 357.806 301.37 352.916 296.86L337.116 279.91C326.076 266.68 316.266 252.63 308.886 237.06C300.801 218.359 296.027 198.395 294.776 178.06C294.496 175.15 293.776 172.19 294.006 169.33C295.176 156.89 296.656 144.48 298.006 132.06L305.086 108.06L321.086 77.14C326.586 70.0867 332.099 63.04 337.626 56Z" fill="#7B7B7B" fill-opacity="0.08"/>
<path d="M532.315 461.14C545.969 447.48 559.612 433.813 573.245 420.14C584.735 408.57 595.965 396.73 607.615 385.31C622.875 370.31 637.125 354.25 655.125 342.31C677.07 327.638 702.295 318.604 728.565 316.01C731.025 315.76 733.475 315.29 735.925 314.91H763.885C808.865 319.037 846.629 337.743 877.175 371.03L888.815 385.17C898.015 399.01 906.005 413.47 911.695 429.17C914.095 439.797 916.499 450.43 918.905 461.07C920.438 477.996 920.103 495.038 917.905 511.89C913.905 524.53 910.095 537.22 905.905 549.79C904.305 554.64 901.955 559.24 899.905 563.96L890.905 577.06L880.905 590.06L857.905 613.81C856.793 614.041 855.716 614.421 854.705 614.94C848.065 619.54 841.485 624.24 834.895 628.94L791.885 646.06C790.885 646.19 789.885 646.33 788.945 646.44C775.765 647.88 762.615 650.07 749.405 650.5C738.935 650.83 728.405 648.99 717.885 648.11C716.275 647.72 714.675 647.3 713.055 646.95C693.766 642.844 675.342 635.399 658.615 624.95L640.945 612.72L633.995 605.72C614.522 585.527 595.045 565.347 575.565 545.18C571.925 541.43 567.825 538.18 563.935 534.64C562.325 532.57 560.875 530.34 559.075 528.44C551.002 519.933 542.872 511.483 534.685 503.09C528.125 496.36 521.445 489.75 514.815 483.09L513.815 479.9L532.315 461.14Z" fill="#7B7B7B" fill-opacity="0.08"/>
<path d="M0.886106 462C3.59611 443.48 8.25611 425.55 16.8861 408.83C19.2461 404.26 21.7361 399.76 24.1761 395.23L24.1161 395.15L39.7561 374C46.8461 366.89 53.4961 359.26 61.1161 352.77C74.7461 341.18 89.7261 331.33 106.836 325.77C119.486 321.68 132.646 319.17 145.606 316.07C148.326 315.42 151.156 315.26 153.936 314.88H181.886C200.646 317.27 219.046 320.99 236.376 329C250.609 335.497 263.899 343.886 275.886 353.94C286.366 362.81 295.886 372.83 305.656 382.52C313.196 390 320.356 397.84 327.876 405.34C336.466 413.92 345.336 422.22 353.956 430.78C361.286 438.06 368.376 445.6 375.686 452.93C381.786 459.04 388.086 464.93 394.196 471.05C397.786 474.63 401.196 478.4 404.666 482.05L406.266 484.05L404.556 486.87L340.776 548.73L301.086 587.06L298.936 589.15L264.796 619.96L242.886 633.11C241.156 634.11 239.476 635.11 237.696 635.97C215.526 646.37 191.956 650.54 167.696 650.64C150.476 650.763 133.34 648.24 116.886 643.16C114.886 642.4 112.886 641.72 110.886 640.87C103.246 637.57 95.6361 634.21 88.0161 630.87L57.1961 608.87L33.8861 583.97L24.9861 573.78L23.8161 571.06C21.4961 566.393 19.1794 561.727 16.8661 557.06L6.99611 532.75C6.86852 531.603 6.67486 530.464 6.41611 529.34C1.94627 513.739 -0.210033 497.567 0.016106 481.34C0.076106 474.88 0.566106 468.44 0.886106 462Z" fill="#7B7B7B" fill-opacity="0.08"/>
</svg>
