<svg width="200" height="46" viewBox="0 0 200 46" fill="none" xmlns="http://www.w3.org/2000/svg">
<path d="M199.01 44.5098C197.69 44.5098 196.38 44.5098 194.98 44.5098C194.98 43.6509 194.98 42.8203 194.98 41.8293C191.5 44.5004 187.75 45.6802 183.43 44.6231C180.56 43.9152 178.2 42.4711 176.41 40.2247C172.75 35.6564 172.98 29.2664 176.95 24.8963C178.06 23.6787 179.39 22.7348 180.91 22.0175C182.41 21.3096 184 20.9226 185.67 20.7999C187.37 20.6772 189.05 20.8188 190.59 21.4889C192.08 22.1402 193.49 22.9425 194.95 23.6881C194.95 22.9708 194.95 22.1685 194.95 21.2813C196.35 21.2813 197.67 21.2813 199 21.2813C199.01 29.021 199.01 36.7607 199.01 44.5098ZM194.98 32.9192C195 28.6151 191.31 25.0473 186.8 25.019C182.22 24.9907 178.48 28.4924 178.46 32.8248C178.44 37.176 182.12 40.7344 186.67 40.7532C191.21 40.7816 194.96 37.2515 194.98 32.9192Z" fill="#5E3F86"/>
<path d="M0.0100098 21.281C1.05001 21.281 2.08001 21.281 3.18001 21.281C3.18001 18.2701 3.18001 15.3158 3.18001 12.3237C4.74001 12.3237 6.24001 12.3237 7.80001 12.3237C7.80001 15.3064 7.80001 18.2607 7.80001 21.2622C10.35 21.2622 12.83 21.2622 15.35 21.2622C15.35 22.6591 15.35 24.0088 15.35 25.4246C12.84 25.4246 10.37 25.4246 7.85001 25.4246C7.83001 25.6323 7.81001 25.7833 7.81001 25.9437C7.81001 29.4738 7.80001 33.0039 7.81001 36.5339C7.81001 37.8648 8.35001 38.988 9.54001 39.7053C10.12 40.0545 10.86 40.2528 11.55 40.3094C12.73 40.4038 13.93 40.3471 15.12 40.3283C15.48 40.3188 15.64 40.4226 15.73 40.7624C16.05 41.98 16.42 43.1976 16.78 44.4624C16.58 44.4813 16.44 44.5096 16.31 44.5096C14.27 44.4813 12.22 44.6134 10.2 44.3869C6.13001 43.9338 3.21001 40.6869 3.20001 36.8171C3.19001 33.2681 3.20001 29.7192 3.20001 26.1703C3.20001 25.9532 3.20001 25.7266 3.20001 25.3774C2.12001 25.3774 1.06001 25.3774 0.0100098 25.3774C0.0100098 24.0088 0.0100098 22.6496 0.0100098 21.281Z" fill="#5D3F86"/>
<path d="M45.14 0.704834C45.61 0.865291 46.1 0.987994 46.54 1.19564C49.13 2.40379 49.75 5.63182 47.73 7.58562C46.71 8.57668 45.6 9.46392 44.45 10.4644C43.39 9.41673 42.06 8.33128 41.03 7.03818C39.35 4.93336 40.55 1.84691 43.23 0.969117C43.44 0.903046 43.64 0.799221 43.85 0.714273C44.29 0.704834 44.71 0.704834 45.14 0.704834Z" fill="#FBB946"/>
<path d="M80.4001 38.3559C81.5301 32.7587 82.6401 27.2749 83.7201 21.7816C83.8001 21.3851 83.9201 21.253 84.3601 21.2624C85.7101 21.2907 87.0701 21.2719 88.5101 21.2719C86.9601 29.0493 85.4301 36.7513 83.8901 44.5004C82.3301 44.5004 80.8101 44.5193 79.2801 44.4816C79.0801 44.4721 78.8201 44.189 78.6901 43.9719C76.2801 39.9888 73.8901 35.9962 71.5001 32.0036C71.3701 31.796 71.2401 31.5883 71.0601 31.2957C70.9001 31.5411 70.7701 31.7394 70.6501 31.9281C68.2301 35.949 65.8001 39.9699 63.4001 44.0096C63.1701 44.3966 62.9201 44.5287 62.4601 44.5193C61.0601 44.491 59.6601 44.5099 58.2101 44.5099C56.6701 36.7702 55.1301 29.0682 53.5901 21.3191C55.1501 21.3191 56.6601 21.3191 58.2601 21.3191C59.3901 26.9351 60.5201 32.57 61.6901 38.3559C61.8701 38.0916 61.9801 37.9406 62.0801 37.7895C64.1201 34.3916 66.1701 30.9937 68.1901 27.5863C68.4301 27.1805 68.6901 27.0389 69.1801 27.0483C70.4101 27.0861 71.6401 27.0861 72.8801 27.0483C73.4301 27.0295 73.7001 27.2277 73.9601 27.6618C76.0101 31.1258 78.0901 34.571 80.1701 38.0161C80.2101 38.101 80.2701 38.1765 80.4001 38.3559Z" fill="#5E3F86"/>
<path d="M113.62 23.9241C113.62 22.9803 113.62 22.178 113.62 21.3285C115.17 21.3285 116.68 21.3285 118.24 21.3285C118.24 29.0399 118.24 36.7418 118.24 44.4815C116.71 44.4815 115.21 44.4815 113.66 44.4815C113.66 43.6415 113.66 42.8109 113.66 41.8387C110.01 44.5948 106.08 45.7463 101.58 44.5193C98.7701 43.7548 96.4901 42.2635 94.7901 40.0076C91.1801 35.2317 91.5901 28.8794 95.8201 24.566C98.1501 22.1969 101.09 20.9698 104.5 20.7905C107.93 20.6112 110.86 21.8382 113.62 23.9241ZM96.9801 32.8625C96.9701 37.2043 100.67 40.791 105.23 40.7438C109.9 40.6966 113.6 37.3742 113.63 32.9381C113.66 28.4547 109.95 25.0945 105.28 25.0285C100.7 24.9718 96.9901 28.5302 96.9801 32.8625Z" fill="#5E4087"/>
<path d="M149.41 44.4815C147.84 44.4815 146.36 44.4815 144.84 44.4815C144.84 36.7512 144.84 29.0493 144.84 21.3096C146.35 21.3096 147.84 21.3096 149.39 21.3096C149.39 21.9986 149.39 22.6687 149.39 23.4899C149.75 23.2539 150.01 23.0746 150.28 22.9047C152.35 21.5927 154.57 20.7338 157.12 20.8188C163 20.9981 167.77 25.1511 168.43 30.6822C168.5 31.2391 168.53 31.7959 168.53 32.3623C168.54 36.1755 168.53 39.9793 168.53 43.7925C168.53 44.0096 168.53 44.2267 168.53 44.4815C166.99 44.4815 165.49 44.4815 163.92 44.4815C163.92 44.255 163.92 44.0473 163.92 43.8302C163.92 39.9226 163.93 36.015 163.92 32.1074C163.91 29.2286 162.13 26.6896 159.41 25.6136C154.76 23.7825 149.47 27.0577 149.42 31.8243C149.38 35.8168 149.41 39.7999 149.41 43.7925C149.41 44.0001 149.41 44.2172 149.41 44.4815Z" fill="#5D3F86"/>
<path d="M130.69 44.4909C129.12 44.4909 127.64 44.4909 126.12 44.4909C126.12 36.7701 126.12 29.0682 126.12 21.319C127.61 21.319 129.11 21.319 130.67 21.319C130.67 22.0363 130.67 22.7631 130.67 23.5654C133.37 21.6682 136.38 20.9603 139.67 20.7527C139.28 22.2723 138.91 23.6787 138.54 25.1134C137 25.1511 135.57 25.4909 134.28 26.2554C131.95 27.6429 130.7 29.625 130.69 32.2395C130.67 36.0905 130.69 39.9321 130.69 43.783C130.69 44.0001 130.69 44.2172 130.69 44.4909Z" fill="#5D3E86"/>
<path d="M22.3401 21.2906C23.8701 21.2906 25.3501 21.2906 26.9001 21.2906C26.9001 22.0363 26.9001 22.763 26.9001 23.5464C29.6001 21.6493 32.6001 20.9508 35.8901 20.7432C35.5101 22.1778 35.1801 23.5181 34.8001 24.849C34.7601 24.9811 34.4301 25.1038 34.2301 25.1227C31.4801 25.3776 29.3001 26.5196 27.8601 28.7849C27.2101 29.8232 26.9101 30.9558 26.9101 32.1734C26.9201 36.0432 26.9101 39.9131 26.9101 43.7735C26.9101 43.9906 26.9101 44.2077 26.9101 44.4625C25.3701 44.4625 23.8801 44.4625 22.3401 44.4625C22.3401 36.7606 22.3401 29.0586 22.3401 21.2906Z" fill="#5D3E86"/>
<path d="M46.83 44.4814C45.29 44.4814 43.79 44.4814 42.26 44.4814C42.26 36.7606 42.26 29.0681 42.26 21.3284C43.77 21.3284 45.28 21.3284 46.83 21.3284C46.83 29.0492 46.83 36.7512 46.83 44.4814Z" fill="#5E3F86"/>
<path d="M46.0901 12.5693C47.2701 11.3612 48.2801 10.1247 49.5001 9.12419C50.8401 8.0293 53.0701 8.12369 54.4901 9.11475C56.0801 10.2191 56.7101 11.9652 56.1201 13.6831C55.5501 15.3537 53.9101 16.4675 52.0301 16.4958C50.7701 16.5147 49.7101 16.0994 48.8401 15.2499C47.8901 14.306 46.9301 13.381 46.0901 12.5693Z" fill="#FBB946"/>
<path d="M43.1999 12.475C41.9599 13.5888 40.8599 14.6742 39.6499 15.6464C38.2199 16.7885 36.1399 16.7885 34.6099 15.7786C33.0399 14.7309 32.3799 12.947 32.9399 11.2197C33.4699 9.56793 35.1499 8.41641 37.0099 8.3881C38.2099 8.36922 39.2099 8.76564 40.0499 9.54905C41.0799 10.4929 42.1099 11.4462 43.1999 12.475Z" fill="#FBB946"/>
</svg>
