<svg width="447" height="101" viewBox="0 0 447 101" fill="none" xmlns="http://www.w3.org/2000/svg">
<path d="M447 98.9032C444.035 98.9032 441.092 98.9032 437.948 98.9032C437.948 96.9739 437.948 95.1082 437.948 92.8821C430.131 98.882 421.707 101.532 412.004 99.1576C405.557 97.5675 400.256 94.3238 396.235 89.2779C388.014 79.0166 388.531 64.6636 397.448 54.8475C399.941 52.1126 402.929 49.9925 406.343 48.3812C409.712 46.7911 413.284 45.9219 417.035 45.6462C420.854 45.3706 424.627 45.6886 428.087 47.1939C431.434 48.6568 434.601 50.4589 437.88 52.1338C437.88 50.5225 437.88 48.7204 437.88 46.7275C441.025 46.7275 443.99 46.7275 446.977 46.7275C447 64.1123 447 81.4972 447 98.9032ZM437.948 72.8684C437.993 63.2007 429.704 55.1867 419.573 55.1231C409.286 55.0595 400.885 62.9251 400.84 72.6563C400.795 82.43 409.061 90.4228 419.281 90.4652C429.479 90.5288 437.903 82.5996 437.948 72.8684Z" fill="white"/>
<path d="M0 46.7262C2.33608 46.7262 4.6497 46.7262 7.12055 46.7262C7.12055 39.9631 7.12055 33.3272 7.12055 26.6064C10.6247 26.6064 13.994 26.6064 17.4981 26.6064C17.4981 33.306 17.4981 39.9419 17.4981 46.6838C23.226 46.6838 28.7967 46.6838 34.4572 46.6838C34.4572 49.8216 34.4572 52.8533 34.4572 56.0335C28.8191 56.0335 23.2709 56.0335 17.6104 56.0335C17.5655 56.4999 17.5206 56.8391 17.5206 57.1995C17.5206 65.1287 17.4981 73.0579 17.5206 80.9871C17.5206 83.9764 18.7336 86.4993 21.4066 88.1106C22.7094 88.895 24.3716 89.3403 25.9215 89.4675C28.5721 89.6795 31.2675 89.5523 33.9405 89.5099C34.7492 89.4887 35.1086 89.7219 35.3107 90.4851C36.0295 93.22 36.8606 95.955 37.6693 98.7959C37.22 98.8383 36.9056 98.9019 36.6136 98.9019C32.0312 98.8383 27.4265 99.1351 22.8891 98.6263C13.7469 97.6087 7.18794 90.3155 7.16548 81.6231C7.14301 73.6515 7.16548 65.6799 7.16548 57.7083C7.16548 57.2207 7.16548 56.7119 7.16548 55.9275C4.73955 55.9275 2.35854 55.9275 0 55.9275C0 52.8533 0 49.8004 0 46.7262Z" fill="white"/>
<path d="M101.372 0.507812C102.428 0.86823 103.529 1.14384 104.517 1.61027C110.335 4.324 111.728 11.5747 107.19 15.9634C104.899 18.1895 102.406 20.1824 99.8226 22.4297C97.4416 20.0764 94.4541 17.6382 92.1405 14.7337C88.3668 10.0059 91.0623 3.07314 97.0822 1.10144C97.5539 0.953034 98.0031 0.719823 98.4748 0.529014C99.4632 0.507812 100.407 0.507812 101.372 0.507812Z" fill="#FBB946"/>
<path d="M180.575 85.0787C183.113 72.5065 185.606 60.1887 188.032 47.8497C188.212 46.9593 188.481 46.6625 189.47 46.6837C192.502 46.7473 195.557 46.7049 198.792 46.7049C195.31 64.1745 191.873 81.4745 188.414 98.8806C184.91 98.8806 181.496 98.923 178.059 98.8382C177.61 98.817 177.026 98.1809 176.734 97.6933C171.32 88.7465 165.952 79.7785 160.583 70.8104C160.291 70.344 159.999 69.8776 159.595 69.2204C159.236 69.7716 158.944 70.2168 158.674 70.6408C153.238 79.6725 147.78 88.7041 142.389 97.7781C141.872 98.6474 141.311 98.9442 140.277 98.923C137.133 98.8594 133.988 98.9018 130.731 98.9018C127.272 81.5169 123.812 64.2169 120.353 46.8109C123.857 46.8109 127.249 46.8109 130.843 46.8109C133.381 59.4255 135.92 72.0825 138.548 85.0787C138.952 84.4851 139.199 84.1459 139.424 83.8067C144.006 76.1743 148.611 68.5419 153.148 60.8883C153.687 59.9767 154.271 59.6587 155.372 59.6799C158.135 59.7647 160.898 59.7647 163.683 59.6799C164.918 59.6375 165.525 60.0827 166.109 61.058C170.714 68.8387 175.386 76.5771 180.058 84.3155C180.148 84.5063 180.283 84.6759 180.575 85.0787Z" fill="white"/>
<path d="M255.195 52.6625C255.195 50.5424 255.195 48.7404 255.195 46.8323C258.676 46.8323 262.068 46.8323 265.572 46.8323C265.572 64.1535 265.572 81.4535 265.572 98.8384C262.135 98.8384 258.766 98.8384 255.284 98.8384C255.284 96.9515 255.284 95.0858 255.284 92.9021C247.086 99.0928 238.258 101.679 228.15 98.9232C221.838 97.2059 216.717 93.8561 212.898 88.7891C204.789 78.0614 205.71 63.7931 215.212 54.1042C220.445 48.7828 227.049 46.0266 234.709 45.6238C242.413 45.221 248.995 47.9771 255.195 52.6625ZM217.817 72.7399C217.795 82.4924 226.106 90.5488 236.349 90.4428C246.839 90.3368 255.15 82.874 255.217 72.9095C255.284 62.839 246.951 55.2915 236.461 55.1431C226.173 55.0159 217.84 63.0086 217.817 72.7399Z" fill="white"/>
<path d="M335.587 98.8378C332.06 98.8378 328.736 98.8378 325.322 98.8378C325.322 81.4741 325.322 64.1741 325.322 46.7893C328.714 46.7893 332.06 46.7893 335.542 46.7893C335.542 48.3369 335.542 49.8422 335.542 51.6867C336.351 51.1567 336.935 50.7539 337.541 50.3722C342.191 47.4253 347.178 45.496 352.905 45.6868C366.113 46.0896 376.828 55.4181 378.31 67.8419C378.468 69.0927 378.535 70.3436 378.535 71.6157C378.557 80.1809 378.535 88.7249 378.535 97.2901C378.535 97.7777 378.535 98.2653 378.535 98.8378C375.076 98.8378 371.706 98.8378 368.18 98.8378C368.18 98.3289 368.18 97.8625 368.18 97.3749C368.18 88.5977 368.202 79.8205 368.18 71.0432C368.157 64.5769 364.159 58.8738 358.049 56.4569C347.604 52.3439 335.722 59.7007 335.61 70.4072C335.52 79.3752 335.587 88.3221 335.587 97.2901C335.587 97.7565 335.587 98.2441 335.587 98.8378Z" fill="white"/>
<path d="M293.537 98.8606C290.011 98.8606 286.686 98.8606 283.272 98.8606C283.272 81.5182 283.272 64.2181 283.272 46.8121C286.619 46.8121 289.988 46.8121 293.492 46.8121C293.492 48.4234 293.492 50.0559 293.492 51.8579C299.557 47.5965 306.318 46.0065 313.709 45.54C312.832 48.9534 312.001 52.1124 311.17 55.3349C307.711 55.4197 304.499 56.183 301.601 57.9002C296.368 61.0168 293.56 65.469 293.537 71.3417C293.492 79.9917 293.537 88.6205 293.537 97.2705C293.537 97.7581 293.537 98.2458 293.537 98.8606Z" fill="white"/>
<path d="M50.1584 46.7463C53.5952 46.7463 56.9196 46.7463 60.4013 46.7463C60.4013 48.4211 60.4013 50.0536 60.4013 51.8133C66.4661 47.5519 73.2048 45.983 80.5949 45.5166C79.7413 48.7392 79.0001 51.7497 78.1465 54.739C78.0566 55.0359 77.3154 55.3115 76.8661 55.3539C70.689 55.9263 65.7922 58.4916 62.5576 63.5799C61.0976 65.912 60.4237 68.4561 60.4237 71.191C60.4462 79.8835 60.4237 88.5759 60.4237 97.2471C60.4237 97.7347 60.4237 98.2223 60.4237 98.7948C56.9645 98.7948 53.6176 98.7948 50.1584 98.7948C50.1584 81.4947 50.1584 64.1947 50.1584 46.7463Z" fill="white"/>
<path d="M105.169 98.8391C101.709 98.8391 98.3401 98.8391 94.9033 98.8391C94.9033 81.4967 94.9033 64.2178 94.9033 46.833C98.2951 46.833 101.687 46.833 105.169 46.833C105.169 64.1754 105.169 81.4755 105.169 98.8391Z" fill="white"/>
<path d="M103.506 27.1581C106.157 24.4444 108.426 21.667 111.166 19.4197C114.176 16.9604 119.185 17.1724 122.375 19.3985C125.946 21.879 127.361 25.8012 126.036 29.6598C124.756 33.4124 121.072 35.9141 116.849 35.9777C114.019 36.0201 111.638 35.0873 109.684 33.1792C107.55 31.0591 105.393 28.9814 103.506 27.1581Z" fill="#FBB946"/>
<path d="M97.0144 26.9451C94.2291 29.4469 91.7582 31.885 89.0403 34.0687C85.8282 36.634 81.156 36.634 77.7193 34.3655C74.1927 32.0122 72.7102 28.0052 73.9681 24.1254C75.1586 20.4152 78.9323 17.8287 83.1103 17.7651C85.8057 17.7227 88.052 18.6132 89.9388 20.3728C92.2524 22.4929 94.566 24.6342 97.0144 26.9451Z" fill="#FBB946"/>
</svg>
