<svg width="50" height="69" viewBox="0 0 50 69" fill="none" xmlns="http://www.w3.org/2000/svg">
<path d="M50 28.9864C50 45.4776 41.4674 51.9684 25.2174 69C11.8724 55.4395 0 45.4776 0 28.9864C0 12.4953 10.4348 0 25.6522 0C40.8696 0 50 12.4953 50 28.9864Z" fill="#493169"/>
<path d="M27.7153 29.0242C29.6177 26.955 31.246 24.8373 33.2129 23.1237C35.3733 21.2485 38.9686 21.4102 41.2579 23.1076C43.8213 24.9989 44.837 27.9896 43.8858 30.9317C42.9669 33.793 40.3228 35.7005 37.2919 35.749C35.2605 35.7814 33.5515 35.0701 32.1489 33.6152C30.6173 31.9986 29.0695 30.4144 27.7153 29.0242Z" fill="#FBB946"/>
<path d="M25.5626 25.3008C23.5025 23.3899 21.3942 21.7544 19.6882 19.7788C17.8213 17.6088 17.9822 13.9976 19.6721 11.6981C21.5551 9.12335 24.5326 8.10315 27.4617 9.05858C30.3104 9.98161 32.2095 12.6374 32.2578 15.6818C32.29 17.7222 31.5818 19.4387 30.1333 20.8475C28.5239 22.3859 26.9467 23.9405 25.5626 25.3008Z" fill="#FBB946"/>
<path d="M22.6086 28.8831C20.6494 30.7969 18.9113 32.662 16.9995 34.3325C14.7401 36.295 11.4537 36.295 9.03625 34.5596C6.55563 32.7593 5.51283 29.694 6.39763 26.726C7.23504 23.8878 9.88946 21.9091 12.8283 21.8605C14.7243 21.828 16.3043 22.5092 17.6315 23.8554C19.2589 25.4772 20.8864 27.1153 22.6086 28.8831Z" fill="#FBB946"/>
</svg>
