<svg width="122" height="170" viewBox="0 0 122 170" fill="none" xmlns="http://www.w3.org/2000/svg">
<path d="M60.9994 0C45.9433 0 31.4285 5.98369 20.2903 16.7817C9.15269 27.5793 2.1932 42.4164 0.770434 58.3925C-0.651195 74.3678 3.56706 90.3355 12.6004 103.172L58.8 168.828C59.3193 169.566 60.1345 170 61 170C61.8655 170 62.6807 169.566 63.2 168.828L109.4 103.172C118.433 90.3345 122.651 74.3668 121.23 58.3925C119.807 42.4171 112.847 27.58 101.71 16.7817C90.5713 5.98402 76.0564 0 61.0006 0H60.9994ZM110.031 71.4304C110.031 72.2221 109.838 72.9836 109.7 73.7465C109.563 74.508 109.343 75.7695 109.124 76.6775V76.6762C105.091 94.7519 92.6309 109.351 76.13 115.336C59.6289 121.324 41.3986 117.856 27.8592 106.158C14.318 94.4588 7.36326 76.1674 9.44413 57.7206C11.5238 39.2747 22.347 23.2582 38.103 15.3159C53.8602 7.36922 72.341 8.60595 87.0401 18.5897C101.741 28.5737 110.6 45.9047 110.5 64.4815C110.5 66.1224 110.5 67.7345 110.28 69.3464C110.198 70.0504 110.114 70.7243 110.032 71.4282L110.031 71.4304Z" fill="#493169"/>
<path d="M75.2682 64.1786C78.1729 60.9665 81.67 59.3861 85.8059 59.3861C89.9432 59.3861 93.4396 60.9665 96.3443 64.1786C99.2512 67.3914 100.678 71.2025 100.678 75.6686C100.678 80.1346 99.2512 83.9465 96.3443 87.1585C93.4396 90.3177 89.9432 91.951 85.8059 91.951C81.67 91.951 78.1729 90.3177 75.2682 87.1585L65.0749 75.4497L75.2682 64.1786ZM50.252 56.664C47.3466 53.4503 45.9181 49.6385 45.9181 45.174C45.9181 40.7079 47.3466 36.8961 50.252 33.684C53.1567 30.5249 56.6052 28.8916 60.6425 28.8916C64.6798 28.8916 68.1283 30.5249 71.033 33.684C73.8898 36.8961 75.3668 40.7079 75.3668 45.174C75.3668 49.6385 73.8898 53.4503 71.033 56.664L60.7904 68.3167L50.252 56.664ZM45.18 87.1585C42.2746 90.3177 38.8275 91.951 34.7888 91.951C30.8008 91.951 27.3044 90.3177 24.3983 87.1585C21.5429 83.9465 20.0645 80.1346 20.0645 75.6686C20.0645 71.2025 21.5429 67.3914 24.3983 64.1786C27.3044 60.9665 30.8008 59.3861 34.7888 59.3861C38.8275 59.3861 42.2746 60.9665 45.18 64.1786L55.7184 75.8329L45.18 87.1585Z" fill="#FFBD00"/>
</svg>
