<svg width="250" height="185" viewBox="0 0 250 185" fill="none" xmlns="http://www.w3.org/2000/svg">
<g clip-path="url(#clip0_5384_21509)">
<path fill-rule="evenodd" clip-rule="evenodd" d="M12.238 57.4943C12.8148 58.1349 13.6856 62.782 14.3884 64.8758C15.1273 67.0802 16.1344 69.4214 17.2604 71.3076C18.5606 73.4831 21.5026 77.7614 23.2865 79.3097C25.7128 81.419 25.0472 81.1672 28.2977 83.6917C30.6102 85.4873 34.5049 87.6701 37.3752 88.7895C50.4698 93.8983 64.2542 92.8316 76.1003 85.6994C85.0131 80.3367 91.5116 71.4931 93.9923 61.5142L94.7458 58.1592C94.9959 57.5849 94.8062 57.8655 95.1485 57.4856C95.6813 35.2771 76.5866 17.2629 53.6919 17.2607C30.9042 17.2585 11.5706 35.4051 12.238 57.4943Z" fill="#CFCFCF"/>
<path fill-rule="evenodd" clip-rule="evenodd" d="M5.9965 36.3902C7.97703 32.6443 8.26242 32.0502 10.7646 28.5339C12.4209 26.2036 14.6541 23.7962 16.7182 21.8106L23.8868 16.2424C27.9823 13.6561 27.8254 13.8218 32.1969 11.7654C44.6983 5.88587 63.2119 6.22605 75.1822 11.7699C80.9703 14.449 86.0065 17.3313 90.666 21.8106C99.8892 30.6785 106.288 43.2791 106.288 56.1955C105.665 57.5937 105.703 59.8996 105.38 61.5937C98.3156 98.4855 50.9002 117.319 17.4598 88.9017C15.5603 87.2871 13.2107 84.6171 11.5432 82.4084C1.00423 68.454 2.28981 59.0713 1.09649 56.412C1.09649 49.2226 3.43139 41.2428 5.9965 36.3902ZM15.9931 73.8608C24.8343 93.1334 49.2551 102.498 70.7253 93.5182C73.0507 92.5439 75.3563 91.3028 77.242 90.0221C83.4578 85.8008 88.2931 80.5399 91.3859 73.8542C94.2269 67.7162 94.4347 64.5887 95.1487 57.4854C95.6815 35.2771 76.5867 17.2629 53.6921 17.2607C30.9044 17.2585 11.5708 35.4052 12.2381 57.4944C12.9141 64.5798 13.209 67.7912 15.9931 73.8608Z" fill="#E6E6E6"/>
<g filter="url(#filter0_d_5384_21509)">
<path fill-rule="evenodd" clip-rule="evenodd" d="M51.4305 113.858C44.6802 113.465 39.1447 112.471 33.3324 110.434C29.674 109.154 21.5234 105.459 19.5515 103.426C18.8566 104.188 15.518 113.805 15.0593 115.122C14.2049 117.569 7.68734 133.688 8.31072 135.072C8.89445 136.369 11.5846 135.671 12.7382 135.555C14.6239 135.36 16.0354 135.333 17.9021 135.086C19.749 134.841 21.1734 134.794 22.9875 134.541C27.3615 133.928 27.4986 135.473 33.1212 140.832C35.7303 143.32 37.1504 145.483 39.5525 145.483C41.8374 142.231 43.9964 133.851 45.6924 129.768L50.057 117.754C50.4165 116.837 51.2969 114.944 51.4305 113.858Z" fill="#493169"/>
</g>
<g filter="url(#filter1_d_5384_21509)">
<path fill-rule="evenodd" clip-rule="evenodd" d="M55.9529 113.858L66.7954 143.773C67.2687 145.073 67.1894 144.57 67.8318 145.483C70.227 145.483 71.485 143.481 74.1234 140.967C76.0772 139.106 77.8422 137.447 79.7701 135.567C80.9419 134.425 81.4566 134.196 83.9053 134.467C85.5289 134.647 87.1464 134.845 89.014 134.991C102.981 136.095 100.869 139.651 92.3965 115.323L87.8319 103.426C85.8997 105.462 77.5499 109.213 73.8596 110.514C68.3319 112.467 62.3334 113.487 55.9529 113.858Z" fill="#493169"/>
</g>
<path fill-rule="evenodd" clip-rule="evenodd" d="M1.09649 56.4118C1.09649 70.7948 5.29897 79.9852 13.3728 89.8361C14.8722 91.6647 19.5662 95.8285 21.4562 97.2837C22.7771 97.7874 27.1374 101.606 35.325 104.495C50.9278 110.003 68.781 108.244 82.5498 99.4038C83.4742 98.8097 85.0727 97.6148 85.928 97.2903C86.4048 96.9169 86.567 96.7245 87.0239 96.3784L90.1331 93.6858C93.4854 91.1498 98.4984 84.3474 100.352 80.7849C104.137 73.505 106.288 67.1019 106.288 56.1953C105.665 57.5935 105.703 59.8993 105.38 61.5934C98.3156 98.4852 50.9002 117.319 17.4598 88.9015C15.5603 87.2869 13.2107 84.6169 11.5432 82.4082C1.00423 68.4535 2.28981 59.0711 1.09649 56.4118Z" fill="#CCCCCC"/>
<path fill-rule="evenodd" clip-rule="evenodd" d="M5.9965 36.3902C7.97703 32.6443 8.26242 32.0502 10.7646 28.5339C12.4209 26.2036 14.6541 23.7962 16.7182 21.8106L23.8868 16.2424C27.9823 13.6561 27.8254 13.8218 32.1969 11.7654C44.6983 5.88587 63.2119 6.22605 75.1822 11.7699C80.9703 14.449 86.0065 17.3313 90.666 21.8106C99.8892 30.6785 106.288 43.2791 106.288 56.1955C105.665 57.5937 105.703 59.8996 105.38 61.5937C98.3156 98.4855 50.9002 117.319 17.4598 88.9017C15.5603 87.2871 13.2107 84.6171 11.5432 82.4084C1.00423 68.454 2.28981 59.0713 1.09649 56.412C1.09649 49.2226 3.43139 41.2428 5.9965 36.3902ZM15.9931 73.8608C24.8343 93.1334 49.2551 102.498 70.7253 93.5182C73.0507 92.5439 75.3563 91.3028 77.242 90.0221C83.4578 85.8008 88.2931 80.5399 91.3859 73.8542C94.2269 67.7162 94.4347 64.5887 95.1487 57.4854C95.6815 35.2771 76.5867 17.2629 53.6921 17.2607C30.9044 17.2585 11.5708 35.4052 12.2381 57.4944C12.9141 64.5798 13.209 67.7912 15.9931 73.8608Z" fill="#E6E6E6"/>
<path fill-rule="evenodd" clip-rule="evenodd" d="M1.09649 56.4118C1.09649 70.7948 5.29897 79.9852 13.3728 89.8361C14.8722 91.6647 19.5662 95.8285 21.4562 97.2837C22.7771 97.7874 27.1374 101.606 35.325 104.495C50.9278 110.003 68.781 108.244 82.5498 99.4038C83.4742 98.8097 85.0727 97.6148 85.928 97.2903C86.4048 96.9169 86.567 96.7245 87.0239 96.3784L90.1331 93.6858C93.4854 91.1498 98.4984 84.3474 100.352 80.7849C104.137 73.505 106.288 67.1019 106.288 56.1953C105.665 57.5935 105.703 59.8993 105.38 61.5934C98.3156 98.4852 50.9002 117.319 17.4598 88.9015C15.5603 87.2869 13.2107 84.6169 11.5432 82.4082C1.00423 68.4535 2.28981 59.0711 1.09649 56.4118Z" fill="#CCCCCC"/>
<path d="M33.411 110.163C31.5934 109.526 28.6506 108.286 25.9157 106.952C24.5482 106.284 23.2367 105.595 22.146 104.948C21.1105 104.333 20.2914 103.765 19.8111 103.299C19.8223 102.468 20.2017 101.539 20.6457 100.524C20.6759 100.455 20.707 100.386 20.7371 100.316C21.1096 99.4672 21.5054 98.5675 21.6623 97.6923C21.9589 97.8526 22.3633 98.1129 22.8953 98.4619C22.972 98.5119 23.0505 98.5637 23.1324 98.6175C23.8161 99.0674 24.6672 99.6257 25.6889 100.244C27.979 101.63 31.1312 103.315 35.2449 104.767C50.9141 110.301 68.8449 108.533 82.6818 99.6502C82.9396 99.4842 83.2561 99.2673 83.5915 99.0381C83.8562 98.857 84.1312 98.6684 84.4003 98.4902C84.8865 98.1667 85.3513 97.8753 85.7203 97.6904C85.8772 98.5637 86.2721 99.4625 86.6446 100.31C86.6765 100.382 86.7076 100.454 86.7386 100.524C87.1835 101.54 87.562 102.47 87.5724 103.301C87.1016 103.767 86.279 104.337 85.2288 104.959C84.1252 105.612 82.7913 106.309 81.3997 106.986C78.6156 108.337 75.6142 109.596 73.7794 110.242C68.3267 112.169 62.4075 113.186 56.1047 113.564C55.8296 112.986 55.4106 111.984 55.0355 110.974C54.8303 110.42 54.6406 109.869 54.4958 109.387C54.3492 108.898 54.2561 108.502 54.2336 108.251L54.2112 107.994H53.975H53.4094H53.1723L53.1498 108.251C53.1283 108.502 53.0351 108.898 52.8886 109.387C52.7437 109.869 52.5532 110.42 52.348 110.974C51.9738 111.984 51.5539 112.986 51.2788 113.564C44.6207 113.165 39.1516 112.174 33.411 110.163Z" fill="#351B5C" stroke="#FFBA57" stroke-width="0.548246"/>
<path fill-rule="evenodd" clip-rule="evenodd" d="M95.1485 57.4854C94.8054 57.8652 94.9951 57.5847 94.745 58.1589L93.9923 61.514C91.5108 71.4928 85.0123 80.3365 76.0995 85.6992C64.2542 92.8315 50.469 93.8982 37.3744 88.7894C34.5041 87.669 30.612 85.4872 28.2978 83.6915C25.0472 81.167 25.712 81.4187 23.2866 79.3094C21.5026 77.7612 18.5599 73.483 17.2605 71.3073C16.1344 69.421 15.1265 67.0799 14.3876 64.8756C13.6857 62.7818 12.8149 58.1346 12.238 57.4941C12.914 64.5796 13.208 67.7911 15.993 73.8606C24.8343 93.1333 49.255 102.498 70.7244 93.5181C73.0506 92.5439 75.3562 91.3028 77.2419 90.022C83.4577 85.8007 88.293 80.5397 91.3858 73.8539C94.226 67.716 94.4346 64.5884 95.1485 57.4854Z" fill="#B5B5B5"/>
<path d="M64.3074 54.3332C66.3768 52.3585 68.8695 51.389 71.8157 51.389C74.7654 51.389 77.2563 52.3585 79.3274 54.3332C81.3984 56.3077 82.415 58.6489 82.415 61.3922C82.415 64.1354 81.3984 66.4788 79.3274 68.4511C77.2563 70.3926 74.7654 71.3953 71.8157 71.3953C68.8695 71.3953 66.3768 70.3926 64.3074 68.4511L57.0424 61.2575L64.3074 54.3332ZM46.4801 49.7169C44.4108 47.7424 43.3916 45.4012 43.3916 42.658C43.3916 39.9148 44.4108 37.5714 46.4801 35.599C48.5512 33.6575 51.0068 32.6548 53.884 32.6548C56.7613 32.6548 59.2195 33.6575 61.2914 35.599C63.3254 37.5714 64.379 39.9148 64.379 42.658C64.379 45.4012 63.3254 47.7424 61.2914 49.7169L53.9909 56.8754L46.4801 49.7169ZM42.8657 68.4534C40.7946 70.3947 38.339 71.3976 35.4592 71.3976C32.6182 71.3976 30.1255 70.3947 28.0544 68.4534C26.0204 66.4811 24.9659 64.1375 24.9659 61.3943C24.9659 58.6512 26.0204 56.3099 28.0544 54.3353C30.1255 52.3608 32.6182 51.3912 35.4592 51.3912C38.339 51.3912 40.7946 52.3608 42.8657 54.3353L50.3739 61.4938L42.8657 68.4534Z" fill="white"/>
<path d="M53.5899 73.5981L54.3056 75.7097L56.6319 75.7052L54.7462 77.0061L55.4713 79.1155L53.5899 77.808L51.7086 79.1155L52.4337 77.0061L50.548 75.7052L52.8743 75.7097L53.5899 73.5981Z" fill="#F7F7F7"/>
<path fill-rule="evenodd" clip-rule="evenodd" d="M73.0826 67.9718C73.744 68.7161 74.7429 74.1151 75.5478 76.5477C76.3953 79.1087 77.5508 81.8287 78.8418 84.0201C80.332 86.5477 83.7058 91.5182 85.7513 93.3171C88.5326 95.7677 87.7702 95.4752 91.4972 98.4082C94.1483 100.494 98.6135 103.03 101.905 104.331C116.92 110.266 132.725 109.027 146.308 100.741C156.528 94.5103 163.979 84.2357 166.824 72.6422L167.687 68.7443C167.974 68.077 167.756 68.4029 168.149 67.9616C168.761 42.1596 146.866 21.2306 120.614 21.228C94.4857 21.2255 72.3175 42.3084 73.0826 67.9718Z" fill="#FFBA57"/>
<path fill-rule="evenodd" clip-rule="evenodd" d="M65.9254 43.4534C68.1968 39.1013 68.5234 38.4111 71.3925 34.3259C73.2918 31.6186 75.8526 28.8216 78.2195 26.5147L86.4386 20.0456C91.1352 17.0407 90.9546 17.2332 95.967 14.8441C110.302 8.01322 131.53 8.4084 145.255 14.8493C151.891 17.9619 157.667 21.3106 163.009 26.5147C173.584 36.8175 180.921 51.4571 180.921 66.4634C180.207 68.0878 180.251 70.7667 179.88 72.735C171.78 115.596 117.413 137.477 79.0697 104.462C76.8914 102.586 74.1977 99.4838 72.2851 96.9178C60.2008 80.7053 61.6751 69.8045 60.307 66.7149C60.307 58.3623 62.9847 49.0911 65.9254 43.4534ZM77.3881 86.987C87.5252 109.379 115.527 120.259 140.144 109.825C142.812 108.694 145.455 107.251 147.617 105.763C154.744 100.859 160.289 94.7468 163.835 86.9793C167.091 79.8482 167.331 76.2147 168.149 67.9621C168.759 42.1601 146.865 21.2311 120.614 21.2286C94.4851 21.226 72.3168 42.3089 73.082 67.9724C73.8575 76.2043 74.195 79.9355 77.3881 86.987Z" fill="#FFE179"/>
<g filter="url(#filter2_d_5384_21509)">
<path fill-rule="evenodd" clip-rule="evenodd" d="M118.021 133.456C110.28 133 103.934 131.844 97.2683 129.479C93.074 127.99 83.7287 123.698 81.468 121.336C80.6711 122.222 76.8431 133.395 76.3171 134.924C75.3368 137.767 67.8642 156.494 68.5789 158.103C69.2483 159.609 72.3325 158.799 73.6552 158.664C75.8178 158.437 77.4355 158.407 79.5766 158.119C81.6938 157.834 83.3276 157.779 85.4075 157.486C90.4229 156.774 90.5797 158.568 97.0271 164.796C100.018 167.686 101.647 170.198 104.401 170.198C107.02 166.421 109.497 156.684 111.44 151.94L116.446 137.982C116.858 136.918 117.867 134.718 118.021 133.456Z" fill="#493169"/>
</g>
<g filter="url(#filter3_d_5384_21509)">
<path fill-rule="evenodd" clip-rule="evenodd" d="M123.206 133.456L135.639 168.211C136.181 169.722 136.091 169.138 136.826 170.198C139.573 170.198 141.015 167.873 144.041 164.952C146.281 162.79 148.305 160.861 150.515 158.678C151.86 157.352 152.449 157.085 155.257 157.401C157.119 157.609 158.973 157.839 161.114 158.009C177.13 159.292 174.708 163.423 164.993 135.158L159.76 121.336C157.544 123.703 147.97 128.059 143.738 129.571C137.4 131.839 130.522 133.026 123.206 133.456Z" fill="#493169"/>
</g>
<path fill-rule="evenodd" clip-rule="evenodd" d="M60.307 66.7149C60.307 83.4253 65.1258 94.1028 74.3836 105.547C76.1023 107.672 81.4843 112.509 83.652 114.201C85.1661 114.785 90.1657 119.222 99.5539 122.578C117.445 128.979 137.916 126.934 153.703 116.664C154.763 115.974 156.596 114.586 157.576 114.208C158.123 113.774 158.31 113.551 158.833 113.148L162.398 110.02C166.241 107.074 171.99 99.1708 174.116 95.0317C178.456 86.5739 180.921 79.1347 180.921 66.4634C180.207 68.0878 180.251 70.7668 179.88 72.7349C171.78 115.597 117.413 137.477 79.0696 104.462C76.8913 102.586 74.1977 99.4839 72.2851 96.9178C60.2008 80.7052 61.675 69.8045 60.307 66.7149Z" fill="#F9CE58"/>
<path d="M97.3592 129.163C95.2754 128.423 91.9004 126.983 88.7644 125.432C87.1969 124.657 85.6932 123.857 84.4427 123.104C83.2545 122.389 82.3161 121.73 81.7651 121.189C81.7781 120.223 82.2125 119.145 82.7221 117.964C82.7567 117.884 82.7918 117.803 82.8269 117.723C83.2544 116.736 83.7076 115.692 83.888 114.674C84.2276 114.86 84.6917 115.163 85.3011 115.569C85.3892 115.626 85.4798 115.687 85.5732 115.749C86.3575 116.272 87.3328 116.921 88.505 117.639C91.1304 119.25 94.7447 121.207 99.4616 122.894C117.428 129.323 137.988 127.27 153.853 116.95C154.149 116.757 154.512 116.505 154.897 116.238C155.2 116.028 155.516 115.809 155.824 115.602C156.381 115.226 156.914 114.887 157.338 114.673C157.518 115.687 157.971 116.731 158.398 117.717C158.434 117.8 158.47 117.882 158.506 117.965C159.015 119.146 159.449 120.226 159.461 121.191C158.922 121.732 157.978 122.395 156.775 123.117C155.508 123.876 153.979 124.687 152.383 125.471C149.192 127.042 145.75 128.504 143.646 129.255C137.394 131.493 130.607 132.675 123.38 133.114C123.065 132.442 122.583 131.279 122.154 130.106C121.919 129.462 121.701 128.822 121.535 128.262C121.367 127.694 121.259 127.234 121.234 126.943L121.209 126.643H120.937H120.289H120.018L119.992 126.943C119.967 127.234 119.86 127.694 119.692 128.262C119.526 128.822 119.308 129.462 119.073 130.106C118.643 131.279 118.162 132.442 117.847 133.114C110.212 132.65 103.941 131.499 97.3592 129.163Z" fill="#351B5C" stroke="#FFBA57" stroke-width="0.4639"/>
<path fill-rule="evenodd" clip-rule="evenodd" d="M168.148 67.9619C167.755 68.4032 167.973 68.0772 167.685 68.7445L166.822 72.6424C163.977 84.236 156.526 94.5106 146.306 100.741C132.724 109.027 116.918 110.266 101.903 104.331C98.6124 103.03 94.1494 100.495 91.4955 98.4084C87.7686 95.4754 88.5309 95.7678 85.7497 93.3174C83.7042 91.5185 80.3305 86.548 78.8402 84.0203C77.5491 81.8289 76.3936 79.1089 75.5462 76.5479C74.7413 74.1154 73.7425 68.7163 73.081 67.9721C73.8567 76.2041 74.194 79.9351 77.387 86.9868C87.5241 109.379 115.526 120.258 140.144 109.825C142.811 108.693 145.453 107.251 147.616 105.763C154.743 100.859 160.287 94.7467 163.834 86.9791C167.091 79.848 167.33 76.2143 168.148 67.9619Z" fill="#FFAC3E"/>
<path d="M132.785 64.2998C135.157 62.0057 138.016 60.8793 141.395 60.8793C144.777 60.8793 147.633 62.0057 150.007 64.2998C152.382 66.5939 153.548 69.3139 153.548 72.5011C153.548 75.6882 152.382 78.4107 150.007 80.7022C147.633 82.9578 144.777 84.1228 141.395 84.1228C138.016 84.1228 135.157 82.9578 132.785 80.7022L124.454 72.3445L132.785 64.2998ZM112.344 58.9367C109.971 56.6426 108.802 53.9226 108.802 50.7354C108.802 47.5483 109.971 44.8258 112.344 42.5343C114.719 40.2787 117.535 39.1138 120.834 39.1138C124.133 39.1138 126.952 40.2787 129.326 42.5343C131.659 44.8258 132.868 47.5483 132.868 50.7354C132.868 53.9226 131.659 56.6426 129.326 58.9367L120.956 67.2534L112.344 58.9367ZM108.199 80.7049C105.825 82.9603 103.009 84.1254 99.7071 84.1254C96.4505 84.1254 93.5918 82.9603 91.217 80.7049C88.8846 78.4134 87.6758 75.6907 87.6758 72.5035C87.6758 69.3166 88.8846 66.5965 91.217 64.3024C93.5918 62.0084 96.4505 60.8818 99.7071 60.8818C103.009 60.8818 105.825 62.0084 108.199 64.3024L116.809 72.6191L108.199 80.7049Z" fill="#FFF0B5"/>
<path d="M124.646 87.8511L125.467 90.3042L128.137 90.2991L125.975 91.8106L126.803 94.2611L124.646 92.742L122.489 94.2611L123.321 91.8106L121.159 90.2991L123.829 90.3042L124.646 87.8511Z" fill="#FFF0B5"/>
<path d="M115.543 87.8511L116.363 90.3042L119.031 90.2991L116.868 91.8106L117.699 94.2611L115.543 92.742L113.386 94.2611L114.215 91.8106L112.052 90.2991L114.722 90.3042L115.543 87.8511Z" fill="#FFF0B5"/>
<path fill-rule="evenodd" clip-rule="evenodd" d="M147.063 85.9435C147.694 86.6512 148.648 91.7841 149.416 94.097C150.225 96.532 151.328 99.118 152.56 101.201C153.983 103.605 157.203 108.33 159.156 110.04C161.811 112.37 161.083 112.092 164.64 114.881C167.171 116.864 171.434 119.275 174.575 120.512C188.907 126.155 203.995 124.976 216.96 117.099C226.715 111.175 233.827 101.406 236.543 90.3838L237.367 86.6779C237.641 86.0435 237.433 86.3534 237.808 85.9337C238.392 61.4025 217.492 41.5043 192.434 41.502C167.493 41.4995 146.333 61.544 147.063 85.9435Z" fill="url(#paint0_linear_5384_21509)"/>
<path fill-rule="evenodd" clip-rule="evenodd" d="M140.231 62.6324C142.399 58.4945 142.711 57.8384 145.45 53.9544C147.263 51.3804 149.707 48.7212 151.966 46.5279L159.812 40.3774C164.295 37.5205 164.123 37.7035 168.907 35.4321C182.59 28.9376 202.853 29.3133 215.955 35.437C222.289 38.3963 227.802 41.5801 232.901 46.5279C242.996 56.3232 250 70.2417 250 84.5091C249.318 86.0535 249.36 88.6005 249.006 90.4718C241.274 131.222 189.378 152.026 152.778 120.636C150.699 118.853 148.127 115.903 146.302 113.464C134.767 98.0495 136.174 87.6856 134.868 84.7482C134.868 76.8069 137.424 67.9924 140.231 62.6324ZM151.173 104.022C160.849 125.311 187.578 135.655 211.076 125.735C213.622 124.659 216.145 123.288 218.21 121.873C225.013 117.211 230.305 111.399 233.69 104.015C236.799 97.2346 237.027 93.7801 237.808 85.9339C238.391 61.4027 217.492 41.5046 192.434 41.5021C167.493 41.4996 146.332 61.5443 147.062 85.9438C147.803 93.7703 148.125 97.3176 151.173 104.022Z" fill="#F7F7F7"/>
<g filter="url(#filter4_d_5384_21509)">
<path fill-rule="evenodd" clip-rule="evenodd" d="M189.96 148.203C182.571 147.769 176.513 146.671 170.151 144.421C166.147 143.006 157.226 138.925 155.068 136.68C154.308 137.522 150.654 148.144 150.152 149.598C149.216 152.301 142.083 170.107 142.765 171.635C143.404 173.068 146.348 172.298 147.611 172.169C149.675 171.953 151.219 171.924 153.263 171.651C155.284 171.38 156.843 171.329 158.829 171.049C163.616 170.372 163.766 172.078 169.92 177.999C172.775 180.747 174.329 183.135 176.959 183.135C179.459 179.544 181.822 170.287 183.679 165.776L188.456 152.506C188.849 151.494 189.813 149.403 189.96 148.203Z" fill="#493169"/>
</g>
<g filter="url(#filter5_d_5384_21509)">
<path fill-rule="evenodd" clip-rule="evenodd" d="M194.908 148.203L206.775 181.247C207.292 182.682 207.206 182.128 207.908 183.135C210.53 183.135 211.907 180.925 214.795 178.148C216.933 176.091 218.865 174.259 220.975 172.182C222.258 170.922 222.821 170.669 225.501 170.968C227.278 171.166 229.048 171.385 231.092 171.546C246.38 172.765 244.068 176.694 234.794 149.82L229.799 136.68C227.684 138.93 218.545 143.072 214.506 144.509C208.456 146.666 201.891 147.793 194.908 148.203Z" fill="#493169"/>
</g>
<path fill-rule="evenodd" clip-rule="evenodd" d="M134.868 84.7485C134.868 100.636 139.468 110.787 148.305 121.668C149.945 123.688 155.083 128.287 157.152 129.895C158.597 130.451 163.37 134.67 172.331 137.861C189.409 143.945 208.949 142.001 224.019 132.237C225.03 131.581 226.78 130.261 227.716 129.902C228.238 129.49 228.416 129.278 228.915 128.895L232.318 125.921C235.987 123.12 241.475 115.606 243.503 111.671C247.647 103.629 250 96.5566 250 84.5093C249.318 86.0536 249.36 88.6007 249.006 90.4719C241.274 131.222 189.378 152.026 152.778 120.636C150.699 118.853 148.127 115.903 146.302 113.464C134.767 98.0497 136.174 87.6858 134.868 84.7485Z" fill="#CCCCCC"/>
<path d="M170.237 144.121C168.247 143.418 165.026 142.048 162.033 140.574C160.536 139.837 159.101 139.076 157.907 138.36C156.773 137.681 155.877 137.054 155.351 136.54C155.364 135.622 155.778 134.596 156.265 133.474C156.298 133.398 156.331 133.321 156.365 133.244C156.773 132.307 157.206 131.313 157.378 130.346C157.702 130.523 158.145 130.81 158.727 131.196C158.811 131.251 158.897 131.309 158.986 131.368C159.735 131.865 160.666 132.482 161.785 133.165C164.291 134.696 167.741 136.557 172.243 138.16C189.393 144.273 209.018 142.321 224.163 132.509C224.445 132.326 224.792 132.086 225.159 131.833C225.448 131.633 225.75 131.424 226.044 131.227C226.576 130.87 227.085 130.548 227.489 130.344C227.661 131.309 228.093 132.301 228.501 133.238C228.535 133.318 228.57 133.396 228.604 133.475C229.09 134.597 229.504 135.624 229.516 136.542C229 137.056 228.1 137.686 226.951 138.373C225.742 139.095 224.283 139.865 222.76 140.611C219.713 142.104 216.428 143.495 214.42 144.209C208.451 146.337 201.973 147.46 195.075 147.877C194.774 147.239 194.315 146.133 193.905 145.017C193.68 144.406 193.472 143.796 193.314 143.264C193.153 142.724 193.051 142.287 193.027 142.01L193.002 141.725H192.743H192.124H191.865L191.841 142.01C191.817 142.287 191.715 142.724 191.554 143.264C191.396 143.796 191.188 144.406 190.963 145.017C190.553 146.133 190.094 147.239 189.793 147.877C182.505 147.437 176.519 146.342 170.237 144.121Z" fill="#351B5C" stroke="#FFBA57" stroke-width="0.4639"/>
<path fill-rule="evenodd" clip-rule="evenodd" d="M237.61 86.0142C237.234 86.4337 237.442 86.1238 237.168 86.7581L236.344 90.4641C233.629 101.487 226.516 111.255 216.761 117.179C203.796 125.057 188.708 126.235 174.376 120.592C171.235 119.355 166.975 116.945 164.441 114.961C160.884 112.173 161.612 112.451 158.957 110.121C157.004 108.411 153.784 103.685 152.361 101.282C151.129 99.1982 150.026 96.6121 149.217 94.1773C148.449 91.8646 147.495 86.7313 146.864 86.0238C147.604 93.8504 147.926 97.3978 150.974 104.102C160.651 125.391 187.38 135.735 210.878 125.815C213.424 124.739 215.947 123.368 218.011 121.953C224.814 117.291 230.106 111.48 233.492 104.095C236.6 97.3148 236.829 93.8601 237.61 86.0142Z" fill="#CCCCCC"/>
<path d="M204.053 82.4521C206.317 80.2708 209.046 79.1998 212.271 79.1998C215.499 79.1998 218.225 80.2708 220.492 82.4521C222.759 84.6331 223.872 87.2191 223.872 90.2492C223.872 93.2794 222.759 95.8679 220.492 98.0466C218.225 100.191 215.499 101.299 212.271 101.299C209.046 101.299 206.317 100.191 204.053 98.0466L196.101 90.1005L204.053 82.4521ZM184.54 77.3529C182.276 75.1719 181.16 72.5858 181.16 69.5557C181.16 66.5256 182.276 63.9371 184.54 61.7584C186.807 59.6139 189.495 58.5063 192.645 58.5063C195.794 58.5063 198.484 59.6139 200.751 61.7584C202.978 63.9371 204.131 66.5256 204.131 69.5557C204.131 72.5858 202.978 75.1719 200.751 77.3529L192.761 85.26L184.54 77.3529ZM180.585 98.049C178.318 100.193 175.63 101.301 172.478 101.301C169.369 101.301 166.641 100.193 164.374 98.049C162.148 95.8704 160.994 93.2819 160.994 90.2517C160.994 87.2217 162.148 84.6354 164.374 82.4544C166.641 80.2734 169.369 79.2023 172.478 79.2023C175.63 79.2023 178.318 80.2734 180.585 82.4544L188.803 90.3615L180.585 98.049Z" fill="white"/>
<path d="M203.155 106.13L203.938 108.462L206.487 108.458L204.423 109.894L205.214 112.224L203.155 110.78L201.096 112.224L201.889 109.894L199.825 108.458L202.374 108.462L203.155 106.13Z" fill="#F7F7F7"/>
<path d="M194.465 106.129L195.246 108.462L197.795 108.457L195.731 109.894L196.524 112.224L194.465 110.78L192.406 112.224L193.197 109.894L191.134 108.457L193.682 108.462L194.465 106.129Z" fill="#F7F7F7"/>
<path d="M185.772 106.13L186.555 108.462L189.103 108.458L187.039 109.894L187.831 112.224L185.772 110.78L183.715 112.224L184.506 109.894L182.442 108.458L184.991 108.462L185.772 106.13Z" fill="#F7F7F7"/>
</g>
<defs>
<filter id="filter0_d_5384_21509" x="3.88281" y="103.426" width="51.9337" height="50.8286" filterUnits="userSpaceOnUse" color-interpolation-filters="sRGB">
<feFlood flood-opacity="0" result="BackgroundImageFix"/>
<feColorMatrix in="SourceAlpha" type="matrix" values="0 0 0 0 0 0 0 0 0 0 0 0 0 0 0 0 0 0 127 0" result="hardAlpha"/>
<feOffset dy="4.38596"/>
<feGaussianBlur stdDeviation="2.19298"/>
<feComposite in2="hardAlpha" operator="out"/>
<feColorMatrix type="matrix" values="0 0 0 0 0 0 0 0 0 0 0 0 0 0 0 0 0 0 0.25 0"/>
<feBlend mode="normal" in2="BackgroundImageFix" result="effect1_dropShadow_5384_21509"/>
<feBlend mode="normal" in="SourceGraphic" in2="effect1_dropShadow_5384_21509" result="shape"/>
</filter>
<filter id="filter1_d_5384_21509" x="51.5669" y="103.426" width="51.9458" height="50.8286" filterUnits="userSpaceOnUse" color-interpolation-filters="sRGB">
<feFlood flood-opacity="0" result="BackgroundImageFix"/>
<feColorMatrix in="SourceAlpha" type="matrix" values="0 0 0 0 0 0 0 0 0 0 0 0 0 0 0 0 0 0 127 0" result="hardAlpha"/>
<feOffset dy="4.38596"/>
<feGaussianBlur stdDeviation="2.19298"/>
<feComposite in2="hardAlpha" operator="out"/>
<feColorMatrix type="matrix" values="0 0 0 0 0 0 0 0 0 0 0 0 0 0 0 0 0 0 0.25 0"/>
<feBlend mode="normal" in2="BackgroundImageFix" result="effect1_dropShadow_5384_21509"/>
<feBlend mode="normal" in="SourceGraphic" in2="effect1_dropShadow_5384_21509" result="shape"/>
</filter>
<filter id="filter2_d_5384_21509" x="64.8196" y="121.336" width="56.913" height="56.2837" filterUnits="userSpaceOnUse" color-interpolation-filters="sRGB">
<feFlood flood-opacity="0" result="BackgroundImageFix"/>
<feColorMatrix in="SourceAlpha" type="matrix" values="0 0 0 0 0 0 0 0 0 0 0 0 0 0 0 0 0 0 127 0" result="hardAlpha"/>
<feOffset dy="3.7112"/>
<feGaussianBlur stdDeviation="1.8556"/>
<feComposite in2="hardAlpha" operator="out"/>
<feColorMatrix type="matrix" values="0 0 0 0 0 0 0 0 0 0 0 0 0 0 0 0 0 0 0.25 0"/>
<feBlend mode="normal" in2="BackgroundImageFix" result="effect1_dropShadow_5384_21509"/>
<feBlend mode="normal" in="SourceGraphic" in2="effect1_dropShadow_5384_21509" result="shape"/>
</filter>
<filter id="filter3_d_5384_21509" x="119.495" y="121.336" width="56.9263" height="56.2837" filterUnits="userSpaceOnUse" color-interpolation-filters="sRGB">
<feFlood flood-opacity="0" result="BackgroundImageFix"/>
<feColorMatrix in="SourceAlpha" type="matrix" values="0 0 0 0 0 0 0 0 0 0 0 0 0 0 0 0 0 0 127 0" result="hardAlpha"/>
<feOffset dy="3.7112"/>
<feGaussianBlur stdDeviation="1.8556"/>
<feComposite in2="hardAlpha" operator="out"/>
<feColorMatrix type="matrix" values="0 0 0 0 0 0 0 0 0 0 0 0 0 0 0 0 0 0 0.25 0"/>
<feBlend mode="normal" in2="BackgroundImageFix" result="effect1_dropShadow_5384_21509"/>
<feBlend mode="normal" in="SourceGraphic" in2="effect1_dropShadow_5384_21509" result="shape"/>
</filter>
<filter id="filter4_d_5384_21509" x="139.008" y="136.68" width="54.663" height="53.8775" filterUnits="userSpaceOnUse" color-interpolation-filters="sRGB">
<feFlood flood-opacity="0" result="BackgroundImageFix"/>
<feColorMatrix in="SourceAlpha" type="matrix" values="0 0 0 0 0 0 0 0 0 0 0 0 0 0 0 0 0 0 127 0" result="hardAlpha"/>
<feOffset dy="3.7112"/>
<feGaussianBlur stdDeviation="1.8556"/>
<feComposite in2="hardAlpha" operator="out"/>
<feColorMatrix type="matrix" values="0 0 0 0 0 0 0 0 0 0 0 0 0 0 0 0 0 0 0.25 0"/>
<feBlend mode="normal" in2="BackgroundImageFix" result="effect1_dropShadow_5384_21509"/>
<feBlend mode="normal" in="SourceGraphic" in2="effect1_dropShadow_5384_21509" result="shape"/>
</filter>
<filter id="filter5_d_5384_21509" x="191.196" y="136.68" width="54.6758" height="53.8775" filterUnits="userSpaceOnUse" color-interpolation-filters="sRGB">
<feFlood flood-opacity="0" result="BackgroundImageFix"/>
<feColorMatrix in="SourceAlpha" type="matrix" values="0 0 0 0 0 0 0 0 0 0 0 0 0 0 0 0 0 0 127 0" result="hardAlpha"/>
<feOffset dy="3.7112"/>
<feGaussianBlur stdDeviation="1.8556"/>
<feComposite in2="hardAlpha" operator="out"/>
<feColorMatrix type="matrix" values="0 0 0 0 0 0 0 0 0 0 0 0 0 0 0 0 0 0 0.25 0"/>
<feBlend mode="normal" in2="BackgroundImageFix" result="effect1_dropShadow_5384_21509"/>
<feBlend mode="normal" in="SourceGraphic" in2="effect1_dropShadow_5384_21509" result="shape"/>
</filter>
<linearGradient id="paint0_linear_5384_21509" x1="149.768" y1="50.2044" x2="210.229" y2="134.259" gradientUnits="userSpaceOnUse">
<stop stop-color="#CFCFCF"/>
<stop offset="0.388" stop-color="#E9E9E9"/>
<stop offset="1" stop-color="#CFCFCF"/>
</linearGradient>
<clipPath id="clip0_5384_21509">
<rect width="250" height="184.211" fill="white"/>
</clipPath>
</defs>
</svg>
