<svg width="261" height="173" viewBox="0 0 261 173" fill="none" xmlns="http://www.w3.org/2000/svg">
<g clip-path="url(#clip0_4621_3186)">
<path fill-rule="evenodd" clip-rule="evenodd" d="M10.9095 47.5304C11.4744 48.1008 12.3273 52.2385 13.0148 54.1029C13.7384 56.0657 14.7252 58.1503 15.8277 59.8297C17.1003 61.7669 19.9813 65.5763 21.7282 66.9549C24.1033 68.8331 23.4522 68.6089 26.6349 70.8567C28.8989 72.4556 32.7123 74.3987 35.523 75.3957C48.3447 79.9445 61.8424 78.9947 73.4414 72.6444C82.1684 67.8694 88.5316 59.995 90.9612 51.1097L91.6984 48.1224C91.9435 47.611 91.7575 47.8608 92.0932 47.5225C92.6149 27.7479 73.9177 11.708 51.5002 11.7061C29.187 11.7041 10.2562 27.862 10.9095 47.5304Z" fill="url(#paint0_linear_4621_3186)"/>
<path fill-rule="evenodd" clip-rule="evenodd" d="M4.79792 28.7393C6.73752 25.4038 7.01654 24.8749 9.46655 21.744C11.0885 19.6691 13.2754 17.5255 15.2966 15.7575L22.3154 10.7996C26.3262 8.49665 26.1719 8.64414 30.4526 6.8132C42.6936 1.578 60.8214 1.88087 72.5428 6.81714C78.2095 9.20267 83.1413 11.7691 87.7034 15.7575C96.7343 23.6535 103 34.8732 103 46.3741C102.39 47.619 102.428 49.6722 102.111 51.1806C95.194 84.0294 48.7664 100.799 16.0226 75.4962C14.1624 74.0586 11.8621 71.6809 10.2288 69.7142C-0.0907417 57.289 1.16829 48.9347 0 46.5668C0 40.1654 2.28667 33.06 4.79792 28.7393ZM14.5866 62.1033C23.2433 79.2642 47.1557 87.6028 68.1781 79.6065C70.4558 78.7391 72.7129 77.634 74.5596 76.4932C80.6459 72.735 85.3804 68.0504 88.4089 62.0975C91.1901 56.6321 91.3942 53.8474 92.0929 47.5226C92.6147 27.7481 73.9175 11.7082 51.5 11.7062C29.1868 11.7042 10.2559 27.8622 10.9093 47.5306C11.5717 53.8395 11.8598 56.699 14.5866 62.1033Z" fill="#F7F7F7"/>
<g filter="url(#filter0_d_4621_3186)">
<path fill-rule="evenodd" clip-rule="evenodd" d="M49.2859 97.7172C42.6754 97.3671 37.2559 96.4822 31.5642 94.6689C27.9821 93.5283 20.0016 90.238 18.071 88.4287C17.3905 89.1072 14.1215 97.67 13.6724 98.8421C12.8352 101.021 6.45389 115.374 7.06413 116.606C7.63579 117.761 10.2696 117.14 11.3992 117.036C13.2459 116.862 14.6274 116.839 16.4558 116.619C18.2638 116.4 19.659 116.359 21.4352 116.133C25.7182 115.588 25.8521 116.963 31.3578 121.736C33.9121 123.951 35.3027 125.876 37.6551 125.876C39.8919 122.981 42.0061 115.519 43.6668 111.883L47.9407 101.186C48.2923 100.37 49.1543 98.6848 49.2859 97.7172Z" fill="#493169"/>
</g>
<g filter="url(#filter1_d_4621_3186)">
<path fill-rule="evenodd" clip-rule="evenodd" d="M53.7139 97.7172L64.3305 124.354C64.7933 125.511 64.7162 125.064 65.3446 125.876C67.6903 125.876 68.9221 124.094 71.5058 121.856C73.4183 120.198 75.1468 118.721 77.0343 117.047C78.1822 116.031 78.6858 115.827 81.0836 116.068C82.6738 116.228 84.2572 116.404 86.0856 116.534C99.7626 117.517 97.6938 120.684 89.3978 99.021L84.9288 88.4287C83.0367 90.242 74.861 93.5813 71.2473 94.7397C65.8346 96.4782 59.9614 97.3868 53.7139 97.7172Z" fill="#493169"/>
</g>
<path fill-rule="evenodd" clip-rule="evenodd" d="M0 46.5668C0 59.3735 4.1151 67.5567 12.0209 76.3279C13.4886 77.9563 18.0847 81.6634 19.9358 82.9595C21.2288 83.4078 25.4982 86.8081 33.5152 89.3805C48.7936 94.2853 66.2749 92.718 79.7567 84.8474C80.6618 84.3184 82.2271 83.2545 83.0642 82.9654C83.5316 82.633 83.6904 82.4619 84.1372 82.1532L87.1815 79.7558C90.4642 77.4981 95.3732 71.4408 97.188 68.2687C100.895 61.7866 103 56.0853 103 46.374C102.39 47.6189 102.428 49.6721 102.111 51.1805C95.194 84.0293 48.7664 100.799 16.0226 75.496C14.1624 74.0585 11.8621 71.6808 10.2288 69.7142C-0.0907417 57.2889 1.16829 48.9346 0 46.5668Z" fill="#CCCCCC"/>
<path d="M31.6417 94.4272C29.8617 93.8604 26.98 92.7563 24.302 91.5678C22.9634 90.9737 21.6793 90.3601 20.6114 89.7836C19.5967 89.2358 18.7954 88.7309 18.3248 88.3159C18.3359 87.5759 18.7068 86.7489 19.1421 85.8445C19.1717 85.7831 19.2016 85.7213 19.2315 85.6592C19.5966 84.9038 19.9836 84.103 20.1377 83.3231C20.4277 83.4658 20.824 83.6976 21.3445 84.0082C21.4196 84.0529 21.497 84.0992 21.5768 84.1469C22.2466 84.5473 23.0795 85.045 24.0805 85.5959C26.3224 86.8295 29.4092 88.33 33.4368 89.6223C48.7796 94.5498 66.3368 92.9762 79.8855 85.0666C80.1381 84.919 80.4481 84.726 80.7766 84.5216C81.0353 84.3605 81.3055 84.1924 81.5682 84.0335C82.0443 83.7458 82.4994 83.4862 82.8612 83.3218C83.0148 84.0991 83.4015 84.8994 83.7664 85.6548C83.7973 85.7186 83.828 85.782 83.8583 85.8452C84.2936 86.7498 84.6643 87.5779 84.6749 88.3175C84.2132 88.7322 83.408 89.2402 82.3798 89.7937C81.2987 90.3756 79.993 90.9962 78.6304 91.5978C75.9045 92.8013 72.9657 93.9223 71.1692 94.4981C65.8295 96.2132 60.0337 97.1184 53.8625 97.4551C53.5931 96.9406 53.1824 96.049 52.8156 95.1497C52.6145 94.6568 52.4283 94.1655 52.2868 93.7364C52.1433 93.3015 52.0518 92.9488 52.0304 92.7253L52.0083 92.4956H51.7766H51.223H50.9913L50.9693 92.7253C50.9478 92.9488 50.8564 93.3015 50.7129 93.7364C50.5713 94.1655 50.3851 94.6568 50.1841 95.1497C49.8173 96.049 49.4067 96.9406 49.1372 97.4551C42.6176 97.1001 37.2623 96.2178 31.6417 94.4272Z" fill="#351B5C" stroke="#FFBA57" stroke-width="0.5"/>
<path fill-rule="evenodd" clip-rule="evenodd" d="M92.0928 47.5225C91.757 47.8607 91.943 47.6109 91.698 48.1222L90.9608 51.1096C88.5312 59.9949 82.1679 67.8693 73.441 72.6443C61.842 78.9946 48.3443 79.9445 35.5226 75.3956C32.7119 74.3986 28.9008 72.4555 26.6345 70.8566C23.4518 68.6088 24.1029 68.8329 21.7277 66.9548C19.9809 65.5762 17.1 61.7668 15.8273 59.8297C14.7248 58.1501 13.738 56.0655 13.0144 54.1028C12.327 52.2385 11.474 48.1006 10.9092 47.5303C11.5715 53.8393 11.8596 56.6988 14.5864 62.1031C23.2431 79.2641 47.1556 87.6026 68.178 79.6062C70.4556 78.7389 72.7128 77.6337 74.5593 76.4931C80.6458 72.7348 85.3802 68.0503 88.4087 62.0972C91.1899 56.6319 91.3941 53.8471 92.0928 47.5225Z" fill="#CCCCCC"/>
<path d="M61.8945 44.7162C63.9203 42.9579 66.3612 42.0946 69.2467 42.0946C72.1346 42.0946 74.5733 42.9579 76.6013 44.7162C78.6294 46.4743 79.6253 48.5589 79.6253 51.0015C79.6253 53.4441 78.6294 55.5307 76.6013 57.2869C74.5733 59.0156 72.1346 59.9084 69.2467 59.9084C66.3612 59.9084 63.9203 59.0156 61.8945 57.2869L54.7804 50.8816L61.8945 44.7162ZM44.4382 40.6058C42.4125 38.8477 41.4143 36.763 41.4143 34.3205C41.4143 31.8779 42.4125 29.7913 44.4382 28.0351C46.4663 26.3064 48.8709 25.4136 51.6884 25.4136C54.5059 25.4136 56.9128 26.3064 58.9409 28.0351C60.9327 29.7913 61.9648 31.8779 61.9648 34.3205C61.9648 36.763 60.9327 38.8477 58.9409 40.6058L51.7927 46.9797L44.4382 40.6058ZM40.8993 57.2889C38.8712 59.0175 36.4666 59.9104 33.6469 59.9104C30.8657 59.9104 28.4247 59.0175 26.3967 57.2889C24.4049 55.5327 23.3727 53.4461 23.3727 51.0035C23.3727 48.561 24.4049 46.4762 26.3967 44.7181C28.4247 42.96 30.8657 42.0966 33.6469 42.0966C36.4666 42.0966 38.8712 42.96 40.8993 44.7181L48.2516 51.092L40.8993 57.2889Z" fill="white"/>
<path d="M61.0913 63.8022L61.7923 65.6823L64.0722 65.6785L62.2256 66.8368L62.9334 68.7149L61.0913 67.5507L59.2493 68.7149L59.9593 66.8368L58.1128 65.6785L60.3927 65.6823L61.0913 63.8022Z" fill="#F7F7F7"/>
<path d="M53.3176 63.8022L54.0163 65.6823L56.2962 65.6785L54.4495 66.8368L55.1596 68.7149L53.3176 67.5507L51.4756 68.7149L52.1833 66.8368L50.3368 65.6785L52.6167 65.6823L53.3176 63.8022Z" fill="#F7F7F7"/>
<path d="M45.5404 63.8022L46.2413 65.6823L48.5212 65.6785L46.6746 66.8368L47.3825 68.7149L45.5404 67.5507L43.7006 68.7149L44.4084 66.8368L42.5619 65.6785L44.8417 65.6823L45.5404 63.8022Z" fill="#F7F7F7"/>
</g>
<path fill-rule="evenodd" clip-rule="evenodd" d="M76.7693 56.4279C77.4822 57.1507 78.5588 62.394 79.4264 64.7565C80.3398 67.2436 81.5852 69.8852 82.9767 72.0134C84.5829 74.4681 88.2192 79.2952 90.4239 81.0422C93.4216 83.4222 92.5999 83.1381 96.6169 85.9865C99.4743 88.0126 104.287 90.4748 107.835 91.7382C124.018 97.5023 141.053 96.2988 155.693 88.2518C166.708 82.201 174.739 72.2227 177.805 60.9636L178.736 57.1781C179.045 56.5301 178.81 56.8466 179.234 56.418C179.893 31.3601 156.294 11.0347 128 11.0322C99.838 11.0297 75.9447 31.5046 76.7693 56.4279Z" fill="#FFBA57"/>
<path fill-rule="evenodd" clip-rule="evenodd" d="M69.0556 32.6162C71.5037 28.3896 71.8558 27.7193 74.9481 23.7519C76.9952 21.1227 79.7553 18.4063 82.3064 16.166L91.1651 9.88344C96.2272 6.96522 96.0325 7.15212 101.435 4.83199C116.885 -1.80192 139.765 -1.41814 154.559 4.83698C161.711 7.85987 167.936 11.112 173.694 16.166C185.092 26.1716 193 40.389 193 54.9626C192.23 56.5401 192.278 59.1418 191.878 61.0533C183.148 102.678 124.55 123.928 83.2227 91.8654C80.8749 90.0437 77.9716 87.0307 75.9102 84.5387C62.8855 68.7937 64.4745 58.2073 63 55.2068C63 47.0951 65.8861 38.0913 69.0556 32.6162ZM81.4103 74.8943C92.3362 96.6402 122.517 107.207 149.05 97.0738C151.925 95.9748 154.774 94.5743 157.104 93.1288C164.786 88.3664 170.762 82.4303 174.584 74.8868C178.094 67.9613 178.352 64.4326 179.234 56.418C179.892 31.3602 156.294 11.0348 128 11.0323C99.8378 11.0298 75.9444 31.5047 76.7691 56.428C77.605 64.4225 77.9687 68.0461 81.4103 74.8943Z" fill="#FFE179"/>
<g filter="url(#filter2_d_4621_3186)">
<path fill-rule="evenodd" clip-rule="evenodd" d="M125.206 120.023C116.862 119.58 110.022 118.458 102.838 116.161C98.3173 114.715 88.2448 110.546 85.8081 108.253C84.9492 109.113 80.8233 119.964 80.2564 121.449C79.1998 124.21 71.1457 142.397 71.916 143.959C72.6375 145.422 75.9617 144.635 77.3874 144.504C79.7182 144.284 81.4618 144.254 83.7695 143.975C86.0515 143.698 87.8124 143.645 90.0542 143.36C95.4599 142.669 95.6289 144.411 102.578 150.459C105.802 153.266 107.557 155.705 110.526 155.705C113.349 152.037 116.018 142.581 118.113 137.974L123.508 124.419C123.952 123.385 125.04 121.249 125.206 120.023Z" fill="#493169"/>
</g>
<g filter="url(#filter3_d_4621_3186)">
<path fill-rule="evenodd" clip-rule="evenodd" d="M130.794 120.023L144.194 153.776C144.778 155.243 144.681 154.676 145.474 155.705C148.434 155.705 149.989 153.447 153.25 150.611C155.664 148.511 157.846 146.638 160.228 144.518C161.677 143.23 162.312 142.971 165.339 143.277C167.346 143.479 169.344 143.703 171.652 143.868C188.914 145.114 186.303 149.126 175.832 121.676L170.192 108.253C167.804 110.551 157.485 114.782 152.924 116.25C146.092 118.453 138.679 119.605 130.794 120.023Z" fill="#493169"/>
</g>
<path fill-rule="evenodd" clip-rule="evenodd" d="M63 55.2069C63 71.4353 68.1938 81.8049 78.172 92.9195C80.0245 94.9829 85.8253 99.6805 88.1617 101.323C89.7936 101.891 95.1822 106.2 105.301 109.459C124.584 115.675 146.648 113.689 163.664 103.715C164.806 103.045 166.782 101.697 167.838 101.33C168.428 100.909 168.629 100.692 169.193 100.301L173.035 97.2632C177.178 94.4023 183.374 86.7267 185.665 82.707C190.343 74.4931 193 67.2685 193 54.9626C192.23 56.5402 192.278 59.1419 191.878 61.0533C183.148 102.679 124.55 123.928 83.2227 91.8653C80.8749 90.0437 77.9716 87.0308 75.9102 84.5387C62.8855 68.7937 64.4745 58.2074 63 55.2069Z" fill="#F9CE58"/>
<path d="M102.936 115.854C100.69 115.136 97.0524 113.737 93.6724 112.231C91.9829 111.478 90.3622 110.701 89.0144 109.97C87.7337 109.276 86.7223 108.636 86.1284 108.11C86.1424 107.172 86.6106 106.125 87.1599 104.978C87.1972 104.901 87.235 104.822 87.2728 104.744C87.7336 103.786 88.2221 102.772 88.4165 101.783C88.7825 101.964 89.2827 102.258 89.9396 102.652C90.0345 102.708 90.1322 102.767 90.2328 102.827C91.0782 103.335 92.1294 103.965 93.3928 104.663C96.2225 106.227 100.118 108.128 105.202 109.766C124.566 116.01 146.726 114.016 163.826 103.993C164.145 103.806 164.536 103.561 164.951 103.302C165.278 103.098 165.619 102.885 165.95 102.684C166.551 102.319 167.125 101.99 167.582 101.782C167.776 102.767 168.264 103.781 168.725 104.738C168.764 104.819 168.802 104.899 168.841 104.979C169.39 106.126 169.858 107.175 169.871 108.112C169.289 108.638 168.272 109.281 166.975 109.983C165.61 110.72 163.962 111.507 162.242 112.269C158.802 113.794 155.093 115.214 152.825 115.944C146.086 118.117 138.771 119.265 130.982 119.691C130.642 119.039 130.123 117.909 129.66 116.77C129.407 116.145 129.172 115.523 128.993 114.979C128.812 114.428 128.696 113.981 128.669 113.698L128.642 113.407H128.349H127.65H127.358L127.33 113.698C127.303 113.981 127.188 114.428 127.007 114.979C126.828 115.523 126.593 116.145 126.339 116.77C125.876 117.909 125.358 119.039 125.018 119.691C116.789 119.241 110.03 118.123 102.936 115.854Z" fill="#351B5C" stroke="#FFBA57" stroke-width="0.5"/>
<path fill-rule="evenodd" clip-rule="evenodd" d="M179.234 56.418C178.81 56.8466 179.045 56.53 178.735 57.178L177.805 60.9635C174.738 72.2227 166.707 82.201 155.692 88.2517C141.053 96.2986 124.017 97.5023 107.834 91.7381C104.287 90.4747 99.4767 88.0125 96.6163 85.9864C92.5993 83.138 93.421 83.422 90.4233 81.0422C88.2186 79.2952 84.5824 74.4681 82.9761 72.0133C81.5846 69.8851 80.3392 67.2435 79.4258 64.7564C78.5583 62.394 77.4817 57.1506 76.7688 56.4279C77.6048 64.4225 77.9684 68.0459 81.4099 74.8942C92.3358 96.6402 122.517 107.206 149.05 97.0737C151.925 95.9747 154.773 94.5742 157.104 93.1288C164.786 88.3664 170.761 82.4303 174.584 74.8867C178.094 67.9613 178.352 64.4324 179.234 56.418Z" fill="#FFAC3E"/>
<path d="M141.119 52.8616C143.676 50.6336 146.757 49.5397 150.399 49.5397C154.044 49.5397 157.122 50.6336 159.681 52.8616C162.241 55.0895 163.498 57.7311 163.498 60.8263C163.498 63.9215 162.241 66.5655 159.681 68.7909C157.122 70.9815 154.044 72.1129 150.399 72.1129C146.757 72.1129 143.676 70.9815 141.119 68.7909L132.14 60.6743L141.119 52.8616ZM119.087 47.6531C116.53 45.4252 115.27 42.7836 115.27 39.6884C115.27 36.5932 116.53 33.9492 119.087 31.7238C121.647 29.5332 124.682 28.4019 128.238 28.4019C131.794 28.4019 134.832 29.5332 137.391 31.7238C139.905 33.9492 141.208 36.5932 141.208 39.6884C141.208 42.7836 139.905 45.4252 137.391 47.6531L128.369 55.73L119.087 47.6531ZM114.62 68.7935C112.061 70.9839 109.026 72.1154 105.467 72.1154C101.957 72.1154 98.8758 70.9839 96.3162 68.7935C93.8023 66.5681 92.4995 63.9239 92.4995 60.8287C92.4995 57.7337 93.8023 55.092 96.3162 52.8641C98.8758 50.6362 101.957 49.5421 105.467 49.5421C109.026 49.5421 112.061 50.6362 114.62 52.8641L123.9 60.9409L114.62 68.7935Z" fill="#FFF0B5"/>
<path d="M132.346 75.7339L133.231 78.1163L136.109 78.1113L133.778 79.5792L134.671 81.9591L132.346 80.4838L130.021 81.9591L130.918 79.5792L128.587 78.1113L131.465 78.1163L132.346 75.7339Z" fill="#FFF0B5"/>
<path d="M122.534 75.7339L123.418 78.1163L126.293 78.1113L123.962 79.5792L124.858 81.9591L122.534 80.4838L120.209 81.9591L121.102 79.5792L118.771 78.1113L121.649 78.1163L122.534 75.7339Z" fill="#FFF0B5"/>
<path fill-rule="evenodd" clip-rule="evenodd" d="M151.922 70.0287C152.591 70.7079 153.601 75.6354 154.416 77.8555C155.273 80.1929 156.441 82.6753 157.747 84.6753C159.255 86.9821 162.667 91.5185 164.736 93.1602C167.55 95.3968 166.778 95.1298 170.548 97.8066C173.23 99.7106 177.747 102.025 181.076 103.212C196.263 108.629 212.25 107.498 225.989 99.9354C236.326 94.2492 243.863 84.872 246.74 74.2911L247.614 70.7337C247.904 70.1247 247.684 70.4222 248.081 70.0194C248.699 46.471 226.553 27.37 200 27.3677C173.571 27.3653 151.148 46.6068 151.922 70.0287Z" fill="#CFCFCF"/>
<path fill-rule="evenodd" clip-rule="evenodd" d="M144.683 47.6513C146.98 43.6794 147.311 43.0495 150.213 39.3211C152.134 36.8502 154.724 34.2975 157.118 32.1921L165.432 26.288C170.182 23.5456 170 23.7213 175.07 21.5409C189.569 15.3066 211.041 15.6673 224.924 21.5456C231.637 24.3864 237.478 27.4426 242.882 32.1921C253.579 41.595 261 54.9559 261 68.6516C260.278 70.1341 260.322 72.5791 259.947 74.3754C251.754 113.493 196.762 133.463 157.978 103.331C155.775 101.619 153.05 98.7879 151.116 96.446C138.893 81.6496 140.384 71.7009 139 68.8811C139 61.258 141.708 52.7967 144.683 47.6513ZM156.277 87.3826C166.531 107.818 194.854 117.748 219.755 108.226C222.452 107.193 225.126 105.877 227.313 104.519C234.522 100.043 240.13 94.4647 243.717 87.3756C247.012 80.8673 247.253 77.5511 248.081 70.0193C248.699 46.4711 226.553 27.37 200 27.3677C173.571 27.3654 151.148 46.6069 151.922 70.0288C152.706 77.5417 153.048 80.9469 156.277 87.3826Z" fill="#E6E6E6"/>
<g filter="url(#filter4_d_4621_3186)">
<path fill-rule="evenodd" clip-rule="evenodd" d="M197.377 129.793C189.548 129.376 183.128 128.322 176.387 126.163C172.144 124.805 162.691 120.887 160.404 118.732C159.598 119.54 155.726 129.737 155.194 131.133C154.203 133.728 146.644 150.819 147.367 152.287C148.044 153.662 151.164 152.922 152.502 152.799C154.689 152.592 156.326 152.564 158.491 152.302C160.633 152.042 162.285 151.992 164.389 151.724C169.462 151.074 169.621 152.712 176.142 158.395C179.168 161.033 180.815 163.326 183.601 163.326C186.251 159.878 188.755 150.992 190.722 146.663L195.784 133.924C196.201 132.952 197.222 130.945 197.377 129.793Z" fill="#493169"/>
</g>
<g filter="url(#filter5_d_4621_3186)">
<path fill-rule="evenodd" clip-rule="evenodd" d="M202.622 129.793L215.197 161.513C215.746 162.891 215.654 162.358 216.399 163.326C219.177 163.326 220.636 161.203 223.696 158.538C225.962 156.564 228.009 154.805 230.245 152.812C231.604 151.601 232.201 151.358 235.041 151.646C236.924 151.836 238.8 152.046 240.966 152.201C257.165 153.372 254.715 157.142 244.889 131.346L239.595 118.732C237.354 120.891 227.67 124.868 223.39 126.247C216.979 128.318 210.022 129.4 202.622 129.793Z" fill="#493169"/>
</g>
<path fill-rule="evenodd" clip-rule="evenodd" d="M139 68.8811C139 84.1319 143.874 93.8768 153.238 104.322C154.977 106.261 160.421 110.676 162.613 112.219C164.145 112.753 169.202 116.802 178.698 119.865C196.794 125.706 217.5 123.84 233.469 114.467C234.541 113.837 236.395 112.57 237.387 112.226C237.94 111.83 238.128 111.626 238.658 111.259L242.264 108.404C246.152 105.715 251.966 98.5022 254.116 94.7247C258.506 87.0056 261 80.2162 261 68.6516C260.278 70.1341 260.322 72.5791 259.947 74.3754C251.754 113.493 196.762 133.463 157.978 103.331C155.775 101.619 153.05 98.7879 151.116 96.446C138.893 81.6494 140.384 71.7009 139 68.8811Z" fill="#CCCCCC"/>
<path fill-rule="evenodd" clip-rule="evenodd" d="M144.683 47.6513C146.98 43.6794 147.311 43.0495 150.213 39.3211C152.134 36.8502 154.724 34.2975 157.118 32.1921L165.432 26.288C170.182 23.5456 170 23.7213 175.07 21.5409C189.569 15.3066 211.041 15.6673 224.924 21.5456C231.637 24.3864 237.478 27.4426 242.882 32.1921C253.579 41.595 261 54.9559 261 68.6516C260.278 70.1341 260.322 72.5791 259.947 74.3754C251.754 113.493 196.762 133.463 157.978 103.331C155.775 101.619 153.05 98.7879 151.116 96.446C138.893 81.6496 140.384 71.7009 139 68.8811C139 61.258 141.708 52.7967 144.683 47.6513ZM156.277 87.3826C166.531 107.818 194.854 117.748 219.755 108.226C222.452 107.193 225.126 105.877 227.313 104.519C234.522 100.043 240.13 94.4647 243.717 87.3756C247.012 80.8673 247.253 77.5511 248.081 70.0193C248.699 46.4711 226.553 27.37 200 27.3677C173.571 27.3654 151.148 46.6069 151.922 70.0288C152.706 77.5417 153.048 80.9469 156.277 87.3826Z" fill="#E6E6E6"/>
<path fill-rule="evenodd" clip-rule="evenodd" d="M139 68.8811C139 84.1319 143.874 93.8768 153.238 104.322C154.977 106.261 160.421 110.676 162.613 112.219C164.145 112.753 169.202 116.802 178.698 119.865C196.794 125.706 217.5 123.84 233.469 114.467C234.541 113.837 236.395 112.57 237.387 112.226C237.94 111.83 238.128 111.626 238.658 111.259L242.264 108.404C246.152 105.715 251.966 98.5022 254.116 94.7247C258.506 87.0056 261 80.2162 261 68.6516C260.278 70.1341 260.322 72.5791 259.947 74.3754C251.754 113.493 196.762 133.463 157.978 103.331C155.775 101.619 153.05 98.7879 151.116 96.446C138.893 81.6494 140.384 71.7009 139 68.8811Z" fill="#CCCCCC"/>
<path d="M176.478 125.875C174.37 125.2 170.957 123.885 167.785 122.47C166.199 121.762 164.678 121.032 163.413 120.345C162.212 119.693 161.262 119.091 160.705 118.597C160.718 117.716 161.158 116.731 161.673 115.654C161.708 115.581 161.744 115.508 161.779 115.434C162.211 114.534 162.67 113.58 162.852 112.652C163.196 112.822 163.665 113.098 164.282 113.468C164.371 113.521 164.462 113.576 164.557 113.633C165.35 114.11 166.337 114.702 167.522 115.358C170.178 116.827 173.834 118.614 178.605 120.153C196.778 126.021 217.574 124.147 233.622 114.728C233.921 114.552 234.288 114.322 234.677 114.079C234.984 113.887 235.303 113.687 235.615 113.498C236.179 113.155 236.718 112.846 237.146 112.65C237.328 113.576 237.786 114.529 238.218 115.428C238.255 115.504 238.291 115.58 238.327 115.655C238.843 116.732 239.282 117.718 239.294 118.599C238.748 119.093 237.794 119.698 236.576 120.357C235.296 121.05 233.749 121.789 232.135 122.506C228.906 123.939 225.425 125.274 223.297 125.959C216.973 128.002 210.108 129.08 202.798 129.481C202.479 128.868 201.993 127.806 201.558 126.735C201.32 126.148 201.1 125.563 200.932 125.052C200.762 124.534 200.654 124.114 200.628 123.848L200.602 123.575H200.328H199.672H199.397L199.371 123.848C199.346 124.114 199.238 124.534 199.068 125.052C198.9 125.563 198.679 126.148 198.441 126.735C198.007 127.806 197.52 128.868 197.201 129.481C189.479 129.058 183.136 128.007 176.478 125.875Z" fill="#351B5C" stroke="#FFBA57" stroke-width="0.5"/>
<path fill-rule="evenodd" clip-rule="evenodd" d="M248.081 70.0193C247.683 70.4221 247.903 70.1246 247.613 70.7335L246.74 74.291C243.862 84.8719 236.325 94.2491 225.988 99.9354C212.25 107.498 196.262 108.629 181.075 103.212C177.746 102.024 173.232 99.7106 170.548 97.8065C166.778 95.1297 167.549 95.3966 164.736 93.1601C162.667 91.5184 159.254 86.9821 157.747 84.6752C156.441 82.6751 155.272 80.1927 154.415 77.8554C153.601 75.6353 152.591 70.7077 151.922 70.0286C152.706 77.5416 153.047 80.9468 156.277 87.3825C166.531 107.818 194.854 117.748 219.754 108.226C222.452 107.193 225.126 105.877 227.313 104.519C234.522 100.043 240.13 94.4646 243.717 87.3754C247.011 80.8672 247.253 77.5509 248.081 70.0193Z" fill="#B5B5B5"/>
<path d="M212.312 66.6772C214.712 64.5834 217.603 63.5554 221.02 63.5554C224.441 63.5554 227.33 64.5834 229.732 66.6772C232.134 68.7709 233.313 71.2533 233.313 74.1621C233.313 77.0708 232.134 79.5556 229.732 81.6469C227.33 83.7055 224.441 84.7687 221.02 84.7687C217.603 84.7687 214.712 83.7055 212.312 81.6469L203.886 74.0193L212.312 66.6772ZM191.636 61.7824C189.236 59.6888 188.054 57.2063 188.054 54.2976C188.054 51.3889 189.236 48.9041 191.636 46.8127C194.038 44.7541 196.886 43.6909 200.223 43.6909C203.56 43.6909 206.411 44.7541 208.814 46.8127C211.173 48.9041 212.395 51.3889 212.395 54.2976C212.395 57.2063 211.173 59.6888 208.814 61.7824L200.347 69.3728L191.636 61.7824ZM187.444 81.6493C185.042 83.7078 182.194 84.7712 178.854 84.7712C175.559 84.7712 172.668 83.7078 170.266 81.6493C167.907 79.558 166.684 77.0731 166.684 74.1644C166.684 71.2558 167.907 68.7732 170.266 66.6795C172.668 64.5858 175.559 63.5577 178.854 63.5577C182.194 63.5577 185.042 64.5858 187.444 66.6795L196.152 74.2698L187.444 81.6493Z" fill="white"/>
<path d="M199.882 87.104L200.712 89.3429L203.41 89.3382L201.223 90.7176L202.064 92.9542L199.882 91.5678L197.7 92.9542L198.541 90.7176L196.354 89.3382L199.052 89.3429L199.882 87.104Z" fill="#F7F7F7"/>
<defs>
<filter id="filter0_d_4621_3186" x="3.02307" y="88.4287" width="50.2628" height="45.4473" filterUnits="userSpaceOnUse" color-interpolation-filters="sRGB">
<feFlood flood-opacity="0" result="BackgroundImageFix"/>
<feColorMatrix in="SourceAlpha" type="matrix" values="0 0 0 0 0 0 0 0 0 0 0 0 0 0 0 0 0 0 127 0" result="hardAlpha"/>
<feOffset dy="4"/>
<feGaussianBlur stdDeviation="2"/>
<feComposite in2="hardAlpha" operator="out"/>
<feColorMatrix type="matrix" values="0 0 0 0 0 0 0 0 0 0 0 0 0 0 0 0 0 0 0.25 0"/>
<feBlend mode="normal" in2="BackgroundImageFix" result="effect1_dropShadow_4621_3186"/>
<feBlend mode="normal" in="SourceGraphic" in2="effect1_dropShadow_4621_3186" result="shape"/>
</filter>
<filter id="filter1_d_4621_3186" x="49.7139" y="88.4287" width="50.2743" height="45.4473" filterUnits="userSpaceOnUse" color-interpolation-filters="sRGB">
<feFlood flood-opacity="0" result="BackgroundImageFix"/>
<feColorMatrix in="SourceAlpha" type="matrix" values="0 0 0 0 0 0 0 0 0 0 0 0 0 0 0 0 0 0 127 0" result="hardAlpha"/>
<feOffset dy="4"/>
<feGaussianBlur stdDeviation="2"/>
<feComposite in2="hardAlpha" operator="out"/>
<feColorMatrix type="matrix" values="0 0 0 0 0 0 0 0 0 0 0 0 0 0 0 0 0 0 0.25 0"/>
<feBlend mode="normal" in2="BackgroundImageFix" result="effect1_dropShadow_4621_3186"/>
<feBlend mode="normal" in="SourceGraphic" in2="effect1_dropShadow_4621_3186" result="shape"/>
</filter>
<filter id="filter2_d_4621_3186" x="67.8641" y="108.253" width="61.3414" height="55.4521" filterUnits="userSpaceOnUse" color-interpolation-filters="sRGB">
<feFlood flood-opacity="0" result="BackgroundImageFix"/>
<feColorMatrix in="SourceAlpha" type="matrix" values="0 0 0 0 0 0 0 0 0 0 0 0 0 0 0 0 0 0 127 0" result="hardAlpha"/>
<feOffset dy="4"/>
<feGaussianBlur stdDeviation="2"/>
<feComposite in2="hardAlpha" operator="out"/>
<feColorMatrix type="matrix" values="0 0 0 0 0 0 0 0 0 0 0 0 0 0 0 0 0 0 0.25 0"/>
<feBlend mode="normal" in2="BackgroundImageFix" result="effect1_dropShadow_4621_3186"/>
<feBlend mode="normal" in="SourceGraphic" in2="effect1_dropShadow_4621_3186" result="shape"/>
</filter>
<filter id="filter3_d_4621_3186" x="126.794" y="108.253" width="61.356" height="55.4521" filterUnits="userSpaceOnUse" color-interpolation-filters="sRGB">
<feFlood flood-opacity="0" result="BackgroundImageFix"/>
<feColorMatrix in="SourceAlpha" type="matrix" values="0 0 0 0 0 0 0 0 0 0 0 0 0 0 0 0 0 0 127 0" result="hardAlpha"/>
<feOffset dy="4"/>
<feGaussianBlur stdDeviation="2"/>
<feComposite in2="hardAlpha" operator="out"/>
<feColorMatrix type="matrix" values="0 0 0 0 0 0 0 0 0 0 0 0 0 0 0 0 0 0 0.25 0"/>
<feBlend mode="normal" in2="BackgroundImageFix" result="effect1_dropShadow_4621_3186"/>
<feBlend mode="normal" in="SourceGraphic" in2="effect1_dropShadow_4621_3186" result="shape"/>
</filter>
<filter id="filter4_d_4621_3186" x="143.319" y="118.732" width="58.0588" height="52.5938" filterUnits="userSpaceOnUse" color-interpolation-filters="sRGB">
<feFlood flood-opacity="0" result="BackgroundImageFix"/>
<feColorMatrix in="SourceAlpha" type="matrix" values="0 0 0 0 0 0 0 0 0 0 0 0 0 0 0 0 0 0 127 0" result="hardAlpha"/>
<feOffset dy="4"/>
<feGaussianBlur stdDeviation="2"/>
<feComposite in2="hardAlpha" operator="out"/>
<feColorMatrix type="matrix" values="0 0 0 0 0 0 0 0 0 0 0 0 0 0 0 0 0 0 0.25 0"/>
<feBlend mode="normal" in2="BackgroundImageFix" result="effect1_dropShadow_4621_3186"/>
<feBlend mode="normal" in="SourceGraphic" in2="effect1_dropShadow_4621_3186" result="shape"/>
</filter>
<filter id="filter5_d_4621_3186" x="198.622" y="118.732" width="58.0725" height="52.5938" filterUnits="userSpaceOnUse" color-interpolation-filters="sRGB">
<feFlood flood-opacity="0" result="BackgroundImageFix"/>
<feColorMatrix in="SourceAlpha" type="matrix" values="0 0 0 0 0 0 0 0 0 0 0 0 0 0 0 0 0 0 127 0" result="hardAlpha"/>
<feOffset dy="4"/>
<feGaussianBlur stdDeviation="2"/>
<feComposite in2="hardAlpha" operator="out"/>
<feColorMatrix type="matrix" values="0 0 0 0 0 0 0 0 0 0 0 0 0 0 0 0 0 0 0.25 0"/>
<feBlend mode="normal" in2="BackgroundImageFix" result="effect1_dropShadow_4621_3186"/>
<feBlend mode="normal" in="SourceGraphic" in2="effect1_dropShadow_4621_3186" result="shape"/>
</filter>
<linearGradient id="paint0_linear_4621_3186" x1="13.3301" y1="18.7211" x2="60.254" y2="91.1212" gradientUnits="userSpaceOnUse">
<stop stop-color="#CFCFCF"/>
<stop offset="0.388" stop-color="#E9E9E9"/>
<stop offset="1" stop-color="#CFCFCF"/>
</linearGradient>
<clipPath id="clip0_4621_3186">
<rect width="103" height="131" fill="white" transform="translate(0 3)"/>
</clipPath>
</defs>
</svg>
