<svg width="400" height="363" viewBox="0 0 400 363" fill="none" xmlns="http://www.w3.org/2000/svg">
<path d="M400 105V196C398.594 197.219 397.296 198.558 396.12 200C390.71 207.74 386.39 216.5 379.93 223.22C350.17 254.14 314.1 268 271.17 259.85C247.28 255.34 225.78 244.85 209.1 227.11C199.68 217.11 193.1 204.46 185.18 193C185.12 189.18 185.02 185.36 185.01 181.54C184.923 160.773 184.843 140.003 184.77 119.23C184.67 112.23 185 105.23 189.42 99.3002C195.62 90.9335 201.83 82.5702 208.05 74.2102C219.55 63.7802 231.68 54.2902 246.05 48.0402L275.05 40.0402C277.5 39.7102 279.94 39.1702 282.4 39.0402C304.87 38.2902 326.4 41.4202 346.71 52.1402C368.9 63.8302 385.24 80.8302 397.27 102.46C397.85 103.5 399.08 104.17 400 105ZM384.1 159.09C384.504 158.401 384.794 157.652 384.96 156.87C385.47 145.87 383.34 135.36 379.96 125.01C378.96 122.01 378.39 118.8 376.79 116.19C372.79 109.63 368.3 103.37 364 96.9902C363.495 95.815 362.857 94.7011 362.1 93.6702C353.634 84.2302 343.411 76.53 332 71.0002L315 65.0002L290 62.0002C278.363 62.0465 266.858 64.4693 256.19 69.1202C230.72 80.5902 212.57 98.9302 204 126C202.667 132 201.333 138 200 144C199.96 148.667 199.923 153.333 199.89 158C200.98 166.35 201 175 203.39 183C208.78 201 218.88 216 233.45 228.37C253.27 245.24 276.32 250.68 301.15 248.71C325.98 246.74 346.84 235.71 363.06 216.53C376.12 201.05 383.72 183.44 384.06 162.99L384.1 159.09Z" fill="#F6F6F5"/>
<path d="M275.06 40L246.06 48C245.43 46.88 245.06 45.27 244.12 44.71C235.39 39.71 226.82 34.24 217.68 30.07C205.07 24.3 191.45 24.56 177.79 24.75C167.988 24.9888 158.325 27.1178 149.33 31.02C124.6 41.4 106.46 58.64 95.94 83.78C89.5128 98.9523 87.4352 115.614 89.94 131.9V133.07C90.01 135.72 89.66 138.47 90.21 141.07C95.74 166.67 109.27 187.07 130.52 202.32C148.9 215.49 169.77 219.25 191.88 217.99L201.23 231.91C191.35 232.91 181.53 234.32 171.62 231.54C166.62 230.15 161.2 230.35 156.23 228.91C148.23 226.59 140.02 224.25 132.59 220.55C124.745 216.471 117.305 211.656 110.37 206.17C103.48 200.88 96.47 195.31 91.09 188.6C84.29 180.12 79.09 170.37 73.2 161.16L72.89 126.95C72.89 116.657 72.89 106.37 72.89 96.09C72.89 90.45 72.8 84.81 73.08 79.18C73.25 75.77 73.25 71.98 74.71 69.05C82 54.39 90.94 41 104 30.66C107.1 28.22 110 25.59 113.07 23.04L136.17 9.32C143.78 7 151.37 4.64 159 2.51C163 1.42 167 0.82 171 0H198C198.55 0.31 199.08 0.83 199.65 0.89C214.724 2.35228 229.33 6.93252 242.54 14.34C254.72 21.2 266.42 28.67 275.06 40Z" fill="#FEE079"/>
<path d="M257 363C249.49 355.3 242.27 347.27 234.28 340.1C231.86 337.93 227.28 337.24 223.73 337.42C215.12 337.84 206.56 339.21 197.97 340.12C191.22 340.83 189.79 339.43 191.75 333.12C194.9 322.98 198.69 313.04 201.75 302.88C202.62 299.945 202.638 296.824 201.8 293.88C198.14 282.16 194 270.59 190.04 258.97L217.41 256.68C215.3 265.21 215.52 265.68 224.16 270.04C229.06 272.52 233.88 275.17 238.9 277.38C254.32 284.18 270.31 288.57 287.35 288.14C286.602 290.161 286.288 292.317 286.429 294.467C286.571 296.618 287.164 298.714 288.17 300.62C288.977 302.449 289.571 304.365 289.94 306.33C291.26 312.38 290.23 313.78 284.14 313.04C280.25 312.57 278.69 313.85 277.43 317.49C272.17 332.75 266.52 347.85 261 363H257Z" fill="#492480"/>
<path d="M136.17 9.32L113.05 23C105.21 22.32 97.39 21.53 89.54 21C79.47 20.28 69.99 23.4 61.26 27.58C36.09 39.58 19.78 59.27 14.37 86.92C13 94 14 101.62 13.87 109C14 123 18.24 135.77 25.77 147.44C38.16 166.65 55.47 178.75 78.07 182.98L86.07 194.98C82.07 194.84 77.93 195.36 74.07 194.46C42.69 187 18.33 169.93 2.93 141C2.3 139.81 1 139 0 138V58C0.92 57.16 2.16 56.5 2.7 55.46C8.83339 43.676 17.2701 33.2432 27.51 24.78C39.31 15 52.13 7.54 66.93 3.44C69.41 2.75 71.65 1.17 74 0H114C116 1 118 2.14 120 3C125.39 5.16 130.79 7.22 136.17 9.32Z" fill="#E5E5E5"/>
<path d="M327 363H324C323.259 361.904 322.62 360.742 322.09 359.53C313.897 335.763 305.733 311.983 297.6 288.19C310.265 288.466 322.853 286.163 334.6 281.42C346.35 276.85 357.42 270.53 368.78 264.97C370.93 270.53 373.2 276.04 375.19 281.64C381.27 298.7 387.38 315.75 393.19 332.9C395.29 339.09 393.95 340.59 387.62 340C378.68 339.18 369.75 338.19 360.84 337.13C356.46 336.61 352.94 337.35 349.63 340.8C342.36 348.44 334.59 355.63 327 363Z" fill="#492580"/>
<path d="M400 208C399.24 208.52 398.14 208.86 397.77 209.57C390.171 224.403 379.566 237.491 366.63 248C365.928 248.704 365.304 249.482 364.77 250.32C362.848 251.2 360.984 252.202 359.19 253.32C321.58 279.97 269.38 281.21 230.47 256.18C223.55 251.72 216.99 246.68 210.25 241.92L201.25 231.92L191.9 218L185.36 206.89L185.18 193C193.06 204.46 199.68 217.1 209.1 227.11C225.78 244.84 247.28 255.34 271.17 259.85C314.1 267.95 350.17 254.14 379.93 223.2C386.39 216.48 390.71 207.72 396.12 199.98C397.296 198.538 398.594 197.199 400 195.98V208Z" fill="#CBCACB"/>
<path d="M0 138C1 139 2.3 139.81 2.93 141C18.33 169.94 42.69 187 74.15 194.46C77.97 195.36 82.15 194.84 86.15 194.98L95.4 206.74C74.32 207.28 55.15 201.36 37.59 189.84C35.2071 188.482 32.7424 187.273 30.21 186.22C28.6 184.42 27.14 182.45 25.37 180.83C16.1581 172.457 8.4765 162.542 2.67 151.53C2.13 150.5 0.9 149.83 0 149V138Z" fill="#CBCACB"/>
<path d="M182.19 255.91C182.79 257.78 183.83 259.65 183.83 261.51C183.83 262.7 182.18 264.94 181.43 264.88C177.56 264.57 177.16 267.38 176.31 269.83C169.52 289.46 162.87 309.15 155.94 328.73C152.32 338.95 150.08 339.27 142.39 331.37C136.83 325.65 131.26 319.93 125.78 314.12C122.52 310.67 118.58 309.66 114 310.2C104.753 311.293 95.4967 312.33 86.23 313.31C79.67 313.99 78.03 312.36 80.12 306.12C87.12 285.12 94.21 264.22 101.79 243.47C103.87 237.75 104.3 232.75 101.73 227.3C100.813 224.988 100.055 222.615 99.46 220.2L108.86 219L110.08 219.73C109.35 221.58 108.64 223.44 107.87 225.28C104.59 233.14 104.96 234.43 112.04 239.02C113.84 240.19 115.71 241.27 117.61 242.29C134.72 251.48 152.61 257.91 172.25 259.29C176.52 259.57 180 260.34 182.19 255.91Z" fill="#492580"/>
<path d="M89.84 220C86.64 229.6 83.49 239.21 80.21 248.79C76.6 259.3 73 269.86 69.13 280.29C66.93 286.2 65.02 286.54 60.34 282.04C55.66 277.54 51.17 272.85 46.86 268.04C42.86 263.58 38.5 261.59 32.29 262.76C25.45 264.06 18.43 264.4 11.47 265.07C5.47001 265.65 4.09001 264.38 5.99001 258.9C12.99 238.82 20.18 218.84 27.32 198.83C29.47 200.04 31.66 201.19 33.77 202.48C51 213 69.8 218.45 89.84 220Z" fill="#492580"/>
<path d="M182.19 255.91C179.96 260.34 176.52 259.57 172.25 259.27C152.63 257.91 134.72 251.48 117.61 242.27C115.71 241.27 113.84 240.17 112.04 239C104.96 234.41 104.59 233.12 107.87 225.26C108.64 223.42 109.35 221.56 110.08 219.71C116.94 223.71 123.57 228.23 130.69 231.71C155.273 244.091 183.359 247.666 210.26 241.84C216.99 246.6 223.55 251.64 230.47 256.1C269.38 281.1 321.58 279.89 359.19 253.24C360.984 252.122 362.848 251.12 364.77 250.24L368.82 265C357.46 270.56 346.39 276.88 334.64 281.45C322.893 286.193 310.305 288.496 297.64 288.22C295.94 284.22 294.25 280.15 292.47 275.89L287.42 288.2C270.42 288.63 254.42 284.2 238.97 277.44C233.97 275.23 229.13 272.58 224.23 270.1C215.59 265.72 215.37 265.27 217.48 256.74L190.07 259L184.12 246.24C183.33 250.21 182.76 253.06 182.19 255.91Z" fill="#381E5D"/>
<path d="M89.84 220C69.84 218.47 51.01 213 33.77 202.47C31.66 201.18 29.47 200.03 27.32 198.82L30.17 186.23C32.7024 187.283 35.1672 188.492 37.55 189.85C55.11 201.37 74.28 207.29 95.35 206.75L108.86 219L99.46 220.2L94.6 208.69C93 212.62 91.4 216.3 89.84 220Z" fill="#381E5D"/>
<path d="M185.18 193L185.33 206.83C177.08 207.581 168.772 206.275 161.15 203.03C153.67 199.81 145.32 198.37 138.23 194.53C117.03 183.08 102.42 165.6 94.1 142.93C92.74 139.24 91.33 135.57 89.94 131.93C87.4352 115.644 89.5127 98.9824 95.94 83.8101C106.46 58.6701 124.6 41.4301 149.32 31.0901C158.315 27.1879 167.978 25.059 177.78 24.8201C191.44 24.6301 205.06 24.3701 217.67 30.1401C226.81 34.3101 235.38 39.7501 244.11 44.7801C245.11 45.3401 245.42 46.9501 246.05 48.0701C231.68 54.3201 219.55 63.8101 208.05 74.2401C206.05 72.3201 204.05 70.4301 202.05 68.4901C193.16 59.7501 179.81 59.2701 169.49 67.3401C160.6 74.2801 157.49 89.0101 164.49 98.3401C170.27 106.06 177.93 112.34 184.76 119.34C184.84 140.107 184.92 160.877 185 181.65C185 185.36 185.12 189.18 185.18 193ZM177.62 131.85C171.37 125.72 165.76 120.07 159.98 114.59C152.98 107.9 144.74 105.44 135.26 108.4C125.56 111.4 119.96 118.35 118.26 128C116.43 138.06 121.67 148.34 131.26 153.37C139.61 157.73 148.58 157.74 156.14 151.73C163.5 145.88 170 139 177.62 131.85ZM179.23 169.85L174.78 166L169.59 170.18L171.59 175.1L178.05 176.1C178.36 174.33 178.77 172.22 179.23 169.8V169.85Z" fill="#FEBA57"/>
<path d="M364 97C368.3 103.38 372.78 109.64 376.79 116.2C378.39 118.81 378.94 122.06 379.96 125.02C368.45 129.38 360.09 138.17 350.9 145.78C350.2 146.36 350.28 147.89 350 148.97C347.595 146.553 344.7 144.677 341.511 143.469C338.322 142.262 334.912 141.75 331.508 141.967C328.105 142.185 324.788 143.128 321.778 144.732C318.769 146.337 316.138 148.566 314.06 151.27C311.27 154.799 308.074 157.987 304.54 160.77C300.67 163.89 300.43 166.7 303.97 170.01C301.911 169.74 299.818 169.895 297.821 170.466C295.824 171.037 293.965 172.012 292.36 173.33C281.13 181.92 269.81 190.4 258.53 198.94C251.53 204.22 244.63 209.57 237.6 214.78C236.6 215.51 235.19 215.62 233.97 216.02L223.97 206.02C224.463 205.984 224.949 205.89 225.42 205.74C234.77 201.45 241.42 192.68 251.74 189.95C251.89 189.95 251.91 189.35 251.99 189.03C256.4 187.47 261.36 186.72 265.07 184.15C270.3 180.54 274.67 175.66 279.28 171.2C284.73 165.92 284.67 165.86 279.97 160.04L289.97 152.04C291.87 154.93 293.97 154.56 296.08 152.34C300.53 147.65 305.08 143.06 309.28 138.13C311.58 135.42 313.16 132.13 315.07 129.03C316.56 128.45 318.26 128.15 319.51 127.23C323.42 124.33 327.08 121.09 330.99 118.23C338.76 112.46 346.51 106.66 354.51 101.23C357.31 99.24 360.82 98.35 364 97Z" fill="#E1E1E1"/>
<path d="M224 206L234 216L250 226L263 231C266.6 235.66 272.12 234.93 277 236C278.516 236.477 280.072 236.812 281.65 237C288.43 237.1 295.22 237 302 237C308.77 235.62 315.71 234.81 322.26 232.74C333.526 229.209 343.913 223.322 352.73 215.47C363.44 205.92 372.9 195.3 377 181C378.461 178.637 379.761 176.178 380.89 173.64C382.2 170.17 383.02 166.52 384.05 162.94C383.71 183.4 376.11 201.01 363.05 216.49C346.83 235.71 325.92 246.71 301.14 248.67C276.36 250.63 253.26 245.2 233.44 228.33C218.87 215.92 208.77 201 203.38 183C200.99 175 200.97 166.36 199.88 158L204 169C205.43 178.32 209.42 186.51 215 194L224 206Z" fill="#CDCCCC"/>
<path d="M290 62L315 65C313.78 66.7 312.88 68.83 311.28 70C295.28 82 279.22 93.94 263.16 105.86C254.81 112.06 246.38 118.16 238.07 124.42C226.85 132.86 215.72 141.42 204.52 149.89C203.073 150.772 201.562 151.544 200 152.2V144C201.333 138 202.667 132 204 126C208.46 127.94 211.1 124.59 214 122.41C228.43 111.62 242.76 100.71 257.17 89.91C267.49 82.17 277.93 74.6 288.17 66.74C289.33 65.87 289.42 63.63 290 62Z" fill="#DDDDDC"/>
<path d="M200 144V152.27C201.562 151.614 203.073 150.842 204.52 149.96C215.72 141.5 226.85 132.96 238.07 124.49C246.38 118.23 254.81 112.13 263.16 105.93C279.21 94.0001 295.3 82.1001 311.27 70.0601C312.87 68.8501 313.77 66.7201 314.99 65.0601L331.99 71.0601C330.68 73.0601 329.78 75.5701 327.99 76.9201C318.44 84.1501 308.68 91.0801 298.99 98.1201C296.99 98.1201 294.99 98.1901 292.99 98.0201C281.75 97.0201 267.71 110.1 268.99 122.02C262.09 126.49 254.99 130.63 248.33 135.49C233.39 146.49 218.72 157.83 203.95 169.03L199.86 158.03C199.907 153.343 199.953 148.667 200 144Z" fill="#E2E2E1"/>
<path d="M299 98.08C308.69 91.08 318.45 84.08 328 76.88C329.79 75.53 330.69 73 332 71.02C343.42 76.5407 353.654 84.2341 362.13 93.67C362.878 94.7056 363.505 95.8227 364 97C360.8 98.36 357.29 99.25 354.47 101.17C346.47 106.61 338.72 112.41 330.95 118.17C327.04 121.07 323.38 124.31 319.47 127.17C318.22 128.09 316.52 128.39 315.03 128.97C316.48 122.58 316.65 116.56 313.39 110.31C310.13 104.06 304.39 101.45 299 98.08Z" fill="#E6E6E6"/>
<path d="M302 237C295.22 237 288.43 237.06 281.65 237C280.072 236.812 278.516 236.477 277 236C282.06 232.1 287 228.1 292.19 224.34C298.38 219.81 304.72 215.48 310.99 211.07L316.69 210.18L320 204C322.72 202 325.5 200 328.14 197.91C332.14 194.69 336.14 191.34 340.05 188.04L353 179C354.292 178.353 355.539 177.618 356.73 176.8C363.17 171.73 369.4 166.39 376.04 161.61C378.22 160.04 381.42 159.9 384.15 159.11C384.15 160.4 384.15 161.68 384.1 162.96C383.1 166.54 382.25 170.19 380.94 173.66C379.794 176.193 378.477 178.645 377 181C371.28 184.55 365.41 187.88 359.88 191.72C352.98 196.49 346.4 201.72 339.62 206.72C334.11 210.72 328.49 214.62 322.97 218.62C322.04 219.3 321.4 220.35 320.53 221.11C319.23 222.26 317.8 223.26 316.53 224.4C311.64 228.56 306.83 232.78 302 237Z" fill="#D6D6D6"/>
<path d="M290 62C289.42 63.61 289.33 65.85 288.19 66.72C277.97 74.58 267.53 82.15 257.19 89.89C242.78 100.69 228.45 111.6 214.02 122.39C211.1 124.57 208.46 127.92 204.02 125.98C212.57 98.91 230.72 80.57 256.19 69.12C266.858 64.4692 278.363 62.0463 290 62Z" fill="#D8D8D7"/>
<path d="M184.77 119.23C177.94 112.3 170.28 105.99 164.5 98.2299C157.55 88.9399 160.62 74.2299 169.5 67.2299C179.82 59.1599 193.17 59.6399 202.06 68.3799C204.06 70.3199 206.06 72.2099 208.06 74.1299C201.853 82.4899 195.643 90.8532 189.43 99.2199C185 105.27 184.67 112.2 184.77 119.23Z" fill="#FEEEB3"/>
<path d="M384.1 159.09C381.37 159.88 378.17 160.02 375.99 161.59C369.35 166.37 363.12 171.71 356.68 176.78C355.505 177.603 354.276 178.345 353 179C358.72 168.34 358.19 158.29 350.07 149C350.35 147.92 350.27 146.39 350.97 145.81C360.16 138.2 368.52 129.41 380.03 125.05C383.39 135.4 385.52 145.96 385.03 156.91C384.838 157.682 384.525 158.418 384.1 159.09Z" fill="#D9D9D9"/>
<path d="M13.87 109C13.97 101.63 12.98 94.05 14.37 86.94C19.78 59.29 36.09 39.62 61.26 27.6C70 23.41 79.47 20.29 89.54 21C97.39 21.56 105.21 22.35 113.05 23C110.05 25.55 107.05 28.18 103.98 30.62C90.94 41 82 54.39 74.72 69C73.26 71.93 73.26 75.72 73.09 79.13C72.81 84.76 72.94 90.4 72.9 96.04C72.18 95.63 71.43 95.26 70.73 94.81C59.81 87.81 47.53 90.21 41.24 100.54C34.95 110.87 38 123.37 49.15 129.62C57.49 134.31 65.49 132.36 72.88 126.9C72.98 138.3 73.0834 149.703 73.19 161.11L72.92 172C66.84 169.46 60.49 167.43 54.74 164.28C39.771 156.157 27.8824 143.344 20.9 127.81C18.1 121.74 16.19 115.27 13.87 109Z" fill="#CECECE"/>
<path d="M72.92 172L73.19 161.15C79.08 170.36 84.28 180.15 91.08 188.59C96.46 195.3 103.47 200.87 110.36 206.16C117.295 211.646 124.735 216.461 132.58 220.54C140.01 224.24 148.19 226.54 156.22 228.9C161.22 230.34 166.63 230.14 171.61 231.53C181.52 234.31 191.34 232.9 201.22 231.9L210.22 241.9C183.322 247.726 155.24 244.15 130.66 231.77C123.54 228.26 116.91 223.77 110.05 219.77L108.83 219.04L95.35 206.73C92.2833 202.81 89.2033 198.89 86.11 194.97L78.11 182.97L72.92 172Z" fill="#F5CB59"/>
<path d="M72.88 126.9C65.49 132.36 57.49 134.31 49.15 129.62C38 123.37 34.86 111 41.24 100.54C47.62 90.08 59.81 87.83 70.73 94.81C71.43 95.26 72.18 95.63 72.9 96.04C72.8867 106.333 72.88 116.62 72.88 126.9Z" fill="#FEFEFE"/>
<path d="M89.94 131.9C91.33 135.57 92.74 139.24 94.1 142.9C102.42 165.57 117.03 183.05 138.23 194.5C145.32 198.34 153.67 199.78 161.15 203C168.772 206.245 177.08 207.551 185.33 206.8L191.87 217.91C169.76 219.17 148.87 215.41 130.51 202.24C109.26 187 95.73 166.62 90.2 141C89.65 138.45 90 135.7 89.93 133V131.9H89.94Z" fill="#FDAC40"/>
<path d="M72.92 172L78.07 183C55.47 178.77 38.16 166.67 25.77 147.46C18.24 135.76 14 123 13.87 109C16.19 115.28 18.1 121.75 20.87 127.82C27.8596 143.339 39.7474 156.137 54.71 164.25C60.49 167.39 66.84 169.42 72.92 172Z" fill="#B6B6B6"/>
<path d="M177.62 131.85C170.02 138.96 163.5 145.85 156.13 151.73C148.57 157.73 139.6 157.73 131.25 153.37C121.62 148.37 116.38 138.06 118.25 128C120 118.35 125.6 111.42 135.25 108.4C144.73 105.4 152.94 107.9 159.97 114.59C165.76 120.07 171.37 125.72 177.62 131.85Z" fill="#FEEEB3"/>
<path d="M179.23 169.8C178.77 172.22 178.36 174.33 178.02 176.1L171.56 175.1L169.56 170.18L174.75 166L179.23 169.8Z" fill="#FEEEB3"/>
<path d="M350 149C358.12 158.31 358.65 168.36 352.93 179L340 188.05C333.55 189.94 327.27 189.05 321.08 186.87L312 178L304 170C300.46 166.69 300.7 163.88 304.57 160.76C308.104 157.977 311.3 154.789 314.09 151.26C316.171 148.563 318.803 146.342 321.811 144.744C324.819 143.147 328.134 142.209 331.533 141.995C334.932 141.782 338.338 142.296 341.523 143.504C344.708 144.712 347.598 146.586 350 149Z" fill="#FEFEFE"/>
<path d="M280 160C284.7 165.82 284.76 165.88 279.31 171.16C274.7 175.62 270.31 180.5 265.1 184.11C261.39 186.68 256.43 187.43 252.02 188.99C246.112 189.13 240.379 186.98 236.02 182.99C225.02 169.12 225.02 159.13 236.02 148.53C238.133 146.414 240.644 144.736 243.408 143.594C246.172 142.452 249.134 141.867 252.125 141.873C255.115 141.88 258.075 142.477 260.834 143.632C263.593 144.786 266.096 146.475 268.2 148.6C272 152.44 276 156.22 280 160Z" fill="#FEFEFE"/>
<path d="M299 98.0798C304.4 101.45 310.14 104.08 313.42 110.35C316.7 116.62 316.51 122.62 315.06 129.01C313.15 132.07 311.57 135.4 309.27 138.11C305.1 143.04 300.52 147.63 296.07 152.32C293.97 154.54 291.86 154.91 289.96 152.02C288.54 150.42 287.18 148.76 285.7 147.23C278.56 139.86 269.61 133.7 269 122C267.72 110.06 281.76 96.9998 293 97.9998C295 98.1498 297 98.0498 299 98.0798Z" fill="#FEFEFE"/>
<path d="M269 122C269.6 133.7 278.55 139.86 285.68 147.23C287.16 148.76 288.52 150.42 289.94 152.02L279.94 160.02C275.94 156.21 272 152.43 268.07 148.61C265.966 146.485 263.463 144.796 260.704 143.642C257.945 142.488 254.985 141.89 251.995 141.883C249.004 141.877 246.042 142.462 243.278 143.604C240.514 144.746 238.003 146.424 235.89 148.54C224.89 159.14 224.96 169.13 235.89 183C232.76 184.62 229.65 186.29 226.49 187.86C222.56 189.86 220.49 195.23 214.86 194.02C209.3 186.51 205.31 178.32 203.86 169.02C218.63 157.82 233.3 146.47 248.24 135.48C255 130.61 262.11 126.47 269 122Z" fill="#E6E6E6"/>
<path d="M304 170L312 178C311.094 178.388 310.221 178.849 309.39 179.38C300.82 185.95 292.21 192.48 283.81 199.26C282.68 200.16 282.6 202.36 282.03 203.96L279.1 201.72L274.49 204.42C274.7 206.5 274.87 208.25 275.04 209.99C272.04 207.46 269.77 208.17 267.31 211.06C265.31 213.4 262.65 215.15 260.31 217.17C256.843 220.117 253.407 223.06 250 226L234 216C235.22 215.6 236.65 215.49 237.63 214.76C244.63 209.55 251.58 204.2 258.56 198.92C269.84 190.38 281.16 181.92 292.39 173.31C293.996 171.994 295.855 171.021 297.852 170.451C299.849 169.882 301.941 169.728 304 170Z" fill="#DEDEDE"/>
<path d="M215 194C220.6 195.21 222.7 189.8 226.63 187.84C229.79 186.27 232.9 184.6 236.03 182.98C240.389 186.97 246.122 189.12 252.03 188.98C251.95 189.3 251.93 189.86 251.78 189.9C241.48 192.63 234.78 201.4 225.46 205.69C224.987 205.851 224.497 205.955 224 206L215 194Z" fill="#E5E5E5"/>
<path d="M302 237C306.83 232.78 311.64 228.56 316.49 224.36C317.8 223.22 319.23 222.22 320.49 221.07C321.36 220.31 322 219.26 322.93 218.58C328.45 214.58 334.07 210.71 339.58 206.68C346.36 201.68 352.94 196.49 359.84 191.68C365.37 187.84 371.24 184.51 376.96 180.96C372.86 195.26 363.4 205.88 352.69 215.43C343.873 223.282 333.486 229.169 322.22 232.7C315.71 234.81 308.77 235.62 302 237Z" fill="#D4D4D4"/>
<path d="M250 226C253.42 223.06 256.84 220.117 260.26 217.17C262.62 215.17 265.26 213.4 267.26 211.06C269.72 208.17 272.01 207.46 274.99 209.99L281.24 210.29C282.32 208.1 283.24 206.2 284.29 204.14L282 204C282.57 202.4 282.65 200.2 283.78 199.3C292.18 192.52 300.78 185.99 309.36 179.42C310.199 178.874 311.082 178.399 312 178L321.11 186.86C318.143 188.856 315.283 191.006 312.54 193.3C308.86 196.66 305.54 200.39 302.03 203.97L296.26 202.24L292.61 204.31L293 211C291.24 211.39 289.12 211.26 287.79 212.23C279.43 218.36 271.25 224.73 263 231.02L250 226Z" fill="#DBDBDB"/>
<path d="M263 231C271.25 224.71 279.43 218.34 287.79 212.21C289.12 211.21 291.24 211.37 293 210.98L299.23 210.12C300.18 208.02 301.1 205.99 302.01 203.96C305.5 200.38 308.84 196.65 312.52 193.29C315.263 190.996 318.123 188.847 321.09 186.85C327.28 189.06 333.56 189.92 340.01 188.03C336.01 191.33 332.12 194.68 328.1 197.9C325.45 200 322.67 202 320 204L313.77 202.15L309.58 204.4L311.04 211.07C304.77 215.48 298.43 219.81 292.24 224.34C287 228.11 282.06 232.11 277 236C272.11 235 266.59 235.68 263 231Z" fill="#D9D9D9"/>
<path d="M311 211.08L309.54 204.41L313.73 202.16L320 204L316.74 210.18L311 211.08Z" fill="#F6F6F5"/>
<path d="M282 204L284.31 204.18C283.31 206.24 282.31 208.18 281.26 210.33L275 210C274.83 208.26 274.66 206.51 274.45 204.43L279.06 201.73L282 204Z" fill="#F6F6F5"/>
<path d="M302 204C301.09 206 300.17 208.06 299.22 210.16L293 211C292.88 209 292.76 207.06 292.59 204.32L296.24 202.25L302 204Z" fill="#F6F6F5"/>
</svg>
