<svg width="113" height="113" viewBox="0 0 113 113" fill="none" xmlns="http://www.w3.org/2000/svg">
<rect x="9" y="9" width="95" height="95" rx="47.5" fill="#F2F4F7"/>
<rect x="9" y="9" width="95" height="95" rx="47.5" stroke="#F9FAFB" stroke-width="16.9643"/>
<path d="M79.4037 51.2982C79.4037 65.7121 68.4893 74.8863 56.7008 86.2717C44.4757 74.4192 33.5996 65.7121 33.5996 51.2982C33.5996 36.8843 43.1587 25.9629 57.0991 25.9629C71.0395 25.9629 79.4037 36.8843 79.4037 51.2982Z" fill="#493169"/>
<path d="M58.9961 51.9644C60.7389 50.1537 62.2306 48.3005 64.0324 46.801C66.0115 45.1601 69.305 45.3015 71.4023 46.7869C73.7506 48.442 74.681 51.0591 73.8097 53.6337C72.9678 56.1376 70.5457 57.8069 67.769 57.8493C65.9081 57.8776 64.3426 57.2552 63.0576 55.982C61.6546 54.5674 60.2367 53.181 58.9961 51.9644Z" fill="#FBB946"/>
<path d="M57.0174 48.7051C55.1302 47.0329 53.1988 45.6016 51.636 43.8728C49.9257 41.9739 50.0732 38.8138 51.6213 36.8015C53.3463 34.5483 56.0738 33.6556 58.7572 34.4917C61.3668 35.2994 63.1066 37.6234 63.1508 40.2876C63.1803 42.0731 62.5316 43.5752 61.2046 44.8081C59.7303 46.1543 58.2854 47.5147 57.0174 48.7051Z" fill="#FBB946"/>
<path d="M54.315 51.8398C52.5202 53.5145 50.928 55.1467 49.1766 56.6085C47.1068 58.3258 44.0962 58.3258 41.8816 56.8072C39.6091 55.2318 38.6539 52.5494 39.4644 49.9521C40.2315 47.4684 42.6632 45.7369 45.3554 45.6943C47.0923 45.6659 48.5397 46.262 49.7556 47.44C51.2464 48.8593 52.7373 50.2928 54.315 51.8398Z" fill="#FBB946"/>
</svg>
