<svg width="264" height="264" viewBox="0 0 264 264" fill="none" xmlns="http://www.w3.org/2000/svg">
<g clip-path="url(#clip0_5182_9375)">
<path d="M33.3778 222.79C28.931 222.864 22.4545 223.029 18.0655 223.024H17.8111V222.785L17.7764 216.839V216.573H18.0655C22.6511 216.573 29.0524 216.61 33.5397 216.695C33.5397 218.497 33.4125 220.946 33.3778 222.785V222.79ZM33.3778 222.79C33.32 221.047 33.2622 218.539 33.2217 216.844L33.3778 216.988C28.9541 217.062 22.5586 217.099 18.0655 217.11L18.3546 216.844V222.79L18.0944 222.551C22.4256 222.551 29.0177 222.705 33.4067 222.79H33.3778Z" fill="#EBEBEB"/>
<path d="M24.8368 230.287C20.39 230.361 13.9135 230.526 9.52448 230.521H9.27005V230.282L9.23535 224.336V224.07H9.52448C14.1101 224.07 20.4767 224.108 24.9987 224.193C24.9987 225.994 24.8715 228.443 24.8368 230.282V230.287ZM24.8368 230.287C24.779 228.544 24.7212 226.036 24.6807 224.341L24.8368 224.485C20.4073 224.559 14.0176 224.596 9.52448 224.607L9.81361 224.341L9.7847 230.287L9.52448 230.048C13.8556 230.048 20.4478 230.202 24.8368 230.287Z" fill="#EBEBEB"/>
<path d="M100.596 144.211C96.1488 144.291 89.6723 144.45 85.2834 144.45H85.0289V144.211L85 138.266V138H85.2891C89.8747 138 96.2414 138.042 100.763 138.122C100.763 139.923 100.636 142.373 100.601 144.211H100.596ZM100.596 144.211C100.538 142.474 100.48 139.961 100.44 138.266L100.596 138.409C96.1662 138.484 89.7764 138.521 85.2834 138.531L85.5725 138.266V144.211L85.3123 143.972C89.6434 143.972 96.2356 144.126 100.625 144.211H100.596Z" fill="#EBEBEB"/>
<path d="M46.9344 158.151C42.4876 158.225 36.0111 158.39 31.6221 158.39H31.3677V158.151V152.205V151.939H31.6568C36.2424 151.939 42.609 151.982 47.131 152.062C47.131 153.863 47.0038 156.312 46.9691 158.151H46.9344ZM46.9344 158.151C46.8766 156.413 46.8188 153.9 46.7783 152.205L46.9344 152.349C42.505 152.423 36.1152 152.46 31.6221 152.471L31.9112 152.205L31.8765 158.151L31.6221 157.912C35.9533 157.912 42.5454 158.066 46.9344 158.151Z" fill="#EBEBEB"/>
<path d="M38.4283 150.654C33.9814 150.733 27.5049 150.893 23.1159 150.893H22.8557V150.654V144.708V144.442H23.1506C27.7304 144.442 34.1029 144.485 38.6191 144.565C38.6191 146.366 38.4976 148.815 38.463 150.654H38.4283ZM38.4283 150.654C38.3704 148.916 38.3068 146.403 38.2663 144.708L38.4283 144.852C33.9988 144.926 27.609 144.963 23.1159 144.974L23.3993 144.708V150.654L23.1448 150.415C27.4702 150.415 34.0682 150.569 38.4572 150.654H38.4283Z" fill="#EBEBEB"/>
<path d="M250.844 230.287C246.397 230.361 239.921 230.526 235.532 230.521H235.271V230.282L235.242 224.336V224.07H235.532C240.111 224.07 246.484 224.108 251 224.193C251 225.994 250.879 228.443 250.844 230.282V230.287ZM250.844 230.287C250.786 228.544 250.728 226.036 250.688 224.341L250.844 224.485C246.414 224.559 240.025 224.596 235.532 224.607L235.821 224.341L235.786 230.287L235.532 230.048C239.857 230.048 246.455 230.202 250.844 230.287Z" fill="#EBEBEB"/>
<path d="M47.5494 71.2166C43.1026 71.291 36.6261 71.4504 32.2371 71.4504H32V71.2166V65.271V65H32.2949C36.8747 65 43.2472 65.0372 47.7634 65.1222C47.7634 66.9234 47.6419 69.3729 47.6072 71.2113L47.5494 71.2166ZM47.5494 71.2166C47.4916 69.4738 47.428 66.9659 47.3875 65.271L47.5494 65.4144C43.1199 65.4888 36.7302 65.5207 32.2371 65.5366L32.5262 65.271L32.4915 71.2166L32.2371 70.9775C36.5625 70.9775 43.1604 71.1316 47.5494 71.2166Z" fill="#EBEBEB"/>
<path d="M35.6015 85.2166C31.1546 85.291 24.6781 85.4504 20.2891 85.4504H20.0289V85.2166L20 79.271V79H20.2891C24.8689 79 31.2414 79.0372 35.7576 79.1222C35.7576 80.9234 35.6362 83.3729 35.6015 85.2113V85.2166ZM35.6015 85.2166C35.5436 83.4738 35.4858 80.9659 35.4453 79.271L35.6015 79.4144C31.172 79.4888 24.7822 79.5207 20.2891 79.5313L20.5783 79.271L20.5436 85.2166L20.2891 84.9775C24.6145 84.9775 31.2125 85.1316 35.6015 85.2166Z" fill="#EBEBEB"/>
<path d="M93.6015 137.217C89.1546 137.291 82.6781 137.45 78.2891 137.45H78.0347V137.217L78 131.271V131H78.2891C82.8747 131 89.2414 131.037 93.7634 131.122C93.7634 132.923 93.6361 135.373 93.6015 137.211V137.217ZM93.6015 137.217C93.5436 135.474 93.4858 132.966 93.4453 131.271L93.6015 131.414C89.172 131.489 82.7822 131.521 78.2891 131.537L78.5783 131.271L78.5493 137.217L78.2891 136.978C82.6203 136.978 89.2125 137.132 93.6015 137.217Z" fill="#EBEBEB"/>
<path d="M-10 236.142L-8.58326 239H23.7877L25.1987 236.142H-10Z" fill="#DBDBDB"/>
<path d="M252.236 246.713C252.236 246.793 198.38 246.851 132.005 246.851C65.6305 246.851 11.7639 246.793 11.7639 246.713C11.7639 246.634 65.5882 246.576 132 246.576C198.412 246.576 252.236 246.64 252.236 246.713Z" fill="#263238"/>
<path d="M64.4162 224.458C64.9248 224.7 65.3792 225.042 65.7521 225.464C66.125 225.886 66.4088 226.379 66.5863 226.913C66.9363 227.987 67.0357 229.127 66.8767 230.245C66.6285 232.405 65.4036 234.585 64.0836 236.307C62.262 234.723 61.8448 231.951 61.7234 230.536C61.5228 228.292 62.5312 224.126 64.4162 224.458Z" fill="#FCE193"/>
<path d="M66.1795 239.871C66.0554 239.254 66.0971 238.615 66.3002 238.02C66.5033 237.424 66.8607 236.893 67.3359 236.481C67.8161 236.075 68.3728 235.769 68.9731 235.581C69.5734 235.393 70.2052 235.328 70.8312 235.388C71.1219 235.383 71.41 235.443 71.6754 235.561C71.9407 235.68 72.177 235.855 72.3677 236.074C72.5051 236.309 72.5775 236.576 72.5775 236.848C72.5775 237.12 72.5051 237.387 72.3677 237.621C72.0921 238.092 71.6968 238.482 71.2219 238.751C69.6379 239.739 67.9431 240.409 66.1584 239.871" fill="#FCE193"/>
<path d="M63.8459 246.497C63.8557 246.347 63.8787 246.199 63.9146 246.053C63.9727 245.737 64.0466 245.335 64.1311 244.85C64.335 243.515 64.754 242.222 65.3719 241.022C66.0133 239.822 66.9605 238.812 68.1175 238.096C68.4717 237.889 68.8492 237.724 69.2421 237.605C69.3475 237.57 69.4551 237.542 69.5642 237.521C69.6026 237.514 69.6419 237.514 69.6803 237.521C69.158 237.701 68.6541 237.931 68.1755 238.207C67.0577 238.937 66.1408 239.935 65.5091 241.111C64.9009 242.301 64.4738 243.576 64.2419 244.892C64.1311 245.42 64.0413 245.8 63.9727 246.08C63.9437 246.223 63.9013 246.362 63.8459 246.497Z" fill="#263238"/>
<path d="M63.9144 227.7C63.9219 227.765 63.9219 227.831 63.9144 227.896C63.9144 228.036 63.925 228.221 63.9461 228.45C63.9461 228.936 63.9989 229.633 64.0253 230.499C64.0834 232.23 64.1256 234.622 64.1151 237.262C64.1045 239.902 64.0411 242.299 63.9672 244.026C63.9355 244.892 63.8986 245.61 63.8669 246.075C63.8669 246.307 63.8405 246.486 63.8299 246.634C63.8357 246.697 63.8357 246.761 63.8299 246.824C63.8217 246.759 63.8217 246.694 63.8299 246.629C63.8299 246.486 63.8299 246.302 63.8299 246.075C63.8299 245.547 63.8299 244.876 63.8775 244.026C63.9197 242.294 63.9672 239.902 63.9778 237.262C63.9883 234.622 63.9778 232.236 63.9355 230.504C63.9355 229.654 63.9355 228.957 63.9039 228.455V227.896C63.9017 227.83 63.9052 227.765 63.9144 227.7Z" fill="#263238"/>
<path d="M63.0327 241.186C62.8129 239.877 62.2844 238.64 61.4911 237.577C60.6977 236.514 59.6624 235.655 58.4708 235.072C57.8636 234.781 57.0716 234.591 56.57 235.04C56.0684 235.489 56.1846 236.307 56.4275 236.935C56.9627 238.239 57.8713 239.355 59.0391 240.143C60.2069 240.931 61.5816 241.356 62.9905 241.365" fill="#FCE193"/>
<path d="M58.7664 237.12C58.9006 237.16 59.0298 237.215 59.1519 237.284C59.3025 237.352 59.4489 237.43 59.5901 237.516C59.7538 237.622 59.9492 237.722 60.1181 237.865C60.3387 238.012 60.5502 238.172 60.7517 238.345C60.9886 238.536 61.2143 238.741 61.4276 238.958C61.9177 239.458 62.3498 240.013 62.7159 240.61C63.0669 241.214 63.3502 241.855 63.5607 242.522C63.6475 242.813 63.718 243.109 63.7719 243.409C63.8244 243.67 63.8614 243.935 63.8828 244.201C63.9144 244.438 63.8828 244.66 63.9144 244.855C63.9233 245.019 63.9233 245.183 63.9144 245.346C63.9116 245.487 63.8956 245.626 63.8669 245.763C63.83 245.763 63.8669 245.167 63.7877 244.211C63.7606 243.95 63.7183 243.691 63.661 243.435C63.6135 243.155 63.5237 242.87 63.4392 242.564C63.226 241.91 62.9428 241.282 62.5944 240.689C62.2333 240.105 61.8141 239.558 61.3431 239.058C61.116 238.836 60.9048 238.625 60.6831 238.445C60.4876 238.273 60.2831 238.111 60.0706 237.96C59.2997 237.4 58.7506 237.147 58.7664 237.12Z" fill="#263238"/>
<path d="M257.189 184.884C257.189 184.964 201.854 185.022 133.637 185.022C65.4192 185.022 10.032 184.964 10.032 184.884C10.032 184.805 65.3505 184.747 133.616 184.747C201.881 184.747 257.189 184.8 257.189 184.884Z" fill="#E0E0E0"/>
<path d="M168.96 246.713L96.0484 246.671C93.9651 246.675 91.9014 246.269 89.9753 245.475C88.0492 244.682 86.2987 243.516 84.8239 242.044C83.3491 240.573 82.179 238.825 81.3807 236.901C80.5823 234.977 80.1714 232.914 80.1714 230.831L80.1819 48.5755C80.1819 46.4892 80.5941 44.4233 81.3947 42.4967C82.1954 40.5701 83.3688 38.8206 84.8475 37.3487C86.3262 35.8769 88.0811 34.7117 90.0115 33.92C91.9418 33.1283 94.0095 32.7258 96.0959 32.7355L169.013 32.783C171.095 32.7789 173.159 33.1855 175.084 33.9797C177.01 34.7739 178.759 35.94 180.234 37.4113C181.708 38.8826 182.878 40.6301 183.676 42.554C184.474 44.4779 184.884 46.5402 184.884 48.623L184.847 230.894C184.845 232.976 184.431 235.038 183.631 236.96C182.831 238.883 181.659 240.628 180.184 242.098C178.708 243.567 176.957 244.731 175.031 245.523C173.105 246.315 171.042 246.719 168.96 246.713Z" fill="#263238"/>
<path d="M169.446 38.2001L155.258 38.1315C154.326 38.1495 153.438 38.5364 152.79 39.2073C152.142 39.8782 151.786 40.7786 151.8 41.7113V44.288C151.815 45.2216 151.46 46.1234 150.812 46.7954C150.163 47.4675 149.275 47.8551 148.341 47.8731L120.69 47.7411C119.756 47.7162 118.869 47.3213 118.225 46.6431C117.582 45.9649 117.234 45.0589 117.258 44.1243V41.5529C117.282 40.6192 116.935 39.714 116.293 39.036C115.65 38.3579 114.765 37.9624 113.831 37.9361H108.842L96.4232 37.8781C94.9572 37.8711 93.5042 38.1532 92.1473 38.7081C90.7904 39.263 89.5561 40.0799 88.5151 41.1121C87.474 42.1443 86.6466 43.3716 86.0802 44.7238C85.5137 46.0759 85.2193 47.5265 85.2138 48.9925L84.4799 228.016C84.4658 230.972 85.6256 233.813 87.7046 235.915C89.7835 238.017 92.6117 239.207 95.5679 239.226L168.59 239.564C170.057 239.57 171.51 239.288 172.867 238.734C174.224 238.179 175.459 237.362 176.5 236.33C177.542 235.298 178.37 234.07 178.937 232.718C179.504 231.366 179.799 229.915 179.805 228.449L180.576 49.4096C180.583 47.9422 180.3 46.488 179.744 45.13C179.188 43.772 178.37 42.5371 177.336 41.4958C176.302 40.4546 175.073 39.6275 173.719 39.062C172.365 38.4965 170.913 38.2036 169.446 38.2001Z" fill="#F5F5F5"/>
<path d="M138.457 205.729C138.373 207.894 138.294 209.921 138.225 211.606H148.716L147.433 205.164L138.457 205.729Z" fill="#F5F5F5"/>
<path d="M95.8267 208.427L95.9164 211.595H137.18C137.248 209.81 137.327 207.83 137.407 205.787L95.8267 208.427Z" fill="#F5F5F5"/>
<path d="M147.956 205.127L149.25 211.606H168.585L168.353 203.839L147.956 205.127Z" fill="#F5F5F5"/>
<path d="M139.503 114.602L143.157 93.4032L133.584 92.6904V114.602H139.503Z" fill="#EBEBEB"/>
<path d="M94.9661 196.658L84.5698 200.729L84.5381 208.095L95.2723 207.414L94.9661 196.658Z" fill="#F5F5F5"/>
<path d="M94.9186 195L94.3483 175.258H94.343V168.294L84.7018 169.313L84.5803 199.039L94.9133 194.99L94.9186 195Z" fill="#EBEBEB"/>
<path d="M94.3429 152.75L84.7755 151.488L84.7122 167.735L94.3429 166.716V152.75Z" fill="#F5F5F5"/>
<path d="M165.607 168.59L165.206 174.245L153.912 175.465L154.788 179.942L167.608 178.976L167.413 172.555L168.437 168.3L165.607 168.59Z" fill="#F5F5F5"/>
<path d="M145.253 180.66L154.261 179.979L152.302 169.931L144.44 170.723L145.253 180.66Z" fill="#F5F5F5"/>
<path d="M145.343 181.701L146.029 190.085L147.249 201.58L147.75 204.093L168.321 202.794L167.64 180.021L145.343 181.701Z" fill="#EBEBEB"/>
<path d="M109.935 142.137L110.727 143.494L94.8868 152.75V174.699L111.63 173.511L143.896 170.253L142.713 155.87L111.888 151.842L112.089 150.284L142.56 154.265L140.559 129.919L110.378 132.818L110.278 131.762L140.474 128.858L139.418 116.154H110.378L84.8812 120.795L84.7598 149.888L94.4116 151.161L109.935 142.137ZM96.4866 172.603C96.4866 172.603 96.6081 154.503 96.4866 153.827L109.433 146.963L111.112 171.7L96.4866 172.603Z" fill="#F5F5F5"/>
<path d="M164.551 168.695L152.824 169.878L153.711 174.435L164.224 173.299L164.551 168.695Z" fill="#F5F5F5"/>
<path d="M138.605 201.854C138.568 202.804 138.531 203.749 138.494 204.678L147.228 204.15L146.779 201.901L138.605 201.854Z" fill="#F5F5F5"/>
<path d="M119.803 114.602L121.34 107.627H133.056V92.6534L96.4127 89.9395V104L84.9709 106.587L84.9128 119.212L110.262 114.602H119.803Z" fill="#EBEBEB"/>
<path d="M144.255 72.9269L143.938 71.6439L157.935 66.1052L148.833 47.8364C148.667 47.8637 148.499 47.8779 148.331 47.8786L132.866 47.8047L133.288 73.3757L144.255 72.9269Z" fill="#F5F5F5"/>
<path d="M165.459 63.1274V38.1794L155.274 38.1318C154.811 38.1387 154.354 38.2368 153.928 38.4204C153.503 38.6041 153.118 38.8697 152.795 39.2021C152.473 39.5345 152.219 39.9273 152.048 40.3579C151.877 40.7885 151.793 41.2485 151.8 41.7117V44.2883C151.802 44.8639 151.667 45.4317 151.406 45.9448C151.145 46.458 150.766 46.9018 150.3 47.2398L159.408 65.5245L165.459 63.1274Z" fill="#EBEBEB"/>
<path d="M112.855 64.1987L111.677 37.9307H108.842L97.7539 37.8779L93.0388 61.3687L112.855 64.1987ZM110.352 40.5918L110.732 61.9864L96.022 59.8322L99.2428 40.5918H110.352Z" fill="#F5F5F5"/>
<path d="M113.388 64.2784V64.5002C113.414 66.5488 113.457 70.2396 113.483 74.1837L132.766 73.3917L132.343 47.7996L120.68 47.7415C119.745 47.7166 118.859 47.3217 118.215 46.6435C117.571 45.9653 117.224 45.0593 117.248 44.1247V41.5533C117.272 40.6196 116.925 39.7144 116.282 39.0364C115.64 38.3583 114.755 37.9628 113.821 37.9365H112.2L113.383 64.2732L113.388 64.2784Z" fill="#F5F5F5"/>
<path d="M91.5024 61.1367L96.1699 37.873C93.2573 37.924 90.4803 39.1127 88.4328 41.1848C86.3854 43.257 85.23 46.048 85.2139 48.961L85.1611 60.577L85.2139 60.2391L91.5024 61.1367Z" fill="#F5F5F5"/>
<path d="M94.8446 89.8234L85.0397 89.0947L84.9763 104.977L94.8446 102.744V89.8234Z" fill="#F5F5F5"/>
<path d="M91.3967 61.6486L85.161 60.751L85.0554 86.4699L86.3965 86.5702L91.3967 61.6486Z" fill="#F5F5F5"/>
<path d="M111.197 194.699L111.36 174.055L94.8708 175.222L95.4517 195.449L111.197 194.699Z" fill="#F5F5F5"/>
<path d="M114.227 189.937L137.586 201.125C137.861 193.812 138.114 186.974 138.088 186.541L138.616 186.515L138.864 186.019C139.197 186.188 139.197 186.188 139.022 191.172C138.922 193.949 138.785 197.651 138.642 201.352H146.721L145.527 190.132L143.943 170.775L113.43 173.854L114.227 189.937Z" fill="#F5F5F5"/>
<path d="M171.473 155.67L171.209 152.945L143.22 155.86L144.397 170.206L168.564 167.766L171.473 155.67Z" fill="#F5F5F5"/>
<path d="M133.056 109.195H122.601L121.408 114.602H133.056V109.195Z" fill="#F5F5F5"/>
<path d="M167.154 111.022L140.976 109.211L139.92 115.394L140.976 128.831L168.596 126.191L167.154 111.022ZM141.926 115.383L143.331 111.481L166.077 112.917L167.376 124.079L142.676 127.01L141.926 115.383Z" fill="#F5F5F5"/>
<path d="M169.868 139.086L168.722 127.211L141.082 129.867L142.122 142.507L169.868 139.086Z" fill="#F5F5F5"/>
<path d="M95.304 208.46L84.5803 209.141L84.5381 208.438L84.5222 211.606H95.3937L95.304 208.46Z" fill="#F5F5F5"/>
<path d="M180.365 57.2293L180.523 57.6306L180.576 49.4096C180.59 46.4534 179.43 43.6125 177.351 41.5108C175.272 39.409 172.444 38.2183 169.488 38.2002H166.008V62.937L180.365 57.2293Z" fill="#EBEBEB"/>
<path d="M137.56 201.696L113.726 190.275L112.881 173.907L111.883 174.008L111.714 195.201L95.4675 195.972V196.442L95.779 207.372L137.428 204.732C137.486 203.734 137.523 202.71 137.56 201.696ZM96.4866 197.319L119.228 195.735L134.012 202.599L96.4707 204.632L96.4866 197.319Z" fill="#F5F5F5"/>
<path d="M173.59 84.7063L174.562 78.8983C166.014 75.8465 165.422 66.9338 165.449 64.2305L159.868 66.4428L168.268 83.3071L173.59 84.7063Z" fill="#F5F5F5"/>
<path d="M143.088 154.292L154.715 153.083L152.423 142.818L142.249 144.075L143.088 154.292Z" fill="#F5F5F5"/>
<path d="M168.163 94.7759L146.457 94.7707L144.651 94.6387L142.201 108.852L167.967 110.632L167.371 104.454L169.905 95.3251L168.163 94.7759Z" fill="#F5F5F5"/>
<path d="M166.663 90.9582L166.932 84.1734L158.4 67.0557L145.2 72.2829L149.746 90.9582H166.663ZM157.872 69.1307L165.692 84.0045L164.562 88.6403L151.182 88.1123L147.84 74.0675L157.872 69.1307Z" fill="#F5F5F5"/>
<path d="M170.042 172.824L170.438 186.151L179.847 185.623L179.874 186.146L170.454 186.679L170.935 202.624L179.826 202.065L179.895 203.11L170.966 203.675L171.204 211.606H179.868L180.058 167.127L171.193 168.025L170.042 172.824Z" fill="#F5F5F5"/>
<path d="M112.871 64.7319L92.9544 61.8701L87.9753 86.6861L112.96 88.5394C113.061 84.7167 112.992 73.0004 112.871 64.7319Z" fill="#EBEBEB"/>
<path d="M145.628 90.9581H148.642L144.381 73.4443L133.293 73.8984L133.563 90.0658L145.628 90.9581Z" fill="#F5F5F5"/>
<path d="M113.467 88.5772L133.056 90.0292L132.792 73.9199L113.52 74.7119C113.52 80.1556 113.552 85.9636 113.467 88.5772Z" fill="#F5F5F5"/>
<path d="M170.021 140.648L152.946 142.755L155.237 153.03L171.061 151.383L170.021 140.648Z" fill="#F5F5F5"/>
<path d="M174.652 78.3969L175.745 71.9077L180.46 72.2721L180.518 58.2959L165.977 64.0511C165.681 73.8877 171.859 77.3461 174.652 78.3969Z" fill="#EBEBEB"/>
<path d="M169.055 103.488L169.646 109.618L180.296 110.357L180.349 97.7326L171.436 94.9131L169.055 103.488Z" fill="#F5F5F5"/>
<path d="M174.124 155.854L171.325 167.47L180.048 166.605L180.101 154.408C177.419 153.7 175.08 153.125 173.823 152.882L174.124 155.854Z" fill="#F5F5F5"/>
<path d="M168.226 91.159L180.365 94.9923L180.391 88.0861L168.474 85.0078L168.226 91.159Z" fill="#F5F5F5"/>
<path d="M173.68 151.287C174.657 151.43 176.51 151.815 180.117 152.776L180.233 126.102L171.325 126.962L173.68 151.287Z" fill="#F5F5F5"/>
<path d="M171.225 125.917L180.238 125.051L180.291 111.93L169.799 111.207L171.225 125.917Z" fill="#F5F5F5"/>
<path d="M175.655 78.7297C177.366 79.2472 178.95 79.652 180.407 79.9441V73.323L176.568 73.0273L175.655 78.7297Z" fill="#F5F5F5"/>
<path d="M135.464 81.396L141.272 82.8955L141.298 76.908C139.798 76.6123 138.179 76.2022 136.44 75.6777L135.464 81.396Z" fill="#F5F5F5"/>
<path d="M179.895 203.111L179.826 202.055L170.935 202.614L170.454 186.663L179.874 186.135L179.847 185.607L170.438 186.135L170.042 172.809L171.193 168.009L180.058 167.112V166.584L171.325 167.465L174.124 155.849L173.833 152.877C175.09 153.12 177.429 153.695 180.111 154.403V152.771C176.505 151.821 174.652 151.425 173.675 151.282L171.32 126.957L180.227 126.097V125.041L171.214 125.906L169.789 111.191L180.291 111.936V110.352L169.641 109.612L169.05 103.488L171.436 94.9129L180.349 97.7324V94.9921L168.205 91.1588L168.453 85.0076L180.37 88.0858V86.4702L174.562 84.9706L175.528 79.2471C177.267 79.7751 178.884 80.187 180.381 80.4826V79.9546C178.906 79.666 177.322 79.2612 175.628 78.7402L176.589 73.0378L180.428 73.3335V72.2775L175.713 71.9132L174.62 78.4023C171.827 77.3463 165.644 73.8932 165.945 64.0566L180.486 58.3014V57.6361L180.328 57.2348L165.945 62.9266V38.1898H165.417V63.1378L159.356 65.5402L150.29 47.245C149.858 47.5553 149.358 47.758 148.832 47.8364L157.935 66.1052L143.938 71.6439L144.255 72.927L133.288 73.3758L132.866 47.8047H132.338L132.76 73.3969L113.483 74.1836C113.456 70.2394 113.414 66.5487 113.388 64.5001V64.2783L112.2 37.9364H111.672L112.849 64.2044L93.0546 61.3638L97.7696 37.873H96.4179H96.1645L91.497 61.1367L85.2085 60.2338L85.1557 60.5718V60.7513L91.3914 61.6489L86.3965 86.5916L85.0554 86.4913V89.1313L94.8603 89.8599V102.78L84.992 105.014V106.624L96.4127 104.016V89.9391L133.056 92.653V107.627H121.334L119.798 114.602H110.262L84.9181 119.211V120.795L110.405 116.16H139.445L140.501 128.863L110.304 131.767L110.405 132.823L140.585 129.925L142.56 154.265L112.063 150.284L111.862 151.842L142.687 155.87L143.869 170.253L111.603 173.511L94.8603 174.699V152.75L110.7 143.494L109.908 142.137L94.4115 151.177L84.7597 149.904V151.488L94.3165 152.75V166.716L84.6911 167.735V169.319L94.3271 168.3V175.264L94.8973 195.006L84.5749 199.056V200.745L94.9712 196.674L95.2775 207.43L84.5432 208.106V208.454L84.5855 209.156L95.3091 208.475L95.3989 211.643H95.9269L95.8371 208.475L137.417 205.835C137.338 207.878 137.259 209.858 137.19 211.643H138.246C138.315 209.959 138.394 207.947 138.478 205.766L147.454 205.202L148.737 211.643H149.265L147.972 205.165L168.368 203.876L168.601 211.643H171.241M138.494 204.679C138.531 203.75 138.568 202.804 138.605 201.854H146.779L147.227 204.103L138.494 204.679ZM147.75 204.093L147.248 201.579L146.029 190.08L145.342 181.7L167.64 180.048L168.321 202.82L147.75 204.093ZM152.824 169.878L164.551 168.696L164.224 173.3L153.711 174.435L152.824 169.878ZM152.296 169.931L154.255 179.963L145.247 180.644L144.434 170.707L152.296 169.931ZM167.608 178.976L154.788 179.942L153.912 175.465L165.206 174.24L165.607 168.585L168.437 168.3L167.413 172.55L167.608 178.976ZM152.423 142.818L154.704 153.083L143.088 154.292L142.248 144.07L152.423 142.818ZM155.232 153.03L152.94 142.755L170.016 140.643L171.072 151.377L155.232 153.03ZM166.996 109.438L141.224 107.654L143.684 93.4556L145.485 93.5876H167.196L168.939 94.1156L166.399 103.245L166.996 109.438ZM165.443 64.2572C165.417 66.9606 166.008 75.8732 174.557 78.925L173.585 84.733L168.263 83.3602L159.862 66.4959L165.443 64.2572ZM158.4 67.0556L166.932 84.1786L166.663 90.9634H149.72L145.2 72.2828L158.4 67.0556ZM144.381 73.455L148.642 90.9634H145.633L133.584 90.0658L133.293 73.9196L144.381 73.455ZM132.765 73.9249L133.029 90.0342L113.462 88.5822C113.546 85.9686 113.53 80.1606 113.462 74.7169L132.765 73.9249ZM92.949 61.8759L112.865 64.7377C112.965 73.0062 113.055 84.7225 112.955 88.5452L87.9699 86.6919L92.949 61.8759ZM143.151 93.4028L139.497 114.607H133.584V92.6953L143.151 93.4028ZM122.601 109.195H133.056V114.602H121.408L122.601 109.195ZM139.92 115.394L140.976 109.211L167.165 111.022L168.617 126.192L140.976 128.832L139.92 115.394ZM168.749 127.211L169.894 139.085L142.148 142.507L141.092 129.866L168.749 127.211ZM143.246 155.86L171.23 152.945L171.489 155.67L168.58 167.761L144.413 170.2L143.246 155.86ZM145.532 190.132L146.726 201.352H138.647C138.79 197.656 138.927 193.96 139.028 191.173C139.202 186.188 139.202 186.188 138.869 186.019L138.621 186.516L138.093 186.542C138.093 186.975 137.866 193.813 137.591 201.125L114.233 189.937L113.409 173.854L143.922 170.776L145.532 190.132ZM111.387 174.055L111.223 194.7L95.4781 195.449L94.8973 175.222L111.387 174.055ZM95.5098 196.453V195.983L111.756 195.212L111.925 174.018L112.923 173.918L113.768 190.286L137.56 201.696C137.523 202.709 137.486 203.734 137.444 204.747L95.7949 207.387L95.5098 196.453Z" fill="white"/>
<path d="M119.228 195.724L96.4866 197.318V204.62L134.027 202.588L119.228 195.724Z" fill="#E0E0E0"/>
<path d="M166.082 112.918L143.331 111.481L141.926 115.383L142.697 127.02L167.397 124.09L166.082 112.918Z" fill="#E0E0E0"/>
<path d="M111.154 63.3545L110.78 41.96H99.6651L96.4443 61.2003L111.154 63.3545Z" fill="#E0E0E0"/>
<path d="M164.577 88.6405L165.707 84.0046L157.888 69.1309L147.856 74.0677L151.198 88.1389L164.577 88.6405Z" fill="#EBEBEB"/>
<path d="M169.24 56.4641C169.242 55.9195 169.118 55.3817 168.878 54.8928C168.638 54.4038 168.289 53.9768 167.857 53.6451C167.425 53.3133 166.922 53.0858 166.388 52.9802C165.854 52.8746 165.302 52.8938 164.777 53.0363C164.251 53.1788 163.765 53.4407 163.358 53.8016C162.95 54.1626 162.631 54.6128 162.425 55.1173C162.22 55.6217 162.134 56.1668 162.174 56.7099C162.214 57.2531 162.379 57.7797 162.656 58.2487C162.788 58.4758 162.962 58.6394 163.131 58.8823L165.185 61.6015C165.244 61.6803 165.321 61.7441 165.41 61.7881C165.498 61.8321 165.595 61.855 165.694 61.855C165.793 61.855 165.89 61.8321 165.979 61.7881C166.067 61.7441 166.144 61.6803 166.204 61.6015L168.226 58.9246C168.415 58.7076 168.591 58.4802 168.754 58.2434C169.071 57.7041 169.239 57.0899 169.24 56.4641ZM165.707 58.0058C165.393 58.0121 165.084 57.9246 164.819 57.7544C164.554 57.5842 164.346 57.3391 164.222 57.0503C164.097 56.7615 164.061 56.442 164.118 56.1327C164.176 55.8234 164.324 55.5382 164.544 55.3135C164.765 55.0888 165.047 54.9347 165.355 54.871C165.663 54.8073 165.983 54.8367 166.274 54.9556C166.566 55.0745 166.815 55.2775 166.99 55.5386C167.166 55.7997 167.26 56.1072 167.26 56.4218C167.263 56.6282 167.226 56.8331 167.149 57.0248C167.073 57.2165 166.959 57.3911 166.815 57.5385C166.67 57.6858 166.498 57.803 166.308 57.8833C166.118 57.9635 165.914 58.0052 165.707 58.0058Z" fill="#493169"/>
<path d="M84.48 204.679H180.048V229.532C180.048 232.192 178.991 234.744 177.11 236.625C175.228 238.507 172.677 239.564 170.016 239.564H94.7654C92.0351 239.557 89.419 238.467 87.4909 236.534C85.5628 234.601 84.48 231.982 84.48 229.252V204.679Z" fill="#DAD5E1"/>
<path d="M109.412 216.828V222.673H112.58V224.347H107.437V216.828H109.412Z" fill="#493169"/>
<path d="M119.354 221.437C119.354 223.227 118.087 224.41 116.186 224.41C114.286 224.41 113.018 223.227 113.018 221.437C113.018 219.647 114.27 218.48 116.186 218.48C118.103 218.48 119.354 219.647 119.354 221.437ZM114.935 221.437C114.935 222.308 115.463 222.889 116.181 222.889C116.899 222.889 117.438 222.308 117.438 221.437C117.461 221.259 117.446 221.078 117.393 220.907C117.341 220.735 117.253 220.576 117.134 220.442C117.016 220.307 116.87 220.199 116.707 220.125C116.543 220.051 116.366 220.012 116.186 220.012C116.007 220.012 115.829 220.051 115.666 220.125C115.502 220.199 115.357 220.307 115.238 220.442C115.12 220.576 115.031 220.735 114.979 220.907C114.927 221.078 114.912 221.259 114.935 221.437Z" fill="#493169"/>
<path d="M122.939 220.054C122.253 220.054 121.778 220.624 121.778 221.458C121.778 222.292 122.253 222.863 122.939 222.863C123.172 222.877 123.404 222.822 123.605 222.706C123.807 222.59 123.97 222.416 124.075 222.208L125.479 223.016C125.126 223.562 124.608 223.982 124.001 224.214C123.393 224.445 122.727 224.477 122.1 224.305C121.473 224.132 120.917 223.764 120.514 223.254C120.11 222.744 119.88 222.119 119.856 221.469C119.832 221.069 119.893 220.669 120.035 220.295C120.178 219.921 120.398 219.581 120.682 219.298C120.965 219.016 121.306 218.797 121.68 218.656C122.055 218.515 122.455 218.455 122.855 218.48C123.372 218.453 123.886 218.566 124.343 218.808C124.801 219.05 125.184 219.411 125.453 219.853L124.08 220.656C123.956 220.467 123.787 220.313 123.587 220.207C123.388 220.102 123.165 220.049 122.939 220.054Z" fill="#493169"/>
<path d="M131.419 220.571V224.346H129.545V223.692C129.331 223.943 129.062 224.14 128.759 224.269C128.455 224.397 128.126 224.453 127.797 224.431C126.551 224.431 125.812 223.681 125.812 222.62C125.812 221.559 126.593 220.883 128.029 220.862H129.545V220.793C129.545 220.265 129.17 219.927 128.441 219.927C127.836 219.954 127.243 220.11 126.704 220.386L126.192 219.119C127.035 218.711 127.958 218.494 128.895 218.486C130.479 218.47 131.409 219.241 131.419 220.571ZM129.545 222.382V221.881H128.41C127.882 221.881 127.602 222.071 127.602 222.477C127.602 222.884 127.892 223.132 128.383 223.132C128.632 223.151 128.88 223.087 129.09 222.952C129.299 222.817 129.459 222.617 129.545 222.382Z" fill="#493169"/>
<path d="M136.483 224.046C135.997 224.311 135.451 224.444 134.899 224.432C134.645 224.458 134.388 224.429 134.146 224.346C133.905 224.264 133.684 224.13 133.499 223.954C133.314 223.777 133.17 223.563 133.076 223.326C132.982 223.088 132.941 222.833 132.956 222.578V220.086H132.153V218.824H132.956V217.214H134.851V218.824H136.356V220.086H134.851V222.288C134.851 222.716 135.047 222.906 135.379 222.9C135.628 222.879 135.872 222.813 136.097 222.705L136.483 224.046Z" fill="#493169"/>
<path d="M139.292 218.544V224.352H137.396V218.544H139.292ZM139.218 216.912C139.217 217.084 139.164 217.253 139.068 217.395C138.971 217.538 138.834 217.649 138.675 217.714C138.515 217.779 138.34 217.795 138.171 217.76C138.002 217.726 137.848 217.642 137.727 217.519C137.606 217.396 137.524 217.241 137.491 217.072C137.458 216.902 137.477 216.727 137.544 216.569C137.61 216.41 137.723 216.274 137.867 216.179C138.011 216.085 138.179 216.035 138.352 216.036C138.467 216.032 138.582 216.052 138.69 216.095C138.797 216.138 138.895 216.202 138.976 216.285C139.057 216.367 139.121 216.465 139.162 216.573C139.204 216.681 139.223 216.797 139.218 216.912Z" fill="#493169"/>
<path d="M146.684 220.704V224.363H144.783V221.232C144.797 221.095 144.782 220.957 144.739 220.827C144.695 220.697 144.624 220.578 144.531 220.478C144.437 220.378 144.323 220.299 144.196 220.247C144.069 220.195 143.932 220.17 143.795 220.176C143.5 220.176 143.216 220.291 143.004 220.497C142.792 220.703 142.668 220.984 142.66 221.279V224.347H140.754V218.539H142.66V219.484C142.858 219.156 143.141 218.887 143.48 218.708C143.818 218.528 144.199 218.444 144.582 218.465C145.844 218.47 146.684 219.326 146.684 220.704Z" fill="#493169"/>
<path d="M153.537 218.544V223.824C153.537 225.466 152.259 226.496 150.369 226.496C149.449 226.498 148.548 226.238 147.771 225.746L148.437 224.426C148.962 224.792 149.586 224.991 150.226 224.996C151.098 224.996 151.62 224.553 151.62 223.877V223.259C151.426 223.509 151.175 223.709 150.887 223.841C150.599 223.974 150.284 224.035 149.968 224.019C148.521 224.019 147.491 222.905 147.491 221.221C147.491 219.537 148.489 218.475 149.926 218.475C150.249 218.462 150.57 218.525 150.865 218.659C151.159 218.793 151.418 218.994 151.62 219.246V218.539L153.537 218.544ZM151.636 221.279C151.605 221.053 151.509 220.84 151.36 220.667C151.211 220.494 151.015 220.368 150.796 220.303C150.577 220.239 150.344 220.238 150.125 220.303C149.905 220.367 149.71 220.493 149.56 220.666C149.411 220.839 149.315 221.051 149.283 221.278C149.251 221.504 149.286 221.734 149.381 221.942C149.477 222.149 149.631 222.324 149.824 222.446C150.017 222.569 150.241 222.633 150.469 222.631C150.637 222.626 150.802 222.586 150.954 222.514C151.106 222.442 151.241 222.339 151.351 222.212C151.461 222.085 151.543 221.936 151.592 221.776C151.641 221.615 151.656 221.446 151.636 221.279Z" fill="#493169"/>
<path d="M94.9133 175.221L94.813 174.171L143.827 169.725L140.559 129.908L138.89 116.043L133.056 116.275L133.03 90.7995L165.211 92.1406L165.882 82.4623L157.893 66.1155L165.512 63.1006L165.898 64.0827L159.345 66.6804L166.954 82.2511L166.943 82.3884L166.199 93.2388L134.086 91.903L134.112 115.177L139.82 114.95L141.61 129.803L144.968 170.681L94.9133 175.221Z" fill="#DAD5E1"/>
<path d="M99.2217 165.723C99.2248 165.053 99.0732 164.392 98.7787 163.79C98.4843 163.188 98.055 162.662 97.5241 162.253C96.9933 161.844 96.3753 161.563 95.7182 161.432C95.061 161.301 94.3825 161.323 93.7354 161.497C93.0883 161.671 92.49 161.992 91.9871 162.434C91.4842 162.877 91.0902 163.43 90.8358 164.05C90.5815 164.67 90.4735 165.34 90.5205 166.009C90.5674 166.677 90.7679 167.326 91.1064 167.904C91.2753 168.184 91.4865 168.385 91.6977 168.68L94.2268 172.033C94.2996 172.13 94.394 172.209 94.5027 172.264C94.6113 172.318 94.7311 172.346 94.8525 172.346C94.974 172.346 95.0938 172.318 95.2024 172.264C95.311 172.209 95.4054 172.13 95.4782 172.033L97.9704 168.738C98.1947 168.47 98.4045 168.19 98.5987 167.899C98.9951 167.241 99.21 166.491 99.2217 165.723ZM94.8657 167.619C94.4866 167.619 94.1161 167.506 93.8009 167.296C93.4857 167.085 93.24 166.786 93.095 166.436C92.9499 166.086 92.912 165.7 92.9859 165.328C93.0599 164.957 93.2424 164.615 93.5104 164.347C93.7785 164.079 94.12 163.896 94.4918 163.822C94.8636 163.748 95.249 163.786 95.5992 163.932C95.9494 164.077 96.2487 164.322 96.4593 164.637C96.67 164.953 96.7824 165.323 96.7824 165.702C96.7824 166.211 96.5804 166.698 96.221 167.058C95.8616 167.417 95.374 167.619 94.8657 167.619Z" fill="#493169"/>
<path d="M95.8794 174.699C95.8794 174.901 95.8195 175.098 95.7073 175.265C95.5951 175.433 95.4356 175.564 95.2491 175.641C95.0626 175.718 94.8574 175.738 94.6596 175.698C94.4618 175.658 94.2802 175.56 94.1379 175.417C93.9956 175.274 93.899 175.092 93.8603 174.894C93.8215 174.696 93.8425 174.491 93.9204 174.305C93.9983 174.119 94.1298 173.96 94.298 173.849C94.4663 173.738 94.6639 173.679 94.8656 173.68C94.9992 173.68 95.1315 173.706 95.2548 173.757C95.3781 173.809 95.4901 173.884 95.5843 173.978C95.6785 174.073 95.7531 174.186 95.8037 174.309C95.8544 174.433 95.8801 174.565 95.8794 174.699Z" fill="#DAD5E1"/>
<path d="M165.808 64.4263C166.268 64.4263 166.642 64.0528 166.642 63.5921C166.642 63.1313 166.268 62.7578 165.808 62.7578C165.347 62.7578 164.973 63.1313 164.973 63.5921C164.973 64.0528 165.347 64.4263 165.808 64.4263Z" fill="#DAD5E1"/>
<path d="M143.706 67.3673H101.735C101.285 67.3673 100.853 67.5457 100.534 67.8634C100.216 68.1811 100.036 68.6122 100.035 69.0622V82.0616C100.036 82.5116 100.216 82.9426 100.534 83.2603C100.853 83.578 101.285 83.7564 101.735 83.7564H132.887L133.172 87.6742L139.017 83.7564H143.727C144.176 83.7564 144.607 83.5779 144.925 83.26C145.243 82.9422 145.422 82.5111 145.422 82.0616V69.0622C145.422 68.8378 145.377 68.6157 145.291 68.4087C145.204 68.2017 145.077 68.0139 144.918 67.8562C144.758 67.6985 144.569 67.5741 144.361 67.4902C144.153 67.4063 143.93 67.3645 143.706 67.3673Z" fill="white"/>
<path d="M143.706 67.3674C143.842 67.3574 143.98 67.3699 144.112 67.4044C144.514 67.4916 144.87 67.7249 145.11 68.0591C145.287 68.3049 145.396 68.5924 145.427 68.8933C145.427 69.226 145.427 69.5745 145.427 69.9493C145.427 70.7255 145.427 71.6125 145.427 72.5893C145.427 74.5905 145.427 77.0298 145.453 79.8441C145.453 80.5516 145.453 81.2802 145.453 82.0353C145.451 82.447 145.308 82.8456 145.048 83.1646C144.787 83.4836 144.426 83.7037 144.023 83.7882C143.614 83.8284 143.203 83.8425 142.792 83.8305H138.959H139.017L133.177 87.7535L133.014 87.8644V87.6637C132.924 86.4441 132.824 85.1135 132.723 83.7513L132.845 83.8621H104.132H101.703C101.413 83.8572 101.128 83.7868 100.869 83.6562C100.613 83.523 100.392 83.3311 100.224 83.0962C100.056 82.8613 99.946 82.5901 99.9029 82.3045C99.8553 81.7343 99.9029 81.2485 99.8765 80.7205C99.8765 78.6085 99.8765 76.5317 99.8765 74.4901V69.2101C99.8647 68.9489 99.9005 68.6877 99.9821 68.4393C100.069 68.191 100.208 67.9643 100.39 67.7748C100.572 67.5853 100.793 67.4373 101.038 67.341C101.278 67.2474 101.535 67.2043 101.793 67.2143H105.368L125.3 67.2407L138.737 67.2882L142.391 67.3146H143.341H143.669C143.669 67.3146 143.558 67.3146 143.341 67.3146H142.391H138.737L125.3 67.3569L105.368 67.3885H101.793C101.566 67.3824 101.34 67.42 101.128 67.4994C100.918 67.5825 100.729 67.7092 100.572 67.8713C100.416 68.0334 100.295 68.227 100.22 68.4393C100.146 68.6603 100.116 68.8932 100.13 69.1257V69.8649C100.13 70.3612 100.13 70.8628 100.13 71.3591V80.7311C100.13 81.2591 100.13 81.7871 100.13 82.3151C100.169 82.5577 100.263 82.788 100.406 82.9877C100.549 83.1875 100.736 83.3513 100.954 83.4661C101.175 83.5769 101.419 83.6365 101.666 83.6404H104.09H132.803H132.913V83.7513C133.014 85.1135 133.109 86.4493 133.193 87.669L133.014 87.5793L138.864 83.6721H138.89H142.755C143.153 83.6874 143.552 83.6786 143.949 83.6457C144.312 83.5694 144.639 83.3704 144.874 83.082C145.108 82.7936 145.236 82.4334 145.237 82.0617C145.237 81.3066 145.237 80.578 145.237 79.8705C145.237 77.0562 145.237 74.5905 145.237 72.6157C145.237 71.6231 145.237 70.7361 145.237 69.9757C145.237 69.5956 145.237 69.2313 145.237 68.9197C145.211 68.6309 145.109 68.354 144.941 68.1172C144.712 67.7915 144.375 67.5562 143.991 67.4519C143.897 67.4202 143.802 67.3921 143.706 67.3674Z" fill="#263238"/>
<path d="M133.584 93.2972C134.876 93.2972 135.923 92.25 135.923 90.9582C135.923 89.6664 134.876 88.6191 133.584 88.6191C132.292 88.6191 131.245 89.6664 131.245 90.9582C131.245 92.25 132.292 93.2972 133.584 93.2972Z" fill="#FFBD00"/>
<path d="M137.632 77.5227C137.435 77.5227 137.24 77.5227 137.031 77.5227C137.031 77.3948 137.031 77.2712 137.031 77.1236C136.513 77.5213 135.955 77.697 135.312 77.5396C134.884 77.4342 134.533 77.2192 134.266 76.8847C133.721 76.2044 133.756 75.2529 134.347 74.6022C134.512 74.4209 134.71 74.2804 134.936 74.1736C135.16 74.0682 135.396 74.0105 135.645 73.9923C135.898 73.974 136.148 73.9951 136.378 74.0949C136.6 74.1918 136.81 74.3113 137.027 74.4223C137.027 74.3155 137.027 74.1961 137.027 74.0639C137.235 74.0639 137.432 74.0639 137.63 74.0639C137.632 75.2164 137.632 76.3689 137.632 77.5227ZM137.031 75.7969C137.034 75.156 136.485 74.6247 135.813 74.6205C135.131 74.6163 134.575 75.1377 134.572 75.7828C134.569 76.4307 135.117 76.9606 135.794 76.9634C136.47 76.9676 137.028 76.442 137.031 75.7969Z" fill="#5E3F86"/>
<path d="M108 74.0642C108.155 74.0642 108.308 74.0642 108.472 74.0642C108.472 73.6159 108.472 73.176 108.472 72.7305C108.704 72.7305 108.928 72.7305 109.16 72.7305C109.16 73.1746 109.16 73.6145 109.16 74.0614C109.54 74.0614 109.909 74.0614 110.284 74.0614C110.284 74.2694 110.284 74.4704 110.284 74.6812C109.91 74.6812 109.543 74.6812 109.167 74.6812C109.164 74.7121 109.161 74.7346 109.161 74.7585C109.161 75.2842 109.16 75.8098 109.161 76.3354C109.161 76.5336 109.242 76.7008 109.419 76.8077C109.505 76.8597 109.616 76.8892 109.718 76.8976C109.894 76.9117 110.073 76.9032 110.25 76.9004C110.304 76.899 110.327 76.9145 110.341 76.9651C110.388 77.1464 110.443 77.3277 110.497 77.516C110.467 77.5188 110.446 77.523 110.427 77.523C110.123 77.5188 109.818 77.5385 109.517 77.5048C108.911 77.4373 108.476 76.9538 108.475 76.3776C108.474 75.8491 108.475 75.3207 108.475 74.7923C108.475 74.7599 108.475 74.7262 108.475 74.6742C108.314 74.6742 108.156 74.6742 108 74.6742C108 74.4704 108 74.268 108 74.0642Z" fill="#5D3F86"/>
<path d="M114.72 71C114.79 71.0239 114.863 71.0422 114.929 71.0731C115.314 71.253 115.407 71.7336 115.106 72.0246C114.954 72.1721 114.789 72.3042 114.617 72.4532C114.46 72.2972 114.262 72.1356 114.108 71.9431C113.858 71.6296 114.037 71.1701 114.436 71.0394C114.467 71.0295 114.497 71.0141 114.528 71.0014C114.594 71 114.656 71 114.72 71Z" fill="#FBB946"/>
<path d="M119.97 76.6059C120.139 75.7724 120.304 74.9559 120.465 74.1379C120.477 74.0789 120.494 74.0592 120.56 74.0606C120.761 74.0648 120.964 74.062 121.178 74.062C120.947 75.2201 120.719 76.3669 120.49 77.5208C120.258 77.5208 120.031 77.5236 119.804 77.518C119.774 77.5166 119.735 77.4744 119.716 77.4421C119.357 76.849 119.001 76.2545 118.645 75.66C118.626 75.6291 118.606 75.5982 118.58 75.5546C118.556 75.5911 118.536 75.6207 118.519 75.6488C118.158 76.2475 117.796 76.8462 117.439 77.4477C117.405 77.5054 117.368 77.525 117.299 77.5236C117.091 77.5194 116.882 77.5222 116.666 77.5222C116.437 76.3698 116.208 75.2229 115.978 74.069C116.211 74.069 116.435 74.069 116.674 74.069C116.842 74.9053 117.01 75.7443 117.184 76.6059C117.211 76.5665 117.228 76.544 117.242 76.5215C117.546 76.0156 117.851 75.5096 118.152 75.0023C118.188 74.9418 118.227 74.9207 118.3 74.9222C118.483 74.9278 118.666 74.9278 118.851 74.9222C118.932 74.9193 118.973 74.9489 119.011 75.0135C119.317 75.5293 119.626 76.0423 119.936 76.5553C119.942 76.5679 119.951 76.5792 119.97 76.6059Z" fill="#5E3F86"/>
<path d="M124.917 74.4575C124.917 74.3169 124.917 74.1975 124.917 74.071C125.147 74.071 125.372 74.071 125.605 74.071C125.605 75.2192 125.605 76.3661 125.605 77.5185C125.377 77.5185 125.153 77.5185 124.923 77.5185C124.923 77.3934 124.923 77.2698 124.923 77.125C124.379 77.5354 123.794 77.7068 123.124 77.5241C122.705 77.4103 122.366 77.1882 122.113 76.8523C121.575 76.1412 121.636 75.1953 122.266 74.553C122.613 74.2003 123.051 74.0176 123.559 73.9909C124.069 73.9642 124.506 74.1469 124.917 74.4575ZM122.439 75.7884C122.437 76.4349 122.988 76.969 123.667 76.962C124.363 76.9549 124.914 76.4602 124.918 75.7997C124.923 75.1321 124.37 74.6317 123.675 74.6219C122.993 74.6135 122.44 75.1433 122.439 75.7884Z" fill="#5E4087"/>
<path d="M130.246 77.5184C130.012 77.5184 129.792 77.5184 129.566 77.5184C129.566 76.3674 129.566 75.2205 129.566 74.0681C129.791 74.0681 130.012 74.0681 130.243 74.0681C130.243 74.1707 130.243 74.2705 130.243 74.3927C130.297 74.3576 130.335 74.3309 130.376 74.3056C130.684 74.1102 131.014 73.9824 131.394 73.995C132.27 74.0217 132.98 74.6401 133.078 75.4637C133.089 75.5466 133.093 75.6295 133.093 75.7139C133.095 76.2817 133.093 76.848 133.093 77.4158C133.093 77.4482 133.093 77.4805 133.093 77.5184C132.864 77.5184 132.641 77.5184 132.407 77.5184C132.407 77.4847 132.407 77.4538 132.407 77.4215C132.407 76.8396 132.408 76.2578 132.407 75.6759C132.405 75.2472 132.14 74.8692 131.735 74.709C131.043 74.4363 130.255 74.924 130.248 75.6337C130.242 76.2282 130.246 76.8213 130.246 77.4158C130.246 77.4468 130.246 77.4791 130.246 77.5184Z" fill="#5D3F86"/>
<path d="M127.459 77.52C127.225 77.52 127.004 77.52 126.778 77.52C126.778 76.3704 126.778 75.2235 126.778 74.0697C127 74.0697 127.223 74.0697 127.456 74.0697C127.456 74.1765 127.456 74.2847 127.456 74.4042C127.858 74.1217 128.306 74.0163 128.796 73.9854C128.738 74.2116 128.683 74.421 128.627 74.6347C128.398 74.6403 128.185 74.6909 127.993 74.8047C127.646 75.0113 127.46 75.3065 127.459 75.6958C127.456 76.2692 127.459 76.8412 127.459 77.4146C127.459 77.447 127.459 77.4793 127.459 77.52Z" fill="#5D3E86"/>
<path d="M111.325 74.0649C111.553 74.0649 111.773 74.0649 112.004 74.0649C112.004 74.1759 112.004 74.2842 112.004 74.4008C112.406 74.1183 112.853 74.0143 113.343 73.9834C113.286 74.197 113.237 74.3966 113.18 74.5948C113.174 74.6144 113.125 74.6327 113.095 74.6355C112.686 74.6735 112.361 74.8435 112.147 75.1808C112.05 75.3354 112.005 75.5041 112.005 75.6854C112.007 76.2616 112.005 76.8378 112.005 77.4127C112.005 77.445 112.005 77.4773 112.005 77.5153C111.776 77.5153 111.554 77.5153 111.325 77.5153C111.325 76.3684 111.325 75.2216 111.325 74.0649Z" fill="#5D3E86"/>
<path d="M114.971 77.5188C114.742 77.5188 114.519 77.5188 114.291 77.5188C114.291 76.3692 114.291 75.2238 114.291 74.0713C114.516 74.0713 114.74 74.0713 114.971 74.0713C114.971 75.2209 114.971 76.3678 114.971 77.5188Z" fill="#5E3F86"/>
<path d="M114.861 72.7669C115.037 72.587 115.187 72.4029 115.369 72.2539C115.569 72.0909 115.901 72.105 116.112 72.2525C116.349 72.417 116.443 72.677 116.355 72.9328C116.27 73.1815 116.026 73.3474 115.746 73.3516C115.558 73.3544 115.4 73.2926 115.271 73.1661C115.129 73.0255 114.986 72.8878 114.861 72.7669Z" fill="#FBB946"/>
<path d="M114.431 72.7522C114.246 72.918 114.083 73.0797 113.902 73.2244C113.69 73.3945 113.38 73.3945 113.152 73.2441C112.918 73.0881 112.82 72.8225 112.903 72.5653C112.982 72.3193 113.232 72.1479 113.509 72.1437C113.688 72.1408 113.837 72.1999 113.962 72.3165C114.115 72.4571 114.269 72.599 114.431 72.7522Z" fill="#FBB946"/>
<path d="M64.6484 171.975C64.6484 171.975 69.9284 200.65 68.3919 206.633C67.13 211.617 38.0161 234.131 38.0161 234.131L33.9822 230.023C33.9822 230.023 42.2031 220.899 46.2951 212.472C49.0407 206.812 55.9417 202.398 55.9417 202.398L47.6257 176.785L64.6484 171.975Z" fill="#FFD4C9"/>
<path d="M56.6862 205.952L55.0388 200.144L56.6862 205.952Z" fill="#CC725A"/>
<path d="M55.0388 200.154C55.1913 201.149 55.428 202.13 55.7463 203.085C55.9815 204.064 56.2958 205.023 56.6862 205.952C56.5276 204.958 56.291 203.978 55.9787 203.021C55.7424 202.042 55.4281 201.083 55.0388 200.154Z" fill="#844031"/>
<path d="M40.3128 235.176L39.9115 235.557C39.9115 235.557 43.5758 244.992 42.3456 246.259L29.6736 232.616L34.3886 228.587C34.8436 230.047 35.6084 231.392 36.6309 232.529C37.6533 233.666 38.9092 234.569 40.3128 235.176Z" fill="#FFBD00"/>
<g opacity="0.6">
<path d="M34.2301 231.316C34.0672 231.223 33.876 231.193 33.6923 231.231C33.5086 231.269 33.345 231.372 33.2322 231.522C33.1341 231.681 33.0996 231.871 33.1359 232.054C33.1721 232.237 33.2763 232.4 33.4276 232.509C33.6 232.609 33.8031 232.642 33.998 232.601C34.1929 232.56 34.3658 232.448 34.4836 232.288C34.5716 232.112 34.5878 231.909 34.5286 231.722C34.4695 231.535 34.3397 231.378 34.1668 231.285" fill="white"/>
</g>
<g opacity="0.6">
<path d="M29.6843 232.616L30.8195 231.649L42.5358 245.076C42.5358 245.076 42.8368 245.932 42.3458 246.259L29.6843 232.616Z" fill="white"/>
</g>
<path d="M39.9167 235.641C39.848 235.699 39.5101 235.398 38.9874 235.266C38.4647 235.134 38.0159 235.224 38.0159 235.139C38.0159 235.055 38.4594 234.791 39.0719 234.96C39.6843 235.129 39.9906 235.599 39.9167 235.641Z" fill="#263238"/>
<path d="M40.656 237.6C40.6085 237.674 40.2283 237.494 39.732 237.526C39.2357 237.557 38.8819 237.774 38.8238 237.705C38.7657 237.637 39.1037 237.241 39.7161 237.209C40.3286 237.177 40.7141 237.563 40.656 237.6Z" fill="#263238"/>
<path d="M39.6949 240.023C39.621 239.975 39.8692 239.574 40.3919 239.405C40.9146 239.236 41.3528 239.405 41.3212 239.495C41.2895 239.585 40.9199 239.564 40.4922 239.706C40.0645 239.849 39.7636 240.081 39.6949 240.023Z" fill="#263238"/>
<path d="M47.3194 175.94L46.7545 204.019L44.0722 243.239H37.2082C37.2082 243.239 34.1247 224.896 34.2673 215.308C34.4098 205.719 34.3201 202.192 34.2673 201.015C34.2145 199.837 30.8933 186.954 30.1647 177.339C29.4361 167.724 34.2673 165.195 34.2673 165.195L47.3194 175.94Z" fill="#FFD4C9"/>
<path d="M47.3193 175.94L47.1081 175.755C46.955 175.628 46.7438 175.444 46.4587 175.227L43.9296 173.115L34.32 165.142L34.2777 165.105L34.2408 165.132C33.3948 165.678 32.6748 166.398 32.1288 167.244C31.5346 168.146 31.0707 169.127 30.7507 170.158C30.1101 172.435 29.8883 174.809 30.096 177.165C30.5743 182.572 31.3943 187.944 32.5512 193.248C32.8574 194.679 33.1636 196.136 33.4804 197.614C33.6353 198.354 33.7937 199.098 33.9556 199.848C34.0296 200.217 34.114 200.608 34.1563 200.967C34.1985 201.326 34.188 201.738 34.1985 202.129C34.2619 205.239 34.2408 208.465 34.1985 211.717C34.1985 213.354 34.1352 215.007 34.1616 216.686C34.1616 217.525 34.2144 218.37 34.2355 219.215L34.3939 221.76C34.6473 225.171 35.0275 228.624 35.4499 232.13C35.9304 235.921 36.5059 239.649 37.0708 243.281V243.381H44.183V243.271C44.8377 233.656 45.4449 224.643 45.994 216.533C46.2686 212.483 46.522 208.655 46.7702 205.091C46.8441 204.199 46.8547 203.322 46.8652 202.451C46.8758 201.58 46.9022 200.745 46.9128 199.922C46.9444 198.269 46.9761 196.685 47.0025 195.17C47.1081 189.156 47.1926 184.351 47.2507 181.035C47.2507 179.388 47.2929 178.115 47.3088 177.244C47.3088 176.822 47.3088 176.494 47.3088 176.267C47.3088 176.04 47.3088 175.94 47.3088 175.94C47.3088 175.94 47.3088 176.056 47.3088 176.278C47.3088 176.5 47.3088 176.832 47.2771 177.265C47.2771 178.137 47.2243 179.414 47.182 181.062C47.1081 184.372 46.9972 189.177 46.86 195.186C46.8283 196.689 46.7931 198.264 46.7544 199.911C46.7544 200.735 46.7227 201.58 46.7016 202.435C46.6804 203.29 46.7016 204.167 46.596 205.075C46.3478 208.639 46.068 212.467 45.7987 216.517C45.239 224.627 44.6212 233.635 43.956 243.244L44.0774 243.133H37.2134L37.3348 243.234C36.7382 239.606 36.1944 235.884 35.7139 232.093C35.2704 228.597 34.8902 225.139 34.6579 221.739C34.6051 220.889 34.5523 220.039 34.4995 219.199C34.4467 218.36 34.4203 217.515 34.4203 216.681C34.4203 215.012 34.452 213.349 34.4572 211.712C34.4889 208.433 34.51 205.233 34.4572 202.118C34.4572 201.728 34.4572 201.342 34.4097 200.946C34.3622 200.55 34.2777 200.175 34.2038 199.795C34.0401 199.045 33.8817 198.301 33.7233 197.562L32.7888 193.2C31.6212 187.913 30.7853 182.557 30.286 177.165C30.0821 174.836 30.3004 172.489 30.9302 170.238C31.2363 169.227 31.6824 168.263 32.2555 167.376C32.7814 166.531 33.4839 165.811 34.3147 165.264H34.2302L43.8609 173.147L46.427 175.259L47.087 175.787L47.3193 175.94Z" fill="#844031"/>
<path d="M44.9381 241.069V241.597C44.9381 241.597 53.8772 245.145 53.9775 246.834H36.2578L36.506 240.937C37.8199 241.562 39.2528 241.897 40.7077 241.92C42.1626 241.943 43.6053 241.652 44.9381 241.069Z" fill="#FFBD00"/>
<g opacity="0.6">
<path d="M38.3011 242.806C38.1255 242.853 37.974 242.965 37.8763 243.118C37.7786 243.271 37.7418 243.456 37.7731 243.635C37.8192 243.806 37.9291 243.954 38.0802 244.047C38.2313 244.14 38.4123 244.172 38.5862 244.137C38.7675 244.082 38.9221 243.962 39.0197 243.8C39.1174 243.638 39.151 243.446 39.1142 243.26C39.0498 243.085 38.9191 242.942 38.7502 242.862C38.5814 242.782 38.3879 242.771 38.2113 242.832" fill="white"/>
</g>
<g opacity="0.6">
<path d="M36.2632 246.819L36.3213 245.398L53.2859 245.926C53.2859 245.926 54.0726 246.27 53.9829 246.824L36.2632 246.819Z" fill="white"/>
</g>
<path d="M45.0015 241.644C45.0015 241.729 44.5685 241.766 44.1408 242.046C43.7131 242.326 43.4914 242.69 43.4069 242.653C43.3224 242.616 43.4597 242.125 43.9824 241.792C44.5051 241.46 45.0226 241.565 45.0015 241.644Z" fill="#263238"/>
<path d="M46.86 242.41C46.86 242.494 46.5062 242.642 46.2105 243.006C45.9148 243.371 45.8356 243.762 45.7459 243.756C45.6561 243.751 45.6086 243.265 45.9782 242.816C46.3478 242.368 46.86 242.352 46.86 242.41Z" fill="#263238"/>
<path d="M47.9159 244.637C47.8367 244.637 47.7152 244.226 47.9159 243.75C48.1165 243.275 48.5442 243.085 48.5812 243.159C48.6181 243.233 48.37 243.486 48.1904 243.877C48.0109 244.268 48.0004 244.627 47.9159 244.637Z" fill="#263238"/>
<path d="M55.2762 84.5586C54.2442 85.2048 53.3838 86.0913 52.7687 87.1422C52.1536 88.1931 51.802 89.3773 51.7439 90.5936C51.6964 91.7711 51.8654 93.1386 51.0047 93.9464C50.1441 94.7543 48.6815 94.5431 47.8367 95.3668C46.8652 96.3383 47.3932 98.0068 46.9338 99.3056C46.7007 99.9077 46.2606 100.407 45.6926 100.714C45.1245 101.02 44.4657 101.115 43.8345 100.979C45.1915 102.374 46.9072 103.366 48.7924 103.846L50.4714 102.141C50.185 102.466 50.0155 102.877 49.9896 103.31C49.9638 103.742 50.0832 104.171 50.3289 104.528C50.8401 105.231 51.547 105.769 52.3617 106.075C54.2586 106.909 56.3229 107.294 58.3931 107.198C60.4633 107.101 62.4832 106.527 64.2945 105.52" fill="#263238"/>
<path d="M76.0319 97.3944C75.7577 96.4884 75.5321 95.5684 75.3561 94.6383C75.1607 92.6108 76.3804 90.4988 75.6307 88.6085C75.1027 87.2621 73.7087 86.4965 72.3834 85.8893C71.0582 85.2821 69.6167 84.7805 68.6874 83.6506C68.0222 82.8216 67.7107 81.7551 67.0454 80.9261C66.1003 79.7434 64.5638 79.2048 63.0748 78.9356C61.5453 78.6099 59.9576 78.6845 58.4654 79.152C57.7257 79.3944 57.0535 79.8074 56.5031 80.3578C55.9527 80.9082 55.5397 81.5804 55.2974 82.32C55.0915 83.0487 55.0967 83.8354 54.7694 84.5271C54.442 85.2188 53.7134 85.826 53.2646 86.5176C52.7907 87.2633 52.5772 88.1449 52.6574 89.0247C52.7376 89.9045 53.1071 90.733 53.7081 91.3805L62.7211 106.275C64.833 107.368 70.3506 106.972 72.262 105.531C74.1734 104.089 76.5019 99.7388 76.0319 97.3944Z" fill="#263238"/>
<path d="M54.1886 89.6698C54.9806 86.618 57.7632 83.2176 60.7834 84.1416L69.9336 88.4396C70.3755 88.5736 70.7507 88.8692 70.9846 89.2674C71.2184 89.6656 71.2937 90.1373 71.1955 90.5885L66.9187 113.293C66.9454 113.287 66.9733 113.289 66.9985 113.3C67.0237 113.31 67.0451 113.328 67.0595 113.351C67.074 113.375 67.081 113.402 67.0794 113.429C67.0778 113.456 67.0678 113.482 67.0507 113.504C65.7149 115.035 59.4845 121.667 54.1781 118.784C52.9954 118.15 54.817 114.391 54.8381 112.923L55.4294 109.227C55.7726 107.353 55.9205 106.587 55.9152 106.587C55.9099 106.587 52.0925 105.161 52.272 99.8496C52.3618 97.2413 53.328 93.0648 54.1886 89.6698Z" fill="#FFD4C9"/>
<path d="M55.0228 94.4266C54.9886 94.6009 55.025 94.7817 55.124 94.9292C55.223 95.0767 55.3765 95.1789 55.5508 95.2133C55.6336 95.2363 55.7203 95.2425 55.8056 95.2315C55.8909 95.2205 55.9731 95.1925 56.0474 95.1492C56.1217 95.1059 56.1866 95.0481 56.2382 94.9793C56.2899 94.9105 56.3272 94.8321 56.348 94.7487C56.3822 94.5743 56.3458 94.3936 56.2468 94.2461C56.1478 94.0986 55.9943 93.9964 55.82 93.9619C55.7372 93.9389 55.6505 93.9328 55.5652 93.9438C55.4799 93.9548 55.3977 93.9828 55.3234 94.0261C55.2491 94.0694 55.1842 94.1271 55.1326 94.1959C55.0809 94.2647 55.0436 94.3431 55.0228 94.4266Z" fill="#263238"/>
<path d="M61.4328 96.0958C61.3985 96.2708 61.4348 96.4522 61.5337 96.6005C61.6326 96.7489 61.7861 96.8521 61.9608 96.8878C62.0436 96.9108 62.1303 96.917 62.2156 96.906C62.3009 96.8949 62.3831 96.867 62.4574 96.8237C62.5317 96.7804 62.5966 96.7226 62.6482 96.6538C62.6999 96.585 62.7372 96.5066 62.758 96.4232C62.7922 96.2488 62.7558 96.0681 62.6568 95.9206C62.5578 95.7731 62.4043 95.6709 62.23 95.6364C62.1475 95.6126 62.061 95.6056 61.9758 95.616C61.8905 95.6263 61.8082 95.6538 61.7338 95.6966C61.6593 95.7395 61.5943 95.797 61.5426 95.8656C61.4909 95.9341 61.4535 96.0124 61.4328 96.0958Z" fill="#263238"/>
<path d="M54.384 92.0666C54.4421 92.1986 55.1074 91.8765 55.873 92.0666C56.6386 92.2567 57.0716 92.8586 57.1877 92.7688C57.3039 92.6791 57.1877 92.5154 57.0188 92.2408C56.7731 91.8966 56.4139 91.6501 56.0043 91.5448C55.5948 91.4395 55.1612 91.4822 54.78 91.6653C54.4949 91.8343 54.384 92.0085 54.384 92.0666Z" fill="#263238"/>
<path d="M61.2479 93.6772C61.3271 93.7986 61.9924 93.429 62.8319 93.561C63.6714 93.693 64.2047 94.2316 64.3103 94.1365C64.4159 94.0415 64.3103 93.8831 64.0621 93.6349C63.753 93.3149 63.347 93.1057 62.9069 93.0399C62.4668 92.974 62.0173 93.0551 61.6281 93.2706C61.306 93.4554 61.1845 93.6191 61.2479 93.6772Z" fill="#263238"/>
<path d="M58.0376 98.2923C57.6849 98.1053 57.3108 97.9617 56.9236 97.8646C56.744 97.8065 56.5804 97.7379 56.5751 97.6111C56.5912 97.4161 56.6689 97.2312 56.7968 97.0831L57.6047 95.8054C58.7293 93.9785 59.5847 92.4684 59.5108 92.4209C58.7029 93.4362 57.9755 94.5131 57.3354 95.6417L56.554 96.9353C56.3956 97.1323 56.3132 97.3796 56.3216 97.6323C56.3355 97.7014 56.3651 97.7664 56.4081 97.8223C56.4512 97.8781 56.5065 97.9233 56.5698 97.9543C56.6633 98.0011 56.7628 98.0348 56.8655 98.0547C57.2439 98.1855 57.6381 98.2654 58.0376 98.2923Z" fill="#263238"/>
<path d="M55.9152 106.619C58.3375 107.117 60.8505 106.934 63.1752 106.091C63.1752 106.091 60.7412 109.375 55.6724 107.891L55.9152 106.619Z" fill="#844031"/>
<path d="M59.986 100.641C59.9224 100.457 59.8134 100.292 59.6692 100.161C59.4868 100.047 59.2701 99.9998 59.0567 100.029C58.7429 100.038 58.4406 100.149 58.1961 100.346C58.0749 100.445 57.9825 100.574 57.9286 100.721C57.8747 100.868 57.8613 101.026 57.8899 101.18C57.9374 101.492 58.3651 101.708 58.666 101.798C58.9711 101.876 59.2938 101.846 59.5795 101.713C59.7037 101.675 59.8166 101.606 59.9086 101.514C60.0006 101.422 60.0688 101.309 60.1075 101.185C60.1194 100.996 60.0773 100.808 59.986 100.641Z" fill="#844031"/>
<path d="M59.9545 99.6123C59.8436 99.6123 59.6905 100.357 58.8985 100.779C58.1065 101.202 57.3145 100.953 57.3145 101.059C57.3145 101.165 57.4676 101.244 57.8108 101.323C58.2635 101.415 58.7342 101.346 59.1413 101.128C59.5295 100.918 59.8211 100.566 59.9545 100.146C60.0601 99.8288 60.0073 99.6176 59.9545 99.6123Z" fill="#263238"/>
<path d="M61.4804 91.7393C61.5121 91.9452 62.2407 91.9927 63.0644 92.2673C63.8881 92.5418 64.5111 92.885 64.6484 92.7319C64.7118 92.658 64.6484 92.4573 64.395 92.2039C64.0791 91.8999 63.6954 91.6755 63.2756 91.5492C62.8576 91.4178 62.4148 91.3853 61.982 91.4541C61.6494 91.5175 61.4699 91.6389 61.4804 91.7393Z" fill="#263238"/>
<path d="M55.4665 89.2636C55.5774 89.4536 56.1687 89.3955 56.8446 89.517C57.5204 89.6384 58.0642 89.8655 58.2279 89.7229C58.3018 89.6543 58.2279 89.4748 58.0273 89.2741C57.727 89.0185 57.3612 88.8521 56.9713 88.7936C56.5832 88.7195 56.1819 88.7579 55.815 88.9045C55.5246 89.0207 55.4401 89.1738 55.4665 89.2636Z" fill="#263238"/>
<path d="M71.9504 89.4265C71.4743 88.671 70.775 88.0824 69.9493 87.7422C66.5595 85.9604 62.968 84.5919 59.252 83.666C58.6924 84.3841 59.0039 85.4876 59.648 86.1318C60.3501 86.7131 61.1395 87.18 61.9871 87.5151C62.8002 87.9323 63.6133 88.5183 63.8615 89.3948C64.1096 90.2713 63.6978 91.3431 63.9196 92.283C64.2997 93.9092 66.417 94.659 66.7919 96.2852C67.0717 97.5102 66.2639 98.6929 65.9312 99.9126C65.77 100.533 65.7432 101.18 65.8526 101.812C65.962 102.443 66.205 103.044 66.5655 103.574C66.926 104.104 67.3955 104.551 67.9426 104.885C68.4898 105.218 69.102 105.431 69.7381 105.509C70.509 101.067 71.2816 96.6284 72.056 92.1932C72.2197 91.2639 72.3676 90.2871 71.9504 89.4265Z" fill="#263238"/>
<path d="M79.6541 101.756C79.0205 101.043 78.2021 100.393 78.0226 99.4536C77.7639 98.0913 79.0047 96.6605 78.4609 95.3827C77.9645 94.2158 76.1271 94.0627 75.673 92.8747C75.3245 91.9507 75.9317 91.2379 75.8473 90.4512C75.7381 90.0232 75.4976 89.6402 75.1595 89.3561C74.8214 89.072 74.4027 88.901 73.9623 88.8672L66.8396 97.0089C65.9314 99.9129 65.1764 101.428 65.6146 103.234C65.9272 104.207 66.1326 105.211 66.2271 106.228C66.2704 106.74 66.1768 107.254 65.956 107.718C65.7352 108.182 65.3951 108.579 64.9705 108.868C68.582 109.575 72.2252 108.06 75.5991 106.576L79.1684 104.992C79.5546 104.86 79.9013 104.633 80.1769 104.332C80.7841 103.583 80.2877 102.468 79.6541 101.756Z" fill="#263238"/>
<path d="M75.7945 105.684C75.6621 105.708 75.5277 105.718 75.3932 105.715C75.0088 105.707 74.6286 105.634 74.2686 105.499C73.8237 105.332 73.4171 105.077 73.0734 104.749C72.7296 104.421 72.4558 104.027 72.2683 103.591C72.0809 103.154 71.9837 102.684 71.9827 102.209C71.9816 101.734 72.0767 101.263 72.2622 100.826C72.4825 100.365 72.763 99.9354 73.0964 99.5483C73.4469 99.1493 73.7369 98.701 73.957 98.2177C74.0767 97.9708 74.1388 97.7001 74.1388 97.4257C74.1388 97.1514 74.0767 96.8806 73.957 96.6337C73.6772 96.1532 73.07 95.9684 72.5262 95.6728C72.2165 95.5362 71.9628 95.2978 71.8072 94.9972C71.6516 94.6966 71.6035 94.3518 71.6708 94.0201C71.8262 93.3847 72.0383 92.7644 72.3044 92.1668C72.4122 91.8697 72.4519 91.5521 72.4206 91.2376C72.3747 90.9252 72.2172 90.64 71.977 90.435C71.4455 90.0539 70.8224 89.8207 70.1713 89.7592C69.5108 89.6585 68.8862 89.3934 68.355 88.9883C67.8453 88.5855 67.4563 88.0503 67.2303 87.4412C67.0447 86.8593 66.952 86.2516 66.9558 85.6408C66.9574 85.075 66.9008 84.5106 66.7868 83.9564C66.653 83.4467 66.4118 82.9714 66.0793 82.5625C65.4655 81.8277 64.6203 81.3231 63.6822 81.1316C62.9069 80.9808 62.1047 81.0541 61.3695 81.3428C60.809 81.5518 60.2905 81.8594 59.8383 82.251C59.4566 82.5903 59.1179 82.9751 58.8298 83.3968C58.8298 83.3968 58.8298 83.3598 58.8721 83.3017C58.9143 83.2436 58.9566 83.1592 59.0305 83.0483C59.248 82.7331 59.5013 82.4443 59.7855 82.1876C60.2367 81.7762 60.7592 81.4506 61.3273 81.2267C62.0835 80.9206 62.9114 80.8363 63.7138 80.9838C64.6916 81.1719 65.5751 81.6901 66.2166 82.4516C66.5665 82.8799 66.8236 83.3761 66.9716 83.9089C67.0927 84.4746 67.1529 85.0517 67.1511 85.6302C67.1511 86.2214 67.2419 86.809 67.4204 87.3726C67.6371 87.9419 68.0016 88.4431 68.4764 88.8246C68.9835 89.2079 69.5792 89.4567 70.2082 89.548C70.8929 89.6261 71.5439 89.8869 72.0932 90.303C72.3758 90.5387 72.5634 90.8688 72.6212 91.2323C72.659 91.5802 72.6175 91.9323 72.4998 92.2619C72.2343 92.8465 72.024 93.4545 71.8714 94.0782C71.8204 94.3702 71.861 94.6708 71.9876 94.9388C72.1339 95.1925 72.3527 95.3966 72.6159 95.5249C72.8746 95.6675 73.1439 95.7836 73.429 95.9315C73.7094 96.0765 73.9462 96.2934 74.1154 96.5598C74.2456 96.8309 74.3132 97.1277 74.3132 97.4284C74.3132 97.729 74.2456 98.0259 74.1154 98.2969C73.8871 98.7971 73.5845 99.2599 73.2178 99.6697C72.8896 100.04 72.6142 100.454 72.3994 100.9C72.2189 101.319 72.1221 101.769 72.1143 102.225C72.1022 103.014 72.3634 103.783 72.8535 104.401C73.2318 104.867 73.7223 105.231 74.2791 105.457C74.7652 105.628 75.2795 105.705 75.7945 105.684Z" fill="#455A64"/>
<path d="M81.3861 99.9551C81.4372 100.051 81.466 100.158 81.4705 100.267C81.4945 100.584 81.4025 100.899 81.2118 101.154C81.0735 101.34 80.8924 101.49 80.6838 101.592C80.4321 101.704 80.1544 101.744 79.8813 101.708C79.5475 101.664 79.2324 101.529 78.9706 101.318C78.7088 101.106 78.5105 100.827 78.3976 100.509C78.2629 100.145 78.2176 99.7542 78.2656 99.369C78.328 98.96 78.4659 98.5661 78.6721 98.2074C79.0523 97.4471 79.6648 96.7396 79.7862 95.8208C79.829 95.5958 79.8263 95.3644 79.7782 95.1404C79.7301 94.9165 79.6377 94.7044 79.5064 94.5167C79.1707 94.1679 78.7124 93.9634 78.2286 93.9464C77.6844 93.9276 77.1479 93.8114 76.6446 93.6032C76.3877 93.4636 76.1823 93.2452 76.0585 92.9802C75.9389 92.7186 75.8794 92.4336 75.8843 92.146C75.9189 91.5976 76.0254 91.0561 76.2011 90.5356C76.3384 90.0426 76.369 89.526 76.2909 89.0202C76.1358 88.0586 75.6204 87.192 74.8494 86.5967C74.1101 86.1119 73.2637 85.8147 72.3837 85.7308C71.5985 85.639 70.8325 85.4253 70.1133 85.0972C69.5324 84.7971 69.0172 84.3843 68.5979 83.8828C68.2814 83.5054 68.025 83.0816 67.8376 82.6261C67.6648 82.2447 67.5628 81.8349 67.5366 81.417C67.6248 81.8202 67.7503 82.2144 67.9115 82.5944C68.3754 83.6207 69.1766 84.4574 70.1819 84.9652C70.8922 85.2732 71.6453 85.4708 72.4153 85.5512C73.325 85.6348 74.2004 85.9393 74.9656 86.4383C75.7847 87.0601 76.333 87.9733 76.4968 88.9885C76.5781 89.517 76.5475 90.0566 76.407 90.5725C76.2421 91.0758 76.1376 91.5969 76.0955 92.1248C76.0773 92.3767 76.1282 92.6288 76.2426 92.854C76.3571 93.0791 76.5307 93.2688 76.7449 93.4026C77.2192 93.5944 77.7228 93.7034 78.2339 93.7247C78.5 93.735 78.7615 93.7977 79.0034 93.9092C79.2453 94.0206 79.4628 94.1786 79.6437 94.3741C79.7914 94.5834 79.8956 94.8202 79.9501 95.0706C80.0045 95.3209 80.008 95.5797 79.9605 95.8314C79.8829 96.2988 79.7162 96.7469 79.4694 97.1514C79.2424 97.5421 78.9995 97.9064 78.8094 98.2708C78.6127 98.6154 78.4803 98.9929 78.4187 99.3848C78.3738 99.7407 78.4118 100.102 78.5296 100.441C78.6313 100.735 78.8114 100.997 79.0505 101.197C79.2896 101.397 79.5786 101.528 79.8865 101.576C80.1387 101.613 80.3963 101.58 80.631 101.481C80.8258 101.391 80.996 101.255 81.1273 101.085C81.3167 100.849 81.4176 100.554 81.4125 100.251C81.4106 100.152 81.4018 100.053 81.3861 99.9551Z" fill="#263238"/>
<path d="M42.6676 97.7059C42.5293 98.0047 42.4958 98.3414 42.5726 98.6616C42.6123 98.8449 42.6927 99.0169 42.8078 99.165C42.923 99.313 43.07 99.4333 43.2379 99.5169C43.4653 99.6137 43.7152 99.6452 43.9596 99.6079C44.2039 99.5706 44.433 99.4659 44.6212 99.3057C44.8373 99.1182 44.9796 98.8599 45.0225 98.5771C45.0697 98.2645 45.059 97.9459 44.9908 97.6372C44.8694 96.9984 44.5526 96.2803 44.7057 95.4777C44.7796 95.0714 44.9382 94.6851 45.1711 94.344C45.4039 94.0029 45.7059 93.7146 46.0574 93.4977C46.4262 93.2681 46.8344 93.1087 47.2612 93.0278C47.6997 92.9601 48.1449 92.9477 48.5865 92.9908C49.0114 93.0329 49.4394 93.0329 49.8643 92.9908C50.2642 92.9565 50.6387 92.7805 50.9203 92.4945C51.1759 92.1943 51.3423 91.8285 51.4008 91.4385C51.464 91.0634 51.4746 90.6814 51.4324 90.3033C51.3149 89.5844 51.2882 88.8535 51.3532 88.128C51.464 87.4891 51.7617 86.8975 52.2086 86.4278C52.5856 86.0604 53.0279 85.7667 53.5128 85.5619C53.8786 85.4151 54.2318 85.2385 54.5688 85.0339C54.8406 84.8482 55.0737 84.6115 55.2552 84.3369C55.257 84.358 55.257 84.3792 55.2552 84.4003C55.2313 84.4596 55.2012 84.5162 55.1654 84.5692C55.0254 84.7779 54.846 84.9572 54.6374 85.0972C54.3119 85.3192 53.9694 85.5152 53.6131 85.6833C53.1271 85.9021 52.6866 86.2102 52.3142 86.5915C51.8958 87.0417 51.6202 87.6057 51.5222 88.2124C51.4715 88.9181 51.507 89.6273 51.6278 90.3244C51.6724 90.7218 51.6618 91.1233 51.5961 91.5177C51.5313 91.9417 51.3483 92.3388 51.0681 92.6635C50.7541 92.9842 50.3373 93.1842 49.8907 93.2284C49.4517 93.2708 49.0097 93.2708 48.5707 93.2284C48.1486 93.1858 47.7229 93.1964 47.3035 93.2601C46.9009 93.3336 46.5158 93.4823 46.1683 93.6984C45.8392 93.8951 45.5547 94.1582 45.3329 94.4709C45.1111 94.7836 44.9568 95.1391 44.88 95.5147C44.7321 96.2433 45.0225 96.9297 45.1492 97.6003C45.2124 97.9335 45.2124 98.2756 45.1492 98.6088C45.0919 98.925 44.9279 99.212 44.6846 99.4219C44.4741 99.596 44.2187 99.7071 43.9479 99.7426C43.677 99.7781 43.4017 99.7365 43.1534 99.6225C42.861 99.4651 42.6347 99.2081 42.5156 98.8981C42.3964 98.5881 42.3923 98.2457 42.504 97.9329C42.5426 97.8469 42.5983 97.7697 42.6676 97.7059Z" fill="#263238"/>
<path d="M66.1267 155.232L36.3634 149.149C36.3634 149.149 32.076 153.12 30.3864 158.236C26.8858 168.823 32.8205 196.944 32.8205 196.944L47.7101 195.888L69.5482 194.668C69.5482 183.58 66.3326 161.774 66.3326 161.774L66.1267 155.232Z" fill="#FCE193"/>
<path d="M74.4903 114.676L67.3517 111.54C67.3517 111.54 63.3072 115.299 58.6186 113.858C55.8835 113.018 55.2922 110.114 55.2922 110.114L46.9339 110.589L43.296 126.482L43.1746 135.537L35.2229 148.896C35.2229 148.896 45.2549 163.015 67.8111 159.224L69.2314 141.541C69.2314 141.541 72.7056 132.068 72.864 128.911C73.0224 125.754 72.864 121.968 72.864 121.968L74.4903 114.676Z" fill="#FFBD00"/>
<path d="M60.3241 159.878C57.9308 159.884 55.5424 159.663 53.1908 159.218C49.6252 158.543 46.1961 157.281 43.0426 155.485C40.8936 154.258 38.9069 152.766 37.129 151.045C36.4344 150.38 35.7935 149.661 35.2124 148.896L43.1694 135.548L43.2961 126.477L46.934 110.579L55.3028 110.104C55.4395 110.649 55.6547 111.172 55.9417 111.656C56.5303 112.694 57.4878 113.472 58.6239 113.836C60.6673 114.405 62.8499 114.185 64.7382 113.219C65.6802 112.772 66.5576 112.2 67.3465 111.519L74.4903 114.687L72.8641 121.968C72.8641 122.068 73.0172 125.817 72.8641 128.916C72.711 132.016 69.2948 141.377 69.2314 141.551L67.8111 159.239C65.3373 159.658 62.8331 159.872 60.3241 159.878ZM35.2388 148.896C35.82 149.648 36.4591 150.354 37.1502 151.008C38.9266 152.727 40.9115 154.217 43.0585 155.443C47.9161 158.231 56.1476 161.14 67.8006 159.186L69.2209 141.509C69.2578 141.414 72.6951 132.005 72.8535 128.884C73.0119 125.764 72.8535 121.973 72.8535 121.936L74.4745 114.665L67.357 111.54C66.5662 112.217 65.6892 112.787 64.7487 113.235C63.8703 113.662 62.9321 113.954 61.9662 114.1C60.8462 114.27 59.7024 114.187 58.6186 113.858C57.474 113.493 56.5099 112.708 55.9206 111.661C55.6327 111.18 55.4175 110.658 55.2817 110.114L46.9446 110.589L43.2961 126.482L43.1799 135.537L35.2388 148.896Z" fill="#263238"/>
<path d="M48.1589 135.263C48.2817 135.439 48.4234 135.602 48.5813 135.748C48.8559 136.049 49.2783 136.467 49.8221 136.963C52.6637 139.549 55.9764 141.564 59.5796 142.898C60.266 143.151 60.8362 143.336 61.2322 143.426C61.4325 143.496 61.6395 143.545 61.85 143.573C61.6613 143.475 61.4632 143.395 61.2586 143.336C60.8732 143.199 60.3188 142.993 59.6429 142.718C56.1023 141.306 52.8223 139.313 49.9383 136.82C49.4103 136.34 48.9457 135.944 48.6447 135.664C48.497 135.514 48.3342 135.379 48.1589 135.263Z" fill="#263238"/>
<g opacity="0.3">
<path d="M39.9221 141.007C40.4533 141.235 41.0367 141.313 41.609 141.233C42.1814 141.153 42.721 140.918 43.1693 140.553C43.9604 139.783 44.5919 138.864 45.0279 137.85L48.4704 131.102C52.5071 129.896 56.8378 130.131 60.72 131.767C61.321 131.982 61.8635 132.335 62.304 132.797C62.809 133.527 63.0931 134.386 63.1224 135.273C63.3812 137.385 63.6082 139.566 64.4372 141.541C65.2661 143.515 66.8079 145.316 68.8724 145.886L69.997 136.298L66.866 128.678L51.8074 125.891L45.5823 128.224L41.3583 138.547L39.9221 141.007Z" fill="black"/>
</g>
<path d="M73.6296 114.443C73.6296 114.443 77.183 114.829 78.6033 119.528C79.6593 122.971 80.4408 129.597 80.4408 129.597L71.7024 130.062V121.614L73.6296 114.443Z" fill="#FFBD00"/>
<path d="M71.6865 130.078V121.63L73.6137 114.438C74.316 114.558 74.9853 114.824 75.5779 115.22C77.0751 116.241 78.1488 117.773 78.598 119.528C79.654 122.934 80.4302 129.534 80.4408 129.603L71.6865 130.078ZM71.6865 121.63V130.046L80.3985 129.587C80.3563 129.238 79.5643 122.86 78.5611 119.528C78.116 117.778 77.0454 116.251 75.5515 115.236C74.9655 114.847 74.3059 114.583 73.6137 114.46L71.6865 121.63Z" fill="#FFBD00"/>
<path d="M46.9338 110.589C45.2654 110.586 43.6537 111.195 42.4036 112.3C40.5081 114.111 36.3633 121.043 36.3633 121.043L44.8113 123.889L47.5199 115.494L46.9338 110.589Z" fill="#FFBD00"/>
<path d="M44.8008 123.91L36.3528 121.054C36.395 120.98 40.524 114.1 42.4037 112.31C43.2454 111.528 44.2838 110.99 45.408 110.753C45.9167 110.633 46.4378 110.575 46.9603 110.578L47.52 115.494L44.8008 123.91ZM36.3792 121.038L44.7849 123.873L47.483 115.494L46.9233 110.605C45.263 110.606 43.6601 111.213 42.4142 112.31C40.5821 114.047 36.5904 120.684 36.3792 121.038Z" fill="#FFBD00"/>
<path d="M74.0573 123.335C73.8795 123.652 73.7344 123.986 73.6244 124.333C73.3445 125.04 73.0277 125.864 72.674 126.767C72.3202 127.67 71.9876 128.483 71.7025 129.19C71.5455 129.518 71.4233 129.862 71.3381 130.215C71.5536 129.92 71.731 129.599 71.8661 129.259C72.1565 128.657 72.5314 127.807 72.9221 126.857C73.3129 125.906 73.6033 125.03 73.8092 124.391C73.9342 124.05 74.0176 123.696 74.0573 123.335Z" fill="#263238"/>
<path d="M45.899 117.168C45.4222 118.484 45.0203 119.825 44.6952 121.186C44.2905 122.524 43.9661 123.885 43.7236 125.262C44.1999 123.948 44.6019 122.609 44.9275 121.249C45.3318 119.909 45.6562 118.546 45.899 117.168Z" fill="#263238"/>
<path d="M63.2226 112.501L62.0452 125.173C62.0226 125.383 61.9178 125.576 61.7536 125.71C61.5895 125.843 61.3793 125.906 61.1687 125.886L53.0217 125.268C52.8088 125.254 52.6095 125.159 52.4657 125.001C52.3219 124.844 52.2449 124.636 52.2508 124.423L53.0217 111.102C53.0283 110.988 53.0586 110.878 53.1108 110.777C53.1629 110.676 53.2357 110.588 53.3244 110.517C53.413 110.446 53.5156 110.395 53.6254 110.367C53.7351 110.338 53.8497 110.333 53.9615 110.352L62.5151 111.614C62.7243 111.643 62.9143 111.751 63.046 111.916C63.1776 112.081 63.2409 112.291 63.2226 112.501Z" fill="#263238"/>
<path d="M58.3757 118.488C58.5869 118.546 63.1805 120.204 63.1805 120.204L69.2841 124.814L71.7024 130.062L67.2513 135.484L66.3643 129.951C65.3093 130.1 64.236 130.057 63.1963 129.824C61.776 129.434 57.2616 128.272 57.2616 128.272L55.1496 126.593C54.9162 126.064 54.7529 125.506 54.6638 124.935C54.6729 124.834 54.711 124.738 54.7734 124.658C54.8358 124.578 54.92 124.517 55.0158 124.484C55.1116 124.45 55.215 124.445 55.3137 124.469C55.4123 124.493 55.502 124.545 55.572 124.618C56.0049 124.972 59.2997 125.627 60.1814 125.447C60.1814 125.447 55.4294 124.249 54.9437 123.377C54.4579 122.506 54.7747 121.946 55.5297 122.084C56.2848 122.221 58.967 123.108 59.8065 123.187C60.6461 123.266 61.6757 123.457 61.9555 123.098C62.2353 122.738 61.6704 122.295 61.6704 122.295L60.8942 121.471C60.8942 121.471 57.4939 120.246 57.4147 119.481C57.3952 119.349 57.4064 119.214 57.4473 119.087C57.4882 118.96 57.5578 118.844 57.6506 118.748C57.7435 118.652 57.8572 118.578 57.9829 118.533C58.1086 118.488 58.243 118.473 58.3757 118.488Z" fill="#FFD4C9"/>
<path d="M56.8075 117.965C56.8075 117.965 52.6733 117.875 52.3723 118.071C52.0714 118.266 45.936 123.34 45.936 123.34L44.5051 124.248L46.9339 128.953L47.6467 128.694L52.5994 127.142C53.0988 127.029 53.6081 126.965 54.12 126.951C54.12 126.951 58.8192 127.078 59.2099 126.603C59.6006 126.128 59.4581 125.975 59.1307 125.832C57.8918 125.637 56.6411 125.526 55.3872 125.499C54.7713 125.446 54.1615 125.337 53.5656 125.172C53.5656 125.172 55.5403 125.082 55.9997 125.019C56.459 124.956 60.8731 124.797 60.9365 124.053C60.9998 123.308 60.5194 122.944 57.7315 123.16C56.1942 123.302 54.6456 123.264 53.1168 123.05L59.3578 122.126C59.3578 122.126 61.8605 121.819 61.2163 121.027C60.5722 120.235 55.2446 120.674 55.2446 120.674L52.8528 121.085L53.724 119.897C53.724 119.897 57.0821 119.559 57.5467 119.322C58.1222 119.037 58.2542 118.694 57.9322 118.313C57.6135 118.062 57.2127 117.938 56.8075 117.965Z" fill="#FFD4C9"/>
<path d="M37.0867 121.286L43.9507 123.62L43.6075 125.204L44.9698 123.937L46.9339 128.937C46.9339 128.937 45.3869 131.83 44.5474 133.435C42.2981 137.723 39.0562 142.411 36.2472 141.625C32.8786 140.701 31.8648 136.836 32.377 134.317C32.8469 132.041 37.0867 121.286 37.0867 121.286Z" fill="#FFD4C9"/>
<path d="M79.9233 129.624L73.619 130.009L71.7024 130.062L70.4563 127.332L66.792 132C66.792 132 67.225 135.252 67.452 137.047C68.0539 141.852 69.4584 147.364 72.3571 147.607C75.8366 147.919 79.0522 144.466 79.4482 141.926C79.8125 139.645 79.9233 129.624 79.9233 129.624Z" fill="#FFD4C9"/>
<path d="M45.936 123.319C45.936 123.319 45.9888 123.266 46.105 123.171L46.633 122.744L48.576 121.128L51.6543 118.594L52.1189 118.224L52.3618 118.034C52.464 117.984 52.5754 117.955 52.6892 117.949C53.1116 117.907 53.5498 117.897 53.9986 117.886C54.8962 117.886 55.8466 117.886 56.8445 117.886C57.0983 117.878 57.3516 117.912 57.5943 117.986C57.7237 118.028 57.8438 118.094 57.948 118.182C58.0475 118.274 58.1251 118.388 58.1751 118.514C58.2 118.581 58.2101 118.653 58.2046 118.724C58.1992 118.795 58.1783 118.864 58.1434 118.926C58.0723 119.044 57.9747 119.143 57.8583 119.217C57.75 119.299 57.6286 119.364 57.4992 119.407C57.3691 119.446 57.2369 119.478 57.1032 119.502C56.0472 119.697 54.9226 119.818 53.7663 119.945L53.8191 119.914L52.9532 121.107L52.874 120.991L55.2658 120.579C56.2743 120.505 57.3092 120.457 58.3652 120.463C58.8942 120.461 59.4229 120.488 59.9492 120.542C60.222 120.566 60.4923 120.614 60.757 120.684C60.897 120.72 61.0307 120.777 61.153 120.853C61.221 120.894 61.2791 120.949 61.323 121.015C61.3668 121.08 61.3954 121.155 61.4064 121.234C61.4095 121.313 61.3916 121.392 61.3545 121.462C61.3174 121.533 61.2625 121.592 61.1952 121.635C61.0799 121.72 60.9538 121.789 60.8204 121.841C60.5584 121.943 60.2881 122.023 60.0125 122.078C59.4845 122.194 58.909 122.253 58.3546 122.342L54.9701 122.833L53.1327 123.103V122.944C54.548 123.137 55.9794 123.183 57.4042 123.082C58.1065 123.021 58.8115 122.998 59.5162 123.013C59.8764 123.011 60.2339 123.074 60.5722 123.198C60.7484 123.263 60.896 123.388 60.9893 123.551C61.0623 123.717 61.0844 123.901 61.0527 124.079C61.0276 124.177 60.965 124.26 60.8784 124.312C60.8051 124.361 60.7273 124.404 60.6461 124.438C60.4903 124.502 60.3296 124.553 60.1656 124.592C59.8454 124.671 59.5211 124.733 59.1941 124.776C58.5447 124.871 57.9058 124.93 57.2722 124.977L56.3324 125.046C56.0314 125.046 55.7199 125.114 55.4136 125.125C54.8012 125.162 54.2045 125.194 53.6132 125.215V125.077C54.2598 125.273 54.9286 125.387 55.6037 125.415C56.2743 125.442 56.9184 125.489 57.552 125.542C57.8688 125.542 58.1804 125.6 58.4919 125.637L58.9512 125.7C59.0297 125.715 59.1073 125.735 59.1836 125.758C59.2577 125.79 59.3285 125.829 59.3948 125.875C59.4323 125.899 59.464 125.932 59.4877 125.97C59.5114 126.009 59.5265 126.052 59.532 126.096C59.5372 126.179 59.5189 126.261 59.4792 126.334C59.448 126.402 59.409 126.465 59.3631 126.524L59.2944 126.614C59.2659 126.646 59.2319 126.673 59.1941 126.693C58.923 126.804 58.6361 126.872 58.344 126.894C57.2905 126.983 56.2331 127.016 55.176 126.994H54.458C54.2311 126.981 54.0037 126.981 53.7768 126.994C53.3531 127.009 52.9328 127.077 52.5255 127.195L48.9087 128.303L47.9636 128.589L47.7207 128.657H47.6362L47.7154 128.626L47.953 128.546L48.8928 128.24C49.7271 127.981 50.9309 127.596 52.4621 127.11C53.337 126.895 54.2406 126.82 55.1391 126.888C56.1964 126.906 57.2539 126.867 58.3071 126.772C58.5826 126.753 58.8534 126.691 59.1096 126.587C59.1347 126.573 59.1578 126.555 59.1783 126.535L59.2416 126.45C59.2817 126.397 59.3171 126.341 59.3472 126.281C59.3653 126.257 59.3783 126.23 59.3854 126.201C59.3925 126.171 59.3937 126.141 59.3887 126.111C59.3838 126.082 59.3729 126.054 59.3567 126.028C59.3405 126.003 59.3193 125.981 59.2944 125.964C59.2359 125.926 59.174 125.892 59.1096 125.864C59.042 125.844 58.9733 125.828 58.9037 125.817C58.7559 125.79 58.608 125.774 58.4549 125.753C58.1487 125.716 57.8372 125.69 57.5204 125.663C56.892 125.611 56.2426 125.568 55.5826 125.542C54.8955 125.517 54.2142 125.405 53.5551 125.209C53.5459 125.208 53.5373 125.204 53.5296 125.198C53.522 125.193 53.5155 125.186 53.5105 125.178C53.5056 125.171 53.5023 125.162 53.5009 125.153C53.4995 125.143 53.4999 125.134 53.5023 125.125C53.5048 125.11 53.5126 125.096 53.5242 125.087C53.5358 125.077 53.5505 125.072 53.5656 125.072L55.3608 124.977C55.6671 124.977 55.9628 124.914 56.2796 124.893L57.2141 124.824C57.8477 124.776 58.4813 124.718 59.1255 124.623C59.4472 124.58 59.7663 124.518 60.0812 124.438C60.2383 124.403 60.392 124.353 60.5405 124.291C60.6725 124.233 60.8362 124.143 60.8573 124.042C60.8809 123.897 60.8607 123.748 60.7992 123.615C60.7297 123.481 60.6101 123.381 60.4666 123.335C60.1528 123.224 59.8226 123.167 59.4898 123.166C58.7974 123.152 58.1047 123.175 57.4148 123.235C55.9777 123.338 54.5338 123.292 53.1063 123.097C53.0955 123.097 53.085 123.094 53.0755 123.089C53.066 123.084 53.0576 123.077 53.0511 123.068C53.0446 123.06 53.04 123.05 53.0376 123.04C53.0353 123.029 53.0353 123.018 53.0376 123.008C53.0398 122.99 53.0478 122.974 53.0602 122.962C53.0726 122.949 53.0888 122.941 53.1063 122.939L54.9437 122.67L58.3282 122.179C58.8826 122.089 59.4423 122.031 59.9756 121.92C60.2405 121.867 60.5002 121.791 60.7517 121.693C60.8715 121.645 60.9849 121.583 61.0896 121.508C61.1357 121.48 61.1742 121.442 61.2018 121.396C61.2294 121.35 61.2453 121.298 61.248 121.244C61.2164 121.028 60.9629 120.896 60.72 120.832C60.4639 120.763 60.2025 120.716 59.9386 120.69C59.4106 120.632 58.8826 120.616 58.3546 120.61C57.2986 120.61 56.2743 120.653 55.2711 120.721L52.8792 121.128C52.8695 121.13 52.8594 121.131 52.8496 121.129C52.8397 121.127 52.8303 121.124 52.8219 121.118C52.8135 121.113 52.8063 121.106 52.8008 121.097C52.7952 121.089 52.7913 121.08 52.7895 121.07C52.7853 121.062 52.7831 121.053 52.7831 121.043C52.7831 121.034 52.7853 121.025 52.7895 121.017L53.6607 119.829C53.6661 119.82 53.6737 119.812 53.683 119.806C53.6922 119.801 53.7027 119.798 53.7135 119.797C54.8645 119.676 55.9839 119.56 57.0346 119.37C57.1666 119.343 57.2933 119.317 57.4148 119.28C57.5311 119.237 57.6412 119.178 57.7421 119.106C57.948 118.974 58.1012 118.762 58.0114 118.546C57.9677 118.439 57.9003 118.344 57.8143 118.267C57.7284 118.19 57.626 118.134 57.5151 118.102C57.2883 118.03 57.0509 117.996 56.8128 118.002C55.8202 118.002 54.8698 117.97 53.9775 117.976C53.5287 117.976 53.0904 117.976 52.6733 118.034C52.5785 118.036 52.4851 118.058 52.3988 118.097L52.1612 118.277L51.6965 118.646L48.576 121.181L46.6119 122.765C46.3848 122.939 46.2159 123.076 46.0839 123.177L45.936 123.319Z" fill="#844031"/>
<path d="M44.7056 124.196C44.7478 124.244 42.2081 126.371 39.0349 128.948C35.8616 131.525 33.2585 133.589 33.2269 133.542C33.1952 133.494 35.7243 131.366 38.8976 128.79C42.0709 126.213 44.6686 124.149 44.7056 124.196Z" fill="#844031"/>
<path d="M75.9845 139.249C75.9475 139.249 75.8155 138.648 75.4565 137.702C74.9996 136.469 74.4598 135.268 73.8408 134.107C73.1227 132.734 72.4258 131.514 71.9558 130.611C71.7182 130.163 71.5334 129.793 71.4278 129.555C71.359 129.424 71.3041 129.286 71.2642 129.144C71.3609 129.256 71.4409 129.383 71.5018 129.518L72.1037 130.574C72.6317 131.456 73.3286 132.686 74.0414 134.043C74.6713 135.209 75.2012 136.426 75.6254 137.681C75.7469 138.063 75.8491 138.451 75.9317 138.843C75.9668 138.976 75.9846 139.112 75.9845 139.249Z" fill="#844031"/>
</g>
<defs>
<clipPath id="clip0_5182_9375">
<rect width="264" height="264" fill="white"/>
</clipPath>
</defs>
</svg>
