<svg width="264" height="264" viewBox="0 0 264 264" fill="none" xmlns="http://www.w3.org/2000/svg">
<path d="M209.426 38.3592C209.801 35.6294 205.946 33.3854 203.053 33.1478C201.669 33.037 200.239 33.2482 198.929 32.7941C196.099 31.8067 194.964 28.1477 192.202 26.9861C190.133 26.1149 187.751 26.891 185.75 27.8995C183.749 28.908 181.764 30.1752 179.525 30.3178C177.577 30.4445 175.465 29.7211 173.759 30.6715C172.492 31.379 171.827 32.8469 170.655 33.7075C169.483 34.5682 168.015 34.7318 166.6 34.8058C165.185 34.8797 163.706 34.9008 162.413 35.4922C161.119 36.0835 160.047 37.451 160.301 38.8502L209.426 38.3592Z" fill="#EBEBEB"/>
<path d="M41.1469 51.67C41.1426 49.4817 40.6347 47.3238 39.6624 45.3633C38.6901 43.4029 37.2795 41.6926 35.5399 40.3649C33.8004 39.0373 31.7785 38.128 29.631 37.7073C27.4835 37.2867 25.268 37.3662 23.1561 37.9394C21.0442 38.5127 19.0926 39.5645 17.4526 41.0133C15.8126 42.4621 14.5281 44.269 13.6986 46.294C12.8692 48.3191 12.5171 50.5079 12.6695 52.6909C12.822 54.8739 13.475 56.9924 14.5779 58.8825L14.6201 58.9353C15.1481 59.854 15.8504 60.5193 16.5421 61.4855L24.8158 72.4627C25.0566 72.7799 25.3676 73.0372 25.7244 73.2143C26.0812 73.3914 26.4741 73.4835 26.8724 73.4835C27.2707 73.4835 27.6636 73.3914 28.0204 73.2143C28.3772 73.0372 28.6881 72.7799 28.9289 72.4627L37.076 61.6651C37.8178 60.7901 38.5088 59.8734 39.1457 58.9195L39.1774 58.8825C40.4677 56.698 41.1478 54.2071 41.1469 51.67ZM26.8909 57.8846C25.6473 57.8877 24.4307 57.5218 23.3953 56.833C22.3598 56.1443 21.552 55.1638 21.0742 54.0156C20.5963 52.8675 20.4699 51.6034 20.711 50.3834C20.9521 49.1634 21.5498 48.0424 22.4284 47.1623C23.307 46.2822 24.427 45.6826 25.6466 45.4395C26.8662 45.1963 28.1306 45.3206 29.2795 45.7965C30.4284 46.2724 31.4103 47.0785 32.1008 48.1128C32.7912 49.1471 33.1593 50.3631 33.1582 51.6067C33.1582 52.4315 32.9957 53.2483 32.6798 54.0103C32.364 54.7724 31.9011 55.4647 31.3176 56.0477C30.7341 56.6307 30.0414 57.093 29.2791 57.4082C28.5168 57.7234 27.6999 57.8853 26.875 57.8846H26.8909Z" fill="#F5F5F5"/>
<path d="M247.342 58.5129C247.579 56.7599 245.103 55.3132 243.244 55.1653C242.357 55.0967 241.433 55.2287 240.604 54.9383C238.783 54.2994 238.054 51.9498 236.275 51.2001C234.949 50.6404 233.418 51.1367 232.13 51.7861C230.842 52.4356 229.569 53.2487 228.128 53.3701C226.876 53.4493 225.519 52.9847 224.432 53.5972C223.618 54.0513 223.191 54.9911 222.436 55.5455C221.653 56.0288 220.747 56.2746 219.827 56.253C218.91 56.2313 217.997 56.3818 217.135 56.6965C216.306 57.0767 215.619 57.9532 215.788 58.8508L247.342 58.5129Z" fill="#F5F5F5"/>
<path d="M128.594 20.5286C128.843 18.707 126.271 17.2075 124.339 17.0491C123.42 16.9752 122.464 17.1177 121.588 16.8115C119.698 16.1515 118.948 13.7121 117.095 12.9307C115.716 12.3499 114.127 12.8673 112.791 13.5432C111.455 14.219 110.151 15.0638 108.636 15.1588C107.337 15.238 105.927 14.7576 104.787 15.3912C103.942 15.8664 103.498 16.8432 102.717 17.4187C101.904 17.9194 100.963 18.1742 100.008 18.1526C99.0569 18.1302 98.1095 18.286 97.2153 18.612C96.3494 19.008 95.6313 19.9161 95.8161 20.8507L128.594 20.5286Z" fill="#F5F5F5"/>
<path d="M252.236 246.713C252.236 246.792 198.38 246.851 132.005 246.851C65.6304 246.851 11.7638 246.792 11.7638 246.713C11.7638 246.634 65.5881 246.576 132 246.576C198.412 246.576 252.236 246.639 252.236 246.713Z" fill="#263238"/>
<path d="M64.416 224.458C64.9245 224.7 65.3789 225.042 65.7518 225.464C66.1248 225.886 66.4085 226.379 66.586 226.913C66.9361 227.987 67.0354 229.127 66.8764 230.245C66.6283 232.404 65.4033 234.585 64.0833 236.306C62.2617 234.722 61.8446 231.95 61.7232 230.535C61.5225 228.291 62.531 224.125 64.416 224.458Z" fill="#FCE193"/>
<path d="M66.1795 239.87C66.0554 239.254 66.0971 238.615 66.3002 238.019C66.5033 237.424 66.8607 236.893 67.3359 236.481C67.8161 236.075 68.3728 235.769 68.9731 235.581C69.5734 235.393 70.2052 235.327 70.8312 235.388C71.1219 235.383 71.41 235.442 71.6754 235.561C71.9407 235.68 72.177 235.855 72.3677 236.074C72.5051 236.309 72.5775 236.576 72.5775 236.848C72.5775 237.119 72.5051 237.386 72.3677 237.621C72.0921 238.092 71.6968 238.482 71.2219 238.751C69.6379 239.738 67.9431 240.409 66.1584 239.87" fill="#FCE193"/>
<path d="M63.8458 246.497C63.8556 246.347 63.8786 246.199 63.9145 246.053C63.9725 245.736 64.0465 245.335 64.1309 244.849C64.3349 243.515 64.7539 242.222 65.3717 241.021C66.0132 239.821 66.9603 238.812 68.1173 238.096C68.4716 237.889 68.8491 237.724 69.242 237.605C69.3473 237.57 69.4549 237.542 69.5641 237.521C69.6025 237.514 69.6418 237.514 69.6802 237.521C69.1579 237.701 68.6539 237.931 68.1754 238.207C67.0575 238.937 66.1407 239.935 65.509 241.111C64.9008 242.301 64.4736 243.575 64.2418 244.892C64.1309 245.42 64.0412 245.8 63.9725 246.08C63.9436 246.222 63.9011 246.362 63.8458 246.497Z" fill="#263238"/>
<path d="M63.9144 227.7C63.9219 227.765 63.9219 227.83 63.9144 227.895C63.9144 228.036 63.925 228.221 63.9461 228.45C63.9461 228.936 63.9989 229.632 64.0253 230.498C64.0834 232.23 64.1256 234.622 64.1151 237.262C64.1045 239.902 64.0411 242.299 63.9672 244.026C63.9355 244.892 63.8986 245.61 63.8669 246.074C63.8669 246.307 63.8405 246.486 63.8299 246.634C63.8357 246.697 63.8357 246.761 63.8299 246.824C63.8217 246.759 63.8217 246.694 63.8299 246.629C63.8299 246.486 63.8299 246.301 63.8299 246.074C63.8299 245.546 63.8299 244.876 63.8775 244.026C63.9197 242.294 63.9672 239.902 63.9778 237.262C63.9883 234.622 63.9778 232.236 63.9355 230.504C63.9355 229.654 63.9355 228.957 63.9039 228.455V227.895C63.9017 227.83 63.9052 227.765 63.9144 227.7Z" fill="#263238"/>
<path d="M63.0326 241.185C62.8128 239.877 62.2843 238.64 61.491 237.576C60.6976 236.513 59.6622 235.654 58.4707 235.071C57.8635 234.78 57.0715 234.59 56.5699 235.039C56.0683 235.488 56.1845 236.306 56.4273 236.935C56.9626 238.238 57.8712 239.354 59.039 240.142C60.2067 240.93 61.5815 241.356 62.9904 241.365" fill="#FCE193"/>
<path d="M58.7663 237.12C58.9004 237.16 59.0297 237.215 59.1518 237.283C59.3024 237.352 59.4488 237.429 59.59 237.516C59.7537 237.621 59.949 237.721 60.118 237.864C60.3385 238.011 60.5501 238.172 60.7516 238.344C60.9885 238.535 61.2142 238.74 61.4274 238.957C61.9175 239.458 62.3497 240.012 62.7158 240.61C63.0668 241.214 63.3501 241.855 63.5606 242.521C63.6473 242.812 63.7178 243.109 63.7718 243.408C63.8243 243.67 63.8613 243.934 63.8826 244.2C63.9143 244.438 63.8826 244.659 63.9143 244.855C63.9231 245.018 63.9231 245.182 63.9143 245.346C63.9114 245.486 63.8955 245.626 63.8668 245.763C63.8298 245.763 63.8668 245.166 63.7876 244.211C63.7605 243.95 63.7182 243.69 63.6609 243.434C63.6134 243.155 63.5236 242.869 63.4391 242.563C63.2259 241.91 62.9427 241.281 62.5943 240.689C62.2332 240.104 61.8139 239.558 61.343 239.057C61.1159 238.836 60.9047 238.624 60.683 238.445C60.4875 238.272 60.283 238.11 60.0705 237.959C59.2996 237.399 58.7505 237.146 58.7663 237.12Z" fill="#263238"/>
<path d="M168.96 246.713L96.0484 246.671C93.9651 246.676 91.9014 246.27 89.9753 245.476C88.0492 244.682 86.2987 243.516 84.8239 242.045C83.3491 240.573 82.179 238.826 81.3807 236.901C80.5823 234.977 80.1714 232.914 80.1714 230.831L80.1819 48.576C80.1819 46.4896 80.5941 44.4238 81.3947 42.4972C82.1954 40.5706 83.3688 38.8211 84.8475 37.3492C86.3262 35.8774 88.0811 34.7122 90.0115 33.9205C91.9418 33.1288 94.0095 32.7263 96.0959 32.736L169.013 32.7835C171.095 32.7794 173.159 33.186 175.084 33.9802C177.01 34.7743 178.759 35.9404 180.234 37.4117C181.708 38.883 182.878 40.6306 183.676 42.5545C184.474 44.4784 184.884 46.5407 184.884 48.6235L184.847 230.894C184.845 232.977 184.431 235.038 183.631 236.961C182.831 238.883 181.659 240.629 180.184 242.098C178.708 243.567 176.957 244.731 175.031 245.523C173.105 246.315 171.042 246.72 168.96 246.713Z" fill="#263238"/>
<path d="M169.446 38.2009L155.258 38.1322C154.326 38.1503 153.438 38.5371 152.79 39.208C152.142 39.8789 151.786 40.7793 151.8 41.7121V44.2887C151.815 45.2224 151.46 46.1241 150.812 46.7962C150.163 47.4682 149.275 47.8558 148.341 47.8738L120.69 47.7418C119.756 47.7169 118.869 47.322 118.225 46.6438C117.582 45.9656 117.234 45.0597 117.258 44.125V41.5537C117.282 40.6199 116.935 39.7148 116.293 39.0367C115.65 38.3587 114.765 37.9631 113.831 37.9369H108.842L96.4232 37.8788C94.9572 37.8718 93.5042 38.1539 92.1473 38.7088C90.7904 39.2637 89.5561 40.0806 88.5151 41.1129C87.474 42.1451 86.6466 43.3723 86.0802 44.7245C85.5137 46.0766 85.2193 47.5272 85.2138 48.9932L84.4799 228.017C84.4658 230.973 85.6256 233.814 87.7046 235.916C89.7835 238.017 92.6117 239.208 95.5679 239.226L168.59 239.564C170.057 239.571 171.51 239.289 172.867 238.734C174.224 238.179 175.459 237.363 176.5 236.33C177.542 235.298 178.37 234.071 178.937 232.719C179.504 231.367 179.799 229.916 179.805 228.45L180.576 49.4103C180.583 47.943 180.3 46.4887 179.744 45.1307C179.188 43.7728 178.37 42.5378 177.336 41.4966C176.302 40.4553 175.073 39.6283 173.719 39.0627C172.365 38.4972 170.913 38.2043 169.446 38.2009Z" fill="#F5F5F5"/>
<path d="M138.457 205.73C138.373 207.895 138.294 209.922 138.225 211.607H148.716L147.433 205.165L138.457 205.73Z" fill="#F5F5F5"/>
<path d="M95.8265 208.428L95.9163 211.596H137.179C137.248 209.811 137.327 207.831 137.407 205.788L95.8265 208.428Z" fill="#F5F5F5"/>
<path d="M147.956 205.128L149.25 211.607H168.585L168.353 203.84L147.956 205.128Z" fill="#F5F5F5"/>
<path d="M139.503 114.602L143.157 93.4032L133.584 92.6904V114.602H139.503Z" fill="#EBEBEB"/>
<path d="M94.966 196.659L84.5696 200.73L84.538 208.095L95.2722 207.414L94.966 196.659Z" fill="#F5F5F5"/>
<path d="M94.9184 195.001L94.3482 175.259H94.3429V168.295L84.7016 169.314L84.5802 199.04L94.9132 194.99L94.9184 195.001Z" fill="#EBEBEB"/>
<path d="M94.3429 152.75L84.7755 151.489L84.7122 167.735L94.3429 166.716V152.75Z" fill="#F5F5F5"/>
<path d="M165.607 168.59L165.206 174.245L153.912 175.465L154.788 179.942L167.608 178.976L167.413 172.556L168.437 168.3L165.607 168.59Z" fill="#F5F5F5"/>
<path d="M145.253 180.66L154.26 179.979L152.302 169.932L144.44 170.724L145.253 180.66Z" fill="#F5F5F5"/>
<path d="M145.342 181.701L146.029 190.085L147.248 201.58L147.75 204.093L168.321 202.794L167.64 180.022L145.342 181.701Z" fill="#EBEBEB"/>
<path d="M109.935 142.138L110.727 143.495L94.8868 152.75V174.699L111.63 173.511L143.896 170.254L142.713 155.871L111.888 151.842L112.089 150.285L142.56 154.266L140.559 129.92L110.378 132.818L110.278 131.762L140.474 128.858L139.418 116.155H110.378L84.8812 120.796L84.7598 149.889L94.4116 151.161L109.935 142.138ZM96.4866 172.603C96.4866 172.603 96.6081 154.503 96.4866 153.828L109.433 146.964L111.112 171.7L96.4866 172.603Z" fill="#F5F5F5"/>
<path d="M164.551 168.696L152.824 169.879L153.711 174.435L164.224 173.3L164.551 168.696Z" fill="#F5F5F5"/>
<path d="M138.605 201.854C138.568 202.805 138.531 203.75 138.494 204.679L147.227 204.151L146.779 201.902L138.605 201.854Z" fill="#F5F5F5"/>
<path d="M119.803 114.602L121.34 107.628H133.056V92.6535L96.4127 89.9396V104L84.9709 106.587L84.9128 119.212L110.262 114.602H119.803Z" fill="#EBEBEB"/>
<path d="M144.255 72.9273L143.938 71.6443L157.935 66.1055L148.833 47.8367C148.667 47.8641 148.499 47.8782 148.331 47.879L132.866 47.8051L133.288 73.3761L144.255 72.9273Z" fill="#F5F5F5"/>
<path d="M165.459 63.1277V38.1797L155.274 38.1322C154.811 38.1391 154.354 38.2371 153.928 38.4208C153.503 38.6044 153.118 38.87 152.796 39.2025C152.473 39.5349 152.219 39.9276 152.048 40.3582C151.877 40.7888 151.793 41.2489 151.8 41.712V44.2887C151.802 44.8643 151.667 45.432 151.406 45.9452C151.145 46.4584 150.766 46.9022 150.3 47.2402L159.408 65.5248L165.459 63.1277Z" fill="#EBEBEB"/>
<path d="M112.855 64.1996L111.677 37.9316H108.842L97.7537 37.8788L93.0387 61.3695L112.855 64.1996ZM110.352 40.5927L110.732 61.9873L96.0219 59.833L99.2427 40.5927H110.352Z" fill="#F5F5F5"/>
<path d="M113.388 64.2787V64.5005C113.414 66.5491 113.456 70.2398 113.483 74.184L132.765 73.392L132.343 47.7998L120.68 47.7417C119.745 47.7168 118.858 47.3219 118.215 46.6437C117.571 45.9655 117.223 45.0596 117.248 44.1249V41.5536C117.272 40.6198 116.924 39.7147 116.282 39.0366C115.64 38.3586 114.754 37.963 113.821 37.9368H112.2L113.383 64.2734L113.388 64.2787Z" fill="#F5F5F5"/>
<path d="M91.5023 61.1371L96.1698 37.8734C93.2572 37.9244 90.4802 39.1131 88.4327 41.1852C86.3853 43.2573 85.2299 46.0484 85.2138 48.9614L85.161 60.5774L85.2138 60.2395L91.5023 61.1371Z" fill="#F5F5F5"/>
<path d="M94.8445 89.8234L85.0396 89.0947L84.9762 104.977L94.8445 102.744V89.8234Z" fill="#F5F5F5"/>
<path d="M91.3967 61.6493L85.161 60.7517L85.0554 86.4706L86.3965 86.5709L91.3967 61.6493Z" fill="#F5F5F5"/>
<path d="M111.197 194.7L111.36 174.055L94.8708 175.222L95.4517 195.45L111.197 194.7Z" fill="#F5F5F5"/>
<path d="M114.227 189.937L137.586 201.126C137.861 193.813 138.114 186.975 138.088 186.542L138.616 186.516L138.864 186.02C139.196 186.189 139.196 186.189 139.022 191.173C138.922 193.95 138.785 197.652 138.642 201.353H146.72L145.527 190.133L143.943 170.776L113.43 173.855L114.227 189.937Z" fill="#F5F5F5"/>
<path d="M171.473 155.67L171.209 152.946L143.22 155.86L144.397 170.206L168.564 167.767L171.473 155.67Z" fill="#F5F5F5"/>
<path d="M133.056 109.196H122.601L121.408 114.602H133.056V109.196Z" fill="#F5F5F5"/>
<path d="M167.154 111.023L140.976 109.212L139.92 115.394L140.976 128.832L168.596 126.192L167.154 111.023ZM141.926 115.384L143.331 111.482L166.077 112.918L167.376 124.08L142.676 127.01L141.926 115.384Z" fill="#F5F5F5"/>
<path d="M169.868 139.086L168.722 127.211L141.081 129.867L142.122 142.507L169.868 139.086Z" fill="#F5F5F5"/>
<path d="M95.3039 208.46L84.5802 209.141L84.5379 208.439L84.5221 211.607H95.3936L95.3039 208.46Z" fill="#F5F5F5"/>
<path d="M180.365 57.2299L180.523 57.6312L180.576 49.4102C180.59 46.454 179.43 43.6131 177.351 41.5114C175.272 39.4097 172.444 38.219 169.488 38.2008H166.008V62.9376L180.365 57.2299Z" fill="#EBEBEB"/>
<path d="M137.56 201.696L113.726 190.275L112.881 173.907L111.883 174.008L111.714 195.202L95.4677 195.972V196.442L95.7792 207.372L137.428 204.732C137.486 203.734 137.523 202.71 137.56 201.696ZM96.4867 197.319L119.228 195.735L134.012 202.599L96.4709 204.632L96.4867 197.319Z" fill="#F5F5F5"/>
<path d="M173.59 84.707L174.562 78.899C166.014 75.8472 165.422 66.9346 165.449 64.2312L159.868 66.4435L168.268 83.3078L173.59 84.707Z" fill="#F5F5F5"/>
<path d="M143.088 154.292L154.714 153.083L152.423 142.819L142.248 144.075L143.088 154.292Z" fill="#F5F5F5"/>
<path d="M168.163 94.7761L146.457 94.7708L144.651 94.6388L142.201 108.853L167.967 110.632L167.371 104.454L169.905 95.3252L168.163 94.7761Z" fill="#F5F5F5"/>
<path d="M166.663 90.9586L166.932 84.1738L158.4 67.056L145.2 72.2832L149.746 90.9586H166.663ZM157.872 69.1311L165.692 84.0048L164.562 88.6407L151.182 88.1127L147.84 74.0679L157.872 69.1311Z" fill="#F5F5F5"/>
<path d="M170.042 172.825L170.438 186.152L179.847 185.624L179.874 186.146L170.454 186.68L170.935 202.625L179.826 202.066L179.895 203.111L170.966 203.676L171.204 211.607H179.868L180.059 167.128L171.193 168.026L170.042 172.825Z" fill="#F5F5F5"/>
<path d="M112.87 64.7327L92.9543 61.871L87.9752 86.687L112.96 88.5403C113.061 84.7175 112.992 73.0012 112.87 64.7327Z" fill="#EBEBEB"/>
<path d="M145.628 90.9586H148.642L144.381 73.4448L133.293 73.8989L133.563 90.0663L145.628 90.9586Z" fill="#F5F5F5"/>
<path d="M113.467 88.5773L133.056 90.0293L132.792 73.92L113.52 74.712C113.52 80.1557 113.552 85.9637 113.467 88.5773Z" fill="#F5F5F5"/>
<path d="M170.021 140.649L152.946 142.755L155.237 153.03L171.061 151.383L170.021 140.649Z" fill="#F5F5F5"/>
<path d="M174.652 78.3975L175.745 71.9083L180.46 72.2727L180.518 58.2965L165.977 64.0517C165.681 73.8883 171.859 77.3467 174.652 78.3975Z" fill="#EBEBEB"/>
<path d="M169.055 103.488L169.646 109.618L180.296 110.357L180.349 97.7329L171.436 94.9133L169.055 103.488Z" fill="#F5F5F5"/>
<path d="M174.124 155.855L171.325 167.471L180.048 166.605L180.101 154.408C177.418 153.701 175.079 153.125 173.823 152.882L174.124 155.855Z" fill="#F5F5F5"/>
<path d="M168.226 91.1593L180.365 94.9925L180.391 88.0863L168.474 85.0081L168.226 91.1593Z" fill="#F5F5F5"/>
<path d="M173.68 151.288C174.657 151.43 176.51 151.816 180.117 152.777L180.233 126.102L171.325 126.963L173.68 151.288Z" fill="#F5F5F5"/>
<path d="M171.225 125.917L180.238 125.052L180.291 111.931L169.799 111.207L171.225 125.917Z" fill="#F5F5F5"/>
<path d="M175.655 78.7301C177.366 79.2476 178.95 79.6524 180.407 79.9445V73.3234L176.568 73.0277L175.655 78.7301Z" fill="#F5F5F5"/>
<path d="M135.464 81.3965L141.272 82.896L141.298 76.9085C139.798 76.6128 138.179 76.2027 136.44 75.6782L135.464 81.3965Z" fill="#F5F5F5"/>
<path d="M179.895 203.111L179.826 202.055L170.935 202.615L170.454 186.664L179.874 186.136L179.847 185.608L170.438 186.136L170.042 172.809L171.193 168.01L180.058 167.112V166.584L171.325 167.466L174.124 155.85L173.833 152.877C175.09 153.12 177.429 153.695 180.111 154.403V152.771C176.505 151.821 174.652 151.425 173.675 151.283L171.32 126.958L180.227 126.097V125.041L171.214 125.907L169.789 111.191L180.291 111.936V110.352L169.641 109.613L169.05 103.488L171.436 94.9132L180.349 97.7328V94.9925L168.205 91.1592L168.453 85.008L180.37 88.0862V86.4705L174.562 84.971L175.528 79.2475C177.267 79.7755 178.884 80.1873 180.381 80.483V79.955C178.906 79.6664 177.322 79.2616 175.628 78.7406L176.589 73.0382L180.428 73.3339V72.2779L175.713 71.9136L174.62 78.4027C171.827 77.3467 165.644 73.8936 165.945 64.0569L180.486 58.3017V57.6365L180.328 57.2352L165.945 62.927V38.1902H165.417V63.1382L159.356 65.5406L150.29 47.2454C149.858 47.5556 149.358 47.7584 148.832 47.8368L157.935 66.1056L143.938 71.6443L144.255 72.9273L133.288 73.3761L132.866 47.8051H132.338L132.76 73.3972L113.483 74.184C113.456 70.2398 113.414 66.5491 113.388 64.5005V64.2787L112.2 37.9368H111.672L112.849 64.2048L93.0546 61.3641L97.7696 37.8734H96.4179H96.1645L91.497 61.1371L85.2085 60.2342L85.1557 60.5721V60.7516L91.3914 61.6493L86.3965 86.592L85.0554 86.4916V89.1316L94.8603 89.8603V102.78L84.992 105.014V106.624L96.4127 104.016V89.9395L133.056 92.6534V107.627H121.334L119.798 114.602H110.262L84.9181 119.212V120.796L110.405 116.16H139.445L140.501 128.864L110.304 131.768L110.405 132.824L140.585 129.925L142.56 154.266L112.063 150.285L111.862 151.842L142.687 155.871L143.869 170.254L111.603 173.511L94.8603 174.699V152.75L110.7 143.495L109.908 142.138L94.4115 151.177L84.7597 149.904V151.488L94.3165 152.75V166.716L84.6911 167.735V169.319L94.3271 168.3V175.264L94.8973 195.006L84.5749 199.056V200.746L94.9712 196.675L95.2775 207.43L84.5432 208.106V208.454L84.5855 209.157L95.3091 208.475L95.3989 211.643H95.9269L95.8371 208.475L137.417 205.835C137.338 207.879 137.259 209.859 137.19 211.643H138.246C138.315 209.959 138.394 207.947 138.478 205.767L147.454 205.202L148.737 211.643H149.265L147.972 205.165L168.368 203.877L168.601 211.643H171.241M138.494 204.679C138.531 203.75 138.568 202.805 138.605 201.854H146.779L147.227 204.104L138.494 204.679ZM147.75 204.093L147.248 201.58L146.029 190.08L145.342 181.701L167.64 180.048L168.321 202.821L147.75 204.093ZM152.824 169.879L164.551 168.696L164.224 173.3L153.711 174.435L152.824 169.879ZM152.296 169.931L154.255 179.963L145.247 180.645L144.434 170.708L152.296 169.931ZM167.608 178.976L154.788 179.942L153.912 175.465L165.206 174.24L165.607 168.585L168.437 168.3L167.413 172.55L167.608 178.976ZM152.423 142.819L154.704 153.083L143.088 154.292L142.248 144.07L152.423 142.819ZM155.232 153.03L152.94 142.755L170.016 140.643L171.072 151.378L155.232 153.03ZM166.996 109.439L141.224 107.654L143.684 93.456L145.485 93.588H167.196L168.939 94.116L166.399 103.245L166.996 109.439ZM165.443 64.2576C165.417 66.9609 166.008 75.8736 174.557 78.9254L173.585 84.7334L168.263 83.3606L159.862 66.4963L165.443 64.2576ZM158.4 67.056L166.932 84.179L166.663 90.9638H149.72L145.2 72.2832L158.4 67.056ZM144.381 73.4553L148.642 90.9638H145.633L133.584 90.0662L133.293 73.92L144.381 73.4553ZM132.765 73.9252L133.029 90.0345L113.462 88.5825C113.546 85.9689 113.53 80.1609 113.462 74.7172L132.765 73.9252ZM92.949 61.8763L112.865 64.7381C112.965 73.0065 113.055 84.7229 112.955 88.5456L87.9699 86.6923L92.949 61.8763ZM143.151 93.4032L139.497 114.608H133.584V92.6956L143.151 93.4032ZM122.601 109.196H133.056V114.602H121.408L122.601 109.196ZM139.92 115.394L140.976 109.211L167.165 111.023L168.617 126.192L140.976 128.832L139.92 115.394ZM168.749 127.211L169.894 139.086L142.148 142.507L141.092 129.867L168.749 127.211ZM143.246 155.86L171.23 152.946L171.489 155.67L168.58 167.761L144.413 170.201L143.246 155.86ZM145.532 190.133L146.726 201.353H138.647C138.79 197.657 138.927 193.961 139.028 191.173C139.202 186.189 139.202 186.189 138.869 186.02L138.621 186.516L138.093 186.542C138.093 186.975 137.866 193.813 137.591 201.126L114.233 189.937L113.409 173.855L143.922 170.776L145.532 190.133ZM111.387 174.055L111.223 194.7L95.4781 195.45L94.8973 175.222L111.387 174.055ZM95.5098 196.453V195.983L111.756 195.212L111.925 174.018L112.923 173.918L113.768 190.286L137.56 201.696C137.523 202.71 137.486 203.734 137.444 204.748L95.7949 207.388L95.5098 196.453Z" fill="white"/>
<path d="M119.228 195.724L96.4866 197.319V204.621L134.027 202.588L119.228 195.724Z" fill="#E0E0E0"/>
<path d="M166.082 112.918L143.331 111.482L141.926 115.384L142.697 127.021L167.397 124.091L166.082 112.918Z" fill="#E0E0E0"/>
<path d="M111.154 63.3548L110.78 41.9602H99.6651L96.4443 61.2005L111.154 63.3548Z" fill="#E0E0E0"/>
<path d="M164.577 88.6406L165.707 84.0047L157.888 69.131L147.856 74.0678L151.198 88.139L164.577 88.6406Z" fill="#EBEBEB"/>
<path d="M84.4799 204.679H180.048V229.532C180.048 232.193 178.991 234.744 177.11 236.626C175.228 238.507 172.677 239.564 170.016 239.564H94.7653C92.035 239.557 89.4189 238.468 87.4908 236.535C85.5626 234.601 84.4798 231.983 84.4799 229.252V204.679Z" fill="#493169"/>
<path d="M109.412 216.828V222.673H112.58V224.347H107.437V216.828H109.412Z" fill="white"/>
<path d="M119.354 221.438C119.354 223.228 118.087 224.411 116.186 224.411C114.286 224.411 113.018 223.228 113.018 221.438C113.018 219.648 114.27 218.481 116.186 218.481C118.103 218.481 119.354 219.648 119.354 221.438ZM114.935 221.438C114.935 222.309 115.463 222.89 116.181 222.89C116.899 222.89 117.438 222.309 117.438 221.438C117.461 221.26 117.446 221.079 117.393 220.907C117.341 220.736 117.253 220.577 117.134 220.442C117.016 220.307 116.87 220.199 116.707 220.125C116.543 220.051 116.366 220.013 116.186 220.013C116.007 220.013 115.829 220.051 115.666 220.125C115.502 220.199 115.357 220.307 115.238 220.442C115.12 220.577 115.031 220.736 114.979 220.907C114.927 221.079 114.912 221.26 114.935 221.438Z" fill="white"/>
<path d="M122.939 220.055C122.253 220.055 121.778 220.625 121.778 221.459C121.778 222.293 122.253 222.864 122.939 222.864C123.172 222.878 123.404 222.823 123.605 222.707C123.807 222.59 123.97 222.417 124.075 222.209L125.479 223.017C125.126 223.563 124.608 223.983 124.001 224.214C123.393 224.446 122.727 224.478 122.1 224.306C121.473 224.133 120.917 223.765 120.514 223.255C120.11 222.745 119.88 222.12 119.856 221.47C119.832 221.07 119.893 220.67 120.035 220.296C120.178 219.922 120.398 219.582 120.682 219.299C120.965 219.017 121.306 218.798 121.68 218.657C122.055 218.516 122.455 218.456 122.855 218.481C123.372 218.454 123.886 218.567 124.343 218.809C124.801 219.05 125.184 219.412 125.453 219.854L124.08 220.657C123.956 220.468 123.787 220.313 123.587 220.208C123.388 220.103 123.165 220.05 122.939 220.055Z" fill="white"/>
<path d="M131.419 220.572V224.347H129.545V223.693C129.331 223.944 129.062 224.141 128.759 224.269C128.455 224.398 128.126 224.453 127.797 224.432C126.551 224.432 125.812 223.682 125.812 222.621C125.812 221.559 126.593 220.884 128.029 220.862H129.545V220.794C129.545 220.266 129.17 219.928 128.441 219.928C127.836 219.955 127.243 220.111 126.704 220.387L126.192 219.12C127.035 218.712 127.958 218.495 128.895 218.486C130.479 218.471 131.409 219.241 131.419 220.572ZM129.545 222.383V221.881H128.41C127.882 221.881 127.602 222.072 127.602 222.478C127.602 222.885 127.892 223.133 128.383 223.133C128.632 223.151 128.88 223.088 129.09 222.953C129.299 222.818 129.459 222.618 129.545 222.383Z" fill="white"/>
<path d="M136.483 224.046C135.997 224.311 135.451 224.444 134.899 224.432C134.645 224.458 134.388 224.429 134.146 224.347C133.905 224.264 133.684 224.13 133.499 223.954C133.314 223.778 133.17 223.563 133.076 223.326C132.982 223.088 132.941 222.833 132.956 222.578V220.086H132.153V218.824H132.956V217.214H134.851V218.824H136.356V220.086H134.851V222.288C134.851 222.716 135.047 222.906 135.379 222.901C135.628 222.879 135.872 222.813 136.097 222.705L136.483 224.046Z" fill="white"/>
<path d="M139.292 218.545V224.353H137.396V218.545H139.292ZM139.218 216.913C139.217 217.085 139.164 217.253 139.068 217.396C138.971 217.539 138.834 217.65 138.675 217.715C138.515 217.78 138.34 217.796 138.171 217.761C138.002 217.726 137.848 217.643 137.727 217.52C137.606 217.397 137.524 217.242 137.491 217.072C137.458 216.903 137.477 216.728 137.544 216.569C137.61 216.411 137.723 216.275 137.867 216.18C138.011 216.086 138.179 216.035 138.352 216.037C138.467 216.033 138.582 216.053 138.69 216.096C138.797 216.139 138.895 216.203 138.976 216.286C139.057 216.368 139.121 216.466 139.162 216.574C139.204 216.682 139.223 216.797 139.218 216.913Z" fill="white"/>
<path d="M146.684 220.704V224.363H144.783V221.232C144.797 221.096 144.782 220.958 144.739 220.828C144.695 220.698 144.624 220.578 144.531 220.478C144.437 220.378 144.323 220.299 144.196 220.247C144.069 220.195 143.932 220.171 143.795 220.176C143.5 220.176 143.216 220.291 143.004 220.497C142.792 220.703 142.668 220.984 142.66 221.28V224.347H140.754V218.539H142.66V219.484C142.858 219.156 143.141 218.888 143.48 218.708C143.818 218.529 144.199 218.445 144.582 218.465C145.844 218.471 146.684 219.326 146.684 220.704Z" fill="white"/>
<path d="M153.537 218.545V223.825C153.537 225.467 152.259 226.496 150.369 226.496C149.449 226.498 148.548 226.238 147.771 225.746L148.436 224.426C148.962 224.793 149.586 224.992 150.226 224.997C151.098 224.997 151.62 224.553 151.62 223.877V223.26C151.426 223.51 151.175 223.71 150.887 223.842C150.599 223.974 150.284 224.035 149.968 224.02C148.521 224.02 147.491 222.906 147.491 221.221C147.491 219.537 148.489 218.476 149.925 218.476C150.249 218.463 150.57 218.526 150.864 218.66C151.159 218.794 151.418 218.995 151.62 219.247V218.539L153.537 218.545ZM151.636 221.28C151.605 221.053 151.509 220.841 151.36 220.668C151.211 220.495 151.015 220.368 150.796 220.304C150.577 220.239 150.344 220.239 150.124 220.303C149.905 220.368 149.709 220.494 149.56 220.667C149.411 220.84 149.315 221.052 149.283 221.278C149.251 221.504 149.285 221.735 149.381 221.942C149.477 222.149 149.631 222.325 149.824 222.447C150.017 222.569 150.241 222.633 150.469 222.631C150.637 222.627 150.802 222.587 150.954 222.515C151.106 222.443 151.241 222.34 151.351 222.213C151.461 222.086 151.543 221.937 151.592 221.776C151.641 221.616 151.656 221.446 151.636 221.28Z" fill="white"/>
<path d="M94.9132 175.222L94.8129 174.171L143.827 169.726L140.559 129.909L138.89 116.044L133.056 116.276L133.03 90.8002L165.211 92.1413L165.882 82.4631L157.893 66.1162L165.512 63.1013L165.898 64.0834L159.345 66.6812L166.954 82.2519L166.943 82.3892L166.198 93.2396L134.086 91.9037L134.112 115.178L139.82 114.951L141.61 129.804L144.968 170.681L94.9132 175.222Z" fill="#BDB2CD"/>
<path d="M95.8794 174.699C95.8794 174.901 95.8195 175.098 95.7073 175.266C95.5951 175.434 95.4356 175.564 95.2491 175.641C95.0626 175.718 94.8574 175.738 94.6596 175.698C94.4618 175.659 94.2802 175.561 94.1379 175.418C93.9956 175.275 93.899 175.093 93.8603 174.895C93.8215 174.697 93.8425 174.492 93.9204 174.306C93.9983 174.12 94.1298 173.961 94.298 173.849C94.4663 173.738 94.6639 173.679 94.8656 173.68C94.9992 173.68 95.1315 173.707 95.2548 173.758C95.3781 173.809 95.4901 173.884 95.5843 173.979C95.6785 174.074 95.7531 174.186 95.8037 174.31C95.8544 174.433 95.8801 174.566 95.8794 174.699Z" fill="#BDB2CD"/>
<path d="M165.808 64.4265C166.268 64.4265 166.642 64.053 166.642 63.5923C166.642 63.1316 166.268 62.7581 165.808 62.7581C165.347 62.7581 164.974 63.1316 164.974 63.5923C164.974 64.053 165.347 64.4265 165.808 64.4265Z" fill="#BDB2CD"/>
<path d="M143.706 67.3676H101.735C101.285 67.3676 100.853 67.546 100.535 67.8637C100.216 68.1814 100.036 68.6125 100.035 69.0624V82.0618C100.036 82.5118 100.216 82.9429 100.535 83.2606C100.853 83.5783 101.285 83.7567 101.735 83.7567H132.887L133.172 87.6744L139.017 83.7567H143.727C144.176 83.7567 144.607 83.5781 144.925 83.2603C145.243 82.9424 145.422 82.5113 145.422 82.0618V69.0624C145.422 68.8381 145.377 68.6159 145.291 68.4089C145.204 68.2019 145.077 68.0141 144.918 67.8565C144.758 67.6988 144.569 67.5744 144.361 67.4905C144.153 67.4065 143.93 67.3648 143.706 67.3676Z" fill="white"/>
<path d="M143.706 67.3675C143.842 67.3575 143.98 67.37 144.112 67.4045C144.514 67.4918 144.87 67.725 145.11 68.0592C145.287 68.305 145.396 68.5925 145.427 68.8935C145.427 69.2261 145.427 69.5746 145.427 69.9495C145.427 70.7256 145.427 71.6127 145.427 72.5895C145.427 74.5906 145.427 77.0299 145.453 79.8442C145.453 80.5517 145.453 81.2803 145.453 82.0354C145.451 82.4471 145.308 82.8457 145.048 83.1647C144.787 83.4837 144.425 83.7038 144.022 83.7883C143.614 83.8285 143.203 83.8426 142.792 83.8306H138.959H139.017L133.177 87.7536L133.014 87.8645V87.6639C132.924 86.4442 132.824 85.1136 132.723 83.7514L132.845 83.8623H104.132H101.703C101.413 83.8573 101.128 83.7869 100.869 83.6563C100.613 83.5231 100.392 83.3312 100.224 83.0963C100.056 82.8614 99.9459 82.5902 99.9027 82.3047C99.8552 81.7344 99.9027 81.2487 99.8763 80.7207C99.8763 78.6087 99.8763 76.5319 99.8763 74.4903V69.2103C99.8646 68.949 99.9003 68.6878 99.9819 68.4394C100.069 68.1911 100.208 67.9645 100.39 67.7749C100.572 67.5854 100.793 67.4374 101.038 67.3411C101.278 67.2476 101.535 67.2044 101.793 67.2144H105.368L125.3 67.2408L138.737 67.2883L142.391 67.3147H143.341H143.669C143.669 67.3147 143.558 67.3147 143.341 67.3147H142.391H138.737L125.3 67.357L105.368 67.3887H101.793C101.566 67.3825 101.34 67.4201 101.128 67.4995C100.918 67.5826 100.729 67.7094 100.572 67.8714C100.416 68.0335 100.295 68.2271 100.22 68.4394C100.146 68.6604 100.116 68.8934 100.13 69.1258V69.865C100.13 70.3613 100.13 70.8629 100.13 71.3592V80.7312C100.13 81.2592 100.13 81.7872 100.13 82.3152C100.168 82.5578 100.263 82.7881 100.406 82.9879C100.549 83.1876 100.736 83.3514 100.953 83.4663C101.175 83.577 101.419 83.6366 101.666 83.6405H104.09H132.802H132.913V83.7514C133.014 85.1136 133.109 86.4495 133.193 87.6691L133.014 87.5794L138.864 83.6722H138.89H142.755C143.153 83.6876 143.552 83.6787 143.948 83.6458C144.312 83.5695 144.639 83.3705 144.873 83.0821C145.108 82.7937 145.236 82.4335 145.237 82.0618C145.237 81.3067 145.237 80.5781 145.237 79.8706C145.237 77.0563 145.237 74.5906 145.237 72.6159C145.237 71.6232 145.237 70.7362 145.237 69.9759C145.237 69.5957 145.237 69.2314 145.237 68.9199C145.211 68.631 145.109 68.3541 144.941 68.1173C144.711 67.7916 144.375 67.5563 143.991 67.452C143.897 67.4204 143.802 67.3922 143.706 67.3675Z" fill="#263238"/>
<path d="M133.584 93.2976C134.876 93.2976 135.923 92.2504 135.923 90.9586C135.923 89.6667 134.876 88.6195 133.584 88.6195C132.292 88.6195 131.245 89.6667 131.245 90.9586C131.245 92.2504 132.292 93.2976 133.584 93.2976Z" fill="#FFBD00"/>
<path d="M137.631 77.5226C137.435 77.5226 137.24 77.5226 137.031 77.5226C137.031 77.3947 137.031 77.271 137.031 77.1235C136.513 77.5212 135.955 77.6969 135.311 77.5395C134.884 77.4341 134.533 77.219 134.266 76.8845C133.721 76.2043 133.755 75.2528 134.347 74.6021C134.512 74.4208 134.71 74.2803 134.936 74.1734C135.16 74.068 135.396 74.0104 135.645 73.9921C135.898 73.9739 136.148 73.995 136.378 74.0947C136.6 74.1917 136.809 74.3112 137.027 74.4222C137.027 74.3154 137.027 74.1959 137.027 74.0638C137.235 74.0638 137.432 74.0638 137.63 74.0638C137.631 75.2163 137.631 76.3687 137.631 77.5226ZM137.031 75.7967C137.034 75.1559 136.485 74.6246 135.813 74.6204C135.131 74.6162 134.574 75.1376 134.571 75.7827C134.568 76.4306 135.116 76.9604 135.794 76.9632C136.47 76.9675 137.028 76.4418 137.031 75.7967Z" fill="#5E3F86"/>
<path d="M108 74.0637C108.155 74.0637 108.308 74.0637 108.472 74.0637C108.472 73.6154 108.472 73.1755 108.472 72.73C108.704 72.73 108.928 72.73 109.16 72.73C109.16 73.1741 109.16 73.614 109.16 74.0609C109.54 74.0609 109.909 74.0609 110.284 74.0609C110.284 74.2689 110.284 74.4699 110.284 74.6807C109.91 74.6807 109.543 74.6807 109.167 74.6807C109.164 74.7117 109.161 74.7341 109.161 74.758C109.161 75.2837 109.16 75.8093 109.161 76.3349C109.161 76.5331 109.242 76.7004 109.419 76.8072C109.505 76.8592 109.616 76.8887 109.718 76.8971C109.894 76.9112 110.073 76.9027 110.25 76.8999C110.304 76.8985 110.327 76.914 110.341 76.9646C110.388 77.1459 110.443 77.3272 110.497 77.5155C110.467 77.5183 110.446 77.5225 110.427 77.5225C110.123 77.5183 109.818 77.538 109.517 77.5043C108.911 77.4368 108.476 76.9533 108.475 76.3771C108.474 75.8487 108.475 75.3202 108.475 74.7918C108.475 74.7594 108.475 74.7257 108.475 74.6737C108.314 74.6737 108.156 74.6737 108 74.6737C108 74.4699 108 74.2675 108 74.0637Z" fill="#5D3F86"/>
<path d="M114.72 71C114.79 71.0239 114.863 71.0422 114.929 71.0731C115.314 71.253 115.407 71.7336 115.106 72.0246C114.954 72.1721 114.789 72.3042 114.617 72.4532C114.46 72.2972 114.262 72.1356 114.108 71.9431C113.858 71.6296 114.037 71.1701 114.436 71.0394C114.467 71.0295 114.497 71.0141 114.528 71.0014C114.594 71 114.656 71 114.72 71Z" fill="#FBB946"/>
<path d="M119.97 76.6061C120.139 75.7727 120.304 74.9561 120.465 74.1382C120.477 74.0791 120.494 74.0595 120.56 74.0609C120.761 74.0651 120.964 74.0623 121.178 74.0623C120.947 75.2203 120.719 76.3672 120.49 77.5211C120.258 77.5211 120.031 77.5239 119.804 77.5182C119.774 77.5168 119.735 77.4747 119.716 77.4424C119.357 76.8493 119.001 76.2548 118.645 75.6603C118.626 75.6293 118.606 75.5984 118.58 75.5548C118.556 75.5914 118.536 75.6209 118.519 75.649C118.158 76.2477 117.796 76.8464 117.439 77.448C117.405 77.5056 117.368 77.5253 117.299 77.5239C117.091 77.5197 116.882 77.5225 116.666 77.5225C116.437 76.37 116.208 75.2232 115.978 74.0693C116.211 74.0693 116.435 74.0693 116.674 74.0693C116.842 74.9055 117.01 75.7446 117.184 76.6061C117.211 76.5668 117.228 76.5443 117.242 76.5218C117.546 76.0158 117.851 75.5099 118.152 75.0025C118.188 74.9421 118.227 74.921 118.3 74.9224C118.483 74.928 118.666 74.928 118.851 74.9224C118.932 74.9196 118.973 74.9491 119.011 75.0137C119.317 75.5295 119.626 76.0425 119.936 76.5555C119.942 76.5682 119.951 76.5794 119.97 76.6061Z" fill="#5E3F86"/>
<path d="M124.917 74.4573C124.917 74.3168 124.917 74.1973 124.917 74.0708C125.148 74.0708 125.372 74.0708 125.605 74.0708C125.605 75.2191 125.605 76.3659 125.605 77.5184C125.377 77.5184 125.154 77.5184 124.923 77.5184C124.923 77.3933 124.923 77.2696 124.923 77.1249C124.379 77.5353 123.794 77.7067 123.124 77.524C122.706 77.4102 122.366 77.1881 122.113 76.8522C121.575 76.1411 121.636 75.1952 122.266 74.5529C122.613 74.2001 123.051 74.0174 123.559 73.9907C124.07 73.964 124.506 74.1467 124.917 74.4573ZM122.439 75.7883C122.438 76.4348 122.988 76.9689 123.667 76.9618C124.363 76.9548 124.914 76.4601 124.918 75.7995C124.923 75.132 124.37 74.6316 123.675 74.6218C122.993 74.6133 122.441 75.1432 122.439 75.7883Z" fill="#5E4087"/>
<path d="M130.246 77.5184C130.013 77.5184 129.792 77.5184 129.566 77.5184C129.566 76.3674 129.566 75.2205 129.566 74.0681C129.791 74.0681 130.013 74.0681 130.243 74.0681C130.243 74.1707 130.243 74.2705 130.243 74.3927C130.297 74.3576 130.336 74.3309 130.376 74.3056C130.684 74.1102 131.015 73.9824 131.394 73.995C132.27 74.0217 132.98 74.6401 133.078 75.4637C133.089 75.5466 133.093 75.6295 133.093 75.7139C133.095 76.2817 133.093 76.848 133.093 77.4158C133.093 77.4482 133.093 77.4805 133.093 77.5184C132.864 77.5184 132.641 77.5184 132.407 77.5184C132.407 77.4847 132.407 77.4538 132.407 77.4215C132.407 76.8396 132.408 76.2578 132.407 75.6759C132.405 75.2472 132.14 74.8692 131.735 74.709C131.043 74.4363 130.255 74.924 130.248 75.6337C130.242 76.2282 130.246 76.8213 130.246 77.4158C130.246 77.4468 130.246 77.4791 130.246 77.5184Z" fill="#5D3F86"/>
<path d="M127.458 77.5198C127.225 77.5198 127.004 77.5198 126.778 77.5198C126.778 76.3701 126.778 75.2233 126.778 74.0694C127 74.0694 127.223 74.0694 127.455 74.0694C127.455 74.1762 127.455 74.2845 127.455 74.4039C127.857 74.1214 128.306 74.016 128.796 73.9851C128.738 74.2114 128.682 74.4208 128.627 74.6344C128.398 74.64 128.185 74.6906 127.993 74.8045C127.646 75.0111 127.46 75.3062 127.458 75.6955C127.455 76.2689 127.458 76.841 127.458 77.4144C127.458 77.4467 127.458 77.479 127.458 77.5198Z" fill="#5D3E86"/>
<path d="M111.325 74.0652C111.553 74.0652 111.773 74.0652 112.004 74.0652C112.004 74.1762 112.004 74.2844 112.004 74.4011C112.406 74.1186 112.853 74.0146 113.342 73.9836C113.286 74.1973 113.237 74.3968 113.18 74.595C113.174 74.6147 113.125 74.633 113.095 74.6358C112.686 74.6737 112.361 74.8438 112.147 75.1811C112.05 75.3357 112.005 75.5043 112.005 75.6856C112.007 76.2619 112.005 76.8381 112.005 77.4129C112.005 77.4452 112.005 77.4776 112.005 77.5155C111.776 77.5155 111.554 77.5155 111.325 77.5155C111.325 76.3687 111.325 75.2218 111.325 74.0652Z" fill="#5D3E86"/>
<path d="M114.971 77.5185C114.742 77.5185 114.519 77.5185 114.291 77.5185C114.291 76.3688 114.291 75.2234 114.291 74.0709C114.516 74.0709 114.74 74.0709 114.971 74.0709C114.971 75.2206 114.971 76.3674 114.971 77.5185Z" fill="#5E3F86"/>
<path d="M114.861 72.7666C115.037 72.5867 115.187 72.4026 115.369 72.2536C115.569 72.0905 115.901 72.1046 116.112 72.2522C116.349 72.4166 116.443 72.6766 116.355 72.9324C116.27 73.1812 116.026 73.347 115.746 73.3512C115.558 73.354 115.4 73.2922 115.271 73.1657C115.129 73.0252 114.986 72.8874 114.861 72.7666Z" fill="#FBB946"/>
<path d="M114.431 72.7524C114.246 72.9183 114.083 73.0799 113.902 73.2247C113.69 73.3947 113.38 73.3947 113.152 73.2444C112.918 73.0883 112.82 72.8227 112.903 72.5655C112.982 72.3196 113.232 72.1481 113.509 72.1439C113.688 72.1411 113.837 72.2001 113.962 72.3168C114.115 72.4573 114.269 72.5993 114.431 72.7524Z" fill="#FBB946"/>
<path d="M64.6483 171.975C64.6483 171.975 69.9283 200.651 68.3918 206.633C67.1299 211.617 38.016 234.131 38.016 234.131L33.9821 230.023C33.9821 230.023 42.203 220.899 46.295 212.472C49.0406 206.812 55.9416 202.398 55.9416 202.398L47.6256 176.785L64.6483 171.975Z" fill="#FFD4C9"/>
<path d="M56.6861 205.952L55.0387 200.144L56.6861 205.952Z" fill="#CC725A"/>
<path d="M55.0387 200.154C55.1911 201.149 55.4278 202.13 55.7462 203.085C55.9814 204.064 56.2957 205.023 56.6861 205.952C56.5275 204.958 56.2909 203.978 55.9785 203.021C55.7423 202.042 55.428 201.083 55.0387 200.154Z" fill="#844031"/>
<path d="M40.3128 235.176L39.9115 235.557C39.9115 235.557 43.5758 244.992 42.3456 246.259L29.6736 232.616L34.3886 228.587C34.8436 230.047 35.6084 231.392 36.6309 232.529C37.6533 233.666 38.9092 234.569 40.3128 235.176Z" fill="#FFBD00"/>
<g opacity="0.6">
<path d="M34.2301 231.317C34.0672 231.224 33.876 231.193 33.6923 231.231C33.5086 231.269 33.345 231.373 33.2322 231.523C33.1341 231.681 33.0996 231.872 33.1359 232.055C33.1721 232.238 33.2763 232.401 33.4276 232.51C33.6 232.61 33.8031 232.642 33.998 232.601C34.1929 232.56 34.3658 232.449 34.4836 232.288C34.5716 232.113 34.5878 231.91 34.5286 231.722C34.4695 231.535 34.3397 231.378 34.1668 231.285" fill="white"/>
</g>
<g opacity="0.6">
<path d="M29.6842 232.616L30.8194 231.649L42.5357 245.076C42.5357 245.076 42.8367 245.932 42.3456 246.259L29.6842 232.616Z" fill="white"/>
</g>
<path d="M39.9168 235.641C39.8482 235.699 39.5102 235.398 38.9875 235.266C38.4648 235.134 38.016 235.224 38.016 235.139C38.016 235.055 38.4595 234.791 39.072 234.96C39.6845 235.129 39.9907 235.599 39.9168 235.641Z" fill="#263238"/>
<path d="M40.656 237.6C40.6085 237.674 40.2283 237.494 39.732 237.526C39.2357 237.558 38.8819 237.774 38.8238 237.706C38.7657 237.637 39.1037 237.241 39.7161 237.209C40.3286 237.178 40.7141 237.563 40.656 237.6Z" fill="#263238"/>
<path d="M39.695 240.023C39.6211 239.976 39.8693 239.575 40.392 239.406C40.9147 239.237 41.353 239.406 41.3213 239.495C41.2896 239.585 40.92 239.564 40.4923 239.707C40.0646 239.849 39.7637 240.082 39.695 240.023Z" fill="#263238"/>
<path d="M47.3193 175.94L46.7543 204.019L44.0721 243.239H37.2081C37.2081 243.239 34.1246 224.896 34.2671 215.308C34.4097 205.719 34.3199 202.192 34.2671 201.015C34.2143 199.837 30.8932 186.954 30.1646 177.339C29.4359 167.724 34.2671 165.195 34.2671 165.195L47.3193 175.94Z" fill="#FFD4C9"/>
<path d="M47.3193 175.94L47.1081 175.755C46.955 175.628 46.7438 175.444 46.4587 175.227L43.9296 173.115L34.32 165.142L34.2777 165.105L34.2408 165.132C33.3948 165.678 32.6748 166.398 32.1288 167.244C31.5346 168.146 31.0707 169.127 30.7507 170.158C30.1101 172.435 29.8883 174.809 30.096 177.165C30.5743 182.572 31.3943 187.944 32.5512 193.248C32.8574 194.679 33.1636 196.136 33.4804 197.614C33.6353 198.354 33.7937 199.098 33.9556 199.848C34.0296 200.217 34.114 200.608 34.1563 200.967C34.1985 201.326 34.188 201.738 34.1985 202.129C34.2619 205.239 34.2408 208.465 34.1985 211.717C34.1985 213.354 34.1352 215.007 34.1616 216.686C34.1616 217.525 34.2144 218.37 34.2355 219.215L34.3939 221.76C34.6473 225.171 35.0275 228.624 35.4499 232.13C35.9304 235.921 36.5059 239.649 37.0708 243.281V243.381H44.183V243.271C44.8377 233.656 45.4449 224.643 45.994 216.533C46.2686 212.483 46.522 208.655 46.7702 205.091C46.8441 204.199 46.8547 203.322 46.8652 202.451C46.8758 201.58 46.9022 200.745 46.9128 199.922C46.9444 198.269 46.9761 196.685 47.0025 195.17C47.1081 189.156 47.1926 184.351 47.2507 181.035C47.2507 179.388 47.2929 178.115 47.3088 177.244C47.3088 176.822 47.3088 176.494 47.3088 176.267C47.3088 176.04 47.3088 175.94 47.3088 175.94C47.3088 175.94 47.3088 176.056 47.3088 176.278C47.3088 176.5 47.3088 176.832 47.2771 177.265C47.2771 178.137 47.2243 179.414 47.182 181.062C47.1081 184.372 46.9972 189.177 46.86 195.186C46.8283 196.689 46.7931 198.264 46.7544 199.911C46.7544 200.735 46.7227 201.58 46.7016 202.435C46.6804 203.29 46.7016 204.167 46.596 205.075C46.3478 208.639 46.068 212.467 45.7987 216.517C45.239 224.627 44.6212 233.635 43.956 243.244L44.0774 243.133H37.2134L37.3348 243.234C36.7382 239.606 36.1944 235.884 35.7139 232.093C35.2704 228.597 34.8902 225.139 34.6579 221.739C34.6051 220.889 34.5523 220.039 34.4995 219.199C34.4467 218.36 34.4203 217.515 34.4203 216.681C34.4203 215.012 34.452 213.349 34.4572 211.712C34.4889 208.433 34.51 205.233 34.4572 202.118C34.4572 201.728 34.4572 201.342 34.4097 200.946C34.3622 200.55 34.2777 200.175 34.2038 199.795C34.0401 199.045 33.8817 198.301 33.7233 197.562L32.7888 193.2C31.6212 187.913 30.7853 182.557 30.286 177.165C30.0821 174.836 30.3004 172.489 30.9302 170.238C31.2363 169.227 31.6824 168.263 32.2555 167.376C32.7814 166.531 33.4839 165.811 34.3147 165.264H34.2302L43.8609 173.147L46.427 175.259L47.087 175.787L47.3193 175.94Z" fill="#844031"/>
<path d="M44.9381 241.069V241.597C44.9381 241.597 53.8772 245.145 53.9775 246.835H36.2578L36.506 240.937C37.8199 241.562 39.2528 241.897 40.7077 241.92C42.1626 241.943 43.6053 241.653 44.9381 241.069Z" fill="#FFBD00"/>
<g opacity="0.6">
<path d="M38.3011 242.806C38.1255 242.853 37.974 242.965 37.8763 243.118C37.7786 243.271 37.7418 243.456 37.7731 243.635C37.8192 243.806 37.9291 243.954 38.0802 244.047C38.2313 244.14 38.4123 244.172 38.5862 244.137C38.7675 244.082 38.9221 243.962 39.0197 243.8C39.1174 243.638 39.151 243.446 39.1142 243.26C39.0498 243.085 38.9191 242.942 38.7502 242.862C38.5814 242.782 38.3879 242.771 38.2113 242.832" fill="white"/>
</g>
<g opacity="0.6">
<path d="M36.2631 246.819L36.3211 245.398L53.2858 245.926C53.2858 245.926 54.0725 246.27 53.9827 246.824L36.2631 246.819Z" fill="white"/>
</g>
<path d="M45.0015 241.644C45.0015 241.729 44.5685 241.766 44.1408 242.046C43.7131 242.326 43.4914 242.69 43.4069 242.653C43.3224 242.616 43.4597 242.125 43.9824 241.792C44.5051 241.46 45.0226 241.565 45.0015 241.644Z" fill="#263238"/>
<path d="M46.86 242.41C46.86 242.495 46.5062 242.642 46.2105 243.007C45.9148 243.371 45.8356 243.762 45.7459 243.756C45.6561 243.751 45.6086 243.265 45.9782 242.817C46.3478 242.368 46.86 242.352 46.86 242.41Z" fill="#263238"/>
<path d="M47.916 244.638C47.8368 244.638 47.7154 244.226 47.916 243.751C48.1167 243.276 48.5443 243.086 48.5813 243.16C48.6183 243.234 48.3701 243.487 48.1906 243.878C48.011 244.269 48.0005 244.628 47.916 244.638Z" fill="#263238"/>
<path d="M55.2764 84.5591C54.2443 85.2053 53.3839 86.0918 52.7688 87.1427C52.1537 88.1936 51.8021 89.3778 51.744 90.5941C51.6965 91.7716 51.8655 93.1391 51.0048 93.9469C50.1442 94.7548 48.6816 94.5436 47.8368 95.3672C46.8653 96.3388 47.3933 98.0072 46.934 99.3061C46.7008 99.9082 46.2608 100.407 45.6927 100.714C45.1247 101.021 44.4659 101.115 43.8346 100.98C45.1916 102.374 46.9073 103.366 48.7925 103.847L50.4716 102.141C50.1852 102.466 50.0156 102.878 49.9898 103.31C49.9639 103.743 50.0833 104.171 50.329 104.528C50.8402 105.232 51.5471 105.77 52.3618 106.075C54.2587 106.91 56.323 107.294 58.3932 107.198C60.4634 107.102 62.4833 106.528 64.2946 105.521" fill="#263238"/>
<path d="M76.0321 97.3948C75.7578 96.4888 75.5322 95.5688 75.3562 94.6387C75.1609 92.6111 76.3805 90.4991 75.6308 88.6089C75.1028 87.2625 73.7088 86.4969 72.3836 85.8897C71.0583 85.2825 69.6168 84.7809 68.6876 83.651C68.0223 82.822 67.7108 81.7555 67.0455 80.9265C66.1004 79.7438 64.5639 79.2052 63.0749 78.9359C61.5454 78.6103 59.9577 78.6848 58.4655 79.1524C57.7258 79.3947 57.0536 79.8078 56.5032 80.3582C55.9529 80.9085 55.5398 81.5808 55.2975 82.3204C55.0916 83.0491 55.0969 83.8358 54.7695 84.5274C54.4421 85.2191 53.7135 85.8263 53.2647 86.518C52.7908 87.2636 52.5773 88.1452 52.6575 89.0251C52.7378 89.9049 53.1072 90.7333 53.7082 91.3809L62.7212 106.276C64.8332 107.369 70.3508 106.973 72.2621 105.531C74.1735 104.09 76.502 99.7391 76.0321 97.3948Z" fill="#263238"/>
<path d="M54.1886 89.6702C54.9806 86.6183 57.7632 83.218 60.7834 84.142L69.9336 88.4399C70.3755 88.574 70.7507 88.8696 70.9846 89.2678C71.2184 89.666 71.2937 90.1377 71.1955 90.5889L66.9187 113.293C66.9454 113.287 66.9733 113.289 66.9985 113.3C67.0237 113.31 67.0451 113.329 67.0595 113.352C67.074 113.375 67.081 113.402 67.0794 113.429C67.0778 113.457 67.0678 113.483 67.0507 113.504C65.7149 115.035 59.4845 121.667 54.1781 118.784C52.9954 118.15 54.817 114.391 54.8381 112.923L55.4294 109.227C55.7726 107.353 55.9205 106.587 55.9152 106.587C55.9099 106.587 52.0925 105.162 52.272 99.85C52.3618 97.2417 53.328 93.0652 54.1886 89.6702Z" fill="#FFD4C9"/>
<path d="M55.0229 94.4274C54.9887 94.6018 55.0252 94.7825 55.1242 94.93C55.2231 95.0775 55.3766 95.1797 55.5509 95.2142C55.6338 95.2372 55.7204 95.2433 55.8057 95.2323C55.891 95.2213 55.9732 95.1933 56.0475 95.15C56.1218 95.1067 56.1867 95.049 56.2384 94.9802C56.29 94.9114 56.3273 94.833 56.3482 94.7495C56.3823 94.5752 56.3459 94.3944 56.2469 94.2469C56.1479 94.0994 55.9944 93.9973 55.8202 93.9628C55.7373 93.9398 55.6506 93.9336 55.5653 93.9446C55.48 93.9557 55.3978 93.9836 55.3235 94.0269C55.2492 94.0702 55.1843 94.128 55.1327 94.1968C55.0811 94.2656 55.0437 94.344 55.0229 94.4274Z" fill="#263238"/>
<path d="M61.4328 96.0959C61.3985 96.2709 61.4348 96.4523 61.5337 96.6006C61.6326 96.749 61.7861 96.8522 61.9608 96.8879C62.0436 96.9109 62.1303 96.9171 62.2156 96.9061C62.3009 96.8951 62.3831 96.8671 62.4574 96.8238C62.5317 96.7805 62.5966 96.7227 62.6482 96.6539C62.6999 96.5852 62.7372 96.5067 62.758 96.4233C62.7922 96.249 62.7558 96.0682 62.6568 95.9207C62.5578 95.7732 62.4043 95.671 62.23 95.6366C62.1475 95.6127 62.061 95.6058 61.9758 95.6161C61.8905 95.6264 61.8082 95.6539 61.7338 95.6968C61.6593 95.7396 61.5943 95.7971 61.5426 95.8657C61.4909 95.9343 61.4535 96.0126 61.4328 96.0959Z" fill="#263238"/>
<path d="M54.384 92.0673C54.4421 92.1993 55.1074 91.8772 55.873 92.0673C56.6386 92.2574 57.0716 92.8593 57.1877 92.7696C57.3039 92.6798 57.1877 92.5161 57.0188 92.2416C56.7731 91.8973 56.4139 91.6508 56.0043 91.5455C55.5948 91.4403 55.1612 91.4829 54.78 91.666C54.4949 91.835 54.384 92.0092 54.384 92.0673Z" fill="#263238"/>
<path d="M61.248 93.6777C61.3272 93.7991 61.9925 93.4295 62.832 93.5615C63.6715 93.6935 64.2048 94.2321 64.3104 94.137C64.416 94.042 64.3104 93.8836 64.0623 93.6354C63.7531 93.3154 63.3471 93.1062 62.907 93.0403C62.467 92.9745 62.0175 93.0556 61.6282 93.2711C61.3061 93.4559 61.1847 93.6196 61.248 93.6777Z" fill="#263238"/>
<path d="M58.0378 98.2924C57.685 98.1054 57.3109 97.9618 56.9237 97.8647C56.7442 97.8066 56.5805 97.738 56.5752 97.6113C56.5913 97.4162 56.669 97.2313 56.797 97.0833L57.6048 95.8055C58.7294 93.9786 59.5848 92.4685 59.5109 92.421C58.703 93.4363 57.9757 94.5132 57.3355 95.6418L56.5541 96.9354C56.3957 97.1324 56.3133 97.3797 56.3218 97.6324C56.3356 97.7015 56.3652 97.7665 56.4083 97.8224C56.4513 97.8782 56.5066 97.9234 56.5699 97.9545C56.6635 98.0012 56.7629 98.0349 56.8656 98.0548C57.2441 98.1856 57.6382 98.2655 58.0378 98.2924Z" fill="#263238"/>
<path d="M55.9151 106.619C58.3374 107.117 60.8504 106.935 63.1751 106.091C63.1751 106.091 60.741 109.375 55.6722 107.891L55.9151 106.619Z" fill="#844031"/>
<path d="M59.986 100.642C59.9224 100.458 59.8134 100.293 59.6692 100.162C59.4868 100.047 59.2701 100 59.0567 100.03C58.7429 100.038 58.4406 100.15 58.1961 100.346C58.0749 100.445 57.9825 100.575 57.9286 100.722C57.8747 100.868 57.8613 101.027 57.8899 101.181C57.9374 101.492 58.3651 101.709 58.666 101.798C58.9711 101.876 59.2938 101.846 59.5795 101.714C59.7037 101.675 59.8166 101.607 59.9086 101.515C60.0006 101.423 60.0688 101.31 60.1075 101.186C60.1194 100.997 60.0773 100.808 59.986 100.642Z" fill="#844031"/>
<path d="M59.9545 99.6124C59.8436 99.6124 59.6905 100.357 58.8985 100.779C58.1065 101.202 57.3145 100.954 57.3145 101.059C57.3145 101.165 57.4676 101.244 57.8108 101.323C58.2635 101.415 58.7342 101.346 59.1413 101.128C59.5295 100.918 59.8211 100.566 59.9545 100.146C60.0601 99.8289 60.0073 99.6177 59.9545 99.6124Z" fill="#263238"/>
<path d="M61.4803 91.74C61.512 91.9459 62.2406 91.9934 63.0643 92.268C63.888 92.5426 64.511 92.8858 64.6483 92.7326C64.7117 92.6587 64.6483 92.4581 64.3949 92.2046C64.079 91.9006 63.6953 91.6762 63.2755 91.5499C62.8575 91.4185 62.4146 91.386 61.9819 91.4549C61.6493 91.5182 61.4697 91.6397 61.4803 91.74Z" fill="#263238"/>
<path d="M55.4665 89.2637C55.5774 89.4538 56.1687 89.3957 56.8446 89.5171C57.5204 89.6385 58.0642 89.8656 58.2279 89.723C58.3018 89.6544 58.2279 89.4749 58.0273 89.2742C57.727 89.0186 57.3612 88.8522 56.9713 88.7938C56.5832 88.7196 56.1819 88.7581 55.815 88.9046C55.5246 89.0208 55.4401 89.1739 55.4665 89.2637Z" fill="#263238"/>
<path d="M71.9506 89.4273C71.4745 88.6719 70.7751 88.0832 69.9494 87.743C66.5596 85.9613 62.9681 84.5928 59.2522 83.6669C58.6925 84.385 59.004 85.4885 59.6482 86.1326C60.3502 86.714 61.1396 87.1808 61.9872 87.516C62.8003 87.9331 63.6134 88.5192 63.8616 89.3957C64.1098 90.2721 63.6979 91.344 63.9197 92.2838C64.2998 93.9101 66.4171 94.6598 66.792 96.2861C67.0718 97.511 66.264 98.6937 65.9314 99.9134C65.7701 100.534 65.7433 101.181 65.8527 101.813C65.9621 102.444 66.2052 103.045 66.5656 103.575C66.9261 104.105 67.3956 104.552 67.9428 104.886C68.4899 105.219 69.1021 105.432 69.7382 105.51C70.5091 101.068 71.2818 96.6293 72.0562 92.1941C72.2198 91.2648 72.3677 90.288 71.9506 89.4273Z" fill="#263238"/>
<path d="M79.6541 101.756C79.0205 101.043 78.2021 100.394 78.0226 99.454C77.7639 98.0917 79.0047 96.6608 78.4609 95.3831C77.9645 94.2162 76.1271 94.0631 75.673 92.8751C75.3245 91.9511 75.9317 91.2383 75.8473 90.4516C75.7381 90.0236 75.4976 89.6406 75.1595 89.3565C74.8214 89.0723 74.4027 88.9013 73.9623 88.8676L66.8396 97.0093C65.9314 99.9133 65.1764 101.429 65.6146 103.234C65.9272 104.207 66.1326 105.211 66.2271 106.228C66.2704 106.74 66.1768 107.254 65.956 107.718C65.7352 108.182 65.3951 108.579 64.9705 108.868C68.582 109.576 72.2252 108.06 75.5991 106.577L79.1684 104.993C79.5546 104.861 79.9013 104.634 80.1769 104.333C80.7841 103.583 80.2877 102.469 79.6541 101.756Z" fill="#263238"/>
<path d="M75.7945 105.684C75.6621 105.709 75.5277 105.719 75.3932 105.716C75.0088 105.708 74.6286 105.635 74.2686 105.5C73.8237 105.333 73.4171 105.078 73.0734 104.75C72.7296 104.422 72.4558 104.028 72.2683 103.591C72.0809 103.155 71.9837 102.685 71.9827 102.21C71.9816 101.735 72.0767 101.264 72.2622 100.827C72.4825 100.366 72.763 99.9362 73.0964 99.549C73.4469 99.15 73.7369 98.7017 73.957 98.2185C74.0767 97.9716 74.1388 97.7008 74.1388 97.4265C74.1388 97.1521 74.0767 96.8813 73.957 96.6345C73.6772 96.154 73.07 95.9692 72.5262 95.6735C72.2165 95.5369 71.9628 95.2985 71.8072 94.9979C71.6516 94.6973 71.6035 94.3526 71.6708 94.0209C71.8262 93.3854 72.0383 92.7652 72.3044 92.1676C72.4122 91.8704 72.4519 91.5528 72.4206 91.2383C72.3747 90.9259 72.2172 90.6407 71.977 90.4357C71.4455 90.0547 70.8224 89.8214 70.1713 89.7599C69.5108 89.6592 68.8862 89.3941 68.355 88.989C67.8453 88.5862 67.4563 88.051 67.2303 87.442C67.0447 86.86 66.952 86.2524 66.9558 85.6415C66.9574 85.0757 66.9008 84.5113 66.7868 83.9572C66.653 83.4474 66.4118 82.9721 66.0793 82.5633C65.4655 81.8284 64.6203 81.3239 63.6822 81.1324C62.9069 80.9816 62.1047 81.0548 61.3695 81.3436C60.809 81.5526 60.2905 81.8601 59.8383 82.2517C59.4566 82.591 59.1179 82.9758 58.8298 83.3975C58.8298 83.3975 58.8298 83.3605 58.8721 83.3025C58.9143 83.2444 58.9566 83.1599 59.0305 83.049C59.248 82.7339 59.5013 82.445 59.7855 82.1884C60.2367 81.777 60.7592 81.4513 61.3273 81.2274C62.0835 80.9213 62.9114 80.8371 63.7138 80.9845C64.6916 81.1726 65.5751 81.6908 66.2166 82.4524C66.5665 82.8806 66.8236 83.3768 66.9716 83.9097C67.0927 84.4754 67.1529 85.0524 67.1511 85.6309C67.1511 86.2221 67.2419 86.8098 67.4204 87.3733C67.6371 87.9426 68.0016 88.4438 68.4764 88.8253C68.9835 89.2086 69.5792 89.4574 70.2082 89.5487C70.8929 89.6269 71.5439 89.8876 72.0932 90.3037C72.3758 90.5394 72.5634 90.8696 72.6212 91.233C72.659 91.581 72.6175 91.933 72.4998 92.2626C72.2343 92.8472 72.024 93.4553 71.8714 94.0789C71.8204 94.3709 71.861 94.6716 71.9876 94.9396C72.1339 95.1932 72.3527 95.3973 72.6159 95.5257C72.8746 95.6682 73.1439 95.7844 73.429 95.9322C73.7094 96.0773 73.9462 96.2941 74.1154 96.5605C74.2456 96.8316 74.3132 97.1284 74.3132 97.4291C74.3132 97.7298 74.2456 98.0266 74.1154 98.2977C73.8871 98.7978 73.5845 99.2607 73.2178 99.6705C72.8896 100.041 72.6142 100.455 72.3994 100.901C72.2189 101.32 72.1221 101.77 72.1143 102.226C72.1022 103.015 72.3634 103.783 72.8535 104.401C73.2318 104.868 73.7223 105.232 74.2791 105.457C74.7652 105.629 75.2795 105.706 75.7945 105.684Z" fill="#455A64"/>
<path d="M81.3859 99.9556C81.437 100.052 81.4659 100.158 81.4704 100.267C81.4943 100.584 81.4024 100.899 81.2117 101.154C81.0734 101.34 80.8923 101.491 80.6837 101.592C80.432 101.704 80.1542 101.745 79.8811 101.709C79.5474 101.665 79.2323 101.53 78.9705 101.318C78.7087 101.107 78.5104 100.827 78.3975 100.51C78.2627 100.146 78.2175 99.7547 78.2655 99.3695C78.3279 98.9605 78.4658 98.5666 78.672 98.2079C79.0522 97.4476 79.6647 96.74 79.7861 95.8213C79.8289 95.5963 79.8261 95.3649 79.7781 95.1409C79.73 94.917 79.6376 94.7049 79.5063 94.5172C79.1706 94.1684 78.7123 93.9638 78.2285 93.9469C77.6842 93.9281 77.1477 93.8119 76.6445 93.6037C76.3875 93.4641 76.1821 93.2457 76.0584 92.9807C75.9388 92.7191 75.8793 92.434 75.8842 92.1464C75.9187 91.5981 76.0252 91.0566 76.201 90.536C76.3382 90.043 76.3688 89.5264 76.2907 89.0207C76.1356 88.059 75.6202 87.1925 74.8493 86.5972C74.11 86.1124 73.2636 85.8152 72.3835 85.7312C71.5984 85.6395 70.8323 85.4257 70.1131 85.0976C69.5323 84.7976 69.0171 84.3848 68.5978 83.8832C68.2813 83.5059 68.0248 83.0821 67.8375 82.6266C67.6646 82.2451 67.5627 81.8354 67.5365 81.4175C67.6247 81.8207 67.7502 82.2149 67.9114 82.5949C68.3753 83.6212 69.1765 84.4578 70.1818 84.9656C70.892 85.2736 71.6452 85.4713 72.4152 85.5517C73.3249 85.6353 74.2003 85.9398 74.9655 86.4388C75.7845 87.0606 76.3329 87.9738 76.4967 88.989C76.578 89.5175 76.5474 90.0571 76.4069 90.573C76.242 91.0763 76.1375 91.5974 76.0954 92.1253C76.0772 92.3772 76.1281 92.6293 76.2425 92.8545C76.3569 93.0796 76.5306 93.2693 76.7448 93.4031C77.219 93.5949 77.7227 93.7038 78.2338 93.7252C78.4999 93.7355 78.7614 93.7982 79.0033 93.9096C79.2452 94.0211 79.4627 94.1791 79.6435 94.3746C79.7913 94.5839 79.8955 94.8207 79.9499 95.0711C80.0044 95.3214 80.0079 95.5801 79.9603 95.8319C79.8828 96.2993 79.7161 96.7474 79.4693 97.1519C79.2423 97.5426 78.9994 97.9069 78.8093 98.2712C78.6126 98.6159 78.4802 98.9933 78.4186 99.3853C78.3737 99.7412 78.4117 100.103 78.5295 100.441C78.6312 100.736 78.8113 100.997 79.0504 101.197C79.2894 101.397 79.5785 101.528 79.8864 101.577C80.1386 101.614 80.3962 101.581 80.6309 101.481C80.8257 101.391 80.9959 101.255 81.1272 101.085C81.3166 100.849 81.4175 100.554 81.4123 100.251C81.4105 100.152 81.4017 100.053 81.3859 99.9556Z" fill="#263238"/>
<path d="M42.6676 97.7064C42.5293 98.0051 42.4958 98.3419 42.5726 98.662C42.6123 98.8454 42.6927 99.0174 42.8078 99.1655C42.923 99.3135 43.07 99.4338 43.2379 99.5174C43.4653 99.6142 43.7152 99.6457 43.9596 99.6084C44.2039 99.571 44.433 99.4664 44.6212 99.3062C44.8373 99.1187 44.9796 98.8604 45.0225 98.5776C45.0697 98.265 45.059 97.9464 44.9908 97.6377C44.8694 96.9988 44.5526 96.2808 44.7057 95.4782C44.7796 95.0719 44.9382 94.6856 45.1711 94.3445C45.4039 94.0034 45.7059 93.7151 46.0574 93.4982C46.4262 93.2685 46.8344 93.1092 47.2612 93.0283C47.6997 92.9606 48.1449 92.9482 48.5865 92.9913C49.0114 93.0334 49.4394 93.0334 49.8643 92.9913C50.2642 92.957 50.6387 92.781 50.9203 92.495C51.1759 92.1948 51.3423 91.829 51.4008 91.439C51.464 91.0639 51.4746 90.6818 51.4324 90.3038C51.3149 89.5849 51.2882 88.854 51.3532 88.1284C51.464 87.4896 51.7617 86.898 52.2086 86.4283C52.5856 86.0609 53.0279 85.7672 53.5128 85.5624C53.8786 85.4156 54.2318 85.239 54.5688 85.0344C54.8406 84.8487 55.0737 84.612 55.2552 84.3374C55.257 84.3585 55.257 84.3797 55.2552 84.4008C55.2313 84.4601 55.2012 84.5167 55.1654 84.5697C55.0254 84.7784 54.846 84.9577 54.6374 85.0977C54.3119 85.3197 53.9694 85.5157 53.6131 85.6838C53.1271 85.9026 52.6866 86.2107 52.3142 86.592C51.8958 87.0422 51.6202 87.6062 51.5222 88.2129C51.4715 88.9186 51.507 89.6278 51.6278 90.3249C51.6724 90.7222 51.6618 91.1238 51.5961 91.5182C51.5313 91.9422 51.3483 92.3393 51.0681 92.664C50.7541 92.9847 50.3373 93.1847 49.8907 93.2289C49.4517 93.2713 49.0097 93.2713 48.5707 93.2289C48.1486 93.1863 47.7229 93.1969 47.3035 93.2606C46.9009 93.3341 46.5158 93.4828 46.1683 93.6988C45.8392 93.8956 45.5547 94.1587 45.3329 94.4714C45.1111 94.7841 44.9568 95.1396 44.88 95.5152C44.7321 96.2438 45.0225 96.9302 45.1492 97.6008C45.2124 97.934 45.2124 98.276 45.1492 98.6092C45.0919 98.9255 44.9279 99.2125 44.6846 99.4224C44.4741 99.5965 44.2187 99.7076 43.9479 99.7431C43.677 99.7786 43.4017 99.737 43.1534 99.623C42.861 99.4656 42.6347 99.2085 42.5156 98.8986C42.3964 98.5886 42.3923 98.2462 42.504 97.9334C42.5426 97.8474 42.5983 97.7702 42.6676 97.7064Z" fill="#263238"/>
<path d="M66.1267 155.232L36.3634 149.149C36.3634 149.149 32.076 153.12 30.3864 158.236C26.8858 168.823 32.8205 196.944 32.8205 196.944L47.7101 195.888L69.5482 194.668C69.5482 183.58 66.3326 161.774 66.3326 161.774L66.1267 155.232Z" fill="#FCE193"/>
<path d="M74.4903 114.676L67.3517 111.54C67.3517 111.54 63.3072 115.299 58.6186 113.858C55.8835 113.018 55.2922 110.114 55.2922 110.114L46.9339 110.59L43.296 126.482L43.1746 135.538L35.2229 148.896C35.2229 148.896 45.2549 163.015 67.8111 159.224L69.2314 141.541C69.2314 141.541 72.7056 132.069 72.864 128.911C73.0224 125.754 72.864 121.968 72.864 121.968L74.4903 114.676Z" fill="#FFBD00"/>
<path d="M60.3241 159.878C57.9308 159.884 55.5424 159.663 53.1908 159.218C49.6252 158.543 46.1961 157.281 43.0426 155.485C40.8936 154.258 38.9069 152.766 37.129 151.045C36.4344 150.38 35.7935 149.662 35.2124 148.896L43.1694 135.548L43.2961 126.477L46.934 110.579L55.3028 110.104C55.4395 110.649 55.6547 111.172 55.9417 111.656C56.5303 112.694 57.4878 113.472 58.6239 113.837C60.6673 114.406 62.8499 114.185 64.7382 113.219C65.6802 112.772 66.5576 112.2 67.3465 111.519L74.4903 114.687L72.8641 121.968C72.8641 122.068 73.0172 125.817 72.8641 128.916C72.711 132.016 69.2948 141.377 69.2314 141.551L67.8111 159.239C65.3373 159.658 62.8331 159.872 60.3241 159.878ZM35.2388 148.896C35.82 149.649 36.4591 150.355 37.1502 151.008C38.9266 152.727 40.9115 154.217 43.0585 155.443C47.9161 158.231 56.1476 161.14 67.8006 159.187L69.2209 141.509C69.2578 141.414 72.6951 132.005 72.8535 128.885C73.0119 125.764 72.8535 121.973 72.8535 121.936L74.4745 114.666L67.357 111.54C66.5662 112.218 65.6892 112.787 64.7487 113.235C63.8703 113.662 62.9321 113.954 61.9662 114.101C60.8462 114.27 59.7024 114.188 58.6186 113.858C57.474 113.493 56.5099 112.708 55.9206 111.661C55.6327 111.18 55.4175 110.659 55.2817 110.114L46.9446 110.59L43.2961 126.482L43.1799 135.538L35.2388 148.896Z" fill="#263238"/>
<path d="M48.1588 135.263C48.2816 135.44 48.4232 135.603 48.5812 135.749C48.8558 136.05 49.2782 136.467 49.822 136.963C52.6635 139.549 55.9763 141.564 59.5795 142.898C60.2659 143.151 60.8361 143.336 61.2321 143.426C61.4324 143.496 61.6394 143.546 61.8499 143.574C61.6612 143.475 61.4631 143.395 61.2585 143.336C60.8731 143.199 60.3187 142.993 59.6428 142.718C56.1022 141.306 52.8222 139.313 49.9382 136.821C49.4102 136.34 48.9455 135.944 48.6446 135.664C48.4968 135.514 48.3341 135.38 48.1588 135.263Z" fill="#263238"/>
<g opacity="0.3">
<path d="M39.9221 141.008C40.4533 141.235 41.0367 141.313 41.609 141.233C42.1814 141.153 42.721 140.918 43.1693 140.554C43.9604 139.783 44.5919 138.865 45.0279 137.85L48.4704 131.102C52.5071 129.896 56.8378 130.131 60.72 131.768C61.321 131.983 61.8635 132.335 62.304 132.797C62.809 133.527 63.0931 134.387 63.1224 135.274C63.3812 137.386 63.6082 139.566 64.4372 141.541C65.2661 143.516 66.8079 145.316 68.8724 145.886L69.997 136.298L66.866 128.679L51.8074 125.891L45.5823 128.225L41.3583 138.547L39.9221 141.008Z" fill="black"/>
</g>
<path d="M73.6296 114.444C73.6296 114.444 77.183 114.829 78.6033 119.529C79.6593 122.971 80.4408 129.598 80.4408 129.598L71.7024 130.062V121.614L73.6296 114.444Z" fill="#FFBD00"/>
<path d="M71.6865 130.078V121.63L73.6137 114.439C74.316 114.558 74.9853 114.825 75.5779 115.22C77.0751 116.241 78.1488 117.773 78.598 119.529C79.654 122.934 80.4302 129.534 80.4408 129.603L71.6865 130.078ZM71.6865 121.63V130.046L80.3985 129.587C80.3563 129.238 79.5643 122.86 78.5611 119.529C78.116 117.778 77.0454 116.251 75.5515 115.236C74.9655 114.847 74.3059 114.583 73.6137 114.46L71.6865 121.63Z" fill="#FFBD00"/>
<path d="M46.934 110.589C45.2655 110.587 43.6538 111.195 42.4037 112.3C40.5082 114.111 36.3634 121.044 36.3634 121.044L44.8114 123.89L47.52 115.495L46.934 110.589Z" fill="#FFBD00"/>
<path d="M44.8008 123.911L36.3528 121.055C36.395 120.981 40.524 114.101 42.4037 112.311C43.2454 111.529 44.2838 110.99 45.408 110.753C45.9167 110.634 46.4378 110.575 46.9603 110.579L47.52 115.495L44.8008 123.911ZM36.3792 121.039L44.7849 123.874L47.483 115.495L46.9233 110.605C45.263 110.607 43.6601 111.213 42.4142 112.311C40.5821 114.048 36.5904 120.685 36.3792 121.039Z" fill="#FFBD00"/>
<path d="M74.0572 123.335C73.8794 123.653 73.7343 123.987 73.6243 124.333C73.3444 125.041 73.0276 125.865 72.6739 126.767C72.3201 127.67 71.9875 128.483 71.7023 129.191C71.5453 129.519 71.4232 129.862 71.338 130.215C71.5535 129.92 71.7309 129.599 71.866 129.26C72.1564 128.658 72.5313 127.808 72.922 126.857C73.3127 125.907 73.6031 125.03 73.809 124.391C73.9341 124.051 74.0174 123.696 74.0572 123.335Z" fill="#263238"/>
<path d="M45.899 117.168C45.4222 118.484 45.0203 119.826 44.6952 121.187C44.2905 122.525 43.9661 123.886 43.7236 125.263C44.1999 123.949 44.6019 122.609 44.9275 121.25C45.3318 119.91 45.6562 118.547 45.899 117.168Z" fill="#263238"/>
<path d="M63.2226 112.501L62.0452 125.173C62.0226 125.383 61.9178 125.576 61.7536 125.71C61.5895 125.843 61.3793 125.906 61.1687 125.886L53.0217 125.268C52.8088 125.254 52.6095 125.159 52.4657 125.001C52.3219 124.844 52.2449 124.636 52.2508 124.423L53.0217 111.102C53.0283 110.988 53.0586 110.878 53.1108 110.777C53.1629 110.676 53.2357 110.588 53.3244 110.517C53.413 110.446 53.5156 110.395 53.6254 110.367C53.7351 110.338 53.8497 110.333 53.9615 110.352L62.5151 111.614C62.7243 111.643 62.9143 111.751 63.046 111.916C63.1776 112.081 63.2409 112.291 63.2226 112.501Z" fill="#263238"/>
<path d="M58.3757 118.488C58.5869 118.547 63.1805 120.204 63.1805 120.204L69.2841 124.814L71.7024 130.062L67.2513 135.485L66.3643 129.951C65.3093 130.1 64.236 130.057 63.1963 129.825C61.776 129.434 57.2616 128.272 57.2616 128.272L55.1496 126.593C54.9162 126.064 54.7529 125.507 54.6638 124.935C54.6729 124.834 54.711 124.738 54.7734 124.658C54.8358 124.578 54.92 124.518 55.0158 124.484C55.1116 124.451 55.215 124.446 55.3137 124.469C55.4123 124.493 55.502 124.545 55.572 124.619C56.0049 124.972 59.2997 125.627 60.1814 125.447C60.1814 125.447 55.4294 124.249 54.9437 123.378C54.4579 122.507 54.7747 121.947 55.5297 122.084C56.2848 122.221 58.967 123.108 59.8065 123.188C60.6461 123.267 61.6757 123.457 61.9555 123.098C62.2353 122.739 61.6704 122.295 61.6704 122.295L60.8942 121.472C60.8942 121.472 57.4939 120.247 57.4147 119.481C57.3952 119.349 57.4064 119.214 57.4473 119.087C57.4882 118.96 57.5578 118.844 57.6506 118.748C57.7435 118.652 57.8572 118.579 57.9829 118.534C58.1086 118.489 58.243 118.473 58.3757 118.488Z" fill="#FFD4C9"/>
<path d="M56.8075 117.966C56.8075 117.966 52.6733 117.876 52.3723 118.071C52.0714 118.267 45.936 123.341 45.936 123.341L44.5051 124.249L46.9339 128.953L47.6467 128.695L52.5994 127.142C53.0988 127.029 53.6081 126.966 54.12 126.952C54.12 126.952 58.8192 127.079 59.2099 126.604C59.6006 126.129 59.4581 125.975 59.1307 125.833C57.8918 125.638 56.6411 125.526 55.3872 125.5C54.7713 125.447 54.1615 125.337 53.5656 125.173C53.5656 125.173 55.5403 125.083 55.9997 125.02C56.459 124.956 60.8731 124.798 60.9365 124.053C60.9998 123.309 60.5194 122.945 57.7315 123.161C56.1942 123.302 54.6456 123.265 53.1168 123.05L59.3578 122.126C59.3578 122.126 61.8605 121.82 61.2163 121.028C60.5722 120.236 55.2446 120.674 55.2446 120.674L52.8528 121.086L53.724 119.898C53.724 119.898 57.0821 119.56 57.5467 119.323C58.1222 119.037 58.2542 118.694 57.9322 118.314C57.6135 118.062 57.2127 117.938 56.8075 117.966Z" fill="#FFD4C9"/>
<path d="M37.0867 121.287L43.9507 123.621L43.6075 125.205L44.9698 123.937L46.9339 128.938C46.9339 128.938 45.3869 131.831 44.5474 133.436C42.2981 137.724 39.0562 142.412 36.2472 141.625C32.8786 140.701 31.8648 136.836 32.377 134.318C32.8469 132.042 37.0867 121.287 37.0867 121.287Z" fill="#FFD4C9"/>
<path d="M79.9233 129.624L73.619 130.009L71.7024 130.062L70.4563 127.332L66.792 132C66.792 132 67.225 135.252 67.452 137.048C68.0539 141.852 69.4584 147.365 72.3571 147.608C75.8366 147.919 79.0522 144.466 79.4482 141.926C79.8125 139.645 79.9233 129.624 79.9233 129.624Z" fill="#FFD4C9"/>
<path d="M45.936 123.32C45.936 123.32 45.9888 123.267 46.105 123.172L46.633 122.744L48.576 121.128L51.6543 118.594L52.1189 118.224L52.3618 118.034C52.464 117.984 52.5754 117.955 52.6892 117.95C53.1116 117.908 53.5498 117.897 53.9986 117.886C54.8962 117.886 55.8466 117.886 56.8445 117.886C57.0983 117.878 57.3516 117.912 57.5943 117.987C57.7237 118.029 57.8438 118.095 57.948 118.182C58.0475 118.275 58.1251 118.388 58.1751 118.515C58.2 118.582 58.2101 118.653 58.2046 118.724C58.1992 118.795 58.1783 118.864 58.1434 118.927C58.0723 119.044 57.9747 119.144 57.8583 119.217C57.75 119.3 57.6286 119.364 57.4992 119.407C57.3691 119.446 57.2369 119.478 57.1032 119.502C56.0472 119.698 54.9226 119.819 53.7663 119.946L53.8191 119.914L52.9532 121.107L52.874 120.991L55.2658 120.579C56.2743 120.505 57.3092 120.458 58.3652 120.463C58.8942 120.462 59.4229 120.488 59.9492 120.542C60.222 120.567 60.4923 120.614 60.757 120.685C60.897 120.72 61.0307 120.777 61.153 120.854C61.221 120.894 61.2791 120.949 61.323 121.015C61.3668 121.081 61.3954 121.156 61.4064 121.234C61.4095 121.314 61.3916 121.392 61.3545 121.463C61.3174 121.533 61.2625 121.593 61.1952 121.635C61.0799 121.72 60.9538 121.789 60.8204 121.841C60.5584 121.944 60.2881 122.023 60.0125 122.079C59.4845 122.195 58.909 122.253 58.3546 122.343L54.9701 122.834L53.1327 123.103V122.945C54.548 123.137 55.9794 123.183 57.4042 123.082C58.1065 123.022 58.8115 122.999 59.5162 123.013C59.8764 123.012 60.2339 123.074 60.5722 123.198C60.7484 123.264 60.896 123.389 60.9893 123.552C61.0623 123.718 61.0844 123.902 61.0527 124.08C61.0276 124.177 60.965 124.261 60.8784 124.312C60.8051 124.362 60.7273 124.404 60.6461 124.439C60.4903 124.503 60.3296 124.554 60.1656 124.592C59.8454 124.671 59.5211 124.733 59.1941 124.777C58.5447 124.872 57.9058 124.93 57.2722 124.978L56.3324 125.046C56.0314 125.046 55.7199 125.115 55.4136 125.125C54.8012 125.162 54.2045 125.194 53.6132 125.215V125.078C54.2598 125.274 54.9286 125.387 55.6037 125.416C56.2743 125.442 56.9184 125.49 57.552 125.542C57.8688 125.542 58.1804 125.601 58.4919 125.638L58.9512 125.701C59.0297 125.716 59.1073 125.735 59.1836 125.759C59.2577 125.79 59.3285 125.829 59.3948 125.875C59.4323 125.9 59.464 125.933 59.4877 125.971C59.5114 126.009 59.5265 126.052 59.532 126.097C59.5372 126.179 59.5189 126.262 59.4792 126.334C59.448 126.402 59.409 126.466 59.3631 126.525L59.2944 126.614C59.2659 126.646 59.2319 126.673 59.1941 126.694C58.923 126.804 58.6361 126.872 58.344 126.894C57.2905 126.983 56.2331 127.017 55.176 126.994H54.458C54.2311 126.981 54.0037 126.981 53.7768 126.994C53.3531 127.01 52.9328 127.077 52.5255 127.195L48.9087 128.304L47.9636 128.589L47.7207 128.658H47.6362L47.7154 128.626L47.953 128.547L48.8928 128.241C49.7271 127.982 50.9309 127.596 52.4621 127.111C53.337 126.895 54.2406 126.82 55.1391 126.889C56.1964 126.906 57.2539 126.867 58.3071 126.773C58.5826 126.753 58.8534 126.691 59.1096 126.588C59.1347 126.573 59.1578 126.556 59.1783 126.535L59.2416 126.451C59.2817 126.398 59.3171 126.341 59.3472 126.282C59.3653 126.258 59.3783 126.23 59.3854 126.201C59.3925 126.172 59.3937 126.142 59.3887 126.112C59.3838 126.082 59.3729 126.054 59.3567 126.029C59.3405 126.003 59.3193 125.982 59.2944 125.965C59.2359 125.926 59.174 125.893 59.1096 125.865C59.042 125.844 58.9733 125.829 58.9037 125.817C58.7559 125.791 58.608 125.775 58.4549 125.754C58.1487 125.717 57.8372 125.69 57.5204 125.664C56.892 125.611 56.2426 125.569 55.5826 125.542C54.8955 125.517 54.2142 125.406 53.5551 125.21C53.5459 125.208 53.5373 125.204 53.5296 125.199C53.522 125.194 53.5155 125.187 53.5105 125.179C53.5056 125.171 53.5023 125.162 53.5009 125.153C53.4995 125.144 53.4999 125.134 53.5023 125.125C53.5048 125.11 53.5126 125.097 53.5242 125.087C53.5358 125.078 53.5505 125.072 53.5656 125.073L55.3608 124.978C55.6671 124.978 55.9628 124.914 56.2796 124.893L57.2141 124.824C57.8477 124.777 58.4813 124.719 59.1255 124.624C59.4472 124.58 59.7663 124.518 60.0812 124.439C60.2383 124.403 60.392 124.354 60.5405 124.291C60.6725 124.233 60.8362 124.143 60.8573 124.043C60.8809 123.898 60.8607 123.749 60.7992 123.615C60.7297 123.482 60.6101 123.381 60.4666 123.335C60.1528 123.225 59.8226 123.168 59.4898 123.166C58.7974 123.153 58.1047 123.176 57.4148 123.235C55.9777 123.339 54.5338 123.293 53.1063 123.098C53.0955 123.097 53.085 123.094 53.0755 123.089C53.066 123.084 53.0576 123.077 53.0511 123.069C53.0446 123.06 53.04 123.05 53.0376 123.04C53.0353 123.029 53.0353 123.019 53.0376 123.008C53.0398 122.991 53.0478 122.974 53.0602 122.962C53.0726 122.95 53.0888 122.942 53.1063 122.939L54.9437 122.67L58.3282 122.179C58.8826 122.089 59.4423 122.031 59.9756 121.92C60.2405 121.868 60.5002 121.792 60.7517 121.693C60.8715 121.646 60.9849 121.584 61.0896 121.509C61.1357 121.481 61.1742 121.442 61.2018 121.396C61.2294 121.35 61.2453 121.298 61.248 121.245C61.2164 121.028 60.9629 120.896 60.72 120.833C60.4639 120.764 60.2025 120.716 59.9386 120.69C59.4106 120.632 58.8826 120.616 58.3546 120.611C57.2986 120.611 56.2743 120.653 55.2711 120.722L52.8792 121.128C52.8695 121.131 52.8594 121.131 52.8496 121.129C52.8397 121.128 52.8303 121.124 52.8219 121.119C52.8135 121.113 52.8063 121.106 52.8008 121.098C52.7952 121.089 52.7913 121.08 52.7895 121.07C52.7853 121.062 52.7831 121.053 52.7831 121.044C52.7831 121.035 52.7853 121.026 52.7895 121.018L53.6607 119.83C53.6661 119.82 53.6737 119.812 53.683 119.807C53.6922 119.801 53.7027 119.798 53.7135 119.798C54.8645 119.676 55.9839 119.56 57.0346 119.37C57.1666 119.344 57.2933 119.317 57.4148 119.28C57.5311 119.237 57.6412 119.179 57.7421 119.106C57.948 118.974 58.1012 118.763 58.0114 118.546C57.9677 118.44 57.9003 118.344 57.8143 118.268C57.7284 118.191 57.626 118.134 57.5151 118.103C57.2883 118.03 57.0509 117.996 56.8128 118.003C55.8202 118.003 54.8698 117.971 53.9775 117.976C53.5287 117.976 53.0904 117.976 52.6733 118.034C52.5785 118.037 52.4851 118.058 52.3988 118.098L52.1612 118.277L51.6965 118.647L48.576 121.181L46.6119 122.765C46.3848 122.939 46.2159 123.077 46.0839 123.177L45.936 123.32Z" fill="#844031"/>
<path d="M44.7057 124.196C44.7479 124.244 42.2083 126.371 39.035 128.948C35.8617 131.525 33.2587 133.589 33.227 133.542C33.1953 133.494 35.7244 131.366 38.8977 128.79C42.071 126.213 44.6687 124.149 44.7057 124.196Z" fill="#844031"/>
<path d="M75.9845 139.249C75.9475 139.249 75.8155 138.647 75.4565 137.702C74.9996 136.469 74.4598 135.267 73.8408 134.107C73.1227 132.734 72.4258 131.514 71.9558 130.611C71.7182 130.162 71.5334 129.793 71.4278 129.555C71.359 129.424 71.3041 129.286 71.2642 129.143C71.3609 129.256 71.4409 129.383 71.5018 129.518L72.1037 130.574C72.6317 131.456 73.3286 132.686 74.0414 134.043C74.6713 135.209 75.2012 136.426 75.6254 137.681C75.7469 138.063 75.8491 138.451 75.9317 138.843C75.9668 138.975 75.9846 139.112 75.9845 139.249Z" fill="#844031"/>
<path d="M99.8734 165.461C99.8734 168.568 98.1885 169.791 94.9796 173C92.3444 170.445 90 168.568 90 165.461C90 162.354 92.0605 160 95.0655 160C98.0704 160 99.8734 162.354 99.8734 165.461Z" fill="#493169"/>
<path d="M95.4729 165.828C95.8486 165.438 96.1701 165.039 96.5585 164.716C96.9851 164.363 97.6951 164.393 98.1471 164.713C98.6533 165.07 98.8539 165.633 98.6661 166.187C98.4846 166.726 97.9625 167.086 97.364 167.095C96.9628 167.101 96.6254 166.967 96.3484 166.693C96.046 166.388 95.7403 166.09 95.4729 165.828Z" fill="#FBB946"/>
<path d="M95.0478 165.127C94.641 164.767 94.2246 164.458 93.8878 164.086C93.5191 163.677 93.5509 162.997 93.8846 162.564C94.2564 162.079 94.8444 161.886 95.4228 162.066C95.9853 162.24 96.3603 162.741 96.3699 163.314C96.3762 163.699 96.2364 164.022 95.9503 164.288C95.6325 164.577 95.3211 164.87 95.0478 165.127Z" fill="#FBB946"/>
<path d="M94.4644 165.801C94.0775 166.162 93.7343 166.513 93.3568 166.828C92.9106 167.198 92.2617 167.198 91.7843 166.871C91.2945 166.532 91.0886 165.954 91.2633 165.395C91.4286 164.86 91.9528 164.488 92.5331 164.478C92.9075 164.472 93.2195 164.601 93.4816 164.854C93.803 165.16 94.1243 165.468 94.4644 165.801Z" fill="#FBB946"/>
<path d="M170.873 54.4612C170.873 57.5682 169.188 58.7911 165.98 62C163.344 59.4451 161 57.5682 161 54.4612C161 51.3542 163.061 49 166.065 49C169.07 49 170.873 51.3542 170.873 54.4612Z" fill="#493169"/>
<path d="M166.473 54.828C166.849 54.4381 167.17 54.0392 167.559 53.7163C167.985 53.363 168.695 53.3935 169.147 53.7133C169.653 54.0696 169.854 54.6331 169.666 55.1874C169.485 55.7265 168.962 56.0858 168.364 56.095C167.963 56.1011 167.625 55.9671 167.348 55.693C167.046 55.3884 166.74 55.0899 166.473 54.828Z" fill="#FBB946"/>
<path d="M166.048 54.1266C165.641 53.7666 165.225 53.4584 164.888 53.0862C164.519 52.6774 164.551 51.997 164.885 51.5638C165.256 51.0787 165.844 50.8865 166.423 51.0665C166.985 51.2404 167.36 51.7407 167.37 52.3143C167.376 52.6987 167.236 53.0221 166.95 53.2876C166.633 53.5774 166.321 53.8703 166.048 54.1266Z" fill="#FBB946"/>
<path d="M165.464 54.8015C165.078 55.162 164.734 55.5134 164.357 55.8282C163.911 56.1979 163.262 56.1979 162.784 55.8709C162.294 55.5318 162.089 54.9542 162.263 54.3951C162.429 53.8603 162.953 53.4875 163.533 53.4784C163.908 53.4722 164.22 53.6006 164.482 53.8542C164.803 54.1598 165.124 54.4684 165.464 54.8015Z" fill="#FBB946"/>
</svg>
