<svg width="313" height="209" viewBox="0 0 313 209" fill="none" xmlns="http://www.w3.org/2000/svg">
<g clip-path="url(#clip0_4666_5494)">
<path d="M75.3778 176.79C70.931 176.864 64.4545 177.029 60.0655 177.023H59.8111V176.784L59.7764 170.839V170.573H60.0655C64.6511 170.573 71.0524 170.61 75.5397 170.695C75.5397 172.496 75.4125 174.946 75.3778 176.784V176.79ZM75.3778 176.79C75.32 175.047 75.2622 172.539 75.2217 170.844L75.3778 170.987C70.9541 171.062 64.5586 171.099 60.0655 171.11L60.3546 170.844V176.79L60.0944 176.551C64.4256 176.551 71.0177 176.705 75.4067 176.79H75.3778Z" fill="#EBEBEB"/>
<path d="M66.8368 184.287C62.39 184.361 55.9135 184.526 51.5245 184.521H51.27V184.282L51.2354 178.336V178.07H51.5245C56.1101 178.07 62.4767 178.107 66.9987 178.192C66.9987 179.994 66.8715 182.443 66.8368 184.282V184.287ZM66.8368 184.287C66.779 182.544 66.7212 180.036 66.6807 178.341L66.8368 178.485C62.4073 178.559 56.0176 178.596 51.5245 178.607L51.8136 178.341L51.7847 184.287L51.5245 184.048C55.8556 184.048 62.4478 184.202 66.8368 184.287Z" fill="#EBEBEB"/>
<path d="M142.596 98.2113C138.149 98.291 131.672 98.4504 127.283 98.4504H127.029V98.2113L127 92.2657V92H127.289C131.875 92 138.241 92.0425 142.763 92.1222C142.763 93.9234 142.636 96.3729 142.601 98.2113H142.596ZM142.596 98.2113C142.538 96.4738 142.48 93.9606 142.44 92.2657L142.596 92.4091C138.166 92.4835 131.776 92.5207 127.283 92.5313L127.572 92.2657V98.2113L127.312 97.9722C131.643 97.9722 138.236 98.1263 142.625 98.2113H142.596Z" fill="#EBEBEB"/>
<path d="M88.9344 112.151C84.4876 112.225 78.0111 112.39 73.6221 112.39H73.3677V112.151V106.205V105.939H73.6568C78.2424 105.939 84.609 105.982 89.131 106.061C89.131 107.863 89.0038 110.312 88.9691 112.151H88.9344ZM88.9344 112.151C88.8766 110.413 88.8188 107.9 88.7783 106.205L88.9344 106.348C84.505 106.423 78.1152 106.46 73.6221 106.471L73.9112 106.205L73.8765 112.151L73.6221 111.911C77.9533 111.911 84.5454 112.065 88.9344 112.151Z" fill="#EBEBEB"/>
<path d="M80.4283 104.653C75.9814 104.733 69.5049 104.892 65.1159 104.892H64.8557V104.653V98.7077V98.442H65.1506C69.7304 98.442 76.1029 98.4845 80.6191 98.5642C80.6191 100.365 80.4976 102.815 80.463 104.653H80.4283ZM80.4283 104.653C80.3704 102.916 80.3068 100.403 80.2663 98.7077L80.4283 98.8511C75.9988 98.9255 69.609 98.9627 65.1159 98.9734L65.3993 98.7077V104.653L65.1448 104.414C69.4702 104.414 76.0682 104.568 80.4572 104.653H80.4283Z" fill="#EBEBEB"/>
<path d="M292.844 184.287C288.397 184.361 281.921 184.526 277.532 184.521H277.271V184.282L277.242 178.336V178.07H277.532C282.111 178.07 288.484 178.107 293 178.192C293 179.994 292.879 182.443 292.844 184.282V184.287ZM292.844 184.287C292.786 182.544 292.728 180.036 292.688 178.341L292.844 178.485C288.414 178.559 282.025 178.596 277.532 178.607L277.821 178.341L277.786 184.287L277.532 184.048C281.857 184.048 288.455 184.202 292.844 184.287Z" fill="#EBEBEB"/>
<path d="M89.5494 25.2166C85.1026 25.291 78.6261 25.4504 74.2371 25.4504H74V25.2166V19.271V19H74.2949C78.8747 19 85.2472 19.0372 89.7634 19.1222C89.7634 20.9234 89.6419 23.3729 89.6072 25.2113L89.5494 25.2166ZM89.5494 25.2166C89.4916 23.4738 89.428 20.9659 89.3875 19.271L89.5494 19.4144C85.1199 19.4888 78.7302 19.5207 74.2371 19.5366L74.5262 19.271L74.4915 25.2166L74.2371 24.9775C78.5625 24.9775 85.1604 25.1316 89.5494 25.2166Z" fill="#EBEBEB"/>
<path d="M77.6015 39.2166C73.1546 39.291 66.6781 39.4504 62.2891 39.4504H62.0289V39.2166L62 33.271V33H62.2891C66.8689 33 73.2414 33.0372 77.7576 33.1222C77.7576 34.9234 77.6362 37.3729 77.6015 39.2113V39.2166ZM77.6015 39.2166C77.5436 37.4738 77.4858 34.9659 77.4453 33.271L77.6015 33.4144C73.172 33.4888 66.7822 33.5207 62.2891 33.5313L62.5783 33.271L62.5436 39.2166L62.2891 38.9775C66.6145 38.9775 73.2125 39.1316 77.6015 39.2166Z" fill="#EBEBEB"/>
<path d="M135.601 91.2166C131.155 91.291 124.678 91.4504 120.289 91.4504H120.035V91.2166L120 85.271V85H120.289C124.875 85 131.241 85.0372 135.763 85.1222C135.763 86.9234 135.636 89.3729 135.601 91.2113V91.2166ZM135.601 91.2166C135.544 89.4738 135.486 86.9659 135.445 85.271L135.601 85.4144C131.172 85.4888 124.782 85.5207 120.289 85.5366L120.578 85.271L120.549 91.2166L120.289 90.9775C124.62 90.9775 131.212 91.1316 135.601 91.2166Z" fill="#EBEBEB"/>
<path d="M32 190.141L33.4167 193H65.7877L67.1987 190.141H32Z" fill="#DBDBDB"/>
<path d="M186.304 32.8277C187.328 30.0077 179.933 24.7337 169.786 21.0478C159.639 17.362 150.583 16.6601 149.559 19.48C148.535 22.3 155.93 27.574 166.076 31.2599C176.223 34.9457 185.279 35.6477 186.304 32.8277Z" fill="#263238"/>
<path d="M166.096 31.2667C155.953 27.5803 148.555 22.3135 149.578 19.4892L137.507 52.7922C136.481 55.6074 143.874 60.8873 154.026 64.5696C164.178 68.2519 173.232 68.985 174.197 66.1538L186.281 32.8558C185.29 35.6549 176.24 34.953 166.096 31.2667Z" fill="#BDB2CD"/>
<path opacity="0.6" d="M166.096 31.2667C155.953 27.5803 148.555 22.3135 149.578 19.4892L137.507 52.7922C136.481 55.6074 143.874 60.8873 154.026 64.5696C164.178 68.2519 173.232 68.985 174.197 66.1538L186.281 32.8558C185.29 35.6549 176.24 34.953 166.096 31.2667Z" fill="#DAD5E1"/>
<path d="M200.337 18.9683C199.501 28.4464 193.991 33.5522 185.805 35.1789L185.751 35.2031C182.259 35.9812 175.33 34.8958 167.771 32.1553C163.923 30.791 160.232 29.0175 156.762 26.8654C155.79 24.1516 158.366 20.397 161.36 18.6948C165.298 16.442 171.002 14.9263 179.451 19.833C189.581 25.7206 195.497 21.3314 195.012 17.6976C194.145 11.3363 201.096 10.433 200.337 18.9683Z" fill="#493169"/>
<path d="M192.35 19.9312C191.544 17.468 189.127 17.4316 190.294 19.6366C191.461 21.8417 192.935 21.7036 192.35 19.9312Z" fill="#493169"/>
<path d="M202.172 29.1788C203.684 27.8884 202.909 26.2225 201.699 27.681C200.489 29.1396 201.079 30.0987 202.172 29.1788Z" fill="#493169"/>
<path d="M173.726 51.9646C173.539 51.9039 173.354 51.8437 173.155 51.7793C173.195 51.6577 173.233 51.54 173.279 51.3997C172.663 51.618 172.078 51.6127 171.514 51.2644C171.141 51.0322 170.873 50.7191 170.722 50.3187C170.414 49.5034 170.74 48.609 171.504 48.1726C171.717 48.0512 171.949 47.9787 172.197 47.9469C172.442 47.9156 172.685 47.9339 172.927 47.9933C173.173 48.0541 173.405 48.1514 173.592 48.3171C173.773 48.4778 173.936 48.6563 174.108 48.829C174.141 48.7274 174.178 48.6138 174.219 48.4881C174.417 48.5525 174.604 48.6132 174.793 48.6743C174.438 49.771 174.082 50.8671 173.726 51.9646ZM173.688 50.1378C173.889 49.5291 173.53 48.8542 172.893 48.6428C172.246 48.4283 171.555 48.7523 171.353 49.3649C171.15 49.9803 171.508 50.6534 172.151 50.8653C172.793 51.078 173.486 50.7504 173.688 50.1378Z" fill="#5E3F86"/>
<path d="M146.61 39.526C146.758 39.5739 146.904 39.6212 147.059 39.6718C147.198 39.2454 147.334 38.8269 147.471 38.4032C147.692 38.4749 147.905 38.5439 148.125 38.6156C147.988 39.038 147.853 39.4564 147.715 39.8815C148.076 39.9987 148.427 40.1128 148.784 40.2286C148.72 40.4265 148.658 40.6176 148.592 40.8181C148.237 40.7027 147.887 40.5892 147.53 40.4733C147.518 40.5018 147.508 40.5223 147.501 40.545C147.338 41.045 147.175 41.5445 147.014 42.0449C146.953 42.2334 146.978 42.4173 147.113 42.5736C147.179 42.6497 147.275 42.7118 147.37 42.7515C147.533 42.8191 147.705 42.8663 147.875 42.9183C147.926 42.9335 147.944 42.9556 147.941 43.0079C147.931 43.195 147.927 43.3845 147.92 43.5801C147.891 43.5736 147.869 43.5712 147.851 43.5652C147.563 43.4674 147.267 43.3919 146.991 43.2669C146.436 43.0157 146.171 42.4216 146.348 41.873C146.51 41.3699 146.674 40.8678 146.837 40.3652C146.847 40.3344 146.858 40.3023 146.874 40.2529C146.721 40.2032 146.571 40.1545 146.422 40.1062C146.485 39.9124 146.547 39.7199 146.61 39.526Z" fill="#5D3F86"/>
<path d="M153.948 38.6868C154.007 38.7312 154.071 38.7711 154.124 38.8207C154.435 39.1109 154.375 39.5966 153.999 39.7804C153.809 39.8739 153.611 39.9485 153.402 40.0373C153.3 39.8402 153.161 39.6253 153.075 39.3948C152.934 39.0195 153.246 38.6375 153.666 38.6364C153.698 38.6367 153.732 38.6312 153.765 38.6288C153.828 38.6477 153.887 38.667 153.948 38.6868Z" fill="#FBB946"/>
<path d="M157.211 45.64C157.628 44.8992 158.038 44.1736 158.443 43.4452C158.473 43.3928 158.496 43.3796 158.558 43.4011C158.747 43.4672 158.941 43.527 159.145 43.5933C158.568 44.6235 157.997 45.644 157.423 46.6707C157.202 46.5989 156.986 46.5317 156.771 46.456C156.743 46.4455 156.719 46.3935 156.711 46.3567C156.552 45.6818 156.397 45.0065 156.242 44.3312C156.234 44.2958 156.225 44.2604 156.213 44.2107C156.179 44.2381 156.151 44.2602 156.126 44.2814C155.598 44.7396 155.069 45.1973 154.543 45.6591C154.493 45.7034 154.451 45.7106 154.387 45.6881C154.19 45.6197 153.991 45.5581 153.785 45.4914C153.923 44.3244 154.059 43.1628 154.197 41.9945C154.418 42.0663 154.632 42.1357 154.858 42.2092C154.76 43.0566 154.661 43.9066 154.561 44.7798C154.599 44.7506 154.621 44.7343 154.642 44.7175C155.087 44.3301 155.534 43.9431 155.977 43.5534C156.029 43.5069 156.073 43.4988 156.142 43.5227C156.314 43.5846 156.488 43.6411 156.666 43.6928C156.744 43.7154 156.774 43.7559 156.79 43.8293C156.922 44.4142 157.058 44.9977 157.194 45.5813C157.196 45.5951 157.201 45.6086 157.211 45.64Z" fill="#5E3F86"/>
<path d="M162.579 45.1234C162.623 44.9897 162.659 44.8761 162.698 44.7558C162.918 44.8271 163.132 44.8965 163.353 44.9682C162.998 46.0604 162.644 47.1512 162.288 48.2473C162.072 48.177 161.859 48.108 161.64 48.0368C161.678 47.9178 161.717 47.8001 161.761 47.6625C161.118 47.885 160.508 47.8674 159.927 47.4867C159.564 47.2493 159.31 46.9332 159.173 46.5356C158.881 45.6932 159.231 44.8124 160.029 44.396C160.468 44.1676 160.94 44.129 161.432 44.2603C161.926 44.3926 162.284 44.7011 162.579 45.1234ZM159.812 45.6243C159.611 46.2388 159.97 46.9169 160.618 47.1198C161.281 47.3278 161.958 47.0274 162.166 46.4005C162.377 45.7669 162.006 45.1205 161.347 44.8964C160.701 44.6778 160.012 45.0112 159.812 45.6243Z" fill="#5E4087"/>
<path d="M166.703 49.6804C166.481 49.6082 166.271 49.5402 166.056 49.4703C166.411 48.3755 166.765 47.2847 167.121 46.1885C167.335 46.2579 167.546 46.3264 167.766 46.3977C167.734 46.4953 167.703 46.5902 167.665 46.7065C167.727 46.6896 167.772 46.6762 167.818 46.6645C168.172 46.5739 168.526 46.5543 168.883 46.6835C169.707 46.9793 170.192 47.7867 170.031 48.6004C170.016 48.6825 169.994 48.7628 169.968 48.843C169.794 49.3835 169.618 49.9218 169.443 50.4618C169.433 50.4926 169.423 50.5233 169.411 50.5594C169.193 50.4886 168.981 50.4196 168.758 50.3475C168.769 50.3154 168.778 50.286 168.788 50.2552C168.968 49.7018 169.149 49.1488 169.327 48.5949C169.458 48.1868 169.323 47.7453 168.987 47.4679C168.412 46.9948 167.513 47.2154 167.286 47.8882C167.097 48.4518 166.918 49.0173 166.735 49.5828C166.725 49.6122 166.715 49.6429 166.703 49.6804Z" fill="#5D3F86"/>
<path d="M164.051 48.821C163.829 48.7488 163.619 48.6808 163.404 48.6109C163.759 47.5174 164.113 46.4266 164.469 45.3291C164.68 45.3976 164.893 45.4666 165.114 45.5383C165.081 45.6399 165.047 45.7428 165.01 45.8564C165.48 45.7119 165.939 45.75 166.414 45.8718C166.289 46.0691 166.172 46.2513 166.054 46.4375C165.834 46.372 165.616 46.3544 165.398 46.4034C165.004 46.4928 164.736 46.716 164.615 47.0859C164.435 47.6303 164.261 48.1753 164.084 48.7207C164.074 48.7515 164.064 48.7822 164.051 48.821Z" fill="#5D3E86"/>
<path d="M149.772 40.5539C149.989 40.6242 150.199 40.6922 150.418 40.7635C150.384 40.8691 150.351 40.972 150.315 41.083C150.784 40.9384 151.241 40.9774 151.717 41.0993C151.597 41.285 151.489 41.4596 151.374 41.6306C151.362 41.6475 151.309 41.6497 151.28 41.6432C150.879 41.5529 150.518 41.6144 150.21 41.869C150.07 41.9862 149.975 42.1328 149.919 42.3053C149.743 42.8538 149.564 43.4014 149.386 43.9482C149.376 43.9789 149.366 44.0096 149.354 44.0457C149.136 43.9749 148.925 43.9064 148.707 43.8356C149.061 42.7448 149.415 41.654 149.772 40.5539Z" fill="#5D3E86"/>
<path d="M152.175 44.9643C151.956 44.8935 151.744 44.8245 151.527 44.7542C151.882 43.6607 152.236 42.5713 152.592 41.4751C152.806 41.5445 153.02 41.6139 153.239 41.6852C152.884 42.7787 152.53 43.8695 152.175 44.9643Z" fill="#5E3F86"/>
<path d="M153.537 40.4106C153.76 40.2937 153.96 40.165 154.178 40.0794C154.419 39.986 154.73 40.1019 154.886 40.3075C155.06 40.537 155.069 40.8133 154.906 41.0294C154.749 41.2398 154.465 41.3222 154.198 41.2398C154.019 41.1845 153.888 41.077 153.803 40.9167C153.712 40.7393 153.619 40.5642 153.537 40.4106Z" fill="#FBB946"/>
<path d="M153.132 40.2644C152.905 40.3651 152.7 40.4682 152.484 40.5503C152.229 40.6463 151.934 40.5507 151.764 40.3373C151.59 40.1168 151.578 39.8338 151.737 39.6149C151.888 39.4053 152.179 39.3195 152.443 39.401C152.614 39.4535 152.738 39.5556 152.821 39.7051C152.923 39.8862 153.025 40.0685 153.132 40.2644Z" fill="#FBB946"/>
<path d="M291.491 197.63C291.491 197.689 231.048 197.739 156.508 197.739C81.9684 197.739 21.5093 197.689 21.5093 197.63C21.5093 197.572 81.9391 197.522 156.508 197.522C231.077 197.522 291.491 197.568 291.491 197.63Z" fill="#263238"/>
<path d="M272.254 51.9679L219.026 58.9109C217.566 59.1014 216.536 60.4417 216.726 61.9045L218.547 75.9105C218.738 77.3733 220.076 78.4047 221.536 78.2142L274.764 71.2711C276.225 71.0806 277.254 69.7403 277.064 68.2775L275.243 54.2716C275.053 52.8088 273.715 51.7773 272.254 51.9679Z" fill="#FAFAFA"/>
<path d="M218.553 75.9046C218.553 75.9046 218.553 76.0384 218.64 76.285C218.747 76.6555 218.934 76.998 219.187 77.2882C219.598 77.7617 220.163 78.0754 220.781 78.1744C221.177 78.2193 221.576 78.2023 221.967 78.1242L223.319 77.9445L239.499 75.8043L263.5 72.6568L270.44 71.7497L274.021 71.2815C274.321 71.2356 274.63 71.2105 274.922 71.152C275.216 71.0975 275.499 70.9913 275.757 70.8385C276.275 70.5261 276.669 70.0429 276.871 69.4716C276.974 69.1878 277.023 68.8873 277.017 68.5854C277.017 68.2887 276.954 67.9752 276.917 67.6659C276.838 67.043 276.754 66.4118 276.675 65.7932C276.508 64.5392 276.345 63.2852 276.178 62.0103C275.847 59.4633 275.512 56.8856 275.172 54.2773C275.089 53.6418 274.774 53.0597 274.288 52.6429C273.802 52.2262 273.179 52.0043 272.539 52.0201C271.266 52.158 269.977 52.3461 268.712 52.505L261.2 53.4831L247.011 55.3265L223.006 58.4406L220.502 58.7666L219.296 58.9213C218.909 58.9476 218.53 59.0483 218.181 59.2181C217.85 59.3848 217.558 59.6201 217.324 59.9083C217.09 60.1965 216.92 60.5311 216.825 60.8901C216.629 61.5923 216.825 62.3029 216.9 62.9801C217.251 65.7012 217.547 68.042 217.793 69.9565C218.039 71.8709 218.211 73.3548 218.352 74.3664C218.415 74.868 218.461 75.2525 218.494 75.5117C218.528 75.7709 218.536 75.9046 218.536 75.9046C218.536 75.9046 218.511 75.7709 218.478 75.5159C218.444 75.2609 218.386 74.8722 218.319 74.3706C218.186 73.359 217.985 71.8626 217.731 69.9648C217.476 68.0671 217.167 65.7096 216.808 62.9926C216.767 62.654 216.721 62.3071 216.675 61.956C216.622 61.5922 216.641 61.2217 216.729 60.865C216.827 60.4919 217.003 60.1438 217.244 59.8434C217.486 59.543 217.788 59.2971 218.131 59.1219C218.493 58.9482 218.883 58.8433 219.283 58.8126L220.485 58.6538L222.989 58.3277L247.007 55.176L261.196 53.3201L268.708 52.342C269.96 52.1831 271.245 51.995 272.552 51.8529C273.232 51.8359 273.895 52.0721 274.413 52.516C274.93 52.9599 275.264 53.5799 275.352 54.2564C275.694 56.8647 276.029 59.4424 276.358 61.9894C276.525 63.2601 276.689 64.5141 276.85 65.7514C276.934 66.3784 277.013 67.0054 277.092 67.624C277.13 67.9334 277.184 68.2385 277.196 68.5645C277.2 68.885 277.146 69.2036 277.038 69.505C276.881 69.9578 276.608 70.3612 276.246 70.6746C275.884 70.988 275.446 71.2002 274.976 71.2899C274.667 71.3484 274.371 71.3735 274.066 71.4195L270.457 71.896L263.52 72.7989L239.515 75.913L223.327 78.003L221.975 78.1744C221.58 78.2524 221.176 78.2665 220.777 78.2162C220.148 78.1146 219.575 77.7915 219.162 77.3049C218.909 77.0101 218.726 76.6613 218.628 76.285C218.599 76.1909 218.578 76.0944 218.565 75.9966L218.553 75.9046Z" fill="#263238"/>
<path d="M273.527 70.6389L271.218 52.8817L262.134 54.0666L264.443 71.8238L273.527 70.6389Z" fill="#BDB2CD"/>
<path d="M260.661 72.3139L258.352 54.5568L249.269 55.7417L251.577 73.4988L260.661 72.3139Z" fill="#BDB2CD"/>
<path d="M247.796 73.9927L245.487 56.2355L236.404 57.4204L238.712 75.1775L247.796 73.9927Z" fill="#BDB2CD"/>
<path d="M234.931 75.6719L232.622 57.9147L223.538 59.0996L225.847 76.8567L234.931 75.6719Z" fill="#BDB2CD"/>
<g opacity="0.5">
<path d="M273.527 70.6389L271.218 52.8817L262.134 54.0666L264.443 71.8238L273.527 70.6389Z" fill="black"/>
</g>
<g opacity="0.6">
<path d="M260.661 72.3139L258.352 54.5568L249.269 55.7417L251.577 73.4988L260.661 72.3139Z" fill="black"/>
</g>
<g opacity="0.7">
<path d="M247.796 73.9927L245.487 56.2355L236.404 57.4204L238.712 75.1775L247.796 73.9927Z" fill="black"/>
</g>
<g opacity="0.8">
<path d="M234.931 75.6719L232.622 57.9147L223.538 59.0996L225.847 76.8567L234.931 75.6719Z" fill="black"/>
</g>
<path d="M218.549 73.4384L212.23 61.1743C211.887 60.5057 211.822 59.7278 212.05 59.0115C212.279 58.2952 212.782 57.699 213.449 57.3538L260.862 32.8548C261.192 32.6837 261.552 32.5795 261.922 32.5481C262.293 32.5167 262.665 32.5586 263.019 32.6716C263.373 32.7846 263.701 32.9663 263.985 33.2065C264.269 33.4467 264.502 33.7405 264.672 34.0712L270.974 46.3353C271.145 46.6662 271.249 47.0276 271.28 47.3988C271.311 47.77 271.269 48.1437 271.156 48.4986C271.042 48.8534 270.86 49.1824 270.62 49.4668C270.38 49.7511 270.086 49.9853 269.755 50.1558L222.359 74.6548C222.029 74.8258 221.669 74.93 221.299 74.9615C220.929 74.9929 220.556 74.9509 220.202 74.8379C219.848 74.725 219.52 74.5432 219.236 74.3031C218.953 74.0629 218.719 73.7691 218.549 73.4384Z" fill="#FAFAFA"/>
<path d="M218.549 73.4384C218.569 73.4649 218.587 73.4928 218.603 73.522C218.641 73.5764 218.682 73.6642 218.762 73.7687C218.982 74.0814 219.267 74.3436 219.596 74.5378C220.129 74.8657 220.757 75.0027 221.378 74.9265C221.77 74.8765 222.149 74.7501 222.493 74.5545L223.703 73.9233L238.172 66.4202L259.635 55.3056L265.841 52.0995L269.046 50.4275C269.604 50.2027 270.111 49.8671 270.536 49.4411C270.832 49.1033 271.041 48.6983 271.145 48.2612C271.249 47.8241 271.245 47.3682 271.133 46.9331C271.044 46.6422 270.923 46.3619 270.774 46.0971L269.91 44.4251L268.166 41.0393L264.601 34.1214C264.31 33.551 263.828 33.1009 263.239 32.849C262.651 32.5971 261.993 32.5592 261.38 32.742C261.079 32.845 260.788 32.9766 260.512 33.1349L259.652 33.578L257.941 34.4641L251.234 37.921L238.547 44.471L217.067 55.5522L214.83 56.7059L213.754 57.266C213.397 57.422 213.07 57.6399 212.79 57.9097C212.399 58.297 212.132 58.7919 212.022 59.3315C211.913 59.8711 211.967 60.4311 212.176 60.9402C212.31 61.2579 212.489 61.5631 212.639 61.8682L215.84 68.1131C216.712 69.8269 217.393 71.1562 217.856 72.0632C218.085 72.5147 218.273 72.8574 218.378 73.0915C218.482 73.3256 218.549 73.4468 218.549 73.4468C218.549 73.4468 218.482 73.3298 218.361 73.0999L217.827 72.0799C217.359 71.1771 216.667 69.852 215.782 68.1424L212.547 61.9058C212.393 61.5965 212.222 61.2997 212.076 60.9695C211.864 60.441 211.811 59.862 211.923 59.3037C212.035 58.7453 212.307 58.2318 212.706 57.8261C212.996 57.5504 213.33 57.3256 213.695 57.1615L214.772 56.6056L217.005 55.4477L238.472 44.3331L251.151 37.7747L257.857 34.3095L259.568 33.4233L260.428 32.9802C260.713 32.8124 261.014 32.6724 261.325 32.5622C261.976 32.3719 262.671 32.4137 263.294 32.6806C263.917 32.9475 264.428 33.4228 264.739 34.0252L268.312 40.964L270.056 44.3498L270.916 46.0218C271.074 46.297 271.199 46.5904 271.287 46.8954C271.372 47.2042 271.403 47.5251 271.379 47.8443C271.333 48.4834 271.08 49.0899 270.657 49.5706C270.45 49.807 270.205 50.0064 269.931 50.16C269.66 50.3147 269.388 50.4443 269.121 50.578L265.912 52.25L259.706 55.4435L238.226 66.5247L223.736 73.986L222.526 74.6088C222.173 74.8049 221.787 74.9312 221.387 74.9809C220.755 75.0472 220.119 74.9001 219.58 74.5629C219.247 74.3635 218.962 74.0939 218.745 73.7729C218.688 73.6928 218.636 73.609 218.59 73.522C218.575 73.4949 218.561 73.467 218.549 73.4384Z" fill="#263238"/>
<path d="M268.539 49.9127L260.342 33.9987L252.201 38.2054L260.399 54.1194L268.539 49.9127Z" fill="#BDB2CD"/>
<path d="M257.008 55.8705L248.811 39.9565L240.67 44.1633L248.867 60.0773L257.008 55.8705Z" fill="#BDB2CD"/>
<path d="M245.482 61.8303L237.285 45.9163L229.144 50.123L237.341 66.037L245.482 61.8303Z" fill="#BDB2CD"/>
<path d="M233.955 67.7863L225.758 51.8723L217.617 56.079L225.814 71.993L233.955 67.7863Z" fill="#BDB2CD"/>
<g opacity="0.1">
<path d="M268.539 49.9127L260.342 33.9987L252.201 38.2054L260.399 54.1194L268.539 49.9127Z" fill="black"/>
</g>
<g opacity="0.2">
<path d="M257.008 55.8705L248.811 39.9565L240.67 44.1633L248.867 60.0773L257.008 55.8705Z" fill="black"/>
</g>
<g opacity="0.3">
<path d="M245.482 61.8303L237.285 45.9163L229.144 50.123L237.341 66.037L245.482 61.8303Z" fill="black"/>
</g>
<g opacity="0.4">
<path d="M233.955 67.7863L225.758 51.8723L217.617 56.079L225.814 71.993L233.955 67.7863Z" fill="black"/>
</g>
<path d="M219.997 73.1751L209.484 64.5434C209.187 64.3006 208.94 64.0014 208.758 63.663C208.576 63.3247 208.463 62.9537 208.424 62.5714C208.385 62.189 208.422 61.8028 208.532 61.4347C208.643 61.0666 208.824 60.7239 209.067 60.4261L242.775 19.2281C243.017 18.9302 243.316 18.6832 243.654 18.501C243.992 18.3188 244.362 18.205 244.744 18.1662C245.126 18.1274 245.511 18.1643 245.879 18.2747C246.246 18.3852 246.588 18.5671 246.886 18.8101L257.402 27.4418C257.7 27.6846 257.947 27.9838 258.128 28.3222C258.31 28.6605 258.424 29.0315 258.463 29.4138C258.501 29.7962 258.465 30.1824 258.354 30.5505C258.244 30.9186 258.062 31.2613 257.82 31.5591L224.124 72.7488C223.882 73.0496 223.583 73.2995 223.244 73.484C222.905 73.6684 222.533 73.7838 222.149 73.8234C221.766 73.8631 221.378 73.8262 221.008 73.7149C220.639 73.6036 220.295 73.4202 219.997 73.1751Z" fill="#FAFAFA"/>
<path d="M219.997 73.1752L220.08 73.2295C220.135 73.2629 220.21 73.3298 220.322 73.3925C220.649 73.5934 221.012 73.7256 221.391 73.7812C222.008 73.8767 222.64 73.7712 223.194 73.4803C223.874 73.1626 224.337 72.406 224.959 71.6745L235.255 59.0509L250.525 40.3413L254.944 34.9365L257.227 32.1443C257.648 31.7129 257.985 31.2069 258.22 30.652C258.415 30.0819 258.427 29.4651 258.254 28.8881C258.07 28.3052 257.71 27.794 257.223 27.4251C256.739 27.0321 256.255 26.635 255.771 26.2338L252.841 23.8261L246.84 18.8937C246.346 18.493 245.735 18.2667 245.1 18.25C244.463 18.2391 243.841 18.4438 243.334 18.831C243.088 19.0291 242.866 19.2565 242.675 19.5081L242.061 20.2564C241.644 20.758 241.248 21.2512 240.843 21.7486L236.048 27.5881L227.008 38.6275L211.713 57.3162L210.114 59.2641L209.33 60.1921C209.068 60.4783 208.852 60.8042 208.691 61.1577C208.403 61.8485 208.392 62.6245 208.662 63.3229C208.79 63.6527 208.98 63.9549 209.221 64.2132C209.465 64.4582 209.724 64.6871 209.998 64.8988L215.423 69.3505C216.904 70.5752 218.052 71.5282 218.837 72.172L219.721 72.9118C219.922 73.0748 220.018 73.1668 220.018 73.1668L219.709 72.9244L218.808 72.2054L215.373 69.409L209.948 64.9782C209.671 64.7645 209.408 64.5342 209.159 64.2885C208.909 64.0197 208.712 63.7063 208.579 63.3647C208.297 62.6428 208.306 61.8396 208.604 61.1242C208.766 60.7611 208.986 60.4266 209.255 60.1336L210.023 59.1931L211.613 57.2452L226.9 38.5313L235.918 27.4836L240.697 21.6316L241.915 20.1393C242.12 19.8927 242.333 19.6419 242.525 19.3911C242.726 19.1295 242.957 18.8924 243.213 18.6847C243.753 18.2767 244.413 18.062 245.089 18.0749C245.765 18.0878 246.416 18.3275 246.94 18.7557L252.945 23.6965L255.888 26.1084L257.336 27.2997C257.849 27.6864 258.228 28.2243 258.421 28.8379C258.605 29.4492 258.592 30.103 258.383 30.7064C258.282 31.0072 258.133 31.2896 257.941 31.5424C257.753 31.789 257.557 32.0147 257.365 32.253C256.597 33.1948 255.836 34.1256 255.082 35.0452C253.571 36.8844 252.097 38.6846 250.658 40.4458L235.346 59.1345L225.009 71.7247L224.145 72.7781C223.819 73.1817 223.392 73.4912 222.907 73.6748C222.422 73.8585 221.898 73.9096 221.387 73.8231C221.004 73.761 220.638 73.6186 220.314 73.4051C220.204 73.3351 220.098 73.2583 219.997 73.1752Z" fill="#263238"/>
<path d="M256.658 31.7563L242.829 20.407L237.023 27.504L250.852 38.8533L256.658 31.7563Z" fill="#BDB2CD"/>
<path d="M248.433 41.8053L234.604 30.4561L228.798 37.5531L242.627 48.9023L248.433 41.8053Z" fill="#BDB2CD"/>
<path d="M240.21 51.8581L226.38 40.5088L220.575 47.6058L234.404 58.9551L240.21 51.8581Z" fill="#BDB2CD"/>
<path d="M231.988 61.9098L218.158 50.5605L212.353 57.6576L226.182 69.0069L231.988 61.9098Z" fill="#BDB2CD"/>
<g opacity="0.5">
<path d="M256.658 31.7563L242.828 20.407L237.023 27.504L250.852 38.8533L256.658 31.7563Z" fill="white"/>
</g>
<g opacity="0.6">
<path d="M248.433 41.8053L234.604 30.4561L228.798 37.5531L242.627 48.9023L248.433 41.8053Z" fill="white"/>
</g>
<g opacity="0.7">
<path d="M240.209 51.8581L226.38 40.5088L220.574 47.6058L234.404 58.9551L240.209 51.8581Z" fill="white"/>
</g>
<g opacity="0.8">
<path d="M231.988 61.9098L218.158 50.5605L212.353 57.6576L226.182 69.0069L231.988 61.9098Z" fill="white"/>
</g>
<path d="M220.6 14.339L204.801 65.6158C204.359 67.0518 205.162 68.5752 206.596 69.0183L219.975 73.1536C221.409 73.5968 222.93 72.7919 223.372 71.3559L239.171 20.0791C239.613 18.643 238.81 17.1196 237.376 16.6765L223.997 12.5412C222.563 12.098 221.042 12.9029 220.6 14.339Z" fill="#FAFAFA"/>
<path d="M219.984 73.15C220.111 73.1833 220.239 73.2098 220.368 73.2294C220.865 73.3039 221.373 73.2382 221.834 73.0396C222.296 72.8409 222.693 72.5173 222.981 72.105C223.199 71.7731 223.357 71.4052 223.448 71.0182L223.865 69.7099L228.648 54.0934L235.759 30.932C236.427 28.7556 237.113 26.5263 237.817 24.244L238.881 20.7871C238.969 20.4987 239.069 20.2019 239.144 19.9135C239.212 19.6234 239.235 19.3244 239.211 19.0274C239.146 18.4272 238.881 17.8664 238.46 17.4348C238.25 17.218 238.002 17.041 237.729 16.9123C237.446 16.7914 237.155 16.6908 236.857 16.6113L235.058 16.0554L231.419 14.931L223.982 12.632C223.37 12.4437 222.709 12.4853 222.125 12.749C221.541 13.0059 221.073 13.4705 220.811 14.0532C220.685 14.3374 220.602 14.6593 220.502 14.9644L220.218 15.884C220.03 16.5026 219.838 17.138 219.65 17.7274C218.896 20.1769 218.152 22.5887 217.418 24.963L213.203 38.6357L206.05 61.7846L205.303 64.1964C205.181 64.5894 205.06 64.9739 204.944 65.3585C204.806 65.7215 204.738 66.1072 204.743 66.4954C204.753 66.8666 204.84 67.2317 204.998 67.5672C205.157 67.9027 205.385 68.2012 205.666 68.4433C206.204 68.9407 206.918 69.0494 207.577 69.2793L214.279 71.3693L218.511 72.6902L219.609 73.0413L219.984 73.1625L219.604 73.058L218.503 72.7236L214.258 71.4278L207.539 69.388L206.542 69.0787C205.999 68.9028 205.524 68.5628 205.182 68.1055C204.839 67.6482 204.647 67.096 204.631 66.5247C204.624 66.1241 204.692 65.7257 204.831 65.3501C204.952 64.9697 205.069 64.581 205.19 64.1881C205.428 63.4064 205.678 62.5997 205.929 61.7762C207.957 55.176 210.377 47.3134 213.057 38.5939C214.396 34.2342 215.807 29.6613 217.267 24.917C217.998 22.5469 218.741 20.1309 219.492 17.6856C219.684 17.0711 219.872 16.4567 220.059 15.838L220.347 14.9142C220.435 14.5981 220.539 14.2869 220.66 13.9821C220.938 13.3633 221.435 12.8692 222.054 12.5943C222.677 12.3135 223.38 12.2689 224.032 12.4689L231.469 14.7679L235.108 15.884L236.903 16.4399C237.208 16.5231 237.506 16.6279 237.796 16.7534C238.085 16.892 238.349 17.0786 238.576 17.3052C239.022 17.7667 239.301 18.364 239.369 19.0023C239.398 19.3162 239.374 19.6326 239.298 19.9386C239.219 20.2479 239.123 20.528 239.036 20.8206C238.677 21.9868 238.322 23.1363 237.967 24.2774C237.266 26.5597 236.579 28.789 235.906 30.9654L228.752 54.1143L223.916 69.7182C223.774 70.178 223.64 70.6127 223.498 71.0224C223.436 71.2272 223.373 71.4404 223.302 71.6118L223.173 71.8793C223.118 71.9587 223.073 72.0423 223.018 72.1217C222.652 72.6434 222.114 73.0194 221.499 73.1834C221.126 73.2884 220.734 73.3084 220.352 73.242C220.254 73.2268 220.158 73.2044 220.064 73.1751L219.984 73.15Z" fill="#263238"/>
<path d="M238.118 20.8895L221.035 15.6091L218.333 24.3763L235.417 29.6566L238.118 20.8895Z" fill="#BDB2CD"/>
<path d="M234.291 33.3064L217.208 28.026L214.507 36.7931L231.59 42.0735L234.291 33.3064Z" fill="#BDB2CD"/>
<path d="M230.467 45.7242L213.384 40.4438L210.682 49.211L227.766 54.4913L230.467 45.7242Z" fill="#BDB2CD"/>
<path d="M226.64 58.1357L209.561 52.8566L206.859 61.6237L223.939 66.9028L226.64 58.1357Z" fill="#BDB2CD"/>
<g opacity="0.2">
<path d="M234.291 33.3064L217.208 28.026L214.506 36.7931L231.59 42.0735L234.291 33.3064Z" fill="white"/>
</g>
<g opacity="0.3">
<path d="M230.467 45.7242L213.384 40.4438L210.682 49.211L227.766 54.4913L230.467 45.7242Z" fill="white"/>
</g>
<g opacity="0.4">
<path d="M226.64 58.1357L209.561 52.8566L206.859 61.6237L223.939 66.9028L226.64 58.1357Z" fill="white"/>
</g>
<g opacity="0.1">
<path d="M238.118 20.8895L221.035 15.6091L218.333 24.3763L235.417 29.6566L238.118 20.8895Z" fill="white"/>
</g>
<path d="M221.954 70.3452C221.742 70.7155 221.426 71.0145 221.044 71.204C220.662 71.3935 220.233 71.4652 219.81 71.4097C219.388 71.3543 218.991 71.1744 218.671 70.8927C218.351 70.6111 218.121 70.2405 218.012 69.8281C217.903 69.4156 217.918 68.9799 218.056 68.5762C218.195 68.1726 218.45 67.8192 218.789 67.5611C219.128 67.3029 219.537 67.1516 219.962 67.1263C220.387 67.1011 220.811 67.203 221.178 67.4192C221.666 67.7063 222.021 68.1746 222.166 68.7224C222.312 69.2702 222.235 69.8534 221.954 70.3452Z" fill="#455A64"/>
<path d="M221.954 70.3452C221.954 70.3452 222.042 70.1738 222.129 69.8478C222.251 69.3869 222.216 68.8985 222.029 68.46C221.895 68.1368 221.681 67.8525 221.409 67.6334C221.136 67.4143 220.813 67.2674 220.468 67.206C220.064 67.1343 219.647 67.1837 219.271 67.3482C218.865 67.5231 218.525 67.8226 218.3 68.2035C218.075 68.5843 217.977 69.0269 218.019 69.4674C218.06 69.8765 218.223 70.2638 218.486 70.5793C218.707 70.8486 218.993 71.0582 219.316 71.1889C219.638 71.3196 219.989 71.3672 220.335 71.3275C220.807 71.2732 221.248 71.0629 221.587 70.7298C221.825 70.4957 221.917 70.3118 221.929 70.3118C221.942 70.3118 221.929 70.3577 221.871 70.4372C221.804 70.5517 221.724 70.6583 221.633 70.7549C221.294 71.1217 220.838 71.3583 220.343 71.4236C220.002 71.4673 219.655 71.433 219.329 71.3233C218.954 71.191 218.621 70.96 218.365 70.6545C218.079 70.3181 217.902 69.9027 217.856 69.4632C217.814 68.991 217.924 68.5177 218.17 68.1129C218.417 67.7082 218.786 67.3932 219.225 67.2144C219.495 67.0976 219.785 67.036 220.08 67.0333C220.374 67.0306 220.665 67.0867 220.938 67.1985C221.21 67.3103 221.457 67.4753 221.664 67.6841C221.872 67.8928 222.036 68.141 222.146 68.4141C222.333 68.8763 222.352 69.3896 222.2 69.8645C222.164 69.9936 222.111 70.1173 222.042 70.2324C221.988 70.3076 221.963 70.3494 221.954 70.3452Z" fill="#263238"/>
<path d="M157.89 135.532L167.868 124.43L175.726 123.812L176.92 132.326L170.564 135.173L163.624 142.492L159.413 143.453L157.89 135.532Z" fill="#EFBE9D"/>
<path d="M176.389 80.1225L160.747 154.085L246.95 172.374L262.592 98.4117L176.389 80.1225Z" fill="white"/>
<path d="M246.94 172.362L262.49 98.3764L262.561 98.485L176.361 80.2184L176.49 80.1348C170.81 106.97 165.46 132.264 160.84 154.096L160.765 153.983L246.944 172.375L160.723 154.188H160.632V154.092C165.247 132.259 170.589 106.966 176.261 80.1307L176.282 80.022H176.386L262.599 98.3137H262.69L262.67 98.4056C253.2 142.956 247.103 171.61 246.94 172.362Z" fill="#263238"/>
<path d="M179.552 84.451L165.39 151.413L243.791 168.047L257.953 101.085L179.552 84.451Z" fill="#BDB2CD"/>
<path d="M243.781 168.036C243.781 168.036 243.864 167.618 244.031 166.803C244.198 165.988 244.449 164.788 244.778 163.225C245.434 160.09 246.398 155.5 247.625 149.648C250.087 137.944 253.605 121.224 257.849 101.056L257.92 101.164L179.524 84.5531L179.653 84.4695C174.512 108.755 169.667 131.649 165.485 151.429L165.41 151.312L222.096 163.388L238.097 166.807L242.329 167.714L243.418 167.952L243.789 168.036L243.426 167.965L242.345 167.743L238.126 166.857L222.138 163.492L165.381 151.5H165.289V151.404C169.462 131.624 174.307 108.73 179.436 84.4402L179.457 84.3315L179.566 84.3566L257.954 101.001H258.041V101.089C253.755 121.266 250.199 138.011 247.712 149.715C246.46 155.567 245.488 160.14 244.824 163.267C244.49 164.822 244.232 166.013 244.06 166.82C243.889 167.626 243.781 168.036 243.781 168.036Z" fill="#263238"/>
<path d="M204.18 145.861L202.131 152.674L202.715 152.796L206.304 146.308L204.18 145.861Z" fill="#263238"/>
<path d="M229.754 151.283L228.87 158.343L228.285 158.221L227.63 150.835L229.754 151.283Z" fill="#263238"/>
<path d="M235.05 141.627L202.344 134.688L200.159 145.017L232.866 151.956L235.05 141.627Z" fill="#263238"/>
<path d="M217.401 143.086V142.998C217.401 142.935 217.426 142.856 217.443 142.76C217.489 142.534 217.547 142.233 217.618 141.844C217.781 141.042 218.011 139.896 218.294 138.462L218.349 138.546L202.824 135.286L202.949 135.202V135.231V135.269V135.34L202.916 135.491L202.853 135.787L202.728 136.377C202.644 136.77 202.565 137.158 202.482 137.543C202.319 138.312 202.16 139.069 202.002 139.8L201.922 139.675L212.994 142.074L216.254 142.797L217.134 142.998L217.368 143.052L217.447 143.077L217.155 143.031L216.291 142.86L213.044 142.204L201.877 139.884L201.772 139.863L201.797 139.758L202.273 137.501C202.352 137.117 202.436 136.728 202.519 136.335C202.557 136.138 202.599 135.942 202.64 135.741L202.703 135.445L202.736 135.298V135.223V135.185V135.156C202.995 134.989 202.811 135.11 202.87 135.073L218.407 138.417H218.474V138.483C218.153 139.93 217.894 141.079 217.714 141.89C217.627 142.266 217.56 142.563 217.51 142.78C217.48 142.884 217.444 142.986 217.401 143.086Z" fill="#455A64"/>
<path d="M216.375 147.939C216.375 147.939 216.375 147.905 216.375 147.851L216.416 147.613C216.462 147.387 216.521 147.086 216.596 146.697C216.754 145.895 216.984 144.749 217.272 143.315L217.322 143.399L201.768 140.139L201.897 140.055V140.084V140.122V140.193L201.868 140.344L201.801 140.64C201.76 140.837 201.718 141.037 201.68 141.23L201.43 142.396C201.267 143.165 201.109 143.922 200.95 144.653L200.871 144.528L211.943 146.927L215.202 147.65L216.082 147.851L216.316 147.905L216.395 147.93L216.103 147.884L215.239 147.713L211.993 147.057L200.825 144.737H200.725L200.737 144.628L201.213 142.371C201.292 141.986 201.376 141.598 201.459 141.205L201.584 140.611L201.647 140.314L201.676 140.168V140.093V140.055V140.03L201.806 139.946L217.343 143.29H217.41V143.357C217.088 144.804 216.83 145.953 216.65 146.764C216.562 147.14 216.496 147.437 216.446 147.654C216.427 147.75 216.403 147.845 216.375 147.939Z" fill="#455A64"/>
<path d="M233.464 146.492V146.405C233.464 146.342 233.49 146.262 233.506 146.166C233.552 145.941 233.611 145.64 233.686 145.251C233.844 144.448 234.074 143.307 234.362 141.869L234.412 141.953L218.858 138.692L218.987 138.609V138.638V138.676V138.751L218.958 138.897L218.891 139.194C218.849 139.395 218.808 139.612 218.77 139.788L218.52 140.954C218.356 141.723 218.196 142.474 218.04 143.207L217.961 143.081L229.032 145.481L232.292 146.204L233.172 146.405L233.406 146.459L233.485 146.484C233.387 146.478 233.289 146.463 233.193 146.438L232.329 146.267L229.082 145.61L217.915 143.29L217.814 143.27V143.165L218.29 140.908C218.37 140.523 218.453 140.135 218.536 139.742L218.662 139.152L218.724 138.851L218.753 138.705V138.63V138.592V138.563L218.883 138.479L234.42 141.823H234.487V141.89C234.166 143.336 233.907 144.486 233.727 145.297C233.64 145.673 233.573 145.97 233.523 146.187C233.51 146.29 233.491 146.392 233.464 146.492Z" fill="#455A64"/>
<path d="M232.455 151.345V151.257C232.455 151.195 232.48 151.115 232.496 151.019C232.542 150.793 232.601 150.492 232.676 150.104C232.834 149.301 233.064 148.16 233.352 146.722L233.402 146.806L217.848 143.545L217.977 143.462V143.491V143.529V143.604L217.948 143.75L217.886 144.047L217.76 144.64L217.51 145.803L217.034 148.06L216.951 147.934L228.023 150.334L231.286 151.057L232.167 151.257L232.396 151.312L232.476 151.337C232.377 151.331 232.279 151.316 232.183 151.291L231.32 151.119L228.035 150.48L216.871 148.16L216.767 148.139L216.788 148.035L217.264 145.777C217.343 145.393 217.426 145.004 217.51 144.611L217.635 144.022L217.698 143.721L217.727 143.575V143.499V143.462V143.432L217.856 143.349L233.394 146.693H233.465V146.76C233.143 148.206 232.885 149.356 232.705 150.166C232.617 150.543 232.551 150.839 232.501 151.057C232.491 151.154 232.476 151.25 232.455 151.345Z" fill="#455A64"/>
<path d="M202.824 135.177C202.778 135.219 202.636 135.144 202.507 135.006C202.377 134.868 202.306 134.721 202.348 134.68C202.39 134.638 202.532 134.717 202.665 134.855C202.799 134.993 202.87 135.139 202.824 135.177Z" fill="#455A64"/>
<path d="M200.779 144.628C200.808 144.678 200.691 144.812 200.512 144.921C200.332 145.029 200.165 145.079 200.136 145.029C200.107 144.979 200.22 144.845 200.399 144.737C200.579 144.628 200.737 144.569 200.779 144.628Z" fill="#455A64"/>
<path d="M232.872 151.947C232.872 152.006 225.519 150.497 216.471 148.578C207.423 146.66 200.103 145.059 200.115 144.996C200.128 144.933 207.469 146.446 216.517 148.365C225.564 150.284 232.872 151.889 232.872 151.947Z" fill="#455A64"/>
<path d="M209.56 144.085C209.522 144.085 209.56 143.892 209.393 143.721C209.346 143.676 209.29 143.642 209.229 143.623C209.167 143.603 209.102 143.598 209.038 143.608C208.963 143.625 208.895 143.662 208.839 143.715C208.784 143.768 208.745 143.835 208.725 143.909C208.706 143.987 208.712 144.069 208.741 144.144C208.77 144.218 208.821 144.282 208.888 144.327C208.942 144.363 209.004 144.385 209.069 144.392C209.133 144.399 209.198 144.391 209.259 144.369C209.485 144.281 209.526 144.093 209.56 144.106C209.593 144.118 209.581 144.156 209.56 144.235C209.541 144.294 209.512 144.349 209.472 144.396C209.433 144.443 209.385 144.482 209.33 144.511C209.248 144.558 209.154 144.583 209.059 144.583C208.964 144.583 208.87 144.558 208.788 144.511C208.683 144.451 208.6 144.359 208.551 144.248C208.501 144.138 208.488 144.014 208.513 143.896C208.538 143.778 208.6 143.67 208.69 143.589C208.78 143.508 208.893 143.458 209.013 143.445C209.107 143.434 209.203 143.447 209.291 143.484C209.379 143.52 209.455 143.579 209.514 143.654C209.591 143.752 209.627 143.877 209.614 144.001C209.597 144.051 209.572 144.089 209.56 144.085Z" fill="#455A64"/>
<path d="M210.582 139.232C210.549 139.232 210.582 139.039 210.419 138.868C210.373 138.822 210.316 138.788 210.253 138.769C210.191 138.749 210.125 138.745 210.06 138.755C209.987 138.772 209.919 138.81 209.864 138.863C209.81 138.916 209.771 138.983 209.752 139.056C209.737 139.131 209.745 139.208 209.774 139.279C209.803 139.349 209.852 139.41 209.914 139.453C209.969 139.489 210.031 139.511 210.095 139.518C210.16 139.525 210.225 139.517 210.286 139.495C210.511 139.407 210.553 139.219 210.582 139.232C210.611 139.244 210.607 139.282 210.582 139.361C210.564 139.42 210.534 139.475 210.495 139.522C210.455 139.569 210.407 139.609 210.353 139.637C210.27 139.684 210.176 139.709 210.081 139.709C209.986 139.709 209.893 139.684 209.81 139.637C209.705 139.577 209.622 139.485 209.573 139.374C209.524 139.264 209.511 139.141 209.536 139.022C209.561 138.904 209.623 138.796 209.712 138.715C209.802 138.634 209.915 138.584 210.035 138.571C210.13 138.56 210.226 138.573 210.313 138.61C210.401 138.646 210.478 138.705 210.536 138.78C210.611 138.879 210.647 139.003 210.636 139.127C210.624 139.194 210.599 139.236 210.582 139.232Z" fill="#455A64"/>
<path d="M225.815 147.554C225.781 147.554 225.815 147.362 225.652 147.19C225.605 147.145 225.548 147.111 225.486 147.091C225.424 147.072 225.358 147.067 225.293 147.078C225.218 147.092 225.149 147.128 225.094 147.182C225.039 147.235 225.001 147.304 224.984 147.378C224.963 147.456 224.967 147.539 224.997 147.614C225.026 147.69 225.079 147.754 225.147 147.796C225.201 147.832 225.263 147.854 225.328 147.861C225.392 147.869 225.458 147.861 225.518 147.838C225.74 147.75 225.781 147.562 225.815 147.575C225.848 147.587 225.815 147.625 225.815 147.705C225.775 147.822 225.693 147.92 225.585 147.98C225.501 148.026 225.407 148.051 225.312 148.051C225.216 148.051 225.122 148.026 225.038 147.98C224.936 147.918 224.856 147.826 224.808 147.716C224.76 147.606 224.748 147.484 224.773 147.367C224.798 147.25 224.858 147.144 224.946 147.062C225.034 146.981 225.145 146.93 225.264 146.914C225.358 146.903 225.454 146.916 225.542 146.953C225.629 146.99 225.706 147.048 225.765 147.123C225.804 147.172 225.833 147.227 225.85 147.287C225.867 147.346 225.872 147.409 225.865 147.47C225.856 147.5 225.827 147.554 225.815 147.554Z" fill="#455A64"/>
<path d="M226.841 142.68C226.804 142.68 226.841 142.488 226.674 142.316C226.628 142.271 226.572 142.238 226.51 142.218C226.449 142.199 226.383 142.194 226.32 142.204C226.244 142.218 226.175 142.254 226.12 142.307C226.065 142.361 226.027 142.429 226.011 142.505C225.994 142.58 226.001 142.658 226.03 142.729C226.059 142.8 226.109 142.86 226.174 142.902C226.228 142.937 226.29 142.959 226.354 142.967C226.419 142.974 226.484 142.966 226.545 142.943C226.766 142.856 226.808 142.668 226.841 142.68C226.875 142.693 226.862 142.73 226.841 142.81C226.801 142.928 226.718 143.027 226.608 143.086C226.525 143.133 226.432 143.158 226.336 143.158C226.241 143.158 226.148 143.133 226.065 143.086C225.963 143.024 225.882 142.931 225.835 142.821C225.787 142.712 225.775 142.59 225.8 142.472C225.824 142.355 225.885 142.249 225.973 142.168C226.061 142.087 226.172 142.035 226.29 142.02C226.385 142.008 226.481 142.022 226.568 142.058C226.656 142.095 226.733 142.154 226.791 142.229C226.868 142.327 226.904 142.451 226.891 142.576C226.883 142.647 226.854 142.684 226.841 142.68Z" fill="#455A64"/>
<path d="M235.071 141.593C235.071 141.656 234.946 141.735 234.775 141.811C234.604 141.886 234.454 141.932 234.42 141.882C234.387 141.832 234.495 141.694 234.687 141.61C234.879 141.526 235.059 141.539 235.071 141.593Z" fill="#455A64"/>
<path d="M232.955 151.964C232.909 152.002 232.759 151.889 232.621 151.713C232.484 151.538 232.413 151.362 232.463 151.324C232.513 151.287 232.659 151.404 232.797 151.579C232.934 151.755 233.001 151.931 232.955 151.964Z" fill="#455A64"/>
<path d="M167.672 144.874L166.297 151.301L244.638 168.115L246.013 161.688L167.672 144.874Z" fill="#493169"/>
<path d="M190.066 122.892C190.416 117.837 189.342 112.785 186.965 108.312C183.009 100.83 178.101 100.103 178.101 100.103C178.101 100.103 183.985 99.1621 188.297 107.209C190.863 112.019 191.496 117.63 190.066 122.892Z" fill="#FCE193"/>
<path d="M193.914 97.6699C193.839 97.4567 191.089 113.245 191.089 113.245L189.995 124.752C189.995 124.752 192.637 116.622 193.313 112.312C193.989 108.003 194.594 99.6136 193.914 97.6699Z" fill="#FCE193"/>
<path d="M199.736 98.9072C199.736 98.9072 197.061 99.8979 193.931 111.23C191.535 119.916 190.45 123.206 190.095 124.28C190.039 124.432 190.006 124.591 189.995 124.752C189.995 124.752 194.544 117.182 196.301 112.944C198.058 108.705 198.204 102.097 199.736 98.9072Z" fill="#FCE193"/>
<path d="M190.037 127.231C189.966 127.515 191.764 123.657 197.82 119.732C203.454 116.079 205.587 116.338 205.587 116.338C205.587 116.338 200.608 115.987 196.647 118.787C193.15 121.258 190.771 124.343 190.037 127.231Z" fill="#FCE193"/>
<path d="M188.534 131.67C188.409 129.559 188.226 127.415 187.437 125.454C186.648 123.494 185.167 121.713 183.163 121.053C185.959 124.179 187.787 127.49 188.534 131.67Z" fill="#FCE193"/>
<path d="M190.204 123.782C190.204 123.782 190.917 115.815 185.859 112.216C183.042 110.21 178.251 110.093 178.251 110.093C178.251 110.093 183.894 112.049 185.763 113.855C187.633 115.661 190.204 123.782 190.204 123.782Z" fill="#FCE193"/>
<path d="M185.379 146.459C185.375 146.427 185.375 146.395 185.379 146.363C185.396 146.285 185.413 146.189 185.43 146.074C185.484 145.803 185.555 145.435 185.642 144.967C185.843 143.993 186.122 142.613 186.477 140.916L189.269 127.561C189.407 126.909 189.544 126.265 189.686 125.63L189.887 124.685C189.928 124.526 189.941 124.376 189.999 124.209C190.058 124.042 190.137 123.92 190.195 123.791C190.438 123.218 190.638 122.633 190.88 122.073C191.122 121.513 191.356 120.978 191.581 120.447C192.036 119.385 192.491 118.39 192.871 117.433C193.25 116.476 193.609 115.598 193.939 114.791C194.269 113.984 194.523 113.236 194.774 112.584C195.024 111.932 195.191 111.376 195.375 110.912C195.558 110.448 195.667 110.114 195.763 109.859L195.859 109.583C195.868 109.551 195.882 109.52 195.9 109.491C195.898 109.524 195.891 109.556 195.88 109.587L195.804 109.871C195.733 110.118 195.608 110.477 195.454 110.941C195.299 111.405 195.107 111.974 194.886 112.613C194.665 113.253 194.423 114.026 194.089 114.833C193.755 115.64 193.421 116.538 193.046 117.491C192.67 118.445 192.211 119.448 191.794 120.514C191.564 121.044 191.335 121.588 191.097 122.144C190.859 122.7 190.68 123.281 190.417 123.862C190.358 124.008 190.279 124.163 190.225 124.28C190.17 124.397 190.158 124.581 190.12 124.727C190.054 125.041 189.991 125.354 189.924 125.672C189.791 126.307 189.653 126.951 189.507 127.603C188.393 132.803 187.387 137.514 186.652 140.941C186.281 142.634 185.98 144.009 185.763 144.983C185.659 145.443 185.576 145.819 185.513 146.079L185.442 146.363C185.396 146.43 185.384 146.463 185.379 146.459Z" fill="#263238"/>
<path d="M191.164 125.003C191.052 125.335 190.912 125.656 190.746 125.964C190.467 126.55 190.104 127.365 189.745 128.288C189.386 129.212 189.102 130.057 188.91 130.675C188.819 131.015 188.699 131.346 188.551 131.666C188.583 131.313 188.654 130.966 188.764 130.629C188.98 129.808 189.242 129 189.548 128.209C189.857 127.416 190.214 126.643 190.617 125.893C190.76 125.574 190.944 125.275 191.164 125.003Z" fill="#263238"/>
<path d="M188.217 149.698C189.628 148.862 190.204 147.069 190.104 145.431C190.003 143.792 189.365 142.254 188.893 140.686L184.553 139.767C183.485 141.021 182.274 142.158 181.523 143.612C180.772 145.067 180.563 146.956 181.523 148.277L188.217 149.698Z" fill="#949494"/>
<path d="M193.538 104.312C193.55 104.38 193.55 104.449 193.538 104.517C193.538 104.671 193.509 104.864 193.488 105.089C193.434 105.591 193.346 106.31 193.229 107.179C192.992 108.956 192.616 111.405 192.149 114.101C191.681 116.798 191.205 119.226 190.813 120.978C190.621 121.855 190.446 122.558 190.317 123.042C190.258 123.264 190.204 123.46 190.162 123.598C190.147 123.665 190.124 123.729 190.095 123.791C190.092 123.723 190.101 123.655 190.12 123.59C190.15 123.435 190.191 123.247 190.237 123.026C190.346 122.499 190.488 121.797 190.655 120.936C191.009 119.18 191.46 116.756 191.907 114.055C192.353 111.355 192.77 108.918 193.046 107.146C193.179 106.31 193.292 105.578 193.371 105.056C193.409 104.826 193.442 104.638 193.467 104.483C193.486 104.424 193.51 104.367 193.538 104.312Z" fill="#263238"/>
<path d="M188.697 110.185C188.776 110.316 188.839 110.457 188.885 110.603C188.993 110.875 189.135 111.276 189.302 111.773C190.132 114.376 190.59 117.084 190.663 119.816C190.663 120.338 190.663 120.76 190.663 121.07C190.669 121.221 190.655 121.373 190.621 121.521C190.588 121.521 190.579 120.877 190.517 119.849C190.362 117.139 189.908 114.454 189.165 111.844C188.868 110.808 188.664 110.197 188.697 110.185Z" fill="#263238"/>
<path d="M185.684 112.76C185.823 112.833 185.95 112.927 186.06 113.04C186.379 113.323 186.676 113.63 186.949 113.959C187.352 114.444 187.726 114.954 188.067 115.485C188.478 116.146 188.807 116.855 189.048 117.596C189.496 118.925 189.854 120.282 190.12 121.659C190.229 122.186 190.3 122.616 190.346 122.913C190.38 123.065 190.395 123.221 190.392 123.377C190.33 123.234 190.286 123.084 190.262 122.93C190.183 122.591 190.087 122.177 189.97 121.676C189.72 120.635 189.373 119.193 188.843 117.65C188.609 116.919 188.291 116.218 187.896 115.56C187.568 115.028 187.212 114.515 186.828 114.022C186.498 113.604 186.21 113.282 185.993 113.065C185.882 112.972 185.778 112.87 185.684 112.76Z" fill="#263238"/>
<path d="M246.176 105.771L244.58 105.433L238.93 132.148L240.526 132.486L246.176 105.771Z" fill="#263238"/>
<path d="M244.523 105.687L212.249 98.8391L206.697 125.088L238.971 131.936L244.523 105.687Z" fill="white"/>
<path d="M239.466 132.669L205.966 125.563L211.776 98.0879L245.275 105.194L239.466 132.669ZM207.452 124.593L238.502 131.181L243.789 106.172L212.74 99.5885L207.452 124.593Z" fill="#455A64"/>
<path d="M239.381 108.276L215.55 103.22L211.62 121.806L235.451 126.862L239.381 108.276Z" fill="#FCE193"/>
<path d="M129.144 135.215L134.798 153.364L153.633 136.644L160.727 142.709C160.727 142.709 144.743 168.157 136.989 172.948C128.388 178.265 118.155 171.276 116.861 166.147C115.568 161.018 108.757 138.024 108.757 138.024L129.144 135.215Z" fill="#EFBE9D"/>
<path d="M135.245 153.047C135.266 153.084 134.749 153.373 134.022 153.974C133.598 154.331 133.202 154.719 132.837 155.137C131.945 156.157 131.257 157.341 130.813 158.623C130.633 159.146 130.493 159.683 130.396 160.228C130.229 161.16 130.233 161.753 130.191 161.753C130.164 161.616 130.154 161.475 130.162 161.335C130.15 161.173 130.15 161.009 130.162 160.846C130.162 160.658 130.183 160.428 130.225 160.203C130.305 159.645 130.434 159.095 130.609 158.56C131.043 157.243 131.747 156.032 132.674 155.003C133.057 154.585 133.476 154.202 133.926 153.857C134.11 153.703 134.298 153.59 134.452 153.481C134.587 153.389 134.726 153.304 134.87 153.226C134.986 153.149 135.112 153.089 135.245 153.047Z" fill="#E7996E"/>
<path d="M114.988 153.226L134.799 147.872C134.799 147.872 130.55 135.286 127.245 126.19C124.323 118.169 119.428 114.829 116.882 113.015C115.854 112.276 114.66 111.802 113.406 111.635C108.719 111.008 95.8989 109.32 89.5388 108.789C81.672 108.132 65.2416 112.471 65.2416 112.471C65.2416 112.471 50.8353 120.472 45.9775 123.728C44.7863 124.517 43.8759 125.665 43.3775 127.005C42.4803 129.425 41.3368 133.584 39.9679 138.964C39.0957 142.383 36.2119 153.703 36.2119 153.703L53.1097 153.18C56.5152 163.538 59.6702 172.826 59.6702 172.826L58.3014 197.639H120.968C120.968 197.639 115.184 159.258 115.184 158.368C115.184 158.042 115.105 155.847 114.988 153.226Z" fill="#493169"/>
<g opacity="0.3">
<path d="M95.4983 133.083C94.2463 131.499 92.0929 130.851 90.098 131.051C88.1032 131.252 86.2502 132.197 84.5892 133.325C79.4644 136.807 75.8253 142.057 72.6118 147.353C67.0027 156.587 62.2903 166.337 58.5393 176.471L58.6687 179.063C62.8712 178.532 65.6089 174.983 67.4327 171.159C69.2564 167.334 70.041 163.087 71.6477 159.166C74.7808 151.634 80.7583 145.647 88.2785 142.509C90.7825 142.768 93.4701 141.961 95.106 140.047C96.742 138.132 97.055 135.06 95.4983 133.083Z" fill="black"/>
</g>
<path d="M115.184 156.512C115.088 156.512 114.529 151.023 113.932 144.239C113.335 137.455 112.926 131.942 113.018 131.933C113.11 131.925 113.673 137.418 114.27 144.21C114.867 151.003 115.272 156.503 115.184 156.512Z" fill="#263238"/>
<path d="M48.6108 131.933C48.7239 132.202 48.8078 132.483 48.8612 132.769C49.0073 133.388 49.1951 134.178 49.4163 135.123C49.8712 137.112 50.4763 139.863 51.1232 142.91C51.7701 145.957 52.3418 148.716 52.7383 150.718C52.9177 151.671 53.068 152.47 53.189 153.093C53.2578 153.382 53.2969 153.677 53.3058 153.974C53.198 153.704 53.1156 153.424 53.0596 153.138C52.9135 152.52 52.7257 151.73 52.5046 150.785C52.0497 148.795 51.4445 146.045 50.7935 142.998C50.1425 139.951 49.5791 137.192 49.1826 135.19C49.0031 134.237 48.8487 133.438 48.7319 132.811C48.6634 132.523 48.6229 132.229 48.6108 131.933Z" fill="#263238"/>
<path d="M112.158 111.874C112.258 111.899 111.687 114.101 111.294 116.89C110.902 119.678 110.819 121.931 110.718 121.906C110.631 121.413 110.608 120.911 110.652 120.413C110.685 119.21 110.788 118.01 110.96 116.818C111.129 115.625 111.369 114.443 111.678 113.278C111.778 112.791 111.939 112.319 112.158 111.874Z" fill="#263238"/>
<path d="M85.136 123.389L90.8367 111.874L89.0672 106.858C89.0672 106.858 97.6184 102.41 94.6971 93.3352C93.2865 88.9546 89.6473 80.1682 86.2627 72.2555C84.5068 68.1512 81.2724 64.8595 77.2032 63.0355C73.1341 61.2114 68.5284 60.9887 64.3027 62.4116L63.4346 62.7C54.2324 66.4118 52.2376 76.3101 56.1939 85.4225L67.7665 119.28L85.136 123.389Z" fill="#EFBE9D"/>
<path d="M89.0672 106.824C89.0672 106.824 83.5208 109.211 76.1799 107.439C76.1799 107.439 81.1462 113.006 89.8726 109.161L89.0672 106.824Z" fill="#E7996E"/>
<path d="M86.7427 81.184C86.858 81.5196 86.8384 81.8869 86.688 82.2083C86.5377 82.5297 86.2685 82.78 85.9373 82.9061C85.7778 82.9742 85.6063 83.0098 85.4329 83.0106C85.2594 83.0114 85.0876 82.9776 84.9275 82.911C84.7673 82.8444 84.622 82.7464 84.5002 82.6229C84.3783 82.4993 84.2823 82.3526 84.2179 82.1913C84.1013 81.8563 84.1198 81.4889 84.2694 81.1673C84.4191 80.8457 84.688 80.5953 85.0191 80.4692C85.1789 80.4004 85.3508 80.3644 85.5246 80.3632C85.6985 80.362 85.8708 80.3957 86.0315 80.4624C86.1921 80.529 86.3378 80.6272 86.46 80.7511C86.5822 80.875 86.6783 81.0222 86.7427 81.184Z" fill="#263238"/>
<path d="M85.7702 76.7866C85.67 77.0082 84.4472 76.6111 83.0617 77.0834C81.6761 77.5558 80.8957 78.5882 80.687 78.4712C80.5869 78.421 80.6495 78.0532 80.9833 77.5892C81.4444 76.9712 82.084 76.51 82.8154 76.2683C83.5357 76.0251 84.3143 76.0163 85.0398 76.2432C85.5782 76.4272 85.8244 76.6821 85.7702 76.7866Z" fill="#263238"/>
<path d="M74.7026 84.7996C74.8188 85.1346 74.7996 85.5019 74.6491 85.8229C74.4986 86.1439 74.2287 86.3932 73.8971 86.5176C73.7377 86.5863 73.5661 86.6223 73.3925 86.6234C73.219 86.6246 73.0469 86.5908 72.8866 86.5242C72.7263 86.4575 72.581 86.3593 72.4592 86.2354C72.3374 86.1116 72.2417 85.9645 72.1777 85.8029C72.0625 85.4672 72.0821 85.0999 72.2324 84.7785C72.3827 84.4571 72.652 84.2068 72.9832 84.0807C73.1429 84.0127 73.3147 83.9774 73.4883 83.9768C73.6619 83.9763 73.8338 84.0105 73.994 84.0775C74.1543 84.1445 74.2995 84.2429 74.4211 84.3669C74.5428 84.4909 74.6385 84.638 74.7026 84.7996Z" fill="#263238"/>
<path d="M72.3029 80.8997C72.2236 81.1296 70.9674 80.8705 69.6403 81.4891C68.3132 82.1078 67.6496 83.2238 67.4326 83.1277C67.3283 83.0859 67.345 82.7097 67.6287 82.2206C68.0176 81.5571 68.6002 81.029 69.2981 80.7075C69.9889 80.3875 70.7629 80.2939 71.51 80.4399C72.0692 80.5653 72.3446 80.7911 72.3029 80.8997Z" fill="#263238"/>
<path d="M80.7413 90.7604C80.7121 90.6809 81.5217 90.242 82.8572 89.5941C83.1994 89.4353 83.5124 89.2556 83.4915 88.9922C83.3974 88.6148 83.1907 88.2751 82.8989 88.0183L80.9625 85.69C78.2206 82.346 76.1047 79.5287 76.2424 79.42C76.3802 79.3113 78.7131 81.928 81.4549 85.2971C82.1268 86.1331 82.7654 86.9189 83.3705 87.6755C83.6418 88.035 84.0257 88.4154 84.0215 89.0048C84.0113 89.148 83.9684 89.2869 83.896 89.4109C83.8237 89.5348 83.7238 89.6404 83.6042 89.7195C83.4247 89.8388 83.2313 89.9357 83.0283 90.008C81.6427 90.5346 80.7747 90.8356 80.7413 90.7604Z" fill="#263238"/>
<path d="M70.4208 76.076C70.4208 76.494 68.9643 76.7866 67.4035 77.5306C65.8426 78.2747 64.6741 79.1608 64.3486 78.8933C64.1942 78.7637 64.3069 78.3332 64.7117 77.7898C65.2695 77.1031 65.9762 76.5526 66.7781 76.1804C67.5801 75.8081 68.4562 75.6237 69.3399 75.6413C70.016 75.658 70.4166 75.8586 70.4208 76.076Z" fill="#263238"/>
<path d="M84.1175 73.0497C83.9797 73.4677 82.9155 73.4426 81.7637 73.8147C80.6119 74.1867 79.7104 74.7384 79.3765 74.4835C79.2263 74.3581 79.2722 73.9902 79.5977 73.5471C80.0489 72.9981 80.6526 72.5955 81.3323 72.3901C82.012 72.1847 82.7373 72.1859 83.4163 72.3935C83.9338 72.5774 84.1759 72.8574 84.1175 73.0497Z" fill="#263238"/>
<path d="M59.1652 91.8513C58.9899 91.8513 52.3501 92.1021 54.6204 98.2133C56.8907 104.324 62.5497 100.78 62.4955 100.6C62.4412 100.42 59.1652 91.8513 59.1652 91.8513Z" fill="#EFBE9D"/>
<path d="M59.7703 98.9824C59.737 98.9824 59.691 99.0953 59.545 99.2457C59.333 99.4488 59.0495 99.56 58.7562 99.5551C58.0217 99.5551 57.0869 98.7191 56.6696 97.649C56.4573 97.1302 56.3646 96.5701 56.3983 96.0104C56.3859 95.7982 56.4246 95.5861 56.511 95.3919C56.5974 95.1977 56.7291 95.0271 56.8949 94.8944C57.0052 94.8174 57.1387 94.7812 57.2726 94.7918C57.4066 94.8025 57.5327 94.8594 57.6294 94.9529C57.7755 95.095 57.7838 95.233 57.8214 95.2288C57.859 95.2246 57.9132 95.0783 57.7713 94.8442C57.6809 94.7052 57.5452 94.6019 57.3874 94.5516C57.2808 94.5182 57.1687 94.5065 57.0576 94.5173C56.9465 94.5281 56.8387 94.5611 56.7405 94.6143C56.5081 94.7574 56.3162 94.9578 56.1832 95.1964C56.0502 95.435 55.9806 95.7037 55.981 95.977C55.9205 96.6027 56.0122 97.2337 56.248 97.8162C56.7447 99.0326 57.8005 99.9522 58.7771 99.8769C58.9589 99.8647 59.1357 99.8113 59.294 99.7208C59.4523 99.6303 59.588 99.505 59.691 99.3544C59.8162 99.1329 59.7954 98.9824 59.7703 98.9824Z" fill="#E7996E"/>
<path d="M76.9853 93.0928C77.2065 93.005 77.7157 94.5098 79.3641 95.1452C81.0126 95.7805 82.5567 95.0783 82.6402 95.2831C82.6903 95.3709 82.3815 95.7011 81.7096 95.9436C80.8313 96.2529 79.8724 96.2426 79.0011 95.9143C78.1661 95.5973 77.4867 94.9678 77.1064 94.1587C76.8351 93.5484 76.881 93.1179 76.9853 93.0928Z" fill="#263238"/>
<path d="M88.4745 58.867C88.1962 58.3083 87.7834 57.8278 87.2735 57.4687C86.7635 57.1097 86.1723 56.8835 85.5532 56.8104C85.4337 56.4676 85.2813 56.1373 85.0983 55.8239C83.9798 53.9262 81.4591 52.8979 79.4142 53.7339C78.9787 52.9993 78.3513 52.3976 77.5996 51.9938C76.8479 51.5899 76.0004 51.3992 75.1484 51.4422C74.2965 51.4852 73.4724 51.7603 72.7651 52.2378C72.0577 52.7153 71.4938 53.3771 71.1343 54.1519C70.1363 53.7501 69.0439 53.6447 67.9877 53.8486C66.9315 54.0525 65.9564 54.5569 65.179 55.3014C64.9793 55.4802 64.8345 55.7121 64.7616 55.9702C64.7443 56.057 64.7442 56.1463 64.7614 56.2331C64.7786 56.3199 64.8127 56.4024 64.8618 56.476C64.4231 56.1147 63.9035 55.8651 63.3476 55.7486C62.7916 55.6322 62.2157 55.6523 61.6692 55.8072C61.2988 55.9191 60.9512 56.096 60.6426 56.3297C59.6938 56.7436 58.9447 57.5134 58.5559 58.474C57.1737 58.4931 55.8465 59.0194 54.8258 59.9531C53.8051 60.8869 53.1618 62.1632 53.0179 63.5402C52.0315 63.9524 51.1902 64.6498 50.6014 65.5433C50.0127 66.4367 49.7032 67.4857 49.7126 68.5562C49.0799 68.8286 48.5299 69.263 48.1179 69.8157C47.7059 70.3685 47.4465 71.0202 47.3657 71.7052C47.2849 72.3903 47.3856 73.0845 47.6577 73.7182C47.9297 74.3519 48.3635 74.9027 48.9155 75.3153C48.9155 75.3153 44.9258 77.7522 47.3421 81.2383C48.5941 83.019 51.0981 81.7859 51.0981 81.7859L58.6101 93.1513C58.5768 93.2307 59.8997 94.4053 60.5382 93.8452C61.1767 93.2851 61.3437 92.3697 61.5398 91.542C61.7694 90.5932 62.0949 89.6401 62.0156 88.6662C61.9363 87.6922 61.3186 86.6723 60.3463 86.5218C61.2936 85.8112 61.5982 84.4904 61.4438 83.3158C61.2894 82.1412 60.6968 81.0753 60.1292 80.0345L57.6252 75.4365C58.7329 75.0168 59.7051 74.3021 60.4369 73.3695C61.1687 72.4369 61.6323 71.3218 61.7777 70.1446C63.7892 70.8385 66.2473 69.2835 66.4769 67.1601C67.2425 68.1215 68.344 68.756 69.5587 68.9352C70.7734 69.1145 72.0108 68.8251 73.0207 68.1257C73.2043 69.4883 75.8961 69.9063 77.2649 69.8186C78.6338 69.7308 79.9108 68.3179 79.9108 68.3179C80.8315 68.5085 81.7792 68.5284 82.707 68.3765L82.8447 68.3388C84.6434 67.9208 85.8161 65.7681 86.1458 63.9498C86.6094 63.8433 87.0458 63.6412 87.427 63.3563C88.0741 62.8304 88.5282 62.1039 88.7178 61.2912C88.9074 60.4784 88.8218 59.6256 88.4745 58.867Z" fill="#263238"/>
<path d="M78.6756 55.5397C78.766 55.5956 78.8488 55.663 78.9218 55.7403C79.1397 55.9537 79.3241 56.1989 79.4685 56.4676C79.7028 56.8918 79.853 57.3574 79.9109 57.8387C79.9895 58.4802 79.9063 59.1312 79.6689 59.7322C79.3626 60.4584 78.8076 61.0513 78.1039 61.4042C77.2921 61.8113 76.3653 61.9264 75.4788 61.7303C74.9996 61.6254 74.5485 61.4187 74.1559 61.1242C73.9464 60.9756 73.7642 60.7917 73.6175 60.5808C73.4572 60.3607 73.3618 60.1 73.3421 59.8284C73.3375 59.6856 73.3635 59.5435 73.4182 59.4116C73.4729 59.2796 73.5551 59.161 73.6593 59.0634C73.8701 58.8771 74.1289 58.754 74.4063 58.7081C74.6829 58.6539 74.9681 58.6625 75.2409 58.7332C75.5138 58.7923 75.7739 58.8999 76.0088 59.0509C76.4658 59.3438 76.8356 59.7545 77.0794 60.2399C77.3232 60.7254 77.432 61.2676 77.3944 61.8097C77.342 62.3074 77.191 62.7897 76.9503 63.2282C76.7095 63.6668 76.3837 64.0528 75.9921 64.3637C75.2895 64.9295 74.442 65.2859 73.5466 65.3919C72.777 65.485 71.9974 65.4511 71.2387 65.2916C70.1525 65.0454 69.1011 64.6649 68.1087 64.1588C67.754 63.9875 67.4869 63.8453 67.3033 63.7408C67.2084 63.6949 67.1164 63.6432 67.0278 63.5862C67.1291 63.6147 67.227 63.6539 67.32 63.7032L68.1546 64.0752C69.1517 64.5453 70.199 64.9001 71.2763 65.1328C72.0188 65.2775 72.7797 65.3015 73.5299 65.2038C74.3891 65.0973 75.2008 64.7495 75.8711 64.2006C76.2394 63.9049 76.5459 63.5392 76.7729 63.1246C76.9999 62.71 77.143 62.2547 77.1941 61.7846C77.2264 61.2813 77.1234 60.7785 76.8959 60.3286C76.6683 59.8787 76.3246 59.4981 75.9003 59.2264C75.6879 59.0878 75.4516 58.99 75.2034 58.938C74.962 58.8756 74.7098 58.867 74.4647 58.9129C74.2289 58.9506 74.0088 59.055 73.8304 59.2139C73.7466 59.2895 73.6804 59.3826 73.6365 59.4866C73.5925 59.5906 73.5718 59.703 73.5758 59.8158C73.6088 60.0457 73.6907 60.2658 73.816 60.4612C73.9413 60.6567 74.107 60.8229 74.3019 60.9486C74.6728 61.2292 75.0999 61.426 75.5539 61.5254C76.3973 61.7197 77.2819 61.6164 78.0579 61.2328C78.7318 60.8998 79.2647 60.3364 79.5604 59.6444C79.7673 59.1378 79.8624 58.5924 79.8394 58.0456C79.8163 57.4987 79.6756 56.9633 79.4268 56.476C79.2265 56.1267 78.973 55.8108 78.6756 55.5397Z" fill="#455A64"/>
<path d="M38.261 153.619C38.261 153.619 34.3047 167.965 33.4325 171.468C32.5602 174.971 32.5519 183.109 34.5342 185.517C36.5165 187.924 43.0603 189.459 43.0603 189.459C43.0603 189.459 55.9017 183.189 60.2753 175.514C64.649 167.84 76.6014 147.006 76.6014 147.006L72.8162 136.598L52.9052 155.638L53.1139 153.159L38.261 153.619Z" fill="#EFBE9D"/>
<path d="M72.1985 137.255L82.9114 126.19H93.1778L99.7425 134.884C99.7425 134.884 96.625 135.465 95.5107 133.789L94.0584 131.72C94.0584 131.72 95.5107 134.905 94.7303 136.473C94.7303 136.473 93.1904 140.105 92.9441 140.494C92.4767 141.226 92.1095 141.694 90.7823 141.472C89.4552 141.251 87.3644 140.16 87.5856 139.382C87.6552 139.155 87.7859 138.951 87.9633 138.794C88.1406 138.636 88.3579 138.53 88.5913 138.488L85.4655 138.04C85.4655 138.04 82.3188 143.75 80.4241 145.092C79.2517 145.913 77.9669 146.559 76.6097 147.011L72.1985 137.255Z" fill="#EFBE9D"/>
<path d="M53.3059 155.304C53.3309 155.358 52.442 155.772 51.0773 156.558C49.3068 157.598 47.642 158.809 46.1069 160.173C44.5724 161.548 43.1747 163.068 41.9336 164.713C40.9862 165.967 40.4771 166.803 40.427 166.803C40.5029 166.585 40.6052 166.377 40.7317 166.184C41.0398 165.636 41.377 165.104 41.7416 164.592C44.1222 161.172 47.2658 158.356 50.9229 156.365C51.6241 155.993 52.2083 155.713 52.6173 155.529C52.8361 155.425 53.0676 155.349 53.3059 155.304Z" fill="#E7996E"/>
<path d="M85.2444 129.404C85.7354 129.263 86.2408 129.177 86.751 129.149C87.6816 129.032 88.9753 128.899 90.4026 128.773C90.763 128.729 91.1273 128.729 91.4877 128.773C91.8331 128.828 92.1615 128.961 92.4476 129.162C92.9155 129.5 93.2902 129.952 93.5368 130.475C93.7826 130.93 93.9451 131.425 94.0167 131.938C93.9625 131.958 93.7663 131.398 93.324 130.587C93.0701 130.122 92.7114 129.723 92.2765 129.421C92.0251 129.255 91.74 129.146 91.4418 129.103C91.1076 129.066 90.7702 129.066 90.436 129.103C89.0087 129.229 87.715 129.325 86.776 129.379C86.268 129.445 85.7543 129.453 85.2444 129.404Z" fill="#E7996E"/>
<path d="M93.4241 139.938C93.3656 139.938 93.4658 139.156 93.399 137.911C93.3582 137.184 93.2591 136.461 93.1027 135.75C92.9274 134.968 92.6854 134.032 91.8924 133.576C91.499 133.367 91.0772 133.216 90.6404 133.129L89.3884 132.84C88.6754 132.677 87.9515 132.565 87.2225 132.506C86.5516 132.485 85.88 132.502 85.2109 132.556C85.374 132.468 85.5525 132.411 85.7368 132.389C86.2301 132.292 86.7326 132.252 87.235 132.268C87.9769 132.294 88.7154 132.382 89.4427 132.531C89.86 132.611 90.2774 132.703 90.7197 132.803C91.1957 132.89 91.6549 133.052 92.0802 133.284C92.5091 133.546 92.8449 133.936 93.0401 134.4C93.2147 134.812 93.3421 135.242 93.4199 135.683C93.5652 136.413 93.642 137.154 93.6494 137.898C93.6553 138.399 93.6246 138.899 93.5576 139.395C93.5444 139.582 93.4993 139.766 93.4241 139.938Z" fill="#E7996E"/>
<path d="M89.7267 136.222C89.8143 136.222 89.8811 137.117 89.8894 138.283V138.483L89.6808 138.446C89.568 138.424 89.4534 138.413 89.3385 138.412C88.8027 138.431 88.2946 138.656 87.9196 139.039C87.6316 139.34 87.5398 139.604 87.5023 139.587C87.4647 139.57 87.4772 139.273 87.7527 138.885C87.941 138.637 88.1832 138.435 88.4608 138.294C88.7384 138.154 89.0442 138.079 89.3552 138.074C89.4956 138.074 89.6355 138.09 89.7726 138.12L89.5681 138.283C89.5514 137.104 89.6223 136.222 89.7267 136.222Z" fill="#E7996E"/>
<path d="M89.7266 136.565C89.7266 136.661 88.7834 136.523 87.6399 136.464C86.4964 136.406 85.5532 136.439 85.5532 136.343C85.5532 136.247 86.4755 136.063 87.6399 136.126C88.8042 136.189 89.7266 136.477 89.7266 136.565Z" fill="#E7996E"/>
<path d="M85.7243 136.03C85.812 136.03 85.7243 137.045 85.2611 138.182C84.7978 139.319 84.1217 140.076 84.0508 140.022C83.9799 139.967 84.4932 139.144 84.9481 138.049C85.403 136.954 85.6242 136.013 85.7243 136.03Z" fill="#E7996E"/>
<path d="M152.973 137.246C152.973 137.246 160.035 128.05 160.807 127.632C161.579 127.214 171.411 125.793 171.411 125.793C171.411 125.793 170.994 128.903 168.152 129.818C166.14 130.466 163.782 130.972 163.782 130.972C163.782 130.972 164.567 137 163.119 139.416C161.924 141.262 160.569 142.999 159.071 144.607L152.973 137.246Z" fill="#EFBE9D"/>
<path d="M161.792 140.816C162.422 140.07 162.921 139.222 163.265 138.308C163.603 137.299 163.797 136.248 163.841 135.185C163.874 134.557 163.874 133.928 163.841 133.3C163.815 132.971 163.767 132.645 163.699 132.322C163.614 131.97 163.603 131.604 163.666 131.248C163.704 131.154 163.761 131.069 163.833 130.997C163.904 130.925 163.989 130.869 164.083 130.83C164.242 130.752 164.409 130.689 164.58 130.642C164.905 130.551 165.235 130.477 165.569 130.42C166.187 130.323 166.797 130.183 167.397 130.002C168.418 129.722 169.348 129.177 170.093 128.422C170.571 127.892 170.935 127.269 171.161 126.591C171.328 126.111 171.382 125.831 171.403 125.835C171.406 125.904 171.397 125.973 171.378 126.04C171.345 126.235 171.299 126.428 171.24 126.616C171.041 127.322 170.687 127.975 170.205 128.527C169.456 129.322 168.505 129.9 167.455 130.199C166.85 130.393 166.232 130.544 165.606 130.65C165.281 130.708 164.96 130.782 164.642 130.872C164.482 130.914 164.327 130.973 164.179 131.047C164.042 131.098 163.93 131.2 163.866 131.331C163.818 131.654 163.832 131.984 163.908 132.301C163.978 132.633 164.025 132.97 164.05 133.309C164.085 133.943 164.085 134.58 164.05 135.215C163.996 136.295 163.782 137.362 163.415 138.379C163.156 139.051 162.795 139.679 162.343 140.239C162.221 140.394 162.088 140.541 161.946 140.678C161.9 140.73 161.848 140.776 161.792 140.816Z" fill="#E7996E"/>
</g>
<defs>
<clipPath id="clip0_4666_5494">
<rect width="313" height="209" fill="white"/>
</clipPath>
</defs>
</svg>
