<svg width="313" height="209" viewBox="0 0 313 209" fill="none" xmlns="http://www.w3.org/2000/svg">
<path d="M75.3777 176.79C70.9309 176.864 64.4544 177.029 60.0654 177.024H59.8109V176.785L59.7762 170.839V170.573H60.0654C64.651 170.573 71.0523 170.61 75.5396 170.695C75.5396 172.497 75.4124 174.946 75.3777 176.785V176.79ZM75.3777 176.79C75.3199 175.047 75.262 172.539 75.2216 170.844L75.3777 170.988C70.954 171.062 64.5585 171.099 60.0654 171.11L60.3545 170.844V176.79L60.0943 176.551C64.4255 176.551 71.0176 176.705 75.4066 176.79H75.3777Z" fill="#EBEBEB"/>
<path d="M66.8368 184.287C62.39 184.361 55.9135 184.526 51.5245 184.521H51.27V184.282L51.2354 178.336V178.07H51.5245C56.1101 178.07 62.4767 178.108 66.9987 178.193C66.9987 179.994 66.8715 182.443 66.8368 184.282V184.287ZM66.8368 184.287C66.779 182.544 66.7212 180.036 66.6807 178.341L66.8368 178.485C62.4073 178.559 56.0176 178.596 51.5245 178.607L51.8136 178.341L51.7847 184.287L51.5245 184.048C55.8556 184.048 62.4478 184.202 66.8368 184.287Z" fill="#EBEBEB"/>
<path d="M142.596 98.2113C138.149 98.291 131.672 98.4504 127.283 98.4504H127.029V98.2113L127 92.2657V92H127.289C131.875 92 138.241 92.0425 142.763 92.1222C142.763 93.9234 142.636 96.3729 142.601 98.2113H142.596ZM142.596 98.2113C142.538 96.4738 142.48 93.9606 142.44 92.2657L142.596 92.4091C138.166 92.4835 131.776 92.5207 127.283 92.5313L127.572 92.2657V98.2113L127.312 97.9722C131.643 97.9722 138.236 98.1263 142.625 98.2113H142.596Z" fill="#EBEBEB"/>
<path d="M88.9344 112.151C84.4876 112.225 78.0111 112.39 73.6221 112.39H73.3677V112.151V106.205V105.939H73.6568C78.2424 105.939 84.609 105.982 89.131 106.062C89.131 107.863 89.0038 110.312 88.9691 112.151H88.9344ZM88.9344 112.151C88.8766 110.413 88.8188 107.9 88.7783 106.205L88.9344 106.349C84.505 106.423 78.1152 106.46 73.6221 106.471L73.9112 106.205L73.8765 112.151L73.6221 111.912C77.9533 111.912 84.5454 112.066 88.9344 112.151Z" fill="#EBEBEB"/>
<path d="M80.4283 104.654C75.9814 104.733 69.5049 104.893 65.1159 104.893H64.8557V104.654V98.7081V98.4424H65.1506C69.7304 98.4424 76.1029 98.4849 80.6191 98.5646C80.6191 100.366 80.4976 102.815 80.463 104.654H80.4283ZM80.4283 104.654C80.3704 102.916 80.3068 100.403 80.2663 98.7081L80.4283 98.8515C75.9988 98.9259 69.609 98.9631 65.1159 98.9737L65.3993 98.7081V104.654L65.1448 104.415C69.4702 104.415 76.0682 104.569 80.4572 104.654H80.4283Z" fill="#EBEBEB"/>
<path d="M292.844 184.287C288.397 184.361 281.921 184.526 277.532 184.521H277.271V184.282L277.242 178.336V178.07H277.532C282.111 178.07 288.484 178.108 293 178.193C293 179.994 292.879 182.443 292.844 184.282V184.287ZM292.844 184.287C292.786 182.544 292.728 180.036 292.688 178.341L292.844 178.485C288.414 178.559 282.025 178.596 277.532 178.607L277.821 178.341L277.786 184.287L277.532 184.048C281.857 184.048 288.455 184.202 292.844 184.287Z" fill="#EBEBEB"/>
<path d="M89.5494 25.2166C85.1026 25.291 78.6261 25.4504 74.2371 25.4504H74V25.2166V19.271V19H74.2949C78.8747 19 85.2472 19.0372 89.7634 19.1222C89.7634 20.9234 89.6419 23.3729 89.6072 25.2113L89.5494 25.2166ZM89.5494 25.2166C89.4916 23.4738 89.428 20.9659 89.3875 19.271L89.5494 19.4144C85.1199 19.4888 78.7302 19.5207 74.2371 19.5366L74.5262 19.271L74.4915 25.2166L74.2371 24.9775C78.5625 24.9775 85.1604 25.1316 89.5494 25.2166Z" fill="#EBEBEB"/>
<path d="M77.6015 39.2166C73.1546 39.291 66.6781 39.4504 62.2891 39.4504H62.0289V39.2166L62 33.271V33H62.2891C66.8689 33 73.2414 33.0372 77.7576 33.1222C77.7576 34.9234 77.6362 37.3729 77.6015 39.2113V39.2166ZM77.6015 39.2166C77.5436 37.4738 77.4858 34.9659 77.4453 33.271L77.6015 33.4144C73.172 33.4888 66.7822 33.5207 62.2891 33.5313L62.5783 33.271L62.5436 39.2166L62.2891 38.9775C66.6145 38.9775 73.2125 39.1316 77.6015 39.2166Z" fill="#EBEBEB"/>
<path d="M135.601 91.2166C131.155 91.291 124.678 91.4504 120.289 91.4504H120.035V91.2166L120 85.271V85H120.289C124.875 85 131.241 85.0372 135.763 85.1222C135.763 86.9234 135.636 89.3729 135.601 91.2113V91.2166ZM135.601 91.2166C135.544 89.4738 135.486 86.9659 135.445 85.271L135.601 85.4144C131.172 85.4888 124.782 85.5207 120.289 85.5366L120.578 85.271L120.549 91.2166L120.289 90.9775C124.62 90.9775 131.212 91.1316 135.601 91.2166Z" fill="#EBEBEB"/>
<path d="M32 190.142L33.4167 193H65.7877L67.1987 190.142H32Z" fill="#DBDBDB"/>
<path d="M174.198 50.061C176.282 47.9024 171.675 40.0743 163.908 32.5765C156.141 25.0787 148.156 20.7504 146.072 22.9089C143.988 25.0675 148.595 32.8956 156.362 40.3934C164.129 47.8912 172.115 52.2195 174.198 50.061Z" fill="#263238"/>
<path d="M156.378 40.4074C148.614 32.9106 144.002 25.0879 146.086 22.9248L121.501 48.4277C119.417 50.581 124.02 58.4136 131.793 65.9104C139.567 73.4072 147.538 77.763 149.572 75.5703L174.167 50.0772C172.122 52.2305 164.141 47.9042 156.378 40.4074Z" fill="#DAD5E1"/>
<path opacity="0.6" d="M156.378 40.4074C148.614 32.9106 144.002 25.0879 146.086 22.9248L121.501 48.4277C119.417 50.581 124.02 58.4136 131.793 65.9104C139.567 73.4072 147.538 77.763 149.572 75.5703L174.167 50.0772C172.122 52.2305 164.141 47.9042 156.378 40.4074Z" fill="#EFEBF5"/>
<path d="M193.015 43.2139C188.393 51.5305 181.281 53.9504 173.142 52.1034H173.083C169.577 51.3922 163.69 47.5796 157.902 41.999C154.942 39.1859 152.293 36.0633 150 32.6848C150.217 29.8105 154.099 27.4301 157.526 27.0943C162.04 26.64 167.868 27.5783 173.587 35.4998C180.442 45.0017 187.632 43.4016 188.669 39.8853C190.467 33.7219 197.183 35.727 193.015 43.2139Z" fill="#DAD5E1"/>
<path d="M184.972 40.7436C185.239 38.1656 183.046 37.1483 183.214 39.6373C183.382 42.1264 184.784 42.6005 184.972 40.7436Z" fill="#DAD5E1"/>
<path d="M190.177 53.1889C192.084 52.6259 192.054 50.7888 190.355 51.6283C188.656 52.4679 188.805 53.584 190.177 53.1889Z" fill="#DAD5E1"/>
<path d="M154.919 62.4181C154.773 62.2866 154.628 62.156 154.473 62.0165C154.559 61.9215 154.642 61.8296 154.74 61.7199C154.089 61.6686 153.557 61.4255 153.184 60.878C152.937 60.5137 152.82 60.1187 152.846 59.6918C152.896 58.8216 153.558 58.1376 154.433 58.0497C154.677 58.0256 154.918 58.0537 155.158 58.1258C155.395 58.197 155.609 58.3126 155.806 58.4655C156.006 58.6213 156.178 58.8044 156.282 59.032C156.382 59.2525 156.458 59.4818 156.545 59.7098C156.616 59.6305 156.696 59.5417 156.785 59.4435C156.94 59.583 157.086 59.7146 157.233 59.8471C156.463 60.7044 155.691 61.5607 154.919 62.4181ZM155.628 60.7341C156.06 60.2599 156.007 59.4974 155.511 59.0449C155.007 58.5853 154.244 58.6 153.81 59.0774C153.374 59.5568 153.427 60.3172 153.928 60.7727C154.428 61.2283 155.194 61.2114 155.628 60.7341Z" fill="#5E3F86"/>
<path d="M135.217 40.0164C135.332 40.1201 135.446 40.2227 135.568 40.3323C135.868 39.9992 136.162 39.6723 136.46 39.3413C136.633 39.4968 136.799 39.6462 136.972 39.8017C136.674 40.1317 136.38 40.4586 136.081 40.7906C136.363 41.0448 136.637 41.2919 136.916 41.543C136.777 41.6976 136.642 41.8469 136.501 42.0036C136.224 41.7534 135.95 41.5073 135.672 41.2561C135.649 41.2771 135.631 41.2918 135.615 41.3096C135.264 41.7002 134.911 42.0897 134.56 42.4813C134.427 42.6285 134.375 42.8066 134.435 43.0046C134.465 43.101 134.527 43.1967 134.598 43.2717C134.719 43.3997 134.857 43.513 134.991 43.6296C135.031 43.6644 135.039 43.6918 135.015 43.7384C134.929 43.905 134.849 44.0766 134.762 44.2524C134.738 44.2345 134.72 44.2237 134.706 44.2108C134.483 44.0043 134.243 43.8147 134.042 43.5883C133.637 43.1326 133.637 42.4823 134.022 42.0532C134.374 41.6595 134.729 41.2679 135.083 40.8752C135.104 40.8512 135.127 40.8262 135.162 40.7875C135.042 40.6799 134.925 40.5743 134.809 40.4696C134.945 40.3182 135.081 40.1678 135.217 40.0164Z" fill="#5D3F86"/>
<path d="M142.261 42.2377C142.297 42.3023 142.339 42.3647 142.367 42.4315C142.533 42.8233 142.28 43.2422 141.862 43.2571C141.65 43.2651 141.439 43.2526 141.212 43.2487C141.199 43.0272 141.16 42.7745 141.175 42.5288C141.199 42.1285 141.639 41.9066 142.023 42.0766C142.053 42.0902 142.085 42.0987 142.117 42.1102C142.167 42.153 142.213 42.1948 142.261 42.2377Z" fill="#FBB946"/>
<path d="M142.41 49.9175C143.093 49.4108 143.762 48.9147 144.429 48.4146C144.477 48.3787 144.504 48.376 144.551 48.4209C144.698 48.5586 144.85 48.692 145.01 48.8355C144.063 49.5416 143.126 50.2412 142.184 50.9451C142.011 50.7896 141.841 50.6403 141.675 50.4836C141.654 50.4626 141.654 50.4054 141.661 50.3684C141.791 49.6876 141.925 49.0077 142.058 48.3278C142.064 48.2918 142.071 48.2559 142.08 48.2056C142.038 48.2168 142.004 48.2258 141.972 48.2347C141.303 48.4384 140.634 48.6411 139.966 48.8489C139.902 48.8688 139.861 48.8585 139.811 48.8116C139.659 48.6689 139.502 48.5315 139.341 48.387C139.942 47.3772 140.54 46.3716 141.141 45.3608C141.314 45.5163 141.481 45.6667 141.658 45.8262C141.223 46.5602 140.787 47.2962 140.34 48.0529C140.386 48.0416 140.413 48.0359 140.439 48.0291C141.004 47.8565 141.569 47.6849 142.132 47.5092C142.199 47.4882 142.242 47.4984 142.295 47.5483C142.428 47.6751 142.564 47.7976 142.705 47.917C142.767 47.9698 142.778 48.0186 142.763 48.0925C142.645 48.6801 142.531 49.2685 142.418 49.857C142.414 49.8703 142.413 49.8847 142.41 49.9175Z" fill="#5E3F86"/>
<path d="M147.523 51.6314C147.617 51.5269 147.697 51.4382 147.782 51.3442C147.953 51.4986 148.12 51.6491 148.293 51.8046C147.525 52.6578 146.757 53.5099 145.986 54.3662C145.816 54.2137 145.651 54.0642 145.479 53.9098C145.563 53.8168 145.646 53.7249 145.742 53.6174C145.064 53.5586 144.514 53.2943 144.139 52.7101C143.904 52.3455 143.8 51.9533 143.837 51.5343C143.914 50.6461 144.592 49.9842 145.49 49.9285C145.984 49.8986 146.431 50.0558 146.827 50.3758C147.224 50.6978 147.426 51.1255 147.523 51.6314ZM144.791 50.962C144.358 51.4414 144.41 52.207 144.919 52.6562C145.44 53.1163 146.181 53.1175 146.626 52.6296C147.076 52.1366 147.001 51.3951 146.49 50.9224C145.989 50.4597 145.224 50.4837 144.791 50.962Z" fill="#5E4087"/>
<path d="M149.435 57.4725C149.261 57.316 149.097 57.1686 148.929 57.0171C149.699 56.1618 150.467 55.3097 151.238 54.4534C151.405 54.6039 151.57 54.7523 151.742 54.9068C151.673 54.983 151.606 55.0572 151.524 55.148C151.588 55.1578 151.634 55.1639 151.681 55.172C152.041 55.2331 152.372 55.3593 152.646 55.6228C153.278 56.2287 153.392 57.1635 152.914 57.8412C152.866 57.9098 152.814 57.9744 152.758 58.0371C152.379 58.4599 151.999 58.8798 151.619 59.3017C151.597 59.3257 151.575 59.3497 151.55 59.3779C151.38 59.2244 151.214 59.075 151.04 58.9185C151.063 58.8934 151.083 58.8705 151.105 58.8464C151.494 58.4141 151.885 57.9828 152.273 57.5494C152.559 57.2299 152.615 56.7717 152.421 56.3815C152.089 55.7156 151.178 55.5507 150.697 56.0731C150.295 56.5109 149.901 56.9545 149.503 57.3963C149.483 57.4192 149.461 57.4433 149.435 57.4725Z" fill="#5D3F86"/>
<path d="M147.362 55.6072C147.188 55.4507 147.025 55.3032 146.857 55.1518C147.626 54.2975 148.393 53.4454 149.166 52.588C149.331 52.7365 149.497 52.886 149.669 53.0415C149.598 53.1208 149.525 53.2013 149.445 53.29C149.933 53.3492 150.337 53.5708 150.721 53.8757C150.527 54.005 150.346 54.1237 150.162 54.2456C149.988 54.0963 149.796 53.9914 149.577 53.9474C149.181 53.8687 148.845 53.9634 148.583 54.2517C148.197 54.6758 147.816 55.1028 147.433 55.5289C147.411 55.5529 147.389 55.5769 147.362 55.6072Z" fill="#5D3E86"/>
<path d="M137.687 42.2432C137.856 42.3957 138.02 42.5431 138.191 42.6976C138.117 42.7801 138.044 42.8605 137.966 42.9472C138.454 43.0064 138.856 43.2281 139.24 43.5329C139.055 43.6538 138.885 43.7692 138.711 43.8786C138.693 43.8892 138.644 43.8699 138.62 43.8521C138.291 43.6062 137.936 43.5153 137.551 43.6224C137.375 43.6725 137.229 43.7679 137.108 43.9027C136.723 44.3318 136.336 44.759 135.952 45.1861C135.93 45.2101 135.908 45.2341 135.883 45.2623C135.713 45.1088 135.548 44.9604 135.377 44.8069C136.145 43.9548 136.913 43.1026 137.687 42.2432Z" fill="#5D3E86"/>
<path d="M138.085 47.2495C137.915 47.096 137.749 46.9465 137.579 46.794C138.349 45.9398 139.115 45.0887 139.887 44.2324C140.054 44.3829 140.221 44.5334 140.392 44.6878C139.623 45.5421 138.855 46.3942 138.085 47.2495Z" fill="#5E3F86"/>
<path d="M141.183 43.645C141.434 43.6289 141.669 43.5928 141.904 43.6037C142.161 43.6161 142.399 43.8488 142.457 44.0999C142.523 44.3805 142.419 44.6365 142.182 44.7678C141.953 44.8958 141.66 44.8556 141.449 44.6714C141.308 44.5479 141.232 44.3963 141.221 44.2156C141.21 44.0165 141.195 43.8185 141.183 43.645Z" fill="#FBB946"/>
<path d="M140.873 43.3468C140.625 43.3465 140.395 43.357 140.164 43.3439C139.892 43.3278 139.662 43.1205 139.594 42.8563C139.524 42.5839 139.629 42.3208 139.863 42.1855C140.086 42.0556 140.387 42.0956 140.596 42.2778C140.73 42.3953 140.801 42.5388 140.816 42.7092C140.836 42.9163 140.855 43.1244 140.873 43.3468Z" fill="#FBB946"/>
<path d="M291.491 197.63C291.491 197.689 231.048 197.739 156.508 197.739C81.9685 197.739 21.5094 197.689 21.5094 197.63C21.5094 197.572 81.9393 197.521 156.508 197.521C231.078 197.521 291.491 197.567 291.491 197.63Z" fill="#DAD5E1"/>
<path d="M272.254 51.9669L219.026 58.9099C217.566 59.1004 216.536 60.4407 216.726 61.9035L218.547 75.9095C218.737 77.3723 220.076 78.4037 221.536 78.2132L274.764 71.2701C276.224 71.0796 277.254 69.7393 277.064 68.2765L275.243 54.2706C275.053 52.8078 273.715 51.7764 272.254 51.9669Z" fill="#FAFAFA"/>
<path d="M218.553 75.9041C218.553 75.9041 218.553 76.0379 218.641 76.2845C218.747 76.655 218.934 76.9975 219.187 77.2877C219.598 77.7612 220.163 78.0749 220.781 78.1739C221.177 78.2188 221.577 78.2018 221.967 78.1237L223.319 77.944L239.499 75.8038L263.5 72.6563L270.44 71.7492L274.021 71.2811C274.321 71.2351 274.63 71.21 274.922 71.1515C275.217 71.097 275.499 70.9908 275.757 70.838C276.275 70.5256 276.669 70.0424 276.871 69.4711C276.974 69.1873 277.023 68.8868 277.017 68.585C277.017 68.2882 276.955 67.9747 276.917 67.6654C276.838 67.0425 276.754 66.4114 276.675 65.7927C276.508 64.5387 276.345 63.2847 276.178 62.0098C275.847 59.4628 275.512 56.8851 275.173 54.2768C275.089 53.6413 274.774 53.0592 274.288 52.6424C273.802 52.2257 273.179 52.0038 272.539 52.0196C271.266 52.1576 269.977 52.3457 268.712 52.5045L261.2 53.4826L247.011 55.326L223.006 58.4401L220.502 58.7661L219.296 58.9208C218.909 58.9471 218.53 59.0478 218.181 59.2176C217.85 59.3843 217.558 59.6196 217.324 59.9078C217.09 60.196 216.92 60.5306 216.825 60.8896C216.629 61.5918 216.825 62.3024 216.9 62.9796C217.251 65.7008 217.547 68.0416 217.793 69.956C218.04 71.8704 218.211 73.3543 218.353 74.3659C218.415 74.8675 218.461 75.2521 218.494 75.5112C218.528 75.7704 218.536 75.9041 218.536 75.9041C218.536 75.9041 218.511 75.7704 218.478 75.5154C218.444 75.2604 218.386 74.8717 218.319 74.3701C218.186 73.3585 217.985 71.8621 217.731 69.9644C217.476 68.0666 217.167 65.7091 216.808 62.9921C216.767 62.6535 216.721 62.3066 216.675 61.9555C216.622 61.5917 216.641 61.2212 216.729 60.8645C216.827 60.4914 217.003 60.1433 217.244 59.8429C217.486 59.5425 217.788 59.2966 218.131 59.1214C218.493 58.9477 218.883 58.8428 219.283 58.8121L220.485 58.6533L222.989 58.3272L247.007 55.1755L261.196 53.3196L268.708 52.3415C269.96 52.1826 271.245 51.9945 272.552 51.8524C273.233 51.8354 273.896 52.0716 274.413 52.5155C274.93 52.9594 275.264 53.5794 275.352 54.2559C275.694 56.8642 276.029 59.4419 276.358 61.9889C276.525 63.2596 276.689 64.5136 276.85 65.7509C276.934 66.3779 277.013 67.0049 277.092 67.6236C277.13 67.9329 277.184 68.238 277.197 68.5641C277.2 68.8845 277.147 69.2031 277.038 69.5046C276.881 69.9573 276.608 70.3608 276.246 70.6741C275.884 70.9875 275.446 71.1997 274.976 71.2894C274.668 71.3479 274.371 71.373 274.067 71.419L270.457 71.8955L263.521 72.7984L239.516 75.9125L223.327 78.0025L221.975 78.1739C221.581 78.2519 221.176 78.266 220.777 78.2157C220.148 78.1141 219.575 77.791 219.162 77.3044C218.909 77.0096 218.726 76.6608 218.628 76.2845C218.599 76.1904 218.578 76.0939 218.565 75.9961L218.553 75.9041Z" fill="#263238"/>
<path d="M273.527 70.638L271.218 52.8809L262.134 54.0657L264.443 71.8229L273.527 70.638Z" fill="#DAD5E1"/>
<path d="M260.661 72.3138L258.352 54.5566L249.269 55.7415L251.577 73.4987L260.661 72.3138Z" fill="#DAD5E1"/>
<path d="M247.796 73.9925L245.487 56.2354L236.404 57.4202L238.712 75.1774L247.796 73.9925Z" fill="#DAD5E1"/>
<path d="M234.931 75.6712L232.622 57.9141L223.538 59.099L225.847 76.8561L234.931 75.6712Z" fill="#DAD5E1"/>
<g opacity="0.5">
<path d="M273.527 70.638L271.218 52.8809L262.134 54.0657L264.443 71.8229L273.527 70.638Z" fill="black"/>
</g>
<g opacity="0.6">
<path d="M260.661 72.3138L258.352 54.5566L249.269 55.7415L251.577 73.4987L260.661 72.3138Z" fill="black"/>
</g>
<g opacity="0.7">
<path d="M247.796 73.9925L245.487 56.2354L236.404 57.4202L238.712 75.1774L247.796 73.9925Z" fill="black"/>
</g>
<g opacity="0.8">
<path d="M234.931 75.6712L232.622 57.9141L223.538 59.099L225.847 76.8561L234.931 75.6712Z" fill="black"/>
</g>
<path d="M218.549 73.4375L212.23 61.1734C211.887 60.5048 211.822 59.727 212.05 59.0106C212.279 58.2943 212.782 57.6981 213.449 57.3529L260.862 32.8539C261.192 32.6829 261.552 32.5787 261.922 32.5472C262.293 32.5158 262.665 32.5578 263.019 32.6707C263.373 32.7837 263.701 32.9655 263.985 33.2056C264.269 33.4458 264.502 33.7396 264.672 34.0703L270.974 46.3344C271.145 46.6654 271.249 47.0268 271.28 47.398C271.311 47.7692 271.269 48.1429 271.156 48.4977C271.042 48.8526 270.86 49.1816 270.62 49.4659C270.38 49.7503 270.086 49.9844 269.755 50.1549L222.359 74.6539C222.029 74.825 221.669 74.9292 221.299 74.9606C220.929 74.992 220.556 74.9501 220.202 74.8371C219.848 74.7241 219.52 74.5423 219.236 74.3022C218.953 74.062 218.719 73.7682 218.549 73.4375Z" fill="#FAFAFA"/>
<path d="M218.549 73.4381C218.569 73.4645 218.587 73.4924 218.603 73.5217C218.64 73.576 218.682 73.6638 218.761 73.7683C218.982 74.0811 219.267 74.3432 219.596 74.5374C220.129 74.8653 220.757 75.0024 221.378 74.9262C221.77 74.8761 222.149 74.7498 222.492 74.5541L223.703 73.923L238.172 66.4199L259.635 55.3052L265.841 52.0992L269.046 50.4272C269.604 50.2023 270.111 49.8667 270.536 49.4407C270.832 49.1029 271.041 48.6979 271.145 48.2608C271.249 47.8237 271.245 47.3678 271.133 46.9327C271.044 46.6418 270.923 46.3615 270.774 46.0967L269.91 44.4247L268.165 41.0389L264.601 34.121C264.309 33.5507 263.828 33.1005 263.239 32.8486C262.651 32.5967 261.993 32.5588 261.38 32.7416C261.078 32.8447 260.788 32.9762 260.511 33.1345L259.652 33.5776L257.941 34.4638L251.234 37.9206L238.547 44.4707L217.067 55.5519L214.83 56.7055L213.753 57.2657C213.397 57.4216 213.07 57.6396 212.789 57.9094C212.399 58.2966 212.132 58.7915 212.022 59.3311C211.913 59.8708 211.967 60.4308 212.176 60.9399C212.309 61.2576 212.489 61.5627 212.639 61.8678L215.84 68.1128C216.712 69.8266 217.393 71.1558 217.856 72.0629C218.085 72.5143 218.273 72.8571 218.378 73.0911C218.482 73.3252 218.549 73.4464 218.549 73.4464C218.549 73.4464 218.482 73.3294 218.361 73.0995L217.827 72.0796C217.359 71.1767 216.666 69.8516 215.782 68.142L212.547 61.9055C212.393 61.5961 212.222 61.2994 212.076 60.9691C211.864 60.4406 211.811 59.8617 211.923 59.3033C212.035 58.745 212.307 58.2315 212.706 57.8258C212.996 57.55 213.33 57.3253 213.695 57.1612L214.772 56.6052L217.004 55.4474L238.472 44.3327L251.151 37.7743L257.857 34.3091L259.568 33.4229L260.428 32.9799C260.713 32.812 261.014 32.672 261.325 32.5619C261.975 32.3715 262.671 32.4134 263.294 32.6802C263.917 32.9471 264.428 33.4224 264.739 34.0249L268.311 40.9637L270.056 44.3495L270.916 46.0215C271.074 46.2967 271.199 46.59 271.287 46.8951C271.371 47.2038 271.402 47.5247 271.379 47.8439C271.333 48.483 271.08 49.0895 270.657 49.5703C270.45 49.8067 270.204 50.006 269.931 50.1597C269.659 50.3143 269.388 50.4439 269.121 50.5777L265.912 52.2497L259.706 55.4432L238.226 66.5244L223.736 73.9857L222.526 74.6085C222.173 74.8045 221.787 74.9308 221.386 74.9805C220.754 75.0468 220.118 74.8997 219.579 74.5625C219.247 74.3631 218.962 74.0935 218.745 73.7725C218.688 73.6924 218.636 73.6086 218.59 73.5217C218.575 73.4945 218.561 73.4666 218.549 73.4381Z" fill="#263238"/>
<path d="M268.539 49.912L260.342 33.998L252.201 38.2048L260.398 54.1188L268.539 49.912Z" fill="#DAD5E1"/>
<path d="M257.008 55.8701L248.811 39.9561L240.67 44.1628L248.867 60.0768L257.008 55.8701Z" fill="#DAD5E1"/>
<path d="M245.482 61.83L237.285 45.916L229.144 50.1227L237.341 66.0367L245.482 61.83Z" fill="#DAD5E1"/>
<path d="M233.955 67.7861L225.757 51.8721L217.617 56.0788L225.814 71.9928L233.955 67.7861Z" fill="#DAD5E1"/>
<g opacity="0.1">
<path d="M268.539 49.912L260.342 33.998L252.201 38.2048L260.398 54.1188L268.539 49.912Z" fill="black"/>
</g>
<g opacity="0.2">
<path d="M257.008 55.8701L248.811 39.9561L240.67 44.1628L248.867 60.0768L257.008 55.8701Z" fill="black"/>
</g>
<g opacity="0.3">
<path d="M245.482 61.83L237.285 45.916L229.144 50.1227L237.341 66.0367L245.482 61.83Z" fill="black"/>
</g>
<g opacity="0.4">
<path d="M233.955 67.7861L225.757 51.8721L217.617 56.0788L225.814 71.9928L233.955 67.7861Z" fill="black"/>
</g>
<path d="M219.997 73.1743L209.484 64.5426C209.187 64.2997 208.94 64.0006 208.758 63.6622C208.576 63.3238 208.463 62.9529 208.424 62.5705C208.385 62.1882 208.422 61.8019 208.532 61.4339C208.643 61.0658 208.824 60.7231 209.067 60.4253L242.775 19.2272C243.017 18.9294 243.316 18.6823 243.654 18.5001C243.992 18.3179 244.362 18.2042 244.744 18.1654C245.125 18.1265 245.511 18.1634 245.879 18.2739C246.246 18.3844 246.588 18.5663 246.886 18.8092L257.402 27.4409C257.7 27.6838 257.946 27.983 258.128 28.3213C258.31 28.6597 258.424 29.0306 258.463 29.413C258.501 29.7953 258.464 30.1816 258.354 30.5496C258.244 30.9177 258.062 31.2604 257.82 31.5582L224.124 72.7479C223.882 73.0488 223.583 73.2987 223.244 73.4831C222.905 73.6676 222.533 73.7829 222.149 73.8226C221.765 73.8622 221.378 73.8253 221.008 73.7141C220.639 73.6028 220.295 73.4193 219.997 73.1743Z" fill="#FAFAFA"/>
<path d="M219.997 73.175L220.08 73.2294C220.135 73.2628 220.21 73.3297 220.322 73.3924C220.648 73.5932 221.012 73.7255 221.391 73.7811C222.008 73.8765 222.64 73.771 223.194 73.4802C223.874 73.1625 224.337 72.4059 224.959 71.6744L235.254 59.0508L250.525 40.3411L254.944 34.9364L257.227 32.1442C257.648 31.7128 257.985 31.2068 258.22 30.6519C258.415 30.0818 258.427 29.465 258.254 28.8879C258.07 28.3051 257.71 27.7939 257.223 27.4249C256.739 27.032 256.255 26.6349 255.771 26.2336L252.841 23.826L246.84 18.8936C246.346 18.4928 245.734 18.2666 245.099 18.2498C244.462 18.2389 243.84 18.4437 243.334 18.8309C243.088 19.029 242.866 19.2564 242.675 19.508L242.061 20.2562C241.644 20.7578 241.247 21.2511 240.843 21.7485L236.047 27.588L227.008 38.6273L211.713 57.3161L210.114 59.264L209.33 60.192C209.068 60.4782 208.852 60.8041 208.691 61.1575C208.402 61.8484 208.392 62.6244 208.662 63.3228C208.79 63.6526 208.98 63.9548 209.221 64.2131C209.465 64.458 209.724 64.687 209.997 64.8986L215.423 69.3503C216.904 70.5751 218.052 71.5281 218.837 72.1718L219.721 72.9117C219.922 73.0747 220.018 73.1667 220.018 73.1667L219.709 72.9242L218.807 72.2053L215.373 69.4089L209.947 64.9781C209.671 64.7644 209.407 64.534 209.159 64.2884C208.909 64.0196 208.712 63.7062 208.579 63.3646C208.297 62.6427 208.306 61.8395 208.604 61.1241C208.766 60.7609 208.986 60.4264 209.255 60.1334L210.023 59.1929L211.613 57.2451L226.899 38.5312L235.918 27.4835L240.697 21.6315L241.915 20.1392C242.12 19.8926 242.332 19.6418 242.524 19.391C242.726 19.1294 242.957 18.8923 243.213 18.6846C243.752 18.2766 244.413 18.0619 245.089 18.0748C245.764 18.0877 246.416 18.3274 246.94 18.7556L252.945 23.6964L255.887 26.1082L257.336 27.2995C257.849 27.6862 258.228 28.2241 258.421 28.8378C258.605 29.449 258.592 30.1029 258.383 30.7062C258.282 31.0071 258.133 31.2894 257.941 31.5422C257.753 31.7889 257.557 32.0146 257.365 32.2528C256.597 33.1947 255.836 34.1255 255.082 35.0451C253.571 36.8843 252.097 38.6845 250.658 40.4456L235.346 59.1344L225.009 71.7246L224.145 72.7779C223.819 73.1816 223.392 73.4911 222.907 73.6747C222.422 73.8583 221.898 73.9095 221.387 73.8229C221.004 73.7609 220.638 73.6185 220.314 73.4049C220.204 73.335 220.098 73.2582 219.997 73.175Z" fill="#263238"/>
<path d="M256.658 31.7555L242.829 20.4062L237.023 27.5033L250.852 38.8526L256.658 31.7555Z" fill="#DAD5E1"/>
<path d="M248.433 41.8053L234.604 30.4561L228.798 37.5531L242.627 48.9023L248.433 41.8053Z" fill="#DAD5E1"/>
<path d="M240.21 51.8571L226.38 40.5078L220.575 47.6048L234.404 58.9541L240.21 51.8571Z" fill="#DAD5E1"/>
<path d="M231.988 61.9098L218.159 50.5605L212.353 57.6576L226.182 69.0069L231.988 61.9098Z" fill="#DAD5E1"/>
<g opacity="0.5">
<path d="M256.658 31.7555L242.829 20.4062L237.023 27.5033L250.852 38.8526L256.658 31.7555Z" fill="white"/>
</g>
<g opacity="0.6">
<path d="M248.433 41.8053L234.604 30.4561L228.798 37.5531L242.627 48.9023L248.433 41.8053Z" fill="white"/>
</g>
<g opacity="0.7">
<path d="M240.21 51.8571L226.38 40.5078L220.575 47.6048L234.404 58.9541L240.21 51.8571Z" fill="white"/>
</g>
<g opacity="0.8">
<path d="M231.988 61.9098L218.159 50.5605L212.353 57.6576L226.182 69.0069L231.988 61.9098Z" fill="white"/>
</g>
<path d="M220.6 14.3389L204.801 65.6156C204.359 67.0517 205.162 68.5751 206.596 69.0182L219.975 73.1535C221.409 73.5967 222.93 72.7918 223.372 71.3557L239.171 20.079C239.613 18.6429 238.81 17.1195 237.376 16.6764L223.997 12.5411C222.563 12.0979 221.042 12.9028 220.6 14.3389Z" fill="#FAFAFA"/>
<path d="M219.984 73.15C220.111 73.1833 220.239 73.2098 220.368 73.2294C220.865 73.3039 221.373 73.2382 221.834 73.0396C222.296 72.8409 222.693 72.5173 222.981 72.105C223.199 71.7731 223.357 71.4052 223.448 71.0182L223.865 69.7099L228.648 54.0934L235.759 30.932C236.427 28.7556 237.113 26.5263 237.817 24.244L238.881 20.7871C238.969 20.4987 239.069 20.2019 239.144 19.9135C239.212 19.6234 239.235 19.3244 239.211 19.0274C239.146 18.4272 238.881 17.8664 238.46 17.4348C238.25 17.218 238.002 17.041 237.729 16.9123C237.446 16.7914 237.155 16.6908 236.857 16.6113L235.058 16.0554L231.419 14.931L223.982 12.632C223.37 12.4437 222.709 12.4853 222.125 12.749C221.541 13.0059 221.073 13.4705 220.811 14.0532C220.685 14.3374 220.602 14.6593 220.502 14.9644L220.218 15.884C220.03 16.5026 219.838 17.138 219.65 17.7274C218.896 20.1769 218.152 22.5887 217.418 24.963L213.203 38.6357L206.05 61.7846L205.303 64.1964C205.181 64.5894 205.06 64.9739 204.944 65.3585C204.806 65.7215 204.738 66.1072 204.743 66.4954C204.753 66.8666 204.84 67.2317 204.998 67.5672C205.157 67.9027 205.385 68.2012 205.666 68.4433C206.204 68.9407 206.918 69.0494 207.577 69.2793L214.279 71.3693L218.511 72.6902L219.609 73.0413L219.984 73.1625L219.604 73.058L218.503 72.7236L214.258 71.4278L207.539 69.388L206.542 69.0787C205.999 68.9028 205.524 68.5628 205.182 68.1055C204.839 67.6482 204.647 67.096 204.631 66.5247C204.624 66.1241 204.692 65.7257 204.831 65.3501C204.952 64.9697 205.069 64.581 205.19 64.1881C205.428 63.4064 205.678 62.5997 205.929 61.7762C207.957 55.176 210.377 47.3134 213.057 38.5939C214.396 34.2342 215.807 29.6613 217.267 24.917C217.998 22.5469 218.741 20.1309 219.492 17.6856C219.684 17.0711 219.872 16.4567 220.059 15.838L220.347 14.9142C220.435 14.5981 220.539 14.2869 220.66 13.9821C220.938 13.3633 221.435 12.8692 222.054 12.5943C222.677 12.3135 223.38 12.2689 224.032 12.4689L231.469 14.7679L235.108 15.884L236.903 16.4399C237.208 16.5231 237.506 16.6279 237.796 16.7534C238.085 16.892 238.349 17.0786 238.576 17.3052C239.022 17.7667 239.301 18.364 239.369 19.0023C239.398 19.3162 239.374 19.6326 239.298 19.9386C239.219 20.2479 239.123 20.528 239.036 20.8206C238.677 21.9868 238.322 23.1363 237.967 24.2774C237.266 26.5597 236.579 28.789 235.906 30.9654L228.752 54.1143L223.916 69.7182C223.774 70.178 223.64 70.6127 223.498 71.0224C223.436 71.2272 223.373 71.4404 223.302 71.6118L223.173 71.8793C223.118 71.9587 223.073 72.0423 223.018 72.1217C222.652 72.6434 222.114 73.0194 221.499 73.1834C221.126 73.2884 220.734 73.3084 220.352 73.242C220.254 73.2268 220.158 73.2044 220.064 73.1751L219.984 73.15Z" fill="#263238"/>
<path d="M238.118 20.8887L221.035 15.6084L218.333 24.3755L235.417 29.6559L238.118 20.8887Z" fill="#DAD5E1"/>
<path d="M234.291 33.3057L217.208 28.0254L214.506 36.7925L231.59 42.0729L234.291 33.3057Z" fill="#DAD5E1"/>
<path d="M230.467 45.7237L213.383 40.4434L210.682 49.2105L227.766 54.4909L230.467 45.7237Z" fill="#DAD5E1"/>
<path d="M226.64 58.1356L209.561 52.8564L206.859 61.6236L223.939 66.9027L226.64 58.1356Z" fill="#DAD5E1"/>
<g opacity="0.2">
<path d="M234.291 33.3057L217.208 28.0254L214.506 36.7925L231.59 42.0729L234.291 33.3057Z" fill="white"/>
</g>
<g opacity="0.3">
<path d="M230.467 45.7237L213.383 40.4434L210.682 49.2105L227.766 54.4909L230.467 45.7237Z" fill="white"/>
</g>
<g opacity="0.4">
<path d="M226.64 58.1356L209.561 52.8564L206.859 61.6236L223.939 66.9027L226.64 58.1356Z" fill="white"/>
</g>
<g opacity="0.1">
<path d="M238.118 20.8887L221.035 15.6084L218.333 24.3755L235.417 29.6559L238.118 20.8887Z" fill="white"/>
</g>
<path d="M221.954 70.3447C221.742 70.715 221.425 71.014 221.044 71.2035C220.662 71.3931 220.232 71.4647 219.81 71.4092C219.388 71.3538 218.991 71.1739 218.671 70.8923C218.351 70.6106 218.121 70.2401 218.012 69.8276C217.902 69.4151 217.918 68.9794 218.056 68.5757C218.195 68.1721 218.45 67.8187 218.789 67.5606C219.128 67.3024 219.537 67.1511 219.962 67.1258C220.387 67.1006 220.81 67.2025 221.178 67.4187C221.666 67.7058 222.021 68.1741 222.166 68.722C222.312 69.2698 222.235 69.8529 221.954 70.3447Z" fill="#455A64"/>
<path d="M221.954 70.3452C221.954 70.3452 222.042 70.1738 222.129 69.8478C222.251 69.3869 222.216 68.8985 222.029 68.46C221.895 68.1368 221.681 67.8525 221.409 67.6334C221.136 67.4143 220.813 67.2674 220.468 67.206C220.064 67.1343 219.647 67.1837 219.271 67.3482C218.865 67.5231 218.525 67.8226 218.3 68.2035C218.075 68.5843 217.977 69.0269 218.019 69.4674C218.06 69.8765 218.223 70.2638 218.486 70.5793C218.707 70.8486 218.993 71.0582 219.316 71.1889C219.638 71.3196 219.989 71.3672 220.335 71.3275C220.807 71.2732 221.248 71.0629 221.587 70.7298C221.825 70.4957 221.917 70.3118 221.929 70.3118C221.942 70.3118 221.929 70.3577 221.871 70.4372C221.804 70.5517 221.724 70.6583 221.633 70.7549C221.294 71.1217 220.838 71.3583 220.343 71.4236C220.002 71.4673 219.655 71.433 219.329 71.3233C218.954 71.191 218.621 70.96 218.365 70.6545C218.079 70.3181 217.902 69.9027 217.856 69.4632C217.814 68.991 217.924 68.5177 218.17 68.1129C218.417 67.7082 218.786 67.3932 219.225 67.2144C219.495 67.0976 219.785 67.036 220.08 67.0333C220.374 67.0306 220.665 67.0867 220.938 67.1985C221.21 67.3103 221.457 67.4753 221.664 67.6841C221.872 67.8928 222.036 68.141 222.146 68.4141C222.333 68.8763 222.352 69.3896 222.2 69.8645C222.164 69.9936 222.111 70.1173 222.042 70.2324C221.988 70.3076 221.963 70.3494 221.954 70.3452Z" fill="#263238"/>
<path d="M157.89 135.532L167.868 124.43L175.727 123.812L176.92 132.326L170.564 135.173L163.624 142.492L159.413 143.453L157.89 135.532Z" fill="#EFBE9D"/>
<path d="M176.389 80.1225L160.747 154.085L246.95 172.374L262.592 98.4117L176.389 80.1225Z" fill="white"/>
<path d="M246.94 172.363L262.49 98.3768L262.561 98.4855L176.361 80.2189L176.49 80.1353C170.81 106.971 165.46 132.264 160.84 154.096L160.765 153.983L246.944 172.375L160.723 154.188H160.632V154.092C165.247 132.26 170.589 106.967 176.261 80.1311L176.282 80.0225H176.386L262.599 98.3141H262.69L262.67 98.4061C253.2 142.957 247.103 171.61 246.94 172.363Z" fill="#263238"/>
<path d="M179.552 84.4514L165.39 151.413L243.791 168.047L257.953 101.085L179.552 84.4514Z" fill="#DAD5E1"/>
<path d="M243.781 168.037C243.781 168.037 243.865 167.619 244.032 166.803C244.198 165.988 244.449 164.789 244.779 163.225C245.434 160.09 246.398 155.501 247.625 149.649C250.087 137.945 253.605 121.225 257.849 101.056L257.92 101.165L179.524 84.5536L179.654 84.47C174.512 108.756 169.667 131.65 165.485 151.429L165.41 151.312L222.096 163.388L238.097 166.808L242.329 167.715L243.418 167.953L243.789 168.037L243.426 167.965L242.345 167.744L238.126 166.858L222.138 163.493L165.381 151.5H165.289V151.404C169.462 131.625 174.308 108.731 179.437 84.4407L179.458 84.332L179.566 84.3571L257.954 101.002H258.041V101.09C253.755 121.267 250.2 138.012 247.712 149.716C246.46 155.568 245.488 160.141 244.824 163.267C244.491 164.822 244.232 166.013 244.061 166.82C243.89 167.627 243.781 168.037 243.781 168.037Z" fill="#263238"/>
<path d="M204.18 145.861L202.131 152.675L202.715 152.796L206.305 146.309L204.18 145.861Z" fill="#263238"/>
<path d="M229.754 151.283L228.87 158.343L228.285 158.222L227.63 150.836L229.754 151.283Z" fill="#263238"/>
<path d="M235.051 141.628L202.344 134.688L200.159 145.018L232.866 151.957L235.051 141.628Z" fill="#263238"/>
<path d="M217.401 143.086V142.998C217.401 142.936 217.427 142.856 217.443 142.76C217.489 142.534 217.548 142.233 217.618 141.845C217.781 141.042 218.011 139.897 218.295 138.463L218.349 138.547L202.824 135.286L202.949 135.203V135.232V135.27V135.341L202.916 135.491L202.853 135.788L202.728 136.377C202.645 136.77 202.565 137.159 202.482 137.543C202.319 138.313 202.16 139.069 202.002 139.801L201.923 139.675L212.994 142.075L216.254 142.798L217.134 142.998L217.368 143.053L217.447 143.078L217.155 143.032L216.291 142.86L213.045 142.204L201.877 139.884L201.772 139.863L201.797 139.759L202.273 137.502C202.352 137.117 202.436 136.728 202.519 136.335C202.557 136.139 202.599 135.943 202.64 135.742L202.703 135.445L202.736 135.299V135.224V135.186V135.157C202.995 134.99 202.811 135.111 202.87 135.073L218.407 138.417H218.474V138.484C218.153 139.93 217.894 141.08 217.714 141.891C217.627 142.267 217.56 142.564 217.51 142.781C217.48 142.885 217.444 142.987 217.401 143.086Z" fill="#455A64"/>
<path d="M216.375 147.938C216.375 147.938 216.375 147.905 216.375 147.851L216.417 147.612C216.462 147.387 216.521 147.086 216.596 146.697C216.755 145.894 216.984 144.749 217.272 143.315L217.322 143.399L201.768 140.139L201.898 140.055V140.084V140.122V140.193L201.868 140.343L201.802 140.64C201.76 140.837 201.718 141.037 201.681 141.23L201.43 142.396C201.267 143.165 201.109 143.921 200.95 144.653L200.871 144.528L211.943 146.927L215.202 147.65L216.083 147.851L216.316 147.905L216.396 147.93L216.104 147.884L215.24 147.713L211.993 147.056L200.825 144.737H200.725L200.737 144.628L201.213 142.371C201.292 141.986 201.376 141.597 201.459 141.204L201.585 140.611L201.647 140.314L201.676 140.168V140.093V140.055V140.03L201.806 139.946L217.343 143.29H217.41V143.357C217.088 144.803 216.83 145.953 216.65 146.764C216.563 147.14 216.496 147.437 216.446 147.654C216.427 147.75 216.404 147.845 216.375 147.938Z" fill="#455A64"/>
<path d="M233.465 146.493V146.405C233.465 146.342 233.49 146.263 233.506 146.167C233.552 145.941 233.611 145.64 233.686 145.251C233.844 144.449 234.074 143.307 234.362 141.869L234.412 141.953L218.858 138.693L218.987 138.609V138.638V138.676V138.751L218.958 138.897L218.891 139.194C218.85 139.395 218.808 139.612 218.77 139.788L218.52 140.954C218.356 141.723 218.196 142.474 218.04 143.207L217.961 143.082L229.032 145.481L232.292 146.204L233.172 146.405L233.406 146.459L233.485 146.484C233.387 146.479 233.289 146.463 233.193 146.438L232.329 146.267L229.083 145.611L217.915 143.291L217.815 143.27V143.165L218.29 140.908C218.37 140.524 218.453 140.135 218.537 139.742L218.662 139.152L218.724 138.852L218.754 138.705V138.63V138.592V138.563L218.883 138.479L234.42 141.823H234.487V141.89C234.166 143.337 233.907 144.486 233.727 145.297C233.64 145.673 233.573 145.97 233.523 146.187C233.51 146.29 233.491 146.392 233.465 146.493Z" fill="#455A64"/>
<path d="M232.455 151.346V151.258C232.455 151.195 232.48 151.116 232.496 151.02C232.542 150.794 232.601 150.493 232.676 150.104C232.834 149.302 233.064 148.161 233.352 146.723L233.402 146.806L217.848 143.546L217.977 143.462V143.492V143.529V143.605L217.948 143.751L217.886 144.048L217.76 144.641L217.51 145.803L217.034 148.06L216.951 147.935L228.023 150.334L231.286 151.058L232.167 151.258L232.396 151.313L232.476 151.338C232.377 151.332 232.279 151.317 232.183 151.292L231.32 151.12L228.035 150.481L216.871 148.161L216.767 148.14L216.788 148.035L217.264 145.778C217.343 145.394 217.426 145.005 217.51 144.612L217.635 144.023L217.698 143.722L217.727 143.575V143.5V143.462V143.433L217.856 143.35L233.394 146.694H233.465V146.76C233.143 148.207 232.885 149.356 232.705 150.167C232.617 150.543 232.551 150.84 232.501 151.058C232.491 151.155 232.476 151.251 232.455 151.346Z" fill="#455A64"/>
<path d="M202.824 135.178C202.778 135.219 202.636 135.144 202.507 135.006C202.377 134.868 202.307 134.722 202.348 134.68C202.39 134.638 202.532 134.718 202.665 134.856C202.799 134.994 202.87 135.14 202.824 135.178Z" fill="#455A64"/>
<path d="M200.779 144.629C200.808 144.679 200.691 144.813 200.512 144.921C200.332 145.03 200.166 145.08 200.136 145.03C200.107 144.98 200.22 144.846 200.399 144.737C200.579 144.629 200.737 144.57 200.779 144.629Z" fill="#455A64"/>
<path d="M232.872 151.947C232.872 152.006 225.519 150.497 216.471 148.578C207.423 146.66 200.103 145.059 200.115 144.996C200.128 144.933 207.469 146.446 216.517 148.365C225.564 150.284 232.872 151.889 232.872 151.947Z" fill="#455A64"/>
<path d="M209.56 144.085C209.522 144.085 209.56 143.893 209.393 143.721C209.346 143.676 209.29 143.643 209.229 143.623C209.167 143.603 209.102 143.598 209.038 143.608C208.963 143.625 208.895 143.662 208.84 143.715C208.784 143.768 208.745 143.835 208.725 143.909C208.706 143.987 208.712 144.069 208.741 144.144C208.77 144.219 208.821 144.283 208.888 144.327C208.942 144.363 209.004 144.385 209.069 144.392C209.133 144.399 209.198 144.392 209.259 144.369C209.485 144.281 209.526 144.093 209.56 144.106C209.593 144.118 209.581 144.156 209.56 144.235C209.542 144.294 209.512 144.349 209.472 144.396C209.433 144.444 209.385 144.483 209.33 144.511C209.248 144.559 209.154 144.583 209.059 144.583C208.964 144.583 208.87 144.559 208.788 144.511C208.683 144.451 208.6 144.359 208.551 144.248C208.502 144.138 208.488 144.015 208.514 143.896C208.539 143.778 208.6 143.67 208.69 143.589C208.78 143.508 208.893 143.458 209.013 143.445C209.107 143.434 209.203 143.447 209.291 143.484C209.379 143.52 209.456 143.579 209.514 143.654C209.591 143.753 209.627 143.877 209.614 144.001C209.597 144.051 209.572 144.089 209.56 144.085Z" fill="#455A64"/>
<path d="M210.582 139.232C210.549 139.232 210.582 139.04 210.419 138.868C210.373 138.822 210.316 138.789 210.253 138.769C210.191 138.749 210.125 138.745 210.061 138.755C209.987 138.773 209.919 138.81 209.864 138.863C209.81 138.916 209.771 138.983 209.752 139.056C209.738 139.131 209.745 139.209 209.774 139.279C209.803 139.35 209.852 139.41 209.915 139.453C209.969 139.489 210.031 139.511 210.095 139.518C210.16 139.525 210.225 139.518 210.286 139.495C210.511 139.407 210.553 139.219 210.582 139.232C210.611 139.244 210.607 139.282 210.582 139.361C210.564 139.42 210.534 139.475 210.495 139.522C210.456 139.57 210.407 139.609 210.353 139.637C210.27 139.685 210.177 139.709 210.081 139.709C209.986 139.709 209.893 139.685 209.81 139.637C209.705 139.577 209.623 139.485 209.573 139.374C209.524 139.264 209.511 139.141 209.536 139.022C209.561 138.904 209.623 138.796 209.713 138.715C209.802 138.634 209.915 138.584 210.036 138.571C210.13 138.56 210.226 138.573 210.313 138.61C210.401 138.646 210.478 138.705 210.536 138.78C210.612 138.88 210.647 139.003 210.637 139.127C210.624 139.194 210.599 139.236 210.582 139.232Z" fill="#455A64"/>
<path d="M225.815 147.555C225.781 147.555 225.815 147.362 225.652 147.191C225.605 147.145 225.548 147.111 225.486 147.092C225.424 147.072 225.358 147.067 225.293 147.078C225.218 147.093 225.149 147.129 225.094 147.182C225.039 147.236 225.001 147.304 224.984 147.379C224.963 147.457 224.967 147.54 224.997 147.615C225.026 147.69 225.079 147.754 225.147 147.797C225.202 147.832 225.263 147.855 225.328 147.862C225.392 147.869 225.458 147.861 225.519 147.839C225.74 147.751 225.781 147.563 225.815 147.576C225.848 147.588 225.815 147.626 225.815 147.705C225.775 147.822 225.693 147.921 225.585 147.981C225.502 148.027 225.408 148.051 225.312 148.051C225.216 148.051 225.122 148.027 225.039 147.981C224.936 147.919 224.856 147.827 224.808 147.717C224.761 147.607 224.748 147.485 224.773 147.368C224.798 147.251 224.858 147.144 224.946 147.063C225.034 146.982 225.145 146.93 225.264 146.915C225.358 146.904 225.454 146.917 225.542 146.954C225.63 146.99 225.706 147.049 225.765 147.124C225.804 147.172 225.833 147.228 225.85 147.287C225.867 147.347 225.872 147.409 225.865 147.471C225.857 147.5 225.827 147.555 225.815 147.555Z" fill="#455A64"/>
<path d="M226.842 142.68C226.804 142.68 226.842 142.488 226.675 142.316C226.628 142.271 226.572 142.238 226.511 142.218C226.449 142.199 226.384 142.194 226.32 142.204C226.245 142.218 226.175 142.254 226.12 142.307C226.065 142.361 226.027 142.429 226.011 142.504C225.995 142.579 226.001 142.658 226.03 142.729C226.059 142.8 226.11 142.86 226.174 142.902C226.228 142.937 226.29 142.959 226.355 142.966C226.419 142.974 226.484 142.966 226.545 142.943C226.766 142.856 226.808 142.667 226.842 142.68C226.875 142.693 226.862 142.73 226.842 142.81C226.801 142.928 226.718 143.027 226.608 143.085C226.525 143.133 226.432 143.158 226.337 143.158C226.241 143.158 226.148 143.133 226.065 143.085C225.963 143.024 225.882 142.931 225.835 142.821C225.787 142.711 225.775 142.589 225.8 142.472C225.825 142.355 225.885 142.249 225.973 142.168C226.061 142.086 226.172 142.035 226.291 142.02C226.385 142.008 226.481 142.021 226.569 142.058C226.656 142.095 226.733 142.153 226.792 142.229C226.869 142.327 226.905 142.451 226.892 142.576C226.883 142.647 226.854 142.684 226.842 142.68Z" fill="#455A64"/>
<path d="M235.071 141.593C235.071 141.656 234.946 141.735 234.775 141.811C234.604 141.886 234.454 141.932 234.42 141.882C234.387 141.831 234.495 141.694 234.687 141.61C234.879 141.526 235.059 141.539 235.071 141.593Z" fill="#455A64"/>
<path d="M232.956 151.964C232.91 152.002 232.759 151.889 232.622 151.713C232.484 151.538 232.413 151.362 232.463 151.324C232.513 151.287 232.659 151.404 232.797 151.579C232.935 151.755 233.001 151.931 232.956 151.964Z" fill="#455A64"/>
<path d="M167.672 144.874L166.297 151.301L244.638 168.115L246.013 161.688L167.672 144.874Z" fill="#493169"/>
<path d="M190.066 122.892C190.416 117.838 189.342 112.786 186.965 108.313C183.009 100.83 178.101 100.103 178.101 100.103C178.101 100.103 183.986 99.1626 188.297 107.209C190.863 112.019 191.496 117.63 190.066 122.892Z" fill="#FCE193"/>
<path d="M193.914 97.6701C193.839 97.4569 191.089 113.245 191.089 113.245L189.995 124.752C189.995 124.752 192.637 116.622 193.313 112.313C193.989 108.003 194.594 99.6138 193.914 97.6701Z" fill="#FCE193"/>
<path d="M199.736 98.9072C199.736 98.9072 197.061 99.8979 193.931 111.23C191.535 119.916 190.45 123.206 190.095 124.28C190.039 124.432 190.006 124.591 189.995 124.752C189.995 124.752 194.544 117.182 196.301 112.944C198.058 108.705 198.204 102.097 199.736 98.9072Z" fill="#FCE193"/>
<path d="M190.037 127.231C189.966 127.516 191.765 123.658 197.82 119.732C203.454 116.079 205.587 116.338 205.587 116.338C205.587 116.338 200.608 115.987 196.647 118.788C193.15 121.258 190.771 124.343 190.037 127.231Z" fill="#FCE193"/>
<path d="M188.535 131.67C188.409 129.559 188.226 127.415 187.437 125.454C186.648 123.494 185.167 121.713 183.163 121.053C185.96 124.179 187.788 127.49 188.535 131.67Z" fill="#FCE193"/>
<path d="M190.204 123.782C190.204 123.782 190.918 115.815 185.859 112.216C183.042 110.21 178.251 110.093 178.251 110.093C178.251 110.093 183.894 112.049 185.763 113.855C187.633 115.661 190.204 123.782 190.204 123.782Z" fill="#FCE193"/>
<path d="M185.379 146.459C185.375 146.427 185.375 146.395 185.379 146.363C185.396 146.285 185.413 146.189 185.43 146.075C185.484 145.803 185.555 145.435 185.642 144.967C185.843 143.993 186.122 142.614 186.477 140.916L189.269 127.561C189.407 126.909 189.544 126.266 189.686 125.63L189.887 124.686C189.928 124.527 189.941 124.376 189.999 124.209C190.058 124.042 190.137 123.921 190.195 123.791C190.438 123.218 190.638 122.633 190.88 122.073C191.122 121.513 191.356 120.978 191.581 120.447C192.036 119.385 192.491 118.39 192.871 117.433C193.25 116.476 193.609 115.598 193.939 114.791C194.269 113.985 194.523 113.236 194.774 112.584C195.024 111.932 195.191 111.376 195.375 110.912C195.558 110.448 195.667 110.114 195.763 109.859L195.859 109.583C195.868 109.551 195.882 109.52 195.9 109.491C195.898 109.524 195.891 109.556 195.88 109.587L195.804 109.872C195.733 110.118 195.608 110.478 195.454 110.942C195.299 111.406 195.107 111.974 194.886 112.614C194.665 113.253 194.423 114.027 194.089 114.833C193.755 115.64 193.421 116.539 193.046 117.492C192.67 118.445 192.211 119.448 191.794 120.514C191.564 121.045 191.335 121.588 191.097 122.144C190.859 122.7 190.68 123.281 190.417 123.862C190.358 124.008 190.279 124.163 190.225 124.28C190.17 124.397 190.158 124.581 190.12 124.727C190.054 125.041 189.991 125.354 189.924 125.672C189.791 126.307 189.653 126.951 189.507 127.603C188.393 132.803 187.387 137.514 186.652 140.942C186.281 142.634 185.98 144.01 185.763 144.984C185.659 145.443 185.576 145.82 185.513 146.079L185.442 146.363C185.396 146.43 185.384 146.463 185.379 146.459Z" fill="#263238"/>
<path d="M191.164 125.003C191.052 125.335 190.912 125.656 190.746 125.964C190.467 126.55 190.104 127.365 189.745 128.288C189.386 129.212 189.102 130.057 188.91 130.675C188.819 131.015 188.699 131.346 188.551 131.666C188.583 131.313 188.654 130.966 188.764 130.629C188.98 129.808 189.242 129 189.549 128.209C189.857 127.416 190.214 126.643 190.617 125.893C190.76 125.574 190.944 125.275 191.164 125.003Z" fill="#263238"/>
<path d="M188.217 149.698C189.628 148.862 190.204 147.069 190.104 145.431C190.004 143.792 189.365 142.254 188.893 140.686L184.553 139.767C183.485 141.021 182.274 142.158 181.523 143.612C180.772 145.067 180.563 146.956 181.523 148.277L188.217 149.698Z" fill="#949494"/>
<path d="M193.538 104.312C193.55 104.38 193.55 104.45 193.538 104.517C193.538 104.672 193.509 104.864 193.488 105.09C193.434 105.592 193.346 106.311 193.229 107.18C192.992 108.956 192.616 111.406 192.149 114.102C191.681 116.798 191.205 119.227 190.813 120.978C190.621 121.856 190.446 122.558 190.317 123.043C190.258 123.265 190.204 123.461 190.162 123.599C190.147 123.665 190.124 123.73 190.095 123.791C190.092 123.723 190.101 123.656 190.12 123.591C190.15 123.436 190.191 123.248 190.237 123.026C190.346 122.5 190.488 121.797 190.655 120.936C191.009 119.181 191.46 116.756 191.907 114.056C192.353 111.356 192.77 108.919 193.046 107.147C193.179 106.311 193.292 105.579 193.371 105.057C193.409 104.827 193.442 104.639 193.467 104.484C193.486 104.425 193.51 104.368 193.538 104.312Z" fill="#263238"/>
<path d="M188.697 110.186C188.776 110.317 188.839 110.457 188.885 110.604C188.994 110.875 189.135 111.277 189.302 111.774C190.132 114.377 190.591 117.085 190.663 119.816C190.663 120.339 190.663 120.761 190.663 121.07C190.669 121.222 190.655 121.374 190.621 121.522C190.588 121.522 190.579 120.878 190.517 119.85C190.362 117.14 189.909 114.455 189.165 111.845C188.868 110.808 188.664 110.198 188.697 110.186Z" fill="#263238"/>
<path d="M185.684 112.76C185.823 112.833 185.95 112.927 186.06 113.04C186.379 113.323 186.676 113.631 186.949 113.959C187.352 114.444 187.726 114.954 188.067 115.485C188.478 116.147 188.807 116.855 189.048 117.596C189.496 118.925 189.854 120.282 190.12 121.659C190.229 122.186 190.3 122.616 190.346 122.913C190.38 123.065 190.395 123.221 190.392 123.377C190.33 123.234 190.286 123.084 190.262 122.93C190.183 122.591 190.087 122.177 189.97 121.676C189.72 120.635 189.373 119.193 188.843 117.65C188.609 116.92 188.291 116.218 187.896 115.56C187.568 115.028 187.212 114.515 186.828 114.022C186.498 113.604 186.21 113.282 185.993 113.065C185.882 112.972 185.778 112.87 185.684 112.76Z" fill="#263238"/>
<path d="M246.177 105.771L244.58 105.433L238.93 132.148L240.527 132.486L246.177 105.771Z" fill="#263238"/>
<path d="M244.523 105.687L212.249 98.8398L206.697 125.089L238.971 131.936L244.523 105.687Z" fill="white"/>
<path d="M239.466 132.669L205.967 125.563L211.776 98.0879L245.275 105.194L239.466 132.669ZM207.452 124.593L238.502 131.181L243.789 106.172L212.74 99.5885L207.452 124.593Z" fill="#455A64"/>
<path d="M239.381 108.277L215.551 103.221L211.62 121.806L235.451 126.863L239.381 108.277Z" fill="#FCE193"/>
<path d="M129.144 135.215L134.799 153.364L153.633 136.644L160.728 142.71C160.728 142.71 144.744 168.157 136.99 172.948C128.388 178.265 118.155 171.276 116.862 166.147C115.568 161.018 108.757 138.024 108.757 138.024L129.144 135.215Z" fill="#EFBE9D"/>
<path d="M135.245 153.047C135.266 153.084 134.749 153.373 134.022 153.975C133.598 154.331 133.202 154.72 132.837 155.137C131.945 156.158 131.258 157.341 130.813 158.623C130.633 159.146 130.493 159.683 130.396 160.228C130.229 161.16 130.233 161.754 130.191 161.754C130.164 161.616 130.154 161.476 130.162 161.336C130.151 161.173 130.151 161.01 130.162 160.847C130.162 160.659 130.183 160.429 130.225 160.203C130.305 159.645 130.434 159.096 130.609 158.56C131.043 157.244 131.747 156.032 132.674 155.003C133.057 154.585 133.476 154.202 133.926 153.858C134.11 153.703 134.298 153.59 134.452 153.482C134.587 153.389 134.726 153.304 134.87 153.227C134.986 153.15 135.112 153.089 135.245 153.047Z" fill="#E7996E"/>
<path d="M114.988 153.227L134.799 147.872C134.799 147.872 130.55 135.286 127.245 126.191C124.324 118.169 119.428 114.829 116.883 113.015C115.855 112.276 114.661 111.803 113.406 111.636C108.72 111.009 95.899 109.32 89.5389 108.789C81.6722 108.133 65.2417 112.472 65.2417 112.472C65.2417 112.472 50.8354 120.472 45.9776 123.729C44.7864 124.518 43.876 125.665 43.3777 127.006C42.4804 129.426 41.3369 133.585 39.968 138.965C39.0958 142.384 36.212 153.703 36.212 153.703L53.1099 153.181C56.5153 163.539 59.6703 172.827 59.6703 172.827L58.3015 197.639H120.968C120.968 197.639 115.184 159.259 115.184 158.368C115.184 158.042 115.105 155.848 114.988 153.227Z" fill="#FFBD00"/>
<g opacity="0.3">
<path d="M95.4983 133.084C94.2463 131.499 92.0929 130.851 90.098 131.052C88.1032 131.253 86.2502 132.197 84.5892 133.326C79.4644 136.808 75.8253 142.058 72.6118 147.354C67.0027 156.587 62.2903 166.338 58.5393 176.472L58.6687 179.064C62.8712 178.533 65.6089 174.984 67.4327 171.159C69.2564 167.334 70.041 163.088 71.6477 159.167C74.7808 151.635 80.7583 145.647 88.2785 142.509C90.7825 142.769 93.4701 141.962 95.106 140.047C96.742 138.133 97.055 135.061 95.4983 133.084Z" fill="black"/>
</g>
<path d="M115.184 156.512C115.088 156.512 114.529 151.024 113.932 144.24C113.335 137.455 112.926 131.942 113.018 131.934C113.11 131.925 113.673 137.418 114.27 144.21C114.867 151.003 115.272 156.504 115.184 156.512Z" fill="#263238"/>
<path d="M48.611 131.934C48.724 132.203 48.808 132.483 48.8614 132.77C49.0074 133.388 49.1952 134.178 49.4164 135.123C49.8713 137.113 50.4764 139.863 51.1233 142.91C51.7702 145.957 52.3419 148.716 52.7384 150.719C52.9178 151.672 53.0681 152.47 53.1891 153.093C53.2579 153.382 53.2971 153.678 53.306 153.975C53.1981 153.704 53.1157 153.424 53.0597 153.139C52.9137 152.52 52.7259 151.73 52.5047 150.785C52.0498 148.796 51.4447 146.045 50.7936 142.998C50.1426 139.951 49.5792 137.192 49.1827 135.19C49.0033 134.237 48.8488 133.438 48.732 132.811C48.6635 132.523 48.623 132.229 48.611 131.934Z" fill="#263238"/>
<path d="M112.158 111.874C112.258 111.899 111.687 114.102 111.294 116.89C110.902 119.678 110.819 121.931 110.719 121.906C110.631 121.414 110.608 120.912 110.652 120.414C110.685 119.211 110.788 118.01 110.961 116.819C111.129 115.626 111.369 114.443 111.678 113.278C111.778 112.792 111.939 112.32 112.158 111.874Z" fill="#263238"/>
<path d="M85.136 123.39L90.8367 111.874L89.0672 106.858C89.0672 106.858 97.6184 102.41 94.6971 93.3353C93.2865 88.9547 89.6473 80.1684 86.2627 72.2556C84.5068 68.1513 81.2724 64.8597 77.2032 63.0356C73.1341 61.2115 68.5284 60.9888 64.3027 62.4117L63.4346 62.7001C54.2324 66.412 52.2376 76.3102 56.1939 85.4226L67.7665 119.281L85.136 123.39Z" fill="#EFBE9D"/>
<path d="M89.0673 106.824C89.0673 106.824 83.5209 109.211 76.1801 107.439C76.1801 107.439 81.1463 113.006 89.8728 109.161L89.0673 106.824Z" fill="#E7996E"/>
<path d="M86.7427 81.1841C86.858 81.5197 86.8384 81.8871 86.688 82.2085C86.5377 82.5299 86.2685 82.7801 85.9373 82.9062C85.7778 82.9744 85.6063 83.0099 85.4329 83.0107C85.2594 83.0115 85.0876 82.9777 84.9275 82.9111C84.7673 82.8445 84.622 82.7466 84.5002 82.623C84.3783 82.4994 84.2823 82.3527 84.2179 82.1915C84.1013 81.8564 84.1198 81.489 84.2694 81.1674C84.4191 80.8458 84.688 80.5954 85.0191 80.4693C85.1789 80.4005 85.3508 80.3645 85.5246 80.3633C85.6985 80.3621 85.8708 80.3959 86.0315 80.4625C86.1921 80.5291 86.3378 80.6273 86.46 80.7512C86.5822 80.8751 86.6783 81.0223 86.7427 81.1841Z" fill="#263238"/>
<path d="M85.7704 76.7865C85.6702 77.008 84.4474 76.611 83.0619 77.0833C81.6764 77.5556 80.8959 78.5881 80.6873 78.471C80.5871 78.4209 80.6497 78.053 80.9836 77.5891C81.4446 76.971 82.0842 76.5099 82.8157 76.2682C83.5359 76.0249 84.3145 76.0162 85.0401 76.2431C85.5784 76.427 85.8246 76.682 85.7704 76.7865Z" fill="#263238"/>
<path d="M74.7027 84.8004C74.8189 85.1354 74.7997 85.5026 74.6492 85.8236C74.4987 86.1446 74.2288 86.394 73.8972 86.5184C73.7378 86.5871 73.5662 86.6231 73.3926 86.6242C73.2191 86.6253 73.047 86.5915 72.8867 86.5249C72.7264 86.4582 72.5811 86.3601 72.4593 86.2362C72.3376 86.1123 72.2418 85.9652 72.1778 85.8036C72.0626 85.468 72.0822 85.1006 72.2325 84.7792C72.3828 84.4578 72.6521 84.2076 72.9833 84.0814C73.1431 84.0134 73.3148 83.9781 73.4884 83.9775C73.662 83.977 73.834 84.0112 73.9942 84.0782C74.1544 84.1452 74.2996 84.2436 74.4213 84.3676C74.5429 84.4916 74.6386 84.6388 74.7027 84.8004Z" fill="#263238"/>
<path d="M72.303 80.9C72.2237 81.1299 70.9675 80.8707 69.6404 81.4894C68.3133 82.108 67.6497 83.2241 67.4327 83.1279C67.3284 83.0861 67.3451 82.7099 67.6289 82.2209C68.0177 81.5574 68.6004 81.0293 69.2982 80.7077C69.989 80.3877 70.763 80.2941 71.5101 80.4402C72.0693 80.5656 72.3447 80.7913 72.303 80.9Z" fill="#263238"/>
<path d="M80.7415 90.7606C80.7123 90.6812 81.522 90.2423 82.8574 89.5944C83.1996 89.4355 83.5126 89.2558 83.4918 88.9925C83.3976 88.615 83.1909 88.2753 82.8992 88.0185L80.9627 85.6903C78.2208 82.3463 76.105 79.5289 76.2427 79.4203C76.3804 79.3116 78.7133 81.9283 81.4552 85.2973C82.1271 86.1333 82.7656 86.9192 83.3707 87.6758C83.642 88.0352 84.026 88.4156 84.0218 89.005C84.0116 89.1482 83.9687 89.2872 83.8963 89.4111C83.8239 89.535 83.7241 89.6407 83.6044 89.7198C83.4249 89.8391 83.2315 89.9359 83.0285 90.0082C81.643 90.5349 80.7749 90.8358 80.7415 90.7606Z" fill="#263238"/>
<path d="M70.4208 76.0765C70.4208 76.4945 68.9643 76.7871 67.4035 77.5311C65.8426 78.2752 64.6741 79.1613 64.3486 78.8938C64.1942 78.7642 64.3069 78.3337 64.7117 77.7903C65.2695 77.1035 65.9762 76.5531 66.7781 76.1808C67.5801 75.8086 68.4562 75.6242 69.3399 75.6418C70.016 75.6585 70.4166 75.8591 70.4208 76.0765Z" fill="#263238"/>
<path d="M84.1177 73.0501C83.98 73.4681 82.9158 73.443 81.7639 73.815C80.6121 74.1871 79.7107 74.7388 79.3768 74.4838C79.2266 74.3584 79.2725 73.9906 79.598 73.5475C80.0492 72.9985 80.6528 72.5958 81.3325 72.3905C82.0123 72.1851 82.7375 72.1863 83.4166 72.3938C83.9341 72.5778 84.1761 72.8578 84.1177 73.0501Z" fill="#263238"/>
<path d="M59.1654 91.8516C58.9901 91.8516 52.3504 92.1024 54.6207 98.2135C56.8909 104.325 62.55 100.78 62.4957 100.6C62.4415 100.421 59.1654 91.8516 59.1654 91.8516Z" fill="#EFBE9D"/>
<path d="M59.7705 98.9827C59.7371 98.9827 59.6912 99.0955 59.5451 99.246C59.3331 99.4491 59.0497 99.5602 58.7563 99.5553C58.0218 99.5553 57.087 98.7193 56.6697 97.6492C56.4574 97.1304 56.3647 96.5703 56.3984 96.0107C56.386 95.7984 56.4247 95.5863 56.5111 95.3921C56.5975 95.1979 56.7292 95.0273 56.895 94.8946C57.0053 94.8176 57.1388 94.7814 57.2728 94.7921C57.4067 94.8027 57.5328 94.8597 57.6295 94.9531C57.7756 95.0953 57.784 95.2332 57.8215 95.229C57.8591 95.2248 57.9133 95.0785 57.7714 94.8445C57.681 94.7055 57.5453 94.6021 57.3875 94.5519C57.281 94.5185 57.1688 94.5068 57.0577 94.5176C56.9466 94.5283 56.8388 94.5613 56.7406 94.6146C56.5082 94.7576 56.3163 94.958 56.1833 95.1966C56.0503 95.4352 55.9807 95.704 55.9811 95.9772C55.9207 96.6029 56.0123 97.2339 56.2482 97.8164C56.7448 99.0328 57.8007 99.9524 58.7772 99.8772C58.9591 99.8649 59.1358 99.8115 59.2941 99.721C59.4524 99.6305 59.5881 99.5053 59.6912 99.3547C59.8164 99.1331 59.7955 98.9827 59.7705 98.9827Z" fill="#E7996E"/>
<path d="M76.9855 93.0935C77.2067 93.0057 77.7158 94.5105 79.3643 95.1459C81.0127 95.7813 82.5569 95.079 82.6403 95.2838C82.6904 95.3716 82.3816 95.7018 81.7097 95.9443C80.8315 96.2537 79.8725 96.2433 79.0012 95.915C78.1662 95.598 77.4869 94.9686 77.1065 94.1594C76.8352 93.5491 76.8811 93.1186 76.9855 93.0935Z" fill="#263238"/>
<path d="M88.4746 58.8672C88.1963 58.3085 87.7836 57.828 87.2736 57.469C86.7636 57.11 86.1724 56.8837 85.5533 56.8106C85.4338 56.4679 85.2815 56.1375 85.0984 55.8242C83.98 53.9264 81.4593 52.8982 79.4143 53.7342C78.9788 52.9995 78.3514 52.3978 77.5997 51.994C76.848 51.5902 76.0005 51.3995 75.1485 51.4425C74.2966 51.4855 73.4725 51.7606 72.7652 52.2381C72.0578 52.7156 71.494 53.3774 71.1344 54.1522C70.1365 53.7503 69.044 53.645 67.9878 53.8489C66.9316 54.0527 65.9565 54.5571 65.1791 55.3017C64.9794 55.4804 64.8347 55.7124 64.7618 55.9705C64.7444 56.0572 64.7444 56.1466 64.7616 56.2333C64.7787 56.3201 64.8128 56.4027 64.8619 56.4762C64.4232 56.1149 63.9036 55.8654 63.3477 55.7489C62.7917 55.6324 62.2158 55.6525 61.6693 55.8074C61.2989 55.9194 60.9513 56.0963 60.6427 56.3299C59.6939 56.7439 58.9448 57.5137 58.556 58.4743C57.1738 58.4934 55.8466 59.0196 54.8259 59.9534C53.8052 60.8871 53.1619 62.1634 53.018 63.5404C52.0316 63.9527 51.1903 64.65 50.6015 65.5435C50.0128 66.437 49.7033 67.486 49.7127 68.5564C49.08 68.8288 48.53 69.2632 48.118 69.816C47.706 70.3688 47.4466 71.0204 47.3658 71.7055C47.285 72.3905 47.3857 73.0848 47.6578 73.7185C47.9298 74.3522 48.3636 74.903 48.9156 75.3155C48.9156 75.3155 44.9259 77.7524 47.3423 81.2386C48.5943 83.0192 51.0983 81.7861 51.0983 81.7861L58.6103 93.1516C58.5769 93.231 59.8998 94.4056 60.5383 93.8454C61.1769 93.2853 61.3438 92.3699 61.5399 91.5423C61.7695 90.5934 62.095 89.6404 62.0157 88.6664C61.9364 87.6925 61.3188 86.6726 60.3464 86.5221C61.2937 85.8115 61.5984 84.4906 61.444 83.316C61.2895 82.1414 60.6969 81.0755 60.1294 80.0347L57.6254 75.4367C58.733 75.0171 59.7053 74.3024 60.4371 73.3697C61.1689 72.4371 61.6325 71.322 61.7778 70.1448C63.7894 70.8387 66.2475 69.2838 66.477 67.1603C67.2426 68.1218 68.3441 68.7562 69.5588 68.9355C70.7735 69.1147 72.0109 68.8254 73.0208 68.1259C73.2044 69.4886 75.8962 69.9066 77.2651 69.8188C78.6339 69.731 79.911 68.3182 79.911 68.3182C80.8316 68.5088 81.7793 68.5286 82.7071 68.3767L82.8448 68.3391C84.6435 67.9211 85.8162 65.7684 86.1459 63.9501C86.6095 63.8436 87.0459 63.6414 87.4271 63.3565C88.0742 62.8306 88.5283 62.1041 88.7179 61.2914C88.9076 60.4787 88.822 59.6259 88.4746 58.8672Z" fill="#263238"/>
<path d="M78.6757 55.54C78.7662 55.5959 78.8489 55.6634 78.922 55.7407C79.1399 55.954 79.3242 56.1993 79.4687 56.468C79.7029 56.8922 79.8531 57.3577 79.911 57.839C79.9896 58.4806 79.9064 59.1316 79.669 59.7326C79.3627 60.4588 78.8078 61.0517 78.104 61.4046C77.2922 61.8117 76.3654 61.9268 75.479 61.7306C74.9997 61.6258 74.5486 61.4191 74.156 61.1245C73.9465 60.976 73.7643 60.7921 73.6176 60.5811C73.4573 60.3611 73.3619 60.1004 73.3422 59.8287C73.3377 59.686 73.3636 59.5439 73.4183 59.4119C73.473 59.28 73.5552 59.1613 73.6594 59.0638C73.8702 58.8775 74.129 58.7544 74.4064 58.7085C74.683 58.6543 74.9682 58.6628 75.2411 58.7336C75.5139 58.7927 75.774 58.9003 76.009 59.0512C76.4659 59.3441 76.8357 59.7549 77.0795 60.2403C77.3233 60.7257 77.4321 61.268 77.3945 61.81C77.3421 62.3078 77.1912 62.79 76.9504 63.2286C76.7096 63.6671 76.3839 64.0531 75.9923 64.364C75.2896 64.9299 74.4421 65.2862 73.5467 65.3923C72.7771 65.4854 71.9975 65.4515 71.2388 65.292C70.1527 65.0458 69.1013 64.6653 68.1088 64.1592C67.7541 63.9878 67.487 63.8457 67.3034 63.7412C67.2086 63.6953 67.1166 63.6436 67.028 63.5865C67.1292 63.6151 67.2271 63.6543 67.3201 63.7036L68.1548 64.0756C69.1518 64.5457 70.1991 64.9005 71.2764 65.1331C72.0189 65.2779 72.7799 65.3019 73.53 65.2042C74.3893 65.0976 75.2009 64.7498 75.8712 64.201C76.2396 63.9052 76.546 63.5396 76.773 63.125C77 62.7104 77.1432 62.255 77.1942 61.785C77.2265 61.2817 77.1235 60.7789 76.896 60.329C76.6685 59.8791 76.3247 59.4985 75.9005 59.2268C75.688 59.0881 75.4517 58.9903 75.2035 58.9384C74.9621 58.876 74.7099 58.8674 74.4648 58.9133C74.2291 58.951 74.009 59.0554 73.8305 59.2143C73.7467 59.2899 73.6806 59.383 73.6366 59.487C73.5926 59.5909 73.5719 59.7033 73.5759 59.8162C73.6089 60.0461 73.6908 60.2662 73.8161 60.4616C73.9414 60.657 74.1071 60.8232 74.3021 60.949C74.6729 61.2295 75.1 61.4263 75.5541 61.5258C76.3975 61.7201 77.282 61.6168 78.0581 61.2332C78.732 60.9001 79.2648 60.3368 79.5605 59.6448C79.7674 59.1382 79.8626 58.5928 79.8395 58.046C79.8165 57.4991 79.6757 56.9637 79.4269 56.4764C79.2266 56.1271 78.9731 55.8112 78.6757 55.54Z" fill="#455A64"/>
<path d="M38.2611 153.62C38.2611 153.62 34.3048 167.965 33.4326 171.468C32.5603 174.971 32.552 183.109 34.5343 185.517C36.5167 187.925 43.0605 189.459 43.0605 189.459C43.0605 189.459 55.9018 183.189 60.2755 175.514C64.6491 167.84 76.6015 147.007 76.6015 147.007L72.8163 136.599L52.9053 155.639L53.114 153.16L38.2611 153.62Z" fill="#EFBE9D"/>
<path d="M72.1987 137.255L82.9117 126.19H93.1781L99.7427 134.885C99.7427 134.885 96.6253 135.466 95.511 133.79L94.0587 131.721C94.0587 131.721 95.511 134.906 94.7306 136.473C94.7306 136.473 93.1906 140.106 92.9444 140.494C92.477 141.226 92.1097 141.694 90.7826 141.473C89.4555 141.251 87.3646 140.16 87.5858 139.383C87.6555 139.155 87.7861 138.952 87.9635 138.794C88.1409 138.636 88.3582 138.53 88.5916 138.488L85.4658 138.041C85.4658 138.041 82.3191 143.751 80.4244 145.092C79.252 145.913 77.9672 146.559 76.6099 147.011L72.1987 137.255Z" fill="#EFBE9D"/>
<path d="M53.306 155.304C53.3311 155.358 52.4421 155.772 51.0775 156.558C49.3069 157.598 47.6421 158.809 46.107 160.173C44.5725 161.548 43.1748 163.068 41.9337 164.713C40.9864 165.967 40.4772 166.803 40.4271 166.803C40.503 166.585 40.6053 166.377 40.7318 166.184C41.04 165.636 41.3771 165.104 41.7417 164.592C44.1224 161.172 47.266 158.356 50.9231 156.365C51.6242 155.993 52.2084 155.713 52.6174 155.529C52.8362 155.425 53.0677 155.349 53.306 155.304Z" fill="#E7996E"/>
<path d="M85.2445 129.404C85.7355 129.263 86.2409 129.177 86.7511 129.149C87.6817 129.032 88.9755 128.899 90.4027 128.773C90.7631 128.729 91.1275 128.729 91.4878 128.773C91.8332 128.828 92.1616 128.961 92.4477 129.162C92.9156 129.5 93.2903 129.952 93.5369 130.474C93.7827 130.93 93.9453 131.425 94.0169 131.937C93.9626 131.958 93.7665 131.398 93.3241 130.587C93.0702 130.122 92.7116 129.723 92.2766 129.421C92.0252 129.255 91.7401 129.146 91.4419 129.103C91.1077 129.066 90.7704 129.066 90.4361 129.103C89.0089 129.229 87.7151 129.325 86.7761 129.379C86.2681 129.445 85.7544 129.453 85.2445 129.404Z" fill="#E7996E"/>
<path d="M93.4242 139.938C93.3658 139.938 93.4659 139.157 93.3991 137.911C93.3583 137.184 93.2592 136.461 93.1028 135.75C92.9276 134.968 92.6855 134.032 91.8926 133.576C91.4991 133.367 91.0774 133.217 90.6406 133.129L89.3886 132.841C88.6755 132.677 87.9517 132.566 87.2226 132.506C86.5517 132.485 85.8801 132.502 85.2111 132.556C85.3741 132.468 85.5526 132.411 85.7369 132.389C86.2302 132.293 86.7328 132.252 87.2351 132.268C87.9771 132.294 88.7155 132.382 89.4428 132.531C89.8602 132.611 90.2775 132.703 90.7199 132.803C91.1958 132.89 91.655 133.053 92.0804 133.284C92.5092 133.546 92.845 133.936 93.0402 134.4C93.2149 134.812 93.3423 135.242 93.42 135.683C93.5653 136.413 93.6421 137.154 93.6495 137.898C93.6554 138.399 93.6247 138.899 93.5577 139.395C93.5446 139.582 93.4994 139.766 93.4242 139.938Z" fill="#E7996E"/>
<path d="M89.7267 136.223C89.8143 136.223 89.8811 137.117 89.8894 138.283V138.484L89.6808 138.446C89.568 138.424 89.4534 138.413 89.3385 138.413C88.8027 138.432 88.2946 138.656 87.9196 139.04C87.6316 139.341 87.5398 139.604 87.5023 139.588C87.4647 139.571 87.4772 139.274 87.7527 138.885C87.941 138.637 88.1832 138.436 88.4608 138.295C88.7384 138.155 89.0442 138.079 89.3552 138.074C89.4956 138.075 89.6355 138.09 89.7726 138.12L89.5681 138.283C89.5514 137.105 89.6223 136.223 89.7267 136.223Z" fill="#E7996E"/>
<path d="M89.7267 136.565C89.7267 136.661 88.7835 136.523 87.64 136.465C86.4965 136.406 85.5533 136.44 85.5533 136.343C85.5533 136.247 86.4757 136.063 87.64 136.126C88.8044 136.189 89.7267 136.477 89.7267 136.565Z" fill="#E7996E"/>
<path d="M85.7244 136.03C85.8121 136.03 85.7244 137.045 85.2612 138.182C84.798 139.319 84.1219 140.076 84.0509 140.021C83.98 139.967 84.4933 139.144 84.9482 138.048C85.4031 136.953 85.6243 136.013 85.7244 136.03Z" fill="#E7996E"/>
<path d="M152.974 137.246C152.974 137.246 160.035 128.05 160.807 127.632C161.579 127.214 171.411 125.793 171.411 125.793C171.411 125.793 170.994 128.903 168.152 129.818C166.14 130.466 163.782 130.972 163.782 130.972C163.782 130.972 164.567 137 163.119 139.416C161.924 141.262 160.57 142.999 159.071 144.607L152.974 137.246Z" fill="#EFBE9D"/>
<path d="M161.792 140.816C162.422 140.071 162.921 139.222 163.265 138.308C163.603 137.3 163.797 136.248 163.841 135.186C163.874 134.558 163.874 133.928 163.841 133.3C163.815 132.972 163.767 132.645 163.699 132.322C163.614 131.97 163.603 131.605 163.666 131.248C163.704 131.154 163.761 131.069 163.833 130.997C163.904 130.926 163.989 130.869 164.083 130.83C164.242 130.752 164.409 130.689 164.58 130.642C164.905 130.551 165.235 130.477 165.569 130.42C166.187 130.323 166.797 130.183 167.397 130.002C168.418 129.723 169.348 129.178 170.093 128.422C170.571 127.893 170.935 127.269 171.161 126.592C171.328 126.111 171.382 125.831 171.403 125.835C171.406 125.904 171.397 125.973 171.378 126.04C171.345 126.235 171.299 126.428 171.24 126.617C171.041 127.322 170.687 127.975 170.205 128.527C169.456 129.322 168.505 129.9 167.455 130.199C166.85 130.393 166.232 130.544 165.606 130.65C165.281 130.708 164.96 130.782 164.642 130.872C164.482 130.915 164.327 130.974 164.179 131.047C164.042 131.099 163.93 131.2 163.866 131.332C163.818 131.655 163.832 131.984 163.908 132.301C163.978 132.634 164.025 132.97 164.05 133.309C164.085 133.944 164.085 134.58 164.05 135.215C163.996 136.295 163.782 137.362 163.415 138.379C163.156 139.051 162.795 139.679 162.343 140.239C162.221 140.395 162.088 140.541 161.946 140.678C161.9 140.73 161.848 140.776 161.792 140.816Z" fill="#E7996E"/>
</svg>
