<svg width="119" height="169" viewBox="0 0 119 169" fill="none" xmlns="http://www.w3.org/2000/svg">
<g clip-path="url(#clip0_5105_5969)">
<path fill-rule="evenodd" clip-rule="evenodd" d="M12.5941 57.2097C13.2462 57.9425 14.2309 63.2585 15.0245 65.6537C15.8599 68.1753 16.999 70.8535 18.2718 73.0111C19.7409 75.4999 23.0668 80.3939 25.0834 82.1651C27.8253 84.578 27.0737 84.29 30.7479 87.1778C33.3614 89.232 37.7637 91.7283 41.0084 93.0092C55.81 98.8533 71.392 97.633 84.7821 89.4745C94.8567 83.3399 102.203 73.2234 105.007 61.8082L105.858 57.9703C106.141 57.3133 105.927 57.6342 106.314 57.1997C106.916 31.7946 85.3321 11.1876 59.4528 11.1851C33.694 11.1825 11.8399 31.9411 12.5941 57.2097Z" fill="url(#paint0_linear_5105_5969)"/>
<path fill-rule="evenodd" clip-rule="evenodd" d="M5.53881 33.0681C7.77792 28.783 8.10003 28.1034 10.9284 24.081C12.8008 21.4153 15.3253 18.6613 17.6587 16.3899L25.7613 10.0204C30.3915 7.06173 30.2133 7.25121 35.1551 4.89894C49.2863 -1.82689 70.2134 -1.43779 83.7448 4.904C90.2866 7.96877 95.9799 11.266 101.246 16.3899C111.672 26.5343 118.905 40.9486 118.905 55.7241C118.201 57.3235 118.245 59.9612 117.879 61.8992C109.894 104.101 56.2969 125.645 18.4968 93.1383C16.3493 91.2913 13.6939 88.2366 11.8083 85.71C-0.104755 69.7469 1.34869 59.0138 -8.1206e-07 55.9718C-6.92741e-07 47.7476 2.63978 38.6191 5.53881 33.0681ZM16.8391 75.932C26.8325 97.9792 54.4375 108.692 78.7062 98.4188C81.3355 97.3045 83.9412 95.8847 86.073 94.4192C93.0992 89.5908 98.5647 83.5724 102.061 75.9244C105.272 68.9029 105.507 65.3253 106.314 57.1997C106.916 31.7947 85.3318 11.1877 59.4526 11.1851C33.6938 11.1826 11.8397 31.9413 12.5939 57.2099C13.3586 65.3151 13.6912 68.9889 16.8391 75.932Z" fill="#F7F7F7"/>
<g filter="url(#filter0_d_5105_5969)">
<path fill-rule="evenodd" clip-rule="evenodd" d="M56.8965 121.686C49.2653 121.236 43.0089 120.099 36.4383 117.769C32.3031 116.304 23.0902 112.077 20.8615 109.752C20.0759 110.624 16.3021 121.625 15.7836 123.131C14.8172 125.93 7.45047 144.369 8.15494 145.953C8.81487 147.437 11.8554 146.638 13.1595 146.505C15.2913 146.282 16.8861 146.252 18.9969 145.969C21.0841 145.688 22.6947 145.635 24.7452 145.345C29.6895 144.645 29.8441 146.411 36.2 152.543C39.1487 155.388 40.7541 157.862 43.4698 157.862C46.0519 154.143 48.4927 144.556 50.4097 139.885L55.3436 126.143C55.7495 125.094 56.7447 122.929 56.8965 121.686Z" fill="#493169"/>
</g>
<g filter="url(#filter1_d_5105_5969)">
<path fill-rule="evenodd" clip-rule="evenodd" d="M62.0083 121.686L74.2644 155.906C74.7986 157.394 74.7096 156.818 75.435 157.862C78.1429 157.862 79.5649 155.572 82.5477 152.697C84.7554 150.568 86.7509 148.67 88.9298 146.519C90.255 145.214 90.8363 144.951 93.6045 145.262C95.4402 145.467 97.2681 145.694 99.3789 145.861C115.168 147.124 112.78 151.191 103.202 123.361L98.0434 109.752C95.8592 112.082 86.4209 116.372 82.2492 117.86C76.0007 120.094 69.2205 121.261 62.0083 121.686Z" fill="#493169"/>
</g>
<path fill-rule="evenodd" clip-rule="evenodd" d="M-1.52624e-05 55.9713C-1.55011e-05 72.4245 4.75053 82.9377 13.8772 94.2064C15.5715 96.2984 20.8773 101.061 23.0143 102.726C24.5069 103.302 29.4356 107.671 38.6905 110.975C56.3283 117.277 76.509 115.263 92.0726 105.152C93.1176 104.472 94.9246 103.105 95.8909 102.734C96.4304 102.307 96.6137 102.087 97.1296 101.69L100.644 98.6103C104.434 95.7098 110.101 87.9278 112.196 83.8524C116.475 75.5247 118.905 68.2 118.905 55.7236C118.201 57.323 118.245 59.9607 117.879 61.8987C109.894 104.101 56.2969 125.645 18.4968 93.1376C16.3493 91.2908 13.6939 88.2361 11.8083 85.7095C-0.104769 69.7463 1.34868 59.0133 -1.52624e-05 55.9713Z" fill="#CCCCCC"/>
<path d="M36.5278 117.459C34.4729 116.731 31.1462 115.313 28.0547 113.786C26.5094 113.023 25.0269 112.234 23.7942 111.494C22.6228 110.79 21.6977 110.141 21.1545 109.608C21.1673 108.657 21.5955 107.595 22.098 106.433C22.1321 106.354 22.1666 106.275 22.2012 106.195C22.6227 105.224 23.0695 104.196 23.2474 103.194C23.5821 103.377 24.0396 103.675 24.6404 104.074C24.7272 104.131 24.8166 104.191 24.9086 104.252C25.6819 104.766 26.6433 105.406 27.799 106.114C30.3871 107.698 33.9505 109.626 38.6 111.286C56.3121 117.617 76.5804 115.595 92.2213 105.434C92.5129 105.244 92.8708 104.996 93.25 104.733C93.5487 104.526 93.8605 104.31 94.1638 104.106C94.7135 103.737 95.2389 103.403 95.6565 103.192C95.8339 104.191 96.2802 105.219 96.7016 106.189C96.7372 106.271 96.7727 106.353 96.8076 106.434C97.3101 107.596 97.738 108.66 97.7503 109.61C97.2173 110.143 96.2877 110.796 95.1008 111.507C93.8528 112.254 92.3454 113.052 90.7724 113.824C87.6256 115.371 84.233 116.811 82.1591 117.55C75.9949 119.754 69.304 120.917 62.1799 121.349C61.8688 120.688 61.3947 119.543 60.9713 118.388C60.7392 117.754 60.5242 117.123 60.3608 116.572C60.1952 116.013 60.0896 115.56 60.0649 115.273L60.0393 114.978H59.7719H59.1328H58.8654L58.8399 115.273C58.8151 115.56 58.7096 116.013 58.5439 116.572C58.3804 117.123 58.1655 117.754 57.9334 118.388C57.5101 119.543 57.036 120.688 56.7249 121.349C49.1986 120.893 43.0163 119.76 36.5278 117.459Z" fill="#351B5C" stroke="#FFBA57" stroke-width="0.577209"/>
<path fill-rule="evenodd" clip-rule="evenodd" d="M106.314 57.1992C105.926 57.6338 106.141 57.3129 105.858 57.9697L105.007 61.8078C102.202 73.2229 94.8562 83.3395 84.7817 89.4741C71.3915 97.6325 55.8095 98.8528 41.008 93.0088C37.7633 91.7279 33.3637 89.2315 30.7474 87.1774C27.0732 84.2895 27.8248 84.5775 25.0829 82.1646C23.0664 80.3934 19.7405 75.4994 18.2713 73.0107C16.9985 70.8529 15.8594 68.1747 15.024 65.6532C14.2305 63.258 13.2458 57.942 12.5937 57.2093C13.3584 65.3147 13.691 68.9883 16.8388 75.9314C26.8322 97.9787 54.4373 108.691 78.706 98.4182C81.3353 97.3041 83.941 95.8841 86.0727 94.4187C93.099 89.5903 98.5646 83.572 102.061 75.9238C105.271 68.9025 105.507 65.3247 106.314 57.1992Z" fill="#CCCCCC"/>
<path d="M71.4521 53.5936C73.7908 51.3347 76.6086 50.2256 79.9397 50.2256C83.2736 50.2256 86.0888 51.3347 88.43 53.5936C90.7713 55.8523 91.9209 58.5305 91.9209 61.6686C91.9209 64.8067 90.7713 67.4874 88.43 69.7436C86.0888 71.9645 83.2736 73.1116 79.9397 73.1116C76.6086 73.1116 73.7908 71.9645 71.4521 69.7436L63.2396 61.5145L71.4521 53.5936ZM51.3003 48.3129C48.9618 46.0542 47.8094 43.376 47.8094 40.2379C47.8094 37.0998 48.9618 34.4191 51.3003 32.1629C53.6416 29.942 56.4175 28.7949 59.6701 28.7949C62.9226 28.7949 65.7013 29.942 68.0425 32.1629C70.3419 34.4191 71.5334 37.0998 71.5334 40.2379C71.5334 43.376 70.3419 46.0542 68.0425 48.3129L59.7905 56.5017L51.3003 48.3129ZM47.2149 69.7462C44.8737 71.967 42.0978 73.1142 38.8426 73.1142C35.6319 73.1142 32.814 71.967 30.4728 69.7462C28.1735 67.49 26.9818 64.8092 26.9818 61.6711C26.9818 58.5331 28.1735 55.8548 30.4728 53.5961C32.814 51.3373 35.6319 50.2281 38.8426 50.2281C42.0978 50.2281 44.8737 51.3373 47.2149 53.5961L55.7025 61.7849L47.2149 69.7462Z" fill="white"/>
<path d="M70.525 78.1143L71.3342 80.5297L73.9662 80.5247L71.8343 82.0128L72.6515 84.4258L70.525 82.93L68.3985 84.4258L69.2182 82.0128L67.0865 80.5247L69.7184 80.5297L70.525 78.1143Z" fill="#F7F7F7"/>
<path d="M61.5508 78.1143L62.3575 80.5297L64.9894 80.5247L62.8576 82.0128L63.6773 84.4258L61.5508 82.93L59.4244 84.4258L60.2414 82.0128L58.1097 80.5247L60.7417 80.5297L61.5508 78.1143Z" fill="#F7F7F7"/>
<path d="M52.5727 78.1143L53.3819 80.5297L56.0138 80.5247L53.8821 82.0128L54.6992 84.4258L52.5727 82.93L50.4488 84.4258L51.2659 82.0128L49.1342 80.5247L51.766 80.5297L52.5727 78.1143Z" fill="#F7F7F7"/>
</g>
<defs>
<filter id="filter0_d_5105_5969" x="3.48987" y="109.752" width="58.0243" height="57.3452" filterUnits="userSpaceOnUse" color-interpolation-filters="sRGB">
<feFlood flood-opacity="0" result="BackgroundImageFix"/>
<feColorMatrix in="SourceAlpha" type="matrix" values="0 0 0 0 0 0 0 0 0 0 0 0 0 0 0 0 0 0 127 0" result="hardAlpha"/>
<feOffset dy="4.61768"/>
<feGaussianBlur stdDeviation="2.30884"/>
<feComposite in2="hardAlpha" operator="out"/>
<feColorMatrix type="matrix" values="0 0 0 0 0 0 0 0 0 0 0 0 0 0 0 0 0 0 0.25 0"/>
<feBlend mode="normal" in2="BackgroundImageFix" result="effect1_dropShadow_5105_5969"/>
<feBlend mode="normal" in="SourceGraphic" in2="effect1_dropShadow_5105_5969" result="shape"/>
</filter>
<filter id="filter1_d_5105_5969" x="57.3906" y="109.752" width="58.0376" height="57.3452" filterUnits="userSpaceOnUse" color-interpolation-filters="sRGB">
<feFlood flood-opacity="0" result="BackgroundImageFix"/>
<feColorMatrix in="SourceAlpha" type="matrix" values="0 0 0 0 0 0 0 0 0 0 0 0 0 0 0 0 0 0 127 0" result="hardAlpha"/>
<feOffset dy="4.61768"/>
<feGaussianBlur stdDeviation="2.30884"/>
<feComposite in2="hardAlpha" operator="out"/>
<feColorMatrix type="matrix" values="0 0 0 0 0 0 0 0 0 0 0 0 0 0 0 0 0 0 0.25 0"/>
<feBlend mode="normal" in2="BackgroundImageFix" result="effect1_dropShadow_5105_5969"/>
<feBlend mode="normal" in="SourceGraphic" in2="effect1_dropShadow_5105_5969" result="shape"/>
</filter>
<linearGradient id="paint0_linear_5105_5969" x1="15.3885" y1="20.1975" x2="78.057" y2="107.082" gradientUnits="userSpaceOnUse">
<stop stop-color="#CFCFCF"/>
<stop offset="0.388" stop-color="#E9E9E9"/>
<stop offset="1" stop-color="#CFCFCF"/>
</linearGradient>
<clipPath id="clip0_5105_5969">
<rect width="118.905" height="168.3" fill="white"/>
</clipPath>
</defs>
</svg>
