<svg width="72" height="72" viewBox="0 0 72 72" fill="none" xmlns="http://www.w3.org/2000/svg">
<path d="M56.0082 20.0044C55.802 26.5294 53.627 32.1919 48.5832 36.5981C48.4895 36.6731 48.4145 36.7481 48.3207 36.8231C47.8145 37.2169 47.252 37.1981 46.877 36.7669C46.502 36.3169 46.5395 35.8106 47.0082 35.3419C47.7395 34.6106 48.5082 33.9356 49.1832 33.1669C52.1457 29.7919 53.5707 25.7981 53.9082 21.3731C53.9645 20.5856 53.9832 19.7794 54.0395 18.9919C54.077 18.3731 54.5082 17.9231 55.052 17.9794C55.6332 18.0356 55.9895 18.3731 55.9895 18.9919C56.027 19.3294 56.0082 19.6481 56.0082 20.0044Z" fill="#493169"/>
<path d="M60.6356 24.5981C59.9043 24.6168 59.4731 23.9606 59.7168 23.1543C60.1856 21.6918 60.8981 20.3606 61.8731 19.1793C63.3356 17.4168 65.1731 16.1793 67.2731 15.2793C67.8918 15.0168 68.4356 15.2231 68.6606 15.7668C68.8856 16.2918 68.6606 16.7418 68.0793 17.0793C66.7856 17.8668 65.4543 18.5981 64.2731 19.5168C62.9418 20.5668 62.1543 22.0481 61.6106 23.6418C61.4793 24.2043 61.2168 24.5606 60.6356 24.5981Z" fill="#493169"/>
<path d="M41.8691 66.1484C41.8691 58.3109 41.8691 50.5484 41.8691 42.7109C42.1504 42.7109 42.4129 42.7109 42.6566 42.7109C45.6566 42.7109 48.6379 42.7109 51.6379 42.7109C53.5129 42.7109 54.0754 43.2734 54.0754 45.1109C54.0754 51.3547 54.0754 57.5984 54.0754 63.8422C54.0754 65.5859 53.5129 66.1297 51.7504 66.1297C48.4879 66.1484 45.2066 66.1484 41.8691 66.1484Z" fill="#FBB946"/>
<path d="M30.9947 42.6367C30.9947 50.568 30.9947 58.3305 30.9947 66.1117C30.826 66.1305 30.6947 66.1492 30.5635 66.1492C27.2635 66.1492 23.9635 66.168 20.6822 66.1492C19.501 66.1492 18.8072 65.4367 18.8072 64.2742C18.7885 59.1555 18.7885 54.0367 18.826 48.918C18.826 48.6742 19.051 48.2992 19.276 48.1867C22.426 46.4242 25.3116 44.868 28.5178 43.1992C29.0991 42.8617 25.8178 43.1992 30.9947 42.6367Z" fill="#FBB946"/>
<path d="M29.0201 42.6367C29.0201 50.568 29.0201 58.3305 29.0201 66.1117C28.8514 66.1305 28.7201 66.1492 28.5889 66.1492C25.2889 66.1492 21.9889 66.168 18.7076 66.1492C17.5264 66.1492 16.8326 65.4367 16.8326 64.2742C16.8139 59.1555 16.8139 54.0367 16.8514 48.918C16.8514 48.6742 17.0764 48.2992 17.3014 48.1867C20.4514 46.4242 23.6014 44.643 26.8076 42.9742C27.3889 42.6367 28.2139 42.7305 29.0201 42.6367Z" fill="#E0A02F"/>
<path d="M33.0195 66.0926C33.0195 58.2926 33.0195 50.5676 33.0195 42.7676C35.307 42.7676 37.557 42.7676 39.8445 42.7676C39.8445 50.5488 39.8445 58.2926 39.8445 66.0926C37.5758 66.0926 35.3258 66.0926 33.0195 66.0926Z" fill="#FBB946"/>
<path d="M22.5748 27.1702C22.4998 25.014 21.9936 22.7827 23.4561 20.7765C25.1998 18.3952 28.5186 17.7952 30.9373 19.464C33.3936 21.1515 34.1061 24.5452 32.3623 26.9452C31.3873 28.2952 30.1498 29.4765 29.0061 30.714C28.9311 30.789 28.8186 30.8265 28.6873 30.9015C28.0123 29.7952 27.3373 28.7265 26.5686 27.489C27.2061 26.5702 27.8998 25.5015 28.6498 24.4702C29.1373 23.7952 29.1748 23.2702 28.6873 22.8577C28.1811 22.4265 27.5998 22.5202 27.0936 23.2515C26.3436 24.3015 25.6498 25.3702 24.9748 26.4765C24.7686 26.814 24.5623 26.964 24.1686 26.964C23.6623 26.964 23.1561 27.0952 22.5748 27.1702Z" fill="#FBB946"/>
<path d="M16.0898 30.7105C15.6585 31.2355 15.3023 31.723 14.8898 32.1543C14.7398 32.3043 14.4585 32.3793 14.2335 32.398C13.071 32.4168 11.9085 32.4168 10.746 32.4168C10.521 32.4168 10.2773 32.4543 10.0523 32.4918C9.41477 32.623 9.05852 33.073 9.15227 33.6168C9.24602 34.1793 9.75227 34.4793 10.4085 34.4605C11.7398 34.423 13.0523 34.4605 14.3085 34.4605C14.8523 35.5855 15.396 36.7105 15.9773 37.873C15.846 37.948 15.696 38.0793 15.546 38.098C14.0273 38.3605 12.5273 38.7168 10.9898 38.8668C7.83977 39.1855 5.25228 36.8418 5.10228 33.673C4.95228 30.7668 7.38977 28.1605 10.3898 28.0855C11.4398 28.048 12.4335 28.3105 13.3148 28.873C14.2523 29.4543 15.171 30.1105 16.0898 30.7105Z" fill="#FBB946"/>
<path d="M34.1448 36.6363C33.7514 36.8526 33.3569 37.0695 32.9611 37.2873C32.6483 36.7202 32.3372 36.1583 32.028 35.5999C31.5704 34.7735 31.1169 33.9545 30.668 33.1365C33.427 31.6096 36.1842 30.0849 38.9411 28.5764C39.3154 28.3767 39.5718 28.3726 39.7355 28.4179C39.8989 28.4631 40.1133 28.5972 40.3259 28.9558C40.8045 29.7658 41.2634 30.5918 41.6845 31.4155C41.9528 31.9551 41.7873 32.3926 41.408 32.6073C39.0003 33.9662 36.5935 35.2897 34.1448 36.6363Z" fill="#FCFCFC" stroke="#FFDC9F" stroke-width="1.8"/>
<path d="M17.14 39.5449C18.2088 41.4762 19.2213 43.3324 20.2713 45.2449C20.0838 45.3762 19.9338 45.4887 19.7463 45.5824C16.99 47.1012 14.2338 48.6199 11.4588 50.1387C10.09 50.8887 9.20878 50.6262 8.44003 49.2762C8.04628 48.5824 7.65253 47.8887 7.29628 47.1949C6.73378 46.1074 6.97753 45.1699 8.02753 44.5699C11.065 42.9012 14.065 41.2512 17.14 39.5449Z" fill="#303842"/>
<path d="M17.14 39.5449C18.2088 41.4762 19.2213 43.3324 20.2713 45.2449C20.0838 45.3762 19.9338 45.4887 19.7463 45.5824C16.99 47.1012 14.2338 48.6199 11.4588 50.1387C10.09 50.8887 9.20878 50.6262 8.44003 49.2762C8.04628 48.5824 7.65253 47.8887 7.29628 47.1949C6.73378 46.1074 6.97753 45.1699 8.02753 44.5699C11.065 42.9012 14.065 41.2512 17.14 39.5449Z" fill="#FFDC9F"/>
<path d="M16.4934 41.3984C17.2183 42.6618 17.905 43.876 18.6172 45.1271C18.49 45.2129 18.3883 45.2865 18.2611 45.3479C16.3917 46.3413 14.5222 47.3348 12.6401 48.3283C11.7117 48.8189 11.114 48.6472 10.5926 47.7641C10.3255 47.3103 10.0584 46.8565 9.81682 46.4027C9.4353 45.6913 9.60063 45.078 10.3128 44.6855C12.373 43.5939 14.4078 42.5146 16.4934 41.3984Z" fill="#FCFCFC"/>
<path d="M27.3613 34.9563C28.1314 36.3503 28.8855 37.7223 29.6453 39.1156C28.4318 39.7841 27.2288 40.4472 26.026 41.1103L26.0233 41.1118C24.8209 41.7747 23.6186 42.4375 22.406 43.1055C22.0457 42.4523 21.6892 41.8091 21.3323 41.165C20.9264 40.4327 20.5199 39.6993 20.1064 38.9486C21.9606 37.9361 23.7972 36.9227 25.6412 35.9051C26.2136 35.5893 26.7867 35.273 27.3613 34.9563Z" fill="#FCFCFC" stroke="#FFDC9F" stroke-width="1.8"/>
<path d="M17.776 36.9375C17.3635 36.2062 16.9697 35.5125 16.6134 34.8187C16.1822 33.9375 16.4259 32.9812 17.2697 32.4937C19.2947 31.3312 21.3384 30.2063 23.3822 29.1188C24.1884 28.6875 25.126 28.9312 25.6135 29.6812C26.0635 30.375 26.4384 31.125 26.8884 31.9125C23.8322 33.6 20.8135 35.25 17.776 36.9375Z" fill="#FBB946"/>
<path d="M46.3117 20.6828C45.6742 20.1766 45.1305 19.7453 44.6055 19.2953C44.193 18.9391 43.7617 18.7703 43.1992 18.9203C42.5055 19.1078 41.793 19.2016 40.9867 19.3703C41.2117 18.7891 41.3242 18.2453 41.5867 17.7766C42.0742 16.8953 41.9805 16.1078 41.3992 15.3016C41.0992 14.8891 40.893 14.4203 40.5742 13.8391C41.3617 13.8953 41.9992 13.8953 42.6367 13.9703C43.293 14.0453 43.818 13.8766 44.2492 13.3516C44.6805 12.8266 45.168 12.3578 45.7117 11.7578C45.8992 12.4891 46.1055 13.1266 46.2367 13.7641C46.3867 14.4391 46.7242 14.8891 47.3805 15.1328C47.9805 15.3578 48.5617 15.6766 49.2742 15.9953C48.5992 16.4266 48.0555 16.8203 47.4555 17.1766C46.9305 17.4953 46.6305 17.8703 46.6117 18.5266C46.5555 19.2203 46.4242 19.8953 46.3117 20.6828Z" fill="url(#paint0_linear_6884_14130)"/>
<path d="M57.7871 35.0059C59.4184 34.7996 60.3371 33.9559 60.5809 32.2871C61.1246 32.9434 61.4809 33.6184 62.0246 33.9371C62.5684 34.2559 63.3184 34.1996 64.1246 34.3309C63.0184 35.3809 62.5496 36.5809 63.3559 38.0996C61.9121 37.3871 60.6371 37.4434 59.4371 38.6059C59.6809 37.0121 59.2871 35.7934 57.7871 35.0059Z" fill="url(#paint1_linear_6884_14130)"/>
<path d="M62.6607 8.92422C62.6607 10.593 61.3482 11.9242 59.717 11.9242C58.0857 11.9242 56.7357 10.593 56.717 8.96172C56.6982 7.33047 58.0482 5.98047 59.6795 5.98047C61.367 5.98047 62.6607 7.25547 62.6607 8.92422Z" fill="url(#paint2_linear_6884_14130)"/>
<defs>
<linearGradient id="paint0_linear_6884_14130" x1="45.0581" y1="-7.3672" x2="51.6655" y2="-6.61411" gradientUnits="userSpaceOnUse">
<stop stop-color="#D09A00"/>
<stop offset="0.980418" stop-color="#FFD285"/>
</linearGradient>
<linearGradient id="paint1_linear_6884_14130" x1="61.0534" y1="18.7469" x2="65.8629" y2="19.3109" gradientUnits="userSpaceOnUse">
<stop stop-color="#D09A00"/>
<stop offset="0.980418" stop-color="#FFD285"/>
</linearGradient>
<linearGradient id="paint2_linear_6884_14130" x1="59.7802" y1="-6.75614" x2="64.2915" y2="-6.22866" gradientUnits="userSpaceOnUse">
<stop stop-color="#D09A00"/>
<stop offset="0.980418" stop-color="#FFD285"/>
</linearGradient>
</defs>
</svg>
