<svg width="71" height="68" viewBox="0 0 71 68" fill="none" xmlns="http://www.w3.org/2000/svg">
<g filter="url(#filter0_d_3494_11794)">
<path d="M65 30C65 45.3731 51.8855 58 35.5 58C19.1145 58 6 45.3731 6 30C6 14.6269 19.1145 2 35.5 2C51.8855 2 65 14.6269 65 30Z" stroke="#FCB945" stroke-width="4" shape-rendering="crispEdges"/>
</g>
<path d="M54.1891 21.9794H52.6211C53.3995 21.5395 53.9682 19.9243 53.9682 18.7783C53.9682 16.0183 52.0247 14.1459 48.8934 14.1459C46.807 14.1459 43.4286 15.692 38.5993 19.0007C37.8143 18.5186 36.8378 18.1808 35.7667 18.1808C34.634 18.1808 33.6071 18.4954 32.7997 19.0287C27.8989 15.6615 24.4864 14 22.3978 14C19.2991 14 17.3715 16.0232 17.3715 18.7832C17.3715 19.9291 17.9809 21.4998 18.7317 21.9793H16.8111C16.3624 21.9793 16 22.2069 16 22.56V30.2285C16 30.5814 16.3624 30.9319 16.8111 30.9319H17.625V44.3491C17.625 44.7034 17.8575 45 18.3058 45H52.6927C53.1425 45 53.375 44.7034 53.375 44.3491V30.9319H54.1889C54.6376 30.9319 55 30.5814 55 30.2285V22.5805C55 22.2262 54.6378 21.9794 54.1891 21.9794ZM53.3752 29.6531H43.6252V23.2584H53.3752V29.6531ZM40.7345 29.6531H29.0002V23.2584H42.0002V29.6531H40.7345ZM23.62 20.1407C23.62 19.0025 24.3186 18.2696 25.6952 18.2696C26.3971 18.2696 27.9702 18.9642 31.3958 21.0054C31.2931 21.2418 31.1829 21.5372 31.1829 21.9797H25.783C24.5512 21.9797 23.62 21.0102 23.62 20.1407ZM40.0734 20.7684C42.6636 19.2208 44.5016 18.2694 45.5204 18.2694C46.9227 18.2694 47.6344 19.0815 47.6344 20.2186C47.6344 21.1025 46.7392 21.9783 45.5074 21.9783H40.3513C40.3513 21.5806 40.2163 21.0513 40.0734 20.7684ZM52.3436 18.7786C52.3436 20.4526 50.9231 21.9797 48.9651 21.9797H48.6808C48.8447 21.8507 49.2575 20.7136 49.2575 20.1406C49.2575 18.295 47.8243 16.9907 45.5185 16.9907C45.1449 16.9907 44.7321 16.969 44.2722 17.0814C46.9048 15.6375 48.2502 15.4648 48.8922 15.4648C51.8966 15.4648 52.3436 17.5853 52.3436 18.7786ZM35.7667 20.0499C37.2357 20.0499 38.461 20.7008 38.7258 21.9797H32.8072C33.0724 20.7008 34.2977 20.0499 35.7667 20.0499ZM18.9967 18.7786C18.9967 17.5853 19.437 15.4251 22.3979 15.4251C23.0432 15.4251 24.4063 15.6426 27.1119 17.1428C26.5773 16.9932 26.1028 16.873 25.6966 16.873C23.4151 16.873 21.9964 18.3144 21.9964 20.1601C21.9964 20.7279 22.349 21.6397 22.596 21.9789L22.4223 21.9786C20.469 21.9797 18.9967 20.4244 18.9967 18.7786ZM17.6252 23.2586H27.3752V29.6533H17.6252V23.2586ZM19.2502 30.9323H29.0002V43.7217H19.2502V30.9323ZM30.6252 43.7217V30.9323H40.3752V43.7217H30.6252ZM51.7502 43.7217H42.0002V30.9323H51.7502V43.7217Z" fill="#7858A1"/>
<defs>
<filter id="filter0_d_3494_11794" x="0" y="0" width="71" height="68" filterUnits="userSpaceOnUse" color-interpolation-filters="sRGB">
<feFlood flood-opacity="0" result="BackgroundImageFix"/>
<feColorMatrix in="SourceAlpha" type="matrix" values="0 0 0 0 0 0 0 0 0 0 0 0 0 0 0 0 0 0 127 0" result="hardAlpha"/>
<feOffset dy="4"/>
<feGaussianBlur stdDeviation="2"/>
<feComposite in2="hardAlpha" operator="out"/>
<feColorMatrix type="matrix" values="0 0 0 0 0 0 0 0 0 0 0 0 0 0 0 0 0 0 0.25 0"/>
<feBlend mode="normal" in2="BackgroundImageFix" result="effect1_dropShadow_3494_11794"/>
<feBlend mode="normal" in="SourceGraphic" in2="effect1_dropShadow_3494_11794" result="shape"/>
</filter>
</defs>
</svg>
