<svg width="119" height="169" viewBox="0 0 119 169" fill="none" xmlns="http://www.w3.org/2000/svg">
<g clip-path="url(#clip0_5105_5996)">
<path fill-rule="evenodd" clip-rule="evenodd" d="M12.5942 57.2097C13.2463 57.9425 14.231 63.2585 15.0246 65.6537C15.86 68.1753 16.9991 70.8535 18.2718 73.0111C19.741 75.4999 23.0669 80.3939 25.0835 82.1651C27.8253 84.578 27.0738 84.29 30.7479 87.1778C33.3615 89.232 37.7638 91.7283 41.0085 93.0092C55.8101 98.8533 71.3921 97.633 84.7822 89.4745C94.8568 83.3399 102.203 73.2234 105.007 61.8082L105.858 57.9703C106.141 57.3133 105.927 57.6342 106.314 57.1997C106.916 31.7946 85.3321 11.1876 59.4528 11.1851C33.6941 11.1825 11.84 31.9411 12.5942 57.2097Z" fill="#CFCFCF"/>
<path fill-rule="evenodd" clip-rule="evenodd" d="M5.53881 33.0681C7.77792 28.783 8.10003 28.1034 10.9284 24.081C12.8008 21.4153 15.3253 18.6613 17.6587 16.3899L25.7613 10.0204C30.3915 7.06173 30.2133 7.25121 35.1551 4.89894C49.2863 -1.82689 70.2134 -1.43779 83.7448 4.904C90.2866 7.96877 95.9799 11.266 101.246 16.3899C111.672 26.5343 118.905 40.9486 118.905 55.7241C118.201 57.3235 118.245 59.9613 117.879 61.8992C109.894 104.101 56.2969 125.645 18.4968 93.1383C16.3493 91.2913 13.6939 88.2366 11.8083 85.71C-0.104754 69.7469 1.34869 59.0138 0 55.9718C0 47.7476 2.63978 38.6191 5.53881 33.0681ZM16.8391 75.932C26.8325 97.9792 54.4375 108.692 78.7062 98.4188C81.3355 97.3045 83.9412 95.8847 86.073 94.4192C93.0992 89.5908 98.5647 83.5724 102.061 75.9244C105.272 68.9029 105.507 65.3253 106.314 57.1997C106.916 31.7947 85.3318 11.1877 59.4526 11.1851C33.6938 11.1826 11.8397 31.9413 12.5939 57.2099C13.3586 65.3151 13.6912 68.9889 16.8391 75.932Z" fill="#E6E6E6"/>
<g filter="url(#filter0_d_5105_5996)">
<path fill-rule="evenodd" clip-rule="evenodd" d="M56.8966 121.686C49.2653 121.236 43.0089 120.099 36.4383 117.77C32.3031 116.305 23.0902 112.077 20.8615 109.753C20.0759 110.625 16.3021 121.626 15.7836 123.131C14.8172 125.931 7.4505 144.37 8.15497 145.954C8.81491 147.437 11.8554 146.639 13.1595 146.506C15.2913 146.283 16.8862 146.253 18.9969 145.969C21.0841 145.689 22.6947 145.635 24.7452 145.346C29.6895 144.645 29.8441 146.412 36.2 152.544C39.1487 155.389 40.7541 157.863 43.4698 157.863C46.052 154.143 48.4927 144.556 50.4098 139.886L55.3436 126.143C55.7495 125.094 56.7447 122.929 56.8966 121.686Z" fill="#493169"/>
</g>
<g filter="url(#filter1_d_5105_5996)">
<path fill-rule="evenodd" clip-rule="evenodd" d="M62.0083 121.686L74.2644 155.907C74.7986 157.394 74.7096 156.819 75.4351 157.863C78.1429 157.863 79.565 155.573 82.5477 152.697C84.7555 150.568 86.751 148.67 88.9299 146.52C90.255 145.214 90.8364 144.952 93.6045 145.262C95.4402 145.467 97.2682 145.694 99.3789 145.861C115.168 147.124 112.78 151.192 103.203 123.361L98.0434 109.753C95.8592 112.083 86.421 116.373 82.2493 117.861C76.0008 120.094 69.2206 121.262 62.0083 121.686Z" fill="#493169"/>
</g>
<path fill-rule="evenodd" clip-rule="evenodd" d="M0 55.9717C0 72.425 4.75054 82.9382 13.8772 94.2069C15.5715 96.2989 20.8773 101.062 23.0143 102.727C24.5069 103.303 29.4356 107.671 38.6906 110.976C56.3283 117.277 76.509 115.264 92.0726 105.152C93.1176 104.473 94.9246 103.106 95.8909 102.734C96.4304 102.307 96.6137 102.087 97.1296 101.691L100.644 98.6107C104.434 95.7102 110.101 87.9283 112.196 83.8529C116.475 75.5252 118.905 68.2005 118.905 55.7241C118.201 57.3235 118.245 59.9612 117.879 61.8992C109.894 104.101 56.2969 125.645 18.4968 93.1381C16.3493 91.2913 13.6939 88.2366 11.8083 85.71C-0.104754 69.7468 1.34869 59.0138 0 55.9717Z" fill="#CCCCCC"/>
<path fill-rule="evenodd" clip-rule="evenodd" d="M5.53881 33.0681C7.77792 28.783 8.10003 28.1034 10.9284 24.081C12.8008 21.4153 15.3253 18.6613 17.6587 16.3899L25.7613 10.0204C30.3915 7.06173 30.2133 7.25121 35.1551 4.89894C49.2863 -1.82689 70.2134 -1.43779 83.7448 4.904C90.2866 7.96877 95.9799 11.266 101.246 16.3899C111.672 26.5343 118.905 40.9486 118.905 55.7241C118.201 57.3235 118.245 59.9613 117.879 61.8992C109.894 104.101 56.2969 125.645 18.4968 93.1383C16.3493 91.2913 13.6939 88.2366 11.8083 85.71C-0.104754 69.7469 1.34869 59.0138 0 55.9718C0 47.7476 2.63978 38.6191 5.53881 33.0681ZM16.8391 75.932C26.8325 97.9792 54.4375 108.692 78.7062 98.4188C81.3355 97.3045 83.9412 95.8847 86.073 94.4192C93.0992 89.5908 98.5647 83.5724 102.061 75.9244C105.272 68.9029 105.507 65.3253 106.314 57.1997C106.916 31.7947 85.3318 11.1877 59.4526 11.1851C33.6938 11.1826 11.8397 31.9413 12.5939 57.2099C13.3586 65.3151 13.6912 68.9889 16.8391 75.932Z" fill="#E6E6E6"/>
<path fill-rule="evenodd" clip-rule="evenodd" d="M0 55.9717C0 72.425 4.75054 82.9382 13.8772 94.2069C15.5715 96.2989 20.8773 101.062 23.0143 102.727C24.5069 103.303 29.4356 107.671 38.6906 110.976C56.3283 117.277 76.509 115.264 92.0726 105.152C93.1176 104.473 94.9246 103.106 95.8909 102.734C96.4304 102.307 96.6137 102.087 97.1296 101.691L100.644 98.6107C104.434 95.7102 110.101 87.9283 112.196 83.8529C116.475 75.5252 118.905 68.2005 118.905 55.7241C118.201 57.3235 118.245 59.9612 117.879 61.8992C109.894 104.101 56.2969 125.645 18.4968 93.1381C16.3493 91.2913 13.6939 88.2366 11.8083 85.71C-0.104754 69.7468 1.34869 59.0138 0 55.9717Z" fill="#CCCCCC"/>
<path d="M36.5278 117.459C34.473 116.731 31.1462 115.313 28.0547 113.786C26.5094 113.023 25.027 112.234 23.7942 111.494C22.6228 110.79 21.6977 110.141 21.1545 109.608C21.1674 108.657 21.5955 107.595 22.098 106.433C22.1322 106.354 22.1666 106.275 22.2013 106.195C22.6227 105.224 23.0695 104.196 23.2474 103.194C23.5821 103.377 24.0396 103.675 24.6405 104.074C24.7272 104.131 24.8166 104.191 24.9086 104.252C25.6819 104.766 26.6434 105.406 27.799 106.114C30.3871 107.698 33.9505 109.626 38.6 111.286C56.3121 117.617 76.5805 115.595 92.2213 105.434C92.5129 105.244 92.8708 104.996 93.25 104.733C93.5487 104.526 93.8606 104.31 94.1638 104.106C94.7135 103.737 95.2389 103.403 95.6565 103.192C95.8339 104.191 96.2802 105.219 96.7016 106.189C96.7373 106.271 96.7727 106.353 96.8077 106.434C97.3101 107.596 97.7381 108.66 97.7503 109.61C97.2174 110.143 96.2878 110.796 95.1008 111.507C93.8528 112.254 92.3454 113.052 90.7725 113.824C87.6256 115.371 84.233 116.811 82.1591 117.55C75.9949 119.754 69.3041 120.917 62.1799 121.349C61.8689 120.688 61.3948 119.543 60.9713 118.388C60.7393 117.754 60.5243 117.123 60.3609 116.572C60.1952 116.013 60.0896 115.56 60.0649 115.273L60.0394 114.978H59.7719H59.1329H58.8654L58.8399 115.273C58.8151 115.56 58.7096 116.013 58.544 116.572C58.3805 117.123 58.1655 117.754 57.9334 118.388C57.5101 119.543 57.036 120.688 56.725 121.349C49.1986 120.893 43.0164 119.76 36.5278 117.459Z" fill="#351B5C" stroke="#FFBA57" stroke-width="0.487316"/>
<path fill-rule="evenodd" clip-rule="evenodd" d="M106.314 57.1997C105.926 57.6343 106.141 57.3133 105.858 57.9702L105.007 61.8083C102.202 73.2234 94.8562 83.34 84.7816 89.4746C71.3915 97.6329 55.8095 98.8533 41.0079 93.0093C37.7632 91.7283 33.3636 89.232 30.7474 87.1779C27.0732 84.29 27.8248 84.5779 25.0829 82.1651C23.0663 80.3939 19.7405 75.4999 18.2713 73.0112C16.9985 70.8534 15.8594 68.1752 15.024 65.6537C14.2305 63.2585 13.2458 57.9424 12.5937 57.2098C13.3584 65.3152 13.6909 68.9888 16.8388 75.9319C26.8322 97.9792 54.4373 108.692 78.7059 98.4187C81.3353 97.3046 83.9409 95.8846 86.0726 94.4192C93.099 89.5908 98.5645 83.5725 102.061 75.9243C105.271 68.903 105.507 65.3252 106.314 57.1997Z" fill="#B5B5B5"/>
<path d="M71.4522 53.5941C73.7909 51.3352 76.6087 50.2261 79.9398 50.2261C83.2736 50.2261 86.0889 51.3352 88.4301 53.5941C90.7714 55.8528 91.921 58.531 91.921 61.6691C91.921 64.8072 90.7714 67.4878 88.4301 69.7441C86.0889 71.965 83.2736 73.1121 79.9398 73.1121C76.6087 73.1121 73.7909 71.965 71.4522 69.7441L63.2397 61.515L71.4522 53.5941ZM51.3004 48.3134C48.9619 46.0546 47.8095 43.3765 47.8095 40.2384C47.8095 37.1003 48.9619 34.4196 51.3004 32.1634C53.6417 29.9425 56.4176 28.7954 59.6701 28.7954C62.9227 28.7954 65.7013 29.9425 68.0426 32.1634C70.3419 34.4196 71.5335 37.1003 71.5335 40.2384C71.5335 43.3765 70.3419 46.0546 68.0426 48.3134L59.7906 56.5022L51.3004 48.3134ZM47.215 69.7467C44.8738 71.9675 42.0978 73.1147 38.8427 73.1147C35.632 73.1147 32.8141 71.9675 30.4729 69.7467C28.1736 67.4905 26.9819 64.8097 26.9819 61.6716C26.9819 58.5336 28.1736 55.8553 30.4729 53.5966C32.8141 51.3378 35.632 50.2286 38.8427 50.2286C42.0978 50.2286 44.8738 51.3378 47.215 53.5966L55.7026 61.7853L47.215 69.7467Z" fill="white"/>
<path d="M59.3374 75.6313L60.1466 78.0468L62.7759 78.0417L60.6442 79.5299L61.4639 81.9429L59.3374 80.4471L57.2109 81.9429L58.0306 79.5299L55.8988 78.0417L58.5282 78.0468L59.3374 75.6313Z" fill="#F7F7F7"/>
</g>
<defs>
<filter id="filter0_d_5105_5996" x="4.20905" y="109.753" width="56.5861" height="55.9069" filterUnits="userSpaceOnUse" color-interpolation-filters="sRGB">
<feFlood flood-opacity="0" result="BackgroundImageFix"/>
<feColorMatrix in="SourceAlpha" type="matrix" values="0 0 0 0 0 0 0 0 0 0 0 0 0 0 0 0 0 0 127 0" result="hardAlpha"/>
<feOffset dy="3.89853"/>
<feGaussianBlur stdDeviation="1.94926"/>
<feComposite in2="hardAlpha" operator="out"/>
<feColorMatrix type="matrix" values="0 0 0 0 0 0 0 0 0 0 0 0 0 0 0 0 0 0 0.25 0"/>
<feBlend mode="normal" in2="BackgroundImageFix" result="effect1_dropShadow_5105_5996"/>
<feBlend mode="normal" in="SourceGraphic" in2="effect1_dropShadow_5105_5996" result="shape"/>
</filter>
<filter id="filter1_d_5105_5996" x="58.1098" y="109.753" width="56.5993" height="55.9069" filterUnits="userSpaceOnUse" color-interpolation-filters="sRGB">
<feFlood flood-opacity="0" result="BackgroundImageFix"/>
<feColorMatrix in="SourceAlpha" type="matrix" values="0 0 0 0 0 0 0 0 0 0 0 0 0 0 0 0 0 0 127 0" result="hardAlpha"/>
<feOffset dy="3.89853"/>
<feGaussianBlur stdDeviation="1.94926"/>
<feComposite in2="hardAlpha" operator="out"/>
<feColorMatrix type="matrix" values="0 0 0 0 0 0 0 0 0 0 0 0 0 0 0 0 0 0 0.25 0"/>
<feBlend mode="normal" in2="BackgroundImageFix" result="effect1_dropShadow_5105_5996"/>
<feBlend mode="normal" in="SourceGraphic" in2="effect1_dropShadow_5105_5996" result="shape"/>
</filter>
<clipPath id="clip0_5105_5996">
<rect width="118.905" height="168.3" fill="white"/>
</clipPath>
</defs>
</svg>
