<svg width="284" height="152" viewBox="0 0 284 152" fill="none" xmlns="http://www.w3.org/2000/svg">
<path d="M69.5944 13.1124L70.9996 14.5011L72.4056 13.1126L83.656 2H278.09C280.266 2 282 3.74307 282 5.84516V146.159C282 148.259 280.268 150 278.09 150H83.6556L72.4048 138.895L70.9996 137.508L69.5948 138.895L58.3484 150H5.91924C3.72978 150 2 148.258 2 146.159V5.84516C2 3.7449 3.73175 2 5.91924 2H58.348L69.5944 13.1124ZM63.0848 111.081C63.0848 115.438 66.652 118.922 71 118.922C75.3508 118.922 78.9192 115.439 78.9192 111.081C78.9192 106.722 75.3508 103.24 71 103.24C66.652 103.24 63.0848 106.724 63.0848 111.081ZM63.0848 87.7008C63.0848 92.048 66.6504 95.5416 71 95.5416C75.3528 95.5416 78.9192 92.0488 78.9192 87.7008C78.9192 83.3428 75.3556 79.8472 71 79.8472C66.6472 79.8472 63.0848 83.3444 63.0848 87.7008ZM63.0848 64.308C63.0848 68.6616 66.6484 72.1572 71 72.1572C75.3544 72.1572 78.9192 68.6632 78.9192 64.308C78.9192 59.9512 75.3528 56.4628 71 56.4628C66.65 56.4628 63.0848 59.9528 63.0848 64.308ZM63.0848 40.9232C63.0848 45.2792 66.6504 48.7684 71 48.7684C75.3528 48.7684 78.9192 45.28 78.9192 40.9232C78.9192 36.5663 75.3528 33.078 71 33.078C66.6504 33.078 63.0848 36.5671 63.0848 40.9232Z" fill="#FCE193" stroke="#FFBD00"/>
<path d="M3.12512 5.84519C3.12512 4.37987 4.33947 3.12512 5.91927 3.12512H57.8856L67.8748 12.9952V32.5048C64.4364 33.7625 61.9596 37.0367 61.9596 40.9236C61.9596 44.8108 64.4364 48.0848 67.8748 49.3424V55.8892C64.4364 57.1472 61.9596 60.4216 61.9596 64.308C61.9596 68.1928 64.4352 71.4712 67.8748 72.7304V79.274C64.4344 80.5336 61.9596 83.814 61.9596 87.7008C61.9596 91.5808 64.4364 94.8564 67.8748 96.1148V102.666C64.4376 103.922 61.9596 107.192 61.9596 111.081C61.9596 114.969 64.4376 118.239 67.8748 119.496V139.012L57.8864 148.875H5.91927C4.33639 148.875 3.12512 147.622 3.12512 146.159V5.84519Z" fill="#FCE193" stroke="#FFBD00" stroke-width="1.56255"/>
<path d="M264 87.1784C262.886 87.1784 261.78 87.1784 260.598 87.1784C260.598 86.41 260.598 85.6672 260.598 84.7808C257.66 87.17 254.495 88.2252 250.848 87.2796C248.425 86.6464 246.433 85.3548 244.922 83.3456C241.832 79.26 242.026 73.5448 245.378 69.6364C246.314 68.5472 247.437 67.7032 248.72 67.0616C249.987 66.4284 251.329 66.0824 252.739 65.9724C254.174 65.8628 255.592 65.9896 256.892 66.5888C258.15 67.1712 259.34 67.8888 260.573 68.5556C260.573 67.914 260.573 67.1968 260.573 66.4032C261.754 66.4032 262.869 66.4032 263.992 66.4032C264 73.3252 264 80.2476 264 87.1784ZM260.598 76.812C260.615 72.9624 257.5 69.7712 253.693 69.746C249.826 69.7208 246.669 72.8528 246.652 76.7272C246.635 80.6192 249.742 83.8016 253.583 83.8184C257.416 83.844 260.581 80.6864 260.598 76.812Z" fill="#8D8D8D"/>
<path d="M96.0084 66.4032C96.8864 66.4032 97.7556 66.4032 98.6844 66.4032C98.6844 63.71 98.6844 61.068 98.6844 58.392C100.001 58.392 101.268 58.392 102.584 58.392C102.584 61.0596 102.584 63.7016 102.584 66.3864C104.737 66.3864 106.831 66.3864 108.958 66.3864C108.958 67.6356 108.958 68.8428 108.958 70.1092C106.839 70.1092 104.754 70.1092 102.627 70.1092C102.61 70.2948 102.593 70.43 102.593 70.5732C102.593 73.7304 102.584 76.8876 102.593 80.0452C102.593 81.2352 103.049 82.24 104.053 82.8816C104.543 83.1936 105.168 83.3712 105.75 83.4216C106.746 83.506 107.759 83.4556 108.764 83.4388C109.068 83.43 109.203 83.5232 109.279 83.8268C109.549 84.916 109.861 86.0048 110.165 87.136C109.996 87.1528 109.878 87.1784 109.768 87.1784C108.046 87.1528 106.316 87.2712 104.61 87.0684C101.175 86.6632 98.7096 83.7592 98.7012 80.2984C98.6928 77.124 98.7012 73.95 98.7012 70.776C98.7012 70.5816 98.7012 70.3792 98.7012 70.0668C97.7896 70.0668 96.8948 70.0668 96.0084 70.0668C96.0084 68.8428 96.0084 67.6272 96.0084 66.4032Z" fill="#8D8D8D"/>
<path d="M134.106 48C134.503 48.1436 134.917 48.2532 135.288 48.4388C137.475 49.5196 137.998 52.4068 136.293 54.154C135.432 55.0404 134.495 55.834 133.524 56.7288C132.629 55.7916 131.506 54.8208 130.637 53.6644C129.219 51.782 130.232 49.0216 132.494 48.2364C132.671 48.1772 132.84 48.0844 133.018 48.0084C133.389 48 133.744 48 134.106 48Z" fill="#8D8D8D"/>
<path d="M166.067 102.027C165.704 101.825 165.332 101.63 164.919 101.403C165.046 101.217 165.13 101.099 165.24 100.93C165.805 101.445 166.43 101.706 167.164 101.47C167.789 101.276 168.059 100.66 167.899 99.7396C167.333 100.162 166.717 100.39 166.05 100.136C165.721 100.01 165.375 99.7732 165.155 99.4948C164.657 98.8616 164.758 97.798 165.307 97.2156C165.949 96.5232 166.818 96.4896 167.789 97.0804C167.992 96.9452 168.186 96.8188 168.456 96.6416C168.456 98.026 168.473 99.2416 168.448 100.457C168.431 101.31 167.848 101.732 167.139 102.036C166.784 102.027 166.43 102.027 166.067 102.027ZM168.017 98.4648C168.017 97.6884 167.434 97.0804 166.675 97.0888C165.932 97.0888 165.392 97.6628 165.392 98.4564C165.392 99.2584 165.915 99.782 166.7 99.782C167.494 99.7732 168.017 99.2584 168.017 98.4648Z" fill="#8D8D8D"/>
<path d="M223.539 102.028C223.201 101.825 222.863 101.614 222.475 101.386C222.593 101.217 222.678 101.099 222.754 100.998C224.282 101.867 225.413 101.96 225.531 99.8412C225.008 99.976 224.518 100.162 224.02 100.204C223.471 100.255 223.024 99.9592 222.703 99.512C222.213 98.828 222.306 97.7812 222.897 97.182C223.572 96.498 224.467 96.4896 225.354 97.1144C225.539 96.9624 225.708 96.8188 226.004 96.5824C226.004 98.0428 226.046 99.3176 225.987 100.576C225.953 101.403 225.32 101.774 224.619 102.028C224.256 102.028 223.893 102.028 223.539 102.028ZM224.231 99.782C225.016 99.782 225.556 99.2584 225.565 98.4904C225.582 97.7308 224.991 97.106 224.248 97.0892C223.496 97.072 222.906 97.68 222.922 98.4652C222.931 99.2416 223.471 99.782 224.231 99.782Z" fill="#8D8D8D"/>
<path d="M127.108 102.028C127.108 100.288 127.108 98.558 127.108 96.6248C127.404 96.8104 127.581 96.9288 127.716 97.0048C128.223 96.9032 128.78 96.684 129.32 96.726C129.692 96.7512 130.122 97.0552 130.384 97.3592C130.975 98.026 130.874 99.1912 130.249 99.824C129.582 100.491 128.645 100.491 127.64 99.7652C127.64 100.559 127.64 101.302 127.64 102.036C127.471 102.028 127.286 102.028 127.108 102.028ZM130.224 98.524C130.24 97.7136 129.692 97.106 128.94 97.0892C128.197 97.072 127.598 97.6716 127.573 98.4568C127.547 99.2416 128.122 99.858 128.873 99.8748C129.658 99.9 130.215 99.3344 130.224 98.524Z" fill="#8D8D8D"/>
<path d="M135.507 102.028C135.507 100.288 135.507 98.5496 135.507 96.6248C135.786 96.8188 135.963 96.9456 136.174 97.0892C137.128 96.4644 138.082 96.5152 138.715 97.2748C139.28 97.9584 139.246 99.1068 138.656 99.7568C138.014 100.466 137.06 100.483 136.047 99.782C136.047 100.55 136.047 101.285 136.047 102.019C135.861 102.028 135.684 102.028 135.507 102.028ZM137.271 99.8832C138.039 99.8832 138.58 99.3176 138.588 98.5072C138.596 97.7052 138.039 97.106 137.288 97.0976C136.52 97.0892 135.937 97.7052 135.937 98.5156C135.937 99.2924 136.512 99.8748 137.271 99.8832Z" fill="#8D8D8D"/>
<path d="M96.0084 98.904C96.3208 99.4444 96.6752 99.9172 97.4012 99.8748C98.0684 99.8412 98.5408 99.4192 98.6592 98.71C98.7688 98.0516 98.4228 97.4016 97.8404 97.182C97.2156 96.9372 96.5824 97.1652 96.2196 97.7476C96.1604 97.8488 96.076 97.9416 96.0084 98.0432C96.0084 97.7224 96.0084 97.4016 96.0084 97.0724C96.3716 96.9372 96.7176 96.7428 97.0888 96.6756C97.8824 96.5236 98.676 96.9456 99.0136 97.638C99.36 98.3384 99.2332 99.2332 98.7012 99.782C98.1612 100.348 97.2156 100.491 96.4644 100.12C96.304 100.044 96.152 99.9592 96 99.8748C96.0084 99.554 96.0084 99.2332 96.0084 98.904Z" fill="#8D8D8D"/>
<path d="M163.872 81.6744C164.826 76.6684 165.763 71.7636 166.675 66.8504C166.742 66.496 166.844 66.378 167.215 66.3864C168.355 66.4116 169.503 66.3948 170.718 66.3948C169.41 73.3508 168.118 80.2392 166.818 87.17C165.502 87.17 164.218 87.1868 162.927 87.1532C162.758 87.1448 162.538 86.8912 162.429 86.6972C160.394 83.1348 158.376 79.564 156.359 75.9932C156.249 75.8072 156.14 75.6216 155.988 75.36C155.852 75.5792 155.743 75.7568 155.642 75.9256C153.598 79.5216 151.547 83.118 149.521 86.7308C149.327 87.0772 149.116 87.1952 148.728 87.1868C147.546 87.1616 146.364 87.1784 145.14 87.1784C143.84 80.256 142.54 73.3676 141.24 66.4368C142.557 66.4368 143.831 66.4368 145.182 66.4368C146.136 71.4596 147.09 76.4996 148.078 81.6744C148.23 81.438 148.322 81.3028 148.407 81.168C150.129 78.1288 151.86 75.0896 153.565 72.0424C153.767 71.6792 153.987 71.5528 154.4 71.5612C155.439 71.5948 156.477 71.5948 157.524 71.5612C157.988 71.5444 158.216 71.7216 158.436 72.11C160.166 75.208 161.922 78.2892 163.678 81.3704C163.712 81.4464 163.762 81.514 163.872 81.6744Z" fill="#8D8D8D"/>
<path d="M191.916 68.7668C191.916 67.9224 191.916 67.2052 191.916 66.4452C193.224 66.4452 194.499 66.4452 195.816 66.4452C195.816 73.342 195.816 80.2308 195.816 87.1528C194.524 87.1528 193.258 87.1528 191.949 87.1528C191.949 86.4016 191.949 85.6588 191.949 84.7892C188.868 87.2544 185.55 88.284 181.752 87.1868C179.38 86.5028 177.455 85.1692 176.02 83.1516C172.972 78.88 173.318 73.1988 176.889 69.3408C178.856 67.222 181.338 66.1244 184.217 65.964C187.112 65.8036 189.586 66.9012 191.916 68.7668ZM177.868 76.7612C177.86 80.6444 180.984 83.8524 184.833 83.81C188.775 83.7676 191.899 80.7964 191.924 76.8288C191.949 72.8188 188.818 69.8136 184.875 69.7544C181.009 69.7036 177.877 72.8864 177.868 76.7612Z" fill="#8D8D8D"/>
<path d="M222.128 87.1527C220.803 87.1527 219.554 87.1527 218.27 87.1527C218.27 80.2391 218.27 73.3507 218.27 66.4283C219.545 66.4283 220.803 66.4283 222.112 66.4283C222.112 67.0447 222.112 67.644 222.112 68.3784C222.416 68.1676 222.635 68.0071 222.863 67.8551C224.61 66.6815 226.484 65.9135 228.637 65.9895C233.601 66.1499 237.628 69.8644 238.185 74.8112C238.244 75.3092 238.269 75.8071 238.269 76.3135C238.278 79.7243 238.269 83.1263 238.269 86.5367C238.269 86.7307 238.269 86.9251 238.269 87.1527C236.969 87.1527 235.703 87.1527 234.378 87.1527C234.378 86.9503 234.378 86.7647 234.378 86.5703C234.378 83.0755 234.386 79.5807 234.378 76.0855C234.369 73.5111 232.866 71.2403 230.57 70.2779C226.645 68.6399 222.179 71.5695 222.137 75.8323C222.103 79.4035 222.128 82.9659 222.128 86.5367C222.128 86.7223 222.128 86.9163 222.128 87.1527Z" fill="#8D8D8D"/>
<path d="M206.325 87.1616C205 87.1616 203.75 87.1616 202.467 87.1616C202.467 80.256 202.467 73.3676 202.467 66.4368C203.725 66.4368 204.991 66.4368 206.308 66.4368C206.308 67.0784 206.308 67.7284 206.308 68.446C208.588 66.7492 211.128 66.116 213.906 65.9304C213.577 67.2896 213.264 68.5472 212.952 69.8304C211.652 69.8644 210.445 70.168 209.356 70.852C207.389 72.0928 206.334 73.8656 206.325 76.204C206.308 79.6484 206.325 83.084 206.325 86.5284C206.325 86.7224 206.325 86.9168 206.325 87.1616Z" fill="#8D8D8D"/>
<path d="M114.858 66.4116C116.15 66.4116 117.399 66.4116 118.708 66.4116C118.708 67.0784 118.708 67.7284 118.708 68.4292C120.987 66.7324 123.52 66.1076 126.297 65.922C125.976 67.2052 125.698 68.404 125.377 69.594C125.343 69.7124 125.064 69.822 124.896 69.8388C122.574 70.0668 120.734 71.0884 119.518 73.1144C118.97 74.0428 118.716 75.056 118.716 76.1448C118.725 79.606 118.716 83.0672 118.716 86.52C118.716 86.714 118.716 86.9084 118.716 87.136C117.416 87.136 116.158 87.136 114.858 87.136C114.858 80.2476 114.858 73.3592 114.858 66.4116Z" fill="#8D8D8D"/>
<path d="M135.533 87.1532C134.233 87.1532 132.966 87.1532 131.675 87.1532C131.675 80.2476 131.675 73.3676 131.675 66.4456C132.95 66.4456 134.224 66.4456 135.533 66.4456C135.533 73.3508 135.533 80.2392 135.533 87.1532Z" fill="#8D8D8D"/>
<path d="M134.908 58.6112C135.904 57.5308 136.757 56.4248 137.787 55.53C138.918 54.5508 140.8 54.6352 141.999 55.5216C143.342 56.5092 143.873 58.0708 143.375 59.6072C142.894 61.1016 141.51 62.0976 139.923 62.1228C138.859 62.14 137.964 61.7684 137.23 61.0088C136.428 60.1644 135.617 59.3372 134.908 58.6112Z" fill="#8D8D8D"/>
<path d="M132.468 58.5267C131.422 59.5231 130.493 60.4939 129.472 61.3631C128.264 62.3847 126.508 62.3847 125.217 61.4815C123.892 60.5443 123.334 58.9491 123.807 57.4039C124.254 55.9267 125.673 54.8967 127.243 54.8715C128.256 54.8547 129.1 55.2091 129.809 55.9099C130.679 56.7539 131.548 57.6067 132.468 58.5267Z" fill="#8D8D8D"/>
<path d="M175.091 97.4604C175.547 97.8316 175.952 98.1696 176.382 98.524C176.804 98.296 176.627 97.2748 177.615 97.418C177.302 97.9752 177.007 98.4904 176.644 99.1232C177.041 99.4272 177.454 99.7396 177.919 100.094C177.074 100.474 176.83 99.858 176.382 99.5032C175.834 100.17 175.124 100.508 174.272 100.254C173.917 100.153 173.538 99.9084 173.326 99.6128C172.794 98.87 173.158 98.0008 174.272 97.2832C173.884 96.8104 173.512 96.2952 173.765 95.6624C173.867 95.4004 174.103 95.1472 174.348 94.9952C174.947 94.6408 175.783 94.8604 176.104 95.4004C176.526 96.0844 176.264 96.6584 175.091 97.4604ZM176.002 99.098C175.682 98.752 175.386 98.4396 175.091 98.1272C175.015 98.0512 174.956 97.95 174.863 97.8992C174.736 97.8232 174.576 97.7136 174.466 97.7388C173.985 97.8572 173.63 98.4732 173.69 99.0136C173.748 99.4948 174.154 99.8408 174.702 99.8664C175.293 99.9 175.682 99.6044 176.002 99.098ZM174.804 97.0552C175.538 96.692 175.876 96.304 175.724 95.8816C175.631 95.6452 175.344 95.3416 175.124 95.3244C174.871 95.2992 174.508 95.4848 174.34 95.7044C174.052 96.0504 174.246 96.5316 174.804 97.0552Z" fill="#8D8D8D"/>
<path d="M185.154 97.1904C185.154 96.422 185.17 95.73 185.145 95.0292C185.136 94.6748 185.246 94.5312 185.635 94.6492C185.635 96.4896 185.635 98.3216 185.635 100.331C185.381 100.162 185.196 100.044 184.976 99.9C184.09 100.5 183.128 100.474 182.486 99.7568C181.895 99.0984 181.87 97.9672 182.435 97.2832C183.077 96.5152 184.005 96.4644 185.154 97.1904ZM183.862 97.0892C183.102 97.0976 182.57 97.6968 182.579 98.5156C182.587 99.3516 183.128 99.8916 183.912 99.8748C184.672 99.858 185.23 99.25 185.212 98.4568C185.204 97.6716 184.613 97.0808 183.862 97.0892Z" fill="#8D8D8D"/>
<path d="M191.114 98.6424C190.168 98.6424 189.214 98.6424 188.244 98.6424C188.193 99.2924 188.581 99.5624 189.037 99.7652C189.687 100.052 190.21 99.8071 190.683 99.3175C190.801 99.4103 190.911 99.4948 191.021 99.5792C190.346 100.39 189.256 100.558 188.404 100.001C187.712 99.554 187.442 98.5156 187.796 97.6968C188.151 96.878 189.138 96.456 190.05 96.7344C190.852 96.9792 191.257 97.6884 191.114 98.6424ZM190.59 98.2032C190.599 97.5112 190.21 97.106 189.569 97.0888C188.876 97.072 188.302 97.5616 188.269 98.2372C188.91 98.2372 189.544 98.2372 190.185 98.2372C190.32 98.2372 190.455 98.2116 190.59 98.2032Z" fill="#8D8D8D"/>
<path d="M109.372 99.6044C108.789 100.356 107.793 100.55 106.982 100.069C106.223 99.6216 105.919 98.5664 106.299 97.6968C106.653 96.8864 107.514 96.4812 108.384 96.726C109.211 96.954 109.65 97.6712 109.498 98.642C108.586 98.642 107.666 98.642 106.721 98.642C106.704 99.2164 106.974 99.5456 107.405 99.748C107.903 99.9844 108.392 99.9168 108.798 99.5372C109.042 99.3176 109.203 99.3008 109.372 99.6044ZM108.992 98.2116C108.916 97.4604 108.553 97.0888 107.911 97.0888C107.253 97.0804 106.797 97.5108 106.721 98.2116C107.472 98.2116 108.215 98.2116 108.992 98.2116Z" fill="#8D8D8D"/>
<path d="M206.663 97.1144C207.245 96.65 207.895 96.5232 208.604 96.7852C209.086 96.9624 209.33 97.3508 209.339 97.8656C209.339 98.6336 209.339 99.402 209.339 100.187C209.001 100.314 208.832 100.204 208.874 99.9592C208.393 100.069 207.895 100.263 207.389 100.28C206.848 100.297 206.46 99.8664 206.418 99.3852C206.359 98.8112 206.595 98.4144 207.186 98.2624C207.701 98.1272 208.242 98.0936 208.765 98.0176C208.858 97.3252 208.393 96.954 207.625 97.1228C207.456 97.1648 207.296 97.2748 207.127 97.3C206.975 97.3252 206.815 97.2916 206.654 97.2748C206.654 97.2324 206.663 97.1732 206.663 97.1144ZM208.79 98.4396C208.284 98.5324 207.794 98.558 207.355 98.7184C207.169 98.7856 206.967 99.1488 206.984 99.3596C207 99.5372 207.288 99.7988 207.498 99.8492C208.317 100.06 208.9 99.4528 208.79 98.4396Z" fill="#8D8D8D"/>
<path d="M143.358 98.0008C143.198 97.7136 143.122 97.3928 142.919 97.2492C142.522 96.9708 142.066 97.0636 141.644 97.2664C141.298 97.4352 141.298 97.4352 141.104 97.1396C141.644 96.6416 142.446 96.4896 143.08 96.7852C143.552 97.0044 143.763 97.4012 143.763 97.908C143.772 98.6592 143.763 99.4104 143.763 100.314C143.527 100.153 143.367 100.035 143.265 99.9676C142.792 100.077 142.311 100.263 141.83 100.28C141.265 100.297 140.876 99.8664 140.826 99.3512C140.775 98.8028 141.028 98.406 141.636 98.254C142.151 98.1356 142.691 98.102 143.358 98.0008ZM143.206 98.4396C142.7 98.5324 142.21 98.5664 141.771 98.7184C141.585 98.7856 141.349 99.132 141.383 99.3092C141.425 99.5204 141.695 99.7988 141.915 99.858C142.75 100.069 143.324 99.4612 143.206 98.4396Z" fill="#8D8D8D"/>
<path d="M199.319 100.322C198.264 100.305 197.496 99.5287 197.504 98.4819C197.512 97.4183 198.323 96.6415 199.403 96.6583C200.458 96.6751 201.227 97.4603 201.227 98.5071C201.218 99.5623 200.408 100.331 199.319 100.322ZM200.653 98.4735C200.644 97.6459 200.104 97.0803 199.336 97.0891C198.584 97.0975 198.036 97.7051 198.044 98.5071C198.053 99.3175 198.602 99.8831 199.37 99.8747C200.146 99.8663 200.661 99.3007 200.653 98.4735Z" fill="#8D8D8D"/>
<path d="M125.158 98.524C125.15 99.5708 124.365 100.322 123.293 100.322C122.212 100.322 121.41 99.5116 121.436 98.4564C121.461 97.4264 122.263 96.65 123.31 96.6584C124.39 96.6584 125.175 97.452 125.158 98.524ZM123.301 97.0888C122.558 97.0888 121.984 97.6968 121.984 98.4904C121.984 99.2924 122.542 99.8832 123.301 99.8748C124.07 99.8748 124.618 99.2924 124.618 98.482C124.618 97.6884 124.052 97.0888 123.301 97.0888Z" fill="#8D8D8D"/>
<path d="M238.607 98.524C238.598 99.5708 237.822 100.314 236.75 100.314C235.661 100.314 234.884 99.5288 234.909 98.448C234.926 97.3928 235.711 96.6416 236.775 96.65C237.847 96.6584 238.624 97.4436 238.607 98.524ZM238.058 98.5156C238.066 97.7052 237.526 97.1144 236.775 97.0972C236.024 97.0804 235.466 97.6628 235.458 98.4732C235.45 99.3092 235.964 99.8748 236.733 99.8832C237.509 99.8832 238.05 99.326 238.058 98.5156Z" fill="#8D8D8D"/>
<path d="M262.995 100.196C262.801 100.196 262.658 100.196 262.463 100.196C262.463 99.5288 262.48 98.8872 262.463 98.2456C262.446 97.4772 262.176 97.1312 261.611 97.0976C261.028 97.0636 260.598 97.4688 260.513 98.1864C260.471 98.524 260.488 98.862 260.488 99.208C260.488 99.5288 260.488 99.8496 260.361 100.288C260.235 100.179 259.99 100.069 259.99 99.9592C259.964 98.904 259.973 97.8488 259.973 96.6332C260.226 96.8104 260.395 96.9288 260.623 97.0892C260.665 97.0636 260.8 96.9456 260.944 96.8612C261.83 96.3376 262.801 96.802 262.962 97.8152C262.987 97.9756 262.995 98.136 262.995 98.2964C262.995 98.9124 262.995 99.5372 262.995 100.196Z" fill="#8D8D8D"/>
<path d="M257.989 98.524C257.981 99.5792 257.212 100.322 256.14 100.322C255.043 100.322 254.283 99.554 254.3 98.4564C254.317 97.4012 255.085 96.65 256.149 96.6584C257.238 96.6584 257.998 97.4352 257.989 98.524ZM257.449 98.5072C257.457 97.6884 256.917 97.0972 256.166 97.0888C255.414 97.0804 254.849 97.6716 254.84 98.4732C254.832 99.2924 255.364 99.8748 256.132 99.8748C256.908 99.8832 257.44 99.3344 257.449 98.5072Z" fill="#8D8D8D"/>
<path d="M148.711 96.6416C148.947 96.8104 149.116 96.9368 149.344 97.0888C149.361 97.0804 149.462 96.9876 149.58 96.9116C150.5 96.304 151.581 96.7764 151.699 97.8656C151.767 98.5576 151.742 99.2668 151.716 99.9592C151.708 100.077 151.488 100.178 151.37 100.297C151.32 100.263 151.269 100.238 151.218 100.204C151.218 99.6216 151.226 99.0304 151.218 98.448C151.21 97.5108 150.914 97.0888 150.281 97.0972C149.64 97.0972 149.251 97.604 149.226 98.4648C149.209 99.022 149.218 99.5792 149.209 100.128C149.209 100.145 149.192 100.162 149.158 100.204C149.049 100.212 148.914 100.212 148.728 100.221C148.711 99.0812 148.711 97.9584 148.711 96.6416Z" fill="#8D8D8D"/>
<path d="M217.942 100.229C217.739 100.221 217.604 100.212 217.435 100.204C217.435 99.056 217.435 97.9332 217.435 96.65C217.688 96.8188 217.874 96.9372 218.085 97.0808C218.203 97.0048 218.406 96.8444 218.634 96.76C219.52 96.4136 220.322 96.9032 220.424 97.8488C220.44 97.9924 220.44 98.136 220.44 98.2792C220.44 98.904 220.44 99.5288 220.44 100.17C220.052 100.314 219.908 100.221 219.917 99.8072C219.934 99.1996 219.908 98.5916 219.892 97.984C219.875 97.4944 219.638 97.1736 219.124 97.106C218.651 97.0468 218.186 97.3168 218.06 97.8152C217.967 98.1696 217.958 98.558 217.942 98.9292C217.933 99.3344 217.942 99.7484 217.942 100.229Z" fill="#8D8D8D"/>
<path d="M243.301 96.7768C243.486 96.7768 243.638 96.7768 243.833 96.7768C243.833 97.4436 243.824 98.0852 243.833 98.7268C243.85 99.5456 244.111 99.8748 244.719 99.8748C245.318 99.8832 245.757 99.4272 245.791 98.71C245.816 98.0852 245.8 97.4604 245.8 96.7936C245.977 96.7768 246.12 96.7684 246.306 96.7512C246.306 97.9164 246.306 99.0392 246.306 100.322C246.061 100.17 245.884 100.052 245.656 99.9C245.639 99.9084 245.521 100.018 245.386 100.103C244.474 100.677 243.436 100.179 243.318 99.1152C243.301 98.9716 243.301 98.828 243.301 98.6844C243.301 98.06 243.301 97.4352 243.301 96.7768Z" fill="#8D8D8D"/>
<path d="M162.395 100.153C162.395 99.5288 162.403 98.904 162.395 98.2708C162.378 97.4856 162.082 97.106 161.508 97.0892C160.926 97.072 160.495 97.4604 160.428 98.1948C160.368 98.8532 160.419 99.512 160.419 100.196C160.217 100.196 160.082 100.196 159.904 100.196C159.904 99.056 159.904 97.9332 159.904 96.6332C160.149 96.8188 160.318 96.9372 160.495 97.0804C160.732 96.9792 161.078 96.7428 161.458 96.6752C162.209 96.5404 162.791 97.0132 162.867 97.798C162.935 98.5072 162.918 99.2332 162.893 99.9424C162.893 100.06 162.673 100.162 162.555 100.28C162.496 100.246 162.445 100.196 162.395 100.153Z" fill="#8D8D8D"/>
<path d="M101.715 100.204C101.504 100.204 101.369 100.204 101.2 100.204C101.2 99.0728 101.2 97.95 101.2 96.6836C101.428 96.8272 101.606 96.9284 101.85 97.072C101.859 97.0552 101.977 96.9624 102.112 96.878C103.015 96.3124 104.096 96.8188 104.18 97.874C104.231 98.4988 104.197 99.132 104.197 99.7564C104.197 99.9 104.197 100.035 104.197 100.196C104.003 100.196 103.859 100.196 103.674 100.196C103.674 99.5116 103.682 98.87 103.674 98.2284C103.657 97.4604 103.378 97.1144 102.804 97.0972C102.222 97.0804 101.766 97.5112 101.724 98.2032C101.681 98.8448 101.715 99.4948 101.715 100.204Z" fill="#8D8D8D"/>
<path d="M233.119 97.418C232.95 97.3928 232.782 97.3844 232.621 97.342C232.317 97.2744 232.014 97.1396 231.718 97.1564C231.558 97.1648 231.296 97.418 231.279 97.5868C231.262 97.7472 231.465 97.992 231.634 98.0848C231.895 98.2284 232.216 98.254 232.503 98.3552C232.968 98.5072 233.288 98.794 233.254 99.326C233.221 99.8748 232.883 100.17 232.385 100.272C231.71 100.415 231.11 100.28 230.621 99.706C230.772 99.4272 230.874 99.3428 231.212 99.5624C231.507 99.7564 231.929 99.8072 232.3 99.8072C232.444 99.8072 232.697 99.52 232.714 99.3512C232.731 99.1824 232.537 98.9292 232.368 98.8364C232.115 98.6928 231.794 98.6504 231.507 98.5576C231.068 98.4144 230.73 98.1696 230.739 97.6544C230.747 97.1312 231.051 96.844 231.541 96.7176C232.208 96.5484 232.773 96.7344 233.119 97.418Z" fill="#8D8D8D"/>
<path d="M116.42 97.4268C116.252 97.3928 116.083 97.3844 115.914 97.3252C115.728 97.2664 115.56 97.1312 115.374 97.106C115.019 97.0636 114.648 97.1144 114.555 97.528C114.462 97.95 114.808 98.06 115.129 98.1528C115.433 98.2456 115.762 98.3048 116.041 98.448C116.699 98.7772 116.733 99.6552 116.125 100.078C115.466 100.533 114.42 100.331 113.93 99.6468C114.099 99.3936 114.251 99.3344 114.513 99.5876C114.834 99.9 115.256 99.9676 115.661 99.7904C115.821 99.7228 115.998 99.4948 116.015 99.326C116.024 99.1656 115.863 98.9208 115.711 98.8448C115.416 98.6928 115.07 98.6424 114.749 98.5324C114.327 98.3892 114.04 98.1272 114.057 97.6292C114.074 97.1564 114.335 96.878 114.774 96.7344C115.433 96.5236 115.998 96.684 116.454 97.2156C116.437 97.2916 116.429 97.3592 116.42 97.4268Z" fill="#8D8D8D"/>
<path d="M195.976 97.4012C195.799 97.376 195.596 97.4096 195.461 97.3252C194.887 96.9792 194.229 97.0384 193.807 97.5112C193.351 98.026 193.342 98.9208 193.79 99.4444C194.204 99.934 194.913 100.001 195.495 99.6552C195.63 99.5708 195.833 99.596 196.018 99.6384C195.428 100.474 194.178 100.525 193.461 99.8324C192.726 99.132 192.735 97.8148 193.478 97.1228C194.187 96.4472 195.394 96.5064 195.976 97.4012Z" fill="#8D8D8D"/>
<path d="M118.531 97.2748C118.252 97.0888 117.737 97.4012 117.847 96.7768C118.058 96.7596 118.252 96.7512 118.506 96.7344C118.506 96.4472 118.506 96.152 118.506 95.8144C118.708 95.806 118.852 95.7972 119.046 95.7888C119.046 96.1096 119.046 96.3884 119.046 96.7176C119.375 96.7344 119.67 96.7512 120.169 96.7768C119.974 96.9708 119.882 97.1312 119.755 97.1648C119.552 97.2156 119.333 97.182 119.071 97.182C119.071 97.9332 119.046 98.6424 119.08 99.3512C119.114 99.934 119.578 99.8324 119.983 99.7904C120.008 99.8324 120.042 99.8748 120.067 99.9168C119.958 100.035 119.865 100.212 119.73 100.246C119.054 100.432 118.565 100.06 118.539 99.3428C118.506 98.6424 118.531 97.95 118.531 97.2748Z" fill="#8D8D8D"/>
<path d="M212.032 95.7888C212.032 96.118 212.032 96.3968 212.032 96.726C212.362 96.7428 212.657 96.7595 212.952 96.7679C212.969 97.1311 212.969 97.1312 212.041 97.224C212.041 97.9248 212.007 98.6423 212.049 99.3511C212.083 99.9339 212.547 99.8324 213.037 99.9084C212.927 100.027 212.834 100.212 212.699 100.246C212.024 100.432 211.534 100.06 211.509 99.3427C211.484 98.6507 211.5 97.95 211.5 97.2664C210.825 97.1312 210.825 97.1311 210.85 96.7763C211.036 96.7679 211.23 96.7595 211.399 96.7427C211.737 96.4895 211.112 95.73 212.032 95.7888Z" fill="#8D8D8D"/>
<path d="M248.627 97.2832C248.366 97.0636 247.834 97.41 247.935 96.7684C248.154 96.76 248.366 96.7432 248.61 96.7344C248.61 96.4308 248.61 96.1436 248.61 95.8228C248.796 95.806 248.94 95.7976 249.125 95.7808C249.125 96.1016 249.125 96.3884 249.125 96.726C249.454 96.726 249.75 96.726 250.028 96.726C250.096 97.1144 250.096 97.1144 249.151 97.2496C249.151 97.95 249.134 98.6592 249.159 99.3684C249.176 99.7736 249.362 99.8496 250.231 99.816C250.062 100.018 249.986 100.196 249.868 100.238C249.218 100.466 248.652 100.086 248.636 99.402C248.61 98.6848 248.627 97.9672 248.627 97.2832Z" fill="#8D8D8D"/>
<path d="M154.501 97.2496C154.501 97.9332 154.476 98.6256 154.51 99.326C154.526 99.7988 154.738 99.8916 155.556 99.7652C155.388 99.9932 155.32 100.187 155.202 100.23C154.535 100.449 154.012 100.078 153.995 99.3768C153.978 98.6676 153.995 97.95 153.995 97.3C153.775 97.0384 153.184 97.4268 153.286 96.7768C153.522 96.76 153.724 96.7432 153.969 96.726C153.969 96.4224 153.969 96.1436 153.969 95.8144C154.146 95.806 154.298 95.7892 154.467 95.7808C154.484 96.11 154.493 96.3884 154.51 96.726C154.814 96.726 155.109 96.726 155.396 96.726C155.438 97.0724 155.438 97.0724 154.501 97.2496Z" fill="#8D8D8D"/>
<path d="M205.144 97.1396C204.004 97.1904 203.726 97.4772 203.718 98.5324C203.709 99.0728 203.718 99.6044 203.718 100.187C203.549 100.196 203.397 100.212 203.211 100.221C203.211 99.056 203.211 97.9332 203.211 96.6836C203.439 96.8104 203.624 96.9032 203.743 96.9708C204.165 96.8696 204.604 96.768 205.034 96.692C205.034 96.692 205.094 96.954 205.144 97.1396Z" fill="#8D8D8D"/>
<path d="M240.903 100.272C240.802 100.136 240.616 100.01 240.616 99.8748C240.599 98.2284 240.599 96.5824 240.616 94.9364C240.616 94.8096 240.818 94.6832 240.92 94.5648C240.97 94.5984 241.012 94.6408 241.063 94.6744C241.063 96.498 241.063 98.3128 241.063 100.136C241.021 100.179 240.962 100.229 240.903 100.272Z" fill="#8D8D8D"/>
<path d="M214.708 96.7769C214.894 96.7769 215.029 96.7769 215.189 96.7769C215.189 97.9249 215.189 99.0477 215.189 100.204C215.037 100.212 214.885 100.221 214.708 100.229C214.708 99.0645 214.708 97.9417 214.708 96.7769Z" fill="#8D8D8D"/>
<path d="M157.161 96.7512C157.338 96.7596 157.482 96.7684 157.642 96.7768C157.642 97.9248 157.642 99.0392 157.642 100.196C157.482 100.196 157.338 100.196 157.161 100.196C157.161 99.056 157.161 97.9416 157.161 96.7512Z" fill="#8D8D8D"/>
<path d="M145.967 96.7769C146.144 96.7769 146.279 96.7769 146.44 96.7769C146.44 97.9165 146.44 99.0393 146.44 100.196C146.288 100.196 146.136 100.196 145.967 100.196C145.967 99.0561 145.967 97.9417 145.967 96.7769Z" fill="#8D8D8D"/>
<path d="M252.283 100.162C251.928 100.28 251.81 100.187 251.81 99.8412C251.827 98.8448 251.818 97.8404 251.818 96.802C251.979 96.802 252.122 96.802 252.283 96.802C252.283 97.9164 252.283 99.022 252.283 100.162Z" fill="#8D8D8D"/>
<path d="M214.48 95.4008C214.683 95.2488 214.835 95.0628 214.936 95.0884C215.08 95.122 215.19 95.3164 215.308 95.4428C215.173 95.5524 215.054 95.7384 214.902 95.7636C214.801 95.7636 214.666 95.5612 214.48 95.4008Z" fill="#8D8D8D"/>
<path d="M157.372 95.89C157.229 95.6876 157.034 95.5272 157.06 95.426C157.102 95.2824 157.296 95.1812 157.423 95.0544C157.533 95.1896 157.71 95.3244 157.727 95.468C157.744 95.578 157.541 95.7128 157.372 95.89Z" fill="#8D8D8D"/>
<path d="M146.701 95.4088C146.482 95.5692 146.347 95.7468 146.203 95.7552C146.093 95.7552 145.857 95.5272 145.874 95.4512C145.908 95.2992 146.068 95.122 146.212 95.0796C146.313 95.0544 146.465 95.2484 146.701 95.4088Z" fill="#8D8D8D"/>
<path d="M252.544 95.4176C252.316 95.5864 252.164 95.7804 252.072 95.7552C251.928 95.7216 251.768 95.5444 251.734 95.4008C251.717 95.3164 251.928 95.08 252.038 95.0884C252.181 95.0884 252.316 95.2572 252.544 95.4176Z" fill="#8D8D8D"/>
</svg>
